<?xml version="1.0" encoding="utf-8"?>
<!-- Generator: Adobe Illustrator 23.0.0, SVG Export Plug-In . SVG Version: 6.00 Build 0)  -->
<svg version="1.1" xmlns="http://www.w3.org/2000/svg" xmlns:xlink="http://www.w3.org/1999/xlink" x="0px" y="0px"
	 viewBox="0 0 999 1009" style="enable-background:new 0 0 999 1009;" xml:space="preserve">
<style type="text/css">
	.hoverthingQ{opacity:0.5;fill:#9C1F60;}
	.st0{fill:#F4DAB9;}
	.st1{display:none;}
	.st2{opacity:0.68;fill:#FBF28F;stroke:#231F20;stroke-width:0.5;stroke-miterlimit:10;}
	.st3{opacity:0.57;fill:#F8F7CA;stroke:#231F20;stroke-width:0.5;stroke-miterlimit:10;}
	.st4{fill:none;stroke:#3ABFEF;stroke-width:0.5;stroke-miterlimit:10;}
	.st5{fill:none;stroke:#3ABFEF;stroke-width:2;stroke-miterlimit:10;}
	.st6{opacity:0.54;fill:#EE3424;}
	.st7{fill:none;stroke:#231F20;stroke-miterlimit:10;}
	.st8{opacity:0.54;fill:#F89821;}
	.st9{fill:none;stroke:#231F20;stroke-width:0.5;stroke-miterlimit:10;stroke-dasharray:4;}
	.st10{fill:none;stroke:#231F20;stroke-width:2;stroke-miterlimit:10;}
</style>
<g id="sepia">
	<rect x="49" y="55" class="st0" width="896" height="910"/>
</g>
<g id="GE_Chandigar_over_view" class="st1">
</g>
<g id="scratch">
</g>
<g id="Pre_Siwaliks">
</g>
<g id="Below_TWS">
</g>
<g id="Upper_Siwaliks">
	<path class="st2" d="M370.76,659.6c0.19,4.83-3.69,8.69-6.05,12.91c-4.68,8.37-2.61,20.04,4.28,26.64
		c3.06,2.93,6.65,5.37,10.18,7.68c3.14,2.05,8.97,6.97,12.75,7.33c0.67,0.06,1.34-0.12,2-0.28c6.57-1.63,13.55-1.54,20.08,0.26
		c3.55,0.98,6.98,2.46,10.64,2.86c6.8,0.75,11.75,1.57,18.2,3.89c4.55,1.64,8.8,3.87,13.43,5.32c4.67,1.46,9.47,2.68,14.35,2.76
		c5.05,0.08,8.47-1.94,13.08-3.26c4.31-1.24,9.17-1.45,13.6-2.54c6.53-1.62,12.65-4.2,19.03-6.15c5.85-1.79,11.08-2.83,15.98-6.88
		c-0.54,5.71,2.4,11.61,7.28,14.63c5.56,3.44,13.33,3.44,17.4,8.55c3.82,4.8,4.07,10.3,11.66,9.17c6.3-0.94,8.21-7.15,11.92-11.47
		c2.31-2.69,5.41-4.56,8.46-6.37c6.3-3.75,12.6-7.5,18.89-11.26c1.79-1.06,3.61-2.15,4.98-3.72c0.91-1.04,1.61-2.26,2.58-3.24
		c3.62-3.67,10.87-4.05,11.92-9.1c-0.41,7.14-4.45,13.98-10.51,17.8c-2.85,1.79-6.65,3.97-6.01,7.27c0.22,1.15,1,2.14,1.15,3.3
		c0.23,1.76-1.01,3.34-2.18,4.67c-6.01,6.9-12.42,14.08-21.05,17.13c-5.85,2.06-12.41,2.09-17.8,5.16c-2.95,1.68-5.46,4.23-8.7,5.26
		c-3.68,1.16-7.78,0.12-11.08-1.89c-3.48-2.13-5.87-5.41-9.02-7.86c-3.45-2.68-7.57-4.93-11.41-7.01
		c-7.81-4.21-16.41-7.35-25.41-7.03c-14.46,0.52-27.33,9.72-41.7,11.48c-19.86,2.42-35.33-11.04-51.34-20.77
		c-2.73-1.66-5.51-3.34-8.63-4.03c-6.01-1.33-12.62,0.87-13.6,7.38c-0.4,2.64,3.57,5.59,4.01,8.26c1.07,6.48-1.34,10.14-3.51,15.93
		c-2,5.36-0.73,11.3,0.03,16.98c0.75,5.67,0.14,12.89-1.23,18.44c-3.25,13.14,5.23,27.36,0.98,40.21
		c-1.58,4.77-4.84,8.97-5.63,13.94c-0.18,1.14-0.22,2.37,0.3,3.4c0.62,1.23,1.88,1.96,3.08,2.63c4.84,2.7,10.34,8.5,15.85,9.06
		c17.74,1.82,34.87,7.47,52.52,9.98c6.48,0.92,13.04,1.43,19.42,2.9c8.15,1.88,16.04,6.22,24.34,7.29
		c6.85,0.89,11.76,1.28,18.51,3.87c4.4,1.69,8.78,3.43,13.2,5.07c1.41,0.52,7.28,3.97,8.51,3.48c0.67-0.26,0.97-1.02,1.25-1.68
		c2.4-5.65,8.11-8.99,12.9-12.83c11.53-9.26,20.6-25.35,20.45-40.31c-0.1-9.97-0.19-19.95-0.29-29.92
		c-0.03-2.88-0.02-5.92,1.42-8.42c1.72-2.99,5.1-4.56,8.26-5.94c6.64-2.9,13.57-5.85,20.81-5.53c2.04,0.09,4.07,0.45,6.11,0.37
		c8.71-0.33,17.45-4.9,24.33-9.95c8.35-6.13,10.86-12.58,14.86-21.74c1.97-4.49,4.63-9.57,9.45-10.47c3.12-0.58,6.23,0.82,9.37,1.27
		c3.39,0.49,6.91-0.31,9.87-2.02c3.57-2.06,3.22-3.88,4.92-6.89c2.95-5.2,10.1-7.71,15.81-8.52c2.08-0.29,4.18-0.37,6.24-0.77
		c3.06-0.59,5.94-1.89,8.78-3.17c3.77-1.7,7.54-3.4,11.31-5.1c2.5-1.13,5.15-2.28,7.88-2c-5.2,8.64-14.74,14.52-24.79,15.29
		c-3.21,0.25-6.49,0.01-9.61,0.81c-6.25,1.61-5.9,7.4-10.48,10.78c-2.55,1.88-5.61,2.93-8.61,3.96c-3.98,1.36-8.23,2.74-12.31,1.72
		c-2.74-0.68-5.65-2.4-8.15-1.09c-1.64,0.86-2.41,2.75-3.06,4.49c-1.06,2.84-2.11,5.69-3.17,8.53c-1.01,2.71-2.34,12.98,2.34,13.3
		c2.81,0.2,10.07-8.12,12.3-9.81c4.24-3.22,9.76-4.69,15.04-4.03c1.03,0.13,2.07,0.35,2.96,0.89c1.01,0.62,1.73,1.6,2.34,2.62
		c3.07,5.15,3.61,15.33,11.57,14.21c2.55-0.36,4.84-1.67,7.06-2.96c21.58-12.59,42.67-26.34,65.89-35.55
		c2.78-1.1,5.74-2.16,8.7-1.73c0.72,0.1,1.51,0.37,1.8,1.03c0.38,0.86-0.31,1.81-1.07,2.37c-3.62,2.67-8.75,1.33-13.09,2.52
		c-3.78,1.04-6.71,3.93-9.78,6.37c-8.7,6.92-19.43,10.74-28.82,16.68c-9.99,6.32-15.45,15.07-23.43,23.18
		c-1.47,1.49-3.1,3.01-5.16,3.42c-1.45,0.29-2.94-0.02-4.39-0.32c-2.81-0.59-5.79-1.27-7.78-3.33c-1.34-1.39-2.06-3.24-2.75-5.04
		c-1.93-5.05-3.87-10.09-5.8-15.14c-0.71-1.84-1.57-3.86-3.38-4.67c-2.03-0.91-4.37,0.1-6.3,1.22
		c-8.22,4.78-13.25,15.72-23.53,15.93c-2.38,0.05-4.75-0.42-7.13-0.36c-4.2,0.1-8.33,1.92-11.25,4.94
		c-8.32,8.62-25.18,9.17-36.68,11.5c-5.53,1.12-11.64,2.62-14.72,7.34c-2.34,3.6-2.3,8.19-2.18,12.49
		c0.14,5.11,0.34,10.44,2.77,14.95c0.74,1.37,1.69,2.68,1.95,4.22c0.26,1.49-0.16,3.01-0.62,4.45c-1.74,5.5-4.02,10.83-6.82,15.88
		c-2.17,3.91-3.23,8.22-5.43,11.98c-2.51,4.3-7.66,6.49-10.32,10.7c-1.86,2.93-2.48,6.78-5.23,8.9c-1.9,1.46-5.04,2.96-4.07,5.15
		c0.74,1.69,7.06,1.68,8.92,2.35c3.5,1.27,6.95,2.67,10.43,4.01c4.29,1.65,8.65,3.31,13.24,3.59c9.75,0.59,18.61-5.08,27.33-9.49
		c19.63-9.94,41.66-14.22,63.57-16.25c35.92-3.32,72.11-0.86,108.06,2.17c51.63,5.43,103.34,9.1,154.71,16.79
		c2.41,0.36,5.27,0.57,6.89-1.25c1.17-1.31,1.26-3.23,1.28-4.99c1.35-95.28,1.76-190.57,1.21-285.85
		c-32.08,1.67-68.45-1.01-99.28-10.55c-9.57-2.96-18.79-6.93-27.98-10.9c-23.81-10.26-47.68-20.56-70.1-33.57
		c-30.28-17.56-57.71-40.02-80.91-66.22c-6.9-7.8-13.48-15.99-18.39-25.17c-4.97-9.29-8.15-19.41-11.76-29.31
		c-10.08-27.7-23.67-54.12-40.34-78.42c-4.36-6.36-10.41-13.28-18.08-12.51c-8.21,0.83-12.65,9.79-15.57,17.5
		c-7.83,20.74-13.4,48.59-26.22,66.7c-11.46,16.19-26.78,31.32-39.23,47.08c-5.81,7.36-11.7,14.84-15.35,23.49
		c-2.13,5.04-3.47,10.44-6.27,15.14c-4.13,6.96-11.08,11.84-15.5,18.62c-2.28,3.51-3.84,7.44-6.01,11.01
		c-3.32,5.46-8.03,9.98-13.28,13.63c-2.74,1.91-27.77,18.73-17.75,21.41c8.17,2.19,16.8,0.21,25.26-0.05
		c8.46-0.25,18.14,2.07,22.07,9.56c1.38,2.63,1.9,5.66,3.28,8.29c2.68,5.09,8.16,7.99,13.43,10.29c10.56,4.62,21.24,9.58,32.49,12.3
		c1.64,0.4,3.3,0.76,4.98,0.87c1.54,0.11,3.08,0.01,4.61-0.09c9.44-0.59,17.21,4.53,26.63,4.53c3.32,0.72,7.23,1.31,9.75-0.97
		c1.04-0.94,1.67-2.24,2.27-3.5c1.12-2.35,2.24-4.69,3.36-7.04c0.83-1.74,1.69-3.62,1.42-5.53c-0.25-1.8-1.45-3.32-1.92-5.07
		c-1.35-5.08,3.87-9.62,8.95-10.96c5.08-1.34,10.67-1.02,15.28-3.54c3.14-1.72,5.59-6.03,3.29-8.77c4.74-2.81,10.8-3.28,15.92-1.23
		c2.21,0.88,4.27,2.21,6.61,2.63c2.34,0.42,5.18-0.44,5.99-2.67c0.6-1.66-0.08-3.57,0.48-5.24c0.63-1.91,2.75-3,4.76-3.06
		c2.01-0.06,3.94,0.69,5.82,1.42c-1.94,3.95-3.87,7.89-5.81,11.84c-1.03,2.11-2.44,4.49-4.77,4.75c-2.34,0.27-4.41-1.79-6.77-1.78
		c-1.45,0.01-2.76,0.79-4.01,1.52c-5.84,3.37-12.17,5.89-18.74,7.45c-4.37,1.04-9.7,2.39-10.88,6.73c-0.68,2.51,0.38,5.12,1.41,7.5
		c1.37,3.15,2.74,6.29,4.11,9.44c0.8,1.84,1.62,3.78,1.39,5.78c-0.31,2.74-2.58,4.93-5.14,5.95c-2.55,1.03-5.38,1.1-8.13,1.16
		c-9.16,0.21-18.91-0.51-27.99,0.64c-8.03,1.02-14.57,4.59-23.12,2.81c-6.73-1.4-12.97-4.89-19.94-5.17
		c-7.59-0.31-14.24-2.06-21.37-5.14c-6.76-2.92-22.02-9.94-22.57-18.11c-0.14-2.17-0.07-4.48-1.19-6.34
		c-1.07-1.77-3.02-2.78-4.87-3.7c-3.18-1.58-6.73-3.2-10.14-2.23c-0.84,0.24-1.65,0.63-2.52,0.68c-1.75,0.1-3.24-1.15-4.88-1.77
		c-4.25-1.6-10.39,1.21-14.84,1.75c-4.9,0.59-9.75,1.75-14.29,3.7c-10.42,4.46-12.06,13.22-20.41,20.46
		c-4.28,3.71-10.14,5.66-13.4,10.29c-1.64,2.33-2.45,5.14-3.23,7.88c-1.42,4.99-2.85,9.98-4.27,14.96
		C369.71,650.63,370.57,654.83,370.76,659.6z"/>
	<path class="st2" d="M439.79,67.85c0.27,0.64,0.47,1.13,0.58,1.41c2.6,6.2,4.55,12.66,6.19,19.18c3.42,13.61,5.39,27.52,8.59,41.18
		c3.1,13.22,7.36,26.37,15.22,37.59c9.46,13.5,13.07,32.68,18.42,48.29c2.69,7.85,5.42,16.03,4.45,24.28
		c-1.93,16.43-20.17,23.72-34.24,26.28c-16.63,3.03-34.39,3.77-48.67,12.82c-3.45,2.19-6.69,4.86-10.58,6.13
		c-4.08,1.33-8.49,0.98-12.78,0.82c-23.18-0.82-48.24,5.84-62.53,24.11c-7.07,9.04-10.92,20.1-14.65,30.95
		c-8.48,24.63-16.96,49.27-25.45,73.9c-2.79,8.1-5.8,16.55-12.07,22.38c-6.27,5.84-16.88,7.98-23.32,2.33
		c-3.8-3.34-5.34-8.49-6.74-13.36c-16.01-55.68-36.81-110.42-67.66-159.46c-16.03-25.49-34.82-49.33-56.43-70.34
		c-10.89-10.58-22.49-20.44-34.78-29.36c-6.14-4.46-12.45-8.68-18.92-12.64c-4.72-2.89-13.26-4.99-13.57-11.09
		c-0.37-7.19-0.73-14.38-1.1-21.58c-0.68-13.26-1.36-26.53-1.05-39.81c0.06-2.44,3.47-30.25,0.04-30.31
		c40.76,0.72,81.54,0.78,122.31,0.58c39.61-0.2,79.04-1.63,118.66-1.31c47.15,0.38,94.32,4.35,141.4,1.78
		C433.28,52.51,438,63.56,439.79,67.85z"/>
</g>
<g id="Lakes">
</g>
<g id="Active_floodplain">
	<path class="st3" d="M646.13,202.69c4.34-11.46,19.85-15.04,27.15-24.45c3.75-4.83,6.17-10.54,8.55-16.18
		c3.19-7.57,6.39-15.14,9.58-22.72c2.09-4.95,4.19-9.93,5.4-15.17c1.67-7.19,1.27-14.99,3.63-22c1.77-5.28,4.49-8.96,4.86-14.86
		c0.2-3.1-0.06-6.27,0.77-9.27c1.78-6.43,8.13-10.72,10.24-17.05c0.91-2.73,1.07-5.9,3.09-7.95c2.69-2.73,7.17-2.08,10.91-1.24
		c-0.03-0.01-9.89,22.66-10.24,25.25c-0.39,2.88-0.11,5.81-0.17,8.72c-0.12,6.23-1.77,12.32-3.26,18.38
		c-0.85,3.45-1.65,6.95-1.66,10.5c-0.01,2.79,0.46,5.56,0.92,8.31c0.71,4.16,1.42,8.33,2.12,12.49c-0.11-0.63,5.28-9.21,5.87-10.84
		c1.59-4.47,2.99-8.96,4.31-13.52c2.78-9.61,5.4-19.43,10.88-27.93c4.11-6.38,8.32-12.79,13.85-17.98
		c5.53-5.19,12.58-9.13,20.15-9.52c5.59-0.29,11.09,1.34,16.63,2.12c8.84,1.24,17.98,0.31,26.38-2.71
		c-11.57,16.07-29.77,27.21-49.34,30.23c-3.4,0.52-6.87,0.82-10.08,2.05c-2.85,1.09-5.4,2.87-7.55,5.03
		c-7.99,7.99-7.87,17.71-7.03,28.15c0.07,0.89,0.16,1.8,0.57,2.6c0.47,0.91,1.3,1.57,2.14,2.15c8.62,5.88,16.26,4.04,24.75,0.18
		c9.06-4.12,19.36-4.77,28.42-9.03c3.15-1.48,6.12-3.32,9.29-4.76c3.31-1.5,6.8-2.56,10.22-3.77c10.86-3.84,21.08-9.27,31.26-14.67
		c-2.91,11.39-13.82,18.66-24.16,24.25c-3.69,1.99-7.47,3.93-11.56,4.84c-3.88,0.86-7.96,0.78-11.74,2.01
		c-3.5,1.13-6.59,3.33-10.09,4.46c-3.96,1.27-8.24,1.1-12.33,1.91c-5.24,1.03-6.19,3.74-9.55,6.86c-3.38,3.14-8.26,5.11-12.42,7.35
		c-10.09,5.41-20.17,10.83-30.26,16.24c-3.96,2.13-7.98,4.29-11.2,7.44c-3,2.93-5.2,6.61-8.29,9.45c-2.84,2.61-6.38,4.45-8.97,7.31
		c-3.26,3.61-4.72,8.48-7.38,12.55c-4.88,7.46-13.12,11.57-19.41,17.62c-7.14,6.87-10.45,16.23-11.47,25.96
		c21.5,2.68,42.73,2.21,61.41-10.2c13.41-8.91,24.12-22.54,39.5-27.29c8.4-2.6,19.33-1.3,26.98-5.82c2.93-1.73,5.22-4.42,8.5-6.11
		c3.32-1.71,6.86-3,9.25-6.05c1.61-2.05,2.46-4.61,4.1-6.63c3.96-4.88,11.43-5.51,15.73-10.08c0.09,6.26,6.43,10.74,12.56,11.99
		c9.92,2.02,20.01-1.47,29.84-3.86c9.84-2.39,21.12-3.43,29.26,2.59c-14.19,1.99-28.1,5.97-41.2,11.78
		c1.77,3.06,3.62,6.06,5.56,9.01c-11.12-8.87-27.57-10.43-40.16-3.8c-5.87,3.09-10.73,7.67-16.34,11.13
		c-5.02,3.1-10.59,4.55-15.94,6.92c-13.18,5.83-27.33,9.34-39.85,16.66c14.13-0.1,28.58-0.14,41.92,4.51
		c8.51,2.97,18.26,7.32,27.46,5.84c4.19-0.67,8.09-2.58,12.24-3.51c9.23-2.06,19.16,0.84,28.2-1.93c3-0.92,5.78-2.43,8.59-3.83
		c23.95-11.99,49.37-15.15,75.36-9.45c0.65,0.14,1.32,0.3,1.82,0.73c0.63,0.54,0.85,1.4,1.03,2.22c1.83,8.51,1.55,17.47-0.81,25.84
		c-0.3,1.06-12.99-2.22-14.3-2.21c-2.99,0.03-5.96,0.84-8.95,0.67c-3.36-0.18-6.52-1.58-9.74-2.59c-7.28-2.3-15.01-2.68-22.63-3.05
		c-1.99-0.1-4.43,0.05-5.34,1.82c-0.43,0.83-0.38,1.82-0.32,2.76c0.23,3.69,0.46,7.38,0.69,11.07c10.66,0.32,21.11,2.91,31.47,5.5
		c9.98,2.49,19.61,5.79,29.37,8.55c0.39,12.77,0.23,25.55-0.48,38.3c-2.91-0.89-6.32-1.44-9.33-1.99
		c-3.71-0.68-7.54-1.32-10.75-3.31c-4.29-2.66-7.68-7.75-12.73-7.57c-2.72,0.1-5.18,1.81-7.9,1.86c-3.99,0.07-7.33-3.42-11.32-3.53
		c-4.49-0.12-8.46,4.07-12.88,3.31c-5.32-0.92-7.86-8.45-13.26-8.64c-1.94-0.07-3.8,0.89-5.74,0.85c-3.82-0.09-7.34-3.99-10.89-2.57
		c-2.5,1-3.32,4.07-3.81,6.72c-1.2,6.44-2.39,12.87-3.59,19.31c-0.48,2.57-0.96,5.19-0.7,7.79c0.35,3.48,1.99,6.68,3.6,9.79
		c4.08,7.87,8.56,16.17,16.28,20.52c2.46,1.39,5.22,2.35,7.32,4.24c2.1,1.89,3.37,5.18,1.88,7.58c-1.15-0.32-2.31-0.65-3.46-0.97
		c-0.52,0.84-1.04,1.68-1.55,2.52c-6.86-5.64-15.22-9.07-23.44-12.42c-4.88-1.99-9.76-3.98-14.64-5.97
		c-3.39-1.38-6.8-2.78-9.87-4.76c-10.15-6.58-15.28-18.91-16.56-30.94c-1.28-12.03,0.69-24.13,1.67-36.18
		c0.1-1.2,0.17-2.48-0.42-3.52c-0.52-0.93-1.48-1.51-2.41-2.02c-14.66-8.05-36.92-9.28-51.65-0.84c-5.86,3.36-11.33,8.47-18.09,8.47
		c-4.68,0-8.93-2.51-13.11-4.62c-10.24-5.16-21.52-8.19-32.96-9c-11.73-0.83-22.27,2.56-33.68,3.31c-3.72,0.24-7.49,0.59-11,1.87
		c-3.54,1.28-6.68,3.46-9.62,5.81c-6.39,5.09-14.01,11.77-17.52,19.29c-3.32,7.13-7.97,13.01-13.54,18.71
		c-2.94,3.01-6.1,5.82-8.67,9.16c-2.76,3.58-4.77,7.68-7.25,11.46c-5.12,7.8-12.16,14.11-18.25,21.17c-3.97,4.6-7.6,9.66-9.85,15.34
		c-2.18,5.53-1.77,11.22-3.42,16.86c-2.2,7.51-6.38,14.27-10.63,20.85c-17.66,27.34-39.12,51.55-57.49,78.25
		c-1.14,1.65-2.3,3.41-2.49,5.41c-0.22,2.42,1.18,4.9,3.37,5.96c2.19,1.05,5.01,0.6,6.76-1.09c1.29-1.24,1.95-2.99,2.94-4.48
		c0.99-1.5,2.6-2.86,4.37-2.61c-1.72,4.23-2.01,9.3-5.28,12.49c-3.86,3.77-11.24,2.68-13.85-2.04c-2.96,2.56-3.83,6.46-6.54,8.91
		c-3.79,3.43-8.07,6.48-10.83,10.78c-2.5,3.88-3.57,8.5-5.81,12.54c-6.06,10.93-19.2,15.56-28.29,24.13
		c-4.41,4.16-7.89,9.31-10.09,14.97c7.37,1.65,15.01-0.17,22.48-1.31c7.47-1.14,15.66-1.45,21.97,2.71
		c4.46,2.94,6.06,7.63,11.89,9.02c-2.24,0.39-3.47,3.09-3.03,5.32c0.45,2.23,2.09,4.02,3.79,5.53c4.82,4.3,10.68,7.44,16.94,9.06
		c2.7,0.7,5.49,1.13,8.09,2.14c2.43,0.95,4.64,2.38,6.99,3.52c3.64,1.76,7.58,2.79,11.49,3.81c2.45,0.64,4.96,1.29,7.49,1.09
		c2.23-0.17,4.36-1,6.58-1.29c3.55-0.46,7.11,0.49,10.56,1.43c4.26,1.16,8.52,2.31,12.79,3.47c3.29,0.89,6.88,1.77,10.01,0.42
		c3.13-1.34,4.92-5.98,2.37-8.24c2.38-1.2,5.14-3.02,4.92-5.68c-0.09-1.08-0.68-2.04-1.14-3.02c-1.9-4.04-1.59-9.04,0.81-12.81
		c2.39-3.77,6.79-6.18,11.25-6.17c4.64,0.01,8.29,1.21,12.55-1.52c1.75-1.12,3.13-3.07,2.99-5.14c-0.06-0.79-0.32-1.58-0.14-2.35
		c0.27-1.13,1.4-1.82,2.48-2.26c4.03-1.64,8.75-1.5,12.67,0.38c2.26,1.09,4.28,2.72,6.71,3.38c2.42,0.66,5.55-0.11,6.36-2.48
		c0.78-2.27-0.88-4.8-0.24-7.11c0.62-2.2,3.21-3.35,5.49-3.11c2.28,0.24,4.29,1.51,6.22,2.74c-1.9,0.04-3.48,1.59-4.25,3.33
		c-0.77,1.74-0.94,3.67-1.35,5.53c-0.62,2.85-1.81,5.58-3.49,7.97c-2.11-1-4.21-1.99-6.32-2.99c-0.78-0.37-1.6-0.75-2.46-0.68
		c-1.15,0.09-2.08,0.94-2.9,1.75c-2.31,2.26-4.95,4.7-8.19,4.74c-0.99,0.01-1.98-0.21-2.95-0.08c-2.27,0.29-3.88,2.18-5.85,3.15
		c-2.22,1.09-4.64,1.36-7,1.99c-3.89,1.05-7.3,3.76-9.19,7.32c2.18,4.14,4.36,8.28,6.55,12.42c1.28,2.42,2.59,5.12,1.96,7.78
		c-0.39,1.67-1.52,3.08-2.81,4.22c-5.47,4.81-13.52,5.12-20.77,4.37c-7.25-0.75-14.7-2.28-21.71-0.26c-2.45,0.7-4.75,1.82-7.19,2.55
		c-5.98,1.79-12.66,1.09-18.13-1.89c-2.63-1.44-5.1-3.42-8.07-3.84c-2.67-0.38-5.36,0.56-8.06,0.64c-3.29,0.09-6.47-1.1-9.54-2.31
		c-8.15-3.23-16.2-6.73-24.12-10.49c-2.21-1.05-4.58-2.28-5.62-4.5c-1.13-2.4-0.38-5.3-1.16-7.84c-0.64-2.06-2.21-3.68-3.73-5.21
		c-2.31-2.32-5.16-4.83-8.39-4.33c-1.44,0.22-2.81,1.05-4.25,0.84c-1.61-0.23-2.75-1.65-4.19-2.4c-3.61-1.9-8.96,0.37-12.76,0.79
		c-4.57,0.5-7.01,2.73-11.22,4.35c-6.05,2.33-14.48-2.04-18.6,2.97c-1.14,1.39-1.59,3.2-2.26,4.86
		c-2.78,6.81-9.43,11.05-14.71,16.16c-8.35,8.09-13.7,19.2-14.8,30.77c-0.61,6.34,0.1,10.85-2.76,16.86c-2.37,4.97-5.68,9.43-9,13.8
		c-2.73,3.59-5.65,7.23-8.22,11.05c-3.47,5.16-6.32,10.67-7.23,16.91c-0.62,4.2-0.3,8.48,0.03,12.71
		c0.39,5.07,1.16,10.27,1.22,15.35c0.04,4.3-0.57,7.99,1.83,11.93c3.42-12.02,14.53-21.47,26.95-22.9
		c4.25-0.49,8.97-0.25,12.29-2.96c1.23-1,2.15-2.33,3.29-3.44c3.96-3.83,10.06-4.47,15.53-3.74c7.36,0.98,14.33,3.98,21.68,4.95
		c3.85,0.51,7.77,0.45,11.58,1.21c10.86,2.16,20.19,10.79,31.25,10.43c6.06-0.2,11.18-3.17,16.88-4.61
		c6.05-1.53,11.46-0.94,17.09-4.44c2.53-1.57,5-3.63,7.98-3.74c2.48-0.09,4.85,1.21,7.33,1.12c5.24-0.19,8.62-6.29,13.82-7
		c0.58,9.56,8.78,18.08,18.31,19.02c1.01,0.1,2.08,0.14,2.95,0.68c1.07,0.67,1.58,1.94,2.4,2.89c1.42,1.66,3.79,2.35,5.03,4.16
		c0.7,1.02,0.96,2.29,1.67,3.3c2.23,3.22,7.52,2.07,10.21-0.78c2.69-2.85,3.93-6.78,6.41-9.81c3.81-4.65,9.92-6.55,15.42-8.99
		c1.78-0.79,3.58-1.7,4.83-3.2c0.76-0.91,1.3-2.02,2.19-2.8c2.01-1.75,5.12-1.34,7.5-2.54c4.65-2.35,5.76-10.32,10.97-10.36
		c0.78-0.01,1.56,0.2,2.35,0.16c2.81-0.14,4.5-3.1,5.65-5.67c1.07,7.9-3.8,16.22-11.21,19.15c-2.12,0.84-4.73,1.59-5.37,3.78
		c-0.48,1.65,0.44,3.37,0.42,5.09c-0.02,1.94-1.24,3.64-2.4,5.2c-6.16,8.24-13.46,17.15-23.67,18.39c-3.01,0.36-6.18,0.04-8.94,1.29
		c-1.75,0.79-3.15,2.16-4.62,3.39c-4.32,3.65-9.93,6.48-15.47,5.39c-5.11-1-8.97-5.01-13.03-8.26c-3.2-2.56-6.7-4.74-10.18-6.9
		c-3.52-2.18-7.03-4.37-10.55-6.56c-1.77-1.1-3.56-2.21-5.54-2.86c-4.84-1.58-10.1-0.23-15,1.13c-5.51,0-12.74,3.51-18.08,5
		c-4.69,1.31-8.74,5.43-13.56,5.87c-1.79,0.16-3.57-0.3-5.36-0.42c-2.7-0.18-5.38,0.43-8.08,0.6c-10.9,0.71-20.92-5.47-30.08-11.41
		c-4.62-3-9.24-6-13.86-9c-4.21-2.73-8.8-5.57-13.81-5.33c-4.43,0.22-8.39,2.84-11.65,5.85c-3.26,3.01-6.1,6.5-9.69,9.11
		c-2.33,1.7-5.08,3.02-7.97,2.96c-6.21-0.13-9.54,1.32-14.77,5.09c-1.77,1.28-3.56,2.8-4.17,4.9c-0.34,1.17-0.29,2.41-0.44,3.61
		c-0.21,1.67-0.82,3.27-1.31,4.88c-1.77,5.74-2.44,11.64-0.3,17.28c2.09,5.52,5.73,10.31,8.55,15.5c4.15,7.65,7.83,16.47,6.69,25.23
		c-1.15,8.81-5.11,17.17-10.61,24.09c-2.55,3.21-5.54,6.35-6.48,10.34c-0.57,2.41-0.34,4.95,0.15,7.38c0.96,4.8,3.59,9.39,4.27,14.2
		c0.57,4.02-0.08,8.9-0.91,12.86c-1.81,8.66-5.87,16.7-8.2,25.3c5.41-1.08,7.31-7.6,10.46-12.12c2.37-3.41,5.8-5.93,9.38-8.04
		c8.55-5.05,18.3-8.02,28.19-8.79c4.8-0.37,9.36-0.04,14.08,0.65c4.7,0.69,9.38-0.04,14.18-0.49c4.45-0.42,9-0.83,13.34,0.23
		c5.28,1.29,9.94,4.67,15.31,5.49c8.74,1.33,18.33-4.22,26.11-0.03c5.01,2.69,7.19,8.26,11.21,12c2.2,2.05,4.07,2.27,6.69,3.28
		c3.63,1.39,6.95,3.73,10.59,5.19c7.97,3.2,20.88,6.23,27.71-0.35c6.61-6.36,8.64-15.5,14.36-22.48c3.58-4.37,8.49-7.42,12.68-11.22
		c10.87-9.88,18.28-24.93,17.89-39.63c-0.21-7.98-0.43-15.96-0.64-23.94c-0.1-3.91-0.15-8.05,1.84-11.41
		c1.83-3.07,5.08-4.99,8.29-6.56c5.55-2.71,11.41-4.8,17.42-6.2c1.84-0.43,3.9-0.76,5.52,0.2c5.01,2.99,5.08,3.1,10,0.02
		c4.75-2.97,9.99-5.35,14.92-8c4.81-2.58,9.82-5.34,12.8-9.91c3.47-5.33,3.65-12.35,7.4-17.49c3.55-4.87,10.24-7.2,16.04-5.6
		c3.47,0.96,7.52,1.15,10.97-0.31c3.91-1.67,3.94-5.86,6.06-9.21c2.19-3.47,6.34-5.22,10.39-5.96c4.04-0.74,8.21-0.69,12.21-1.62
		c8.98-2.09,16.26-8.87,25.16-11.26c-7.62,8.69-18.68,14.28-30.2,15.25c-3.23,0.27-6.87,0.36-9.09,2.73c-2.11,2.26-2.05,5.57-3.77,8
		c-1.54,2.17-4.16,2.97-6.46,4.21c-5.57,3.01-11.68,4.54-17.78,1.92c-2.23-0.96-4.87-2.33-6.87-0.96c-0.52,0.35-0.91,0.86-1.28,1.36
		c-5.3,7.32-6.81,17.24-3.92,25.8c4.06-1.14,7.46-3.88,10.69-6.59c3.23-2.71,6.54-5.52,10.53-6.88c4-1.36,8.91-0.91,11.74,2.22
		c3.7,4.1,2.81,11.35,7.28,14.58c5.26,3.81,9.98-1.06,14.49-3.54c5.09-2.81,13.26-5.5,17.34-9.58c1.36-0.75,2.72-1.5,4.09-2.26
		c9.04-4.99,18.08-9.99,27.12-14.98c4.96-2.74,9.94-5.49,15.18-7.65c3.88-1.6,8.88-2.67,11.84,0.3c-3.61,3.04-8.91,2.5-13.51,3.53
		c-8.65,1.94-14.77,9.46-22.4,13.96c-3.63,2.14-7.62,3.6-11.45,5.39c-5.98,2.79-11.58,6.42-16.58,10.72
		c-5.28,4.53-7.72,9.01-11.36,14.71c-0.79,1.24-1.71,2.41-2.86,3.32c-4.65,3.67-11.93,1.84-15.97-2.5
		c-4.04-4.33-5.56-10.4-6.56-16.23c-0.54-3.15-1.36-6.85-4.31-8.09c-2.54-1.07-5.39,0.26-7.82,1.56c-3.19,1.71-6.48,3.5-8.74,6.33
		c-1.14,1.42-1.98,3.07-3.16,4.45c-3.93,4.61-10.72,5.43-16.76,5.06c-2.75-0.16-5.66-0.48-8.15,0.73c-2.64,1.28-4.22,3.99-6.34,6.02
		c-5.18,4.95-10.89,3.05-17.07,4.01c-7.73,1.21-15.46,3.28-23.13,4.86c-2.3,0.47-4.67,0.98-6.58,2.35
		c-4.14,2.98-4.66,8.83-4.81,13.93c-0.05,1.89-0.11,3.79-0.16,5.68c-0.06,2.26-0.13,4.54,0.26,6.76c0.5,2.89,1.73,5.6,2.41,8.45
		c2.03,8.48-1.61,16.1-6.05,23.02c-2.67,4.16-3.42,9.45-6.68,13.17c-3.19,3.64-8.61,5.62-9.95,10.27c-0.42,1.45-0.36,3.02-0.84,4.45
		c-1.51,4.56-7.33,5.83-10.76,9.19c-3.44,3.38-4.22,8.63-6.96,12.6c-3.97,5.75-13.43,8.85-20.14,9c-8.97,0.21-17.76-2.7-25.73-6.61
		c-8.5-4.17-16.34-9.53-24.57-14.21c-3.11-1.77-6.35-3.46-9.88-4c-5.34-0.81-10.69,1.12-16.08,1.51
		c-6.16,0.44-12.44-1.22-17.58-4.64c-1.26-0.84-2.5-1.8-3.98-2.11c-2.3-0.49-4.57,0.67-6.75,1.55c-7.69,3.12-16.24,2.96-24.52,3.45
		c-8.28,0.49-17.05,1.91-23.29,7.38c-7.95,6.97-9.91,18.83-17.38,26.31c-0.62,0.62-1.29,1.24-1.55,2.07
		c-1.1,3.51,4.25,6.77,4.02,10.63c-0.24,3.99-3.82,7.22-6.8,9.43c-2.47,1.82-5.25,3.22-7.56,5.24c-5.84,5.09-5.25,12.19-14.47,12.2
		c-4.98,0-9.96,0.01-14.94,0.01c-0.72,0-1.55-0.05-1.98-0.62c-1.22-1.62,4.23-20.56,5.1-22.92c1.15-3.14,2.42-5.86,3.07-9.26
		c1.34-6.95,1.48-14.09,2.93-21.02c3.77-18.01,11.01-35.96,11.34-54.57c0.16-9.43-1.94-18.73-4.04-27.93
		c-1.14-4.99-2.27-9.98-3.41-14.97c-1.78-7.83,1.87-12.67,2.42-20.21c0.29-3.96-0.6-7.89-1.2-11.81c-1.1-7.24-1.18-14.59-1.26-21.91
		c-0.09-7.91-0.17-15.88,1.36-23.63c1.46-7.37,4.54-13.22,8.95-19.18c4.27-5.77,2.13-13,1.56-19.82
		c-0.61-7.36,0.32-14.75,1.26-22.08c0.71-5.55,1.58-11.47,5.31-15.64c1.83-2.05,4.32-3.63,5.47-6.13c1.16-2.52,0.72-5.46,0.2-8.19
		c-1.8-9.47-4.72-18.2-7.86-27.16c-2.78-7.94,0.46-18.62,4.56-25.62c3.75-6.41,9.19-11.63,14.55-16.76
		c5.38-5.15,11.2-9.57,16.62-14.61c5.64-5.25,10.18-12.44,14.8-18.58c4.79-6.36,7.51-14.34,13.84-19.48
		c6.25-5.09,14.8-6.21,21.91-10.01c7.04-3.77,12.41-10.02,17.1-16.49c7.55-10.43,9.05-23.59,16.27-34.15
		c2.11-3.09,4.86-5.67,7.45-8.36c2.66-2.75,5.92-5.56,8.27-8.55c2.47-3.15,3.39-7.69,5.07-11.31c3.94-8.46,9-16.33,14.08-24.13
		c3.74-5.73,7.51-11.46,11.87-16.73c2.77-3.35,5.78-6.53,8.01-10.25c2.03-3.38,3.37-7.14,5.45-10.49c2.11-3.41,4.64-6.13,6.63-9.59
		c1.91-3.31,4.64-6.14,7.41-8.74c5.55-5.22,11.94-9.56,16.76-15.53c2.76-3.42,4.92-7.29,7.69-10.7
		c7.26-8.95,18.48-14.49,24.14-24.53c1.85-3.29,3.02-6.92,4.82-10.24c3.36-6.19,10.36-11.18,10.19-18.87
		c-0.03-1.41-0.3-2.83-0.12-4.23c0.48-3.64,3.84-6.2,5.13-9.64c1.79-4.81-0.93-10.28-4.84-13.6s-8.85-5.12-13.37-7.55
		c-3.55-1.91-7.25-4.9-7.2-8.93c0.05-3.7,3.32-6.79,3.32-10.49c0-1.49-0.54-2.91-1.07-4.3c-1.61-4.23-3.22-8.45-4.83-12.68
		c-2.91-7.63,0.26-15.89-2.46-23.84c-1.32-3.87-3.62-7.31-5.69-10.83c-5.06-8.6-8.94-18.3-8.49-28.27
		c0.55-12.11,7.33-22.94,13.89-33.14c4.34-6.74,10.11-13.63,13.46-20.89c4.17-9.03,6.02-22.84,6.58-32.75
		c13.34-1.53,26.89,1.21,40.23-0.3c-2.6,0.3-8.66,9.08-9.98,11.14c-1.28,2-2.21,4.22-3.65,6.11c-2.23,2.94-5.5,4.88-8.31,7.27
		c-9.82,8.36-11.47,22.41-18.67,32.86c-1.96,2.85-4.07,5.65-5.41,8.85c-1.26,3-1.8,6.26-3.02,9.27c-1.44,3.54-3.84,6.69-6.87,9.03
		c-1.91,1.47-4.09,2.65-5.61,4.51c-1.42,1.73-2.14,3.93-2.57,6.13c-1.48,7.66,0.56,15.92,5.43,22.01c2.66,3.33,6.18,6.15,7.61,10.16
		c1.15,3.24,0.76,6.8,1.06,10.23c0.67,7.53,5.01,12.15,8.95,18.12c8.49,12.87,11.47,29.05,21.37,40.88
		C624.21,236.77,639.4,220.44,646.13,202.69z"/>
</g>
<g id="rivers">
	<path class="st4" d="M502.27,567.88c-2.16,0.61-4.29,1.36-6.49,1.85c-2.35,0.53-4.78,0.76-7.19,0.68c-2.83-0.08-5.64-0.59-8.4-1.24
		c-1.6-0.38-3.2-0.82-4.64-1.61c-1.45-0.79-2.68-1.9-3.97-2.93c-7.75-6.17-23.97-8.48-33.26-5.17c-1.43,0.51-2.83,1.17-4.32,1.45
		c-2.37,0.44-4.81-0.1-7.21,0.13c-2.2,0.21-4.33,1.07-6.54,0.99c-2.32-0.08-4.46-1.18-6.68-1.88c-8.94-2.81-14.15,2.79-22.11,4.78
		c-7.86,1.97-17.28-1.35-23.84,4.9"/>
	<path class="st4" d="M502.81,553.62c-0.96,1.29-2.89,1.43-4.43,0.95c-1.54-0.47-2.9-1.41-4.44-1.9c-3.93-1.24-8.58,0.59-12.14-1.49
		c-0.77-0.45-1.44-1.06-2.27-1.39c-1.05-0.42-2.22-0.33-3.34-0.31c-4.65,0.09-9.32-1.11-13.36-3.43c-1.51-0.87-2.98-1.9-4.68-2.24
		c-4.03-0.81-7.8,2.44-11.9,2.62c-3.46,0.15-6.77-1.9-10.22-1.54c-2.44,0.26-4.58,1.7-6.91,2.46c-3.99,1.3-8.31,0.58-12.49,0.28
		c-4.19-0.3-8.8-0.01-11.91,2.8"/>
	<path class="st4" d="M631.49,506.97c-1.62,0.99-3.18,2.07-4.74,3.15c-0.3,0.21-0.6,0.42-0.9,0.62c-3.55,2.46-7.71,5.05-11.9,3.96
		c-1.71-0.44-3.32-1.5-5.08-1.36s-3.3,2.55-1.91,3.63c-3.73,2.37-8.94-1.53-12.96,0.3c-1.49,0.68-2.59,2.07-4.12,2.62
		c-1.24,0.45-2.61,0.28-3.92,0.11c-3.5-0.45-7-0.9-10.51-1.35c-1.17-0.15-2.56-0.48-2.93-1.59c-0.31-0.94,0.29-1.9,0.64-2.82
		c1.48-3.88-2.71-8.58-6.74-7.57c-1.24,0.31-2.87,0.9-3.55-0.19c-0.42-0.67-0.09-1.57-0.31-2.32c-0.57-1.98-3.55-1.26-5.28-0.14
		c-0.17-1.64-0.36-3.32-1.14-4.77c-0.79-1.44-2.35-2.6-3.98-2.4c-3.93,0.47-4.43,7.4-8.37,7.71c-0.58-1.69-0.2-3.57-0.59-5.31
		c-0.39-1.74-2.25-3.46-3.81-2.59c-2.64,1.47,0.48,6.73-2.15,8.21c-4.29-2.06-8.59-4.12-12.88-6.18c-0.82-0.39-1.79-1.1-1.52-1.97
		c0.18-0.6,0.9-0.91,1.09-1.51c0.43-1.36-1.79-1.7-3.2-1.49c-1.97,0.3-4.01,0.1-5.88-0.59c-4.09-1.49-7.68-5.24-11.98-4.59
		c-7.01,1.05-8.36,12.4-15.31,13.81c-3.75,0.76-7.24-1.82-10.63-3.6c-5.89-3.1-12.92-3.98-19.4-2.43
		c-5.53-0.49-5.55,1.19-10.17,4.27"/>
	<path class="st4" d="M554.41,431.51c-2.46,1.21-2.56,4.65-2.05,7.34c0.51,2.69,1.16,5.85-0.69,7.86c-1.23,1.34-3.16,1.69-4.9,2.21
		c-7.67,2.29-13.94,9.22-21.94,9.14c-0.82-0.01-1.7-0.08-2.42,0.3c-1.34,0.71-1.51,2.57-1.19,4.05c0.31,1.48,0.93,2.99,0.55,4.45
		c-0.44,1.7-2.18,2.81-3.92,3.06s-3.5-0.18-5.2-0.6c0.1,2.25-0.48,5.31-2.74,5.39c-2.64,0.09-3.6-4.27-6.23-4.41
		c-0.84-0.04-1.61-0.54-2.43-0.36c-0.35,3.25,1.6,6.22,3.02,9.17c0.4,0.83,0.77,1.7,0.89,2.61c0.34,2.49-1.14,4.83-2.56,6.9"/>
	<path class="st4" d="M688.74,507.73c-2.29,0.48-3.83,3.18-3.08,5.4c-1.92-0.24-3.81,1.58-3.66,3.51c0.08,1,0.61,1.92,0.77,2.91
		c0.12,0.75,0.02,1.52-0.07,2.27c-0.28,2.18-0.56,4.36-0.84,6.54c-0.13,0.97-0.26,1.96-0.67,2.85c-0.26,0.56-0.62,1.06-1,1.54
		c-1.68,2.1-4.03,3.86-6.71,4.04c-2.53,0.17-5.48-0.95-7.35,0.75c-1.4,1.26-1.42,3.54-2.74,4.88c-1.03,1.04-2.59,1.28-3.92,1.88
		c-3.03,1.37-4.85,4.97-4.17,8.22c0.27,1.29,0.89,2.51,0.98,3.82c0.09,1.32-0.59,2.85-1.89,3.07c-0.72,0.12-1.43-0.19-2.09-0.5
		c-1.75-0.8-8.04-4.44-8.99-0.77c-0.37,1.44,1.05,2.77,1.11,4.26c0.07,1.81-1.91,3.07-3.71,3.24c-1.81,0.17-3.63-0.34-5.43-0.13
		c-3.32,0.37-6.11,3.46-6.16,6.8c-0.03,2.02,0.54,4.65-1.26,5.57c-0.71,0.36-1.57,0.27-2.36,0.16c-3.12-0.42-6.23-0.83-9.35-1.25
		c-3.2-0.43-6.79-0.76-9.34,1.23c-0.81,0.63-1.45,1.46-2.14,2.21c-7.28,7.9-20.77,3.3-27.72,11.25c-0.87,3.15,3.61,6.96,1.22,9.18
		c-0.92,0.86-2.57,0.92-3.05,2.08c-0.55,1.36,1.03,2.56,1.56,3.93c0.62,1.59-0.26,3.32-0.82,4.94c-0.56,1.61-0.58,3.83,0.96,4.57
		c-1.45,3.51-5.78,4.62-9.52,5.28c-5.58,0.99-11.45,1.96-16.81,0.11c-1.36-0.47-2.73-1.13-4.16-1c-2.13,0.18-4.05,2.05-6.12,1.54
		c-0.95-0.23-1.7-0.93-2.54-1.42c-3.38-1.94-7.67-0.31-11.52-0.94c-2.45-0.4-4.65-1.72-7.07-2.27c-2.52-0.57-5.15-0.29-7.73-0.43
		c-5.34-0.29-10.39-2.37-15.33-4.42c-4.45-1.85-8.96-2.42-13.22-4.65c-4.96-2.6-9.43-6.13-13.13-10.34
		c-3.6-4.1-6.63-8.96-11.42-11.58c-4.53-2.47-9.94-2.54-15.1-2.55c-3.94-0.01-7.88-0.01-11.81-0.02c-1.94,0-3.88-0.01-5.81,0.22
		c-1.35,0.16-2.71,0.44-4.07,0.32c-2.15-0.19-4.15-1.34-6.31-1.35c-1.35-0.01-2.65,0.44-3.98,0.67c-2.82,0.49-5.74,0-8.44-0.96
		c-2.31-0.82-4.49-1.98-6.78-2.86c-6.8-2.63-14.56-2.71-21.41-0.23c-6.39,2.31-12.61,1.27-19.4,1.71"/>
	<path class="st5" d="M317.4,962.2c1.44-4.73,2.87-9.46,4.31-14.19c0.67-2.21,1.35-4.47,1.32-6.78c-0.03-2.62-0.98-5.2-0.83-7.82
		c0.35-6.15,6.44-10.51,7.87-16.5c0.89-3.73-0.13-7.7,0.63-11.46c0.63-3.1,2.42-5.86,3.2-8.93c1.33-5.21-0.35-10.89,1.3-16
		c2.03-6.27,8.85-11.06,8.17-17.62c-0.73-7.06,0.93-12.1,0.81-19.19c-0.02-1.43-0.01-2.89,0.47-4.23c0.57-1.59,1.75-2.91,2.32-4.5
		c0.85-2.36,0.26-5.04,1.03-7.43c0.56-1.75,1.81-3.2,2.43-4.93c0.74-2.07,0.51-4.35,0.27-6.54c-0.24-2.14-0.48-4.33-1.41-6.27
		c-2.58-5.4-7.92-7.35-13.06-9.45c-1.12-0.46-2.26-0.93-3.17-1.72c-1.02-0.88-1.68-2.1-2.32-3.28c-1.68-3.11-3.37-6.23-4.8-9.47
		c-2.4-5.45-4.07-11.27-4.39-17.22c-0.49-9.24,2.42-18.63,8.04-25.98c2.03-2.65,4.5-5.3,4.74-8.63c0.12-1.64-0.35-3.27-0.34-4.92
		c0.01-3.13,1.67-5.97,2.7-8.93c2.18-6.3,0.84-13.16-0.39-19.51c-1.35-6.99,1.49-12.02,7.21-16.26c1.24-0.91,2.65-1.98,2.72-3.52
		c0.05-0.97-0.47-1.86-0.84-2.75c-1.55-3.7-0.81-8.09,0.44-11.77c1.03-3.05,3.7-6.26,3.16-9.61c-0.15-0.89-0.55-1.74-0.55-2.65
		c-0.01-1.58,1.17-2.9,2.3-4.01c1.89-1.87,3.87-3.72,5.04-6.1c1.17-2.38,1.34-5.46-0.33-7.53c-0.98-1.22-2.45-1.92-3.64-2.93
		c-1.19-1.01-2.15-2.65-1.56-4.1c0.25-0.6,0.73-1.08,1.05-1.65c0.99-1.79,0.16-4.06-1.08-5.68c-1.24-1.62-2.9-2.94-3.85-4.74
		c-0.99-1.88-1.12-4.11-0.98-6.23c0.28-4.12,1.47-8.11,2.66-12.06c1.15-3.83,2.3-7.65,3.45-11.48c0.63-2.11,1.33-4.33,2.95-5.83
		c2.26-2.1,5.72-2.25,8.37-3.83c2.28-1.37,3.8-3.68,5.24-5.92c3.53-5.5,7.04-13.57,14.82-13.4c2.02,0.04,4.25,0.64,5.91-0.52
		c1.36-0.95,1.9-2.84,3.37-3.6c0.75-0.39,1.62-0.42,2.46-0.51c4.01-0.45,7.79-2.65,10.16-5.91c1.85-2.55,2.96-5.79,5.6-7.53
		c1.24-0.81,2.76-1.24,3.77-2.32c0.6-0.64,0.97-1.45,1.4-2.2c2.69-4.67,7.85-7.22,12.73-9.52c-0.83-1.3-0.26-3.08,0.76-4.23
		c1.02-1.15,2.42-1.9,3.57-2.92c4.07-3.58,4.77-9.99,8.98-13.4c1.08-0.87,2.33-1.5,3.45-2.32c4.28-3.15,5.93-8.67,7.37-13.79
		c2.84-10.13,2.22-24.64,12.64-30.74c2.41-1.41,5.27-2.14,7.23-4.12c2.5-2.53,2.93-6.47,4.96-9.4c2.13-3.06,5.86-4.79,7.7-8.03
		c1.75-3.1,1.54-7.2,3.96-9.81c1.61-1.73,4.27-2.68,4.87-4.97c0.42-1.62-0.41-3.33-0.16-4.99c0.48-3.15,4.33-4.44,6.17-7.05
		c1.4-1.98,1.56-4.67,3.11-6.53c1.82-2.18,5.03-2.63,7.2-4.47c3.98-3.36,1.92-9.05,5.61-12.49c1.94-1.81,4.81-2.72,6.04-5.08
		c0.73-1.4,0.72-3.1,1.43-4.51c1.62-3.25,6.06-3.74,8.79-6.14c2.94-2.59,2.99-6.4,7.05-8.38c2.49-1.22,5.52-1.6,7.35-3.68
		c0.98-1.1,1.47-2.54,2.26-3.78c3.45-5.44,11.57-6.04,15.54-11.12c1.61-2.06,2.36-4.66,3.79-6.86c1.52-2.35,3.75-4.13,5.72-6.12
		c3.95-4,6.88-8.87,9.76-13.69c0.96-1.61,1.93-3.21,2.89-4.82c3.82-6.38,5.13-14.38,12.39-17.99c1.58-0.79,3.34-1.35,4.58-2.61
		c1.26-1.28,1.81-3.11,2.97-4.49c2.68-3.18,7.7-3.06,11.01-5.57c4.94-3.75,4.83-12.28,10.4-15.01c2.62-1.29,5.79-0.83,8.53-1.85
		c2.92-1.08,6.25-3.72,8.63-1.72c5.5-0.09,10.3-1.18,13.51-5.65c1.92-2.67,2.67-6.67,5.8-7.68c1.92-0.62,3.97,0.22,5.91,0.77
		c9.16,2.57,19.69-1.29,28.1,3.15c3.91,2.07,7.06,5.83,11.43,6.52c4.25,0.67,8.49-1.78,12.77-1.32c1.06,0.12,2.11,0.41,3.17,0.36
		c2.92-0.15,5-2.76,7.35-4.5c3.42-2.54,7.78-3.37,11.97-4.13c4.82-0.88,8.65-0.47,13.32-0.14c4.87,0.34,9.64-1.84,14.36-2.63
		c14.09-2.38,14.16,14.22,27.21,18.05c6.38,1.87,13.16,2.45,19.19,5.24c7.96,3.67,14.88,11.16,23.63,10.56
		c3.79-0.26,7.3-2.07,11.04-2.76c10.48-1.93,20.46,5.1,31.04,6.36c4.4,0.52,8.85,0.03,13.27,0.27c4.9,0.26,9.7,1.4,14.47,2.54
		c10.38,2.48,20.76,4.95,31.13,7.43"/>
	<path class="st5" d="M646.38,262.55c2.16-2.91-0.05-7.29,1.45-10.58c0.6-1.32,1.8-2.51,1.6-3.94c-0.15-1.02-0.98-1.79-1.56-2.65
		c-0.92-1.37-0.22-1.91,0.22-3.49c-1.74-1.88-3.62-4.21-3.07-6.72c0.36-1.67,1.77-3,2.02-4.69c0.39-2.61-2.01-4.75-2.81-7.27
		c-1.09-3.46,1.08-7.24,4.04-9.34c2.96-2.1,6.58-2.99,9.98-4.24c3.41-1.25,6.88-3.07,8.6-6.27c0.67-1.23,1.05-2.64,1.95-3.71
		c1.85-2.2,5.11-2.32,7.88-3.09c5.33-1.49,9.33-5.81,12.93-10.02c2.22-2.6,4.41-5.26,5.94-8.31c1.32-2.65,2.16-5.61,4.09-7.85
		c1.19-1.37,2.74-2.41,3.86-3.84s1.73-3.52,0.75-5.05c3.57-4.59-1.45-9.11-1.45-14.93c0-6.21,3.08-11.99,4.15-18.11
		c1.69-9.64-1.47-20.39,3.48-28.83"/>
	<path class="st5" d="M599.09,293.28c3.15-3.87-2.52-9.79-0.61-14.4c0.43-1.04,1.24-1.93,1.51-3.02c0.58-2.36-1.48-4.61-1.49-7.04
		c-0.01-2.85,2.74-5.04,3.14-7.86c0.43-2.99-1.85-5.67-2.45-8.64c-0.45-2.25,0.08-4.59-0.27-6.86c-0.45-2.89-2.44-5.48-5.1-6.68
		c-0.99-0.44-2.09-0.72-2.86-1.48c-0.89-0.88-1.15-2.21-1.85-3.24c-1.84-2.7-6.2-2.82-7.83-5.65c-0.75-1.3-0.74-2.89-0.7-4.39
		c0.11-4.42,0.21-8.84,0.32-13.25c0.03-1.3,0.05-2.65-0.45-3.85c-1.55-3.69-7.2-4.32-8.57-8.08c-1.06-2.9,1.01-5.9,1.97-8.83
		c1.3-3.96,0.44-8.56-2.2-11.8c-2.37-0.83-2.98-2.32-3.57-4.76c-0.59-2.44-0.7-5.03-1.74-7.31c-0.86-1.9-2.33-3.51-2.88-5.52
		c-0.45-1.63-0.25-3.35-0.37-5.03c-0.36-4.98-3.49-9.72-2.61-14.63c0.9-5.05,5.65-8.35,8.6-12.55c1.18-1.67,2.08-3.52,2.98-5.36
		c2.19-4.48,4.38-8.96,6.58-13.44c0.59-1.22,1.19-2.43,1.78-3.65c1.09-2.24,2.19-4.48,3.53-6.58c0.95-1.49,2.02-2.9,3.23-4.17
		c5-5.27,13.97-16,9.46-23.7c-0.75-1.27-1.85-2.35-2.33-3.75c-1.7-4.9,4.84-8.91,5.5-14.06"/>
	<path class="st4" d="M748.46,526.27c-5.03,5.16-10.07,10.33-15.1,15.49c-1.32,1.36-2.73,2.89-2.81,4.78
		c-3.01,0.06-6.03,0.11-9.04,0.17c-0.31,3.26-1.98,6.37-4.52,8.43c-2.88,0.12-5.76,0.25-8.64,0.37c0.58,6.59-6.68,11.48-7.48,18.04
		c-0.19,1.53,0,3.08-0.01,4.63c-0.02,6.24-3.78,12.71-9.77,14.47c-3.3,0.97-6.92,0.48-10.15,1.66c-3.23,1.17-5.84,5.38-3.61,7.99
		c0.65,0.76,1.63,1.28,2.01,2.2c0.41,1-0.02,2.13-0.51,3.1c-1.76,3.46-4.34,6.5-7.48,8.79c2.38,1,2.33,4.66,0.62,6.59
		c-1.71,1.93-4.33,2.7-6.68,3.77c-2.35,1.06-4.76,2.85-5.01,5.42c-2.13,0.72-3.92,2.36-4.84,4.41c2.22,1.26,3.43,4.09,2.8,6.57
		c-2.52,0.89-5.04,1.78-7.57,2.67c-1.01,0.35-2.14,0.71-3.11,0.27c-1.25-0.56-1.64-2.12-2.51-3.18c-1.81-2.18-5.32-1.78-7.86-0.53
		c-7.64,3.75-12.99,15.29-13.22,23.39c-0.19,6.48-0.35,13.13,1.82,19.24c1.21,3.41,3.15,6.75,2.96,10.36
		c-0.28,5.22-4.82,9.07-9.02,12.19c-3.91,2.91-7.84,5.78-11.8,8.62c-6.14,4.39-12.74,9.23-14.93,16.45
		c-0.69,2.28-1.02,4.91-2.86,6.44c-1.36,1.12-3.22,1.35-4.93,1.8c-6.75,1.8-11.92,7.69-18.76,9.09c-3.9,0.8-7.96,0.03-11.74-1.2
		c-8.66-2.82-16.48-8.13-22.29-15.13c-1.22-1.48-2.39-3.05-3.95-4.16c-2.76-1.97-6.35-2.22-9.74-2.41c-3.03-0.17-6.05-0.33-9.08-0.5
		c-5.33-0.29-9.01,3-14.34,3.3c-2.03,0.12-4.03-0.48-6.05-0.7c-8.83-0.99-17.02,5.03-25.89,5.61c-5.42,0.35-10.74-1.34-15.91-3.02
		c-4.21-1.37-8.42-2.73-12.64-4.1c-8.9-2.89-17.8-5.77-26.71-8.65c-5.27-1.7-11.11-3.38-16.18-1.16c-2.51,1.1-4.52,3.05-6.73,4.67
		c-4.41,3.24-9.73,5.23-15.18,5.66c-1.37,0.11-2.78,0.13-4.08,0.58c-1.15,0.4-2.15,1.12-3.12,1.86c-5.06,3.87-9.51,8.54-13.12,13.78
		c-1.43,2.08-2.76,4.27-4.57,6.02c-6.16,5.94-16.53,5.62-22.62,11.63c-0.68,0.67-0.63,2.38,0.22,1.95"/>
	<path class="st4" d="M769.88,553c-3.89,0.19-6.58,3.74-9.39,6.44c-2.76,2.65-6.08,4.71-9.69,5.98c-1.56,0.55-3.27,1.02-4.29,2.32
		c-2.54-0.62-5.32,1.3-5.95,3.84c-0.17,0.68-0.21,1.43-0.63,1.99c-0.92,1.24-2.85,0.77-4.35,1.15c-2.47,0.63-3.8,3.67-6.31,4.12
		c-1.93,0.34-3.91-1.03-5.81-0.54c-0.88,0.22-1.63,0.82-2.51,1.07c-3.44,0.99-6.71-3.63-10.11-2.51c-0.73,0.24-1.36,0.73-2.09,0.97
		c-1.27,0.41-2.64,0.01-3.97-0.1c-1.33-0.11-2.94,0.28-3.39,1.54"/>
	<path class="st4" d="M807.61,585.01c-3.4,1-7.1,2.24-8.91,5.28c-0.57,0.97-0.92,2.07-1.64,2.94c-1.63,1.99-4.54,2.14-7.09,2.48
		c-2.55,0.34-5.53,1.53-5.9,4.07c-0.14,0.99,0.16,2.06-0.22,2.99c-1.24,3.01-6.84,0.47-8.71,3.14c-1.23,1.76,0.29,4.12,0.28,6.27
		c-0.03,5.54-9.84,7.97-8.49,13.34c0.7,2.76,4.37,4.68,3.64,7.44c-0.34,1.26-1.57,2.15-1.82,3.43c-0.27,1.38,0.68,2.72,0.69,4.12
		c0.02,1.99-1.9,3.58-3.87,3.88c-1.97,0.31-3.95-0.33-5.85-0.96c1.63,2,1.16,5.35-0.96,6.82c-1.16,0.8-2.66,1.08-3.64,2.09
		c-1.37,1.41-1.21,3.66-1.02,5.62c0.68,7.12,0.41,14.3,0.15,21.45c-0.11,3.01-1.25,5.6-1.04,8.49c0.2,2.83-2.7,5.05-2.94,7.88
		c-0.2,2.39,1.51,4.46,2.88,6.43s2.49,4.67,1.15,6.66c-1.07,1.6-3.29,1.97-5.2,1.75c-1.91-0.22-3.78-0.89-5.71-0.81
		c-2.96,0.13-5.51,2.01-7.94,3.71c-10.11,7.07-21.82,14.69-34.18,16.89c-5.1,0.91-11.13,1.55-13.73,6.03
		c-0.88,1.51-1.22,3.29-2.07,4.82c-2.64,4.72-9.05,5.51-14.45,5.24c-5.4-0.27-11.44-0.85-15.61,2.59
		c-4.62,3.81-4.77,10.69-6.9,16.28c-3,7.87-8.04,10.54-15.07,13.55c-6.93,2.97-11.98,9.3-19.48,11.17c-6.78,1.7-14-0.7-20.9,0.43
		c-6.26,1.02-11.91,5.07-15.08,10.56c-0.71,1.23-1.3,2.54-1.76,3.89c-5.36,16.04,5.8,32.93-1.91,48.79
		c-3.46,7.12-8.97,13-14.39,18.77c-3.8,4.04-7.61,8.09-11.41,12.13c-4.44,4.72-8.98,9.6-11.33,15.63c-1.72,4.4-2.8,9.97-7.22,11.62
		c-1.52,0.57-3.18,0.53-4.8,0.49c-6.76-0.18-13.59-0.37-20.15-1.98c-18.49-4.55-33.16-19.89-51.92-23.16
		c-9.03-1.57-18.7-0.27-27.06-4.02c-11.4,0.73-20.78,2.05-32.19,2.78c-9.17,0.59-18.56,1.23-26.93,5.01
		c-15.32,6.92-22.73,23.3-38.38,29.85"/>
	<path class="st4" d="M921.14,600.81c-4.48-0.29-8.96-0.58-13.44-0.87c-1.52-0.1-3.1-0.19-4.51,0.37c-1.39,0.55-2.48,1.68-3.85,2.28
		c-2.78,1.22-6.09,0-8.41-1.96c-2.32-1.96-3.98-4.57-6.08-6.76c-4.19-4.39-10.26-7.01-16.32-6.73c-6.06,0.28-11.98,3.57-15.14,8.75
		c-0.71,1.15-1.28,2.4-2.18,3.41c-1.46,1.67-3.59,2.54-5.55,3.59c-8.08,4.34-13.13,12.24-15.17,20.99
		c-1.98,8.51-1.55,19.11-9.31,24.91c-1.35,1.01-2.99,1.91-3.49,3.52c-0.39,1.23,0.01,2.58-0.14,3.86c-0.23,1.97-1.69,3.53-3.01,5.02
		c-3.41,3.86-6.31,8.31-7.56,13.31c-1.25,5-0.68,10.6,2.33,14.79c0.78,1.08,1.73,2.11,2.07,3.4c0.81,3.07-2.05,5.72-4.28,7.98
		c-9.96,10.07-11.78,26.2-21.87,36.14c-1.17,1.15-2.46,2.22-4,2.79c-2.11,0.78-4.44,0.56-6.65,0.96c-2.42,0.44-4.62,1.62-6.79,2.78
		c-13.86,7.43-27.73,14.86-41.59,22.3c-4.9,2.63-10.01,5.44-13.09,10.07c-1.3,1.95-2.21,4.18-3.86,5.84
		c-3.37,3.4-9.12,3.42-13.35,1.19c-4.24-2.23-7.24-6.23-9.75-10.3c-2.17-3.52-4.43-7.49-8.36-8.78c-3.67-1.21-7.71,0.37-10.86,2.61
		c-3.15,2.24-5.8,5.16-9.11,7.17c-5.7,3.46-13.17,3.8-19.16,0.87"/>
	<path class="st4" d="M846.33,513.87c-4.12-0.77-8.24-1.53-12.36-2.3c-2.16-0.4-4.44-0.87-6.03-2.38c-2.22-2.11-2.48-5.68-4.6-7.88
		c-0.81-0.84-1.86-1.46-2.44-2.47c-0.53-0.93-0.58-2.04-0.7-3.1c-0.53-4.63-2.63-8.91-4.69-13.09c-2.22-4.49-4.88-9.38-9.6-11.05
		c-1.48-0.52-3.11-0.71-4.39-1.6c-1.22-0.85-1.95-2.22-2.92-3.35c-2.8-3.22-7.42-4.14-10.8-6.73c-5.17-3.96-7.02-11.42-12.65-14.68
		c-4.91-2.84-11.04-1.6-16.7-2c-5.66-0.4-12.28-4.4-11.24-9.98c-1.94,0.03-3.16-2.27-2.99-4.21s1.19-3.69,1.63-5.58
		c1.48-6.32-3.67-12.47-3.42-18.95c0.06-1.54,0.43-3.09,0.14-4.61c-0.67-3.58-4.8-6.28-4.16-9.87c0.25-1.42,1.24-2.58,1.95-3.84
		c2.7-4.73,1.55-10.63,0.33-15.95c-1.87-8.1-3.73-16.2-5.6-24.29c-0.39-1.7-0.85-3.52-2.14-4.7c-0.69-0.63-1.62-1.09-1.96-1.96
		c-0.58-1.5,0.95-2.93,1.37-4.48c0.93-3.39-3.33-5.79-4.66-9.04c-1.21-2.95,0.15-6.3-0.14-9.47c-0.26-2.74-1.73-5.18-3.17-7.53
		c-2.3-3.74-4.64-7.54-7.94-10.42c-3.3-2.89-7.76-4.78-12.07-3.99c-1.93,0.36,2.05-8.26,2.11-8.5c1-3.6,1.08-7.66-1.8-10.55
		c-1.51-1.52-3.38-2.85-4.1-4.86c-0.63-1.77-0.24-3.73,0.03-5.59c0.57-3.93,0.05-8.81-3.53-10.53"/>
	<path class="st4" d="M830.31,424.22c-0.57-1.06-1.13-2.12-1.7-3.19c-3.61-0.81-6.68-3.11-9.63-5.36c-2.22-1.69-4.44-3.38-6.67-5.07
		c-4.95-3.76-9.89-7.52-14.84-11.29c-1.3-0.99-2.68-2.09-3.14-3.66c-0.38-1.3-0.11-2.86-1-3.89c-0.9-1.04-2.57-1-3.62-1.89
		c-1.11-0.94-1.2-2.59-1.26-4.04c-0.4-10.12-3.33-20.13-8.44-28.88c-1.27-2.18-2.67-4.27-4.08-6.36c-3.2-4.76-6.41-9.51-9.64-14.25
		c-4.48-6.58-9.08-13.32-11.02-21.05c-0.46-1.81-0.78-3.71-1.79-5.29c-1.74-2.72-5.27-4.05-6.65-6.98
		c-1.74-3.69,0.68-8.29-0.84-12.07c-1.51-3.77-6.08-5.07-9.24-7.62c-4.18-3.38-4.36-8.65-6.61-13.16
		c-2.52-5.05-6.58-9.23-11.8-11.51"/>
	<path class="st4" d="M693.43,416.14c1.84-1.83-0.77-4.63-2.95-6.04c-7.93-5.16-13.76-13.44-15.94-22.65
		c-1.04-4.37-1.79-9.65-5.84-11.61c-2.76-1.33-6.26-0.57-8.85-2.2c-2.31-1.45-3.21-4.35-5.03-6.38c-1.37-1.53-3.24-2.52-5.04-3.51
		c-6.29-3.45-16.92-7.72-21.09-13.62c-1.65-2.34-3.38-5.01-6.17-5.68c-1.44-0.35-3.36-0.33-3.86-1.73
		c-0.23-0.64-0.03-1.35-0.11-2.02c-0.21-1.76-2.11-2.7-3.57-3.71c-5.41-3.74-6.67-11.52-11.84-15.58c-3.73-2.93-8.95-3.38-13.58-2.3
		c-4.62,1.08-8.8,3.52-12.88,5.95c-0.48-0.31-0.66-1.01-0.39-1.52"/>
	<path class="st4" d="M672.49,427.74c0.63-2.04-0.47-4.46-2.42-5.33c-0.81-0.36-1.75-0.5-2.36-1.14c-1.74-1.82,1.05-5.14-0.31-7.26
		c-0.38-0.59-1.01-0.95-1.55-1.39c-1.48-1.2-2.31-3.01-3.39-4.58c-1.09-1.57-2.72-3.04-4.62-2.92c0.23-2.62,0.3-5.65-1.64-7.43
		c-1.83-1.68-5.31-2.25-5.29-4.73c0.01-1.6,1.72-2.78,1.84-4.38c0.27-3.44-2.16-6.58-5.31-7.97c-1.39-0.61-3.06-1.04-3.74-2.39
		c-0.5-1-0.28-2.21-0.47-3.32c-0.34-1.94-1.97-3.73-1.44-5.63c0.24-0.86,0.91-1.58,0.99-2.46c0.06-0.63-0.19-1.24-0.44-1.81
		c-1.23-2.81-2.7-5.51-4.38-8.08"/>
	<path class="st4" d="M900.14,495.79c-6.03-4.16-12.06-8.33-18.09-12.49c-2.33-1.61-5.01-3.3-7.79-2.77
		c-0.39,2.04-1.8,3.86-3.69,4.74c-1.86-3.41-4.9-7.32-8.68-6.43c-1.35,0.32-2.52,1.24-3.9,1.44c-1.73,0.25-3.38-0.69-4.92-1.52
		c-7.51-4.03-16.07-6.06-24.59-5.83c-1.38,0.04-2.8,0.13-4.13-0.24c-1.82-0.5-3.39-1.83-5.27-2.01c-2.19-0.21-4.17,1.17-6.28,1.79
		c-2.11,0.62-5.1-0.18-5.19-2.37"/>
	<path class="st4" d="M756.92,503.2c0.6-1.9-1.21-3.99-0.47-5.83c0.54-1.34,2.15-1.85,3.21-2.84c2.44-2.28,1.38-6.34-0.19-9.29
		c-1.56-2.95-3.53-6.28-2.33-9.4c0.24-0.63,0.61-1.21,0.73-1.88c0.64-3.32-4.68-5.22-4.64-8.6c1.54-1.46,3.73-2.04,5.34-3.41
		c1.62-1.37,2.33-4.31,0.52-5.41c-0.82-0.5-2.01-0.52-2.46-1.36c-0.25-0.47-0.18-1.04-0.12-1.57c0.51-5-1.81-10.2-5.88-13.15"/>
	<path class="st4" d="M442.3,114.4c-4.62-0.43-9.97-0.6-13.09,2.83c-1.06,1.17-1.78,2.69-3.13,3.5c-2.3,1.39-5.62,0.21-7.73,1.88
		c-0.83,0.66-1.32,1.66-2,2.47c-3.44,4.11-10.03,2.32-14.89,0.06c-3.27-1.51-7.71-2.85-9.98-0.06c-0.55,0.68-0.89,1.55-1.59,2.08
		c-1.13,0.85-2.7,0.52-4.11,0.47c-3.82-0.14-7.3,2.03-10.51,4.12c-2.96,1.93-5.93,3.87-8.89,5.8c-1.11,0.72-2.26,1.49-2.91,2.64
		c-0.79,1.39-0.75,3.19-1.76,4.42c-1.56,1.9-4.96,1.7-6.12,3.86c-0.85,1.58,0,3.62-0.62,5.3c-0.38,1.01-1.23,1.75-2.09,2.42
		c-4.56,3.55-9.88,6.13-15.49,7.49c-4.62,1.12-11.48,2.09-12.02,8.02c-0.11,1.26,0.1,2.56-0.27,3.77c-0.99,3.23-5.26,3.9-8.62,3.57
		c-3.36-0.33-7.3-0.85-9.63,1.6c-0.26,2.71,3.23,4.9,2.54,7.53c-0.76,2.91-5.17,2.28-7.59,0.51c-2.42-1.78-5.4-4.17-8.03-2.72
		c0.4,1.59-0.45,3.4-1.92,4.12c-3.51-5.2-9.22-8.86-15.42-9.86c2.17,4.07,3.91,8.36,5.2,12.78c-9.56,0.2-19.12,0.4-28.68,0.6
		c-1.6,0.03-3.26,0.06-4.72-0.59c-1.62-0.71-2.8-2.16-4.31-3.06c-3.14-1.88-7.66-0.93-9.79,2.05c-3.14-5.18-7.72-11.09-13.72-10.2
		c-2.27,0.34-4.34,1.68-6.64,1.79c-1.64,0.07-3.26-0.49-4.9-0.49c-1.64,0.01-3.52,0.91-3.72,2.55c-0.16,1.39,0.94,2.58,1.27,3.94
		c0.48,1.98-0.82,4.06-2.59,5.09c-1.76,1.03-3.88,1.22-5.92,1.3c-3.15,0.12-6.92-0.35-8.34-3.16c-0.55-1.09-0.63-2.37-1.14-3.48
		c-1.99-4.32-8.31-3.44-12.8-1.86c-5.11-0.69-8.91,2.2-13.67,3.03c-5.6,0.98-11.81-2.63-17.13-0.36c-3.97,1.69-6.13,6.83-10.41,7.33
		c-1.04,0.12-2.08-0.06-3.11-0.18c-2.44-0.3-4.91-0.3-7.37-0.31c-6.07-0.01-12.13-0.01-18.2-0.02c-3.03,0-6.06-0.01-9.09-0.01
		c-3.41,0-7.69,0.59-8.69,3.85c-0.58,1.89,0.28,3.98-0.22,5.9c-1.37,5.33-10.94,4.47-12.49,9.75c-0.71,2.43,0.75,4.96,0.67,7.49
		c-0.13,4.11-4.19,6.96-8.06,8.35c-3.87,1.39-8.21,2.17-11.12,5.07"/>
	<path class="st4" d="M118.63,116.14c-2.23,0.05-4.17,2.22-3.98,4.44c0.06,0.62,0.25,1.24,0.23,1.86c-0.07,1.57-1.48,2.69-2.66,3.74
		c-4.55,4.06-7.07,10.28-6.64,16.36c0.11,1.59,0.4,3.27-0.28,4.71c-0.48,1.01-1.41,1.85-1.49,2.96c-0.06,0.75,0.29,1.47,0.65,2.14
		c2.06,3.84,4.65,7.5,5.55,11.76c0.9,4.26-0.52,9.44-4.51,11.17c-4.64,2.01-9.73-1.47-14.76-1.88c-5.18-0.43-10.45-0.42-15.45,1
		c-2.65,0.76-5.59,2.25-6.04,4.97c-0.41,2.49,1.48,4.71,3.22,6.54c5.26,5.51,10.68,11.73,11.29,19.32c0.17,2.08-0.13,4.36-1.6,5.84"
		/>
</g>
<g id="towns">
	<path class="st6" d="M132.58,500.09c25.65,1.88,44.6,27.36,70.15,30.23c15.75,1.77,32.19-5.4,47.22-0.38
		c13,4.34,21.37,16.58,29.7,27.46c8.33,10.88,19.27,21.93,32.98,22c-4.08,41.74-8.53,84.74-28.47,121.63
		c-7.7,14.23-17.57,27.28-24.29,42c-6.99,15.32-10.36,31.99-13.68,48.5c-0.62,3.11-1.22,6.46,0.1,9.34c1.3,2.83,4.16,4.57,6.85,6.13
		c19.29,11.15,38.57,22.31,57.86,33.46c5.67,3.28,12.24,8.82,9.98,14.97c-0.8,2.17-2.6,3.79-4.33,5.32
		c-9.98,8.81-19.97,17.62-29.95,26.43c-8.98,7.92-18.12,16.04-24.08,26.43c-5.96,10.39-8.27,23.64-2.95,34.37
		c2.2,4.44,4.59,8.84,6.99,13.18c-72.07,1.92-144.19,2.25-216.28,0.98c-6.28-23.08-2.72-50.15-2.68-73.88
		c0.06-30.52,0.12-61.04,0.18-91.56c0.12-61.87,0.25-123.73,0.37-185.6c0.05-22.46,0.09-44.92,0.14-67.38
		c0.01-6.49,0.09-13.27,3.08-19.03c5.19-10,28.27-15.08,38.58-18.14C103.54,502.53,118.4,499.05,132.58,500.09z"/>
	<polyline class="st7" points="245.5,603.5 232.5,655.5 204.5,704.5 154.5,754.5 105.5,800.5 58.5,842.5 	"/>
	<polyline class="st7" points="310.51,595.84 244.5,598.5 144.5,558.5 109.5,556.5 55.5,605.5 	"/>
	<polyline class="st7" points="144.5,565.5 136.5,606.5 130.5,642.5 133.31,681.42 141.5,723.5 159.5,760.5 214.5,804.5 
		249.5,832.5 	"/>
	<polyline class="st7" points="52.5,698.5 70.5,749.5 112.5,811.5 151.5,856.5 186.5,886.5 216.5,902.5 	"/>
	<polyline class="st7" points="295.5,663.5 212.5,650.5 159.5,635.5 120.5,632.5 55.54,639.44 	"/>
	<polyline class="st7" points="83.5,897.5 155.5,834.5 188.5,790.5 	"/>
	<line class="st7" x1="54.5" y1="688.5" x2="124.5" y2="680.5"/>
	<polyline class="st7" points="54.5,751.5 157.5,709.5 190.5,697.5 	"/>
	<polyline class="st7" points="114.5,923.5 174.5,856.5 220.5,794.5 241.5,760.5 249.5,737.5 253.5,696.5 268.5,665.5 	"/>
	<line class="st7" x1="51.5" y1="860.5" x2="125.5" y2="938.5"/>
</g>
<g id="conglomerate">
	<path class="st8" d="M442.54,76.88c3.68,8.4,7.39,16.89,9.07,25.91c1.83,9.81,1.21,19.98,3.34,29.74
		c2.38,10.88,8.05,20.69,13.04,30.65c8.3,16.58,14.87,34.02,19.57,51.95c2.52,9.64,5.11,20.33,13.28,26.02
		c0.91,0.63,1.95,1.21,3.05,1.14c2.36-0.15,3.52-2.97,3.67-5.32c0.49-7.73-3.96-15.16-3.37-22.89c0.58-7.59,5.94-14.3,5.98-21.91
		c0.03-6.19-3.5-11.93-3.77-18.11c-0.28-6.45,2.98-12.44,5.76-18.26c9.81-20.49,14.39-45.83,2.7-65.31
		c-4.21-7.01-10.27-12.8-14.27-19.93c-2.66-4.75-4.16-12.17-8.16-15.97c-3.99-3.8-10.33-2.79-15.6-2.99
		c-14.52-0.56-29.06-0.52-43.57,0.12c-0.42,0.02-0.9,0.07-1.16,0.41c-0.25,0.34-0.16,0.82-0.03,1.23
		C434.47,61.3,439.18,69.21,442.54,76.88z"/>
	<path class="st8" d="M619.89,394.62c3.57,6.72,6.87,13.58,9.77,20.64c3,7.31,5.33,14.88,8.17,22.26
		c12.99,33.82,35.72,59.59,63.82,81.54c7.02,5.48,14.23,10.71,21.8,15.41c12.04,7.48,24.17,15.1,36.18,22.5
		c12.19,7.51,27.16,12.89,40.31,18.7c24.38,10.78,51.13,20.99,77.76,24.26c7.76,0.95,15.35,2.34,23.17,2.98
		c3.13,0.26,45.17,3.1,45.1,2.32c-2.62-27.22-1.41-57.09,0.85-84.46c3.3-40.09-5.24-80.53-1.13-120.54
		c0.7-6.86,1.78-13.69,2.05-20.59c0.34-8.52-0.55-17.05-1.43-25.53c-0.32-3.09-0.69-6.32-2.4-8.92c-3.03-4.59-15.84-7.46-20.88-9.52
		c-8.31-3.39-16.75-6.45-25.31-9.15c-16.08-5.08-32.53-8.2-48.97-11.89c-1.43-0.32-2.95-0.64-4.35-0.21
		c-3.66,1.14-4.04,6.17-3.26,9.93c2.43,11.79,9.18,22.63,18.68,30.01c4.2,3.27,9.42,6.71,9.64,12.03c-2.82,1.78-6.56,1.4-9.6,0.03
		c-3.04-1.36-5.6-3.58-8.33-5.49c-14.36-10.1-34.39-12.82-44.46-27.21c-6.49-9.27-13.17-5.81-23.14-3.39
		c-11.35,2.76-22.56,6.45-34.28,7.32c-22.5,1.66-44.29-7.17-66.47-11.31c-12.51-2.33-25.29-3.64-37.98-4.44
		c-8.14-0.52-16.2-0.39-24.34-0.39c-7.95,0-16.8-3.88-24.33,0.49c-4.72,2.74-7.3,8.02-9.29,13.1c-0.44,1.11-0.86,2.27-0.81,3.46
		c0.07,1.52,0.91,2.89,1.73,4.18C598.98,359.82,610.39,376.73,619.89,394.62z"/>
	<path class="st8" d="M101.94,224.45c23.32,38.75,44.6,79.05,73.37,113.94c7.24,8.78,15.15,17.57,18.28,28.51
		c1.99,6.93,2.01,14.6,5.84,20.72c4.47,7.14,13.11,10.55,18.53,17c5.65,6.73,7.13,15.91,10.6,23.98
		c3.47,8.07,10.95,16.01,19.61,14.52c-13.15-37.23-26.29-74.46-39.44-111.69c-5.39-15.27-10.81-30.61-18.37-44.93
		c-13.24-25.1-32.62-46.33-51.78-67.27c-7.93-8.66-15.86-17.33-24.28-25.53c-17.41-16.97-36.83-31.87-57.73-44.29
		c-3.49,19.14-0.56,26.19,13.38,36.85C83.58,196.68,93.14,209.83,101.94,224.45z"/>
</g>
<g id="_cow_tracks">
	<path class="st9" d="M244.38,212.51c10.68,21.74,18.68,44.79,23.77,68.47"/>
	<path class="st9" d="M260.38,218.31c1.33,6.38,2.66,12.79,5.01,18.87c1.15,2.99,2.55,5.88,3.56,8.92
		c1.92,5.73,2.44,11.81,2.96,17.83"/>
	<path class="st9" d="M290.81,204.42c10.95,20.88,16.38,44.63,15.6,68.19"/>
	<path class="st9" d="M276.36,225.87c2.73,11.85,9.4,22.83,9.93,34.99"/>
	<path class="st9" d="M227.97,198.41c4.22,5.7,7.64,11.98,10.15,18.61"/>
	<path class="st9" d="M219.36,200.92c1.54,4.42,3.41,8.71,5.35,12.97c4.81,10.58,10.29,21.13,12.34,32.73"/>
	<path class="st9" d="M176.49,228.96c6.57,7.97,12.17,16.73,16.65,26.04c2.08,4.32,3.91,8.75,5.64,13.21
		c3.59,9.26,6.74,18.72,8.78,28.43c1.01,4.8,1.75,9.66,3.04,14.4c2.31,8.46,6.32,16.35,10.31,24.16"/>
	<path class="st9" d="M189.9,222.59c10.75,8.78,18.51,21.17,21.72,34.67c0.88,3.71,1.43,7.49,2.28,11.2
		c1.13,4.95,2.77,9.75,4.34,14.58c4.37,13.46,8.14,27.12,11.3,40.92"/>
	<path class="st9" d="M155.87,231.49c4.69,4.3,8.89,9.13,12.49,14.37c2.16,3.15,4.13,6.46,5.43,10.05c0.82,2.25,1.37,4.59,2.25,6.81
		c1.49,3.73,3.89,7.02,5.86,10.52c2.58,4.58,4.42,9.53,6.24,14.45c1.93,5.18,3.85,10.37,5.3,15.71c1.31,4.87,2.22,9.84,3.64,14.68
		c2.9,9.84,7.9,18.95,11.1,28.7"/>
	<path class="st9" d="M222.82,238.64c8.83,8.94,12.05,21.85,14.91,34.09c1.79,7.64,3.57,15.29,5.36,22.93"/>
	<path class="st9" d="M239.24,245.14c-0.17,3.02,0.79,5.97,1.64,8.87c2.5,8.46,4.24,17.13,5.21,25.9"/>
</g>
<g id="Thrust_faults">
</g>
<g id="Labels">
	<g>
		<path d="M2197.64,1648.7c0.3,0.19,1,0.49,1.73,0.49c1.36,0,1.78-0.86,1.76-1.51c-0.01-1.09-1-1.56-2.01-1.56h-0.59v-0.79h0.59
			c0.77,0,1.74-0.4,1.74-1.32c0-0.62-0.4-1.18-1.37-1.18c-0.62,0-1.22,0.28-1.56,0.52l-0.28-0.77c0.41-0.3,1.2-0.6,2.04-0.6
			c1.54,0,2.23,0.91,2.23,1.86c0,0.8-0.48,1.49-1.44,1.83v0.02c0.96,0.19,1.74,0.91,1.74,2c0,1.25-0.97,2.34-2.84,2.34
			c-0.88,0-1.64-0.28-2.03-0.53L2197.64,1648.7z"/>
		<path d="M2207.77,1647.37l-0.84,2.54h-1.08l2.75-8.08h1.26l2.76,8.08h-1.12l-0.86-2.54H2207.77z M2210.42,1646.56l-0.79-2.33
			c-0.18-0.53-0.3-1.01-0.42-1.48h-0.02c-0.12,0.48-0.25,0.97-0.41,1.46l-0.79,2.34H2210.42z"/>
		<path d="M2218.48,1648.33c0,0.6,0.01,1.13,0.05,1.58h-0.94l-0.06-0.95h-0.02c-0.28,0.47-0.89,1.08-1.92,1.08c-0.91,0-2-0.5-2-2.54
			v-3.39h1.05v3.21c0,1.1,0.34,1.85,1.3,1.85c0.71,0,1.2-0.49,1.39-0.96c0.06-0.16,0.1-0.35,0.1-0.54v-3.56h1.05V1648.33z"/>
		<path d="M2225.24,1644.11c-0.02,0.42-0.05,0.89-0.05,1.59v3.37c0,1.33-0.26,2.15-0.83,2.65c-0.56,0.53-1.38,0.7-2.11,0.7
			c-0.7,0-1.46-0.17-1.93-0.48l0.26-0.8c0.38,0.24,0.98,0.46,1.7,0.46c1.08,0,1.87-0.56,1.87-2.03v-0.65h-0.02
			c-0.32,0.54-0.95,0.97-1.85,0.97c-1.44,0-2.47-1.22-2.47-2.83c0-1.97,1.28-3.08,2.61-3.08c1.01,0,1.56,0.53,1.81,1.01h0.02
			l0.05-0.88H2225.24z M2224.15,1646.4c0-0.18-0.01-0.34-0.06-0.48c-0.19-0.61-0.71-1.12-1.48-1.12c-1.01,0-1.73,0.85-1.73,2.2
			c0,1.14,0.58,2.09,1.71,2.09c0.65,0,1.24-0.41,1.46-1.08c0.06-0.18,0.08-0.38,0.08-0.56V1646.4z"/>
		<path d="M2231.8,1648.33c0,0.6,0.01,1.13,0.05,1.58h-0.94l-0.06-0.95h-0.02c-0.28,0.47-0.89,1.08-1.92,1.08c-0.91,0-2-0.5-2-2.54
			v-3.39h1.05v3.21c0,1.1,0.34,1.85,1.3,1.85c0.71,0,1.2-0.49,1.39-0.96c0.06-0.16,0.1-0.35,0.1-0.54v-3.56h1.05V1648.33z"/>
		<path d="M2233.41,1648.83c0.31,0.2,0.86,0.42,1.39,0.42c0.77,0,1.13-0.38,1.13-0.86c0-0.5-0.3-0.78-1.08-1.07
			c-1.04-0.37-1.54-0.95-1.54-1.64c0-0.94,0.76-1.7,2-1.7c0.59,0,1.1,0.17,1.43,0.36l-0.26,0.77c-0.23-0.14-0.65-0.34-1.19-0.34
			c-0.62,0-0.97,0.36-0.97,0.79c0,0.48,0.35,0.7,1.1,0.98c1.01,0.38,1.52,0.89,1.52,1.75c0,1.02-0.79,1.74-2.17,1.74
			c-0.64,0-1.22-0.16-1.63-0.4L2233.41,1648.83z"/>
		<path d="M2239.58,1642.44v1.67h1.51v0.8h-1.51v3.13c0,0.72,0.2,1.13,0.79,1.13c0.28,0,0.48-0.04,0.61-0.07l0.05,0.79
			c-0.2,0.08-0.53,0.14-0.94,0.14c-0.49,0-0.89-0.16-1.14-0.44c-0.3-0.31-0.41-0.83-0.41-1.51v-3.17h-0.9v-0.8h0.9v-1.39
			L2239.58,1642.44z"/>
		<path d="M2244.49,1649.91v-0.65l0.83-0.8c1.99-1.89,2.89-2.9,2.9-4.08c0-0.79-0.38-1.52-1.55-1.52c-0.71,0-1.3,0.36-1.66,0.66
			l-0.34-0.74c0.54-0.46,1.31-0.79,2.21-0.79c1.68,0,2.39,1.15,2.39,2.27c0,1.44-1.04,2.6-2.69,4.19l-0.62,0.58v0.02h3.5v0.88
			H2244.49z"/>
		<path d="M2255.83,1645.93c0,2.65-0.98,4.11-2.71,4.11c-1.52,0-2.55-1.43-2.58-4.01c0-2.61,1.13-4.05,2.71-4.05
			C2254.89,1641.99,2255.83,1643.45,2255.83,1645.93z M2251.59,1646.05c0,2.03,0.62,3.18,1.58,3.18c1.08,0,1.59-1.26,1.59-3.25
			c0-1.92-0.49-3.18-1.58-3.18C2252.27,1642.8,2251.59,1643.93,2251.59,1646.05z"/>
		<path d="M2256.8,1649.91v-0.65l0.83-0.8c1.99-1.89,2.89-2.9,2.9-4.08c0-0.79-0.38-1.52-1.55-1.52c-0.71,0-1.3,0.36-1.66,0.66
			l-0.34-0.74c0.54-0.46,1.31-0.79,2.21-0.79c1.68,0,2.39,1.15,2.39,2.27c0,1.44-1.04,2.6-2.69,4.19l-0.62,0.58v0.02h3.5v0.88
			H2256.8z"/>
		<path d="M2268.14,1645.93c0,2.65-0.98,4.11-2.71,4.11c-1.52,0-2.55-1.43-2.58-4.01c0-2.61,1.13-4.05,2.71-4.05
			C2267.2,1641.99,2268.14,1643.45,2268.14,1645.93z M2263.91,1646.05c0,2.03,0.62,3.18,1.58,3.18c1.08,0,1.59-1.26,1.59-3.25
			c0-1.92-0.49-3.18-1.58-3.18C2264.58,1642.8,2263.91,1643.93,2263.91,1646.05z"/>
	</g>
	<g>
		<path d="M403.24,871.26c-0.07-1.32-0.15-2.9-0.14-4.08h-0.04c-0.32,1.11-0.71,2.28-1.19,3.59l-1.67,4.58h-0.92l-1.53-4.5
			c-0.45-1.33-0.83-2.55-1.09-3.67h-0.03c-0.03,1.18-0.1,2.76-0.18,4.17l-0.25,4.05h-1.16l0.66-9.44h1.55l1.61,4.57
			c0.39,1.16,0.71,2.2,0.95,3.18h0.04c0.24-0.95,0.57-1.99,1-3.18l1.68-4.57h1.55l0.59,9.44h-1.19L403.24,871.26z"/>
		<path d="M412.72,871.96c0,2.51-1.74,3.6-3.38,3.6c-1.83,0-3.25-1.34-3.25-3.49c0-2.27,1.48-3.6,3.36-3.6
			C411.4,868.48,412.72,869.89,412.72,871.96z M407.34,872.03c0,1.49,0.85,2.61,2.06,2.61c1.18,0,2.06-1.11,2.06-2.63
			c0-1.15-0.57-2.6-2.03-2.6S407.34,870.75,407.34,872.03z"/>
		<path d="M420.11,868.63c-0.03,0.49-0.06,1.04-0.06,1.86v3.94c0,1.55-0.31,2.51-0.97,3.1c-0.66,0.62-1.61,0.81-2.46,0.81
			c-0.81,0-1.71-0.2-2.26-0.56l0.31-0.94c0.45,0.28,1.15,0.53,1.99,0.53c1.26,0,2.18-0.66,2.18-2.37v-0.76h-0.03
			c-0.38,0.63-1.11,1.13-2.16,1.13c-1.68,0-2.89-1.43-2.89-3.31c0-2.3,1.5-3.6,3.05-3.6c1.18,0,1.82,0.62,2.12,1.18h0.03l0.06-1.02
			H420.11z M418.84,871.31c0-0.21-0.01-0.39-0.07-0.56c-0.22-0.71-0.83-1.3-1.72-1.3c-1.18,0-2.02,0.99-2.02,2.56
			c0,1.33,0.67,2.44,2,2.44c0.76,0,1.44-0.48,1.71-1.26c0.07-0.21,0.1-0.45,0.1-0.66V871.31z"/>
		<path d="M423.39,866.73c0.01,0.42-0.29,0.76-0.78,0.76c-0.43,0-0.74-0.34-0.74-0.76c0-0.43,0.32-0.77,0.77-0.77
			C423.09,865.96,423.39,866.29,423.39,866.73z M422.01,875.41v-6.78h1.23v6.78H422.01z"/>
		<path d="M425.29,870.47c0-0.7-0.01-1.28-0.06-1.83h1.09l0.07,1.12h0.03c0.34-0.64,1.12-1.27,2.24-1.27c0.94,0,2.4,0.56,2.4,2.89
			v4.05h-1.23v-3.91c0-1.09-0.41-2-1.57-2c-0.81,0-1.44,0.57-1.65,1.26c-0.06,0.15-0.08,0.36-0.08,0.57v4.08h-1.23V870.47z"/>
		<path d="M436.81,875.41l-0.1-0.85h-0.04c-0.38,0.53-1.11,1.01-2.07,1.01c-1.37,0-2.07-0.97-2.07-1.95c0-1.64,1.46-2.54,4.08-2.52
			v-0.14c0-0.56-0.15-1.57-1.54-1.57c-0.63,0-1.29,0.2-1.76,0.5l-0.28-0.81c0.56-0.36,1.37-0.6,2.23-0.6c2.07,0,2.58,1.42,2.58,2.77
			v2.54c0,0.59,0.03,1.16,0.11,1.62H436.81z M436.63,871.95c-1.34-0.03-2.87,0.21-2.87,1.53c0,0.8,0.53,1.18,1.16,1.18
			c0.88,0,1.44-0.56,1.64-1.13c0.04-0.13,0.07-0.27,0.07-0.39V871.95z"/>
		<path d="M439.81,870.47c0-0.7-0.01-1.28-0.06-1.83h1.09l0.07,1.12h0.03c0.34-0.64,1.12-1.27,2.24-1.27c0.94,0,2.4,0.56,2.4,2.89
			v4.05h-1.23v-3.91c0-1.09-0.41-2-1.57-2c-0.81,0-1.44,0.57-1.65,1.26c-0.06,0.15-0.08,0.36-0.08,0.57v4.08h-1.23V870.47z"/>
		<path d="M453.43,865.46v8.19c0,0.6,0.01,1.29,0.06,1.75h-1.11l-0.06-1.18h-0.03c-0.38,0.76-1.21,1.33-2.31,1.33
			c-1.64,0-2.9-1.39-2.9-3.45c-0.01-2.25,1.39-3.64,3.04-3.64c1.04,0,1.74,0.49,2.04,1.04h0.03v-4.05H453.43z M452.2,871.39
			c0-0.15-0.01-0.36-0.06-0.52c-0.18-0.79-0.85-1.43-1.78-1.43c-1.28,0-2.03,1.12-2.03,2.62c0,1.37,0.67,2.51,2,2.51
			c0.83,0,1.58-0.55,1.81-1.47c0.04-0.17,0.06-0.34,0.06-0.53V871.39z"/>
		<path d="M458.48,866.09c0.62-0.13,1.5-0.2,2.34-0.2c1.3,0,2.14,0.24,2.73,0.77c0.48,0.42,0.74,1.06,0.74,1.79
			c0,1.25-0.78,2.07-1.78,2.41v0.04c0.73,0.25,1.16,0.92,1.39,1.9c0.31,1.32,0.53,2.23,0.73,2.59h-1.26
			c-0.15-0.27-0.36-1.08-0.63-2.25c-0.28-1.3-0.79-1.79-1.89-1.83h-1.15v4.09h-1.22V866.09z M459.7,870.4h1.25
			c1.3,0,2.13-0.71,2.13-1.79c0-1.22-0.88-1.75-2.17-1.76c-0.59,0-1.01,0.06-1.21,0.11V870.4z"/>
		<path d="M467.49,866.73c0.01,0.42-0.29,0.76-0.78,0.76c-0.43,0-0.74-0.34-0.74-0.76c0-0.43,0.32-0.77,0.77-0.77
			C467.19,865.96,467.49,866.29,467.49,866.73z M466.11,875.41v-6.78h1.23v6.78H466.11z"/>
		<path d="M469.87,868.63l1.33,3.81c0.22,0.62,0.41,1.18,0.55,1.74h0.04c0.15-0.56,0.35-1.12,0.57-1.74l1.32-3.81h1.29l-2.66,6.78
			h-1.18l-2.58-6.78H469.87z"/>
		<path d="M476.67,872.24c0.03,1.67,1.09,2.35,2.33,2.35c0.88,0,1.42-0.15,1.88-0.35l0.21,0.88c-0.43,0.2-1.18,0.42-2.25,0.42
			c-2.09,0-3.33-1.37-3.33-3.42c0-2.05,1.21-3.66,3.18-3.66c2.21,0,2.8,1.95,2.8,3.19c0,0.25-0.03,0.45-0.04,0.57H476.67z
			 M480.28,871.36c0.01-0.79-0.32-2-1.71-2c-1.25,0-1.79,1.15-1.89,2H480.28z"/>
		<path d="M483,870.75c0-0.8-0.01-1.49-0.06-2.12h1.08l0.04,1.33h0.06c0.31-0.91,1.05-1.48,1.88-1.48c0.14,0,0.24,0.01,0.35,0.04
			v1.16c-0.13-0.03-0.25-0.04-0.42-0.04c-0.87,0-1.48,0.66-1.65,1.58c-0.03,0.17-0.06,0.36-0.06,0.57v3.61H483V870.75z"/>
	</g>
	<g>
		<path d="M417.07,487.57c-0.27,0.83-0.88,2.4-2.04,3.91c-1.31,1.69-2.82,2.76-4.71,3.04c-1.67,0.24-3.63-0.31-5.38-1.66
			c-3.33-2.6-4-6.78-1.09-10.53c1-1.29,2.07-2.09,2.67-2.39l0.91,1.26c-0.73,0.39-1.52,0.97-2.4,2.1c-2.11,2.72-1.79,5.81,1.02,7.98
			c2.84,2.2,5.84,1.78,7.86-0.83c0.73-0.95,1.1-1.7,1.19-2.16l-3.34-2.58L410,488l-1.16-0.9l2.85-3.69L417.07,487.57z"/>
		<path d="M407.45,476.68l1.13-1.46l5.02,3.88l0.03-0.03c-0.23-0.55-0.32-1.2-0.22-1.84c0.08-0.62,0.32-1.27,0.74-1.82
			c0.83-1.08,2.83-2.29,5.61-0.15l4.79,3.7l-1.13,1.46l-4.62-3.57c-1.3-1-2.77-1.37-3.83,0.01c-0.73,0.95-0.65,2.21-0.05,3.09
			c0.13,0.24,0.34,0.42,0.62,0.64l4.85,3.75l-1.13,1.46L407.45,476.68z"/>
		<path d="M429.81,472.12l-1.1-0.67l-0.04,0.05c0.29,0.94,0.18,2.24-0.71,3.38c-1.26,1.63-3.05,1.57-4.21,0.67
			c-1.94-1.5-1.67-4.05,0.75-7.15l-0.17-0.13c-0.66-0.51-2-1.26-3.27,0.39c-0.58,0.75-0.95,1.71-1.02,2.56l-1.22-0.41
			c0.08-1,0.54-2.18,1.33-3.19c1.9-2.46,4.04-1.76,5.65-0.51l3.01,2.32c0.7,0.54,1.4,1.03,2.03,1.36L429.81,472.12z M425.54,469.17
			c-1.27,1.57-2.38,3.6-0.82,4.8c0.95,0.73,1.88,0.45,2.46-0.3c0.81-1.05,0.66-2.22,0.16-2.98c-0.11-0.17-0.25-0.33-0.4-0.44
			L425.54,469.17z"/>
		<path d="M429.88,455.42c0.56,0.48,1.18,1.02,2.16,1.77l4.67,3.61c1.84,1.43,2.69,2.66,2.79,3.98c0.13,1.35-0.51,2.66-1.3,3.67
			c-0.75,0.96-1.8,1.85-2.73,2.16l-0.83-1.23c0.74-0.27,1.68-0.87,2.46-1.87c1.16-1.5,1.22-3.19-0.8-4.76l-0.9-0.69l-0.03,0.03
			c0.4,1.03,0.33,2.35-0.63,3.6c-1.54,1.99-4.34,2.11-6.56,0.39c-2.72-2.11-2.9-5.08-1.47-6.92c1.08-1.4,2.4-1.59,3.33-1.43
			l0.03-0.03l-1.16-1L429.88,455.42z M431.88,459.39c-0.25-0.19-0.48-0.34-0.73-0.43c-1.05-0.39-2.3-0.21-3.12,0.85
			c-1.08,1.4-0.67,3.3,1.19,4.74c1.58,1.22,3.51,1.44,4.73-0.14c0.69-0.9,0.76-2.15,0.07-3.18c-0.19-0.28-0.44-0.53-0.69-0.72
			L431.88,459.39z"/>
		<path d="M437.06,446.14c0.55,0.48,1.18,1.02,2.16,1.77l4.67,3.61c1.84,1.43,2.69,2.66,2.78,3.98c0.13,1.35-0.51,2.66-1.29,3.67
			c-0.74,0.96-1.8,1.85-2.73,2.16l-0.83-1.23c0.74-0.27,1.68-0.87,2.46-1.87c1.16-1.5,1.22-3.2-0.8-4.76l-0.9-0.69l-0.03,0.03
			c0.4,1.03,0.33,2.35-0.63,3.6c-1.54,1.99-4.34,2.11-6.57,0.39c-2.72-2.11-2.9-5.08-1.47-6.92c1.08-1.4,2.4-1.59,3.33-1.43
			l0.02-0.03l-1.16-1L437.06,446.14z M439.06,450.1c-0.25-0.19-0.48-0.34-0.73-0.43c-1.05-0.39-2.3-0.21-3.12,0.85
			c-1.08,1.4-0.67,3.3,1.19,4.74c1.58,1.22,3.51,1.44,4.73-0.14c0.69-0.9,0.76-2.15,0.07-3.18c-0.19-0.28-0.44-0.53-0.69-0.72
			L439.06,450.1z"/>
		<path d="M450.36,445.54l-1.1-0.67l-0.04,0.05c0.29,0.94,0.18,2.24-0.71,3.38c-1.26,1.63-3.05,1.57-4.21,0.67
			c-1.94-1.5-1.67-4.05,0.75-7.15l-0.17-0.13c-0.67-0.51-2-1.25-3.27,0.39c-0.58,0.75-0.95,1.71-1.02,2.55l-1.22-0.41
			c0.08-1,0.54-2.18,1.33-3.19c1.9-2.46,4.04-1.76,5.65-0.51l3.01,2.32c0.7,0.54,1.4,1.03,2.03,1.36L450.36,445.54z M446.09,442.58
			c-1.27,1.57-2.38,3.6-0.82,4.81c0.95,0.73,1.88,0.45,2.46-0.3c0.81-1.05,0.66-2.23,0.16-2.98c-0.11-0.17-0.25-0.33-0.4-0.44
			L446.09,442.58z"/>
		<path d="M447.58,437.71c-0.95-0.73-1.77-1.34-2.56-1.87l0.99-1.28l1.62,1.17l0.05-0.07c-0.8-1.2-0.8-2.61-0.04-3.59
			c0.13-0.17,0.23-0.27,0.37-0.38l1.38,1.07c-0.15,0.12-0.28,0.26-0.44,0.46c-0.8,1.03-0.58,2.36,0.36,3.41
			c0.17,0.19,0.38,0.4,0.63,0.59l4.29,3.31l-1.12,1.45L447.58,437.71z"/>
		<path d="M449.03,424.44c0.42-0.85,1.14-1.96,1.91-2.95c1.19-1.54,2.25-2.32,3.42-2.53c0.94-0.18,1.94,0.1,2.81,0.76
			c1.48,1.14,1.74,2.83,1.23,4.32l0.05,0.04c0.97-0.63,2.16-0.53,3.53,0.1c1.85,0.84,3.13,1.41,3.74,1.51l-1.16,1.49
			c-0.46-0.06-1.61-0.56-3.25-1.32c-1.8-0.86-2.84-0.71-3.91,0.56l-1.05,1.36l4.85,3.75l-1.12,1.44L449.03,424.44z M455.24,426.94
			l1.14-1.48c1.19-1.54,1.1-3.18-0.17-4.17c-1.45-1.12-2.88-0.56-4.08,0.96c-0.54,0.7-0.86,1.25-0.97,1.53L455.24,426.94z"/>
		<path d="M458.03,414.33c0.51,0.37,0.63,1.04,0.18,1.62c-0.4,0.51-1.08,0.57-1.58,0.19c-0.51-0.4-0.62-1.09-0.21-1.62
			C456.85,413.98,457.52,413.94,458.03,414.33z M467.07,423.92l-8.04-6.21l1.13-1.46l8.04,6.21L467.07,423.92z"/>
		<path d="M462.47,413.25l5.74,1.91c0.94,0.3,1.77,0.6,2.56,0.94l0.04-0.05c-0.52-0.7-1.01-1.44-1.53-2.27l-3.31-5.05l1.18-1.53
			l5.6,9.37l-1.08,1.4l-10.4-3.16L462.47,413.25z"/>
		<path d="M473,408.49c2,1.5,3.79,0.86,4.92-0.6c0.81-1.05,1.11-1.82,1.31-2.55l1.24,0.56c-0.17,0.7-0.58,1.78-1.57,3.06
			c-1.91,2.48-4.68,2.7-7.11,0.82c-2.42-1.87-3.23-4.78-1.42-7.12c2.03-2.62,4.88-1.54,6.36-0.39c0.3,0.23,0.5,0.44,0.64,0.58
			L473,408.49z M475.27,403.4c-0.92-0.74-2.67-1.45-3.94,0.19c-1.14,1.48-0.28,3.18,0.64,4.08L475.27,403.4z"/>
		<path d="M477.03,399.61c-0.95-0.73-1.77-1.34-2.56-1.87l0.99-1.28l1.62,1.17l0.05-0.07c-0.8-1.2-0.8-2.61-0.04-3.59
			c0.13-0.17,0.24-0.27,0.37-0.38l1.38,1.07c-0.15,0.12-0.28,0.26-0.44,0.46c-0.8,1.03-0.58,2.36,0.36,3.41
			c0.17,0.19,0.38,0.4,0.63,0.59l4.29,3.31l-1.12,1.45L477.03,399.61z"/>
	</g>
	<g>
		<path d="M157.14,686.17c-0.67,0.34-2.02,0.67-3.74,0.67c-3.99,0-6.99-2.52-6.99-7.16c0-4.43,3-7.43,7.39-7.43
			c1.76,0,2.88,0.38,3.36,0.63l-0.44,1.49c-0.69-0.34-1.68-0.59-2.86-0.59c-3.32,0-5.52,2.12-5.52,5.84c0,3.46,1.99,5.69,5.44,5.69
			c1.11,0,2.25-0.23,2.98-0.59L157.14,686.17z"/>
		<path d="M159.37,671.73h1.85v6.34h0.04c0.29-0.53,0.76-0.99,1.32-1.3c0.55-0.32,1.2-0.52,1.89-0.52c1.36,0,3.55,0.84,3.55,4.35
			v6.05h-1.85v-5.84c0-1.64-0.61-3.02-2.35-3.02c-1.2,0-2.14,0.84-2.48,1.85c-0.1,0.25-0.13,0.52-0.13,0.88v6.13h-1.85V671.73z"/>
		<path d="M176.65,686.64l-0.15-1.28h-0.06c-0.57,0.8-1.66,1.51-3.11,1.51c-2.06,0-3.11-1.45-3.11-2.92c0-2.46,2.18-3.8,6.11-3.78
			v-0.21c0-0.84-0.23-2.35-2.31-2.35c-0.94,0-1.93,0.29-2.65,0.76l-0.42-1.22c0.84-0.55,2.06-0.9,3.34-0.9
			c3.11,0,3.86,2.12,3.86,4.16v3.8c0,0.88,0.04,1.74,0.17,2.44H176.65z M176.38,681.45c-2.02-0.04-4.3,0.31-4.3,2.29
			c0,1.2,0.8,1.76,1.74,1.76c1.32,0,2.16-0.84,2.46-1.7c0.06-0.19,0.1-0.4,0.1-0.59V681.45z"/>
		<path d="M181.15,679.22c0-1.05-0.02-1.91-0.08-2.75h1.64l0.1,1.68h0.04c0.5-0.97,1.68-1.91,3.36-1.91c1.41,0,3.59,0.84,3.59,4.32
			v6.07h-1.85v-5.86c0-1.64-0.61-3-2.35-3c-1.22,0-2.16,0.86-2.48,1.89c-0.08,0.23-0.13,0.55-0.13,0.86v6.11h-1.85V679.22z"/>
		<path d="M201.58,671.73v12.28c0,0.9,0.02,1.93,0.08,2.62h-1.66l-0.08-1.76h-0.04c-0.57,1.13-1.81,1.99-3.46,1.99
			c-2.46,0-4.35-2.08-4.35-5.16c-0.02-3.38,2.08-5.46,4.56-5.46c1.55,0,2.6,0.73,3.07,1.55h0.04v-6.07H201.58z M199.73,680.61
			c0-0.23-0.02-0.55-0.08-0.78c-0.27-1.18-1.28-2.14-2.67-2.14c-1.91,0-3.04,1.68-3.04,3.93c0,2.06,1.01,3.76,3,3.76
			c1.24,0,2.37-0.82,2.71-2.21c0.06-0.25,0.08-0.5,0.08-0.8V680.61z"/>
		<path d="M206.71,673.62c0.02,0.63-0.44,1.13-1.18,1.13c-0.65,0-1.11-0.5-1.11-1.13c0-0.65,0.48-1.15,1.15-1.15
			C206.26,672.46,206.71,672.97,206.71,673.62z M204.65,686.64v-10.16h1.85v10.16H204.65z"/>
		<path d="M218.32,676.47c-0.04,0.73-0.08,1.55-0.08,2.79v5.9c0,2.33-0.46,3.76-1.45,4.64c-0.99,0.92-2.41,1.22-3.7,1.22
			c-1.22,0-2.56-0.29-3.38-0.84l0.46-1.41c0.67,0.42,1.72,0.8,2.98,0.8c1.89,0,3.28-0.99,3.28-3.55v-1.13h-0.04
			c-0.57,0.94-1.66,1.7-3.23,1.7c-2.52,0-4.33-2.14-4.33-4.96c0-3.44,2.25-5.4,4.58-5.4c1.76,0,2.73,0.92,3.17,1.76h0.04l0.08-1.53
			H218.32z M216.41,680.48c0-0.31-0.02-0.59-0.1-0.84c-0.34-1.07-1.24-1.95-2.58-1.95c-1.76,0-3.02,1.49-3.02,3.84
			c0,1.99,1.01,3.65,3,3.65c1.13,0,2.16-0.71,2.56-1.89c0.1-0.32,0.15-0.67,0.15-0.99V680.48z"/>
		<path d="M226.93,686.64l-0.15-1.28h-0.06c-0.57,0.8-1.66,1.51-3.11,1.51c-2.06,0-3.11-1.45-3.11-2.92c0-2.46,2.18-3.8,6.11-3.78
			v-0.21c0-0.84-0.23-2.35-2.31-2.35c-0.94,0-1.93,0.29-2.65,0.76l-0.42-1.22c0.84-0.55,2.06-0.9,3.34-0.9
			c3.11,0,3.86,2.12,3.86,4.16v3.8c0,0.88,0.04,1.74,0.17,2.44H226.93z M226.65,681.45c-2.02-0.04-4.3,0.31-4.3,2.29
			c0,1.2,0.8,1.76,1.74,1.76c1.32,0,2.16-0.84,2.46-1.7c0.06-0.19,0.1-0.4,0.1-0.59V681.45z"/>
		<path d="M231.42,679.64c0-1.2-0.02-2.22-0.08-3.17h1.62l0.06,1.99h0.08c0.46-1.36,1.57-2.22,2.81-2.22c0.21,0,0.36,0.02,0.52,0.06
			v1.74c-0.19-0.04-0.38-0.06-0.63-0.06c-1.3,0-2.23,0.99-2.48,2.37c-0.04,0.25-0.08,0.54-0.08,0.86v5.42h-1.83V679.64z"/>
		<path d="M238.37,671.73h1.85v6.34h0.04c0.29-0.53,0.76-0.99,1.32-1.3c0.55-0.32,1.2-0.52,1.89-0.52c1.36,0,3.55,0.84,3.55,4.35
			v6.05h-1.85v-5.84c0-1.64-0.61-3.02-2.35-3.02c-1.2,0-2.14,0.84-2.48,1.85c-0.1,0.25-0.13,0.52-0.13,0.88v6.13h-1.85V671.73z"/>
	</g>
	<polyline class="st10" points="669.01,936.34 669.22,946.34 798.24,945.65 798.03,935.66 	"/>
	<g>
		<path d="M710.11,929.12h-0.04l-2.35,1.33l-0.39-1.4l2.95-1.66l1.57-0.03l0.28,13.64l-1.78,0.04L710.11,929.12z"/>
		<path d="M722,933.38c-0.02-1.05-0.06-1.91-0.14-2.75l1.62-0.03l0.12,1.63l0.06,0c0.55-0.98,1.47-1.9,3.15-1.93
			c1.39-0.03,2.45,0.79,2.92,1.98l0.04,0c0.3-0.57,0.69-1.02,1.1-1.35c0.6-0.47,1.27-0.74,2.23-0.76c1.34-0.03,3.36,0.81,3.43,4.34
			l0.12,5.98l-1.81,0.04l-0.12-5.75c-0.04-1.95-0.78-3.12-2.27-3.08c-1.05,0.02-1.85,0.82-2.15,1.73c-0.08,0.25-0.13,0.59-0.13,0.93
			l0.13,6.28l-1.8,0.04l-0.13-6.09c-0.03-1.62-0.77-2.78-2.18-2.75c-1.15,0.02-1.97,0.96-2.25,1.89c-0.1,0.28-0.13,0.59-0.13,0.91
			l0.13,6.13l-1.81,0.04L722,933.38z"/>
		<path d="M741.45,927.37c0.03,0.63-0.42,1.14-1.15,1.16c-0.65,0.01-1.12-0.48-1.14-1.11c-0.01-0.65,0.46-1.17,1.13-1.18
			C740.98,926.23,741.44,926.72,741.45,927.37z M739.66,940.43l-0.21-10.16l1.85-0.04l0.21,10.16L739.66,940.43z"/>
		<path d="M744.26,925.42l1.85-0.04l0.31,14.9l-1.85,0.04L744.26,925.42z"/>
		<path d="M750.46,935.46c0.09,2.5,1.71,3.49,3.56,3.46c1.32-0.03,2.12-0.28,2.8-0.58l0.34,1.31c-0.64,0.31-1.75,0.67-3.37,0.7
			c-3.13,0.06-5.04-1.95-5.1-5.02s1.69-5.52,4.65-5.58c3.32-0.07,4.26,2.83,4.3,4.7c0.01,0.38-0.03,0.67-0.04,0.86L750.46,935.46z
			 M755.85,934.03c0-1.18-0.54-2.99-2.62-2.95c-1.87,0.04-2.65,1.78-2.77,3.06L755.85,934.03z"/>
	</g>
</g>
<g id="box">
	<rect x="50" y="52" class="st10" width="896" height="912"/>
</g>
<g id="section_boxes_1_">
	<a xlink:href="/sections/western-india-measured-sections#d" >
		
			<rect id="moginand" x="529.21" y="749.26" transform="matrix(0.815 0.5795 -0.5795 0.815 593.4665 -163.3947)" class="hoverthingQ" width="46.82" height="196.92"/>
	</a>
	<a xlink:href="/sections/western-india-measured-sections#c" >
		
			<rect id="ghaggar" x="465.55" y="280.88" transform="matrix(0.815 0.5795 -0.5795 0.815 358.6074 -197.7222)" class="hoverthingQ" width="46.82" height="363.73"/>
	</a>
	<g>
	</g>
	<g>
	</g>
	<g>
	</g>
	<g>
	</g>
	<g>
	</g>
	<g>
	</g>
	<g>
	</g>
	<g>
	</g>
	<g>
	</g>
	<g>
	</g>
	<g>
	</g>
	<g>
	</g>
	<g>
	</g>
	<g>
	</g>
	<g>
	</g>
</g>
</svg>
