<svg xmlns="http://www.w3.org/2000/svg" xmlns:xlink="http://www.w3.org/1999/xlink" viewBox="0 0 999 1009" style="enable-background:new 0 0 999 1009">
    <style>
        .chandigar_sections_svg__hoverthingQ{opacity:.5;fill:#9c1f60}.chandigar_sections_svg__st0{fill:#f4dab9}.chandigar_sections_svg__st1{display:none}.chandigar_sections_svg__st2{opacity:.68;fill:#fbf28f;stroke:#231f20}.chandigar_sections_svg__st2,.chandigar_sections_svg__st3,.chandigar_sections_svg__st4,.chandigar_sections_svg__st5{stroke-width:.5;stroke-miterlimit:10}.chandigar_sections_svg__st3{opacity:.57;fill:#f8f7ca;stroke:#231f20}.chandigar_sections_svg__st4,.chandigar_sections_svg__st5{fill:none;stroke:#3abfef}.chandigar_sections_svg__st5{stroke-width:2}.chandigar_sections_svg__st6{opacity:.54;fill:#ee3424}.chandigar_sections_svg__st7{fill:none;stroke:#231f20;stroke-miterlimit:10}.chandigar_sections_svg__st8{opacity:.54;fill:#f89821}.chandigar_sections_svg__st10,.chandigar_sections_svg__st9{fill:none;stroke:#231f20;stroke-miterlimit:10}.chandigar_sections_svg__st9{stroke-dasharray:4;stroke-width:.5}.chandigar_sections_svg__st10{stroke-width:2}
    </style>
    <path class="chandigar_sections_svg__st0" d="M49 55h896v910H49z" id="chandigar_sections_svg__sepia"/>
    <g id="chandigar_sections_svg__Upper_Siwaliks">
        <path class="chandigar_sections_svg__st2" d="M370.76 659.6c.19 4.83-3.69 8.69-6.05 12.91-4.68 8.37-2.61 20.04 4.28 26.64 3.06 2.93 6.65 5.37 10.18 7.68 3.14 2.05 8.97 6.97 12.75 7.33.67.06 1.34-.12 2-.28a39.831 39.831 0 0 1 20.08.26c3.55.98 6.98 2.46 10.64 2.86 6.8.75 11.75 1.57 18.2 3.89 4.55 1.64 8.8 3.87 13.43 5.32 4.67 1.46 9.47 2.68 14.35 2.76 5.05.08 8.47-1.94 13.08-3.26 4.31-1.24 9.17-1.45 13.6-2.54 6.53-1.62 12.65-4.2 19.03-6.15 5.85-1.79 11.08-2.83 15.98-6.88-.54 5.71 2.4 11.61 7.28 14.63 5.56 3.44 13.33 3.44 17.4 8.55 3.82 4.8 4.07 10.3 11.66 9.17 6.3-.94 8.21-7.15 11.92-11.47 2.31-2.69 5.41-4.56 8.46-6.37 6.3-3.75 12.6-7.5 18.89-11.26 1.79-1.06 3.61-2.15 4.98-3.72.91-1.04 1.61-2.26 2.58-3.24 3.62-3.67 10.87-4.05 11.92-9.1-.41 7.14-4.45 13.98-10.51 17.8-2.85 1.79-6.65 3.97-6.01 7.27.22 1.15 1 2.14 1.15 3.3.23 1.76-1.01 3.34-2.18 4.67-6.01 6.9-12.42 14.08-21.05 17.13-5.85 2.06-12.41 2.09-17.8 5.16-2.95 1.68-5.46 4.23-8.7 5.26-3.68 1.16-7.78.12-11.08-1.89-3.48-2.13-5.87-5.41-9.02-7.86-3.45-2.68-7.57-4.93-11.41-7.01-7.81-4.21-16.41-7.35-25.41-7.03-14.46.52-27.33 9.72-41.7 11.48-19.86 2.42-35.33-11.04-51.34-20.77-2.73-1.66-5.51-3.34-8.63-4.03-6.01-1.33-12.62.87-13.6 7.38-.4 2.64 3.57 5.59 4.01 8.26 1.07 6.48-1.34 10.14-3.51 15.93-2 5.36-.73 11.3.03 16.98.75 5.67.14 12.89-1.23 18.44-3.25 13.14 5.23 27.36.98 40.21-1.58 4.77-4.84 8.97-5.63 13.94-.18 1.14-.22 2.37.3 3.4.62 1.23 1.88 1.96 3.08 2.63 4.84 2.7 10.34 8.5 15.85 9.06 17.74 1.82 34.87 7.47 52.52 9.98 6.48.92 13.04 1.43 19.42 2.9 8.15 1.88 16.04 6.22 24.34 7.29 6.85.89 11.76 1.28 18.51 3.87 4.4 1.69 8.78 3.43 13.2 5.07 1.41.52 7.28 3.97 8.51 3.48.67-.26.97-1.02 1.25-1.68 2.4-5.65 8.11-8.99 12.9-12.83 11.53-9.26 20.6-25.35 20.45-40.31-.1-9.97-.19-19.95-.29-29.92-.03-2.88-.02-5.92 1.42-8.42 1.72-2.99 5.1-4.56 8.26-5.94 6.64-2.9 13.57-5.85 20.81-5.53 2.04.09 4.07.45 6.11.37 8.71-.33 17.45-4.9 24.33-9.95 8.35-6.13 10.86-12.58 14.86-21.74 1.97-4.49 4.63-9.57 9.45-10.47 3.12-.58 6.23.82 9.37 1.27 3.39.49 6.91-.31 9.87-2.02 3.57-2.06 3.22-3.88 4.92-6.89 2.95-5.2 10.1-7.71 15.81-8.52 2.08-.29 4.18-.37 6.24-.77 3.06-.59 5.94-1.89 8.78-3.17l11.31-5.1c2.5-1.13 5.15-2.28 7.88-2-5.2 8.64-14.74 14.52-24.79 15.29-3.21.25-6.49.01-9.61.81-6.25 1.61-5.9 7.4-10.48 10.78-2.55 1.88-5.61 2.93-8.61 3.96-3.98 1.36-8.23 2.74-12.31 1.72-2.74-.68-5.65-2.4-8.15-1.09-1.64.86-2.41 2.75-3.06 4.49-1.06 2.84-2.11 5.69-3.17 8.53-1.01 2.71-2.34 12.98 2.34 13.3 2.81.2 10.07-8.12 12.3-9.81 4.24-3.22 9.76-4.69 15.04-4.03 1.03.13 2.07.35 2.96.89 1.01.62 1.73 1.6 2.34 2.62 3.07 5.15 3.61 15.33 11.57 14.21 2.55-.36 4.84-1.67 7.06-2.96 21.58-12.59 42.67-26.34 65.89-35.55 2.78-1.1 5.74-2.16 8.7-1.73.72.1 1.51.37 1.8 1.03.38.86-.31 1.81-1.07 2.37-3.62 2.67-8.75 1.33-13.09 2.52-3.78 1.04-6.71 3.93-9.78 6.37-8.7 6.92-19.43 10.74-28.82 16.68-9.99 6.32-15.45 15.07-23.43 23.18-1.47 1.49-3.1 3.01-5.16 3.42-1.45.29-2.94-.02-4.39-.32-2.81-.59-5.79-1.27-7.78-3.33-1.34-1.39-2.06-3.24-2.75-5.04-1.93-5.05-3.87-10.09-5.8-15.14-.71-1.84-1.57-3.86-3.38-4.67-2.03-.91-4.37.1-6.3 1.22-8.22 4.78-13.25 15.72-23.53 15.93-2.38.05-4.75-.42-7.13-.36-4.2.1-8.33 1.92-11.25 4.94-8.32 8.62-25.18 9.17-36.68 11.5-5.53 1.12-11.64 2.62-14.72 7.34-2.34 3.6-2.3 8.19-2.18 12.49.14 5.11.34 10.44 2.77 14.95.74 1.37 1.69 2.68 1.95 4.22.26 1.49-.16 3.01-.62 4.45a86.675 86.675 0 0 1-6.82 15.88c-2.17 3.91-3.23 8.22-5.43 11.98-2.51 4.3-7.66 6.49-10.32 10.7-1.86 2.93-2.48 6.78-5.23 8.9-1.9 1.46-5.04 2.96-4.07 5.15.74 1.69 7.06 1.68 8.92 2.35 3.5 1.27 6.95 2.67 10.43 4.01 4.29 1.65 8.65 3.31 13.24 3.59 9.75.59 18.61-5.08 27.33-9.49 19.63-9.94 41.66-14.22 63.57-16.25 35.92-3.32 72.11-.86 108.06 2.17 51.63 5.43 103.34 9.1 154.71 16.79 2.41.36 5.27.57 6.89-1.25 1.17-1.31 1.26-3.23 1.28-4.99 1.35-95.28 1.76-190.57 1.21-285.85-32.08 1.67-68.45-1.01-99.28-10.55-9.57-2.96-18.79-6.93-27.98-10.9-23.81-10.26-47.68-20.56-70.1-33.57-30.28-17.56-57.71-40.02-80.91-66.22-6.9-7.8-13.48-15.99-18.39-25.17-4.97-9.29-8.15-19.41-11.76-29.31a350.98 350.98 0 0 0-40.34-78.42c-4.36-6.36-10.41-13.28-18.08-12.51-8.21.83-12.65 9.79-15.57 17.5-7.83 20.74-13.4 48.59-26.22 66.7-11.46 16.19-26.78 31.32-39.23 47.08-5.81 7.36-11.7 14.84-15.35 23.49-2.13 5.04-3.47 10.44-6.27 15.14-4.13 6.96-11.08 11.84-15.5 18.62-2.28 3.51-3.84 7.44-6.01 11.01-3.32 5.46-8.03 9.98-13.28 13.63-2.74 1.91-27.77 18.73-17.75 21.41 8.17 2.19 16.8.21 25.26-.05 8.46-.25 18.14 2.07 22.07 9.56 1.38 2.63 1.9 5.66 3.28 8.29 2.68 5.09 8.16 7.99 13.43 10.29 10.56 4.62 21.24 9.58 32.49 12.3 1.64.4 3.3.76 4.98.87 1.54.11 3.08.01 4.61-.09 9.44-.59 17.21 4.53 26.63 4.53 3.32.72 7.23 1.31 9.75-.97 1.04-.94 1.67-2.24 2.27-3.5 1.12-2.35 2.24-4.69 3.36-7.04.83-1.74 1.69-3.62 1.42-5.53-.25-1.8-1.45-3.32-1.92-5.07-1.35-5.08 3.87-9.62 8.95-10.96 5.08-1.34 10.67-1.02 15.28-3.54 3.14-1.72 5.59-6.03 3.29-8.77 4.74-2.81 10.8-3.28 15.92-1.23 2.21.88 4.27 2.21 6.61 2.63 2.34.42 5.18-.44 5.99-2.67.6-1.66-.08-3.57.48-5.24.63-1.91 2.75-3 4.76-3.06 2.01-.06 3.94.69 5.82 1.42-1.94 3.95-3.87 7.89-5.81 11.84-1.03 2.11-2.44 4.49-4.77 4.75-2.34.27-4.41-1.79-6.77-1.78-1.45.01-2.76.79-4.01 1.52a69.827 69.827 0 0 1-18.74 7.45c-4.37 1.04-9.7 2.39-10.88 6.73-.68 2.51.38 5.12 1.41 7.5 1.37 3.15 2.74 6.29 4.11 9.44.8 1.84 1.62 3.78 1.39 5.78-.31 2.74-2.58 4.93-5.14 5.95-2.55 1.03-5.38 1.1-8.13 1.16-9.16.21-18.91-.51-27.99.64-8.03 1.02-14.57 4.59-23.12 2.81-6.73-1.4-12.97-4.89-19.94-5.17-7.59-.31-14.24-2.06-21.37-5.14-6.76-2.92-22.02-9.94-22.57-18.11-.14-2.17-.07-4.48-1.19-6.34-1.07-1.77-3.02-2.78-4.87-3.7-3.18-1.58-6.73-3.2-10.14-2.23-.84.24-1.65.63-2.52.68-1.75.1-3.24-1.15-4.88-1.77-4.25-1.6-10.39 1.21-14.84 1.75-4.9.59-9.75 1.75-14.29 3.7-10.42 4.46-12.06 13.22-20.41 20.46-4.28 3.71-10.14 5.66-13.4 10.29-1.64 2.33-2.45 5.14-3.23 7.88-1.42 4.99-2.85 9.98-4.27 14.96-1.3 4.6-.44 8.8-.25 13.57zM439.79 67.85c.27.64.47 1.13.58 1.41 2.6 6.2 4.55 12.66 6.19 19.18 3.42 13.61 5.39 27.52 8.59 41.18 3.1 13.22 7.36 26.37 15.22 37.59 9.46 13.5 13.07 32.68 18.42 48.29 2.69 7.85 5.42 16.03 4.45 24.28-1.93 16.43-20.17 23.72-34.24 26.28-16.63 3.03-34.39 3.77-48.67 12.82-3.45 2.19-6.69 4.86-10.58 6.13-4.08 1.33-8.49.98-12.78.82-23.18-.82-48.24 5.84-62.53 24.11-7.07 9.04-10.92 20.1-14.65 30.95-8.48 24.63-16.96 49.27-25.45 73.9-2.79 8.1-5.8 16.55-12.07 22.38-6.27 5.84-16.88 7.98-23.32 2.33-3.8-3.34-5.34-8.49-6.74-13.36-16.01-55.68-36.81-110.42-67.66-159.46-16.03-25.49-34.82-49.33-56.43-70.34-10.89-10.58-22.49-20.44-34.78-29.36-6.14-4.46-12.45-8.68-18.92-12.64-4.72-2.89-13.26-4.99-13.57-11.09-.37-7.19-.73-14.38-1.1-21.58-.68-13.26-1.36-26.53-1.05-39.81.06-2.44 3.47-30.25.04-30.31 40.76.72 81.54.78 122.31.58 39.61-.2 79.04-1.63 118.66-1.31 47.15.38 94.32 4.35 141.4 1.78 2.17-.09 6.89 10.96 8.68 15.25z"/>
    </g>
    <path class="chandigar_sections_svg__st3" d="M646.13 202.69c4.34-11.46 19.85-15.04 27.15-24.45 3.75-4.83 6.17-10.54 8.55-16.18 3.19-7.57 6.39-15.14 9.58-22.72 2.09-4.95 4.19-9.93 5.4-15.17 1.67-7.19 1.27-14.99 3.63-22 1.77-5.28 4.49-8.96 4.86-14.86.2-3.1-.06-6.27.77-9.27 1.78-6.43 8.13-10.72 10.24-17.05.91-2.73 1.07-5.9 3.09-7.95 2.69-2.73 7.17-2.08 10.91-1.24-.03-.01-9.89 22.66-10.24 25.25-.39 2.88-.11 5.81-.17 8.72-.12 6.23-1.77 12.32-3.26 18.38-.85 3.45-1.65 6.95-1.66 10.5-.01 2.79.46 5.56.92 8.31.71 4.16 1.42 8.33 2.12 12.49-.11-.63 5.28-9.21 5.87-10.84 1.59-4.47 2.99-8.96 4.31-13.52 2.78-9.61 5.4-19.43 10.88-27.93 4.11-6.38 8.32-12.79 13.85-17.98 5.53-5.19 12.58-9.13 20.15-9.52 5.59-.29 11.09 1.34 16.63 2.12 8.84 1.24 17.98.31 26.38-2.71-11.57 16.07-29.77 27.21-49.34 30.23-3.4.52-6.87.82-10.08 2.05-2.85 1.09-5.4 2.87-7.55 5.03-7.99 7.99-7.87 17.71-7.03 28.15.07.89.16 1.8.57 2.6.47.91 1.3 1.57 2.14 2.15 8.62 5.88 16.26 4.04 24.75.18 9.06-4.12 19.36-4.77 28.42-9.03 3.15-1.48 6.12-3.32 9.29-4.76 3.31-1.5 6.8-2.56 10.22-3.77 10.86-3.84 21.08-9.27 31.26-14.67-2.91 11.39-13.82 18.66-24.16 24.25-3.69 1.99-7.47 3.93-11.56 4.84-3.88.86-7.96.78-11.74 2.01-3.5 1.13-6.59 3.33-10.09 4.46-3.96 1.27-8.24 1.1-12.33 1.91-5.24 1.03-6.19 3.74-9.55 6.86-3.38 3.14-8.26 5.11-12.42 7.35-10.09 5.41-20.17 10.83-30.26 16.24-3.96 2.13-7.98 4.29-11.2 7.44-3 2.93-5.2 6.61-8.29 9.45-2.84 2.61-6.38 4.45-8.97 7.31-3.26 3.61-4.72 8.48-7.38 12.55-4.88 7.46-13.12 11.57-19.41 17.62-7.14 6.87-10.45 16.23-11.47 25.96 21.5 2.68 42.73 2.21 61.41-10.2 13.41-8.91 24.12-22.54 39.5-27.29 8.4-2.6 19.33-1.3 26.98-5.82 2.93-1.73 5.22-4.42 8.5-6.11 3.32-1.71 6.86-3 9.25-6.05 1.61-2.05 2.46-4.61 4.1-6.63 3.96-4.88 11.43-5.51 15.73-10.08.09 6.26 6.43 10.74 12.56 11.99 9.92 2.02 20.01-1.47 29.84-3.86 9.84-2.39 21.12-3.43 29.26 2.59-14.19 1.99-28.1 5.97-41.2 11.78 1.77 3.06 3.62 6.06 5.56 9.01-11.12-8.87-27.57-10.43-40.16-3.8-5.87 3.09-10.73 7.67-16.34 11.13-5.02 3.1-10.59 4.55-15.94 6.92-13.18 5.83-27.33 9.34-39.85 16.66 14.13-.1 28.58-.14 41.92 4.51 8.51 2.97 18.26 7.32 27.46 5.84 4.19-.67 8.09-2.58 12.24-3.51 9.23-2.06 19.16.84 28.2-1.93 3-.92 5.78-2.43 8.59-3.83 23.95-11.99 49.37-15.15 75.36-9.45.65.14 1.32.3 1.82.73.63.54.85 1.4 1.03 2.22a53.928 53.928 0 0 1-.81 25.84c-.3 1.06-12.99-2.22-14.3-2.21-2.99.03-5.96.84-8.95.67-3.36-.18-6.52-1.58-9.74-2.59-7.28-2.3-15.01-2.68-22.63-3.05-1.99-.1-4.43.05-5.34 1.82-.43.83-.38 1.82-.32 2.76l.69 11.07c10.66.32 21.11 2.91 31.47 5.5 9.98 2.49 19.61 5.79 29.37 8.55.39 12.77.23 25.55-.48 38.3-2.91-.89-6.32-1.44-9.33-1.99-3.71-.68-7.54-1.32-10.75-3.31-4.29-2.66-7.68-7.75-12.73-7.57-2.72.1-5.18 1.81-7.9 1.86-3.99.07-7.33-3.42-11.32-3.53-4.49-.12-8.46 4.07-12.88 3.31-5.32-.92-7.86-8.45-13.26-8.64-1.94-.07-3.8.89-5.74.85-3.82-.09-7.34-3.99-10.89-2.57-2.5 1-3.32 4.07-3.81 6.72-1.2 6.44-2.39 12.87-3.59 19.31-.48 2.57-.96 5.19-.7 7.79.35 3.48 1.99 6.68 3.6 9.79 4.08 7.87 8.56 16.17 16.28 20.52 2.46 1.39 5.22 2.35 7.32 4.24 2.1 1.89 3.37 5.18 1.88 7.58-1.15-.32-2.31-.65-3.46-.97-.52.84-1.04 1.68-1.55 2.52-6.86-5.64-15.22-9.07-23.44-12.42l-14.64-5.97c-3.39-1.38-6.8-2.78-9.87-4.76-10.15-6.58-15.28-18.91-16.56-30.94-1.28-12.03.69-24.13 1.67-36.18.1-1.2.17-2.48-.42-3.52-.52-.93-1.48-1.51-2.41-2.02-14.66-8.05-36.92-9.28-51.65-.84-5.86 3.36-11.33 8.47-18.09 8.47-4.68 0-8.93-2.51-13.11-4.62-10.24-5.16-21.52-8.19-32.96-9-11.73-.83-22.27 2.56-33.68 3.31-3.72.24-7.49.59-11 1.87-3.54 1.28-6.68 3.46-9.62 5.81-6.39 5.09-14.01 11.77-17.52 19.29-3.32 7.13-7.97 13.01-13.54 18.71-2.94 3.01-6.1 5.82-8.67 9.16-2.76 3.58-4.77 7.68-7.25 11.46-5.12 7.8-12.16 14.11-18.25 21.17-3.97 4.6-7.6 9.66-9.85 15.34-2.18 5.53-1.77 11.22-3.42 16.86-2.2 7.51-6.38 14.27-10.63 20.85-17.66 27.34-39.12 51.55-57.49 78.25-1.14 1.65-2.3 3.41-2.49 5.41-.22 2.42 1.18 4.9 3.37 5.96 2.19 1.05 5.01.6 6.76-1.09 1.29-1.24 1.95-2.99 2.94-4.48.99-1.5 2.6-2.86 4.37-2.61-1.72 4.23-2.01 9.3-5.28 12.49-3.86 3.77-11.24 2.68-13.85-2.04-2.96 2.56-3.83 6.46-6.54 8.91-3.79 3.43-8.07 6.48-10.83 10.78-2.5 3.88-3.57 8.5-5.81 12.54-6.06 10.93-19.2 15.56-28.29 24.13a41.174 41.174 0 0 0-10.09 14.97c7.37 1.65 15.01-.17 22.48-1.31 7.47-1.14 15.66-1.45 21.97 2.71 4.46 2.94 6.06 7.63 11.89 9.02-2.24.39-3.47 3.09-3.03 5.32.45 2.23 2.09 4.02 3.79 5.53 4.82 4.3 10.68 7.44 16.94 9.06 2.7.7 5.49 1.13 8.09 2.14 2.43.95 4.64 2.38 6.99 3.52 3.64 1.76 7.58 2.79 11.49 3.81 2.45.64 4.96 1.29 7.49 1.09 2.23-.17 4.36-1 6.58-1.29 3.55-.46 7.11.49 10.56 1.43 4.26 1.16 8.52 2.31 12.79 3.47 3.29.89 6.88 1.77 10.01.42 3.13-1.34 4.92-5.98 2.37-8.24 2.38-1.2 5.14-3.02 4.92-5.68-.09-1.08-.68-2.04-1.14-3.02-1.9-4.04-1.59-9.04.81-12.81 2.39-3.77 6.79-6.18 11.25-6.17 4.64.01 8.29 1.21 12.55-1.52 1.75-1.12 3.13-3.07 2.99-5.14-.06-.79-.32-1.58-.14-2.35.27-1.13 1.4-1.82 2.48-2.26 4.03-1.64 8.75-1.5 12.67.38 2.26 1.09 4.28 2.72 6.71 3.38 2.42.66 5.55-.11 6.36-2.48.78-2.27-.88-4.8-.24-7.11.62-2.2 3.21-3.35 5.49-3.11 2.28.24 4.29 1.51 6.22 2.74-1.9.04-3.48 1.59-4.25 3.33s-.94 3.67-1.35 5.53c-.62 2.85-1.81 5.58-3.49 7.97-2.11-1-4.21-1.99-6.32-2.99-.78-.37-1.6-.75-2.46-.68-1.15.09-2.08.94-2.9 1.75-2.31 2.26-4.95 4.7-8.19 4.74-.99.01-1.98-.21-2.95-.08-2.27.29-3.88 2.18-5.85 3.15-2.22 1.09-4.64 1.36-7 1.99-3.89 1.05-7.3 3.76-9.19 7.32 2.18 4.14 4.36 8.28 6.55 12.42 1.28 2.42 2.59 5.12 1.96 7.78-.39 1.67-1.52 3.08-2.81 4.22-5.47 4.81-13.52 5.12-20.77 4.37s-14.7-2.28-21.71-.26c-2.45.7-4.75 1.82-7.19 2.55-5.98 1.79-12.66 1.09-18.13-1.89-2.63-1.44-5.1-3.42-8.07-3.84-2.67-.38-5.36.56-8.06.64-3.29.09-6.47-1.1-9.54-2.31-8.15-3.23-16.2-6.73-24.12-10.49-2.21-1.05-4.58-2.28-5.62-4.5-1.13-2.4-.38-5.3-1.16-7.84-.64-2.06-2.21-3.68-3.73-5.21-2.31-2.32-5.16-4.83-8.39-4.33-1.44.22-2.81 1.05-4.25.84-1.61-.23-2.75-1.65-4.19-2.4-3.61-1.9-8.96.37-12.76.79-4.57.5-7.01 2.73-11.22 4.35-6.05 2.33-14.48-2.04-18.6 2.97-1.14 1.39-1.59 3.2-2.26 4.86-2.78 6.81-9.43 11.05-14.71 16.16-8.35 8.09-13.7 19.2-14.8 30.77-.61 6.34.1 10.85-2.76 16.86-2.37 4.97-5.68 9.43-9 13.8-2.73 3.59-5.65 7.23-8.22 11.05-3.47 5.16-6.32 10.67-7.23 16.91-.62 4.2-.3 8.48.03 12.71.39 5.07 1.16 10.27 1.22 15.35.04 4.3-.57 7.99 1.83 11.93 3.42-12.02 14.53-21.47 26.95-22.9 4.25-.49 8.97-.25 12.29-2.96 1.23-1 2.15-2.33 3.29-3.44 3.96-3.83 10.06-4.47 15.53-3.74 7.36.98 14.33 3.98 21.68 4.95 3.85.51 7.77.45 11.58 1.21 10.86 2.16 20.19 10.79 31.25 10.43 6.06-.2 11.18-3.17 16.88-4.61 6.05-1.53 11.46-.94 17.09-4.44 2.53-1.57 5-3.63 7.98-3.74 2.48-.09 4.85 1.21 7.33 1.12 5.24-.19 8.62-6.29 13.82-7 .58 9.56 8.78 18.08 18.31 19.02 1.01.1 2.08.14 2.95.68 1.07.67 1.58 1.94 2.4 2.89 1.42 1.66 3.79 2.35 5.03 4.16.7 1.02.96 2.29 1.67 3.3 2.23 3.22 7.52 2.07 10.21-.78 2.69-2.85 3.93-6.78 6.41-9.81 3.81-4.65 9.92-6.55 15.42-8.99 1.78-.79 3.58-1.7 4.83-3.2.76-.91 1.3-2.02 2.19-2.8 2.01-1.75 5.12-1.34 7.5-2.54 4.65-2.35 5.76-10.32 10.97-10.36.78-.01 1.56.2 2.35.16 2.81-.14 4.5-3.1 5.65-5.67 1.07 7.9-3.8 16.22-11.21 19.15-2.12.84-4.73 1.59-5.37 3.78-.48 1.65.44 3.37.42 5.09-.02 1.94-1.24 3.64-2.4 5.2-6.16 8.24-13.46 17.15-23.67 18.39-3.01.36-6.18.04-8.94 1.29-1.75.79-3.15 2.16-4.62 3.39-4.32 3.65-9.93 6.48-15.47 5.39-5.11-1-8.97-5.01-13.03-8.26-3.2-2.56-6.7-4.74-10.18-6.9-3.52-2.18-7.03-4.37-10.55-6.56-1.77-1.1-3.56-2.21-5.54-2.86-4.84-1.58-10.1-.23-15 1.13-5.51 0-12.74 3.51-18.08 5-4.69 1.31-8.74 5.43-13.56 5.87-1.79.16-3.57-.3-5.36-.42-2.7-.18-5.38.43-8.08.6-10.9.71-20.92-5.47-30.08-11.41l-13.86-9c-4.21-2.73-8.8-5.57-13.81-5.33-4.43.22-8.39 2.84-11.65 5.85s-6.1 6.5-9.69 9.11c-2.33 1.7-5.08 3.02-7.97 2.96-6.21-.13-9.54 1.32-14.77 5.09-1.77 1.28-3.56 2.8-4.17 4.9-.34 1.17-.29 2.41-.44 3.61-.21 1.67-.82 3.27-1.31 4.88-1.77 5.74-2.44 11.64-.3 17.28 2.09 5.52 5.73 10.31 8.55 15.5 4.15 7.65 7.83 16.47 6.69 25.23-1.15 8.81-5.11 17.17-10.61 24.09-2.55 3.21-5.54 6.35-6.48 10.34-.57 2.41-.34 4.95.15 7.38.96 4.8 3.59 9.39 4.27 14.2.57 4.02-.08 8.9-.91 12.86-1.81 8.66-5.87 16.7-8.2 25.3 5.41-1.08 7.31-7.6 10.46-12.12 2.37-3.41 5.8-5.93 9.38-8.04 8.55-5.05 18.3-8.02 28.19-8.79 4.8-.37 9.36-.04 14.08.65 4.7.69 9.38-.04 14.18-.49 4.45-.42 9-.83 13.34.23 5.28 1.29 9.94 4.67 15.31 5.49 8.74 1.33 18.33-4.22 26.11-.03 5.01 2.69 7.19 8.26 11.21 12 2.2 2.05 4.07 2.27 6.69 3.28 3.63 1.39 6.95 3.73 10.59 5.19 7.97 3.2 20.88 6.23 27.71-.35 6.61-6.36 8.64-15.5 14.36-22.48 3.58-4.37 8.49-7.42 12.68-11.22 10.87-9.88 18.28-24.93 17.89-39.63-.21-7.98-.43-15.96-.64-23.94-.1-3.91-.15-8.05 1.84-11.41 1.83-3.07 5.08-4.99 8.29-6.56 5.55-2.71 11.41-4.8 17.42-6.2 1.84-.43 3.9-.76 5.52.2 5.01 2.99 5.08 3.1 10 .02 4.75-2.97 9.99-5.35 14.92-8 4.81-2.58 9.82-5.34 12.8-9.91 3.47-5.33 3.65-12.35 7.4-17.49 3.55-4.87 10.24-7.2 16.04-5.6 3.47.96 7.52 1.15 10.97-.31 3.91-1.67 3.94-5.86 6.06-9.21 2.19-3.47 6.34-5.22 10.39-5.96 4.04-.74 8.21-.69 12.21-1.62 8.98-2.09 16.26-8.87 25.16-11.26-7.62 8.69-18.68 14.28-30.2 15.25-3.23.27-6.87.36-9.09 2.73-2.11 2.26-2.05 5.57-3.77 8-1.54 2.17-4.16 2.97-6.46 4.21-5.57 3.01-11.68 4.54-17.78 1.92-2.23-.96-4.87-2.33-6.87-.96-.52.35-.91.86-1.28 1.36-5.3 7.32-6.81 17.24-3.92 25.8 4.06-1.14 7.46-3.88 10.69-6.59 3.23-2.71 6.54-5.52 10.53-6.88 4-1.36 8.91-.91 11.74 2.22 3.7 4.1 2.81 11.35 7.28 14.58 5.26 3.81 9.98-1.06 14.49-3.54 5.09-2.81 13.26-5.5 17.34-9.58 1.36-.75 2.72-1.5 4.09-2.26 9.04-4.99 18.08-9.99 27.12-14.98 4.96-2.74 9.94-5.49 15.18-7.65 3.88-1.6 8.88-2.67 11.84.3-3.61 3.04-8.91 2.5-13.51 3.53-8.65 1.94-14.77 9.46-22.4 13.96-3.63 2.14-7.62 3.6-11.45 5.39a72.52 72.52 0 0 0-16.58 10.72c-5.28 4.53-7.72 9.01-11.36 14.71-.79 1.24-1.71 2.41-2.86 3.32-4.65 3.67-11.93 1.84-15.97-2.5-4.04-4.33-5.56-10.4-6.56-16.23-.54-3.15-1.36-6.85-4.31-8.09-2.54-1.07-5.39.26-7.82 1.56-3.19 1.71-6.48 3.5-8.74 6.33-1.14 1.42-1.98 3.07-3.16 4.45-3.93 4.61-10.72 5.43-16.76 5.06-2.75-.16-5.66-.48-8.15.73-2.64 1.28-4.22 3.99-6.34 6.02-5.18 4.95-10.89 3.05-17.07 4.01-7.73 1.21-15.46 3.28-23.13 4.86-2.3.47-4.67.98-6.58 2.35-4.14 2.98-4.66 8.83-4.81 13.93-.05 1.89-.11 3.79-.16 5.68-.06 2.26-.13 4.54.26 6.76.5 2.89 1.73 5.6 2.41 8.45 2.03 8.48-1.61 16.1-6.05 23.02-2.67 4.16-3.42 9.45-6.68 13.17-3.19 3.64-8.61 5.62-9.95 10.27-.42 1.45-.36 3.02-.84 4.45-1.51 4.56-7.33 5.83-10.76 9.19-3.44 3.38-4.22 8.63-6.96 12.6-3.97 5.75-13.43 8.85-20.14 9-8.97.21-17.76-2.7-25.73-6.61-8.5-4.17-16.34-9.53-24.57-14.21-3.11-1.77-6.35-3.46-9.88-4-5.34-.81-10.69 1.12-16.08 1.51-6.16.44-12.44-1.22-17.58-4.64-1.26-.84-2.5-1.8-3.98-2.11-2.3-.49-4.57.67-6.75 1.55-7.69 3.12-16.24 2.96-24.52 3.45-8.28.49-17.05 1.91-23.29 7.38-7.95 6.97-9.91 18.83-17.38 26.31-.62.62-1.29 1.24-1.55 2.07-1.1 3.51 4.25 6.77 4.02 10.63-.24 3.99-3.82 7.22-6.8 9.43-2.47 1.82-5.25 3.22-7.56 5.24-5.84 5.09-5.25 12.19-14.47 12.2-4.98 0-9.96.01-14.94.01-.72 0-1.55-.05-1.98-.62-1.22-1.62 4.23-20.56 5.1-22.92 1.15-3.14 2.42-5.86 3.07-9.26 1.34-6.95 1.48-14.09 2.93-21.02 3.77-18.01 11.01-35.96 11.34-54.57.16-9.43-1.94-18.73-4.04-27.93-1.14-4.99-2.27-9.98-3.41-14.97-1.78-7.83 1.87-12.67 2.42-20.21.29-3.96-.6-7.89-1.2-11.81-1.1-7.24-1.18-14.59-1.26-21.91-.09-7.91-.17-15.88 1.36-23.63 1.46-7.37 4.54-13.22 8.95-19.18 4.27-5.77 2.13-13 1.56-19.82-.61-7.36.32-14.75 1.26-22.08.71-5.55 1.58-11.47 5.31-15.64 1.83-2.05 4.32-3.63 5.47-6.13 1.16-2.52.72-5.46.2-8.19-1.8-9.47-4.72-18.2-7.86-27.16-2.78-7.94.46-18.62 4.56-25.62 3.75-6.41 9.19-11.63 14.55-16.76 5.38-5.15 11.2-9.57 16.62-14.61 5.64-5.25 10.18-12.44 14.8-18.58 4.79-6.36 7.51-14.34 13.84-19.48 6.25-5.09 14.8-6.21 21.91-10.01 7.04-3.77 12.41-10.02 17.1-16.49 7.55-10.43 9.05-23.59 16.27-34.15 2.11-3.09 4.86-5.67 7.45-8.36 2.66-2.75 5.92-5.56 8.27-8.55 2.47-3.15 3.39-7.69 5.07-11.31 3.94-8.46 9-16.33 14.08-24.13 3.74-5.73 7.51-11.46 11.87-16.73 2.77-3.35 5.78-6.53 8.01-10.25 2.03-3.38 3.37-7.14 5.45-10.49 2.11-3.41 4.64-6.13 6.63-9.59 1.91-3.31 4.64-6.14 7.41-8.74 5.55-5.22 11.94-9.56 16.76-15.53 2.76-3.42 4.92-7.29 7.69-10.7 7.26-8.95 18.48-14.49 24.14-24.53 1.85-3.29 3.02-6.92 4.82-10.24 3.36-6.19 10.36-11.18 10.19-18.87-.03-1.41-.3-2.83-.12-4.23.48-3.64 3.84-6.2 5.13-9.64 1.79-4.81-.93-10.28-4.84-13.6s-8.85-5.12-13.37-7.55c-3.55-1.91-7.25-4.9-7.2-8.93.05-3.7 3.32-6.79 3.32-10.49 0-1.49-.54-2.91-1.07-4.3-1.61-4.23-3.22-8.45-4.83-12.68-2.91-7.63.26-15.89-2.46-23.84-1.32-3.87-3.62-7.31-5.69-10.83-5.06-8.6-8.94-18.3-8.49-28.27.55-12.11 7.33-22.94 13.89-33.14 4.34-6.74 10.11-13.63 13.46-20.89 4.17-9.03 6.02-22.84 6.58-32.75 13.34-1.53 26.89 1.21 40.23-.3-2.6.3-8.66 9.08-9.98 11.14-1.28 2-2.21 4.22-3.65 6.11-2.23 2.94-5.5 4.88-8.31 7.27-9.82 8.36-11.47 22.41-18.67 32.86-1.96 2.85-4.07 5.65-5.41 8.85-1.26 3-1.8 6.26-3.02 9.27a21.916 21.916 0 0 1-6.87 9.03c-1.91 1.47-4.09 2.65-5.61 4.51-1.42 1.73-2.14 3.93-2.57 6.13-1.48 7.66.56 15.92 5.43 22.01 2.66 3.33 6.18 6.15 7.61 10.16 1.15 3.24.76 6.8 1.06 10.23.67 7.53 5.01 12.15 8.95 18.12 8.49 12.87 11.47 29.05 21.37 40.88 14.9-11.87 30.09-28.2 36.82-45.95z" id="chandigar_sections_svg__Active_floodplain"/>
    <g id="chandigar_sections_svg__rivers">
        <path class="chandigar_sections_svg__st4" d="M502.27 567.88c-2.16.61-4.29 1.36-6.49 1.85-2.35.53-4.78.76-7.19.68-2.83-.08-5.64-.59-8.4-1.24-1.6-.38-3.2-.82-4.64-1.61-1.45-.79-2.68-1.9-3.97-2.93-7.75-6.17-23.97-8.48-33.26-5.17-1.43.51-2.83 1.17-4.32 1.45-2.37.44-4.81-.1-7.21.13-2.2.21-4.33 1.07-6.54.99-2.32-.08-4.46-1.18-6.68-1.88-8.94-2.81-14.15 2.79-22.11 4.78-7.86 1.97-17.28-1.35-23.84 4.9M502.81 553.62c-.96 1.29-2.89 1.43-4.43.95-1.54-.47-2.9-1.41-4.44-1.9-3.93-1.24-8.58.59-12.14-1.49-.77-.45-1.44-1.06-2.27-1.39-1.05-.42-2.22-.33-3.34-.31-4.65.09-9.32-1.11-13.36-3.43-1.51-.87-2.98-1.9-4.68-2.24-4.03-.81-7.8 2.44-11.9 2.62-3.46.15-6.77-1.9-10.22-1.54-2.44.26-4.58 1.7-6.91 2.46-3.99 1.3-8.31.58-12.49.28-4.19-.3-8.8-.01-11.91 2.8M631.49 506.97c-1.62.99-3.18 2.07-4.74 3.15-.3.21-.6.42-.9.62-3.55 2.46-7.71 5.05-11.9 3.96-1.71-.44-3.32-1.5-5.08-1.36s-3.3 2.55-1.91 3.63c-3.73 2.37-8.94-1.53-12.96.3-1.49.68-2.59 2.07-4.12 2.62-1.24.45-2.61.28-3.92.11l-10.51-1.35c-1.17-.15-2.56-.48-2.93-1.59-.31-.94.29-1.9.64-2.82 1.48-3.88-2.71-8.58-6.74-7.57-1.24.31-2.87.9-3.55-.19-.42-.67-.09-1.57-.31-2.32-.57-1.98-3.55-1.26-5.28-.14-.17-1.64-.36-3.32-1.14-4.77-.79-1.44-2.35-2.6-3.98-2.4-3.93.47-4.43 7.4-8.37 7.71-.58-1.69-.2-3.57-.59-5.31-.39-1.74-2.25-3.46-3.81-2.59-2.64 1.47.48 6.73-2.15 8.21-4.29-2.06-8.59-4.12-12.88-6.18-.82-.39-1.79-1.1-1.52-1.97.18-.6.9-.91 1.09-1.51.43-1.36-1.79-1.7-3.2-1.49-1.97.3-4.01.1-5.88-.59-4.09-1.49-7.68-5.24-11.98-4.59-7.01 1.05-8.36 12.4-15.31 13.81-3.75.76-7.24-1.82-10.63-3.6-5.89-3.1-12.92-3.98-19.4-2.43-5.53-.49-5.55 1.19-10.17 4.27"/>
        <path class="chandigar_sections_svg__st4" d="M554.41 431.51c-2.46 1.21-2.56 4.65-2.05 7.34.51 2.69 1.16 5.85-.69 7.86-1.23 1.34-3.16 1.69-4.9 2.21-7.67 2.29-13.94 9.22-21.94 9.14-.82-.01-1.7-.08-2.42.3-1.34.71-1.51 2.57-1.19 4.05.31 1.48.93 2.99.55 4.45-.44 1.7-2.18 2.81-3.92 3.06s-3.5-.18-5.2-.6c.1 2.25-.48 5.31-2.74 5.39-2.64.09-3.6-4.27-6.23-4.41-.84-.04-1.61-.54-2.43-.36-.35 3.25 1.6 6.22 3.02 9.17.4.83.77 1.7.89 2.61.34 2.49-1.14 4.83-2.56 6.9M688.74 507.73c-2.29.48-3.83 3.18-3.08 5.4-1.92-.24-3.81 1.58-3.66 3.51.08 1 .61 1.92.77 2.91.12.75.02 1.52-.07 2.27l-.84 6.54c-.13.97-.26 1.96-.67 2.85-.26.56-.62 1.06-1 1.54-1.68 2.1-4.03 3.86-6.71 4.04-2.53.17-5.48-.95-7.35.75-1.4 1.26-1.42 3.54-2.74 4.88-1.03 1.04-2.59 1.28-3.92 1.88-3.03 1.37-4.85 4.97-4.17 8.22.27 1.29.89 2.51.98 3.82.09 1.32-.59 2.85-1.89 3.07-.72.12-1.43-.19-2.09-.5-1.75-.8-8.04-4.44-8.99-.77-.37 1.44 1.05 2.77 1.11 4.26.07 1.81-1.91 3.07-3.71 3.24-1.81.17-3.63-.34-5.43-.13-3.32.37-6.11 3.46-6.16 6.8-.03 2.02.54 4.65-1.26 5.57-.71.36-1.57.27-2.36.16-3.12-.42-6.23-.83-9.35-1.25-3.2-.43-6.79-.76-9.34 1.23-.81.63-1.45 1.46-2.14 2.21-7.28 7.9-20.77 3.3-27.72 11.25-.87 3.15 3.61 6.96 1.22 9.18-.92.86-2.57.92-3.05 2.08-.55 1.36 1.03 2.56 1.56 3.93.62 1.59-.26 3.32-.82 4.94-.56 1.61-.58 3.83.96 4.57-1.45 3.51-5.78 4.62-9.52 5.28-5.58.99-11.45 1.96-16.81.11-1.36-.47-2.73-1.13-4.16-1-2.13.18-4.05 2.05-6.12 1.54-.95-.23-1.7-.93-2.54-1.42-3.38-1.94-7.67-.31-11.52-.94-2.45-.4-4.65-1.72-7.07-2.27-2.52-.57-5.15-.29-7.73-.43-5.34-.29-10.39-2.37-15.33-4.42-4.45-1.85-8.96-2.42-13.22-4.65-4.96-2.6-9.43-6.13-13.13-10.34-3.6-4.1-6.63-8.96-11.42-11.58-4.53-2.47-9.94-2.54-15.1-2.55-3.94-.01-7.88-.01-11.81-.02-1.94 0-3.88-.01-5.81.22-1.35.16-2.71.44-4.07.32-2.15-.19-4.15-1.34-6.31-1.35-1.35-.01-2.65.44-3.98.67-2.82.49-5.74 0-8.44-.96-2.31-.82-4.49-1.98-6.78-2.86-6.8-2.63-14.56-2.71-21.41-.23-6.39 2.31-12.61 1.27-19.4 1.71"/>
        <path class="chandigar_sections_svg__st5" d="M317.4 962.2c1.44-4.73 2.87-9.46 4.31-14.19.67-2.21 1.35-4.47 1.32-6.78-.03-2.62-.98-5.2-.83-7.82.35-6.15 6.44-10.51 7.87-16.5.89-3.73-.13-7.7.63-11.46.63-3.1 2.42-5.86 3.2-8.93 1.33-5.21-.35-10.89 1.3-16 2.03-6.27 8.85-11.06 8.17-17.62-.73-7.06.93-12.1.81-19.19-.02-1.43-.01-2.89.47-4.23.57-1.59 1.75-2.91 2.32-4.5.85-2.36.26-5.04 1.03-7.43.56-1.75 1.81-3.2 2.43-4.93.74-2.07.51-4.35.27-6.54-.24-2.14-.48-4.33-1.41-6.27-2.58-5.4-7.92-7.35-13.06-9.45-1.12-.46-2.26-.93-3.17-1.72-1.02-.88-1.68-2.1-2.32-3.28-1.68-3.11-3.37-6.23-4.8-9.47-2.4-5.45-4.07-11.27-4.39-17.22-.49-9.24 2.42-18.63 8.04-25.98 2.03-2.65 4.5-5.3 4.74-8.63.12-1.64-.35-3.27-.34-4.92.01-3.13 1.67-5.97 2.7-8.93 2.18-6.3.84-13.16-.39-19.51-1.35-6.99 1.49-12.02 7.21-16.26 1.24-.91 2.65-1.98 2.72-3.52.05-.97-.47-1.86-.84-2.75-1.55-3.7-.81-8.09.44-11.77 1.03-3.05 3.7-6.26 3.16-9.61-.15-.89-.55-1.74-.55-2.65-.01-1.58 1.17-2.9 2.3-4.01 1.89-1.87 3.87-3.72 5.04-6.1 1.17-2.38 1.34-5.46-.33-7.53-.98-1.22-2.45-1.92-3.64-2.93-1.19-1.01-2.15-2.65-1.56-4.1.25-.6.73-1.08 1.05-1.65.99-1.79.16-4.06-1.08-5.68s-2.9-2.94-3.85-4.74c-.99-1.88-1.12-4.11-.98-6.23.28-4.12 1.47-8.11 2.66-12.06l3.45-11.48c.63-2.11 1.33-4.33 2.95-5.83 2.26-2.1 5.72-2.25 8.37-3.83 2.28-1.37 3.8-3.68 5.24-5.92 3.53-5.5 7.04-13.57 14.82-13.4 2.02.04 4.25.64 5.91-.52 1.36-.95 1.9-2.84 3.37-3.6.75-.39 1.62-.42 2.46-.51 4.01-.45 7.79-2.65 10.16-5.91 1.85-2.55 2.96-5.79 5.6-7.53 1.24-.81 2.76-1.24 3.77-2.32.6-.64.97-1.45 1.4-2.2 2.69-4.67 7.85-7.22 12.73-9.52-.83-1.3-.26-3.08.76-4.23 1.02-1.15 2.42-1.9 3.57-2.92 4.07-3.58 4.77-9.99 8.98-13.4 1.08-.87 2.33-1.5 3.45-2.32 4.28-3.15 5.93-8.67 7.37-13.79 2.84-10.13 2.22-24.64 12.64-30.74 2.41-1.41 5.27-2.14 7.23-4.12 2.5-2.53 2.93-6.47 4.96-9.4 2.13-3.06 5.86-4.79 7.7-8.03 1.75-3.1 1.54-7.2 3.96-9.81 1.61-1.73 4.27-2.68 4.87-4.97.42-1.62-.41-3.33-.16-4.99.48-3.15 4.33-4.44 6.17-7.05 1.4-1.98 1.56-4.67 3.11-6.53 1.82-2.18 5.03-2.63 7.2-4.47 3.98-3.36 1.92-9.05 5.61-12.49 1.94-1.81 4.81-2.72 6.04-5.08.73-1.4.72-3.1 1.43-4.51 1.62-3.25 6.06-3.74 8.79-6.14 2.94-2.59 2.99-6.4 7.05-8.38 2.49-1.22 5.52-1.6 7.35-3.68.98-1.1 1.47-2.54 2.26-3.78 3.45-5.44 11.57-6.04 15.54-11.12 1.61-2.06 2.36-4.66 3.79-6.86 1.52-2.35 3.75-4.13 5.72-6.12 3.95-4 6.88-8.87 9.76-13.69.96-1.61 1.93-3.21 2.89-4.82 3.82-6.38 5.13-14.38 12.39-17.99 1.58-.79 3.34-1.35 4.58-2.61 1.26-1.28 1.81-3.11 2.97-4.49 2.68-3.18 7.7-3.06 11.01-5.57 4.94-3.75 4.83-12.28 10.4-15.01 2.62-1.29 5.79-.83 8.53-1.85 2.92-1.08 6.25-3.72 8.63-1.72 5.5-.09 10.3-1.18 13.51-5.65 1.92-2.67 2.67-6.67 5.8-7.68 1.92-.62 3.97.22 5.91.77 9.16 2.57 19.69-1.29 28.1 3.15 3.91 2.07 7.06 5.83 11.43 6.52 4.25.67 8.49-1.78 12.77-1.32 1.06.12 2.11.41 3.17.36 2.92-.15 5-2.76 7.35-4.5 3.42-2.54 7.78-3.37 11.97-4.13 4.82-.88 8.65-.47 13.32-.14 4.87.34 9.64-1.84 14.36-2.63 14.09-2.38 14.16 14.22 27.21 18.05 6.38 1.87 13.16 2.45 19.19 5.24 7.96 3.67 14.88 11.16 23.63 10.56 3.79-.26 7.3-2.07 11.04-2.76 10.48-1.93 20.46 5.1 31.04 6.36 4.4.52 8.85.03 13.27.27 4.9.26 9.7 1.4 14.47 2.54 10.38 2.48 20.76 4.95 31.13 7.43"/>
        <path class="chandigar_sections_svg__st5" d="M646.38 262.55c2.16-2.91-.05-7.29 1.45-10.58.6-1.32 1.8-2.51 1.6-3.94-.15-1.02-.98-1.79-1.56-2.65-.92-1.37-.22-1.91.22-3.49-1.74-1.88-3.62-4.21-3.07-6.72.36-1.67 1.77-3 2.02-4.69.39-2.61-2.01-4.75-2.81-7.27-1.09-3.46 1.08-7.24 4.04-9.34 2.96-2.1 6.58-2.99 9.98-4.24 3.41-1.25 6.88-3.07 8.6-6.27.67-1.23 1.05-2.64 1.95-3.71 1.85-2.2 5.11-2.32 7.88-3.09 5.33-1.49 9.33-5.81 12.93-10.02 2.22-2.6 4.41-5.26 5.94-8.31 1.32-2.65 2.16-5.61 4.09-7.85 1.19-1.37 2.74-2.41 3.86-3.84s1.73-3.52.75-5.05c3.57-4.59-1.45-9.11-1.45-14.93 0-6.21 3.08-11.99 4.15-18.11 1.69-9.64-1.47-20.39 3.48-28.83M599.09 293.28c3.15-3.87-2.52-9.79-.61-14.4.43-1.04 1.24-1.93 1.51-3.02.58-2.36-1.48-4.61-1.49-7.04-.01-2.85 2.74-5.04 3.14-7.86.43-2.99-1.85-5.67-2.45-8.64-.45-2.25.08-4.59-.27-6.86-.45-2.89-2.44-5.48-5.1-6.68-.99-.44-2.09-.72-2.86-1.48-.89-.88-1.15-2.21-1.85-3.24-1.84-2.7-6.2-2.82-7.83-5.65-.75-1.3-.74-2.89-.7-4.39.11-4.42.21-8.84.32-13.25.03-1.3.05-2.65-.45-3.85-1.55-3.69-7.2-4.32-8.57-8.08-1.06-2.9 1.01-5.9 1.97-8.83 1.3-3.96.44-8.56-2.2-11.8-2.37-.83-2.98-2.32-3.57-4.76-.59-2.44-.7-5.03-1.74-7.31-.86-1.9-2.33-3.51-2.88-5.52-.45-1.63-.25-3.35-.37-5.03-.36-4.98-3.49-9.72-2.61-14.63.9-5.05 5.65-8.35 8.6-12.55 1.18-1.67 2.08-3.52 2.98-5.36 2.19-4.48 4.38-8.96 6.58-13.44.59-1.22 1.19-2.43 1.78-3.65 1.09-2.24 2.19-4.48 3.53-6.58.95-1.49 2.02-2.9 3.23-4.17 5-5.27 13.97-16 9.46-23.7-.75-1.27-1.85-2.35-2.33-3.75-1.7-4.9 4.84-8.91 5.5-14.06"/>
        <path class="chandigar_sections_svg__st4" d="M748.46 526.27l-15.1 15.49c-1.32 1.36-2.73 2.89-2.81 4.78-3.01.06-6.03.11-9.04.17-.31 3.26-1.98 6.37-4.52 8.43-2.88.12-5.76.25-8.64.37.58 6.59-6.68 11.48-7.48 18.04-.19 1.53 0 3.08-.01 4.63-.02 6.24-3.78 12.71-9.77 14.47-3.3.97-6.92.48-10.15 1.66-3.23 1.17-5.84 5.38-3.61 7.99.65.76 1.63 1.28 2.01 2.2.41 1-.02 2.13-.51 3.1-1.76 3.46-4.34 6.5-7.48 8.79 2.38 1 2.33 4.66.62 6.59-1.71 1.93-4.33 2.7-6.68 3.77-2.35 1.06-4.76 2.85-5.01 5.42-2.13.72-3.92 2.36-4.84 4.41 2.22 1.26 3.43 4.09 2.8 6.57-2.52.89-5.04 1.78-7.57 2.67-1.01.35-2.14.71-3.11.27-1.25-.56-1.64-2.12-2.51-3.18-1.81-2.18-5.32-1.78-7.86-.53-7.64 3.75-12.99 15.29-13.22 23.39-.19 6.48-.35 13.13 1.82 19.24 1.21 3.41 3.15 6.75 2.96 10.36-.28 5.22-4.82 9.07-9.02 12.19a827.53 827.53 0 0 1-11.8 8.62c-6.14 4.39-12.74 9.23-14.93 16.45-.69 2.28-1.02 4.91-2.86 6.44-1.36 1.12-3.22 1.35-4.93 1.8-6.75 1.8-11.92 7.69-18.76 9.09-3.9.8-7.96.03-11.74-1.2a48.767 48.767 0 0 1-22.29-15.13c-1.22-1.48-2.39-3.05-3.95-4.16-2.76-1.97-6.35-2.22-9.74-2.41-3.03-.17-6.05-.33-9.08-.5-5.33-.29-9.01 3-14.34 3.3-2.03.12-4.03-.48-6.05-.7-8.83-.99-17.02 5.03-25.89 5.61-5.42.35-10.74-1.34-15.91-3.02-4.21-1.37-8.42-2.73-12.64-4.1-8.9-2.89-17.8-5.77-26.71-8.65-5.27-1.7-11.11-3.38-16.18-1.16-2.51 1.1-4.52 3.05-6.73 4.67-4.41 3.24-9.73 5.23-15.18 5.66-1.37.11-2.78.13-4.08.58-1.15.4-2.15 1.12-3.12 1.86a60.868 60.868 0 0 0-13.12 13.78c-1.43 2.08-2.76 4.27-4.57 6.02-6.16 5.94-16.53 5.62-22.62 11.63-.68.67-.63 2.38.22 1.95"/>
        <path class="chandigar_sections_svg__st4" d="M769.88 553c-3.89.19-6.58 3.74-9.39 6.44a26.97 26.97 0 0 1-9.69 5.98c-1.56.55-3.27 1.02-4.29 2.32-2.54-.62-5.32 1.3-5.95 3.84-.17.68-.21 1.43-.63 1.99-.92 1.24-2.85.77-4.35 1.15-2.47.63-3.8 3.67-6.31 4.12-1.93.34-3.91-1.03-5.81-.54-.88.22-1.63.82-2.51 1.07-3.44.99-6.71-3.63-10.11-2.51-.73.24-1.36.73-2.09.97-1.27.41-2.64.01-3.97-.1s-2.94.28-3.39 1.54M807.61 585.01c-3.4 1-7.1 2.24-8.91 5.28-.57.97-.92 2.07-1.64 2.94-1.63 1.99-4.54 2.14-7.09 2.48-2.55.34-5.53 1.53-5.9 4.07-.14.99.16 2.06-.22 2.99-1.24 3.01-6.84.47-8.71 3.14-1.23 1.76.29 4.12.28 6.27-.03 5.54-9.84 7.97-8.49 13.34.7 2.76 4.37 4.68 3.64 7.44-.34 1.26-1.57 2.15-1.82 3.43-.27 1.38.68 2.72.69 4.12.02 1.99-1.9 3.58-3.87 3.88-1.97.31-3.95-.33-5.85-.96 1.63 2 1.16 5.35-.96 6.82-1.16.8-2.66 1.08-3.64 2.09-1.37 1.41-1.21 3.66-1.02 5.62.68 7.12.41 14.3.15 21.45-.11 3.01-1.25 5.6-1.04 8.49.2 2.83-2.7 5.05-2.94 7.88-.2 2.39 1.51 4.46 2.88 6.43s2.49 4.67 1.15 6.66c-1.07 1.6-3.29 1.97-5.2 1.75-1.91-.22-3.78-.89-5.71-.81-2.96.13-5.51 2.01-7.94 3.71-10.11 7.07-21.82 14.69-34.18 16.89-5.1.91-11.13 1.55-13.73 6.03-.88 1.51-1.22 3.29-2.07 4.82-2.64 4.72-9.05 5.51-14.45 5.24-5.4-.27-11.44-.85-15.61 2.59-4.62 3.81-4.77 10.69-6.9 16.28-3 7.87-8.04 10.54-15.07 13.55-6.93 2.97-11.98 9.3-19.48 11.17-6.78 1.7-14-.7-20.9.43-6.26 1.02-11.91 5.07-15.08 10.56a21.97 21.97 0 0 0-1.76 3.89c-5.36 16.04 5.8 32.93-1.91 48.79-3.46 7.12-8.97 13-14.39 18.77l-11.41 12.13c-4.44 4.72-8.98 9.6-11.33 15.63-1.72 4.4-2.8 9.97-7.22 11.62-1.52.57-3.18.53-4.8.49-6.76-.18-13.59-.37-20.15-1.98-18.49-4.55-33.16-19.89-51.92-23.16-9.03-1.57-18.7-.27-27.06-4.02-11.4.73-20.78 2.05-32.19 2.78-9.17.59-18.56 1.23-26.93 5.01-15.32 6.92-22.73 23.3-38.38 29.85"/>
        <path class="chandigar_sections_svg__st4" d="M921.14 600.81l-13.44-.87c-1.52-.1-3.1-.19-4.51.37-1.39.55-2.48 1.68-3.85 2.28-2.78 1.22-6.09 0-8.41-1.96-2.32-1.96-3.98-4.57-6.08-6.76-4.19-4.39-10.26-7.01-16.32-6.73-6.06.28-11.98 3.57-15.14 8.75-.71 1.15-1.28 2.4-2.18 3.41-1.46 1.67-3.59 2.54-5.55 3.59-8.08 4.34-13.13 12.24-15.17 20.99-1.98 8.51-1.55 19.11-9.31 24.91-1.35 1.01-2.99 1.91-3.49 3.52-.39 1.23.01 2.58-.14 3.86-.23 1.97-1.69 3.53-3.01 5.02-3.41 3.86-6.31 8.31-7.56 13.31s-.68 10.6 2.33 14.79c.78 1.08 1.73 2.11 2.07 3.4.81 3.07-2.05 5.72-4.28 7.98-9.96 10.07-11.78 26.2-21.87 36.14-1.17 1.15-2.46 2.22-4 2.79-2.11.78-4.44.56-6.65.96-2.42.44-4.62 1.62-6.79 2.78-13.86 7.43-27.73 14.86-41.59 22.3-4.9 2.63-10.01 5.44-13.09 10.07-1.3 1.95-2.21 4.18-3.86 5.84-3.37 3.4-9.12 3.42-13.35 1.19-4.24-2.23-7.24-6.23-9.75-10.3-2.17-3.52-4.43-7.49-8.36-8.78-3.67-1.21-7.71.37-10.86 2.61-3.15 2.24-5.8 5.16-9.11 7.17-5.7 3.46-13.17 3.8-19.16.87M846.33 513.87c-4.12-.77-8.24-1.53-12.36-2.3-2.16-.4-4.44-.87-6.03-2.38-2.22-2.11-2.48-5.68-4.6-7.88-.81-.84-1.86-1.46-2.44-2.47-.53-.93-.58-2.04-.7-3.1-.53-4.63-2.63-8.91-4.69-13.09-2.22-4.49-4.88-9.38-9.6-11.05-1.48-.52-3.11-.71-4.39-1.6-1.22-.85-1.95-2.22-2.92-3.35-2.8-3.22-7.42-4.14-10.8-6.73-5.17-3.96-7.02-11.42-12.65-14.68-4.91-2.84-11.04-1.6-16.7-2-5.66-.4-12.28-4.4-11.24-9.98-1.94.03-3.16-2.27-2.99-4.21s1.19-3.69 1.63-5.58c1.48-6.32-3.67-12.47-3.42-18.95.06-1.54.43-3.09.14-4.61-.67-3.58-4.8-6.28-4.16-9.87.25-1.42 1.24-2.58 1.95-3.84 2.7-4.73 1.55-10.63.33-15.95-1.87-8.1-3.73-16.2-5.6-24.29-.39-1.7-.85-3.52-2.14-4.7-.69-.63-1.62-1.09-1.96-1.96-.58-1.5.95-2.93 1.37-4.48.93-3.39-3.33-5.79-4.66-9.04-1.21-2.95.15-6.3-.14-9.47-.26-2.74-1.73-5.18-3.17-7.53-2.3-3.74-4.64-7.54-7.94-10.42-3.3-2.89-7.76-4.78-12.07-3.99-1.93.36 2.05-8.26 2.11-8.5 1-3.6 1.08-7.66-1.8-10.55-1.51-1.52-3.38-2.85-4.1-4.86-.63-1.77-.24-3.73.03-5.59.57-3.93.05-8.81-3.53-10.53M830.31 424.22c-.57-1.06-1.13-2.12-1.7-3.19-3.61-.81-6.68-3.11-9.63-5.36-2.22-1.69-4.44-3.38-6.67-5.07-4.95-3.76-9.89-7.52-14.84-11.29-1.3-.99-2.68-2.09-3.14-3.66-.38-1.3-.11-2.86-1-3.89-.9-1.04-2.57-1-3.62-1.89-1.11-.94-1.2-2.59-1.26-4.04-.4-10.12-3.33-20.13-8.44-28.88-1.27-2.18-2.67-4.27-4.08-6.36-3.2-4.76-6.41-9.51-9.64-14.25-4.48-6.58-9.08-13.32-11.02-21.05-.46-1.81-.78-3.71-1.79-5.29-1.74-2.72-5.27-4.05-6.65-6.98-1.74-3.69.68-8.29-.84-12.07-1.51-3.77-6.08-5.07-9.24-7.62-4.18-3.38-4.36-8.65-6.61-13.16-2.52-5.05-6.58-9.23-11.8-11.51M693.43 416.14c1.84-1.83-.77-4.63-2.95-6.04-7.93-5.16-13.76-13.44-15.94-22.65-1.04-4.37-1.79-9.65-5.84-11.61-2.76-1.33-6.26-.57-8.85-2.2-2.31-1.45-3.21-4.35-5.03-6.38-1.37-1.53-3.24-2.52-5.04-3.51-6.29-3.45-16.92-7.72-21.09-13.62-1.65-2.34-3.38-5.01-6.17-5.68-1.44-.35-3.36-.33-3.86-1.73-.23-.64-.03-1.35-.11-2.02-.21-1.76-2.11-2.7-3.57-3.71-5.41-3.74-6.67-11.52-11.84-15.58-3.73-2.93-8.95-3.38-13.58-2.3-4.62 1.08-8.8 3.52-12.88 5.95-.48-.31-.66-1.01-.39-1.52"/>
        <path class="chandigar_sections_svg__st4" d="M672.49 427.74c.63-2.04-.47-4.46-2.42-5.33-.81-.36-1.75-.5-2.36-1.14-1.74-1.82 1.05-5.14-.31-7.26-.38-.59-1.01-.95-1.55-1.39-1.48-1.2-2.31-3.01-3.39-4.58-1.09-1.57-2.72-3.04-4.62-2.92.23-2.62.3-5.65-1.64-7.43-1.83-1.68-5.31-2.25-5.29-4.73.01-1.6 1.72-2.78 1.84-4.38.27-3.44-2.16-6.58-5.31-7.97-1.39-.61-3.06-1.04-3.74-2.39-.5-1-.28-2.21-.47-3.32-.34-1.94-1.97-3.73-1.44-5.63.24-.86.91-1.58.99-2.46.06-.63-.19-1.24-.44-1.81-1.23-2.81-2.7-5.51-4.38-8.08M900.14 495.79c-6.03-4.16-12.06-8.33-18.09-12.49-2.33-1.61-5.01-3.3-7.79-2.77-.39 2.04-1.8 3.86-3.69 4.74-1.86-3.41-4.9-7.32-8.68-6.43-1.35.32-2.52 1.24-3.9 1.44-1.73.25-3.38-.69-4.92-1.52a49.446 49.446 0 0 0-24.59-5.83c-1.38.04-2.8.13-4.13-.24-1.82-.5-3.39-1.83-5.27-2.01-2.19-.21-4.17 1.17-6.28 1.79-2.11.62-5.1-.18-5.19-2.37M756.92 503.2c.6-1.9-1.21-3.99-.47-5.83.54-1.34 2.15-1.85 3.21-2.84 2.44-2.28 1.38-6.34-.19-9.29-1.56-2.95-3.53-6.28-2.33-9.4.24-.63.61-1.21.73-1.88.64-3.32-4.68-5.22-4.64-8.6 1.54-1.46 3.73-2.04 5.34-3.41 1.62-1.37 2.33-4.31.52-5.41-.82-.5-2.01-.52-2.46-1.36-.25-.47-.18-1.04-.12-1.57.51-5-1.81-10.2-5.88-13.15M442.3 114.4c-4.62-.43-9.97-.6-13.09 2.83-1.06 1.17-1.78 2.69-3.13 3.5-2.3 1.39-5.62.21-7.73 1.88-.83.66-1.32 1.66-2 2.47-3.44 4.11-10.03 2.32-14.89.06-3.27-1.51-7.71-2.85-9.98-.06-.55.68-.89 1.55-1.59 2.08-1.13.85-2.7.52-4.11.47-3.82-.14-7.3 2.03-10.51 4.12l-8.89 5.8c-1.11.72-2.26 1.49-2.91 2.64-.79 1.39-.75 3.19-1.76 4.42-1.56 1.9-4.96 1.7-6.12 3.86-.85 1.58 0 3.62-.62 5.3-.38 1.01-1.23 1.75-2.09 2.42a41.086 41.086 0 0 1-15.49 7.49c-4.62 1.12-11.48 2.09-12.02 8.02-.11 1.26.1 2.56-.27 3.77-.99 3.23-5.26 3.9-8.62 3.57-3.36-.33-7.3-.85-9.63 1.6-.26 2.71 3.23 4.9 2.54 7.53-.76 2.91-5.17 2.28-7.59.51-2.42-1.78-5.4-4.17-8.03-2.72.4 1.59-.45 3.4-1.92 4.12-3.51-5.2-9.22-8.86-15.42-9.86 2.17 4.07 3.91 8.36 5.2 12.78l-28.68.6c-1.6.03-3.26.06-4.72-.59-1.62-.71-2.8-2.16-4.31-3.06-3.14-1.88-7.66-.93-9.79 2.05-3.14-5.18-7.72-11.09-13.72-10.2-2.27.34-4.34 1.68-6.64 1.79-1.64.07-3.26-.49-4.9-.49-1.64.01-3.52.91-3.72 2.55-.16 1.39.94 2.58 1.27 3.94.48 1.98-.82 4.06-2.59 5.09-1.76 1.03-3.88 1.22-5.92 1.3-3.15.12-6.92-.35-8.34-3.16-.55-1.09-.63-2.37-1.14-3.48-1.99-4.32-8.31-3.44-12.8-1.86-5.11-.69-8.91 2.2-13.67 3.03-5.6.98-11.81-2.63-17.13-.36-3.97 1.69-6.13 6.83-10.41 7.33-1.04.12-2.08-.06-3.11-.18-2.44-.3-4.91-.3-7.37-.31-6.07-.01-12.13-.01-18.2-.02-3.03 0-6.06-.01-9.09-.01-3.41 0-7.69.59-8.69 3.85-.58 1.89.28 3.98-.22 5.9-1.37 5.33-10.94 4.47-12.49 9.75-.71 2.43.75 4.96.67 7.49-.13 4.11-4.19 6.96-8.06 8.35-3.87 1.39-8.21 2.17-11.12 5.07"/>
        <path class="chandigar_sections_svg__st4" d="M118.63 116.14c-2.23.05-4.17 2.22-3.98 4.44.06.62.25 1.24.23 1.86-.07 1.57-1.48 2.69-2.66 3.74-4.55 4.06-7.07 10.28-6.64 16.36.11 1.59.4 3.27-.28 4.71-.48 1.01-1.41 1.85-1.49 2.96-.06.75.29 1.47.65 2.14 2.06 3.84 4.65 7.5 5.55 11.76.9 4.26-.52 9.44-4.51 11.17-4.64 2.01-9.73-1.47-14.76-1.88-5.18-.43-10.45-.42-15.45 1-2.65.76-5.59 2.25-6.04 4.97-.41 2.49 1.48 4.71 3.22 6.54 5.26 5.51 10.68 11.73 11.29 19.32.17 2.08-.13 4.36-1.6 5.84"/>
    </g>
    <g id="chandigar_sections_svg__towns">
        <path class="chandigar_sections_svg__st6" d="M132.58 500.09c25.65 1.88 44.6 27.36 70.15 30.23 15.75 1.77 32.19-5.4 47.22-.38 13 4.34 21.37 16.58 29.7 27.46 8.33 10.88 19.27 21.93 32.98 22-4.08 41.74-8.53 84.74-28.47 121.63-7.7 14.23-17.57 27.28-24.29 42-6.99 15.32-10.36 31.99-13.68 48.5-.62 3.11-1.22 6.46.1 9.34 1.3 2.83 4.16 4.57 6.85 6.13 19.29 11.15 38.57 22.31 57.86 33.46 5.67 3.28 12.24 8.82 9.98 14.97-.8 2.17-2.6 3.79-4.33 5.32-9.98 8.81-19.97 17.62-29.95 26.43-8.98 7.92-18.12 16.04-24.08 26.43-5.96 10.39-8.27 23.64-2.95 34.37 2.2 4.44 4.59 8.84 6.99 13.18-72.07 1.92-144.19 2.25-216.28.98-6.28-23.08-2.72-50.15-2.68-73.88l.18-91.56c.12-61.87.25-123.73.37-185.6.05-22.46.09-44.92.14-67.38.01-6.49.09-13.27 3.08-19.03 5.19-10 28.27-15.08 38.58-18.14 13.49-4.02 28.35-7.5 42.53-6.46z"/>
        <path class="chandigar_sections_svg__st7" d="M245.5 603.5l-13 52-28 49-50 50-49 46-47 42M310.51 595.84l-66.01 2.66-100-40-35-2-54 49"/>
        <path class="chandigar_sections_svg__st7" d="M144.5 565.5l-8 41-6 36 2.81 38.92 8.19 42.08 18 37 55 44 35 28M52.5 698.5l18 51 42 62 39 45 35 30 30 16"/>
        <path class="chandigar_sections_svg__st7" d="M295.5 663.5l-83-13-53-15-39-3-64.96 6.94M83.5 897.5l72-63 33-44M54.5 688.5l70-8M54.5 751.5l103-42 33-12M114.5 923.5l60-67 46-62 21-34 8-23 4-41 15-31M51.5 860.5l74 78"/>
    </g>
    <g id="chandigar_sections_svg__conglomerate">
        <path class="chandigar_sections_svg__st8" d="M442.54 76.88c3.68 8.4 7.39 16.89 9.07 25.91 1.83 9.81 1.21 19.98 3.34 29.74 2.38 10.88 8.05 20.69 13.04 30.65 8.3 16.58 14.87 34.02 19.57 51.95 2.52 9.64 5.11 20.33 13.28 26.02.91.63 1.95 1.21 3.05 1.14 2.36-.15 3.52-2.97 3.67-5.32.49-7.73-3.96-15.16-3.37-22.89.58-7.59 5.94-14.3 5.98-21.91.03-6.19-3.5-11.93-3.77-18.11-.28-6.45 2.98-12.44 5.76-18.26 9.81-20.49 14.39-45.83 2.7-65.31-4.21-7.01-10.27-12.8-14.27-19.93-2.66-4.75-4.16-12.17-8.16-15.97-3.99-3.8-10.33-2.79-15.6-2.99-14.52-.56-29.06-.52-43.57.12-.42.02-.9.07-1.16.41-.25.34-.16.82-.03 1.23 2.4 7.94 7.11 15.85 10.47 23.52zM619.89 394.62c3.57 6.72 6.87 13.58 9.77 20.64 3 7.31 5.33 14.88 8.17 22.26 12.99 33.82 35.72 59.59 63.82 81.54 7.02 5.48 14.23 10.71 21.8 15.41 12.04 7.48 24.17 15.1 36.18 22.5 12.19 7.51 27.16 12.89 40.31 18.7 24.38 10.78 51.13 20.99 77.76 24.26 7.76.95 15.35 2.34 23.17 2.98 3.13.26 45.17 3.1 45.1 2.32-2.62-27.22-1.41-57.09.85-84.46 3.3-40.09-5.24-80.53-1.13-120.54.7-6.86 1.78-13.69 2.05-20.59.34-8.52-.55-17.05-1.43-25.53-.32-3.09-.69-6.32-2.4-8.92-3.03-4.59-15.84-7.46-20.88-9.52-8.31-3.39-16.75-6.45-25.31-9.15-16.08-5.08-32.53-8.2-48.97-11.89-1.43-.32-2.95-.64-4.35-.21-3.66 1.14-4.04 6.17-3.26 9.93 2.43 11.79 9.18 22.63 18.68 30.01 4.2 3.27 9.42 6.71 9.64 12.03-2.82 1.78-6.56 1.4-9.6.03-3.04-1.36-5.6-3.58-8.33-5.49-14.36-10.1-34.39-12.82-44.46-27.21-6.49-9.27-13.17-5.81-23.14-3.39-11.35 2.76-22.56 6.45-34.28 7.32-22.5 1.66-44.29-7.17-66.47-11.31-12.51-2.33-25.29-3.64-37.98-4.44-8.14-.52-16.2-.39-24.34-.39-7.95 0-16.8-3.88-24.33.49-4.72 2.74-7.3 8.02-9.29 13.1-.44 1.11-.86 2.27-.81 3.46.07 1.52.91 2.89 1.73 4.18 10.82 17.08 22.23 33.99 31.73 51.88zM101.94 224.45c23.32 38.75 44.6 79.05 73.37 113.94 7.24 8.78 15.15 17.57 18.28 28.51 1.99 6.93 2.01 14.6 5.84 20.72 4.47 7.14 13.11 10.55 18.53 17 5.65 6.73 7.13 15.91 10.6 23.98 3.47 8.07 10.95 16.01 19.61 14.52-13.15-37.23-26.29-74.46-39.44-111.69-5.39-15.27-10.81-30.61-18.37-44.93-13.24-25.1-32.62-46.33-51.78-67.27-7.93-8.66-15.86-17.33-24.28-25.53a308.833 308.833 0 0 0-57.73-44.29c-3.49 19.14-.56 26.19 13.38 36.85 13.63 10.42 23.19 23.57 31.99 38.19z"/>
    </g>
    <g id="chandigar_sections_svg___cow_tracks">
        <path class="chandigar_sections_svg__st9" d="M244.38 212.51a297.042 297.042 0 0 1 23.77 68.47M260.38 218.31c1.33 6.38 2.66 12.79 5.01 18.87 1.15 2.99 2.55 5.88 3.56 8.92 1.92 5.73 2.44 11.81 2.96 17.83M290.81 204.42c10.95 20.88 16.38 44.63 15.6 68.19M276.36 225.87c2.73 11.85 9.4 22.83 9.93 34.99M227.97 198.41c4.22 5.7 7.64 11.98 10.15 18.61M219.36 200.92c1.54 4.42 3.41 8.71 5.35 12.97 4.81 10.58 10.29 21.13 12.34 32.73M176.49 228.96c6.57 7.97 12.17 16.73 16.65 26.04 2.08 4.32 3.91 8.75 5.64 13.21 3.59 9.26 6.74 18.72 8.78 28.43 1.01 4.8 1.75 9.66 3.04 14.4 2.31 8.46 6.32 16.35 10.31 24.16M189.9 222.59c10.75 8.78 18.51 21.17 21.72 34.67.88 3.71 1.43 7.49 2.28 11.2 1.13 4.95 2.77 9.75 4.34 14.58 4.37 13.46 8.14 27.12 11.3 40.92M155.87 231.49a84.22 84.22 0 0 1 12.49 14.37c2.16 3.15 4.13 6.46 5.43 10.05.82 2.25 1.37 4.59 2.25 6.81 1.49 3.73 3.89 7.02 5.86 10.52 2.58 4.58 4.42 9.53 6.24 14.45 1.93 5.18 3.85 10.37 5.3 15.71 1.31 4.87 2.22 9.84 3.64 14.68 2.9 9.84 7.9 18.95 11.1 28.7M222.82 238.64c8.83 8.94 12.05 21.85 14.91 34.09 1.79 7.64 3.57 15.29 5.36 22.93M239.24 245.14c-.17 3.02.79 5.97 1.64 8.87 2.5 8.46 4.24 17.13 5.21 25.9"/>
    </g>
    <g id="chandigar_sections_svg__Labels">
        <path d="M2197.64 1648.7c.3.19 1 .49 1.73.49 1.36 0 1.78-.86 1.76-1.51-.01-1.09-1-1.56-2.01-1.56h-.59v-.79h.59c.77 0 1.74-.4 1.74-1.32 0-.62-.4-1.18-1.37-1.18-.62 0-1.22.28-1.56.52l-.28-.77c.41-.3 1.2-.6 2.04-.6 1.54 0 2.23.91 2.23 1.86 0 .8-.48 1.49-1.44 1.83v.02c.96.19 1.74.91 1.74 2 0 1.25-.97 2.34-2.84 2.34-.88 0-1.64-.28-2.03-.53l.29-.8zM2207.77 1647.37l-.84 2.54h-1.08l2.75-8.08h1.26l2.76 8.08h-1.12l-.86-2.54h-2.87zm2.65-.81l-.79-2.33c-.18-.53-.3-1.01-.42-1.48h-.02c-.12.48-.25.97-.41 1.46l-.79 2.34h2.43zM2218.48 1648.33c0 .6.01 1.13.05 1.58h-.94l-.06-.95h-.02a2.19 2.19 0 0 1-1.92 1.08c-.91 0-2-.5-2-2.54v-3.39h1.05v3.21c0 1.1.34 1.85 1.3 1.85.71 0 1.2-.49 1.39-.96.06-.16.1-.35.1-.54v-3.56h1.05v4.22zM2225.24 1644.11c-.02.42-.05.89-.05 1.59v3.37c0 1.33-.26 2.15-.83 2.65-.56.53-1.38.7-2.11.7-.7 0-1.46-.17-1.93-.48l.26-.8c.38.24.98.46 1.7.46 1.08 0 1.87-.56 1.87-2.03v-.65h-.02c-.32.54-.95.97-1.85.97-1.44 0-2.47-1.22-2.47-2.83 0-1.97 1.28-3.08 2.61-3.08 1.01 0 1.56.53 1.81 1.01h.02l.05-.88h.94zm-1.09 2.29c0-.18-.01-.34-.06-.48-.19-.61-.71-1.12-1.48-1.12-1.01 0-1.73.85-1.73 2.2 0 1.14.58 2.09 1.71 2.09.65 0 1.24-.41 1.46-1.08.06-.18.08-.38.08-.56v-1.05zM2231.8 1648.33c0 .6.01 1.13.05 1.58h-.94l-.06-.95h-.02a2.19 2.19 0 0 1-1.92 1.08c-.91 0-2-.5-2-2.54v-3.39h1.05v3.21c0 1.1.34 1.85 1.3 1.85.71 0 1.2-.49 1.39-.96.06-.16.1-.35.1-.54v-3.56h1.05v4.22zM2233.41 1648.83c.31.2.86.42 1.39.42.77 0 1.13-.38 1.13-.86 0-.5-.3-.78-1.08-1.07-1.04-.37-1.54-.95-1.54-1.64 0-.94.76-1.7 2-1.7.59 0 1.1.17 1.43.36l-.26.77c-.23-.14-.65-.34-1.19-.34-.62 0-.97.36-.97.79 0 .48.35.7 1.1.98 1.01.38 1.52.89 1.52 1.75 0 1.02-.79 1.74-2.17 1.74-.64 0-1.22-.16-1.63-.4l.27-.8zM2239.58 1642.44v1.67h1.51v.8h-1.51v3.13c0 .72.2 1.13.79 1.13.28 0 .48-.04.61-.07l.05.79c-.2.08-.53.14-.94.14-.49 0-.89-.16-1.14-.44-.3-.31-.41-.83-.41-1.51v-3.17h-.9v-.8h.9v-1.39l1.04-.28zM2244.49 1649.91v-.65l.83-.8c1.99-1.89 2.89-2.9 2.9-4.08 0-.79-.38-1.52-1.55-1.52-.71 0-1.3.36-1.66.66l-.34-.74c.54-.46 1.31-.79 2.21-.79 1.68 0 2.39 1.15 2.39 2.27 0 1.44-1.04 2.6-2.69 4.19l-.62.58v.02h3.5v.88h-4.97zM2255.83 1645.93c0 2.65-.98 4.11-2.71 4.11-1.52 0-2.55-1.43-2.58-4.01 0-2.61 1.13-4.05 2.71-4.05 1.64.01 2.58 1.47 2.58 3.95zm-4.24.12c0 2.03.62 3.18 1.58 3.18 1.08 0 1.59-1.26 1.59-3.25 0-1.92-.49-3.18-1.58-3.18-.91 0-1.59 1.13-1.59 3.25zM2256.8 1649.91v-.65l.83-.8c1.99-1.89 2.89-2.9 2.9-4.08 0-.79-.38-1.52-1.55-1.52-.71 0-1.3.36-1.66.66l-.34-.74c.54-.46 1.31-.79 2.21-.79 1.68 0 2.39 1.15 2.39 2.27 0 1.44-1.04 2.6-2.69 4.19l-.62.58v.02h3.5v.88h-4.97zM2268.14 1645.93c0 2.65-.98 4.11-2.71 4.11-1.52 0-2.55-1.43-2.58-4.01 0-2.61 1.13-4.05 2.71-4.05 1.64.01 2.58 1.47 2.58 3.95zm-4.23.12c0 2.03.62 3.18 1.58 3.18 1.08 0 1.59-1.26 1.59-3.25 0-1.92-.49-3.18-1.58-3.18-.92 0-1.59 1.13-1.59 3.25z"/>
        <g>
            <path d="M403.24 871.26c-.07-1.32-.15-2.9-.14-4.08h-.04c-.32 1.11-.71 2.28-1.19 3.59l-1.67 4.58h-.92l-1.53-4.5c-.45-1.33-.83-2.55-1.09-3.67h-.03c-.03 1.18-.1 2.76-.18 4.17l-.25 4.05h-1.16l.66-9.44h1.55l1.61 4.57c.39 1.16.71 2.2.95 3.18h.04c.24-.95.57-1.99 1-3.18l1.68-4.57h1.55l.59 9.44h-1.19l-.24-4.14zM412.72 871.96c0 2.51-1.74 3.6-3.38 3.6-1.83 0-3.25-1.34-3.25-3.49 0-2.27 1.48-3.6 3.36-3.6 1.95.01 3.27 1.42 3.27 3.49zm-5.38.07c0 1.49.85 2.61 2.06 2.61 1.18 0 2.06-1.11 2.06-2.63 0-1.15-.57-2.6-2.03-2.6s-2.09 1.34-2.09 2.62zM420.11 868.63c-.03.49-.06 1.04-.06 1.86v3.94c0 1.55-.31 2.51-.97 3.1-.66.62-1.61.81-2.46.81-.81 0-1.71-.2-2.26-.56l.31-.94c.45.28 1.15.53 1.99.53 1.26 0 2.18-.66 2.18-2.37v-.76h-.03c-.38.63-1.11 1.13-2.16 1.13-1.68 0-2.89-1.43-2.89-3.31 0-2.3 1.5-3.6 3.05-3.6 1.18 0 1.82.62 2.12 1.18h.03l.06-1.02h1.09zm-1.27 2.68c0-.21-.01-.39-.07-.56-.22-.71-.83-1.3-1.72-1.3-1.18 0-2.02.99-2.02 2.56 0 1.33.67 2.44 2 2.44.76 0 1.44-.48 1.71-1.26.07-.21.1-.45.1-.66v-1.22zM423.39 866.73c.01.42-.29.76-.78.76-.43 0-.74-.34-.74-.76 0-.43.32-.77.77-.77s.75.33.75.77zm-1.38 8.68v-6.78h1.23v6.78h-1.23zM425.29 870.47c0-.7-.01-1.28-.06-1.83h1.09l.07 1.12h.03c.34-.64 1.12-1.27 2.24-1.27.94 0 2.4.56 2.4 2.89v4.05h-1.23v-3.91c0-1.09-.41-2-1.57-2-.81 0-1.44.57-1.65 1.26-.06.15-.08.36-.08.57v4.08h-1.23v-4.96zM436.81 875.41l-.1-.85h-.04c-.38.53-1.11 1.01-2.07 1.01-1.37 0-2.07-.97-2.07-1.95 0-1.64 1.46-2.54 4.08-2.52v-.14c0-.56-.15-1.57-1.54-1.57-.63 0-1.29.2-1.76.5l-.28-.81c.56-.36 1.37-.6 2.23-.6 2.07 0 2.58 1.42 2.58 2.77v2.54c0 .59.03 1.16.11 1.62h-1.14zm-.18-3.46c-1.34-.03-2.87.21-2.87 1.53 0 .8.53 1.18 1.16 1.18.88 0 1.44-.56 1.64-1.13.04-.13.07-.27.07-.39v-1.19zM439.81 870.47c0-.7-.01-1.28-.06-1.83h1.09l.07 1.12h.03c.34-.64 1.12-1.27 2.24-1.27.94 0 2.4.56 2.4 2.89v4.05h-1.23v-3.91c0-1.09-.41-2-1.57-2-.81 0-1.44.57-1.65 1.26-.06.15-.08.36-.08.57v4.08h-1.23v-4.96zM453.43 865.46v8.19c0 .6.01 1.29.06 1.75h-1.11l-.06-1.18h-.03c-.38.76-1.21 1.33-2.31 1.33-1.64 0-2.9-1.39-2.9-3.45-.01-2.25 1.39-3.64 3.04-3.64 1.04 0 1.74.49 2.04 1.04h.03v-4.05h1.24zm-1.23 5.93c0-.15-.01-.36-.06-.52-.18-.79-.85-1.43-1.78-1.43-1.28 0-2.03 1.12-2.03 2.62 0 1.37.67 2.51 2 2.51.83 0 1.58-.55 1.81-1.47.04-.17.06-.34.06-.53v-1.18zM458.48 866.09c.62-.13 1.5-.2 2.34-.2 1.3 0 2.14.24 2.73.77.48.42.74 1.06.74 1.79 0 1.25-.78 2.07-1.78 2.41v.04c.73.25 1.16.92 1.39 1.9.31 1.32.53 2.23.73 2.59h-1.26c-.15-.27-.36-1.08-.63-2.25-.28-1.3-.79-1.79-1.89-1.83h-1.15v4.09h-1.22v-9.31zm1.22 4.31h1.25c1.3 0 2.13-.71 2.13-1.79 0-1.22-.88-1.75-2.17-1.76-.59 0-1.01.06-1.21.11v3.44zM467.49 866.73c.01.42-.29.76-.78.76-.43 0-.74-.34-.74-.76 0-.43.32-.77.77-.77s.75.33.75.77zm-1.38 8.68v-6.78h1.23v6.78h-1.23zM469.87 868.63l1.33 3.81c.22.62.41 1.18.55 1.74h.04c.15-.56.35-1.12.57-1.74l1.32-3.81h1.29l-2.66 6.78h-1.18l-2.58-6.78h1.32zM476.67 872.24c.03 1.67 1.09 2.35 2.33 2.35.88 0 1.42-.15 1.88-.35l.21.88c-.43.2-1.18.42-2.25.42-2.09 0-3.33-1.37-3.33-3.42s1.21-3.66 3.18-3.66c2.21 0 2.8 1.95 2.8 3.19 0 .25-.03.45-.04.57h-4.78zm3.61-.88c.01-.79-.32-2-1.71-2-1.25 0-1.79 1.15-1.89 2h3.6zM483 870.75c0-.8-.01-1.49-.06-2.12h1.08l.04 1.33h.06c.31-.91 1.05-1.48 1.88-1.48.14 0 .24.01.35.04v1.16c-.13-.03-.25-.04-.42-.04-.87 0-1.48.66-1.65 1.58-.03.17-.06.36-.06.57v3.61H483v-4.65z"/>
        </g>
        <g>
            <path d="M417.07 487.57c-.27.83-.88 2.4-2.04 3.91-1.31 1.69-2.82 2.76-4.71 3.04-1.67.24-3.63-.31-5.38-1.66-3.33-2.6-4-6.78-1.09-10.53 1-1.29 2.07-2.09 2.67-2.39l.91 1.26c-.73.39-1.52.97-2.4 2.1-2.11 2.72-1.79 5.81 1.02 7.98 2.84 2.2 5.84 1.78 7.86-.83.73-.95 1.1-1.7 1.19-2.16l-3.34-2.58L410 488l-1.16-.9 2.85-3.69 5.38 4.16zM407.45 476.68l1.13-1.46 5.02 3.88.03-.03c-.23-.55-.32-1.2-.22-1.84.08-.62.32-1.27.74-1.82.83-1.08 2.83-2.29 5.61-.15l4.79 3.7-1.13 1.46-4.62-3.57c-1.3-1-2.77-1.37-3.83.01-.73.95-.65 2.21-.05 3.09.13.24.34.42.62.64l4.85 3.75-1.13 1.46-11.81-9.12zM429.81 472.12l-1.1-.67-.04.05c.29.94.18 2.24-.71 3.38-1.26 1.63-3.05 1.57-4.21.67-1.94-1.5-1.67-4.05.75-7.15l-.17-.13c-.66-.51-2-1.26-3.27.39-.58.75-.95 1.71-1.02 2.56l-1.22-.41c.08-1 .54-2.18 1.33-3.19 1.9-2.46 4.04-1.76 5.65-.51l3.01 2.32c.7.54 1.4 1.03 2.03 1.36l-1.03 1.33zm-4.27-2.95c-1.27 1.57-2.38 3.6-.82 4.8.95.73 1.88.45 2.46-.3.81-1.05.66-2.22.16-2.98-.11-.17-.25-.33-.4-.44l-1.4-1.08zM429.88 455.42c.56.48 1.18 1.02 2.16 1.77l4.67 3.61c1.84 1.43 2.69 2.66 2.79 3.98.13 1.35-.51 2.66-1.3 3.67-.75.96-1.8 1.85-2.73 2.16l-.83-1.23c.74-.27 1.68-.87 2.46-1.87 1.16-1.5 1.22-3.19-.8-4.76l-.9-.69-.03.03c.4 1.03.33 2.35-.63 3.6-1.54 1.99-4.34 2.11-6.56.39-2.72-2.11-2.9-5.08-1.47-6.92 1.08-1.4 2.4-1.59 3.33-1.43l.03-.03-1.16-1 .97-1.28zm2 3.97c-.25-.19-.48-.34-.73-.43-1.05-.39-2.3-.21-3.12.85-1.08 1.4-.67 3.3 1.19 4.74 1.58 1.22 3.51 1.44 4.73-.14.69-.9.76-2.15.07-3.18-.19-.28-.44-.53-.69-.72l-1.45-1.12zM437.06 446.14c.55.48 1.18 1.02 2.16 1.77l4.67 3.61c1.84 1.43 2.69 2.66 2.78 3.98.13 1.35-.51 2.66-1.29 3.67-.74.96-1.8 1.85-2.73 2.16l-.83-1.23c.74-.27 1.68-.87 2.46-1.87 1.16-1.5 1.22-3.2-.8-4.76l-.9-.69-.03.03c.4 1.03.33 2.35-.63 3.6-1.54 1.99-4.34 2.11-6.57.39-2.72-2.11-2.9-5.08-1.47-6.92 1.08-1.4 2.4-1.59 3.33-1.43l.02-.03-1.16-1 .99-1.28zm2 3.96c-.25-.19-.48-.34-.73-.43-1.05-.39-2.3-.21-3.12.85-1.08 1.4-.67 3.3 1.19 4.74 1.58 1.22 3.51 1.44 4.73-.14.69-.9.76-2.15.07-3.18-.19-.28-.44-.53-.69-.72l-1.45-1.12zM450.36 445.54l-1.1-.67-.04.05c.29.94.18 2.24-.71 3.38-1.26 1.63-3.05 1.57-4.21.67-1.94-1.5-1.67-4.05.75-7.15l-.17-.13c-.67-.51-2-1.25-3.27.39-.58.75-.95 1.71-1.02 2.55l-1.22-.41c.08-1 .54-2.18 1.33-3.19 1.9-2.46 4.04-1.76 5.65-.51l3.01 2.32c.7.54 1.4 1.03 2.03 1.36l-1.03 1.34zm-4.27-2.96c-1.27 1.57-2.38 3.6-.82 4.81.95.73 1.88.45 2.46-.3.81-1.05.66-2.23.16-2.98-.11-.17-.25-.33-.4-.44l-1.4-1.09zM447.58 437.71c-.95-.73-1.77-1.34-2.56-1.87l.99-1.28 1.62 1.17.05-.07c-.8-1.2-.8-2.61-.04-3.59.13-.17.23-.27.37-.38l1.38 1.07c-.15.12-.28.26-.44.46-.8 1.03-.58 2.36.36 3.41.17.19.38.4.63.59l4.29 3.31-1.12 1.45-5.53-4.27zM449.03 424.44c.42-.85 1.14-1.96 1.91-2.95 1.19-1.54 2.25-2.32 3.42-2.53.94-.18 1.94.1 2.81.76 1.48 1.14 1.74 2.83 1.23 4.32l.05.04c.97-.63 2.16-.53 3.53.1 1.85.84 3.13 1.41 3.74 1.51l-1.16 1.49c-.46-.06-1.61-.56-3.25-1.32-1.8-.86-2.84-.71-3.91.56l-1.05 1.36 4.85 3.75-1.12 1.44-11.05-8.53zm6.21 2.5l1.14-1.48c1.19-1.54 1.1-3.18-.17-4.17-1.45-1.12-2.88-.56-4.08.96-.54.7-.86 1.25-.97 1.53l4.08 3.16zM458.03 414.33c.51.37.63 1.04.18 1.62-.4.51-1.08.57-1.58.19-.51-.4-.62-1.09-.21-1.62.43-.54 1.1-.58 1.61-.19zm9.04 9.59l-8.04-6.21 1.13-1.46 8.04 6.21-1.13 1.46zM462.47 413.25l5.74 1.91c.94.3 1.77.6 2.56.94l.04-.05c-.52-.7-1.01-1.44-1.53-2.27l-3.31-5.05 1.18-1.53 5.6 9.37-1.08 1.4-10.4-3.16 1.2-1.56zM473 408.49c2 1.5 3.79.86 4.92-.6.81-1.05 1.11-1.82 1.31-2.55l1.24.56c-.17.7-.58 1.78-1.57 3.06-1.91 2.48-4.68 2.7-7.11.82-2.42-1.87-3.23-4.78-1.42-7.12 2.03-2.62 4.88-1.54 6.36-.39.3.23.5.44.64.58l-4.37 5.64zm2.27-5.09c-.92-.74-2.67-1.45-3.94.19-1.14 1.48-.28 3.18.64 4.08l3.3-4.27zM477.03 399.61c-.95-.73-1.77-1.34-2.56-1.87l.99-1.28 1.62 1.17.05-.07c-.8-1.2-.8-2.61-.04-3.59.13-.17.24-.27.37-.38l1.38 1.07c-.15.12-.28.26-.44.46-.8 1.03-.58 2.36.36 3.41.17.19.38.4.63.59l4.29 3.31-1.12 1.45-5.53-4.27z"/>
        </g>
        <g>
            <path d="M157.14 686.17c-.67.34-2.02.67-3.74.67-3.99 0-6.99-2.52-6.99-7.16 0-4.43 3-7.43 7.39-7.43 1.76 0 2.88.38 3.36.63l-.44 1.49c-.69-.34-1.68-.59-2.86-.59-3.32 0-5.52 2.12-5.52 5.84 0 3.46 1.99 5.69 5.44 5.69 1.11 0 2.25-.23 2.98-.59l.38 1.45zM159.37 671.73h1.85v6.34h.04c.29-.53.76-.99 1.32-1.3.55-.32 1.2-.52 1.89-.52 1.36 0 3.55.84 3.55 4.35v6.05h-1.85v-5.84c0-1.64-.61-3.02-2.35-3.02-1.2 0-2.14.84-2.48 1.85-.1.25-.13.52-.13.88v6.13h-1.85v-14.92zM176.65 686.64l-.15-1.28h-.06c-.57.8-1.66 1.51-3.11 1.51-2.06 0-3.11-1.45-3.11-2.92 0-2.46 2.18-3.8 6.11-3.78v-.21c0-.84-.23-2.35-2.31-2.35-.94 0-1.93.29-2.65.76l-.42-1.22c.84-.55 2.06-.9 3.34-.9 3.11 0 3.86 2.12 3.86 4.16v3.8c0 .88.04 1.74.17 2.44h-1.67zm-.27-5.19c-2.02-.04-4.3.31-4.3 2.29 0 1.2.8 1.76 1.74 1.76 1.32 0 2.16-.84 2.46-1.7.06-.19.1-.4.1-.59v-1.76zM181.15 679.22c0-1.05-.02-1.91-.08-2.75h1.64l.1 1.68h.04c.5-.97 1.68-1.91 3.36-1.91 1.41 0 3.59.84 3.59 4.32v6.07h-1.85v-5.86c0-1.64-.61-3-2.35-3-1.22 0-2.16.86-2.48 1.89-.08.23-.13.55-.13.86v6.11h-1.85v-7.41zM201.58 671.73v12.28c0 .9.02 1.93.08 2.62H200l-.08-1.76h-.04c-.57 1.13-1.81 1.99-3.46 1.99-2.46 0-4.35-2.08-4.35-5.16-.02-3.38 2.08-5.46 4.56-5.46 1.55 0 2.6.73 3.07 1.55h.04v-6.07h1.84zm-1.85 8.88c0-.23-.02-.55-.08-.78-.27-1.18-1.28-2.14-2.67-2.14-1.91 0-3.04 1.68-3.04 3.93 0 2.06 1.01 3.76 3 3.76 1.24 0 2.37-.82 2.71-2.21.06-.25.08-.5.08-.8v-1.76zM206.71 673.62c.02.63-.44 1.13-1.18 1.13-.65 0-1.11-.5-1.11-1.13 0-.65.48-1.15 1.15-1.15.69-.01 1.14.5 1.14 1.15zm-2.06 13.02v-10.16h1.85v10.16h-1.85zM218.32 676.47c-.04.73-.08 1.55-.08 2.79v5.9c0 2.33-.46 3.76-1.45 4.64-.99.92-2.41 1.22-3.7 1.22-1.22 0-2.56-.29-3.38-.84l.46-1.41c.67.42 1.72.8 2.98.8 1.89 0 3.28-.99 3.28-3.55v-1.13h-.04c-.57.94-1.66 1.7-3.23 1.7-2.52 0-4.33-2.14-4.33-4.96 0-3.44 2.25-5.4 4.58-5.4 1.76 0 2.73.92 3.17 1.76h.04l.08-1.53h1.62zm-1.91 4.01c0-.31-.02-.59-.1-.84-.34-1.07-1.24-1.95-2.58-1.95-1.76 0-3.02 1.49-3.02 3.84 0 1.99 1.01 3.65 3 3.65 1.13 0 2.16-.71 2.56-1.89.1-.32.15-.67.15-.99v-1.82zM226.93 686.64l-.15-1.28h-.06c-.57.8-1.66 1.51-3.11 1.51-2.06 0-3.11-1.45-3.11-2.92 0-2.46 2.18-3.8 6.11-3.78v-.21c0-.84-.23-2.35-2.31-2.35-.94 0-1.93.29-2.65.76l-.42-1.22c.84-.55 2.06-.9 3.34-.9 3.11 0 3.86 2.12 3.86 4.16v3.8c0 .88.04 1.74.17 2.44h-1.67zm-.28-5.19c-2.02-.04-4.3.31-4.3 2.29 0 1.2.8 1.76 1.74 1.76 1.32 0 2.16-.84 2.46-1.7.06-.19.1-.4.1-.59v-1.76zM231.42 679.64c0-1.2-.02-2.22-.08-3.17h1.62l.06 1.99h.08c.46-1.36 1.57-2.22 2.81-2.22.21 0 .36.02.52.06v1.74a2.93 2.93 0 0 0-.63-.06c-1.3 0-2.23.99-2.48 2.37-.04.25-.08.54-.08.86v5.42h-1.83v-6.99zM238.37 671.73h1.85v6.34h.04c.29-.53.76-.99 1.32-1.3.55-.32 1.2-.52 1.89-.52 1.36 0 3.55.84 3.55 4.35v6.05h-1.85v-5.84c0-1.64-.61-3.02-2.35-3.02-1.2 0-2.14.84-2.48 1.85-.1.25-.13.52-.13.88v6.13h-1.85v-14.92z"/>
        </g>
        <path class="chandigar_sections_svg__st10" d="M669.01 936.34l.21 10 129.02-.69-.21-9.99"/>
        <g>
            <path d="M710.11 929.12h-.04l-2.35 1.33-.39-1.4 2.95-1.66 1.57-.03.28 13.64-1.78.04-.24-11.92zM722 933.38c-.02-1.05-.06-1.91-.14-2.75l1.62-.03.12 1.63h.06c.55-.98 1.47-1.9 3.15-1.93 1.39-.03 2.45.79 2.92 1.98h.04c.3-.57.69-1.02 1.1-1.35.6-.47 1.27-.74 2.23-.76 1.34-.03 3.36.81 3.43 4.34l.12 5.98-1.81.04-.12-5.75c-.04-1.95-.78-3.12-2.27-3.08-1.05.02-1.85.82-2.15 1.73-.08.25-.13.59-.13.93l.13 6.28-1.8.04-.13-6.09c-.03-1.62-.77-2.78-2.18-2.75-1.15.02-1.97.96-2.25 1.89-.1.28-.13.59-.13.91l.13 6.13-1.81.04-.13-7.43zM741.45 927.37c.03.63-.42 1.14-1.15 1.16-.65.01-1.12-.48-1.14-1.11-.01-.65.46-1.17 1.13-1.18.69-.01 1.15.48 1.16 1.13zm-1.79 13.06l-.21-10.16 1.85-.04.21 10.16-1.85.04zM744.26 925.42l1.85-.04.31 14.9-1.85.04-.31-14.9zM750.46 935.46c.09 2.5 1.71 3.49 3.56 3.46 1.32-.03 2.12-.28 2.8-.58l.34 1.31c-.64.31-1.75.67-3.37.7-3.13.06-5.04-1.95-5.1-5.02s1.69-5.52 4.65-5.58c3.32-.07 4.26 2.83 4.3 4.7.01.38-.03.67-.04.86l-7.14.15zm5.39-1.43c0-1.18-.54-2.99-2.62-2.95-1.87.04-2.65 1.78-2.77 3.06l5.39-.11z"/>
        </g>
    </g>
    <path class="chandigar_sections_svg__st10" d="M50 52h896v912H50z" id="chandigar_sections_svg__box"/>
    <g id="chandigar_sections_svg__section_boxes_1_">
        <a xlink:href="/sections/western-india-measured-sections#d">
            <path id="chandigar_sections_svg__moginand" transform="rotate(35.413 552.577 847.696)" class="chandigar_sections_svg__hoverthingQ" d="M529.21 749.26h46.82v196.92h-46.82z"/>
        </a>
        <a xlink:href="/sections/western-india-measured-sections#c">
            <path id="chandigar_sections_svg__ghaggar" transform="rotate(35.413 488.92 462.739)" class="chandigar_sections_svg__hoverthingQ" d="M465.55 280.88h46.82v363.73h-46.82z"/>
        </a>
    </g>
</svg>
