<svg xmlns="http://www.w3.org/2000/svg" xmlns:xlink="http://www.w3.org/1999/xlink" viewBox="0 0 1161 952" style="enable-background:new 0 0 1161 952">
    <style>
        .East_India_Key_svg__hoverthing2_x0020_{opacity:.8;fill:#9e1f63}.East_India_Key_svg__hoverthing3{opacity:.8;fill:#7ac943}.East_India_Key_svg__hoverthing4{opacity:.8;fill:#ff931e}.East_India_Key_svg__hoverthing5{opacity:.8;fill:#f15a24}.East_India_Key_svg__st0{display:none}.East_India_Key_svg__st1{display:inline;opacity:.7;fill:#fff}.East_India_Key_svg__st2{opacity:.57;fill:#fbf28f}.East_India_Key_svg__st3{opacity:.55}.East_India_Key_svg__st3,.East_India_Key_svg__st4{fill:#d1bd42}.East_India_Key_svg__st5{fill:none;stroke:#998675;stroke-width:2;stroke-miterlimit:10}.East_India_Key_svg__st6,.East_India_Key_svg__st7{stroke:#000;stroke-width:2}.East_India_Key_svg__st6{fill:#11ceff;stroke-miterlimit:10}.East_India_Key_svg__st7{fill:none}.East_India_Key_svg__st10,.East_India_Key_svg__st7,.East_India_Key_svg__st8,.East_India_Key_svg__st9{stroke-miterlimit:10}.East_India_Key_svg__st8{fill:#231f20;stroke:#231f20;stroke-width:2}.East_India_Key_svg__st10,.East_India_Key_svg__st9{stroke:#3abfef}.East_India_Key_svg__st9{fill:none;stroke-width:2}.East_India_Key_svg__st10{stroke-width:3}.East_India_Key_svg__st10,.East_India_Key_svg__st11{fill:none}.East_India_Key_svg__st12,.East_India_Key_svg__st13,.East_India_Key_svg__st14,.East_India_Key_svg__st15{fill:none;stroke:#9e1f63;stroke-width:4;stroke-miterlimit:10}.East_India_Key_svg__st13,.East_India_Key_svg__st14,.East_India_Key_svg__st15{stroke:#ff931e}.East_India_Key_svg__st14,.East_India_Key_svg__st15{stroke:#7ac943}.East_India_Key_svg__st15{stroke:#f15a24}.East_India_Key_svg__st16{fill:#736357}.East_India_Key_svg__st17{fill:#29a700}.East_India_Key_svg__st18{fill:none;stroke:#000;stroke-width:4;stroke-miterlimit:10}
    </style>
    <g id="East_India_Key_svg__modern_alluvium" class="East_India_Key_svg__st0">
        <path class="East_India_Key_svg__st1" d="M193.18 343.6l-36.78-26.97c-8.56-6.27-19.16-12.87-29.06-9.06-11.3 4.35-13.8 18.99-14.11 31.09-.9 35.18 1.98 70.46 8.76 104.99 1.5 7.63 3.2 15.34 2.75 23.1-.46 7.98-3.16 15.71-3.68 23.69-.51 7.98 1.86 17 8.8 20.98 3.78 2.17 8.3 2.51 12.56 3.4 12.03 2.51 22.52 9.6 32.77 16.39 3.43 2.27 6.92 4.55 10.85 5.76 4.18 1.3 8.63 1.33 13 1.46 19.64.6 39.22 3.48 58.2 8.55 11.75 3.14 23.35 7.14 35.44 8.47 17.71 1.95 35.48-1.92 52.88-5.77l31.47-6.96c10.18-30.93-4.64-68.13-33.31-83.58-12.44-6.7-27.28-9.92-36.88-20.29-4.13-4.46-6.95-9.93-10.32-14.98-6.91-10.36-13.63-17.9-25.87-20.6-11.67-2.57-24.39-2.33-35.27-7.81-10.09-5.09-8.87-16.69-14.25-25.36-6.8-10.94-17.72-19-27.95-26.5z"/>
    </g>
    <g id="East_India_Key_svg__siwaliks">
        <path class="East_India_Key_svg__st2" d="M570.08 455.23a71.951 71.951 0 00-27.73 4.78c-3.4 1.31-6.76 2.9-10.39 3.27-3.16.33-6.33-.29-9.46-.85-19.99-3.63-40.67-4.77-60.95-5.33-2.55-.07-5.19-.14-7.5-1.22-2.51-1.18-4.15-3.71-6.61-4.87-1.77-.84-3.62-.68-5.51-1.15-4.92-1.22-10.23-3.98-14.13-7.19-2.87-2.36-5.23-5.3-8.17-7.58-9.61-7.43-23.08-6.34-34.76-9.69-11.94-3.43-21.96-11.56-33.44-16.31a62.99 62.99 0 00-20.52-4.67c-5.76-.32-11.54.16-17.3.04-15.04-.32-29.68-4.7-43.95-9.45-13.59-4.52-27.77-9.9-36.75-21.06-2.49-3.1-4.63-6.67-8.06-8.67-1.69-.98-4.21-1.55-6.23-1.02 1.45-6.59-9.11-14.7-12.82-18.88-2.29-2.63-4.62-5.29-7.49-7.27-2.52-1.74-5.38-2.91-8.22-4.06-22.97-9.33-45.93-18.66-68.9-27.99-.67-.27-1.38-.55-2.1-.46-2.03.26-2.49 3.34-1.14 4.88s3.56 1.91 5.58 2.22c8.02 1.23 15.96 2.97 23.76 5.21 3.33.96 6.67 2.03 9.58 3.9 5.64 3.64 9.08 9.95 14.48 13.93 3.16 2.33 6.91 3.8 9.86 6.39 3.73 3.27 5.84 8.03 9.32 11.56 2.7 2.74 6.12 4.64 9.49 6.5 3.29 1.82 11 8.29 15.52 7.48.28.68.78 1.49 1.18 2.61 2.13 5.93 3.49 12.6 6.19 18.31 3.39 7.17 10.78 12.29 18.69 12.92 3.32.27 6.65-.2 9.97-.38 8.78-.46 17.54 1.09 26.2 2.65 10.27 1.84 20.61 3.7 30.4 7.34 3.62 1.35 9.23 3.23 11.28 6.78 2.41 4.16.9 8.47 6.22 11.14 2.71 1.36 5.85 1.48 8.88 1.56 15.97.4 32.12.24 47.67 3.91 4.64 1.09 9.19 2.52 13.74 3.95 9.86 3.09 21.93 4.16 30.69 10 8.8 5.87 19.69 7.9 28.08 14.82 2.18 1.8 4.35 3.94 7.14 4.32 2.31.32 4.58-.63 6.78-1.4 7.99-2.79 16.74-3.29 25.02-1.55 7.21 1.52 14.66 4.84 21.94 5.52 4.22.4 8.43-.57 12.56-1.52 15.56-3.61 31.12-7.22 46.68-10.84-.31-1.94-2.81-2.52-4.77-2.58zM634.86 462.87a284.249 284.249 0 0187.54-11.59c10.51.26 22.04.81 30.38-5.61 2.55-1.96 4.7-4.53 7.64-5.81 7.01-3.07 14.62 2.19 22.11 3.73 12.86 2.65 25.33-5.99 34.22-15.65 8.9-9.66 16.53-21.13 28.22-27.12 6.51-3.34 13.95-4.77 20.09-8.75 3-1.94 5.6-4.44 8.17-6.92 4.61-4.43 9.21-8.87 13.82-13.3 2.24-2.16 4.52-4.34 7.29-5.76 6.92-3.54 15.28-1.59 22.68.79 7.52 2.42 15.33 5.52 20.11 11.81-10.87 1.69-21.18-4.51-31.63-7.93-2.28-.75-4.82-1.36-7.04-.42-2.12.89-3.43 2.98-4.72 4.88a65.906 65.906 0 01-15.99 16.48c-10.85 7.82-23.9 12.19-34.61 20.18-12.81 9.55-21.78 23.89-35.59 31.91-18.51 10.75-40.5 8.18-60.93 9.29-23.29 1.26-46.22 5.94-69.43 8.05-15.05 1.37-30.18 1.67-45.29 1.91"/>
    </g>
    <g id="East_India_Key_svg__old_siwaliks">
        <path class="East_India_Key_svg__st3" d="M1032 105H117v183.33c0 4.32-2.04 15.34.97 18.39 2.61 2.64 10.58 3.78 14.09 5.05 6.21 2.24 12.43 4.49 18.64 6.73l38.31 13.83c2.91 1.05 5.84 2.11 8.48 3.7 8.44 5.08 12.79 14.7 18.87 22.45 3.22 4.1 6.99 7.74 10.75 11.36 28.27 27.25 70.9 34.4 108.74 35.76 4.46.16 8.95.26 13.28 1.33 6.97 1.73 13.05 5.89 19.4 9.24 14.16 7.47 29.93 11.07 45.71 14.08.12.1.22.21.34.31 1.98 1.64 4.27 2.91 6.11 4.7 1.61 1.56 2.85 3.47 4.48 5.02 4.29 4.09 10.58 5.09 15.99 7.51 4.12 1.84 7.81 4.55 11.98 6.24 4.97 2.01 10.39 2.51 15.73 2.98 15.12 1.33 30.24 2.67 45.36 4 5.63.5 11.29.99 16.92.5 12.46-1.08 24.58-6.95 36.96-5.19 8.34 1.19 15.78 5.75 23.78 8.4a53.822 53.822 0 0025.75 1.99c6.28-1.05 12.31-3.21 18.41-5.05 32.5-9.77 66.91-10.32 100.77-12.63 3.48-.24 7.03-.51 10.25-1.86 4.01-1.68 7.18-4.9 10.97-7.04 3.79-2.14 9.01-2.97 12.19 0 4.15 3.88 11.2 3.73 16.88 3.62 5.17-.1 10.57-.26 15.07-2.81 2.92-1.65 5.22-4.18 7.47-6.66 5.13-5.67 10.26-11.34 15.39-17 5.63-6.22 11.48-12.61 19.09-16.16 3.72-1.73 7.74-2.73 11.54-4.26 11.2-4.52 19.95-13.45 28.19-22.29 3.41-3.66 7-7.48 11.75-9.04 15.28-5.01 37.25 9.17 49.5 16.98-5.7 4.22-11.4 8.45-17.1 12.67 3.43 2.46 6.86 4.93 10.29 7.39-1.5 9.07-8.8 16.22-16.93 20.51-8.13 4.29-17.22 6.33-25.88 9.39-18.55 6.55-35.33 18-48.26 32.82-.17-.01-.34-.03-.51-.04-.08.33-.18.64-.28.96-1.27 1.48-2.51 2.99-3.7 4.53l1.31.09c-2.52 3.61-6.06 6.73-8.42 10.22-4.49 6.62-7.24 13.6-12.92 19.53-1.17 1.22-2.44 2.43-4.05 2.95-1.61.52-3.62.14-4.52-1.29-.64-1.01-.59-2.3-.49-3.49.82-9.42 4.52-16.44-1.83-25.35-1.25-1.76-2.8-3.38-4.75-4.3-2.6-1.23-5.61-1.1-8.46-.74a57.43 57.43 0 00-19.88 6.39c-3.15 1.7-6.22 3.79-8.13 6.81-1.9 3.03-2.38 7.18-.34 10.12 3.38 4.89 11.05 3.94 15.87 7.42.73.53 1.42 1.2 1.64 2.08.2.81-.02 1.65-.28 2.44-2.16 6.57-7.19 12.14-13.5 14.96-1.26.56-2.63 1.03-4.01.88-2.99-.34-4.84-3.34-6.21-6.01-1.89-3.69-3.76-7.45-6.51-10.55-2.75-3.1-6.54-5.52-10.69-5.67-1.81-.07-3.7.28-5.39-.38-1.35-.53-2.38-1.65-3.51-2.56-6.79-5.47-17.01-3.32-24.54 1.08-7.53 4.4-14 10.75-22.2 13.69-1.79.64-3.69 1.12-5.58.89-1.79-.21-3.43-1.04-5.08-1.78-13.46-6.09-29.11-7.19-43.29-3.05-2.87.84-5.71 1.9-8.13 3.66-5.1 3.71-7.64 10.03-8.93 16.2-.96 4.57-1.34 9.5.61 13.74 3.21 6.98 11.75 9.92 19.43 9.86s15.21-2.35 22.89-2.53c4.63-.11 9.25.55 13.88.63 7.62.14 15.18-1.29 22.8-1.6 12.37-.5 24.86 2.02 36.07 7.28 3.67 1.72 7.21 3.74 10.95 5.32 10.19 4.3 21.44 5.22 32.47 6.08-1.33.77-4.34 1.14-5.86 1.42-7.14 1.33-14.82.63-21.35 3.81-.48.23-1.31.31-1.32-.23-8.5 5.91-15.87 15.41-22.09 23.68-16.13 21.48-27.9 44.02-28.24 71.56-.02 1.64 0 3.3.36 4.91.39 1.78 1.19 3.44 1.98 5.08 2.36 4.9 4.72 9.81 7.08 14.71 4.81 10 9.65 20.05 12.95 30.65.96 3.08 1.79 6.21 2.48 9.36.89 4.03 2.81 9.82 1.54 13.85-1.23 3.89-4.43 5.26-3.69 10.17.49 3.28 2.15 6.25 3.77 9.14 5.62 10.02 11.24 20.03 16.87 30.05 4.3 7.66 8.64 15.38 14.49 21.94 5.44 6.09 9.81 11.83 14.47 18.47 3.89 5.55 9.84 5.59 16.29 5.88h90.5c23.25 0 46.42.77 69.75.77h83"/>
        <path class="East_India_Key_svg__st3" d="M532.05 612.54c-.24-4.59-1.38-9.08-2.63-13.5-2.01-7.14-6.49-15.37-6.58-22.78-.08-6.62 1.93-13.17.49-19.88-.65-3.01-2.19-5.96-4.78-7.62-1.08-.69-2.31-1.14-3.52-1.57-14.38-5.19-23.78-2.62-34.61 8.09-7.69 7.6-15.6 18.48-27.49 18.75-3.43.08-6.87-.82-10.28-.38-6.48.84-11.29 6.2-16.96 9.44-11.77 6.72-26.43 4-39.66 1.09-2.07-.45-4.23-.96-5.8-2.37-2.41-2.17-2.73-5.78-4.15-8.7-4.29-8.78-16.48-8.92-26.24-8.36-17.66 1.01-35.43.07-52.88-2.79-19.55-3.2-39.19-8.82-58.83-6.25-7.27.95-14.46 3.03-21.79 2.7-15.3-.7-27.97-11.51-42.02-17.59-17.77-7.69-38.73-7.61-56.45.18H117v71h2v224h284.9c15.43 0 30.68 1.28 45.97 1.26 7.74-.01 16.16-13.78 20.3-19.36 2.05-2.77 4.02-5.66 5.12-8.93 1.05-3.14 1.25-6.49 1.44-9.8.45-7.88.89-15.87-.76-23.58-.23-1.08-.5-2.23-.1-3.26.26-.67.77-1.21 1.29-1.7 2.05-1.94 6.41-3.3 7.73-5.54 1.45-2.45.2-7.25.19-9.94-.02-6.42 2.7-10.68 4.82-16.39 1.9-5.13 2.16-10.75 4.21-15.9 4.73-11.89 11.92-22.61 18.07-33.83 9.63-17.55 11.17-35.81 16.34-54.72 1.94-7.13 3.91-14.4 3.53-21.77z"/>
    </g>
    <path class="East_India_Key_svg__st5" d="M117.72 539.27c10.02-2.27 20.22-3.75 30.47-4.44 2.55-.17 5.11-.29 7.66-.04 3.54.35 6.98 1.42 10.35 2.57a209.646 209.646 0 0139.43 18.2c2.12 1.26 4.27 2.58 6.69 3.05 2.94.57 5.95-.17 8.88-.8 21.82-4.75 44.82-3.98 66.27 2.21 4.33 1.25 8.61 2.72 13.04 3.49 7.32 1.28 14.82.65 22.25.35 12.59-.51 25.22-.04 37.74 1.4 3.9.45 9.3.21 12.24 3.12 4.31 4.27 3.42 14.4 8.41 16.65 3.26 1.47 11.12-.17 14.85-.03 5.32.2 10.63.63 15.91 1.28 2.2.27 4.47.58 6.61 0 1.71-.46 3.22-1.47 4.7-2.45 4.33-2.9 8.66-5.79 12.99-8.69 1.48-.99 3.01-2 4.76-2.39 1.62-.36 3.31-.14 4.96.08 3.98.53 8.72 2.14 12.45.46 3.82-1.72 8.73-6.3 12.22-8.88 4.01-2.97 7.22-6.86 10.66-10.48 3.51-3.69 7.3-7.11 11.32-10.22 4.68.89 9.77.58 14.52.86 4.75.29 9.78 1.51 12.99 5.03 3.29 3.59 4.02 8.84 3.87 13.71-.16 4.87-1.04 9.76-.35 14.58.97 6.76 4.66 12.83 6.09 19.47 1.22 5.69 2.05 11.43 2.26 17.25.2 5.58-2.21 9.87-3.66 15.21-3.74 13.78-3.11 28.64-8.11 42.04-5.12 13.74-13.66 25.84-20.13 38.93a141.608 141.608 0 00-14.33 53.53" id="East_India_Key_svg__boundary"/>
    <path class="East_India_Key_svg__st6" d="M455.68 834.57c4.43-4.28 9.08-8.38 12.83-13.26 10.38-13.55 12.52-32.95 5.32-48.43 5.06-3.66 10.14-7.3 15.23-10.92 3.11-2.21 6.27-4.43 9.82-5.84 3.32-1.32 6.88-1.88 10.33-2.82 13.37-3.66 24.93-13.45 30.74-26.03-.32 4.33.27 9.11-.05 13.44-.09 1.24-.15 2.61.59 3.61.66.89 1.78 1.28 2.69 1.91 1.65 1.15 2.57 3.09 4.03 4.46 1.47 1.38 4.15 1.97 5.3.32-.07-6.59 2.81-13.15 7.71-17.55 2.16.25 2.85 3.26 1.96 5.26-.88 1.99-2.67 3.46-3.64 5.41-1.48 2.98-.67 6.91 1.86 9.07a34.161 34.161 0 004.84-15.87c.13-2.65.34-5.95 2.78-6.98 1.59 3.97.57 8.43.07 12.67-.5 4.25-.19 9.17 3.14 11.86 2-4.06 3.04-8.58 3.01-13.1 1.65 1.81 2.32 4.29 3.54 6.42s3.53 4.06 5.91 3.44c1.02-1.57 1.23-3.64.55-5.39-.35-.9-.92-1.73-1.02-2.68-.12-1.12.43-2.18.86-3.22 1-2.44 1.41-5.11 1.18-7.74 2.88-.19 3.96 3.6 4.66 6.4a20.91 20.91 0 005.54 9.71c.68-2.85 1.37-5.7 2.05-8.55 1.69 1.82 3.37 3.64 5.06 5.46.81-6.42 2.66-12.71 5.46-18.54 1.22-2.54 3.65 5.67 3.65 5.66.79 4.07.46 8.67-.08 12.75 1.15.62 2.6-.06 3.5-1 .9-.94 1.51-2.15 2.51-3 1.31-1.11 3.09-1.45 4.66-2.15 1.57-.7 3.12-2.11 2.92-3.82-.17-1.53-1.69-2.66-1.79-4.2-.06-.89.36-1.73.7-2.55 1.1-2.67 1.38-5.67.79-8.5 4.27 1.55 6.29 6.28 8.11 10.44 1.82 4.16 4.6 8.74 9.12 9.23 1.04.11 2.16-.04 3.01-.65 2.29-1.66 1.31-5.34-.45-7.55 3.02-3.17 8.92-3.16 10.7-7.16.75-1.69.5-3.62.54-5.47.05-2.62.73-5.22 1.97-7.53.97-1.82 2.31-3.56 2.43-5.61.23-3.73-3.61-7.52-1.74-10.76 1.63 1.61 4.9.96 5.52 3.17.18.66 0 1.35-.07 2.04-.33 3.3 2.19 6.54 1.36 9.75-.26.99-.82 1.87-1.28 2.79-3.37 6.67 1.26 21.39 5.26 8.64.73-2.32 1.45-4.63 2.18-6.95 1.07-3.4 2.1-7.24.44-10.39-.54-1.03-1.34-1.9-1.87-2.94-.45-.89-.69-1.88-.93-2.85-.54-2.26-1.09-4.53-1.63-6.79-.26-1.1-.53-2.27-.19-3.35s1.51-1.99 2.58-1.61c3.97 4.24 7.74 8.65 11.31 13.23.56.72 1.13 1.46 1.49 2.3.64 1.48.61 3.15.57 4.76-.07 2.77-1.97 13.32 2.74 13.51 5.4.22 3.4-10.65 3.31-13.5-.1-2.93-.83-5.43-2.18-7.95 1.13-.55 2.73-1.5 3.36-2.75.75-1.5.89-3.25 1.71-4.7 1.67-2.96 5.76-3.81 9.01-2.8s5.86 3.39 8.35 5.71c3.63 3.38 7.35 6.89 9.39 11.42 3.74 8.3 1.14 18.44 5.04 26.66.69 1.44 1.57 2.81 1.98 4.36.5 1.85.28 3.81.06 5.71-.76 6.38-2.58 13.77.91 19.25 3.58 5.63 8.08 10.5 11.37 16.46 6.73 12.2 11.91 25.48 21.14 36.12 5.95 6.87 13.77 12.99 15.67 21.88" id="East_India_Key_svg__bengal_fan"/>
    <g id="East_India_Key_svg__thrust_faults">
        <path class="East_India_Key_svg__st7" d="M118.92 311.22c25.01 3.8 48.6 16.39 65.68 35.06 5.73 6.26 11.06 13.41 18.84 16.78 3.94 1.71 8.56 2.48 11.41 5.7 2.59 2.92 3.03 7.09 4.09 10.84 3.04 10.77 12.48 19.46 23.47 21.6 6.2 1.21 12.6.45 18.92.51 19.16.16 37.39 7.7 55.06 15.12 1.2.51 2.88.9 4.17 1.04.01 4.19.52 9.23 4.26 11.11 2.19 1.1 4.78.7 7.23.57 7.76-.41 15.35 2.26 23.1 2.84 5.76.43 11.56-.29 17.32.2 6.23.53 12.25 2.45 18.21 4.37 24.79 7.96 50.07 16.18 70.99 31.67 13.14-6.48 29.39-6.87 42.8-.96 4.08 1.8 8.19 4.2 12.63 3.91 1.8-.12 3.54-.68 5.26-1.21 16.95-5.32 34.36-9.16 51.98-11.47 14.31 8.89 32.87 7.64 49.65 6.08 17.09-1.59 34.18-3.17 51.27-4.76 35.1-3.26 70.2-6.52 105.3-9.77 7.35-.68 14.81-1.36 21.89-3.55 6.78-2.09 11.33-7.3 16.8-11.72 3.27-2.64 6.56-5.31 9.31-8.49 2.27-2.64 4.15-5.61 6.62-8.07 14.46-14.36 37.81-17.78 50.59-33.46 2.87-3.52 4.94-7.66 7.96-11.05s7.47-6.06 11.94-5.24c2.28.42 4.29 1.69 6.31 2.83a63.447 63.447 0 0030.86 8.13c.95 1.45 1.98 3.89 1.33 5.5-5.75.95-11.23 3.49-15.67 7.26-.48.41-.98.88-1.07 1.51-.17 1.09.94 1.92 1.9 2.47 3.39 1.94 6.78 3.88 10.17 5.83-4.38 5.44-4.9 13.62-10.33 18.02-4.88 3.96-11.88 3.4-17.96 4.99-4.03 1.05-7.71 3.09-11.35 5.12-8.1 4.5-16.21 9-24.31 13.5-11.01 6.11-22.29 12.44-30.33 22.13-6.42 7.74-10.39 17.15-14.81 26.18a255.105 255.105 0 01-22.96 38.04c-4.98 6.83-10.93 12.54-16.08 19.24-6.16 8.03-15.38 15.95-26.05 16.13-16.17.26-28.79 14.84-38 26.51-10.79 13.66-18.29 30.35-23.28 47-1.26 4.21-2.42 8.48-2.92 12.85-1.91 16.85 6.1 33.06 13.88 48.13"/>
        <path class="East_India_Key_svg__st7" d="M119.36 306.21c23.28 9.09 46.57 18.18 69.85 27.27 4.12 1.61 8.31 3.26 11.71 6.09 3.73 3.1 6.23 7.38 8.97 11.38 13.05 19.02 32.87 32.74 54.33 41.18 15.95 6.27 32.85 9.79 49.85 11.75 14.64 1.69 32.15-.21 45.32 6.96 7.32 3.98 13.94 9.34 21.75 12.28 7.12 2.68 14.83 3.2 22.31 4.58 7.48 1.38 15.17 3.87 20.31 9.48 1.52 1.66 2.78 3.56 4.5 5 4 3.37 9.69 3.72 14.4 6.01 4.47 2.18 7.99 6.09 12.62 7.89 3.21 1.25 6.72 1.4 10.16 1.53 9.14.36 18.27.71 27.41 1.07 10.83.42 21.64 3.7 32.46 4.31 2.51.14 5.03.28 7.52-.02 4.65-.57 8.96-2.64 13.4-4.13 9.86-3.31 20.66-3.76 30.76-1.28a4.1 4.1 0 001.18 3.37M632 463c14.79-4.92 32.58-7.74 48.07-9.5 20.43-2.32 40.95-4.39 61.51-4.07 1.94.03 3.93.07 5.75-.59 1.88-.69 4.04-1.53 5-3.29 4.67-8.56 13.55-7.23 20.66-5.28 2.45.67 4.73 1.87 7.18 2.56 6.13 1.73 12.64.16 18.81-1.42 1.64-.42 3.3-.85 4.76-1.71 1.4-.83 2.55-2.01 3.67-3.18l29.9-31.04c4.3-.71 6.65-4.59 10.66-6.31 1.85-.79 3.88-1.07 5.81-1.64 4.1-1.22 7.67-3.78 11.08-6.37 7.23-5.51 14.14-11.41 20.72-17.69 2.34-2.23 4.66-4.54 7.44-6.21 4.07-2.45 9.03-3.4 13.72-2.63 2.69.44 5.26 1.42 7.79 2.44 8.98 3.62 17.72 7.82 26.16 12.57"/>
        <path class="East_India_Key_svg__st8" d="M389.06 425.65c-.89-2.19-.14-4.68-1.52-7.12-1.75 1.12-4.18 2.42-5.32 4.09M870.25 445.63c2.3.53 3.92 2.58 6.7 2.85.09-2.08.42-4.82-.28-6.71M710.93 620.24c2.27-.66 4.67.35 7.24-.77-.93-1.86-1.97-4.41-3.5-5.72M796.78 544.04c2.31-.5 4.64.68 7.28-.25-.79-1.92-1.65-4.54-3.09-5.96M511.06 469.65c-.89-2.19-.14-4.68-1.52-7.12-1.75 1.12-4.18 2.42-5.32 4.09M646.14 457.91c-2.25-.71-3.69-2.89-6.45-3.39-.26 2.06-.82 4.76-.27 6.71M826.14 430.91c-2.25-.71-3.69-2.89-6.45-3.39-.26 2.06-.82 4.76-.27 6.71M870.14 387.91c-2.25-.71-3.69-2.89-6.45-3.39-.26 2.06-.82 4.76-.27 6.71M347.61 430.98c-1.41-1.9-1.3-4.5-3.24-6.52-1.42 1.52-3.45 3.39-4.14 5.28M253.61 401.98c-1.41-1.9-1.3-4.5-3.24-6.52-1.42 1.52-3.45 3.39-4.14 5.28M237.33 378.18c-.3-2.34 1.08-4.56.38-7.28-1.98.63-4.67 1.26-6.2 2.56M146.46 315.2c-1.26-2-.95-4.59-2.74-6.75-1.53 1.41-3.7 3.11-4.54 4.95"/>
        <path class="East_India_Key_svg__st7" d="M776.88 563.31c-6.77-1.98-13.32-.07-20.34-2.42-7.18-2.41-13.41-7.19-20.49-9.89-6.91-2.64-14.3-3.95-21.61-4.97-7.01-.98-14.19-1.7-21.2-.22-1.7.36-3.36.92-5.06 1.28-10.32 2.24-20.93-2.52-31.47-1.91-1.52.09-3.05.29-4.49.78-1.46.49-2.81 1.27-4.23 1.88-5.53 2.37-12.09 1.81-17.34-1.03-4.98-2.69-10.61-8.5-12.03-14.05-3.57-13.9 12.86-26.2 24.44-29.52 8.34-2.39 17.32-2.1 25.72.07 5.78 1.49 9.73 5.77 16.02 6.61 6.27.83 12.07-2.01 17.21-5.28 2.25-1.44 3.6-3.07 5.44-4.89 2.43-2.4 5.87-4.05 8.74-5.89 1.48-.95 2.97-1.9 4.61-2.51 3.71-1.39 8.08-.89 11.38 1.31 2.08 1.39 3.75 3.4 6.02 4.46 4.5 2.1 8.91-1.01 13.22.28 1.73.52 2.85 2.17 3.68 3.77 2.32 4.44 4.52 9.39 7.88 13.21 2.35 2.68 5.89 4.01 9.4 4.07 1.7.03 4.48-.11 5.91-1.17 1.66-1.23.66-2.53 2.1-3.89 3.81-3.62 5.81-5.81 6.56-11.31.08-.56.15-1.16-.08-1.68-.17-.39-.5-.69-.82-.97-3.92-3.53-13.63-5.22-15.8-9.72-.95-1.96-.97-4.28-.45-6.4.31-1.24.8-2.44 1.55-3.47.87-1.2 2.05-2.13 3.25-3.01 4.73-3.48 9.96-6.42 15.67-7.82 3.43-.84 7.03-1.09 10.53-.57 2.54.37 7.44 1.1 9.47 2.69 1.46 1.14 1.93 3.11 2.26 4.93.84 4.69 1.33 9.44 1.47 14.19.08 2.46.08 4.94-.05 7.4-.08 1.5-1.03 4.47-.42 5.83.36.81 1.35 1.1 2.22 1.25.68.12 1.37.2 2.05.14 2.37-.19 4.27-1.95 5.97-3.62"/>
    </g>
    <g id="East_India_Key_svg__rivers">
        <path class="East_India_Key_svg__st9" d="M466 544c-1.61-3.37-1.64-1.68-4.06-4.53-2.42-2.86-4.15-6.22-5.85-9.55-1.55-3.02-3.12-6.1-3.65-9.45-.71-4.43.44-8.92 1.58-13.25.6-2.28 1.23-4.63 2.7-6.47 1.12-1.4 2.64-2.4 4.05-3.51 3.64-2.87 6.54-6.54 9.41-10.18 3.3-4.17 6.59-8.35 9.89-12.52 2.45-3.1 4.9-6.2 7.04-9.51 5.03-7.76 3.16-18.96-1.23-27.1-1.29-2.39-2.92-4.61-3.84-7.16-.92-2.55-1.01-5.63.66-7.76.99-1.26 2.45-2.04 3.66-3.08 2.27-1.96 3.59-4.77 4.85-7.49 1.83-3.97 3.71-8.19 3.24-12.54-.16-1.46-.58-2.88-.99-4.29l-1.92-6.5c-.35-1.17-.7-2.38-.56-3.6.19-1.7 1.3-3.17 2.57-4.33a16.05 16.05 0 016.8-3.69c1.07-.28 2.2-.45 3.17-.99 5.92-3.3-4.11-11.61-7.56-12.98-6.2-2.46-12.5 1.11-18.69-.29-6.93-1.57-13.85-2.24-21.01-2.54-1.51-.06-3.08-.13-4.41-.83-.81-.43-1.5-1.08-2.09-1.78-4.18-4.93-3.58-15.34-13.33-10.44-2.87 1.45-4.35 5.19-3.22 8.21"/>
        <path class="East_India_Key_svg__st10" d="M538.83 727.57c-1.56-6.84-2.88-14.81 1.59-20.22 2.08-2.53 5.14-4.06 7.39-6.44 2.77-2.93 4.11-6.93 4.99-10.86 2.64-11.83 1.68-24.41-2.54-35.76-1.82-4.88-4.44-9.08-5.35-14.25-1.07-6.07.34-11.81.99-17.85 1.86-17.25-5.46-34.02-12.61-49.84-3.83-8.48-7.05-17.69-11.29-25.9-3.36-6.51-14.13-9.01-20.88-9.04-8.08-.03-15.82 3.01-23.78 4.38-4.29.74-8.65.99-12.99 1.24-6.7.39-13.52.76-20.02-.87-8.01-2.01-15.07-6.96-23.12-8.84-4.51-1.05-9.23-1.12-13.68-2.38-3.3-.94-6.39-2.52-9.63-3.64-9.59-3.34-20.73-2.85-28.94-8.84-2.85-2.08-5.14-4.82-7.73-7.22-5.59-5.18-13.94-5.81-19.81-10.68-5.19-4.3-10.48-8.66-16.71-11.22-10.77-4.42-23.8-3.23-33.14-10.17-1.92-1.42-3.6-3.14-5.52-4.55-4.78-3.5-10.75-4.88-16.6-5.81-4.91-.78-10.29-1.5-13.69-5.13-1.46-1.56-2.42-3.55-3.94-5.05-4.66-4.61-12.41-3.12-18.66-5.09-4.1-1.29-7.49-4.01-10.41-7.08-3-3.15-5.08-5.61-8.52-8.1-3.32-2.41-2.58-4.86-3.16-8.68-.62-4.05-2.21-7.96-4.66-11.26-1.33-1.78-2.91-3.43-3.75-5.48-.69-1.7-.83-3.57-.96-5.4-.36-5.17-.73-10.38.09-15.5.15-.95.34-1.92.15-2.85-.19-.92-.74-1.72-1.27-2.49-3.78-5.48-8.24-10.67-11.95-16.04-3.5-5.07-2.03-12.74-.68-18.23 1.15-4.67 2.39-11.52-1.51-15.26-3.18-3.05-9.44-3.94-9.49-8.35 6.06-2.97 14.08-1.14 18.26 4.16 2.08 2.65 3.97 6.4 7.33 6.3.81-3.8-2.82-7.48-2.1-11.3.67-3.55 4.56-5.27 7.44-7.45 3.79-2.86 6.3-7.36 6.74-12.09.1-1.07.1-2.16.38-3.21.23-.87.64-1.67 1.08-2.46 2.89-5.14 7.25-9.44 12.43-12.27.66-.36 1.43-.84 1.46-1.59.01-.34-.13-.66-.28-.96-5.86-12.09-16.97-21.51-29.84-25.33-1.95-.58-4.07-1.11-5.42-2.63-.99-1.12-1.42-2.61-1.82-4.04-.96-3.47-1.93-6.94-2.89-10.41"/>
        <path class="East_India_Key_svg__st10" d="M148.72 220.92l11.73 17.31c2.59 3.83 5.32 7.78 9.3 10.13 3.11 1.84 7.07 2.81 8.84 5.95.78 1.38 1.01 3.01.93 4.59-.26 5.73-4.19 10.69-8.71 14.22-4.52 3.53-9.76 6.07-14.26 9.63-1.4 1.11-2.74 2.34-3.67 3.87-1.89 3.13-1.76 7.03-1.58 10.67l.6 11.96c.05.95.09 1.92-.24 2.81-.46 1.25-1.57 2.11-2.51 3.05-2.98 3-4.42 7.15-5.77 11.15-1.76 5.2-3.21 11.76.8 15.52 4.26 3.99 7.15 10.23 9.28 15.66 1.31 3.34 2.22 6.87 4.08 9.93 1.72 2.84 4.18 5.14 6.61 7.41 5.95 5.55 11.9 11.11 17.85 16.66 1.72 1.61 3.47 3.25 4.63 5.31.91 1.61 1.41 3.42 1.85 5.22 1.31 5.3 2.21 10.71 2.66 16.16.16 1.89.3 3.88 1.37 5.44.73 1.06 1.82 1.8 2.89 2.52 4.18 2.83 8.36 5.65 12.55 8.48 1.32.89 1.74 1.64 3.12 2.43M232.58 248.27C245 252 259 253 271 259c19 8 31 28 53 31 2 1 5 2 5 4 3 10 13 10 21 13 5 2 3 9 6 13 4 5 13 4 19 7 6-4 12-6 19-5 11 2 20 8 31 7 23-3 45 2 68 4 4 0 9 1 13-1 5-2 8-10 14-12 5-1 10 1 15 2 8 0 15 2 23 1 3 0 6-2 9-2 5 0 9 0 14 1 15 1 29 0 44-1 9 0 18 5 27 3 7-1 15-3 22-3 6 1 12 4 18 4 11-1 22-5 33-3 12 3 21 8 33 10 6 1 11 0 17 0 2-1 3 1 5 2 5 4 8-3 12-6 5-3 11 0 16-1 6 0 10-4 16-5 9 0 14-10 22-14 3-2 6-2 9-2 6-1 11-6 9-13-1.71-5.13 8.3-2.78 9.45-3.81.56-.5.72-1.31.85-2.05.17-1.02.35-2.04.52-3.06.08-.44.2-.95.61-1.13.22-.1.46-.08.7-.05 4.17.52 7.86 2.09 10.87 5.09 3 5 5 11 4 17-2 5-6 8-12 12-2 1-6 3-8 6-4 5-8 10-10 16 3 1 4 3 6 5 3 5 6 9 9 14 1 4-1 8-3 11-1 2 1 5 4 7 6 3 13 2 17 8 2 3 4 8 1 11-9 7-18 13-28 20-8 6-11 16-17 25-12 14-30 19-48 18-6 0-11 4-16 6-16 5-33 4-48 13-11 7-21 16-34 18-8 1-15-3-23-2-6 1-12 4-18 3s-11-3-17-2c-3 1-6 4-9 6-1 1-3 0-4 1-7 5-13 9-18 16-2 4-3 8-3 12 1 14 4 27 8 40 5 13 1 27-1 40-1 12-4 24-6 36-2 15 7 28 17 39 9 10-1 24-7.33 33.37"/>
        <path class="East_India_Key_svg__st9" d="M701 366.21c.37 2.54 3.83 3.36 6.22 2.44 2.39-.92 4.25-2.88 6.61-3.88 3.68-1.56 7.95-.54 11.62 1.05 3.67 1.59 7.17 3.73 11.11 4.47 3.79.71 7.68.07 11.54-.02 3.85-.09 8.02.53 10.79 3.21.59.57 1.11 1.23 1.78 1.73 2.38 1.76 5.84.8 8.24-.93 2.4-1.73 4.31-4.13 6.91-5.54 3.67-1.99 8.22-1.7 12.15-.29 3.86 1.39 7.79 3.83 11.76 2.79 1.25-.33 2.39-.99 3.59-1.48 3.66-1.48 7.76-1.29 11.67-.76 4.67.63 9.89 2.17 11.92 6.42 1.55 3.24.75 7.13 1.71 10.59 3.61 3.28 6.5 5.86 10.11 9.14.54.49 1.1 1 1.47 1.63 2.09 3.52-2.34 7.45-2.68 11.52-.32 3.89 3.16 7.19 3.37 11.09.07 1.38-.27 2.74-.56 4.09-.96 4.54-1.28 9.21-.93 13.83-1.92-.95-4.49 1.25-3.86 3.3-.79.38-1.7.53-2.57.4.91 1.95-1.35 3.82-3.26 4.8-2.96 1.51-5.92 3.03-8.88 4.54-3.33 1.7-7.23 4.6-6.25 8.2M896.38 394.74c2.23.88 4.75.32 7.11.7 3.04.48 5.78 2.82 7.62-.5 1.78-3.22 4.06-1.85 6.7-2.31 3.14-.54 5.59-3.36 8.99-3.09M641.57 389.71c1.75-2.72 2.88-5.84 3.28-9.06.13-1.08.21-2.25.88-3.11.77-.98 2.09-1.3 3.31-1.56l7.64-1.62c4.08-.86 8.88-1.55 11.94 1.28 2.18 2.01 2.79 5.27 4.79 7.46 1.65 1.8 4.37 3.21 4.29 5.65-.03.93-.51 1.9-.15 2.76.36.89 1.42 1.23 2.11 1.89 2.11 2.02.09 5.4-.97 8.11-1.43 3.66-.72 8.06 1.77 11.09.52.63 1.13 1.25 1.3 2.05s-.38 1.81-1.2 1.73c1.24 1.13 2 2.79 2.03 4.47.02 1.29-.35 2.54-.47 3.82-.13 1.42.05 2.85.23 4.26.54 4.19 1.08 8.38 1.73 12.55.52 3.32 1.03 6.99-.8 9.8-1.48 2.27-4.13 3.4-6.41 4.87-4.46 2.87-7.8 7.43-9.21 12.54-1.12 4.07-1.04 8.37-1.93 12.5-.95 4.39-3.07 8.61-6.47 11.54-1.03.89-.43 1.29-1.18 2.43M563.53 397.22c-2.54.23-4.02 3.11-4.08 5.65-.06 2.55.8 5.05.69 7.6-.17 3.81-2.48 7.21-5.24 9.84-2.19 2.08-4.88 4.15-5.19 7.16-.09.85.02 1.77-.42 2.51-.47.79-1.44 1.12-2.07 1.79-2.71 2.87 2.76 7.47 1.35 11.16-.32.85-.98 1.52-1.5 2.26-2.67 3.8-1.52 9.07.51 13.24 1.98 4.08 4.71 7.79 8.02 10.9 1.03.97 2.13 1.9 2.95 3.06 1.77 2.48 2.05 5.69 3.06 8.57.71 2 1.77 3.85 2.83 5.68.59 1.01 1.19 2.05 2.12 2.76.98.75 2.21 1.07 3.33 1.6 6.25 2.97 7.23 11.47 11.82 16.65 2.03 2.29 4.73 3.87 7.19 5.68 4.65 3.42 8.6 7.79 11.52 12.76 3.41 5.81 6.32 7.64 12.26 10.72M304.68 303.14c.42-2.39 2.06-5.01 4.49-4.93 3.92.12 7.73 4.68 9.16 7.93.9 2.05.98 4.43 2.15 6.34.71 1.17 1.78 2.06 2.72 3.05 2.72 2.84 4.53 6.64 4.58 10.58.05 3.93-1.78 7.94-5.05 10.14-3.26 2.2-8.06 2.98-9.32 6.7-.23.68-.32 1.43-.76 2-.61.79-1.69.99-2.59 1.41-2.42 1.12-3.62 3.9-4.02 6.54s-.22 5.36-.91 7.94c-.93 3.49-3.42 6.71-2.98 10.29.54 4.35 2.52 6.04.58 10.26-.66 1.43-1.7 1.34-1.3 3.16.28 1.26 4.38 2.79 2.9 4.33-1.68.32-8.2.43-8.05 3.28.18 3.61 4.61 2.22 6.67 2.39 4.41.37 8.75 2.24 13.22 2.71 5.05.53 10.16.4 15.16 1.28s10.04 2.92 13.19 6.9c-.23 2.49-3.1 3.79-5.58 4.09s-5.25.24-7.12 1.89c-.69.61-1.19 1.4-1.87 2.01-2.23 1.98-6.06 1.76-7.71 4.24-.67 1.01-.83 2.3-1.58 3.25-1.11 1.41-3.12 1.64-4.88 2.01-1.76.37-3.76 1.33-3.95 3.12 3.14 8.85 16.53 12.81 21.91 20.49 3.14 4.49 4.56 9.94 7.02 14.84 5.69 11.36 16.85 19.63 20.92 31.66 2.16 6.4 2.11 13.3 2.04 20.05M530.63 565.02c1.97 3.48 6.02 5.24 8.55 8.33 1.43 1.74 2.33 3.85 3.64 5.67 3.42 4.74 9.18 7.06 14.55 9.37s11.01 5.23 13.58 10.48c1.03 2.12 1.48 4.46 2.1 6.73 1.23 4.45 3.33 8.89 7.07 11.61 1.74 1.27 3.75 2.1 5.65 3.11 2.21 1.18 4.23 2.91 6.28 4.35 3.08 2.16 6.18 4.33 8.81 7.02 2.69 2.76 4.71 6.02 6.8 9.22 1.23 1.88 2.37 4.07 4.47 4.85"/>
        <path class="East_India_Key_svg__st9" d="M734.38 404.9c-4.1 1.04-5.2 6.36-4.83 10.57.08.89.19 1.8.54 2.62.87 2.06 3.08 3.28 5.28 3.67 2.2.39 4.46.1 6.69.01 5.64-.23 11.33.8 16.53 3 4.04 1.71 8.13 4.18 12.47 3.56 1.98-.28 3.91-1.21 5.9-.99 3.47.39 5.54 3.95 7.05 7.09a36.429 36.429 0 01-11.18 4.28c-2.21.45-4.56.73-6.37 2.07-1.81 1.34-2.73 4.22-1.18 5.86 4.25 1.47 8.5 2.94 12.76 4.41.71.25 1.48.54 1.86 1.18.42.7.24 1.6.05 2.39-.88 3.68-1.78 7.36-2.72 11.03"/>
    </g>
    <g id="East_India_Key_svg__text">
        <path d="M266.66 459.97c-.6.09-1.25.14-1.93.14-.69 0-1.32-.08-1.92-.25-.76-.22-1.43-.52-2.01-.92a4.31 4.31 0 01-1.35-1.41c-.33-.55-.53-1.18-.59-1.89-.06-.71.03-1.49.27-2.34.45-1.56 1.26-2.67 2.43-3.31 1.17-.64 2.56-.74 4.15-.28.56.16 1.11.39 1.65.69.54.3 1.1.71 1.68 1.22l-.44 1.54-.12-.03c-.11-.14-.26-.34-.47-.58a5.64 5.64 0 00-.64-.65c-.26-.22-.57-.43-.93-.63s-.78-.37-1.27-.51c-1.1-.31-2.06-.21-2.9.31-.84.52-1.43 1.38-1.77 2.58-.36 1.27-.31 2.35.15 3.24.47.89 1.27 1.5 2.42 1.83.42.12.85.2 1.29.24.44.04.84.03 1.19-.01l.69-2.4-2.62-.75.33-1.14 3.91 1.12-1.2 4.19zM274.33 462.94l-1.23-.35.22-.78c-.13.04-.31.11-.53.19a3.887 3.887 0 01-1.41.21c-.28-.01-.61-.06-.97-.17-.66-.19-1.16-.57-1.5-1.14-.33-.57-.4-1.19-.21-1.87.16-.56.41-.97.74-1.25.34-.28.76-.45 1.25-.52.5-.07 1.08-.05 1.73.06.65.11 1.33.25 2.06.42l.05-.19c.08-.28.1-.53.05-.74-.05-.21-.15-.4-.3-.56-.15-.15-.34-.28-.57-.38s-.49-.2-.75-.27c-.32-.09-.7-.15-1.12-.18-.42-.03-.87-.02-1.34.02l-.07-.02.36-1.25c.26 0 .63.03 1.11.08.48.05.94.14 1.38.27.52.15.95.32 1.31.51s.65.44.87.72c.22.28.35.6.41.96.05.36.01.78-.12 1.25l-1.42 4.98zm-.71-2.15l.58-2.04c-.38-.09-.84-.18-1.36-.28-.52-.1-.95-.15-1.27-.16-.38 0-.71.07-1 .22-.28.15-.47.41-.58.78-.12.42-.08.77.11 1.06s.55.5 1.07.65c.43.12.85.15 1.26.09.42-.07.81-.18 1.19-.32zM282.85 465.38l-1.24-.35 1.2-4.18c.1-.34.17-.66.21-.97.04-.31.04-.56-.02-.75-.06-.22-.18-.4-.36-.55-.18-.15-.43-.27-.76-.36-.34-.1-.71-.12-1.13-.05s-.83.17-1.24.33l-1.57 5.48-1.24-.35 2.1-7.34 1.24.35-.23.82c.48-.21.95-.35 1.41-.41s.91-.03 1.35.09c.79.23 1.33.64 1.61 1.24s.29 1.34.03 2.24l-1.36 4.76zM291.42 466.93c-.36 1.24-.9 2.08-1.63 2.5s-1.69.46-2.86.13a8.5 8.5 0 01-2.15-.96l.36-1.26.07.02c.18.14.47.33.88.57.4.24.83.43 1.26.55.42.12.78.17 1.09.15.3-.02.56-.1.76-.24.2-.13.37-.3.5-.52.14-.22.25-.48.33-.78l.19-.67c-.46.19-.88.31-1.26.36-.38.05-.84 0-1.36-.15-.88-.25-1.48-.77-1.82-1.55-.33-.78-.34-1.75-.01-2.9.18-.63.43-1.15.73-1.56.31-.41.66-.73 1.07-.98a3.1 3.1 0 011.25-.43c.46-.06.89-.03 1.29.09.42.12.77.27 1.03.43.26.17.53.38.8.65l.17-.29 1.16.33-1.85 6.51zm-.9-1.54l1.15-4c-.29-.24-.56-.44-.83-.58-.26-.14-.54-.26-.82-.34-.68-.19-1.28-.12-1.8.22s-.9.95-1.15 1.82c-.24.82-.27 1.49-.1 2s.59.86 1.26 1.05c.36.1.74.14 1.14.1.4-.03.78-.12 1.15-.27zM300.77 466.68l-5.41-1.55c-.13.45-.17.86-.13 1.24.04.37.15.7.32.99.17.28.39.51.68.71.28.19.61.35.99.45.5.14 1.03.19 1.59.13.56-.05.98-.15 1.25-.28l.07.02-.39 1.35c-.47.06-.93.08-1.4.08s-.94-.08-1.42-.21c-1.22-.35-2.07-.95-2.57-1.8-.5-.86-.57-1.89-.22-3.1.34-1.2.94-2.06 1.8-2.58.86-.52 1.82-.62 2.89-.32.99.28 1.67.79 2.04 1.52s.4 1.63.1 2.7l-.19.65zm-.93-1.29c.18-.65.16-1.2-.06-1.65-.22-.45-.66-.76-1.32-.95-.66-.19-1.24-.15-1.75.13-.5.28-.86.7-1.08 1.26l4.21 1.21zM307.48 470.14c-.19.67-.63 1.14-1.3 1.41-.68.27-1.5.27-2.45-.01-.54-.16-1.02-.36-1.44-.62a6.76 6.76 0 01-1.02-.75l.4-1.39.07.02c.31.41.67.76 1.1 1.07.43.31.86.53 1.3.65.54.16.99.19 1.35.1.36-.09.59-.32.7-.7.08-.29.06-.53-.06-.73-.12-.2-.41-.42-.85-.66-.16-.09-.38-.2-.65-.33s-.51-.26-.72-.39c-.6-.35-.98-.74-1.16-1.14s-.19-.85-.06-1.33c.09-.3.23-.57.43-.8.2-.23.46-.42.77-.55.3-.13.66-.21 1.08-.22.41-.01.85.05 1.32.18.44.12.87.31 1.28.54.42.24.75.47 1.01.71l-.38 1.32-.07-.02c-.25-.32-.58-.63-.98-.92-.41-.29-.82-.5-1.26-.62-.45-.13-.86-.15-1.22-.07-.36.08-.59.3-.69.64-.09.3-.06.56.09.76.14.21.4.42.79.63.21.12.45.24.72.38s.49.25.67.35c.54.3.91.65 1.13 1.06.22.42.25.89.1 1.43zM321.57 476.46l-1.69-.48-2.16-4.83-1.83-.52-1.11 3.89-1.3-.37 2.8-9.79 2.74.78c.59.17 1.07.35 1.45.54.37.19.69.43.95.71.29.33.49.69.59 1.08s.08.86-.07 1.38c-.2.71-.55 1.25-1.04 1.62-.49.37-1.08.59-1.77.66l2.44 5.33zm-1.03-7.9c.08-.28.1-.54.07-.79-.04-.25-.15-.48-.33-.69-.15-.18-.35-.33-.59-.46-.24-.12-.54-.24-.89-.34l-1.53-.44-1.06 3.69 1.31.38c.41.12.78.18 1.11.2s.63-.04.9-.18c.25-.13.46-.3.62-.51.15-.2.28-.49.39-.86zM324.75 477.37l-1.57-.45.54-1.87 1.57.45-.54 1.87zM594.67 305.63l-3.64.04.1 8.97-1.35.02-.1-8.97-3.64.04-.01-1.2 8.63-.1.01 1.2zM600.23 312.34c.01.7-.27 1.27-.84 1.73s-1.36.69-2.35.7c-.56.01-1.08-.05-1.56-.18-.47-.13-.87-.27-1.19-.43l-.02-1.44h.07c.41.3.86.54 1.36.71.5.17.98.26 1.43.25.56-.01 1.01-.1 1.32-.29.32-.19.47-.47.47-.87 0-.3-.09-.53-.27-.68s-.51-.28-1-.38c-.18-.04-.42-.08-.72-.14-.29-.05-.56-.11-.8-.17-.67-.17-1.15-.43-1.43-.77s-.43-.76-.44-1.26c0-.31.06-.61.18-.89.13-.28.32-.53.58-.75.25-.22.58-.39.97-.52s.83-.2 1.32-.2c.46-.01.92.05 1.39.15.47.11.86.24 1.17.39l.02 1.37h-.07c-.33-.24-.73-.44-1.2-.6-.47-.16-.93-.24-1.38-.23-.47.01-.87.1-1.19.28-.32.18-.48.45-.48.81 0 .31.1.55.3.71.19.16.5.28.93.38.24.05.5.1.8.15.29.05.54.1.74.14.6.13 1.06.36 1.39.69.33.34.5.78.5 1.34zM608.03 314.45l-1.28.01-.01-.81c-.11.08-.27.19-.46.33s-.38.25-.56.34c-.21.11-.46.2-.74.27s-.6.11-.98.12c-.69.01-1.27-.21-1.76-.66s-.73-1.03-.74-1.73c-.01-.58.11-1.05.36-1.41.25-.36.6-.65 1.05-.86.46-.21 1.02-.36 1.67-.44s1.35-.14 2.1-.19v-.2c0-.29-.06-.53-.16-.72-.11-.19-.25-.34-.45-.45-.18-.1-.4-.17-.66-.2s-.52-.05-.8-.05c-.34 0-.71.05-1.13.15-.41.09-.84.23-1.28.4h-.07l-.02-1.31c.25-.07.61-.15 1.08-.24.47-.09.94-.13 1.4-.14.54-.01 1.01.03 1.41.12.4.08.75.23 1.04.44.29.21.51.48.67.81.15.33.23.74.24 1.23l.08 5.19zm-1.3-1.87l-.02-2.13c-.39.03-.85.07-1.38.12s-.95.12-1.26.21c-.37.11-.66.28-.89.5s-.34.53-.33.92c.01.44.14.77.41.98.27.22.67.32 1.21.32.45-.01.86-.1 1.23-.28s.71-.39 1.03-.64zM616.89 314.35l-1.29.01-.05-4.35c0-.35-.03-.68-.07-.99-.04-.31-.12-.55-.23-.72-.12-.19-.28-.33-.5-.42-.22-.09-.49-.13-.83-.13-.35 0-.72.09-1.1.27s-.75.4-1.09.68l.07 5.7-1.29.02-.09-7.63 1.29-.02.01.85c.4-.34.81-.6 1.24-.79.43-.19.86-.29 1.32-.3.82-.01 1.46.23 1.9.72.44.49.66 1.21.67 2.14l.04 4.96zM625.55 313.38c.01 1.29-.27 2.25-.85 2.86-.58.61-1.48.93-2.7.94-.41 0-.8-.02-1.19-.07s-.77-.13-1.14-.23l-.02-1.31h.07c.21.08.54.18 1 .29.46.12.91.17 1.37.17.44 0 .8-.06 1.08-.17.29-.11.51-.26.67-.45.16-.18.27-.4.33-.65.07-.25.1-.53.09-.84l-.01-.7c-.38.31-.75.55-1.1.71-.35.16-.8.24-1.35.24-.91.01-1.64-.31-2.18-.96-.54-.65-.82-1.58-.83-2.78-.01-.66.08-1.22.26-1.7s.43-.89.74-1.24c.29-.33.65-.58 1.07-.77s.84-.28 1.26-.28c.44-.01.81.04 1.11.12.3.09.62.22.95.4l.08-.33 1.2-.01.09 6.76zm-1.3-1.22l-.05-4.16c-.34-.15-.66-.26-.96-.32s-.59-.09-.88-.09c-.71.01-1.26.25-1.66.73-.4.48-.59 1.17-.58 2.07.01.86.17 1.5.47 1.94.31.44.81.65 1.5.65.37 0 .75-.08 1.12-.23.38-.15.72-.34 1.04-.59zM634.76 310.23a5.1 5.1 0 01-.25 1.7c-.17.51-.42.95-.74 1.31-.3.34-.65.61-1.05.79-.41.19-.84.29-1.29.29-.4 0-.76-.03-1.08-.12-.32-.08-.65-.21-.99-.39l.04 3.2-1.29.01-.11-10.44 1.28-.01.01.8c.34-.29.72-.54 1.14-.73.42-.2.88-.3 1.36-.31.92-.01 1.64.33 2.16 1.02.53.68.8 1.64.81 2.88zm-1.33.05c-.01-.92-.18-1.61-.5-2.06-.32-.45-.8-.67-1.46-.67-.37 0-.74.09-1.11.25-.37.16-.73.38-1.07.64l.05 4.33c.37.16.68.27.94.32.26.06.56.08.89.08.71-.01 1.27-.26 1.67-.74.41-.49.6-1.2.59-2.15zM643.27 310.23c.01 1.24-.29 2.23-.92 2.96-.63.73-1.48 1.1-2.55 1.11-1.08.01-1.94-.34-2.59-1.05-.64-.71-.97-1.69-.99-2.94s.29-2.23.92-2.96c.63-.73 1.48-1.1 2.56-1.11 1.07-.01 1.93.34 2.58 1.05.65.71.98 1.69.99 2.94zm-1.33.01c-.01-.99-.21-1.72-.61-2.2s-.93-.71-1.62-.7c-.7.01-1.24.25-1.62.74-.38.49-.56 1.22-.55 2.21.01.96.21 1.68.61 2.17.39.49.94.73 1.63.72.68-.01 1.22-.26 1.6-.75.39-.49.58-1.22.56-2.19zM654.72 303.27l-4.75 12.77-1.18.01 4.73-12.77 1.2-.01zM669.25 310.61c.01.51-.08.95-.27 1.34-.19.39-.44.71-.76.97-.38.31-.8.52-1.25.66-.46.13-1.04.2-1.74.21l-3.61.04-.12-10.18 3.01-.03c.74-.01 1.3.01 1.67.06s.72.16 1.06.33c.38.19.65.44.82.75s.26.67.27 1.1c.01.48-.11.9-.36 1.24-.24.34-.57.62-.97.83v.05c.69.13 1.24.43 1.64.89.39.45.6 1.03.61 1.74zm-2.33-4.56c0-.25-.05-.45-.13-.62s-.22-.3-.4-.41c-.22-.12-.48-.19-.78-.22s-.68-.04-1.13-.03l-1.61.02.03 2.94 1.75-.02c.42 0 .76-.03 1.01-.08s.48-.14.69-.28.36-.32.45-.54c.08-.21.12-.46.12-.76zm.92 4.63c0-.41-.07-.74-.2-.98s-.35-.44-.68-.61c-.22-.11-.49-.18-.8-.21-.31-.03-.69-.04-1.14-.04l-2.13.02.04 3.79 1.79-.02c.59-.01 1.08-.04 1.45-.11.38-.07.69-.18.93-.35.25-.18.44-.39.55-.61s.19-.52.19-.88zM675.79 307.43h-.07c-.19-.04-.38-.07-.56-.09-.18-.02-.39-.03-.64-.02-.4 0-.78.1-1.14.28s-.72.41-1.06.69l.06 5.42-1.29.01-.09-7.63 1.29-.01.01 1.13c.5-.42.95-.71 1.34-.89.39-.18.78-.27 1.19-.27.22 0 .39 0 .49.01.1.01.25.03.45.06l.02 1.31zM682.76 313.59l-1.28.01-.01-.81c-.11.08-.27.19-.46.33s-.38.25-.56.34c-.21.11-.46.2-.74.27-.28.07-.6.11-.98.12-.69.01-1.27-.21-1.76-.66-.48-.45-.73-1.03-.74-1.73-.01-.58.11-1.05.36-1.41.25-.36.59-.65 1.05-.86.46-.21 1.02-.36 1.67-.44.65-.08 1.35-.14 2.1-.19v-.2c0-.29-.06-.53-.16-.72-.1-.19-.25-.34-.45-.45-.18-.1-.4-.17-.66-.2s-.52-.05-.8-.05c-.34 0-.71.05-1.13.15-.41.09-.84.23-1.28.4h-.07l-.01-1.31c.25-.07.61-.15 1.08-.24.47-.09.94-.13 1.4-.14.54-.01 1.01.03 1.41.12.4.08.75.23 1.04.44.29.21.51.48.67.81.15.33.23.74.24 1.23l.07 5.19zm-1.3-1.87l-.02-2.13c-.39.03-.85.07-1.38.12-.53.05-.95.12-1.26.21-.37.11-.66.27-.89.5-.23.22-.34.53-.33.92 0 .44.14.77.41.98.27.22.67.32 1.21.32.45-.01.86-.1 1.23-.28.37-.17.72-.39 1.03-.64zM691.62 313.48l-1.28.02-.05-4.35c0-.35-.03-.68-.07-.99-.04-.31-.12-.55-.23-.72-.12-.19-.28-.33-.5-.42s-.49-.13-.84-.13-.72.09-1.1.27c-.38.18-.74.4-1.09.68l.07 5.7-1.29.01-.12-10.64 1.29-.01.04 3.85c.4-.34.81-.6 1.24-.79.43-.19.87-.29 1.32-.3.82-.01 1.46.23 1.89.72.44.49.66 1.2.67 2.14l.05 4.96zM705.24 313.33l-1.28.01-.05-4.35c0-.33-.02-.65-.05-.95-.03-.3-.1-.55-.2-.73-.11-.19-.26-.34-.46-.44-.2-.1-.48-.15-.85-.14-.36 0-.72.1-1.08.28-.36.18-.72.42-1.07.7.01.1.03.23.04.37.01.14.02.28.02.41l.06 4.89-1.29.01-.05-4.35c0-.34-.02-.66-.06-.96-.03-.3-.1-.54-.2-.73-.11-.19-.26-.34-.46-.44-.2-.1-.48-.14-.85-.14-.35 0-.7.09-1.05.27-.35.18-.7.4-1.05.68l.07 5.7-1.29.01-.09-7.63 1.29-.01.01.85c.4-.34.79-.6 1.19-.79.4-.19.82-.29 1.27-.29.52-.01.96.1 1.33.31.37.21.64.51.82.9.51-.44.98-.76 1.41-.96.43-.2.88-.3 1.37-.31.84-.01 1.46.24 1.86.74s.61 1.21.62 2.12l.07 4.97zM713.64 313.23l-1.28.01-.01-.81c-.11.08-.27.19-.46.33s-.38.25-.56.34c-.21.11-.46.2-.74.27-.28.07-.6.11-.98.12-.69.01-1.27-.21-1.76-.66-.48-.45-.73-1.03-.74-1.73-.01-.58.11-1.05.36-1.41s.59-.65 1.05-.86c.46-.21 1.02-.36 1.67-.44.65-.08 1.35-.14 2.1-.19v-.2c0-.29-.06-.53-.16-.72-.11-.19-.25-.34-.45-.45-.18-.1-.4-.17-.66-.2s-.52-.05-.8-.05c-.34 0-.71.05-1.13.15-.41.09-.84.23-1.28.4h-.07l-.01-1.31c.25-.07.61-.15 1.08-.24.47-.09.94-.13 1.4-.14.54-.01 1.01.03 1.41.12.4.08.75.23 1.04.44.29.21.51.48.67.81.15.33.23.74.24 1.23l.07 5.19zm-1.3-1.87l-.02-2.13c-.39.03-.85.07-1.38.12-.53.05-.95.12-1.26.21-.37.11-.66.27-.89.5-.23.22-.34.53-.33.92 0 .44.14.77.41.98.27.22.67.32 1.21.32.45-.01.86-.1 1.23-.28.37-.17.72-.39 1.03-.64zM722.79 309.21c.01.62-.08 1.19-.25 1.7s-.42.95-.74 1.31c-.3.34-.65.61-1.05.79-.41.19-.84.29-1.29.29-.4 0-.76-.03-1.08-.12-.32-.08-.65-.21-.99-.39l.04 3.2-1.29.01-.12-10.45 1.29-.01.01.8c.34-.29.72-.54 1.14-.73s.88-.3 1.36-.31c.92-.01 1.64.33 2.16 1.02.53.7.8 1.66.81 2.89zm-1.32.05c-.01-.92-.18-1.61-.5-2.06s-.81-.67-1.46-.67c-.37 0-.74.09-1.11.25-.37.16-.73.38-1.07.64l.05 4.33c.37.16.68.27.94.32s.56.08.89.08c.72-.01 1.27-.26 1.67-.74.41-.48.6-1.2.59-2.15zM731.17 313.03l-1.29.01-.01-.85c-.43.35-.84.61-1.24.8-.39.19-.83.28-1.31.29-.8.01-1.43-.23-1.88-.71-.45-.48-.68-1.2-.69-2.15l-.06-4.96 1.28-.01.05 4.35c0 .39.03.72.07.99.04.28.12.51.24.7.12.2.29.34.48.43.2.09.48.13.86.13.33 0 .7-.09 1.09-.27.39-.18.76-.4 1.1-.68l-.07-5.7 1.29-.01.09 7.64zM737.66 312.88c-.24.07-.5.12-.79.17s-.54.07-.76.07c-.78.01-1.37-.19-1.78-.61-.41-.42-.62-1.08-.63-2.01l-.05-4.06-.87.01-.01-1.08.87-.01-.03-2.19 1.29-.01.03 2.19 2.65-.03.01 1.08-2.65.03.04 3.48c0 .4.02.71.04.94.02.23.09.44.2.63.1.18.24.31.42.4.18.08.44.12.8.12.21 0 .43-.04.66-.1.23-.06.39-.12.49-.16h.07v1.14zM743.91 306.65h-.07c-.19-.04-.38-.07-.56-.09-.18-.02-.39-.03-.64-.02-.4 0-.78.1-1.14.28s-.72.41-1.06.69l.06 5.42-1.29.01-.09-7.63 1.28-.01.01 1.13c.5-.42.95-.71 1.34-.89.39-.18.78-.27 1.19-.27.22 0 .39 0 .49.01.1.01.25.03.45.06l.03 1.31zM750.88 312.8l-1.28.01-.01-.81c-.11.08-.27.19-.46.33s-.38.25-.56.34c-.21.11-.46.2-.74.27-.28.07-.6.11-.98.12-.69.01-1.27-.21-1.76-.66s-.73-1.03-.74-1.73c-.01-.58.11-1.05.36-1.41.25-.36.6-.65 1.05-.86.46-.21 1.02-.36 1.67-.44.65-.08 1.35-.14 2.1-.19v-.2c0-.29-.06-.53-.16-.72-.1-.19-.25-.34-.45-.45-.18-.1-.4-.17-.66-.2s-.52-.05-.8-.05c-.34 0-.71.05-1.13.15s-.84.23-1.28.4h-.07l-.02-1.31c.25-.07.61-.15 1.08-.24.47-.09.94-.13 1.4-.14.54-.01 1.01.03 1.41.12.4.08.75.23 1.04.44.29.21.51.48.67.81.15.33.23.74.24 1.23l.08 5.19zm-1.3-1.87l-.02-2.13c-.39.03-.85.07-1.38.12-.53.05-.95.12-1.26.21-.37.11-.66.27-.89.5-.23.22-.34.53-.33.92.01.44.14.77.41.98.27.22.67.32 1.21.32.45-.01.86-.1 1.23-.28.37-.17.71-.39 1.03-.64z"/>
        <g>
            <path d="M513.51 351.54h-1.35v-8.77l-2.83 5.97h-.81l-2.81-5.97v8.77h-1.26v-10.18h1.85l2.71 5.67 2.62-5.67h1.88v10.18zM520.11 351.47c-.24.06-.5.12-.79.16s-.54.06-.76.06c-.78 0-1.37-.21-1.78-.63s-.61-1.09-.61-2.02v-4.06h-.87v-1.08h.87v-2.19h1.29v2.19h2.65v1.08h-2.65v3.48c0 .4.01.71.03.94s.08.44.19.63c.1.18.24.32.41.4s.44.13.8.13c.21 0 .43-.03.66-.09s.39-.11.49-.15h.07v1.15zM523.76 351.54h-1.63v-1.95h1.63v1.95zM538.48 351.54h-6.71v-10.18h6.71v1.2h-5.35v2.79h5.35v1.2h-5.35v3.78h5.35v1.21zM547.13 343.91l-3.09 7.64h-1.29l-3.07-7.64h1.39l2.37 6.08 2.34-6.08h1.35zM555.08 347.86h-5.63c0 .47.07.88.21 1.23s.33.63.58.86c.24.22.52.38.84.49s.68.16 1.08.16c.52 0 1.04-.1 1.57-.31s.9-.41 1.12-.61h.07v1.4c-.43.18-.88.33-1.33.46s-.93.18-1.42.18c-1.27 0-2.26-.34-2.97-1.03s-1.07-1.66-1.07-2.92c0-1.25.34-2.24 1.02-2.97s1.58-1.1 2.69-1.1c1.03 0 1.82.3 2.38.9s.84 1.46.84 2.56v.7zm-1.25-.99c0-.67-.17-1.2-.51-1.57s-.84-.55-1.53-.55c-.69 0-1.24.2-1.64.61s-.64.91-.69 1.51h4.37zM561.79 345.31h-.07c-.19-.05-.38-.08-.56-.1s-.39-.03-.64-.03c-.4 0-.78.09-1.15.26s-.72.4-1.07.68v5.42h-1.29v-7.64h1.29v1.13c.51-.41.96-.7 1.35-.87s.79-.26 1.19-.26c.22 0 .39.01.49.02s.25.03.45.06v1.33zM569.39 347.86h-5.63c0 .47.07.88.21 1.23s.33.63.58.86c.24.22.52.38.84.49s.68.16 1.08.16c.52 0 1.04-.1 1.57-.31s.9-.41 1.12-.61h.07v1.4c-.43.18-.88.33-1.33.46-.45.12-.93.18-1.42.18-1.27 0-2.26-.34-2.97-1.03s-1.07-1.66-1.07-2.92c0-1.25.34-2.24 1.02-2.97s1.58-1.1 2.69-1.1c1.03 0 1.82.3 2.38.9.56.6.84 1.46.84 2.56v.7zm-1.25-.99c0-.67-.17-1.2-.51-1.57s-.84-.55-1.53-.55c-.69 0-1.24.2-1.64.61s-.64.91-.69 1.51h4.37zM576.8 349.34c0 .7-.29 1.27-.87 1.72s-1.36.67-2.36.67c-.57 0-1.08-.07-1.56-.2s-.87-.28-1.19-.44v-1.44h.07c.41.31.86.55 1.35.73.5.18.97.27 1.43.27.56 0 1.01-.09 1.33-.27.32-.18.48-.47.48-.86 0-.3-.09-.53-.26-.68-.17-.15-.51-.29-1-.4-.18-.04-.42-.09-.71-.14s-.56-.11-.8-.18c-.67-.18-1.15-.44-1.43-.78s-.42-.77-.42-1.27c0-.31.06-.61.19-.89s.33-.53.59-.75c.26-.21.58-.38.97-.51s.83-.19 1.32-.19c.46 0 .92.06 1.38.17s.86.25 1.17.41v1.37h-.07c-.33-.24-.73-.45-1.2-.61-.47-.17-.93-.25-1.38-.25-.47 0-.87.09-1.19.27-.32.18-.48.45-.48.8 0 .31.1.55.29.71.19.16.5.29.93.39.24.05.5.11.8.16s.54.1.73.15c.6.14 1.06.37 1.38.7.35.34.51.78.51 1.34zM582.6 351.47c-.24.06-.5.12-.79.16s-.54.06-.76.06c-.78 0-1.37-.21-1.78-.63-.41-.42-.61-1.09-.61-2.02v-4.06h-.87v-1.08h.87v-2.19h1.29v2.19h2.65v1.08h-2.65v3.48c0 .4.01.71.03.94.02.23.08.44.19.63.1.18.24.32.41.4s.44.13.8.13c.21 0 .43-.03.66-.09.23-.06.39-.11.49-.15h.07v1.15z"/>
        </g>
        <g>
            <path d="M236.51 215.54h-1.35v-8.77l-2.83 5.97h-.81l-2.81-5.97v8.77h-1.26v-10.18h1.85l2.71 5.67 2.62-5.67h1.88v10.18zM243.11 215.47c-.24.06-.5.12-.79.16s-.54.06-.76.06c-.78 0-1.37-.21-1.78-.63s-.61-1.09-.61-2.02v-4.06h-.87v-1.08h.87v-2.19h1.29v2.19h2.65v1.08h-2.65v3.48c0 .4.01.71.03.94s.08.44.19.63c.1.18.24.32.41.4s.44.13.8.13c.21 0 .43-.03.66-.09s.39-.11.49-.15h.07v1.15zM246.76 215.54h-1.63v-1.95h1.63v1.95zM262.96 215.54h-1.76l-4.03-4.53-1.01 1.08v3.45h-1.35v-10.18h1.35v5.31l4.94-5.31h1.64l-4.55 4.79 4.77 5.39zM269.9 215.54h-1.28v-.81c-.11.08-.27.19-.46.32a3.708 3.708 0 01-1.3.59c-.28.07-.6.11-.98.11-.69 0-1.27-.23-1.75-.68s-.72-1.04-.72-1.74c0-.58.12-1.05.37-1.4s.6-.64 1.06-.84c.46-.21 1.02-.34 1.67-.42s1.35-.13 2.1-.16v-.2c0-.29-.05-.53-.15-.72s-.25-.34-.44-.45c-.18-.1-.4-.18-.66-.21s-.52-.05-.8-.05c-.34 0-.71.04-1.13.13s-.84.22-1.29.39h-.07v-1.31c.25-.07.61-.14 1.09-.23s.94-.12 1.4-.12c.54 0 1.01.04 1.4.13s.74.24 1.04.45c.29.21.51.48.66.81s.23.75.23 1.24v5.17zm-1.28-1.88v-2.13c-.39.02-.85.06-1.38.1s-.95.11-1.26.2c-.37.1-.67.27-.9.49s-.34.53-.34.91c0 .44.13.77.4.99s.67.33 1.21.33c.45 0 .86-.09 1.24-.26s.71-.38 1.03-.63zM273.75 206.63h-1.45v-1.33h1.45v1.33zm-.08 8.91h-1.29v-7.64h1.29v7.64zM277.51 215.54h-1.29V204.9h1.29v10.64zM285.99 215.54h-1.28v-.81c-.11.08-.27.19-.46.32a3.708 3.708 0 01-1.3.59c-.28.07-.6.11-.98.11-.69 0-1.27-.23-1.75-.68s-.72-1.04-.72-1.74c0-.58.12-1.05.37-1.4s.6-.64 1.06-.84c.46-.21 1.02-.34 1.67-.42s1.35-.13 2.1-.16v-.2c0-.29-.05-.53-.15-.72s-.25-.34-.44-.45c-.18-.1-.4-.18-.66-.21s-.52-.05-.8-.05c-.34 0-.71.04-1.13.13s-.84.22-1.29.39h-.07v-1.31c.25-.07.61-.14 1.09-.23s.94-.12 1.4-.12c.54 0 1.01.04 1.4.13s.74.24 1.04.45c.29.21.51.48.66.81s.23.75.23 1.24v5.17zm-1.28-1.88v-2.13c-.39.02-.85.06-1.38.1s-.95.11-1.26.2c-.37.1-.67.27-.9.49s-.34.53-.34.91c0 .44.13.77.4.99s.67.33 1.21.33c.45 0 .86-.09 1.24-.26s.71-.38 1.03-.63zM293.92 213.34c0 .7-.29 1.27-.86 1.72s-1.36.67-2.36.67c-.56 0-1.08-.07-1.56-.2s-.87-.28-1.19-.44v-1.44h.07c.41.31.86.55 1.35.73s.97.27 1.43.27c.56 0 1.01-.09 1.33-.27s.48-.47.48-.86c0-.3-.09-.53-.26-.68s-.51-.29-1-.4c-.18-.04-.42-.09-.71-.14s-.56-.11-.8-.18c-.67-.18-1.15-.44-1.43-.78s-.42-.77-.42-1.27c0-.31.06-.61.19-.89s.33-.53.59-.75c.26-.21.58-.38.97-.51s.83-.19 1.32-.19c.46 0 .92.06 1.38.17s.86.25 1.17.41v1.37h-.07c-.33-.24-.73-.45-1.2-.61s-.93-.25-1.38-.25c-.47 0-.87.09-1.19.27s-.49.45-.49.8c0 .31.1.55.29.71.19.16.5.29.93.39.24.05.5.11.8.16s.54.1.73.15c.6.14 1.06.37 1.38.7.35.34.51.78.51 1.34z"/>
        </g>
        <g>
            <path d="M208.38 400.45l-.64-1.63 2.74-5.41-1.38-.54-3.21 1.27-.5-1.26 9.47-3.73.5 1.26-4.94 1.95 6.75 2.65.6 1.53-6.12-2.47-3.27 6.38zM210.92 406.91l-.47-1.19.76-.3c-.11-.08-.27-.18-.47-.31a3.737 3.737 0 01-1.04-.99c-.17-.23-.32-.52-.46-.87-.25-.64-.25-1.27-.01-1.88.25-.61.7-1.05 1.36-1.31.54-.21 1.02-.27 1.44-.17.42.1.82.33 1.18.68.36.36.7.83 1 1.41.31.58.61 1.21.92 1.89l.18-.07c.27-.11.48-.24.62-.41.14-.17.23-.36.26-.58.03-.21.02-.44-.04-.69-.06-.25-.14-.51-.24-.76-.12-.31-.3-.65-.54-1-.24-.35-.51-.7-.83-1.05l-.03-.06 1.21-.48c.16.21.36.52.61.93.25.41.46.83.63 1.26.2.5.33.95.39 1.36.06.4.05.78-.04 1.13-.09.34-.26.65-.52.91-.25.26-.61.48-1.07.66l-4.8 1.89zm1.28-1.88l1.98-.78c-.17-.36-.37-.77-.6-1.25-.24-.48-.45-.84-.65-1.1-.23-.3-.49-.52-.78-.65-.29-.13-.61-.13-.97.02-.41.16-.67.4-.77.73-.11.33-.06.74.14 1.25.17.42.4.77.7 1.05.28.28.61.52.95.73zM219.38 411.35l-.02-.06c-.03-.19-.07-.38-.11-.55s-.12-.38-.21-.61c-.15-.37-.37-.69-.67-.97-.3-.28-.64-.53-1.02-.74l-5.04 1.99-.47-1.2 7.1-2.8.47 1.2-1.05.41c.57.32 1 .64 1.31.94s.53.64.68 1.02c.08.21.14.36.16.46.03.1.06.25.11.44l-1.24.47zM216.36 420.71l-.47-1.2 4.04-1.6c.33-.13.62-.27.9-.42.27-.15.47-.31.59-.47.14-.18.21-.38.22-.61.01-.23-.05-.51-.18-.83-.13-.33-.34-.64-.65-.93-.3-.29-.64-.55-1.02-.78l-5.3 2.09-.47-1.2 7.1-2.8.47 1.2-.79.31c.46.25.85.54 1.18.87.33.33.58.71.75 1.12.3.77.3 1.44 0 2.03s-.89 1.05-1.76 1.39l-4.61 1.83zM219.45 428.53l-.47-1.19.76-.3c-.11-.08-.27-.18-.47-.31a3.737 3.737 0 01-1.04-.99c-.17-.23-.32-.52-.46-.87-.25-.64-.25-1.27-.01-1.88.25-.61.7-1.05 1.36-1.31.54-.21 1.02-.27 1.44-.17.42.1.82.33 1.18.68.36.36.7.83 1 1.41.31.58.61 1.21.92 1.89l.18-.07c.27-.11.48-.24.62-.41.14-.17.23-.36.26-.58.03-.21.02-.44-.04-.69-.06-.25-.14-.51-.24-.76-.12-.31-.3-.65-.54-1s-.51-.7-.83-1.05l-.03-.06 1.21-.48c.16.21.36.52.61.93s.46.83.63 1.26c.2.5.33.95.39 1.36.06.4.05.78-.04 1.13-.09.34-.26.65-.52.91-.25.26-.61.48-1.07.66l-4.8 1.89zm1.28-1.88l1.98-.78c-.17-.36-.37-.77-.6-1.25-.24-.48-.45-.84-.65-1.1-.23-.3-.49-.52-.78-.65s-.61-.12-.97.02c-.41.16-.67.4-.77.73-.11.33-.06.74.14 1.25.17.42.4.77.7 1.05.28.28.6.52.95.73zM220.83 432.04l-.47-1.2 9.89-3.9.47 1.2-9.89 3.9zM222.24 435.61l-.47-1.2 7.1-2.8.47 1.2-7.1 2.8zm8.33-3.19l-.53-1.35 1.24-.49.53 1.35-1.24.49zM228.11 450.49l-.64-1.63 2.52-4.65-.7-1.77-3.76 1.48-.5-1.26 9.47-3.74 1.05 2.65c.23.57.38 1.06.45 1.47.08.41.08.81.01 1.19-.08.43-.25.8-.5 1.13s-.63.58-1.14.78c-.68.27-1.32.32-1.92.16s-1.13-.5-1.6-1.01l-2.74 5.2zm5.64-5.63c.27-.11.49-.25.67-.43.17-.18.29-.41.34-.68.05-.23.05-.48 0-.75s-.14-.57-.28-.91l-.58-1.48-3.57 1.41.5 1.27c.16.4.33.73.52 1s.42.47.69.6c.25.12.51.18.78.18s.58-.07.93-.21zM229.33 453.56l-.6-1.52 1.81-.71.6 1.52-1.81.71z"/>
        </g>
        <g>
            <path d="M358.19 461.46c-.44-.42-.87-.91-1.29-1.45-.42-.54-.74-1.1-.96-1.67-.29-.74-.46-1.45-.5-2.15s.06-1.34.3-1.93c.24-.6.62-1.14 1.14-1.62.52-.48 1.2-.88 2.02-1.21 1.51-.6 2.88-.63 4.11-.09 1.22.54 2.14 1.58 2.75 3.12.21.54.36 1.11.46 1.73s.11 1.3.06 2.08l-1.49.59-.05-.11c.05-.17.11-.42.17-.73s.11-.62.12-.9c.02-.34-.01-.72-.07-1.12s-.18-.84-.37-1.31c-.42-1.06-1.09-1.76-2.01-2.11-.92-.35-1.97-.29-3.13.16-1.23.48-2.05 1.18-2.48 2.09-.43.91-.42 1.92.02 3.03.16.41.36.8.6 1.17s.48.69.73.94l2.32-.92-1-2.54 1.11-.44 1.49 3.78-4.05 1.61zM360.5 469.36l-.47-1.19.76-.3c-.11-.08-.27-.18-.47-.31a3.737 3.737 0 01-1.04-.99c-.17-.23-.32-.52-.46-.87-.25-.64-.25-1.27-.01-1.88s.7-1.05 1.36-1.31c.54-.21 1.02-.27 1.44-.17s.81.33 1.18.68c.36.36.7.83 1 1.4.31.58.61 1.21.92 1.89l.18-.07c.27-.11.48-.24.62-.41.14-.17.23-.36.26-.58.03-.21.02-.44-.04-.69s-.14-.51-.24-.76c-.12-.31-.3-.65-.54-1-.24-.35-.51-.71-.83-1.05l-.03-.06 1.21-.48c.16.21.36.52.61.93s.46.83.63 1.26c.2.5.33.95.39 1.36.06.4.05.78-.04 1.13-.09.34-.26.65-.52.91-.25.26-.61.48-1.07.66l-4.8 1.9zm1.28-1.88l1.98-.78c-.17-.36-.37-.77-.6-1.25-.24-.48-.45-.84-.65-1.1-.23-.3-.49-.52-.78-.65-.29-.13-.61-.12-.97.02-.41.16-.66.4-.77.73-.11.33-.06.74.14 1.25.17.42.4.77.7 1.05.28.28.6.53.95.73zM363.75 477.6l-.47-1.2 4.04-1.6c.33-.13.62-.27.9-.42.27-.15.47-.31.59-.47.14-.18.21-.38.22-.61.01-.23-.05-.51-.18-.83-.13-.33-.34-.64-.64-.93-.3-.29-.64-.55-1.02-.78l-5.3 2.09-.47-1.2 7.1-2.8.47 1.2-.79.31c.46.25.85.54 1.18.87.33.33.58.71.74 1.12.3.77.3 1.44 0 2.03-.3.58-.89 1.05-1.76 1.39l-4.61 1.83zM366.93 485.67l-.47-1.2.74-.29c-.43-.23-.8-.49-1.12-.8-.31-.31-.56-.68-.73-1.12-.33-.85-.27-1.65.18-2.41.46-.76 1.26-1.36 2.42-1.82.6-.24 1.17-.36 1.71-.38.54-.01 1.03.06 1.48.22a3.16 3.16 0 011.86 1.81c.15.37.24.72.27 1.04.04.32.03.67-.01 1.05l3.08-1.21.47 1.2-9.88 3.91zm1.27-1.89l4.08-1.61c.02-.38 0-.71-.04-.98-.04-.28-.13-.56-.25-.87-.26-.67-.7-1.1-1.32-1.29s-1.35-.12-2.2.22c-.84.33-1.43.73-1.75 1.19-.32.46-.36 1.01-.11 1.65.13.34.35.65.63.94.29.3.61.55.96.75zM370.03 493.54l-.47-1.19.76-.3c-.11-.08-.27-.18-.47-.31a3.737 3.737 0 01-1.04-.99c-.17-.23-.32-.52-.46-.87-.25-.64-.25-1.27-.01-1.88.25-.61.7-1.05 1.36-1.31.54-.21 1.02-.27 1.44-.17.42.1.82.33 1.17.68.36.36.7.83 1 1.41.31.58.61 1.21.92 1.89l.18-.07c.27-.11.48-.24.62-.41.14-.17.23-.36.26-.58.03-.21.02-.44-.04-.69-.06-.25-.14-.51-.24-.76-.12-.31-.3-.65-.54-1-.23-.35-.51-.71-.83-1.05l-.02-.06 1.21-.48c.16.21.36.52.61.93.25.41.46.83.63 1.26.2.5.33.95.39 1.36.06.4.05.78-.04 1.13-.09.34-.26.65-.52.91s-.61.48-1.07.66l-4.8 1.89zm1.28-1.88l1.98-.78c-.17-.36-.37-.77-.6-1.25-.24-.48-.45-.84-.65-1.1-.23-.31-.49-.52-.78-.65-.29-.13-.61-.12-.97.02-.41.16-.67.41-.77.73-.11.33-.06.74.13 1.25.17.42.4.77.7 1.05s.62.53.96.73zM373.48 502.29l-.62-1.58 1.99-4.08-1.04-.48-2.37.94-.47-1.2 9.89-3.9.47 1.2-6.35 2.5 4.92 2.05.59 1.51-4.58-2.01-2.43 5.05zM378.91 516.06l-.64-1.63 2.52-4.65-.7-1.77-3.76 1.48-.5-1.26 9.47-3.74 1.05 2.65c.23.57.38 1.06.45 1.47.08.41.08.81.01 1.19-.08.43-.25.8-.5 1.13-.25.32-.63.58-1.14.78-.68.27-1.32.32-1.92.16-.6-.16-1.13-.5-1.6-1.01l-2.74 5.2zm5.65-5.63c.27-.11.49-.25.67-.43s.29-.41.34-.68c.05-.23.05-.48 0-.75s-.14-.57-.28-.91l-.58-1.48-3.57 1.41.5 1.27c.16.4.33.73.52 1s.42.47.69.6c.25.12.51.18.78.18.26 0 .57-.07.93-.21zM380.13 519.14l-.6-1.52 1.81-.71.6 1.52-1.81.71z"/>
        </g>
        <g>
            <path d="M453.1 500.72l-1.14 1.34-6.06.14.17 1.47 2.63 2.23-.88 1.03-7.76-6.59.88-1.03 4.05 3.44-.85-7.21 1.06-1.25.71 6.56 7.19-.13zM455.01 492.58c.95.81 1.49 1.68 1.63 2.64s-.14 1.84-.83 2.65c-.7.82-1.53 1.24-2.49 1.26s-1.92-.37-2.86-1.18c-.95-.81-1.49-1.68-1.63-2.64-.14-.95.14-1.84.84-2.66.69-.82 1.52-1.23 2.48-1.25.95-.02 1.91.38 2.86 1.18zm-.86 1.01c-.75-.64-1.44-.97-2.06-.98-.62-.02-1.15.24-1.59.76-.45.53-.62 1.1-.5 1.7.12.6.55 1.23 1.31 1.87.73.62 1.41.94 2.04.97.63.02 1.17-.23 1.61-.76.44-.52.6-1.09.48-1.7-.12-.61-.55-1.23-1.29-1.86zM461.06 487.95c.53.45.78 1.04.75 1.77-.03.73-.37 1.47-1.02 2.23-.37.43-.75.78-1.16 1.06-.41.27-.78.48-1.1.62l-1.1-.93.04-.05c.5-.11.97-.3 1.43-.56.46-.26.84-.57 1.13-.92.37-.43.58-.83.65-1.19.07-.36-.05-.67-.35-.92-.23-.19-.46-.28-.69-.24s-.55.2-.95.5c-.15.11-.34.26-.57.45-.23.19-.45.35-.66.5-.57.4-1.08.59-1.52.58-.44-.01-.86-.18-1.24-.5-.24-.2-.42-.44-.55-.72s-.19-.59-.19-.93c0-.33.08-.69.24-1.07.16-.38.4-.76.71-1.13a6.172 6.172 0 012.08-1.58l1.05.89-.04.05c-.4.09-.81.27-1.24.52-.43.25-.79.55-1.08.89-.3.36-.49.72-.56 1.08-.07.36.03.66.3.89.24.2.48.28.73.24.25-.04.54-.19.9-.46.19-.15.41-.31.64-.5.23-.19.43-.34.59-.46.49-.37.97-.57 1.43-.6.48-.04.92.13 1.35.49zM458.02 481.15l-.94 1.1-1.02-.86.94-1.1 1.02.86zm6.74 5.83l-.83.98-5.82-4.94.83-.98 5.82 4.94zM475.11 474.79l-1.14 1.34-5.29-.02-1.23 1.45 3.08 2.62-.88 1.03-7.76-6.59 1.85-2.17c.4-.47.76-.83 1.09-1.09.33-.26.67-.45 1.04-.57.42-.13.83-.16 1.23-.09s.81.28 1.23.63c.56.48.91 1.01 1.05 1.61.14.6.09 1.23-.13 1.89l5.86-.04zm-7.62-2.32c-.22-.19-.45-.32-.69-.38s-.49-.06-.76.02c-.23.06-.45.18-.66.35-.21.17-.44.4-.68.67l-1.03 1.21 2.93 2.49.88-1.04c.28-.33.49-.64.64-.93.15-.29.22-.59.21-.89-.01-.28-.08-.54-.21-.77s-.34-.48-.63-.73zM477.25 472.27l-1.06 1.25-1.49-1.26 1.06-1.25 1.49 1.26z"/>
        </g>
        <g>
            <path d="M177.75 488.36l-5.88.17.09 3.28 5.05-.14.04 1.37-5.05.14.16 5.6-1.55.04-.33-11.63 7.43-.21.04 1.38zM186.61 494.01c.04 1.42-.29 2.55-1 3.4-.71.84-1.67 1.28-2.89 1.32-1.23.03-2.23-.35-2.98-1.15-.75-.8-1.14-1.91-1.18-3.34-.04-1.42.29-2.55.99-3.4.7-.85 1.67-1.29 2.91-1.32 1.22-.03 2.21.35 2.96 1.15.75.81 1.15 1.92 1.19 3.34zm-1.51.05c-.03-1.13-.28-1.96-.73-2.5-.46-.54-1.08-.79-1.87-.77-.8.02-1.41.31-1.83.88-.42.56-.62 1.41-.59 2.54.03 1.09.28 1.92.73 2.47.46.55 1.08.82 1.87.8.78-.02 1.39-.32 1.82-.89.43-.59.63-1.43.6-2.53zM194.25 491.03h-.08c-.22-.05-.43-.08-.64-.1-.21-.02-.45-.02-.73-.01-.45.01-.89.13-1.3.34-.42.21-.81.48-1.2.81l.18 6.19-1.47.04-.25-8.72 1.47-.04.04 1.29c.57-.49 1.07-.83 1.51-1.04.44-.21.89-.32 1.35-.33.25-.01.44-.01.56 0 .11.01.29.03.52.06l.04 1.51zM203.01 493.7l-6.43.18c.02.54.11 1 .28 1.4.17.39.4.71.69.96.28.24.6.42.98.54.38.11.79.17 1.24.15.59-.02 1.19-.15 1.78-.41.59-.25 1.02-.5 1.27-.73h.08l.05 1.6c-.49.22-.99.41-1.5.57a6.1 6.1 0 01-1.62.26c-1.45.04-2.59-.32-3.42-1.08-.83-.76-1.27-1.86-1.31-3.3-.04-1.43.32-2.57 1.07-3.43.75-.86 1.77-1.31 3.04-1.34 1.18-.03 2.09.28 2.75.95.66.67 1 1.64 1.04 2.9l.01.78zm-1.46-1.09c-.03-.77-.24-1.36-.63-1.77-.4-.41-.98-.61-1.76-.58-.79.02-1.41.27-1.86.75-.45.48-.7 1.06-.74 1.75l4.99-.15zM206.84 497.8l-1.47.04-.34-12.15 1.47-.04.34 12.15zM216.53 497.53l-1.46.04-.03-.93c-.13.09-.3.22-.52.39a4.092 4.092 0 01-1.47.72c-.32.09-.69.14-1.11.15-.79.02-1.46-.22-2.02-.72s-.85-1.16-.88-1.97c-.02-.66.11-1.2.38-1.62.27-.42.67-.75 1.19-1 .52-.25 1.16-.43 1.9-.53.74-.1 1.54-.19 2.39-.25l-.01-.23c-.01-.33-.08-.61-.2-.82-.12-.22-.3-.38-.52-.5a2.06 2.06 0 00-.76-.22 5.751 5.751 0 00-2.2.15c-.47.11-.96.28-1.46.48h-.08l-.04-1.49c.28-.09.69-.18 1.23-.29.54-.11 1.07-.17 1.6-.19.61-.02 1.15.02 1.61.11.46.09.86.25 1.2.49.33.23.59.53.78.91.18.38.28.84.3 1.41l.18 5.91zm-1.52-2.11l-.07-2.43c-.45.04-.97.09-1.58.16-.61.07-1.08.16-1.43.27-.42.13-.75.33-1.01.59-.25.26-.37.61-.36 1.05.01.5.18.87.48 1.12.31.24.77.36 1.39.34.52-.01.98-.13 1.41-.34.42-.22.81-.47 1.17-.76zM226.65 497.24l-1.47.04-.14-4.97c-.01-.4-.05-.78-.1-1.13-.06-.35-.15-.62-.28-.82a1.23 1.23 0 00-.58-.47c-.25-.1-.57-.14-.96-.13-.4.01-.82.12-1.25.33-.43.21-.84.47-1.24.79l.18 6.51-1.47.04-.25-8.72 1.47-.04.03.97c.45-.39.91-.7 1.4-.93.48-.23.98-.35 1.5-.36.94-.03 1.67.24 2.18.79.51.55.78 1.36.81 2.43l.17 5.67zM236.55 496.96l-1.47.04-.03-.91c-.41.38-.84.67-1.3.89-.45.22-.95.33-1.48.35-1.04.03-1.88-.35-2.51-1.13-.63-.78-.97-1.89-1.01-3.31-.02-.74.07-1.4.26-1.98.19-.58.47-1.08.81-1.5.34-.41.75-.72 1.21-.94s.95-.34 1.46-.35c.46-.01.87.02 1.22.11.36.09.73.23 1.13.42l-.11-3.78 1.47-.04.35 12.13zm-1.53-2.11l-.14-5.01c-.4-.17-.76-.28-1.07-.34-.31-.06-.66-.08-1.03-.07-.82.02-1.46.33-1.9.91-.44.59-.65 1.4-.62 2.46.03 1.04.23 1.82.6 2.35s.94.78 1.72.76c.42-.01.84-.12 1.26-.31s.82-.44 1.18-.75zM253.85 492.89c.02.58-.08 1.09-.28 1.54-.21.45-.49.82-.85 1.12-.43.36-.9.61-1.42.77-.52.16-1.18.25-1.99.28l-4.12.12-.33-11.63 3.44-.1c.85-.02 1.48-.01 1.91.04s.83.17 1.22.36c.43.21.75.49.95.84.2.35.31.76.32 1.25.02.55-.11 1.03-.38 1.42-.27.4-.64.72-1.1.96v.06c.79.14 1.42.47 1.89.98.47.52.71 1.18.74 1.99zm-2.75-5.16c-.01-.28-.06-.52-.16-.71a1.1 1.1 0 00-.47-.46c-.25-.13-.55-.21-.9-.24-.35-.02-.78-.03-1.3-.01l-1.84.05.1 3.36 2-.06c.48-.01.87-.05 1.15-.11.28-.06.55-.17.79-.33s.41-.37.5-.62c.1-.24.14-.54.13-.87zm1.14 5.27c-.01-.47-.09-.84-.24-1.11s-.41-.5-.79-.68c-.25-.12-.56-.2-.92-.23s-.79-.04-1.3-.02l-2.43.07.12 4.33 2.05-.06c.68-.02 1.23-.07 1.66-.15.43-.08.78-.22 1.05-.42.29-.21.49-.45.62-.71.13-.27.19-.61.18-1.02zM262.8 496.22l-1.46.04-.03-.93c-.13.09-.3.22-.52.39a4.092 4.092 0 01-1.47.72c-.31.09-.69.14-1.11.15-.79.02-1.46-.22-2.02-.73-.56-.5-.85-1.16-.88-1.97-.02-.66.11-1.2.38-1.62.27-.42.67-.75 1.19-1 .52-.25 1.16-.43 1.9-.53.74-.1 1.54-.19 2.39-.25l-.01-.23c-.01-.33-.08-.61-.2-.82-.12-.21-.3-.38-.52-.5a2.06 2.06 0 00-.76-.22 5.751 5.751 0 00-2.2.15c-.47.11-.96.28-1.46.48h-.08l-.04-1.49c.28-.09.69-.18 1.23-.29.54-.11 1.07-.17 1.6-.19.61-.02 1.15.02 1.61.11.46.09.86.25 1.2.49.33.23.59.53.78.91.18.38.28.84.3 1.41l.18 5.92zm-1.52-2.11l-.07-2.43c-.45.04-.97.09-1.58.16-.61.07-1.08.16-1.43.27-.42.13-.75.33-1.01.59s-.37.61-.36 1.05c.01.5.18.87.48 1.12s.77.36 1.39.34c.52-.01.98-.13 1.41-.34.43-.21.82-.47 1.17-.76zM271.79 493.45c.02.8-.29 1.46-.93 1.99-.64.53-1.54.81-2.68.84a6.29 6.29 0 01-1.78-.18c-.54-.14-1-.29-1.37-.47l-.05-1.65h.08c.47.34 1 .6 1.57.79.57.19 1.12.28 1.64.26.65-.02 1.15-.14 1.51-.36.36-.22.53-.55.52-1-.01-.34-.12-.6-.32-.77-.2-.17-.59-.31-1.15-.42-.21-.04-.48-.09-.82-.14a8.84 8.84 0 01-.92-.18c-.77-.18-1.32-.46-1.65-.85-.33-.38-.5-.86-.52-1.44-.01-.36.05-.7.19-1.02.14-.32.36-.61.65-.87.28-.25.65-.46 1.1-.61.45-.16.95-.24 1.51-.26.52-.01 1.05.03 1.59.15.54.11.99.26 1.34.43l.04 1.57h-.08c-.38-.26-.85-.48-1.39-.66-.54-.17-1.07-.25-1.58-.24-.54.02-.99.13-1.35.35-.36.22-.54.53-.53.93.01.36.13.63.36.8.22.18.58.31 1.07.42.27.06.58.11.91.16.34.05.62.1.84.15.69.14 1.22.39 1.6.76.38.38.58.88.6 1.52zM275.25 485.67l-1.66.05-.04-1.52 1.66-.05.04 1.52zm.2 10.19l-1.47.04-.25-8.72 1.47-.04.25 8.72zM285.65 495.57l-1.47.04-.14-4.97c-.01-.4-.05-.78-.1-1.13-.06-.35-.15-.62-.28-.82a1.23 1.23 0 00-.58-.47c-.25-.1-.57-.14-.96-.13-.4.01-.82.12-1.25.33-.43.21-.84.47-1.24.79l.18 6.51-1.47.04-.25-8.72 1.47-.04.03.97c.45-.39.91-.7 1.4-.93.48-.23.98-.35 1.5-.36.94-.03 1.67.24 2.18.79.51.55.78 1.36.81 2.43l.17 5.67z"/>
        </g>
        <g>
            <path d="M636.97 529.27c.01.45-.08.9-.28 1.35-.2.45-.48.83-.85 1.15-.41.34-.88.62-1.43.82-.55.2-1.21.32-2 .34-.84.02-1.59-.03-2.27-.17-.67-.14-1.36-.35-2.06-.64l-.05-1.94h.11c.6.47 1.29.83 2.07 1.07.78.24 1.5.36 2.18.34.96-.03 1.7-.23 2.22-.6.52-.38.78-.86.76-1.46-.01-.52-.15-.89-.41-1.13-.26-.24-.65-.42-1.17-.54-.39-.09-.82-.17-1.28-.22-.46-.05-.94-.13-1.46-.22-1.04-.19-1.81-.54-2.32-1.06-.51-.51-.78-1.2-.8-2.04-.03-.97.36-1.78 1.17-2.43.8-.65 1.84-.99 3.11-1.02.82-.02 1.57.03 2.26.17.69.14 1.29.31 1.83.53l.05 1.83h-.11c-.45-.36-1.04-.66-1.77-.88-.73-.23-1.47-.33-2.22-.31-.83.02-1.49.21-1.98.57s-.73.81-.72 1.35c.01.48.15.86.41 1.13.26.27.7.47 1.34.59.33.06.81.14 1.43.23s1.14.18 1.57.28c.87.21 1.53.53 1.98.98.43.45.67 1.1.69 1.93zM646.72 532.31l-1.47.04-.14-4.97c-.01-.4-.05-.78-.1-1.13-.06-.35-.15-.62-.28-.82a1.23 1.23 0 00-.58-.47c-.25-.1-.57-.14-.96-.13-.4.01-.82.12-1.25.33-.43.21-.84.47-1.24.79l.18 6.51-1.47.04-.34-12.15 1.47-.04.12 4.4c.45-.39.91-.7 1.4-.93.48-.23.98-.35 1.5-.36.94-.03 1.67.24 2.18.79.51.55.78 1.36.81 2.43l.17 5.67zM650.84 522.01l-1.66.05-.04-1.52 1.66-.05.04 1.52zm.2 10.18l-1.47.04-.25-8.72 1.47-.04.25 8.72zM655.42 532.07l-1.47.04-.34-12.15 1.47-.04.34 12.15zM659.81 531.94l-1.47.04-.34-12.15 1.47-.04.34 12.15zM670.03 527.29c.04 1.42-.29 2.55-1 3.4-.71.84-1.67 1.28-2.89 1.32-1.23.04-2.23-.35-2.97-1.15-.75-.8-1.14-1.91-1.18-3.34-.04-1.42.29-2.55.99-3.4.7-.85 1.67-1.29 2.9-1.32 1.22-.03 2.21.35 2.96 1.16.75.8 1.15 1.91 1.19 3.33zm-1.52.05c-.03-1.13-.28-1.96-.74-2.5-.46-.54-1.08-.79-1.87-.77-.8.02-1.41.31-1.83.88-.42.56-.62 1.41-.59 2.54.03 1.09.28 1.92.73 2.47.46.55 1.08.82 1.87.79.78-.02 1.39-.32 1.82-.89.45-.58.65-1.42.61-2.52zM679.72 531.38l-1.47.04-.14-4.97c-.01-.4-.04-.78-.1-1.13-.06-.35-.15-.62-.28-.82a1.23 1.23 0 00-.58-.47c-.25-.1-.57-.14-.96-.13-.4.01-.82.12-1.25.33s-.84.47-1.24.79l.18 6.51-1.47.04-.25-8.72 1.47-.04.03.97c.45-.39.91-.7 1.4-.93.48-.23.98-.35 1.5-.36.94-.03 1.67.24 2.18.79.51.55.78 1.36.81 2.43l.17 5.67zM689.59 530.11c.04 1.48-.26 2.57-.92 3.28-.65.71-1.68 1.09-3.07 1.13a9.732 9.732 0 01-2.67-.3l-.04-1.5h.08c.24.09.63.19 1.15.32.52.12 1.05.18 1.57.16.5-.01.91-.09 1.24-.21.32-.13.57-.3.75-.52.18-.21.3-.46.37-.75s.1-.61.09-.96l-.02-.8c-.43.37-.85.64-1.25.83-.4.19-.91.29-1.54.31-1.04.03-1.88-.32-2.51-1.06-.63-.74-.97-1.79-1.01-3.16-.02-.75.07-1.4.26-1.95.2-.55.47-1.03.82-1.43.33-.38.73-.68 1.21-.9.48-.22.96-.34 1.44-.35.5-.01.93.02 1.27.12.34.09.71.24 1.09.43l.08-.38 1.38-.04.23 7.73zm-1.51-1.36l-.13-4.76c-.4-.17-.76-.28-1.1-.35-.34-.07-.67-.09-1.01-.08-.81.02-1.43.31-1.88.87-.45.56-.66 1.35-.63 2.38.03.98.22 1.72.58 2.21.36.5.93.73 1.73.71.43-.01.85-.11 1.28-.28.43-.19.81-.42 1.16-.7zM705.63 522.53c.01.52-.06 1-.23 1.44-.17.45-.41.83-.72 1.17-.39.41-.86.73-1.4.94-.54.22-1.23.34-2.06.36l-1.55.04.12 4.33-1.55.04-.33-11.63 3.15-.09c.7-.02 1.29.02 1.78.13s.92.27 1.3.51c.45.28.8.64 1.06 1.08s.41 1 .43 1.68zm-1.61.08c-.01-.4-.09-.75-.24-1.04-.15-.29-.37-.53-.66-.71-.25-.15-.54-.26-.87-.32-.32-.06-.73-.08-1.22-.07l-1.53.04.13 4.65 1.3-.04c.62-.02 1.13-.09 1.52-.21.39-.12.7-.31.94-.56.24-.26.4-.52.5-.8s.14-.59.13-.94zM709.26 530.54l-1.47.04-.34-12.15 1.47-.04.34 12.15zM718.95 530.27l-1.46.04-.03-.93c-.13.09-.3.22-.52.39s-.43.3-.63.4c-.24.13-.52.23-.83.32s-.69.14-1.11.15c-.79.02-1.46-.22-2.02-.72s-.85-1.16-.88-1.97c-.02-.66.11-1.2.38-1.62.27-.42.67-.75 1.19-1 .52-.25 1.16-.43 1.9-.53.74-.1 1.54-.19 2.39-.25l-.01-.23c-.01-.33-.08-.61-.2-.82-.12-.21-.29-.38-.52-.5a2.06 2.06 0 00-.76-.22 5.751 5.751 0 00-2.2.15c-.47.12-.96.28-1.46.48h-.08l-.04-1.49c.28-.09.7-.18 1.23-.29.54-.11 1.07-.17 1.6-.19.61-.02 1.15.02 1.61.11.46.09.86.25 1.2.49.33.23.59.53.78.91.18.38.28.84.3 1.41l.17 5.91zm-1.53-2.1l-.07-2.43c-.45.04-.97.09-1.58.16-.6.07-1.08.16-1.43.27-.42.13-.75.33-1.01.59-.25.26-.37.61-.36 1.05.01.5.18.87.48 1.12s.77.36 1.39.34c.52-.01.98-.13 1.41-.34.43-.22.82-.47 1.17-.76zM726.3 529.98c-.27.08-.57.15-.9.21-.32.06-.61.09-.87.1-.89.02-1.57-.2-2.05-.66-.48-.46-.73-1.23-.76-2.28l-.13-4.64-.99.03-.03-1.23.99-.03-.07-2.51 1.47-.04.07 2.51 3.03-.09.03 1.23-3.03.09.11 3.98c.01.46.03.82.06 1.07.03.26.11.5.24.72.12.21.28.35.49.44s.51.13.92.12c.24-.01.49-.05.75-.13s.44-.14.56-.19h.08l.03 1.3zM735.26 525.6l-6.43.18c.02.54.11 1 .28 1.39.17.39.4.71.69.96.28.24.6.42.98.54.38.11.79.17 1.24.15.59-.02 1.19-.15 1.78-.41.59-.25 1.02-.5 1.26-.74h.08l.05 1.6c-.49.22-.99.41-1.5.57s-1.05.24-1.62.26c-1.45.04-2.59-.32-3.42-1.08-.83-.76-1.27-1.86-1.31-3.3-.04-1.43.32-2.57 1.07-3.43.75-.86 1.77-1.31 3.04-1.34 1.18-.03 2.09.28 2.75.95.66.67 1 1.64 1.04 2.9l.02.8zm-1.46-1.09c-.03-.77-.24-1.36-.63-1.77s-.98-.61-1.76-.58c-.79.02-1.41.27-1.86.75s-.7 1.06-.74 1.75l4.99-.15zM744.38 529.55l-1.46.04-.03-.93c-.13.09-.3.22-.52.39-.22.17-.43.3-.63.4-.24.13-.52.24-.83.33s-.69.14-1.11.15c-.79.02-1.46-.22-2.02-.72s-.85-1.16-.88-1.97c-.02-.66.11-1.2.38-1.62.27-.42.67-.75 1.19-1 .52-.25 1.16-.43 1.9-.53.74-.1 1.54-.19 2.39-.25l-.01-.23c-.01-.33-.08-.61-.2-.82s-.3-.38-.52-.5a2.06 2.06 0 00-.76-.22c-.29-.03-.6-.05-.92-.04-.38.01-.81.07-1.28.19s-.96.28-1.46.48h-.08l-.04-1.49c.28-.09.69-.18 1.23-.29.54-.11 1.07-.17 1.6-.19.61-.02 1.15.02 1.61.11.46.09.86.25 1.2.49.33.23.59.53.78.91.18.38.28.84.3 1.41l.17 5.9zm-1.52-2.1l-.07-2.43c-.45.04-.97.09-1.58.16-.61.07-1.08.16-1.43.27-.42.13-.75.33-1.01.59-.25.26-.37.61-.36 1.05.01.5.18.87.49 1.12.31.25.77.36 1.39.34.52-.01.98-.13 1.41-.34.41-.22.8-.47 1.16-.76zM754.44 529.27l-1.47.04-.03-.97c-.48.4-.95.72-1.4.94-.45.22-.94.34-1.49.36-.92.03-1.64-.23-2.16-.78-.53-.54-.8-1.36-.83-2.44l-.16-5.66 1.47-.04.14 4.97c.01.44.04.82.09 1.13.05.31.15.58.29.8.15.22.33.39.56.48.23.1.55.14.98.13.38-.01.79-.12 1.24-.33.44-.21.86-.47 1.24-.79l-.18-6.51 1.47-.04.24 8.71z"/>
        </g>
        <g>
            <path class="East_India_Key_svg__st11" d="M562.42 775.69h90.28v43.6h-90.28z"/>
            <path d="M590.6 784.27c0 .58-.11 1.09-.33 1.53s-.51.81-.88 1.09c-.44.34-.92.59-1.44.73s-1.19.22-2 .22h-4.12v-11.63h3.45c.85 0 1.48.03 1.91.09s.83.19 1.21.39c.43.22.74.51.93.86s.29.77.29 1.26c0 .55-.14 1.02-.42 1.41s-.66.7-1.12.93v.06c.79.16 1.41.51 1.86 1.04s.66 1.21.66 2.02zm-2.6-5.24c0-.28-.05-.52-.14-.71s-.25-.35-.45-.47c-.25-.14-.54-.23-.89-.26s-.78-.05-1.3-.05h-1.84v3.36h2c.48 0 .87-.02 1.16-.07s.55-.15.8-.31.42-.36.52-.61.14-.54.14-.88zm.99 5.3c0-.47-.07-.84-.21-1.12s-.4-.51-.77-.7c-.25-.13-.55-.21-.91-.25s-.79-.06-1.3-.06h-2.43v4.33h2.05c.68 0 1.23-.04 1.66-.11s.79-.2 1.06-.39c.29-.2.5-.43.64-.7s.21-.58.21-1zM599.98 783.64h-6.43c0 .54.08 1 .24 1.4s.38.73.66.98c.27.25.59.44.96.56s.78.19 1.23.19c.59 0 1.19-.12 1.79-.36s1.03-.47 1.29-.7h.08v1.6c-.5.21-1 .38-1.52.52s-1.06.21-1.62.21c-1.45 0-2.58-.39-3.39-1.18s-1.22-1.9-1.22-3.34c0-1.43.39-2.56 1.17-3.4s1.8-1.26 3.07-1.26c1.18 0 2.08.34 2.72 1.03s.96 1.66.96 2.93v.82zm-1.43-1.13c0-.77-.2-1.37-.58-1.79s-.96-.63-1.75-.63-1.41.23-1.88.7-.73 1.04-.79 1.73h5zM609.51 787.85h-1.47v-4.97c0-.4-.02-.78-.07-1.13s-.13-.63-.26-.82c-.13-.22-.32-.38-.56-.49s-.56-.16-.95-.16c-.4 0-.82.1-1.26.3s-.86.45-1.26.76v6.52h-1.47v-8.73h1.47v.97c.46-.38.93-.68 1.42-.89s.99-.32 1.51-.32c.94 0 1.66.28 2.16.85s.74 1.39.74 2.45v5.66zM619.41 786.86c0 1.48-.34 2.57-1.01 3.26s-1.71 1.04-3.1 1.04c-.46 0-.92-.03-1.36-.1s-.87-.16-1.3-.28v-1.5h.08c.24.09.62.21 1.14.35s1.04.21 1.56.21c.5 0 .91-.06 1.24-.18s.58-.29.77-.5c.18-.2.31-.45.39-.73s.12-.61.12-.96v-.8c-.44.35-.87.62-1.27.79s-.92.26-1.54.26c-1.04 0-1.87-.38-2.48-1.13s-.92-1.81-.92-3.18c0-.75.11-1.4.32-1.94s.5-1.01.86-1.41c.34-.37.75-.66 1.23-.86s.97-.31 1.45-.31c.5 0 .93.05 1.27.15s.7.26 1.08.46l.09-.38h1.38v7.74zm-1.47-1.41v-4.76c-.39-.18-.75-.3-1.09-.38s-.67-.11-1-.11c-.81 0-1.44.27-1.91.81s-.7 1.33-.7 2.36c0 .98.17 1.72.52 2.23s.91.76 1.71.76c.43 0 .86-.08 1.29-.25s.82-.38 1.18-.66zM629.08 787.85h-1.46v-.93c-.13.09-.31.21-.53.37s-.44.29-.64.38c-.25.12-.53.22-.84.3s-.69.12-1.12.12c-.79 0-1.45-.26-2-.78s-.82-1.18-.82-1.99c0-.66.14-1.2.43-1.61s.69-.73 1.21-.96c.53-.23 1.17-.39 1.91-.48s1.54-.15 2.4-.19v-.23c0-.33-.06-.61-.18-.83s-.29-.39-.5-.52c-.21-.12-.46-.2-.75-.24s-.6-.06-.91-.06c-.39 0-.82.05-1.29.15s-.96.25-1.47.44h-.08v-1.49c.29-.08.7-.16 1.24-.26s1.08-.14 1.6-.14c.61 0 1.15.05 1.61.15s.85.27 1.18.52c.33.24.58.55.75.93s.26.85.26 1.41v5.94zm-1.46-2.15v-2.43c-.45.03-.98.07-1.58.12s-1.09.13-1.44.23c-.42.12-.76.31-1.02.56s-.39.6-.39 1.04c0 .5.15.88.45 1.13s.76.38 1.38.38c.52 0 .99-.1 1.41-.3s.83-.45 1.19-.73zM633.4 787.85h-1.47v-12.16h1.47v12.16zM602.48 796.79h-5.88v3.28h5.05v1.38h-5.05v5.6h-1.55v-11.63h7.43v1.37zM610.13 807.05h-1.46v-.93c-.13.09-.31.21-.53.37s-.44.29-.64.38c-.25.12-.53.22-.84.3s-.69.12-1.12.12c-.79 0-1.45-.26-2-.78s-.82-1.18-.82-1.99c0-.66.14-1.2.43-1.61s.69-.73 1.21-.96c.53-.23 1.17-.39 1.91-.48s1.54-.15 2.4-.19v-.23c0-.33-.06-.61-.18-.83s-.29-.39-.5-.52c-.21-.12-.46-.2-.75-.24s-.6-.06-.91-.06c-.39 0-.82.05-1.29.15s-.96.25-1.47.44h-.08v-1.49c.29-.08.7-.16 1.24-.26s1.08-.14 1.6-.14c.61 0 1.15.05 1.61.15s.85.27 1.18.52c.33.24.58.55.75.93s.26.85.26 1.41v5.94zm-1.46-2.15v-2.43c-.45.03-.98.07-1.58.12s-1.09.13-1.44.23c-.42.12-.76.31-1.02.56s-.39.6-.39 1.04c0 .5.15.88.45 1.13s.76.38 1.38.38c.52 0 .99-.1 1.41-.3s.82-.45 1.19-.73zM620.25 807.05h-1.47v-4.97c0-.4-.02-.78-.07-1.13s-.13-.63-.26-.82c-.13-.22-.32-.38-.56-.49s-.56-.16-.95-.16c-.4 0-.82.1-1.26.3s-.86.45-1.26.76v6.52h-1.47v-8.73h1.47v.97c.46-.38.93-.68 1.42-.89s.99-.32 1.51-.32c.94 0 1.66.28 2.16.85s.74 1.39.74 2.45v5.66z"/>
        </g>
        <g>
            <path class="East_India_Key_svg__st11" d="M611.42 627.69h90.28v43.6h-90.28z"/>
            <path d="M639.6 636.27c0 .58-.11 1.09-.33 1.53s-.51.81-.88 1.09c-.44.34-.92.59-1.44.73s-1.19.22-2 .22h-4.12v-11.63h3.45c.85 0 1.48.03 1.91.09s.83.19 1.21.39c.43.22.74.51.93.86s.29.77.29 1.26c0 .55-.14 1.02-.42 1.41s-.66.7-1.12.93v.06c.79.16 1.41.51 1.86 1.04s.66 1.21.66 2.02zm-2.6-5.24c0-.28-.05-.52-.14-.71s-.25-.35-.45-.47c-.25-.14-.54-.23-.89-.26s-.78-.05-1.3-.05h-1.84v3.36h2c.48 0 .87-.02 1.16-.07s.55-.15.8-.31.42-.36.52-.61.14-.54.14-.88zm.99 5.3c0-.47-.07-.84-.21-1.12s-.4-.51-.77-.7c-.25-.13-.55-.21-.91-.25s-.79-.06-1.3-.06h-2.43v4.33h2.05c.68 0 1.23-.04 1.66-.11s.79-.2 1.06-.39c.29-.2.5-.43.64-.7s.21-.58.21-1zM648.98 635.64h-6.43c0 .54.08 1 .24 1.4s.38.73.66.98c.27.25.59.44.96.56s.78.19 1.23.19c.59 0 1.19-.12 1.79-.36s1.03-.47 1.29-.7h.08v1.6c-.5.21-1 .38-1.52.52s-1.06.21-1.62.21c-1.45 0-2.58-.39-3.39-1.18s-1.22-1.9-1.22-3.34c0-1.43.39-2.56 1.17-3.4s1.8-1.26 3.07-1.26c1.18 0 2.08.34 2.72 1.03s.96 1.66.96 2.93v.82zm-1.43-1.13c0-.77-.2-1.37-.58-1.79s-.96-.63-1.75-.63-1.41.23-1.88.7-.73 1.04-.79 1.73h5zM658.51 639.85h-1.47v-4.97c0-.4-.02-.78-.07-1.13s-.13-.63-.26-.82c-.13-.22-.32-.38-.56-.49s-.56-.16-.95-.16c-.4 0-.82.1-1.26.3s-.86.45-1.26.76v6.52h-1.47v-8.73h1.47v.97c.46-.38.93-.68 1.42-.89s.99-.32 1.51-.32c.94 0 1.66.28 2.16.85s.74 1.39.74 2.45v5.66zM668.41 638.86c0 1.48-.34 2.57-1.01 3.26s-1.71 1.04-3.1 1.04c-.46 0-.92-.03-1.36-.1s-.87-.16-1.3-.28v-1.5h.08c.24.09.62.21 1.14.35s1.04.21 1.56.21c.5 0 .91-.06 1.24-.18s.58-.29.77-.5c.18-.2.31-.45.39-.73s.12-.61.12-.96v-.8c-.44.35-.87.62-1.27.79s-.92.26-1.54.26c-1.04 0-1.87-.38-2.48-1.13s-.92-1.81-.92-3.18c0-.75.11-1.4.32-1.94s.5-1.01.86-1.41c.34-.37.75-.66 1.23-.86s.97-.31 1.45-.31c.5 0 .93.05 1.27.15s.7.26 1.08.46l.09-.38h1.38v7.74zm-1.47-1.41v-4.76c-.39-.18-.75-.3-1.09-.38s-.67-.11-1-.11c-.81 0-1.44.27-1.91.81s-.7 1.33-.7 2.36c0 .98.17 1.72.52 2.23s.91.76 1.71.76c.43 0 .86-.08 1.29-.25s.82-.38 1.18-.66zM678.08 639.85h-1.46v-.93c-.13.09-.31.21-.53.37s-.44.29-.64.38c-.25.12-.53.22-.84.3s-.69.12-1.12.12c-.79 0-1.45-.26-2-.78s-.82-1.18-.82-1.99c0-.66.14-1.2.43-1.61s.69-.73 1.21-.96c.53-.23 1.17-.39 1.91-.48s1.54-.15 2.4-.19v-.23c0-.33-.06-.61-.18-.83s-.29-.39-.5-.52c-.21-.12-.46-.2-.75-.24s-.6-.06-.91-.06c-.39 0-.82.05-1.29.15s-.96.25-1.47.44h-.08v-1.49c.29-.08.7-.16 1.24-.26s1.08-.14 1.6-.14c.61 0 1.15.05 1.61.15s.85.27 1.18.52c.33.24.58.55.75.93s.26.85.26 1.41v5.94zm-1.46-2.15v-2.43c-.45.03-.98.07-1.58.12s-1.09.13-1.44.23c-.42.12-.76.31-1.02.56s-.39.6-.39 1.04c0 .5.15.88.45 1.13s.76.38 1.38.38c.52 0 .99-.1 1.41-.3s.83-.45 1.19-.73zM682.4 639.85h-1.47v-12.16h1.47v12.16zM645.18 655.47c0 .58-.11 1.09-.33 1.53s-.51.81-.88 1.09c-.44.34-.92.59-1.44.73s-1.19.22-2 .22h-4.12v-11.63h3.45c.85 0 1.48.03 1.91.09s.83.19 1.21.39c.43.22.74.51.93.86s.29.77.29 1.26c0 .55-.14 1.02-.42 1.41s-.66.7-1.12.93v.06c.79.16 1.41.51 1.86 1.04s.66 1.21.66 2.02zm-2.6-5.24c0-.28-.05-.52-.14-.71s-.25-.35-.45-.47c-.25-.14-.54-.23-.89-.26s-.78-.05-1.3-.05h-1.84v3.36h2c.48 0 .87-.02 1.16-.07s.55-.15.8-.31.42-.36.52-.61.14-.54.14-.88zm.99 5.3c0-.47-.07-.84-.21-1.12s-.4-.51-.77-.7c-.25-.13-.55-.21-.91-.25s-.79-.06-1.3-.06h-2.43v4.33H640c.68 0 1.23-.04 1.66-.11s.79-.2 1.06-.39c.29-.2.5-.43.64-.7s.21-.58.21-1zM654.04 659.05h-1.46v-.93c-.13.09-.31.21-.53.37s-.44.29-.64.38c-.25.12-.53.22-.84.3s-.69.12-1.12.12c-.79 0-1.45-.26-2-.78s-.82-1.18-.82-1.99c0-.66.14-1.2.43-1.61s.69-.73 1.21-.96c.53-.23 1.17-.39 1.91-.48s1.54-.15 2.4-.19v-.23c0-.33-.06-.61-.18-.83s-.29-.39-.5-.52c-.21-.12-.46-.2-.75-.24s-.6-.06-.91-.06c-.39 0-.82.05-1.29.15s-.96.25-1.47.44h-.08v-1.49c.29-.08.7-.16 1.24-.26s1.08-.14 1.6-.14c.61 0 1.15.05 1.61.15s.85.27 1.18.52c.33.24.58.55.75.93s.26.85.26 1.41v5.94zm-1.46-2.15v-2.43c-.45.03-.98.07-1.58.12s-1.09.13-1.44.23c-.42.12-.76.31-1.02.56s-.39.6-.39 1.04c0 .5.15.88.45 1.13s.76.38 1.38.38c.52 0 .99-.1 1.41-.3s.83-.45 1.19-.73zM663.1 656.53c0 .8-.33 1.45-.99 1.96s-1.56.77-2.7.77c-.65 0-1.24-.08-1.78-.23s-.99-.32-1.36-.5v-1.65h.08c.46.35.98.63 1.55.83s1.11.31 1.63.31c.65 0 1.15-.1 1.52-.31s.55-.54.55-.98c0-.34-.1-.6-.3-.78s-.58-.33-1.14-.45c-.21-.05-.48-.1-.82-.16s-.64-.13-.92-.2c-.77-.2-1.31-.5-1.63-.89s-.48-.88-.48-1.45c0-.36.07-.7.22-1.02s.37-.6.68-.85c.29-.25.66-.44 1.11-.58s.95-.21 1.51-.21c.52 0 1.05.06 1.58.19s.98.28 1.33.46v1.57h-.08c-.38-.28-.83-.51-1.37-.7s-1.06-.29-1.58-.29c-.54 0-.99.1-1.36.31s-.55.51-.55.92c0 .36.11.63.34.81.22.18.57.33 1.06.45.27.06.57.12.91.19s.62.12.84.17c.68.16 1.21.42 1.58.8.39.37.57.88.57 1.51zM666.78 648.86h-1.66v-1.52h1.66v1.52zm-.09 10.19h-1.47v-8.73h1.47v8.73zM676.89 659.05h-1.47v-4.97c0-.4-.02-.78-.07-1.13s-.13-.63-.26-.82c-.13-.22-.32-.38-.56-.49s-.56-.16-.95-.16c-.4 0-.82.1-1.26.3s-.86.45-1.26.76v6.52h-1.47v-8.73h1.47v.97c.46-.38.93-.68 1.42-.89s.99-.32 1.51-.32c.94 0 1.66.28 2.16.85s.74 1.39.74 2.45v5.66z"/>
        </g>
        <g>
            <path d="M238.86 292.63l-1.73 5.66 6.55 2 1.73-5.66 1.77.54-4.13 13.53-1.77-.54 1.94-6.35-6.55-2-1.94 6.34-1.75-.53 4.13-13.53 1.75.54zM250.27 310.92l2.97-9.72 1.77.54-2.97 9.72-1.77-.54zm5.77-11.85c-.16.61-.75.96-1.46.74-.62-.19-.92-.81-.73-1.41.19-.62.8-.96 1.44-.77.66.2.94.81.75 1.44zM270.57 306.49c-.26.69-.53 1.46-.9 2.65l-1.72 5.64c-.68 2.23-1.54 3.46-2.74 4.01-1.21.6-2.66.46-3.89.08-1.17-.36-2.36-1.03-2.99-1.79l.85-1.21c.52.6 1.41 1.27 2.62 1.63 1.81.55 3.42.01 4.17-2.44l.33-1.08-.04-.01c-.82.74-2.08 1.14-3.59.68-2.41-.74-3.51-3.31-2.69-6 1.01-3.29 3.72-4.51 5.95-3.83 1.69.51 2.34 1.68 2.52 2.61l.04.01.53-1.44 1.55.49zm-3 3.28c.09-.3.15-.57.15-.83-.01-1.12-.61-2.23-1.9-2.62-1.69-.51-3.33.54-4.01 2.79-.58 1.91-.1 3.79 1.8 4.37 1.08.33 2.28-.05 3-1.06.19-.27.34-.6.43-.9l.53-1.75zM279.06 304.12l1.77.54-1.85 6.06.04.01c.43-.42 1.01-.72 1.65-.86.61-.14 1.3-.15 1.96.05 1.31.4 3.15 1.84 2.12 5.19l-1.77 5.78-1.77-.54 1.71-5.58c.48-1.57.3-3.07-1.37-3.58-1.15-.35-2.29.18-2.91 1.04-.17.21-.27.47-.38.81l-1.79 5.86-1.77-.54 4.36-14.24zM304.57 312.7l-1.73 5.66 6.55 2 1.73-5.66 1.77.54-4.13 13.53-1.77-.54 1.94-6.35-6.55-2-1.94 6.34-1.75-.53 4.13-13.53 1.75.54zM315.98 330.98l2.97-9.72 1.77.54-2.97 9.72-1.77-.54zm5.77-11.85c-.16.61-.75.96-1.46.74-.62-.19-.92-.81-.73-1.41.19-.62.8-.96 1.44-.77.67.21.94.82.75 1.44zM327.1 326.63c.31-1 .54-1.83.72-2.66l1.55.47-.4 1.59.06.02c.82-.76 1.99-1.35 3.6-.86 1.33.4 2.08 1.51 2.16 2.79l.04.01c.47-.45.98-.75 1.47-.93.72-.26 1.43-.31 2.36-.03 1.29.39 2.94 1.82 1.9 5.19l-1.75 5.72-1.73-.53 1.68-5.5c.57-1.87.23-3.2-1.19-3.64-1-.31-2.01.2-2.58.97-.15.22-.31.52-.41.84l-1.83 6-1.73-.53 1.78-5.82c.47-1.55.13-2.88-1.21-3.29-1.1-.34-2.18.3-2.73 1.1-.18.23-.31.52-.4.82l-1.79 5.86-1.73-.53 2.16-7.06zM351.33 341.78l.23-1.27-.06-.02c-.78.6-2.03.96-3.41.54-1.97-.6-2.55-2.29-2.12-3.7.72-2.35 3.2-3 6.95-1.83l.06-.2c.25-.8.47-2.32-1.52-2.92-.9-.28-1.93-.28-2.75-.05l-.05-1.29c.96-.28 2.23-.26 3.46.11 2.97.91 3.08 3.16 2.48 5.11l-1.11 3.63c-.26.84-.47 1.68-.55 2.38l-1.61-.49zm1.25-5.04c-1.92-.63-4.21-.96-4.79.93-.35 1.15.25 1.92 1.15 2.2 1.27.39 2.31-.17 2.85-.91.12-.16.22-.35.27-.53l.52-1.69zM364.24 330.13l1.77.54-4.35 14.26-1.77-.54 4.35-14.26zM374.27 348.78l.23-1.27-.06-.02c-.77.6-2.03.96-3.41.54-1.97-.6-2.55-2.29-2.12-3.7.72-2.35 3.2-3 6.95-1.83l.06-.2c.25-.8.47-2.32-1.52-2.92-.9-.28-1.93-.28-2.75-.05l-.05-1.29c.96-.28 2.23-.26 3.46.11 2.97.91 3.08 3.16 2.48 5.11l-1.11 3.63c-.26.84-.47 1.68-.55 2.38l-1.61-.49zm1.25-5.04c-1.92-.63-4.21-.96-4.79.93-.35 1.15.25 1.92 1.15 2.2 1.27.39 2.31-.17 2.85-.91.11-.16.22-.35.27-.53l.52-1.69zM386.43 341.87l.37 6.39c.02.71.03 1.55.02 2.18l.04.01c.36-.53.79-1.21 1.24-1.84l3.67-5.11 1.87.57-4.77 6.12c-2.28 2.95-3.67 4.39-5.19 5.07-1.1.5-2.05.54-2.52.48l.01-1.62c.49-.01 1.15-.11 1.81-.39.6-.23 1.41-.73 2.09-1.51.13-.16.24-.28.27-.38.03-.1.03-.25.02-.5l-.86-10.05 1.93.58zM401.92 357.22l.23-1.27-.06-.02c-.78.6-2.03.96-3.41.54-1.97-.6-2.55-2.29-2.12-3.7.72-2.35 3.2-3 6.95-1.83l.06-.2c.25-.8.47-2.32-1.52-2.92-.9-.28-1.93-.28-2.75-.05l-.05-1.29c.96-.28 2.23-.26 3.46.11 2.97.91 3.08 3.16 2.48 5.11l-1.11 3.63c-.26.84-.47 1.68-.55 2.38l-1.61-.49zm1.26-5.04c-1.92-.63-4.21-.96-4.79.93-.35 1.14.25 1.92 1.15 2.2 1.27.39 2.31-.17 2.85-.91.12-.16.22-.35.27-.53l.52-1.69zM410.79 357.96c.42.5 1.23 1.14 2.11 1.41 1.29.39 2.08-.07 2.33-.87.26-.84-.1-1.46-1.26-2.34-1.56-1.16-2.09-2.37-1.73-3.54.48-1.57 2.14-2.47 4.22-1.83.98.3 1.76.85 2.21 1.33l-.83 1.15c-.31-.36-.91-.89-1.82-1.17-1.04-.32-1.81.1-2.03.83-.25.8.23 1.34 1.34 2.21 1.49 1.16 2.1 2.26 1.66 3.71-.52 1.71-2.22 2.51-4.52 1.8-1.06-.32-1.97-.89-2.53-1.5l.85-1.19z"/>
        </g>
        <g>
            <path class="East_India_Key_svg__st11" d="M363.85 391.36H436V410h-72.15z"/>
            <path d="M366.63 391.86h1.22v4.55h.04c.25-.36.5-.7.74-1.01l2.89-3.54h1.51l-3.42 4.01 3.68 5.44h-1.44l-3.11-4.64-.9 1.04v3.6h-1.22v-9.45zM378.16 401.3l-.1-.85h-.04c-.38.53-1.11 1.01-2.07 1.01-1.37 0-2.07-.97-2.07-1.95 0-1.64 1.46-2.54 4.08-2.52v-.14c0-.56-.15-1.57-1.54-1.57-.63 0-1.29.2-1.76.5l-.28-.81c.56-.36 1.37-.6 2.23-.6 2.07 0 2.58 1.41 2.58 2.77v2.54c0 .59.03 1.16.11 1.62h-1.14zm-.19-3.46c-1.34-.03-2.87.21-2.87 1.53 0 .8.53 1.18 1.16 1.18.88 0 1.44-.56 1.64-1.13.04-.13.07-.27.07-.39v-1.19zM382.58 392.57v1.95h1.77v.94h-1.77v3.66c0 .84.24 1.32.92 1.32.32 0 .56-.04.71-.08l.06.92c-.24.1-.62.17-1.09.17-.57 0-1.04-.18-1.33-.52-.35-.36-.48-.97-.48-1.76v-3.7h-1.05v-.94h1.05v-1.62l1.21-.34zM385.73 391.35h1.23v4.23h.03c.2-.35.5-.66.88-.87.36-.21.8-.35 1.26-.35.91 0 2.37.56 2.37 2.9v4.03h-1.23v-3.89c0-1.09-.41-2.02-1.57-2.02-.8 0-1.43.56-1.65 1.23-.07.17-.08.35-.08.59v4.09h-1.23v-9.94zM393.5 396.35c0-.7-.01-1.27-.06-1.83h1.08l.06 1.09h.04c.38-.64 1.01-1.25 2.13-1.25.92 0 1.62.56 1.92 1.36h.03c.21-.38.48-.67.76-.88.41-.31.85-.48 1.5-.48.9 0 2.23.59 2.23 2.94v3.99h-1.2v-3.84c0-1.3-.48-2.09-1.47-2.09-.7 0-1.25.52-1.46 1.12-.06.17-.1.39-.1.62v4.19h-1.2v-4.06c0-1.08-.48-1.86-1.42-1.86-.77 0-1.33.62-1.53 1.23-.07.18-.1.39-.1.6v4.09h-1.2v-4.94zM408.93 401.3l-.1-.85h-.04c-.38.53-1.11 1.01-2.07 1.01-1.37 0-2.07-.97-2.07-1.95 0-1.64 1.46-2.54 4.08-2.52v-.14c0-.56-.15-1.57-1.54-1.57-.63 0-1.29.2-1.77.5l-.28-.81c.56-.36 1.37-.6 2.23-.6 2.07 0 2.58 1.41 2.58 2.77v2.54c0 .59.03 1.16.11 1.62h-1.13zm-.18-3.46c-1.34-.03-2.87.21-2.87 1.53 0 .8.53 1.18 1.16 1.18.88 0 1.44-.56 1.64-1.13.04-.13.07-.27.07-.39v-1.19zM411.92 396.35c0-.7-.01-1.27-.06-1.83h1.09l.07 1.12h.03c.34-.64 1.12-1.27 2.24-1.27.94 0 2.4.56 2.4 2.89v4.05h-1.23v-3.91c0-1.09-.41-2-1.57-2-.81 0-1.44.57-1.65 1.26-.06.15-.08.36-.08.57v4.08h-1.23v-4.96zM425.55 391.35v8.19c0 .6.01 1.29.06 1.75h-1.11l-.06-1.18h-.03c-.38.76-1.2 1.33-2.31 1.33-1.64 0-2.9-1.39-2.9-3.45-.01-2.25 1.39-3.64 3.04-3.64 1.04 0 1.74.49 2.05 1.04h.03v-4.05h1.23zm-1.24 5.93c0-.15-.01-.36-.06-.52-.18-.78-.85-1.43-1.78-1.43-1.27 0-2.03 1.12-2.03 2.62 0 1.37.67 2.51 2 2.51.83 0 1.58-.55 1.81-1.47.04-.17.06-.34.06-.53v-1.18zM433.26 399.45c0 .7.01 1.32.06 1.85h-1.09l-.07-1.11h-.03c-.32.55-1.04 1.26-2.24 1.26-1.06 0-2.34-.59-2.34-2.97v-3.96h1.23v3.75c0 1.29.39 2.16 1.51 2.16.83 0 1.4-.57 1.62-1.12.07-.18.11-.41.11-.63v-4.16h1.23v4.93z"/>
        </g>
        <g>
            <path class="East_India_Key_svg__st11" d="M566.85 682.36H618v15.36h-51.15z"/>
            <path d="M574.51 691.99c-.45.22-1.34.45-2.49.45-2.66 0-4.67-1.68-4.67-4.78 0-2.96 2-4.96 4.93-4.96 1.18 0 1.92.25 2.24.42l-.29 1c-.46-.22-1.12-.39-1.91-.39-2.21 0-3.68 1.42-3.68 3.89 0 2.31 1.33 3.8 3.63 3.8.74 0 1.5-.15 1.99-.39l.25.96zM579.64 692.3l-.1-.86h-.04c-.38.53-1.11 1.01-2.07 1.01-1.37 0-2.07-.97-2.07-1.95 0-1.64 1.46-2.54 4.08-2.52v-.14c0-.56-.15-1.57-1.54-1.57-.63 0-1.29.2-1.76.5l-.28-.81c.56-.36 1.37-.6 2.23-.6 2.07 0 2.58 1.41 2.58 2.77v2.54c0 .59.03 1.16.11 1.62h-1.14zm-.18-3.46c-1.34-.03-2.87.21-2.87 1.53 0 .8.53 1.18 1.16 1.18.88 0 1.44-.56 1.64-1.13.04-.13.07-.27.07-.39v-1.19zM582.64 682.36h1.23v9.95h-1.23v-9.95zM590.78 692.05c-.32.17-1.04.39-1.95.39-2.04 0-3.38-1.39-3.38-3.46 0-2.09 1.43-3.6 3.64-3.6.73 0 1.37.18 1.71.35l-.28.95c-.29-.17-.76-.32-1.43-.32-1.55 0-2.39 1.15-2.39 2.56 0 1.57 1.01 2.54 2.35 2.54.7 0 1.16-.18 1.51-.34l.22.93zM597.89 690.45c0 .7.01 1.32.06 1.85h-1.09l-.07-1.11h-.03c-.32.55-1.04 1.26-2.24 1.26-1.06 0-2.34-.59-2.34-2.97v-3.96h1.23v3.75c0 1.29.39 2.16 1.51 2.16.83 0 1.4-.57 1.62-1.12.07-.18.11-.41.11-.63v-4.16h1.23v4.93zM601.41 683.57v1.95h1.76v.94h-1.76v3.66c0 .84.24 1.32.92 1.32.32 0 .56-.04.71-.08l.06.92c-.24.1-.62.17-1.09.17-.57 0-1.04-.18-1.33-.52-.35-.36-.48-.97-.48-1.76v-3.7h-1.05v-.94h1.05v-1.62l1.21-.34zM606.05 683.57v1.95h1.77v.94h-1.77v3.66c0 .84.24 1.32.92 1.32.32 0 .56-.04.71-.08l.06.92c-.24.1-.62.17-1.09.17-.58 0-1.04-.18-1.33-.52-.35-.36-.48-.97-.48-1.76v-3.7h-1.05v-.94h1.05v-1.62l1.21-.34zM612.95 692.3l-.1-.86h-.04c-.38.53-1.11 1.01-2.07 1.01-1.37 0-2.07-.97-2.07-1.95 0-1.64 1.46-2.54 4.08-2.52v-.14c0-.56-.15-1.57-1.54-1.57-.63 0-1.29.2-1.77.5l-.28-.81c.56-.36 1.37-.6 2.23-.6 2.07 0 2.58 1.41 2.58 2.77v2.54c0 .59.03 1.16.11 1.62h-1.13zm-.18-3.46c-1.34-.03-2.87.21-2.87 1.53 0 .8.53 1.18 1.16 1.18.88 0 1.44-.56 1.64-1.13.04-.13.07-.27.07-.39v-1.19z"/>
        </g>
        <g>
            <path class="East_India_Key_svg__st11" d="M164.85 457.36H218V472h-53.15z"/>
            <path d="M165.91 457.86h1.22v8.42h4.03v1.02h-5.25v-9.44zM177.94 465.45c0 .7.01 1.32.06 1.85h-1.09l-.07-1.11h-.03c-.32.55-1.04 1.26-2.24 1.26-1.06 0-2.34-.59-2.34-2.97v-3.96h1.23v3.75c0 1.29.39 2.16 1.51 2.16.83 0 1.4-.57 1.62-1.12.07-.18.11-.41.11-.63v-4.16h1.23v4.93zM184.81 467.05c-.32.17-1.04.39-1.95.39-2.05 0-3.38-1.39-3.38-3.46 0-2.09 1.43-3.6 3.64-3.6.73 0 1.37.18 1.71.35l-.28.95c-.29-.17-.76-.32-1.43-.32-1.55 0-2.4 1.15-2.4 2.56 0 1.57 1.01 2.54 2.35 2.54.7 0 1.16-.18 1.51-.34l.23.93zM187.47 463.63h.03c.17-.24.41-.53.6-.77l1.99-2.34h1.48l-2.62 2.79 2.98 3.99h-1.5l-2.34-3.25-.63.7v2.55h-1.22v-9.95h1.22v6.28zM193.06 462.35c0-.7-.01-1.27-.06-1.83h1.09l.07 1.12h.03c.34-.64 1.12-1.27 2.24-1.27.94 0 2.4.56 2.4 2.89v4.05h-1.23v-3.91c0-1.09-.41-2-1.57-2-.81 0-1.44.57-1.65 1.26-.06.15-.08.36-.08.57v4.08h-1.23v-4.96zM206.96 463.85c0 2.51-1.74 3.6-3.38 3.6-1.83 0-3.25-1.34-3.25-3.49 0-2.27 1.48-3.6 3.36-3.6 1.96.01 3.27 1.42 3.27 3.49zm-5.38.07c0 1.48.85 2.61 2.06 2.61 1.18 0 2.06-1.11 2.06-2.63 0-1.15-.57-2.61-2.03-2.61s-2.09 1.35-2.09 2.63zM208.9 460.52l.9 3.45c.2.76.38 1.46.5 2.16h.04c.15-.69.38-1.41.6-2.14l1.11-3.46h1.04l1.05 3.39c.25.81.45 1.53.6 2.21h.04c.11-.69.29-1.4.52-2.2l.97-3.4h1.22l-2.19 6.78h-1.12l-1.04-3.24c-.24-.76-.43-1.43-.6-2.23h-.03c-.17.81-.38 1.51-.62 2.24l-1.09 3.22h-1.12l-2.05-6.78h1.27z"/>
        </g>
    </g>
    <g id="East_India_Key_svg__blowups">
        <path id="East_India_Key_svg__map-2" class="East_India_Key_svg__st12" d="M739 419h67v44h-67z"/>
        <path id="East_India_Key_svg__map-4" class="East_India_Key_svg__st12" d="M411 433h22v17h-22z"/>
        <path id="East_India_Key_svg__map-3_1_" class="East_India_Key_svg__st13" d="M205.27 354H238l-.15 27.82-32.85-.2z"/>
        <path id="East_India_Key_svg__map-5" class="East_India_Key_svg__st14" d="M276 378.17V398l-21.05-.09.15-19.91z"/>
        <path id="East_India_Key_svg__map-6" transform="rotate(-180 290.878 381.873)" class="East_India_Key_svg__st15" d="M281.34 369.07h19.08v25.61h-19.08z"/>
    </g>
    <g id="East_India_Key_svg__flags">
        <a xlink:href="#East_India_Key_svg__a">
            <path id="East_India_Key_svg__kameng" onclick="navTo('a')" class="East_India_Key_svg__hoverthing2_x0020_" d="M723.97 447.05l-1.5-.01c-4.63-.04-8.31-4.34-8.22-9.6l.01-.81c.09-5.19 3.88-9.37 8.45-9.33l15.63.15-.35 19.74-14.02-.14"/>
        </a>
        <a xlink:href="#East_India_Key_svg__b">
            <path id="East_India_Key_svg__muksar" onclick="navTo('b')" class="East_India_Key_svg__hoverthing2_x0020_" d="M413.33 418.58l-.01-1.34c-.02-4.13 3.77-7.47 8.46-7.45h.73c4.63.02 8.41 3.34 8.43 7.42l.07 13.94-17.61-.06-.07-12.51"/>
        </a>
        <a xlink:href="#East_India_Key_svg__e">
            <path id="East_India_Key_svg__swat" onclick="navTo('e')" class="East_India_Key_svg__hoverthing4" d="M189.69 378.41l-1.48.05c-4.56.15-8.36-3.92-8.49-9.1l-.02-.8c-.13-5.11 3.42-9.38 7.93-9.53l15.38-.51.48 19.43-13.8.46"/>
        </a>
        <a xlink:href="#East_India_Key_svg__d">
            <path id="East_India_Key_svg__other" onclick="navTo('d')" class="East_India_Key_svg__hoverthing3" d="M256.28 364.82l-.01-1.34c-.02-4.15 3.78-7.5 8.49-7.48h.73c4.65.02 8.44 3.35 8.45 7.45l.07 13.99-17.67-.06-.06-12.56"/>
        </a>
        <a xlink:href="#East_India_Key_svg__c">
            <path id="East_India_Key_svg__test" onclick="navTo('c')" class="East_India_Key_svg__hoverthing5" d="M313.49 374.13l1.36-.01c4.21-.02 7.61 3.84 7.59 8.61v.74c-.02 4.72-3.4 8.56-7.56 8.58l-14.19.07.07-17.93 12.73-.06"/>
        </a>
    </g>
    <g id="East_India_Key_svg__towns">
        <path class="East_India_Key_svg__st16" d="M390.17 411.62l-.45-.48c-1.06-1.09-2.62-1.5-3.95-2.25s-2.53-2.26-2-3.68c1.48-.33 2.98-.66 4.49-.56 1.51.1 3.05.7 3.96 1.91 2.32 3.11 2.29.11 3.76-1.63 1.09-1.3 3.43-.42 4.09 1.14.66 1.56.2 3.35-.27 4.98-.75.08-1.54.17-2.16.6-.62.44-.96 1.35-.54 1.97.26.38.74.57 1.01.95.62.87-.2 2.01-.97 2.75-.37.36-.81.74-1.33.68-.45-.05-.77-.43-1.05-.78-1.46-1.84-3-3.87-4.59-5.6zM534.48 692.71c.75 1.44 1.83 2.89 1.6 4.5-.13.88-.64 1.66-.84 2.53s.09 2 .96 2.21c3.44-.36 6.39-3.61 9.78-2.96 1.96.38 3.44 2 4.51 3.68 1.08 1.68 1.93 3.55 3.36 4.94s3.7 2.2 5.45 1.24c-.26-1.18-.52-2.39-.32-3.58s.98-2.36 2.15-2.65c.77-.19 1.57.02 2.36.05 1.2.05 2.42-.33 3.38-1.06 1.48-1.11 2.27-3.3 1.32-4.88-1.08-1.79-3.56-1.9-5.54-2.55-4.51-1.49-7.09-7.17-5.25-11.55.32-.76.75-1.5.78-2.33.05-1.67-1.54-2.85-2.96-3.73a11.727 11.727 0 00-5.76 5.27c-2.56 4.81-5.23.46-7.35-2.4-1.27-1.71-5.5-7.36-8.14-6.24-4.04 1.71 5.39 9.45 4.25 12.4-1.18 3.1-6.25 2.34-3.74 7.11zM176.62 444.57c-.34.66-1.16 1.06-1.29 1.79-.16.92.97 1.61 1.9 1.51.93-.1 1.75-.66 2.64-.96 1.84-.6 3.87.02 5.58.93 1.71.92 3.26 2.14 5.06 2.87.55.22 1.17.4 1.73.2.83-.29 1.19-1.33 1.02-2.19-.17-.86-.73-1.59-1.28-2.28-1.86-2.34-3.72-4.69-5.58-7.03-.73-.92-1.5-2.13-.97-3.18.19-.38.53-.67.69-1.06.74-1.86-2.51-4.11-4.11-3.67-.65.18-2.32 2.61-3.11 3.17-1.73 1.25-2.95-.23-3.89 2.58-.87 2.58 2.72 5.14 1.61 7.32z"/>
    </g>
    <g id="East_India_Key_svg__mountains">
        <path class="East_India_Key_svg__st17" d="M205.5 198.5L192.51 221h25.98zM491.5 335.5L478.51 358h25.98z"/>
    </g>
    <g id="East_India_Key_svg__Border_Box">
        <path class="East_India_Key_svg__st18" d="M117 105h915v732H117z"/>
    </g>
</svg>
