<svg xmlns="http://www.w3.org/2000/svg" xmlns:xlink="http://www.w3.org/1999/xlink" viewBox="0 0 985 531"><style>.hoverthing_x0020_2{opacity:.8;fill:#f05a28}.st1,.st4,.st5,.st6{fill:none;stroke:#000;stroke-miterlimit:10}.st4,.st5,.st6{stroke:#3abfef}.st5,.st6{stroke-width:.5}.st6{stroke:#231f20}.st7{fill:#f0522a}.st10,.st8,.st9{fill:none;stroke:#231f20;stroke-width:2;stroke-miterlimit:10}.st10,.st9{fill:#231f20}.st10{opacity:.8;fill:none;stroke:#f05a28;stroke-width:4}</style><g id="Below_TWS"><path d="M668.83 346.01l-.21-.03c-.73-.11-1.48-.2-2.21-.08-1.02.17-1.93.73-2.81 1.28-9.03 5.65-18.58 11.67-29.23 11.83-5.39.08-11-1.34-16.05.54-3.24 1.21-6.15.26-9.5-.41-3.93-.79-7.82-1.72-11.71-2.66-13.32-3.2-26.67-5.38-39.78-9.35a269.03 269.03 0 0 1-22.25-7.82c-7.06-2.84-13.74-6.49-21.09-8.29-10.94-2.68-22.2-1.33-33.31-1.08-11.67.26-19.68-2.06-30.08-5.92-17.9-6.63-31.92-18-48.37-27.34-15.48-8.79-32.68-11.78-48.45-20.16-7.11-3.78-14.04-8.14-21.42-11.3-7.09-3.05-13.69-7.11-20.24-11.14-1.15-.71-2.3-1.42-3.37-2.24-.95-.73-1.84-1.56-2.74-2.35-.23-.2-.46-.4-.69-.59-2.55-2.16-5.26-4.13-8.04-5.98-1.75-1.17-3.53-2.3-5.06-3.74-1.25-1.17-2.32-2.52-3.38-3.86-3.21-4.05-6.19-8.67-9.94-12.25-6.28-6-15.32-7.82-23.63-10.37-14.06-4.31-26.89-12.06-30.3-27.07-3.57-15.74-5.51-33.58-17.88-43.94-9.38-7.85-22.55-9.01-31.99-17.01-2.76-2.33-4.95-5.25-7.46-7.84-7.11-7.33-16.61-9.83-24.81-15.46-8.74-6.01-16.97-12.84-24.04-20.77-.48-.54-1.02-1.12-1.73-1.25-.67-.12-1.33.18-1.94.47-10.13 4.86-20.26 9.71-30.39 14.57-1.92.92-3.93 1.91-5.19 3.63-1.23 1.68-1.59 3.82-1.89 5.88-5.3 36.91-1.62 74.41-.2 111.67.83 21.67.52 43.38-.25 65.05-.73 20.5-4.22 40.61-4.12 61.2.2 41.97 7.45 84.1 1.39 125.95l66.56.09c16.92.02 33.83.05 50.75.07 53.27.07 106.54.14 159.81.22 26.91.04 53.82.07 80.73.11 32.49.04 64.98.2 97.47.07 16.27-.07 32.55-.2 48.82-.46 13.4-.22 26.8-.99 40.21-.63 2.99.08 5.98.39 8.94.56 3.16.18 6.47-.41 9.65-.57 6.81-.35 13.64-.31 20.44.1-1.43-.1-3.82-2.97-5.01-3.87-2.33-1.76-4.27-3.99-6.62-5.72-1.17-.86-2.46-1.52-3.71-2.26-3.26-1.93-6.98-4.53-9.21-7.65-2.45-3.43-4.11-7.44-6.68-10.85-1.32-1.74-2.76-3.45-4.61-4.6-4.66-2.89-10.64-1.65-16.08-.94-17.65 2.3-36.11-1.76-53.25-5.6-11.06-2.47-22.5-2-33.74-1.52-5.82.25-11.63.57-17.45.74-2.5.07-4.29.87-6.72 1.39-2.51.53-5.1.6-7.62 1.15-2.17.47-4.25 1.29-6.29 2.18-6.26 2.72-12.2 6.13-18.09 9.59-1.44.84-2.89 1.7-4.49 2.2-1.6.5-3.29.62-4.96.74-7.88.57-16.05 1.1-23.44-1.68-5.35-2.01-11-2.55-16.57-3.8-5.72-1.29-11.38-2.87-16.97-4.61-16.05-5.01-30.77-13.47-45.34-21.86-5.55-3.2-11.11-6.38-16.67-9.58-4.99-2.87-10.45-5.46-14.96-9.04-9.04-7.18-18.26-14.3-28.67-19.41-2.33-1.14-4.71-2.18-6.96-3.46-3.13-1.78-5.98-4-8.82-6.22-6.35-4.96-12.24-10.46-15.44-17.99-3.73-8.78-6.86-17.85-9.54-27-1.09-3.7-2.1-7.49-2.03-11.35.07-3.86 1.35-7.85 4.22-10.43 1.04 4.23 3.33 8.03 5.58 11.75 7.47 12.31 15.03 24.61 23.94 35.92 4.15 5.27 8.46 9.36 13.81 13.29 5.46 4.01 11.11 7.76 16.55 11.8 11.54 8.57 23.1 17.14 35.3 24.76 6 3.75 12.16 7.26 18.5 10.4 2.99 1.48 6.02 2.69 9.08 3.91 1.72.69 6.04 4.71 7.78 4.32 1-.22.88-1.7.42-2.61-1.92-3.86-5.42-6.66-8.82-9.32-4.1-3.23-8.21-6.45-12.31-9.68-3.7-2.91-8.29-5.64-11.37-9.21-2.92-3.38-5.42-7.09-7.89-10.8-3-4.49-5.99-8.98-8.99-13.48-1.48-2.22-2.97-4.45-4.73-6.46-3.2-3.65-7.45-5.93-10.64-9.53-3.14-3.55-5.81-7.48-8.47-11.39-.77-1.14-1.57-2.34-1.71-3.7-.26-2.46 1.85-4.75 4.28-5.25 4.56-.94 9.01 3.47 12.86 5.34 1.86.9 3.72 1.81 5.38 3.04 2.47 1.84 4.37 4.33 6.24 6.79 1.83 2.41 3.66 4.82 5.49 7.22 1.57 2.06 3.13 4.12 4.58 6.26 1.87 2.75 3.54 5.62 5.3 8.44 1.84 2.94 3.78 5.81 5.71 8.69 2.13 3.16 4.26 6.33 6.45 9.45 5.11 7.27 12.91 9.11 20.23 13.37 2.56 1.49 5.12 3.23 6.63 5.78 1.65 2.78 1.84 6.18 2.99 9.2 1.89 4.96 6.33 8.63 11.24 10.65 4.91 2.02 10.29 2.56 15.59 2.78 10.27.42 20.07-.68 29.71-4.31 4.86-1.83 10.43-2.49 15.54-3.6 5.63-1.23 11.27-2.47 16.9-3.7 2.86-.63 5.71-1.25 8.54-1.99 7.08-1.85 14.02-4.22 21.38-2.95 7.21 1.25 14.51 2.31 21.76 3.27 9.72 1.29 19.5 2.19 29.29 2.77 4.82.28 9.69.64 14.52.61 4.46-.02 8.94.73 13.47.74 16.89.04 38.39.82 48.65 16.49 1.65 2.51 2.94 5.27 4.8 7.63 1.62 2.05 3.62 3.73 5.51 5.53 2 1.89 3.48 3.96 5.82 5.39 9.79 6 18.93 12.85 26.59 21.48.39.44.8.9 1.33 1.16.45.21.95.27 1.44.32 2.46.26 4.91.51 7.37.77 5.31.55 10.67 1.11 16.01.67 2.41-.2 4.42-.95 6.69-1.47 2.52-.57 5.48-.06 8.06.02 11.83.39 23.65.78 35.48 1.16 8.03.26 16.23.51 23.94-1.73-5.56-5.23-5.91-15.02-.72-20.62 3.32-3.59 8.57-5.77 9.99-10.44 1.21-3.97-1.05-8.34-4.36-10.86s-7.45-3.59-11.48-4.61c-17.76-4.48-37.42-6.43-53.19-16.2-4.88-3.02-9.95-8.65-7.36-13.76 2.24-4.44 8.37-4.64 13.34-4.42 21.53.95 43.72-1.99 62.72-12.16 6.87-3.68 13.25-8.25 20.23-11.71 12.93-6.41 27.92-6.62 41.8-10.55 11.88-3.36 23-8.09 34.21-13.17 2.79-1.27 4.9-2.48 6.64-4.99 3.46-5.01 7.33-8.94 12.86-11.66 1.03-.5 2.14-1.01 2.73-2 .49-.82.52-1.83.53-2.78.16-11.73.16-23.47.01-35.2-.02-1.77-.11-3.7-1.27-5.04-5.53 2.33-11.18 4.75-15.57 8.84-3.04 2.84-5.33 6.36-8.09 9.47-4.26 4.79-9.81 8.3-15.12 11.74-2.99 1.94-6.16 3.6-9.13 5.56a53.68 53.68 0 0 0-13.47 12.74c-3.27 4.39-7.32 9.38-12.4 11.74-9.07 4.22-18.23-1.38-27.53-1.04-7.19.26-12.59 3.73-19.14 6.22a86.199 86.199 0 0 1-21.98 5.21c-4.79.48-9.63.56-14.35 1.48-3.57.69-7.04 1.86-10.61 2.56-3.54.7-7.14.93-10.74 1.17l-23.01 1.5c-3.34.22-6.86.93-10.16.55-3.84-.44-7.66-1-11.49-1.51-2.23-.29-4.48-.59-6.59-1.34-1.88-.67-3.62-1.68-5.44-2.49a27.656 27.656 0 0 0-6.96-2.1z" fill="#fef201"/><path class="st1" d="M741.46 422.49h-.43"/><path d="M156.38 55.08c-.2-.33-.82-.45-.72-.82.02-.09.09-.16.15-.23.25-.26.49-.52.74-.78.22-.23.45-.46.76-.54.32-.08.68.05.98-.1.14-.65-.26-1.33-.81-1.7-.55-.38-1.23-.52-1.88-.65-.04-.77-.01-1.7.66-2.1.09-.06.2-.1.26-.19.15-.22-.07-.51-.28-.68-.27-.23-.72-.45-.95-.17-.1.13-.1.31-.13.47-.1.5-.66.85-1.15.73-.33-.08-.59-.32-.9-.45-.31-.13-.76-.08-.87.24-.18.55.83.91.72 1.47-.08.39-.61.46-1 .37-.83-.2-.89.08-1.58.29-.19.06-.33-.23-.54-.07-.37.28-.15.68-.08 1.04.12.62-.21 1.25-.69 1.66-.48.4-1.09.61-1.69.8-.43.13-1.04.16-1.17-.27-.05-.16 0-.35-.09-.5-.18-.3-.7-.09-.97-.32-.16-.13-.18-.35-.28-.53-.08-.14-.21-.24-.35-.34-.36-.25-.76-.45-1.17-.59-.51-.17-1.05-.26-1.55-.47.65-.39.81-1.39.31-1.96-.37-.43-1.07-.72-1.03-1.29.04-.58.81-.75 1.4-.76 1.14-.01 2.27-.03 3.41-.04.2 0 .41 0 .58.1.13.08.22.21.32.33.47.54 1.34.97 1.17 1.66l1.02-.96c.11-.11.23-.23.23-.39-.01-.16-.14-.28-.27-.36-.28-.19-.6-.33-.84-.58-.24-.25-.37-.64-.2-.93.1-.16.28-.35.18-.5-.08-.11-.24-.1-.37-.07-1.16.22-2.33.44-3.49.65-.39.07-.83.13-1.15-.1-.13-.09-.23-.23-.37-.3-.54-.26-1.08.58-1.66.46-.47-.09-.77-.76-1.23-.62-.31.1-.38.5-.57.77-.14.19-.34.32-.55.43-1.9 1.09-3.95 1.92-6.07 2.44-.56.14-1.24.36-1.36.93-.1.46.24.89.56 1.24.19.21.45.44.71.34.21-.08.29-.34.44-.51.28-.3.78-.26 1.13-.05.35.21.58.56.84.88.77.93 1.82 1.63 2.98 1.98.38.11.87.34.79.72-.43-.04-.93.07-1.14.44-.22.37.13.98.54.85-.06.74.3 1.5.92 1.92.3.2.65.34.89.61.18.2.29.47.48.66.97.97 2.92-.59 3.91.35.1.41-.39.72-.8.76-.42.04-.88-.02-1.21.24-.44.34-.38 1.01-.24 1.54.31 1.19.77 2.4 1.43 3.45.54.87 1.33 1.48 1.61 2.54.06.24.11.5.24.71.15.23.4.38.66.5.51.24 1.06.4 1.62.47.38.05.77.05 1.12.22.39.19.66.57.87.96.4.76.64 1.6.75 2.45.07.59.09 1.18.19 1.76.22 1.25.86 2.43 1.8 3.3.73.68.73 1.25 1.18 2.04.23.41.76 1.3 1.25 1.44.23.06.48.03.72.06.34.05.66.28.78.6.13.32.03.72-.24.93-.56.42-1.59-.03-1.94.57-.26.45.22 1.02.73 1.09.51.07 1.01-.17 1.5-.31.12-.03.26-.06.36.02.12.09.1.27.1.41.02.79.85 1.28 1.57 1.61.85.39 1.71.77 2.56 1.16 1.01-.45.82-.78 1.94-.19.84.45 1.68.89 2.52 1.34.21.11.42.22.61.36.38.28.67.65.98 1.01.32-.11.11-.57.04-.9-.12-.62.54-1.1 1.14-1.28.46-.14 1.15-.24 1.55.11.31.27.38.71.69 1 .78.74 1.5.79 2.48.93 1.16.16 2.31.58 3.31 1.19.18.11.36.22.56.25.23.02.46-.07.69-.06.16.01.32.07.47.13.56.22 1.11.43 1.67.65.31.12.78.15.84-.17.04-.23-.21-.4-.42-.51-.4-.2-.81-.4-1.21-.6-.39-.19-.8-.4-1.01-.78-.21-.38-.1-.97.32-1.08.23-.07.48.03.7.14.98.45 1.91 1 2.77 1.65.21.16.51.32.71.15.29-.24-.07-.66-.32-.93-.64-.67-.66-1.71 0-2.37.28-.28.66-.49.78-.87.21-.68-.58-1.3-.56-2.01.01-.29.15-.55.24-.83.09-.27.1-.61-.1-.81-.34-.03-.56.34-.65.66-.09.32-.16.7-.45.87-.1.06-.23.08-.34.11-.27.05-.57.08-.78-.09-.81-.64-.2-2.11.38-2.63.45-.41.67-1.11 1.25-1.31-1.11-.57-2.28-1.02-3.49-1.33-.23-.06-.53-.08-.64.13-.06.11-.04.24-.04.36-.03.38-.4.69-.78.65-.3-.19-.3-.65-.11-.94.2-.29.53-.46.84-.61.34-.16.67-.32 1.01-.48.2-.09.41-.2.5-.4.12-.25 0-.57-.23-.73-.23-.16-.53-.18-.8-.12.26-.54.62-1.07.63-1.67s-.53-1.26-1.1-1.07c.51-1.23 1.02-2.45 1.54-3.68.19-.45.28-1.15-.19-1.29-.34-.1-.66.22-.78.55-.13.33-.16.7-.39.97-.28.34-.79.43-1.04.79-.23.34-.19.87-.55 1.06-.32.17-.76-.05-1.07.16-.48.33-.07 1.34-.63 1.52-1-.21-.94-.73-.65-1.52.33-.91.34-1.79.29-2.75-.01-.14-.02-.31-.14-.39-.13-.09-.31-.04-.46.02-.64.26-1.28.52-1.92.77.01-.52-.07-1.05-.36-1.48s-.81-.73-1.32-.63c-.05.6-.09 1.19-.14 1.79-.03.37-.06.75-.24 1.08-.17.33-.53.59-.9.53-.59-.09-.78-.88-.61-1.45s.58-1.06.69-1.65c.07-.37.01-.75-.05-1.13-.07-.43-.32-.99-.74-.87-.39.11-.55.77-.94.68-.3-.07-.3-.5-.2-.79s.19-.67-.06-.85c-.12-.08-.28-.08-.42-.07-.62.06-1.23.24-1.79.52-.34.18-.68.4-1.06.39-.55-.01-.89-.75-.81-1.24.1-.57.73-.78.92-1.3.08-.21.1-.5.32-.57.15-.05.31.06.43.16.46.39.93.84 1.52.89s1.24-.61.92-1.12c-.32-.5-1.24-.36-1.49-.9-.06-.14-.07-.29-.12-.43-.15-.37-.59-.51-.98-.61-1.5-.36-3.11-.77-4.15-1.91-.2-.23-.39-.5-.39-.8 0-.41.34-.76.73-.88.39-.12.81-.07 1.21.02 2.51.55 4.86 2.3 7.38 1.85.1-.02.21-.04.3-.11.29-.21.11-.72-.22-.87-.33-.15-.71-.07-1.07-.03-1.09.11-2.18-.22-3.22-.55-.33-.29-.16-.82-.07-1.25.1-.43-.11-1.06-.54-.96-.15.04-.27.17-.42.21-.23.06-.46-.09-.68-.19-.7-.33-1.53-.14-2.28.05-.66.17-1.33.34-1.94.64-1.1.53-1.96 1.43-2.81 2.31-.5-.33-.2-1.87-.09-2.38.05-.47.84-1.19.55-1.66z" opacity=".81" fill="#fef201" stroke="#231f20" stroke-miterlimit="10"/></g><g id="Active_floodplain"><path d="M419.22 439.14c2.47.43 4.94.9 7.42 1.31 2.12.35 4.21 1.06 6.36 1.4 4.61.73 9.29.71 13.94.68 2.19-.01 4.38-.03 6.57-.04 1.68-.01 3.28.53 4.93 0 1.4-.45 2.54-1.47 3.68-2.41 16.2-13.44 42.67-16.78 62.93-16.54 12.78.15 25.49 1.92 37.96 4.63 12 2.61 23.76 5.81 36.2 4.03 8.45-1.21 17.99-4.61 24.83.5 5.68 4.25 5.23 12.03 10.79 16.72 3.51 2.96 7.66 5.11 11.1 8.15 2.23 1.97 4.13 4.3 6.43 6.17 8.86 7.2 22.27 3.69 32.94 4.07-2.79-3.81-6.23-7.19-9.53-10.51-3.28-3.3-7.11-6.16-11.28-8.24-11.49-5.72-18.35-18.39-26.48-28.15-4.72-5.67-11.96-8.78-19.24-9.99-23.19-3.85-48.59-2.81-72.15-4.45-8.64-.6-16.85-3.06-25.37-4.53-3.25-.56-6.54-1.02-9.84-1.04-3.3-.02-6.11.64-9.29 1.47-7.6 1.97-15.59 5.01-23.44 5.26-2.38.08-4.22.15-6.48.88a46.76 46.76 0 0 1-7.2 1.69c-2.1.32-4.21.5-6.3.88-4.68.87-9.11 2.76-13.71 4.01-4.09 1.11-8.21 2.01-12.48 2.26-3.88.22-7.88-.43-11.72-.09-6.92.61-14.02-1.46-20.02-5.02-1.16-.69-2.31-1.43-3.26-2.38-3-3-3.65-7.54-5.23-11.48-1.23-3.06-2.95-6.07-5.81-7.82-2.92-1.78-6.13-3.03-9.23-4.45-2.56-1.18-4.91-2.78-7.02-4.64-2.81-2.49-5.2-5.42-7.31-8.52-2.28-3.34-4.67-6.58-6.92-9.96-4.78-7.2-9.05-14.73-14.13-21.72-.84-1.15-1.7-2.29-2.62-3.37-1.69-1.99-3.57-3.79-5.4-5.64-1.64-1.65-3.06-3.72-4.92-5.11-3.87-2.9-8.46-4.9-13.21-5.8-1.14-.22-2.32-.38-3.47-.17-2.65.47-3.93 2.63-3.56 5.2.31 2.12 1.35 4.07 2.68 5.75 1.22 1.55 2.94 2.68 4.13 4.21 1.05 1.35 1.97 2.86 3.05 4.23 1.62 2.05 4.16 3.64 6.18 5.31 2.66 2.19 5.34 4.41 7.49 7.11 2.39 3 4.04 6.48 5.97 9.77 2.08 3.56 4.57 6.83 6.95 10.17 2.44 3.41 4.16 7.42 7.37 10.23 1.51 1.32 3.28 2.3 5.04 3.25 1.96 1.06 3.07 1.84 4.51 3.5 2.73 3.14 6.19 5.5 9.37 8.14 3.49 2.89 6.67 6.14 9.84 9.38 1.19 1.21 2.45 2.61 2.45 4.31-5.89-2.58-11.7-5.35-17.41-8.31-1.45-.75-2.87-1.56-4.32-2.29-.98-.49-2.03-.62-3-1.08-2.7-1.28-5.05-3.51-7.58-5.1-7.91-5.05-15.81-10.1-23.72-15.14-1.35-.86-2.7-1.72-3.97-2.7-1.92-1.47-3.37-3.22-5.47-4.4-2.5-1.41-4.87-3.06-7.36-4.49-16.85-9.64-31.13-25.01-42.16-42.12-6.32-9.81-11.58-20.2-15.64-30.41a20.86 20.86 0 0 0-4.44 12.71c-.02 3.81 1.01 7.53 2.03 11.2 1.29 4.63 2.57 9.26 3.86 13.89 1.09 3.92 2.21 7.9 4.36 11.35 7.79 12.46 20.22 21.82 32.94 28.8 12.99 7.12 24.54 16.42 37.62 23.75 1.73.97 3.48 1.9 5.22 2.86 1.43.79 2.46 1.98 3.87 2.84 3.31 2.02 6.96 3.37 10.43 5.06 4.8 2.33 9.22 5.31 13.82 7.99 4.69 2.73 9.49 5.39 14.19 8.15 5.09 2.98 10.5 5.4 16.05 7.37 2.73.97 5.53 1.97 8.35 2.61 2.85.65 5.58 2.22 8.46 2.97.43.11.86.22 1.28.32 2.69.63 5.4 1.1 8.1 1.57z" opacity=".57" fill="#f8f7ca" stroke="#231f20" stroke-width=".5" stroke-miterlimit="10"/><path class="st1" d="M784.5 467.5c-7-5-6.48-16.66-1.29-22.26 3.32-3.59 8.57-5.77 9.99-10.44 1.21-3.97-1.05-8.34-4.36-10.86s-7.45-3.59-11.48-4.61c-17.76-4.48-37.42-6.43-53.19-16.2-4.88-3.02-9.95-8.65-7.36-13.76 2.24-4.44 8.37-4.64 13.34-4.42 21.53.95 43.72-1.99 62.72-12.16 6.87-3.68 13.25-8.25 20.23-11.71 12.93-6.41 27.92-6.62 41.8-10.55 15.03-4.25 24.97-8.38 38.6-16.01 1.67-.93 5.83-7.48 7-9 1.55-2.02 3.09-1.33 4.38-3.52 2.62-4.48 6.24 3.67 5.62-11.48"/></g><g id="rivers"><path class="st4" d="M465.89 420.4c1.87.25 3.75.42 5.64.49 1.35.05 2.82.03 3.9-.79 1.1-.83 1.52-2.29 2.48-3.28.95-.98 2.36-1.42 3.72-1.47 1.73-.06 3.54.36 5.23.63 3.33.52 7.4.17 9.08-2.75.76-1.32.95-3.08 2.21-3.94.6-.41 1.34-.53 2.07-.62 3.16-.36 6.39-.12 9.45.73 1.46.4 2.9.94 4.41.95 1.99.02 3.86-.85 5.78-1.4 11.22-3.21 18.26 9.45 28.79 5.33.15 2.62 3.17 4.64 5.64 3.77 1-.35 1.87-1.07 2.91-1.23 1.04-.15 2.07.27 3 .75 5.75 2.93 11.46 8.22 17.66 6.41 4.39-1.28 8.16-6.05 12.5-4.61 1.14.38 2.09 1.16 3.1 1.79 8.87 5.53 12.86.11 20.82-2.58 6.45-2.18 12.84 3.58 16.27 9.47 2.83 4.86 4.89 10.2 8.27 14.7 3.14 4.17 7.38 7.51 12.17 9.59 1.36.59 2.79 1.09 4.02 1.91 3.37 2.24 4.77 6.42 7.16 9.69.77 1.05 1.68 1.99 2.48 3.01.05.06.1.13.1.21-.01.16-.21.22-.37.23-.93.06-1.86.07-2.79.03"/><path class="st4" d="M315.5 220.23c1.31.04 2.62.08 3.93.11 0 8.74-21.27 6.72-26.2 10.95-1.37 1.17-2.48 2.7-4.11 3.47-1.46.69-3.18.68-4.59 1.47-2.87 1.6-3.18 5.5-4.5 8.5-1.37 3.11-4.04 5.48-5.59 8.5-2.58 5.01.18 14.79.52 20.33.43 7.15.86 14.33 2.25 21.35 1.01 5.12 2.58 10.25 5.6 14.51 3.56 5.02 8.8 8.38 14.07 11.35 2.33 1.31 4.93 3.22 7.44 4.14 3.24 1.19 5.96.82 8.85 3.27 3.24 2.74 6.67 4.69 9.98 7.21 3.72 2.83 5.98 7.19 9.34 10.38 4.73 4.48 8.68 9.29 12.49 14.58 6.25 8.67 12.5 17.34 18.74 26.01 3.66 5.08 8.58 10.74 14.79 9.97 1.48-.18 2.97-.74 4.42-.37 1.25.32 2.22 1.28 3.12 2.21 2.41 2.46 4.82 4.93 7.23 7.39 1.01 1.04 2.04 2.1 2.64 3.42.66 1.46.74 3.13 1.41 4.59.99 2.14 3.1 3.52 5.13 4.7 8.7 5.07 23.67 13.48 33.93 12.92 3.43-.19 6.48 2.23 9.88 2.65 2.84.36 5.75-.74 7.95-2.57 2.21-1.83 3.77-4.33 4.89-6.97.74-1.74 1.42-3.7 3.06-4.65 3.83-2.23 8.74 2.99 12.82 1.25 1.67-.71 2.67-2.42 3.37-4.1"/><path class="st5" d="M373.15 213.18c1.29-.13 2.5.64 3.45 1.51.96.87 1.81 1.9 2.95 2.5 1.08.57 2.38.73 3.32 1.51.99.82 1.37 2.14 1.8 3.35 1.26 3.51 3.11 6.65 6.4 8.47 1.33.74 2.98 2.04 4.54 2.13.73.04 1.48-.03 2.16.22.68.25 1.23.84 1.44 1.53.14.45.15.96.39 1.37.26.43.74.68 1.22.82 2.03.58 4.36-.48 6.25.45.63.31 1.14.81 1.63 1.31.88.88 1.77 1.76 2.65 2.64.76.75 1.55 1.58 1.7 2.64.15 1.1-.41 2.37.26 3.25.95 1.26 3.34.35 4.32 1.6.27.34.37.8.34 1.24-.08 1.33-1.18 2.38-2.37 2.97-1.19.59-2.52.87-3.7 1.48-1.34.69-2.44 1.82-3.13 3.15-.56 1.1-1.66 2.46-1.87 3.66-.24 1.4.79 2.67 1.14 4.05.38 1.51-.15 3.22-1.32 4.25-1.06.93-2.61 1.4-3.19 2.68-.18.39-.24.81-.4 1.21-.42 1.07-1.43 1.79-2.43 2.36-1 .57-2.07 1.09-2.8 1.98-1.92 2.35.73 4.79 2.42 6.23.96.81 1.82 1.74 2.57 2.75.22.29.43.61.49.97.13.85-.72 1.63-1.58 1.63-.86 0-1.63-.58-2.11-1.3-.48-.71-.73-1.55-1.03-2.36-.3-.81-.67-1.62-1.32-2.19-1.2-1.04-3-.95-4.57-.69-1.69.29-3.17.54-4.77-.11l-5.1-2.07c-1.35.91.96 2.4 1.63 2.8 1.41.84 2.44 1.17 4.09 1.49.4.08.81.15 1.18.35.63.33 1.04.96 1.36 1.59.59 1.16.97 2.45.9 3.75-.07 1.21-.53 2.36-.98 3.48-.83 2.05-1.51 4.11-2.61 6.03-1.05 1.83-2.21 3.67-2.5 5.8-1.16 8.55 5.6 21.34 8.1 29.45 1.48 4.8 2.97 9.67 3.13 14.69.06 2.05-.38 4.24.93 6.03 1.53 2.09 4.69 2.32 6.42 4.25.49.54.84 1.2 1.4 1.67 1 .82 2.47.87 3.49 1.68.44.35.76.81 1.12 1.24 1.63 1.92 4.17 3 6.68 2.95 2.72-.05 5.73-1.4 8.38-.35.94.37 2.28 1.07 2.94 1.84.76.88.67 2.16 1.24 3.13.57.95 1.79 1.46 2.86 1.2.83-.2 1.57-.81 2.42-.76 1.31.08 2.03 1.59 3.25 2.09.68.28 1.45.21 2.13.47.79.3 1.38 1.01 2.19 1.27.59.19 1.24.12 1.86.17 1.27.1 2.44.69 3.57 1.28 1.42.74 2.85 1.47 4.27 2.21 1.1.57 1.39 1.44 2.2 2.32.85.92 1.94 1.62 3.14 1.99 1.06.32 2.18.4 3.23.73 1.19.37 2.25 1.06 3.37 1.6 1.51.73 3.12 1.21 4.72 1.68.93.27 1.87.55 2.83.56 1.48.02 2.96-.58 4.41-.25.95.21 1.77.8 2.56 1.38 1.58 1.15 3.15 2.31 4.73 3.46.41.3.83.61 1.13 1.02 2.73-.01 5.14 1.64 7.36 3.23 1.13.8 2.28 1.63 3.02 2.8 1.16 1.8 1.19 4.18 2.46 5.91a5.035 5.035 0 0 0 4.33 2.03M487.3 267.36c-.55 3.15-2.35 5.78-3.11 8.82-.56 2.25-1.97 3.88-2.76 5.99-.91 2.42-2.21 4.7-3.85 6.7-.92 1.13-1.94 2.16-2.96 3.2-.42.43-.88.98-.71 1.56.11.4.5.66.75 1 .49.64.48 1.51.44 2.31-.04.95-.08 1.92-.32 2.84-.38 1.43-1.26 2.71-1.51 4.17-.34 1.96.49 3.93 1.54 5.61.29.47.61.95.72 1.5.29 1.43-.9 2.68-1.49 4.02-.97 2.19-.49 5.14-2.37 6.62 1.14.73 2.49 1.11 3.84 1.08.7-.01 1.41-.13 2.09.04.7.18 1.28.65 1.96.91 1.44.54 3.1.03 4.58.49.6.18 1.14.52 1.74.71.73.23 1.5.23 2.26.25 4.79.15 9.67 1.15 13.83 3.59.28.16.56.34.76.58.68.82.09 2.3-.96 2.43-.61.07-1.21-.23-1.82-.2-.42.02-.82.19-1.2.37-1.27.57-2.54 1.13-3.81 1.7-.41.18-.83.37-1.15.68-.23.22-.41.5-.65.71-.93.83-2.27.45-3.36.83-.48.17-.85.48-1.3.66-.72.28-1.37.18-1.95.84-1.22 1.4-.15 3.94-1.48 5.23-1.35 1.31-3.21 2.98-2.89 5.1.15 1.02.82 1.88 1.47 2.68l2.22 2.76c.37.46.76.93 1.29 1.18.46.22 1.02.26 1.41.6.51.45.53 1.24.91 1.8.76 1.11 2.51.87 3.58 1.68.68.51.99 1.37 1.3 2.16 1.16 2.95 2.84 5.7 4.94 8.07.83.93 1.95 1.73 2.65 2.74.74 1.06.94 2.42 1.8 3.42.74.86 1.88 1.32 2.56 2.22.29.39.49.85.8 1.24.87 1.09 2.43 1.34 3.46 2.27.85.77 1.26 1.93 2.1 2.71.88.83 2.15 1.17 2.97 2.06.73.8.98 1.9 1.34 2.92 1.37 3.87 4.59 7.1 4.96 11.2.1 1.09-.02 2.19.08 3.28a8.183 8.183 0 0 0 3.09 5.62c.1.08.22.15.34.11.11-.05.07-.28-.04-.24M589.2 418.88a29.613 29.613 0 0 1-13.21-12.11c-.53-.93-1.01-1.88-1.34-2.9-.38-1.16-.56-2.38-.61-3.61-.08-1.67.06-3.35.41-4.98.12-.56.27-1.12.58-1.59.73-1.11 2.15-1.52 3.13-2.42.6-.54 1.01-1.25 1.5-1.89 2.5-3.28 6.79-4.74 9.42-7.91 1.43-1.73 2.62-3.75 3.92-5.59 1.63-2.31 2.73-5.2 4.01-7.74.71-1.4 1.43-2.83 1.69-4.38.18-1.07.15-2.17.49-3.2.19-.58.5-1.11.67-1.7.39-1.35.02-2.91.74-4.12.4-.66 1.1-1.16 1.29-1.9.21-.85-.32-1.71-.91-2.35-.6-.64-1.31-1.23-1.61-2.05-.35-.98-.03-2.06-.1-3.09-.06-.86-.39-1.68-.46-2.54-.2-2.31 1.52-4.42 3.57-5.49.74-.39 1.73-.77 2.23-1.48 1.04-1.5-.46-3.62 1-5.06.78-.77 2.1-.87 2.74-1.76.25-.35.37-.78.4-1.21.15-1.68-.74-3.25-1.15-4.88-.27-1.08-.33-2.2-.52-3.3-.52-3.04-2.02-6.21-.85-9.07.14-.34.33-.69.65-.87.47-.26 1.06-.11 1.58-.24 2-.49.15-2.64.87-3.8.36-.58.96-.97 1.54-1.33.9-.56 1.81-1.11 2.73-1.64.29-.17.58-.34.78-.61.49-.66.16-1.65-.47-2.19-.62-.54-1.45-.75-2.23-1.02-1.12-.39-2.19-.93-3.18-1.6-.9-.61-1.78-1.36-2.85-1.49-.76-.09-1.52.14-2.28.17-1.9.06-3.61-1.14-5.49-1.44-1.04-.16-2.11-.04-3.16.09-2.5.31-5.01.67-7.53.65-2.98-.02-5.95-.55-8.92-.34-1.09.08-2.31.23-3.18-.43-1.36-1.04-.91-3.21-1.68-4.74-.79-1.57-2.69-2.15-4.4-2.58-1.07-.27-2.25-.4-3.27.04-.56.24-1.1.64-1.3 1.22-.16.43-.11.93-.31 1.35-.47 1-1.95 1.03-2.66 1.88-.23.28-.37.64-.63.9-.46.47-1.19.51-1.84.49-1.53-.04-3.06-.29-4.52-.72-.87-.26-1.74-.59-2.65-.57-.91.01-1.88.47-2.19 1.32-.22.62-.06 1.3.11 1.94.31 1.16.61 2.31.92 3.47M653.7 321.13c1.98 2.2 2.11 5.53 1.39 8.4s-2.16 5.51-2.98 8.35c-1.28 4.41-1.01 9.25.75 13.49 3.64 8.77 12.87 14.02 17.44 22.34.72 1.3 1.32 2.69 2.32 3.79 1.45 1.61 3.58 2.46 5.06 4.04 1.93 2.07 2.46 5.03 3.48 7.67.85 2.2 2.29 4.9 3.88 6.66 1.75 1.93 3.83 2.22 5.72 3.95.62.57 1.03 1.34 1.66 1.9.53.46 1.18.74 1.79 1.06 3.06 1.62 3.73 3.59 5.07 6.56.83 1.85 2.3 3.56 2.22 5.59"/><path class="st4" d="M715.03 467.58c-2.03-1.3-4.13-2.5-5.97-4.07-1.95-1.66-3.92-3.49-4.78-5.9-1.26-3.5.06-7.43-.68-11.08-.52-2.54-2-4.76-3.1-7.1-3.04-6.44-3.25-14.16-.55-20.74.89-2.16 2.07-4.22 2.64-6.49.97-3.86.08-7.91-.02-11.89-.18-7.16 3.83-11.36 9.83-14.46 5.02-2.59 10.51-6.76 15.57-8.78 5.19-2.07 8.98 1.45 14.19 1.71 3.43.17 6.65-1.51 10-2.25 6.06-1.33 12.54.47 18.52-1.21 4.61-1.3 8.39-4.51 12.29-7.29a77.115 77.115 0 0 1 27.71-12.37c10.22-2.3 19.58-6.52 30.24-7.29 1.74-.13 3.56-.21 5.06-1.1 1.77-1.04 2.79-3.01 4.36-4.34 2.71-2.27 6.58-2.31 9.97-3.33 9.28-2.79 14.27-12.61 17.96-21.57.51-1.23 1.03-2.5 1.97-3.44 1.72-1.72 4.4-1.97 6.47-3.24 2.01-1.23 3.31-3.32 5.07-4.88 2.57-2.29 6.03-3.38 8.64-5.62s4.09-6.63 1.6-9.01c-.77-.73-1.79-1.14-2.78-1.53-2-.78-4.41-1.36-6.21-2.54-1.52-.99-1.01-2.82-3.67-2.95-2.51-.12-5.62.2-6.9-1.95-.73-1.23-.47-2.81.08-4.13.55-1.32 1.37-2.53 1.77-3.9 1.1-3.83-1.3-7.71-3.6-10.98-1.2-1.7-2.39-3.41-3.59-5.11-1.84-2.63-3.68-3.08-2.48-6.06.34-.85 1.09-1.46 1.8-2.03 4.26-3.4 8.52-6.81 12.78-10.21 1.78-1.42 3.62-2.91 4.63-4.96 1.97-3.96.32-8.69-1.34-12.79-.68-1.68-1.42-3.44-2.87-4.52-2.55-1.9-6.35-.88-8.69 1.27s-3.63 5.17-5.2 7.94c-1.56 2.77-3.66 5.52-6.7 6.45-1.1.33-2.27.41-3.38.69-3.3.85-5.8 3.43-8.42 5.61-6.36 5.29-14.34 8.61-22.57 9.39-2.28.22-4.64.26-6.75 1.14-2.24.94-4.09 2.8-6.47 3.31-3.02.65-6.08-1.04-9.17-.91-2.01.09-3.89.94-5.85 1.41-8.26 2-18.96-2.09-27.37-2.73-2.57-.19-5.15-.33-7.72-.46-2.28-.12-4.56-.23-6.84-.35-11.01-.56-22.1-1.12-33 .53-3.01.46-6.03 1.08-9.08.97-3.27-.13-6.44-1.11-9.69-1.44-9.05-.93-18.11 2.42-27.17 2.63-7.73.18-16.9 2.35-24.46 1.03-2.35-.41-4.6-1.35-6.97-1.64-4.7-.57-9.18 1.42-13.71 2.3-2.22.43-4.41.09-6.59.45-2.44.4-4.63 1.74-6.7 3.03-.5.31-1.02.64-1.27 1.17-.21.42-.21.92-.33 1.38-.36 1.51-1.77 2.5-2.8 3.66-1.01 1.14-1.69 2.54-2.7 3.67-1.77 1.97-4.39 2.98-7.01 3.4s-5.28.31-7.93.43c-4.96.22-10.04 1.22-14.81-.18-1.8-.53-3.34-1.56-5.22-1.58-2.31-.02-4.46.34-6.74.73-5.58.96-11.27.92-16.93.87-2.73-.02-5.48-.05-8.13-.7-1.49-.37-2.97-.93-4.5-.87-1.91.08-3.88 1.13-5.65.41-.92-.37-1.63-1.19-2.58-1.49-1.52-.49-3.3.44-4.74-.27-1.14-.56-1.77-1.71-3.14-1.85-.97-.1-2.1.2-3.09.25-2.59.12-5.1 1.24-6.71 3.31-.44.57-.89 1.24-1.6 1.35-.39.06-.77-.07-1.14-.2-1.83-.63-3.65-1.26-5.48-1.89-1.09-.38-2.19-.75-3.33-.83-.89-.06-1.8.07-2.68-.07-1.38-.22-2.58-1.09-3.59-2.06-.16-.15-.31-.31-.39-.51-.1-.28-.03-.58.04-.87l.66-2.67c.14-.58.28-1.17.21-1.76-.12-.98-.83-1.82-1.67-2.33-3.66-2.23-8.67-2.05-12.73-3.23-1.44-.42-3.07-1.1-3.47-2.55-.18-.68-.06-1.44-.39-2.06-.38-.71-1.21-1.01-1.9-1.42-1.63-.96-2.7-2.74-4.41-3.57-1.61-.78-3.56-.59-5.2-1.32-1.43-.63-2.47-1.88-3.69-2.86-1.06-.86-2.29-1.53-3.58-1.96-1.46-.49-2.64-.79-3.47-2.16-.75-1.25-1.54-2.04-2.86-2.78-2.4-1.34-4.9-2.53-7.45-3.56-1.24-.5-2.52-.97-3.52-1.85-1.32-1.16-2.08-2.96-3.66-3.72-1.51-.74-3.33-.3-4.98-.61-1.35-.25-2.56-1-3.87-1.42-.73-.23-1.5-.36-2.2-.66-.83-.35-1.55-.91-2.26-1.46-3.67-2.83-7.52-6-11.99-7.34-2.53-.76-4.86-2.3-7.49-2.46-.85-.05-1.7.04-2.55-.02-1.91-.13-3.68-1-5.4-1.86"/><path class="st5" d="M766.34 288.18c6.71 9.3 6.73 22.9.03 32.21-1.76 2.44-3.91 4.59-5.56 7.11-2.6 3.98-3.85 8.75-6.72 12.54-3.86 5.08-10.55 8.35-12.05 14.56-.53 2.19-.31 4.48-.49 6.72-.46 5.83-3.75 11.38-8.65 14.57M776.85 277.18c1.52 4.52 7.17 5.98 11.94 6.05 4.77.06 10.04-.43 13.8 2.51 6.45 5.04 6.5-1.14 12.45-2.96 1.59-.49 3.28-.45 4.95-.41l11.08.27c1.41.03 2.99 0 3.96-1.02.57-.6.82-1.44 1.36-2.06 1.21-1.38 3.37-1.23 5.19-.97 2.39.35 5.01.81 6.58 2.65 1.58 1.85 1.83 4.8 3.93 6.02.79.46 1.8.64 2.35 1.37.82 1.07.19 2.61.42 3.94.32 1.81 2.12 2.88 3.46 4.14 2.67 2.51 3.74 6.36 3.67 10.02-.13 6.66-.89 13.97-1.55 20.66-.11 1.09-.24 2.21-.72 3.19-.58 1.16-1.6 2.02-2.59 2.85-3.99 3.34-7.99 6.68-11.98 10.02-3.2 2.68-7.13 4.9-11.3 5.63M385.74 202.22c-3.9-3.61-9.04-5.5-14.03-7.32-2.1-.76-4.2-1.52-6.31-2.29-5.71-2.07-11.44-3.81-16.99-6.31-5.54-2.49-10.92-5.3-16.3-8.12-6.69-3.49-13.37-6.99-20.06-10.48-2.72-1.42-7.45-1.99-10.49-1.57-2.19.31-4.28-1.83-6.41-1.25-1.37.37-2.19 1.72-3 2.88a19.449 19.449 0 0 1-9.83 7.23c-2.07.67-4.25 1.03-6.4.73-1.95-.28-3.66-1.4-5.6-1.61-1.66-.18-3.3.45-4.76 1.25a20.503 20.503 0 0 0-5.25 4.1c-.49.53-.96 1.1-1.51 1.58-1.79 1.59-4.34 2.18-6.71 1.85-.34-.05-.69-.11-1 .02-.4.16-.61.58-.84.94-1.06 1.7-4.67 4.03-6.67 4.27-2.42.29-4.66-1.26-6.44-2.92-1.79-1.66-3.5-3.57-5.82-4.31-1.49-.47-3.46-.19-4.11 1.24-.19.42-.24.89-.38 1.33-.66 2.02-3.62 2.8-5.19 1.37-1.29-1.17-1.58-3.32-3.16-4.06-1.89-.88-3.9.99-4.92 2.82-.35.62-.66 1.39-.31 2.01.28.49.89.69 1.44.83 3.09.78 6.91 1.87 8.08 5.25.98 2.84-.87 5.96-3.75 6.63-2.04.47-4.23.28-6.15-.53-.73-.31-1.44-.71-2.22-.79-.53-.06-1.06.04-1.58.12-5.08.81-10.29.86-15.38.14-.62-.09-1.25-.19-1.88-.15-.8.05-1.57.33-2.35.55-4.07 1.15-8.59.63-12.29-1.4-.85-.47-1.68-1.02-2.62-1.28-1.3-.36-2.77-.14-3.94-.8-2.76-1.56-3.36-3.53-6.94-3.67-3.12-.12-4.94 1.95-7.51 3.13-2.99 1.38-5.93 2.66-8.73 4.43-.43.27-.87.56-1.12 1-.28.48-.29 1.07-.5 1.58-.52 1.28-2.04 1.76-3.16 2.57-1.68 1.21-2.77 3.36-4.13 4.89-1.86 2.09-3.67 4.09-6.08 5.58-1.55.95-3.3 1.77-4.23 3.33-.88 1.48-.87 3.42-1.95 4.76-.51.64-1.21 1.08-1.91 1.5a58.19 58.19 0 0 1-10.89 5.05c-1.27.44-2.58.84-3.7 1.6-1.16.79-2.06 1.94-3.28 2.65-2.59 1.52-5.88.69-8.85 1.15-3.55.54-6.51 3.94-10.17 2.31-1.46 1.97-1.5 1.42-3.89.86-2.39-.57-4.89-1.51-7.22-.74"/><path class="st5" d="M245.18 146.6c-1.84 2.59-2.56 5.85-2.51 9.03s.82 6.3 1.74 9.34c.22.74.44 1.6.03 2.25-.33.52-.96.75-1.56.91-1.5.39-3.07.53-4.61.41-.56-.04-1.13-.12-1.64-.36-.79-.37-1.37-1.07-1.96-1.71-3.15-3.38-8-5.52-12.46-4.3-1.71.47-3.26 1.39-4.95 1.95-1.68.56-3.66.71-5.12-.29-.73-.5-1.26-1.23-1.88-1.85-3.72-3.73-10.15-3.1-14.32-6.31-2.28-1.76-4.21-4.75-7.07-4.47-2.57.25-4.08 3.35-3.53 5.87.31 1.42 1.09 2.7 1.59 4.06.5 1.37.7 2.99-.11 4.21-.5.76-1.35 1.29-1.64 2.16-.17.5-.12 1.05-.26 1.55-.4 1.48-2.09 2.11-3.38 2.94-1.62 1.04-2.78 2.63-3.91 4.19-1.84 2.53-3.68 5.07-5.52 7.6-2.02 2.79-4.37 5.78-7.75 6.42M434.08 302.41l2.65 2.53c.28.26.57.55.65.93.12.54-.23 1.12-.04 1.63.13.33.45.55.76.72.85.48 1.75.87 2.68 1.14.7.21 1.45.37 2.02.83.43.35.72.85 1 1.34.57 1.01 1.15 2.02 1.72 3.04.77 1.36 1.54 2.74 1.89 4.25.35 1.52.22 3.22-.7 4.47-.53.72-1.29 1.25-2.08 1.65a10.35 10.35 0 0 1-6.98.87c-1.1-.25-2.14-.68-3.18-1.11-3.7-1.52-7.4-3.05-11.11-4.57-.9-.37-1.81-.75-2.78-.91-1.49-.25-3.19-.04-4.33-1.03-.4-.35-.72-.84-1.24-.98-.29-.08-.6-.03-.9-.03-1.2 0-2.24-.74-3.31-1.27-.52-.26-1.09-.48-1.66-.37-.77.14-1.32.86-1.56 1.61-.59 1.89.39 3.88 1.34 5.62.6 1.09 1.2 2.19 1.79 3.28.17.31.34.64.35.99.01.52-.35.97-.57 1.44-.5 1.05-.32 2.39.44 3.27.83.96 1.96 1.46 2.68 2.53.79 1.19 1.99 2 3.45 2.48.61.2 1.25.31 1.82.6.62.32 1.11.83 1.7 1.2 1.33.81 3.05.77 4.38 1.59.81.5 1.42 1.3 2.25 1.77.92.52 2.1.66 2.75 1.5.25.33.39.73.67 1.05.68.78 1.92.73 2.75 1.34 1.23.9 1.12 2.8 2.04 4.01.84 1.1 2.35 1.41 3.72 1.63 1.73.28 3.47.57 5.22.54 1.11-.02 2.26-.15 3.31.19.76.25 1.51.75 2.29.6.58-.11 1.05-.56 1.63-.64.82-.12 1.54.52 2.32.8 1.07.38 2.16.14 3.11.83.98.71 1.59 1.86 1.84 3.02.26 1.21.29 2.48.8 3.61.23.51.56.97.74 1.49.29.79.23 1.66.34 2.5.17 1.4.77 2.71 1.37 3.99.5 1.07 1.01 2.16 1.82 3.02.51.54 1.12.96 1.69 1.43 1.33 1.1 2.45 2.46 3.28 3.97.98 1.77.89 3.54 1.03 5.53.02.27.04.54.13.79.34.9 1.43 1.2 2.29 1.65 1.97 1.05 3.03 3.43 5.09 4.29M358.25 217.65c-.52 1.27.14 2.74 1.11 3.71s2.22 1.61 3.26 2.49c1.35 1.15 2.31 2.67 3.25 4.17.48.77.97 1.56 1.12 2.45.12.68.03 1.37.11 2.05.07.55.25 1.08.35 1.62.25 1.37-.05 2.84-.82 4.01-.24.37-.55.74-.59 1.18-.05.54.29 1.02.5 1.51.65 1.51.03 3.44-1.38 4.29-1.81 1.09-5.2 1.87-5.36 4.59-.08 1.39 1.16 2.66.88 4.02-.12.56-.48 1.04-.84 1.49-.43.55-.86 1.09-1.29 1.64-.24.31-.49.62-.8.87-.26.21-.56.37-.81.6-.78.72-.84 1.95-.57 2.98.26 1.03.79 1.99.99 3.03.23 1.18.02 2.43-.57 3.47-.96 1.69-2.89 2.85-3.29 4.75-.09.4-.1.81-.23 1.19-.22.65-.74 1.14-1.19 1.65-1.68 1.9-3.31 4.99-3.33 7.56-.02 1.87.89 3.83 2.55 4.68.33.17.69.3.92.58.23.27.3.64.44.96.56 1.26 2.23 1.92 2.39 3.29.05.42-.06.86.09 1.25.32.84 1.49.89 2.17 1.48.41.36.61.89.79 1.4.52 1.45 1.04 2.9 1.56 4.34.09.24.18.5.36.68.23.23.56.32.87.41 1.59.46 2.32 1.18 3.58 2.08 1.14.81 2.58 1.06 3.69 1.93.68.54 1.2 1.29 1.97 1.68.64.33 1.44.39 1.94.91.7.73.48 2 1.13 2.79.43.53 1.16.72 1.62 1.22.32.35.49.82.81 1.16.59.62 1.54.7 2.28 1.11.77.44 1.28 1.22 1.75 1.97.74 1.18 1.5 2.39 1.75 3.77.36 1.96-.34 4.15.68 5.86.2.34.48.65.84.81.24.1.51.13.78.16 2.99.37 5.88 1.51 8.31 3.28.36.27.74.59.82 1.03"/><path class="st4" d="M284.54 202.71a28.005 28.005 0 0 0-13.22 9.8c-1.69 2.31-3.15 5-5.7 6.28-2.07 1.04-4.6 1-6.56 2.24-3.85 2.44-3.47 8.07-5.09 12.33-2.82 7.41-12.18 11.12-14.03 18.83-1.54 6.43 2.86 12.93 2.36 19.53-.19 2.57-1.13 5.05-1.25 7.63-.29 6.26 4.13 11.6 7.94 16.58 7.59 9.93 2.14 18.54 6.98 29.63 1.33 3.04 2.66 6.07 3.98 9.11 1.07 2.45 2.16 4.93 3.77 7.07 2.31 3.06 5.56 5.24 8.75 7.37 15.53 10.36 31.07 20.72 46.6 31.09 13.13 8.76 26.27 17.53 40.1 25.14 3.13 1.73 6.3 3.39 9.47 5.06l30.51 16.05c2.76 1.45 5.84 2.94 8.86 2.17 2.19-.56 3.92-2.24 6-3.12s5.13-.49 5.75 1.69"/><path class="st5" d="M77.8 214.66c1.03 0 2.01.39 2.96.77 1.08.43 2.23.85 3.38.66 1.15-.2 2.22-1.27 1.98-2.41-.06-.3-.22-.59-.26-.9-.13-.94.79-1.72 1.71-1.93.92-.21 1.89-.07 2.82-.23.93-.16 1.91-.8 1.95-1.75 2.39-.48 3.77-.71 5.52-2.41.64-.62 1.15-1.37 1.83-1.93 1.41-1.16 3.67-1.69 4.01-3.48.09-.47.02-.98.22-1.43.21-.47.68-.76 1.13-1.02 3.42-2 6.92-3.88 10.41-5.76 1.56-.84 3.13-1.68 4.69-2.52.81-.43 1.62-.87 2.51-1.13 2.85-.84 5.79-2.67 8.18-4.48 1.23-.93 2.19-2.36 2.14-3.91-.02-.6-.18-1.21-.07-1.8.1-.54.42-1.01.79-1.41 2.14-2.33 5.34-3.02 7.27-5.65 2.12-2.88 4.15-5.33 8.14-5.2.42-2.33 1.08-4.69 2.53-6.57 1.45-1.88 3.84-3.18 6.17-2.76 1.01.18 2.38.51 2.81-.43-.81-.77-.46-2.23.42-2.92s2.06-.81 3.18-.88c1.11-.07 2.29-.14 3.22-.75.68-.44 1.21-1.17 2.01-1.35.58-.14 1.19.05 1.78.13 2.94.4 5.52-1.84 7.58-3.97 1.92-1.98 3.79-4.01 5.95-5.73 1.83-1.45 3.84-2.65 5.81-3.9 4.1-2.61 8.04-5.46 11.8-8.54.85-.7 1.71-1.43 2.3-2.36.43-.68.71-1.44.89-2.22M76.14 177.17c1.83-.89 3.38-2.33 4.4-4.09.46-.79.84-1.68 1.6-2.18 1.23-.82 2.85-.31 4.31-.21 2.43.17 4.83-.88 6.73-2.4s3.41-3.48 4.89-5.42c.91-1.2 1.82-2.39 2.74-3.59 1.52-1.99 3.04-3.99 4.56-5.98 1.83-2.41 3.91-4.98 6.86-5.64 1.04-.23 2.16-.22 3.08-.75 1.43-.82 2.03-2.75 3.56-3.39.94-.39 2.08-.21 2.95-.73.48-.29.83-.76 1.25-1.14 1.95-1.74 4.74-1.09 6.98-1.97 3.54-1.4 6.99-4.2 10.25-6.17 2.06-1.24 4.14-2.49 5.86-4.18 2.06-2.02 3.54-4.6 5.75-6.45 2.44-2.04 5.76-3.21 7.36-5.96 1.34-2.32 1.11-5.19.83-7.86 1.52-1.06 1.37-2.33 3.15-2.83.68-.19 1.41-.03 2.11.1 1.32.25 2.71.35 3.97-.1 1.26-.45 2.36-1.57 2.42-2.91.02-.49-.08-1 .1-1.46.27-.67 1.12-.95 1.83-.82s1.32.57 1.9 1.01l3.33 2.46c.91.67 1.82 1.35 2.87 1.77 1.94.79 4.12.64 6.2.48l7.31-.57c.45-.03.92-.08 1.27-.35.83-.64.43-1.98-.22-2.81s-1.52-1.64-1.48-2.68c.02-.51.28-1.02.16-1.51-.14-.59-.74-.92-1.16-1.36-1.3-1.37-.25-4.1 1.64-4.24.85-.06 2.16-.1 2.02-.94-.04-.22-.19-.4-.34-.57l-1.95-2.19M77.14 141.96c.18-1.18 1.25-2.04 2.38-2.43 1.12-.39 2.34-.44 3.5-.69 4.36-.95 7.74-4.75 12.14-5.47 1.24-.2 2.53-.15 3.75-.48.92-.25 1.77-.71 2.64-1.09 2.98-1.29 6.28-1.65 9.32-2.78 3.04-1.14 6.01-3.43 6.46-6.65.07-.48.08-.97.25-1.42.37-.96 1.38-1.47 2.23-2.04 1.7-1.12 3.06-2.75 3.86-4.62.25-.57.44-1.21.26-1.8-.46-1.5-2.68-1.43-3.81-2.52-1.91-1.85-1.74-5.25-.22-7.17.9-1.13 2-2.26 2.14-3.7.06-.57-.05-1.16.12-1.71.4-1.35 2.08-1.77 3.1-2.74 1.58-1.5 1.45-4.17 2.91-5.79.32-.35.71-.65.9-1.08.22-.5.14-1.07.1-1.61-.12-1.37.02-2.76.4-4.07.1-.36.24-.73.53-.96.34-.27.8-.28 1.23-.29 3.03-.03 6.45.1 8.49 2.34.71.78 1.19 1.76 2 2.45.8.68 2.15.94 2.85.15 1.04-1.18.01-3.77 1.53-4.19"/></g><g id="scale"><path class="st6" d="M126 407.5h20M146 407.5h20"/><path d="M132.13 397.21h-.02l-1.13.61-.17-.67 1.42-.76h.75v6.5h-.85v-5.68zM139.67 399.56c0 2.21-.82 3.43-2.26 3.43-1.27 0-2.13-1.19-2.15-3.34 0-2.18.94-3.38 2.26-3.38 1.37.01 2.15 1.23 2.15 3.29zm-3.53.1c0 1.69.52 2.65 1.32 2.65.9 0 1.33-1.05 1.33-2.71 0-1.6-.41-2.65-1.32-2.65-.77.01-1.33.95-1.33 2.71zM144.8 399.56c0 2.21-.82 3.43-2.26 3.43-1.27 0-2.13-1.19-2.15-3.34 0-2.18.94-3.38 2.26-3.38 1.37.01 2.15 1.23 2.15 3.29zm-3.53.1c0 1.69.52 2.65 1.32 2.65.9 0 1.33-1.05 1.33-2.71 0-1.6-.41-2.65-1.32-2.65-.77.01-1.33.95-1.33 2.71zM148.88 400.26h.02c.12-.17.29-.38.43-.55l1.42-1.67h1.06l-1.87 1.99 2.13 2.85H151l-1.67-2.32-.45.5v1.82h-.87v-7.1h.87v4.48zM152.87 399.35c0-.5-.01-.91-.04-1.31h.77l.04.78h.03c.27-.46.72-.89 1.52-.89.66 0 1.16.4 1.37.97h.02c.15-.27.34-.48.54-.63.29-.22.61-.34 1.07-.34.64 0 1.59.42 1.59 2.1v2.85h-.86v-2.74c0-.93-.34-1.49-1.05-1.49-.5 0-.89.37-1.04.8-.04.12-.07.28-.07.44v2.99h-.86v-2.9c0-.77-.34-1.33-1.01-1.33-.55 0-.95.44-1.09.88-.05.13-.07.28-.07.43v2.92h-.86v-3.53z"/></g><g id="towns"><path class="st7" d="M252.1 306.11c.16.08.32.21.46.32.44.35.92.64 1.42.83.21.08.46.14.64-.01.27-.23.18-.73.07-1.11.52.14.86.76 1.35 1.04.54.31 1.17.16 1.75.01.07-.02.14-.04.18-.11.08-.14-.05-.32-.1-.49-.09-.31.13-.69-.02-.96-.04-.07-.1-.12-.14-.19-.12-.18-.1-.47.04-.62-.48-.64-.17-1.66-.54-2.34-.39-.72-1.29-.75-1.56-1.63-.03-.11-.06-.24-.14-.31-.12-.1-.29-.02-.43-.08-.19-.08-.23-.39-.32-.61-.12-.3-.36-.49-.54-.74-.17-.25-.26-.67-.05-.89-.74.44-1.59.9-2.35.52-.22-.11-.51-.27-.66-.04-.04.06-.06.14-.09.21-.14.34-.48.48-.79.5-.31.02-.63-.03-.93.09-.08.03-.15.07-.19.16-.05.1-.03.23-.04.35-.03.3-.27.49-.48.64l-1.09.76c-.17.12-.37.36-.25.56.07.12.22.14.27.27.09.24-.23.36-.41.5-.25.2-.22.73.05.89.09.06.2.07.27.16.1.13.07.36-.02.51-.09.15-.21.26-.29.42-.24.47.17 1.18.61 1.08.15-.04.3-.14.45-.1.16.04.25.23.34.4.25.49.56.94.93 1.32.24.25.5.47.8.56.3.09.65.03.88-.24.36-.43.11-.94.3-1.38.12-.38.37-.37.62-.25z"/><path d="M215.31 298.85c.64-.1 1.39-.17 2.22-.17 1.5 0 2.57.35 3.27 1.01.72.66 1.14 1.6 1.14 2.9 0 1.32-.41 2.4-1.16 3.14-.76.76-2 1.16-3.57 1.16-.74 0-1.37-.04-1.9-.1v-7.94zm1.05 7.15c.26.05.65.06 1.06.06 2.23 0 3.44-1.25 3.44-3.43.01-1.91-1.07-3.12-3.27-3.12-.54 0-.95.05-1.22.11V306zM223.9 304.12c.02 1.43.94 2.01 1.99 2.01.76 0 1.21-.13 1.61-.3l.18.76c-.37.17-1.01.36-1.93.36-1.79 0-2.85-1.18-2.85-2.93s1.03-3.13 2.72-3.13c1.9 0 2.4 1.67 2.4 2.73 0 .22-.02.38-.04.49h-4.08zm3.1-.76c.01-.67-.28-1.71-1.46-1.71-1.07 0-1.54.98-1.62 1.71H227zM229.33 298.32h1.06v8.52h-1.06v-8.52zM232.16 298.32h1.06v3.62h.02c.17-.3.43-.56.76-.74.31-.18.68-.3 1.08-.3.78 0 2.03.48 2.03 2.48v3.45h-1.06v-3.33c0-.94-.35-1.73-1.34-1.73-.68 0-1.22.48-1.42 1.06-.06.14-.07.3-.07.5v3.5h-1.06v-8.51zM239.99 299.39c.01.36-.25.65-.67.65-.37 0-.64-.29-.64-.65 0-.37.28-.66.66-.66.4 0 .65.29.65.66zm-1.17 7.44v-5.8h1.06v5.8h-1.06z"/><path class="st7" d="M142.61 174.92c.9-.27 1.74-.74 2.42-1.4.44-.42.83-.96.82-1.57-.01-.32-.13-.63-.29-.9-1.06-1.75-3.48-1.4-5.09-.79-.08.03-.15.07-.19.16-.05.1-.03.23-.04.35-.03.3-.27.49-.48.64-.57.4-2.04 2.23-1.52 3.05.11.17.31.26.5.34 1.22.47 2.6.49 3.87.12z"/><g><path d="M120.57 175.34h1.04v7.21h3.45v.88h-4.5v-8.09zM129.41 183.42l-.08-.73h-.04c-.32.46-.95.86-1.77.86-1.18 0-1.77-.83-1.77-1.67 0-1.4 1.25-2.17 3.49-2.16v-.12c0-.48-.13-1.34-1.32-1.34-.54 0-1.1.17-1.51.43l-.24-.7c.48-.31 1.18-.52 1.91-.52 1.77 0 2.21 1.21 2.21 2.37v2.17c0 .5.02 1 .1 1.39h-.98zm-.15-2.96c-1.15-.02-2.46.18-2.46 1.31 0 .68.46 1.01 1 1.01.76 0 1.24-.48 1.4-.97.04-.11.06-.23.06-.34v-1.01zM131.98 174.91h1.06v3.62h.02c.17-.3.43-.56.76-.74.31-.18.68-.3 1.08-.3.78 0 2.03.48 2.03 2.48v3.45h-1.06v-3.33c0-.94-.35-1.73-1.34-1.73-.68 0-1.22.48-1.42 1.06-.06.14-.07.3-.07.5v3.5h-1.06v-8.51zM143.9 180.47c0 2.15-1.49 3.08-2.89 3.08-1.57 0-2.78-1.15-2.78-2.99 0-1.94 1.27-3.08 2.88-3.08 1.66 0 2.79 1.22 2.79 2.99zm-4.61.06c0 1.27.73 2.23 1.76 2.23 1.01 0 1.76-.95 1.76-2.25 0-.98-.49-2.23-1.74-2.23-1.24 0-1.78 1.15-1.78 2.25zM145.23 179.43c0-.68-.01-1.27-.05-1.81h.92l.04 1.14h.05c.26-.78.9-1.27 1.61-1.27.12 0 .2.01.3.04v1c-.11-.02-.22-.04-.36-.04-.74 0-1.27.56-1.42 1.36-.02.14-.05.31-.05.49v3.09h-1.04v-4zM149.62 180.71c.02 1.43.94 2.01 1.99 2.01.76 0 1.21-.13 1.61-.3l.18.76c-.37.17-1.01.36-1.93.36-1.79 0-2.85-1.18-2.85-2.93s1.03-3.13 2.72-3.13c1.9 0 2.4 1.67 2.4 2.73 0 .22-.02.38-.04.49h-4.08zm3.1-.76c.01-.67-.28-1.71-1.46-1.71-1.07 0-1.54.98-1.62 1.71h3.08z"/></g></g><g id="Thrust_faults"><path class="st8" d="M911.17 276.38c-2.85.83-6.98 1.64-9.16 3.73-1.62 1.56-3.52 2.85-5.11 4.39-1.44 1.4-2.75 3.11-4.1 4.63-3.05 3.43-6.06 6.93-9.66 9.8-1.24.99-2.55 1.9-3.86 2.8-5.42 3.7-11.13 7-16.77 10.27a55.395 55.395 0 0 0-9.58 7.03c-2.9 2.66-5.01 6.01-7.8 8.69-5.61 5.39-12.05 9.54-20.16 9.32-5.16-.14-10.23-1.91-15.39-1.64-4.69.25-9.11 2.16-13.5 3.84-23.75 9.12-48.47 9.13-73.29 12.99-13.16 2.04-27.03 3.12-39.42-1.75-4.87-1.91-9.69-4.76-14.9-4.36-3.95.31-7.48 2.46-10.91 4.44-21.14 12.16-44.05 9.07-67.17 4.78-23.39-4.35-46.08-11.88-67.99-21.08-4.66-1.96-9.38-3.94-14.36-4.78-6.39-1.08-12.92-.25-19.4-.02-22.25.79-44.69-5.79-62.99-18.45-18.18-12.58-36.8-21.45-57.28-29.7-24.4-9.84-50.64-21.15-70.47-38.72-7.53-6.67-13.69-17.6-22.38-22.3-11.57-6.24-26.3-8.4-36.81-16.2-4.34-3.22-9.12-6.53-11.08-11.79-.6-1.6-.94-3.29-1.29-4.96-3.02-14.74-7.22-29.8-16.85-41.71a56.532 56.532 0 0 0-5.15-5.57c-2.08-1.96-4.27-3.29-6.76-4.7-8.79-4.94-19.78-5.5-26.7-13.37-2.9-3.3-4.94-7.36-8.29-10.21-3.43-2.92-7.89-4.28-12.04-6.03-11.45-4.84-19.32-13.82-28.83-21.26-2.67-2.09-3.96-5.44-5.14-8.62-2.74 4.36-8.18 7.13-12.45 9.85-4 2.55-8.12 5.05-12.43 7.02-4.2 1.93-8.93 2.55-13.02 4.72-.82.43-1.63.97-2.09 1.77"/><path class="st9" d="M532.9 337.99c-1.18-2.03-.9-4.43-2.58-6.68-1.43 1.14-3.45 2.5-4.23 4.13M627.58 358.35c-1.84-1.48-2.4-4.02-4.79-5.49-.99 1.83-2.48 4.15-2.67 6.16M479.48 328.53c-1.41-1.52-1.49-4.01-3.4-5.54-1.18 1.71-2.9 3.86-3.4 5.79M372.81 282.35c-1.05-2.12-.47-4.66-2.02-7-1.67 1.24-4 2.71-5.02 4.45M422.98 308.39c-.79-2.21-.07-4.52-1.3-7.04-1.61.86-3.85 1.82-4.91 3.28M579.28 351.93c-1.36-1.93-1.2-4.53-3.09-6.6-1.45 1.49-3.53 3.3-4.27 5.18M679 348.29c-1.1-2.09-.6-4.65-2.21-6.94-1.64 1.28-3.93 2.82-4.9 4.58M886.31 295.52c-2.34-.36-4.09-2.29-6.89-2.36.06 2.08-.08 4.83.76 6.67M845.71 326.15c-2.36-.06-4.35-1.75-7.14-1.46.32 2.05.54 4.8 1.6 6.52M218.57 158.68c.36-2.34 2.29-4.09 2.36-6.89-2.08.06-4.83-.07-6.67.76M278.12 221.88c-.83-2.21 0-4.69-1.3-7.17-1.79 1.07-4.26 2.29-5.45 3.92M305.06 248.53c.01-2.36 1.66-4.38 1.32-7.16-2.05.36-4.79.64-6.48 1.73M400.66 197.43c-1.81-1.63-2.23-4.25-4.6-5.9-1.11 1.79-2.77 4.05-3.08 6.07M336.67 266.69c-.89-2.19-.14-4.68-1.52-7.12-1.75 1.12-4.18 2.42-5.32 4.09M240.14 204.1c-.45-2.32.77-4.62-.11-7.28-1.94.76-4.57 1.56-6.02 2.97M729.06 350.97c-1.84-1.48-2.39-4.03-4.78-5.5-.99 1.83-2.49 4.15-2.68 6.15M784.34 342.66c-2.07-1.13-3.07-3.55-5.67-4.57-.65 1.97-1.72 4.52-1.56 6.53M193.12 132.98c-.83-2.21 0-4.69-1.3-7.17-1.79 1.07-4.26 2.29-5.45 3.92M164.14 112.2c-.45-2.32.77-4.62-.11-7.28-1.94.76-4.57 1.56-6.02 2.97M105.26 84.94c-2.3-.56-3.87-2.64-6.66-2.95-.12 2.08-.5 4.81.18 6.71M135.14 94.2c-.45-2.32.77-4.62-.11-7.28-1.94.76-4.57 1.56-6.02 2.97"/></g><g id="Labels"><path d="M844.21 488.77c-.06-1.13-.13-2.48-.12-3.49h-.04c-.28.95-.61 1.96-1.02 3.07l-1.43 3.92h-.79l-1.31-3.85c-.38-1.14-.71-2.18-.94-3.14h-.02a83.35 83.35 0 0 1-.16 3.57l-.22 3.47h-1l.56-8.08h1.33l1.38 3.91c.34 1 .61 1.88.82 2.72h.04c.2-.82.49-1.7.85-2.72l1.44-3.91h1.33l.5 8.08h-1.02l-.18-3.55zM850.3 492.32l-.08-.73h-.04c-.32.46-.95.86-1.78.86-1.17 0-1.77-.83-1.77-1.67 0-1.4 1.25-2.17 3.49-2.16v-.12c0-.48-.13-1.34-1.32-1.34-.54 0-1.1.17-1.51.43l-.24-.7c.48-.31 1.18-.52 1.91-.52 1.78 0 2.21 1.21 2.21 2.37v2.17c0 .5.02 1 .1 1.39h-.97zm-.16-2.96c-1.15-.02-2.46.18-2.46 1.31 0 .68.46 1.01 1 1.01.75 0 1.24-.48 1.4-.97.04-.11.06-.23.06-.34v-1.01zM852.87 488.33c0-.68-.01-1.27-.05-1.81h.92l.04 1.14h.05c.26-.78.9-1.27 1.61-1.27.12 0 .2.01.3.04v1c-.11-.02-.22-.04-.36-.04-.74 0-1.27.56-1.42 1.36-.02.14-.05.31-.05.49v3.09h-1.04v-4zM860.81 492.1c-.28.14-.89.34-1.67.34-1.75 0-2.89-1.19-2.89-2.96 0-1.79 1.22-3.08 3.12-3.08.62 0 1.18.16 1.46.3l-.24.82c-.25-.14-.65-.28-1.22-.28-1.33 0-2.05.98-2.05 2.19 0 1.34.86 2.17 2.01 2.17.6 0 1-.16 1.3-.29l.18.79zM862.05 483.8h1.06v3.62h.02c.17-.3.43-.56.76-.74.31-.18.68-.3 1.08-.3.78 0 2.03.48 2.03 2.48v3.45h-1.06v-3.33c0-.94-.35-1.73-1.34-1.73-.68 0-1.22.48-1.42 1.06-.06.14-.07.3-.07.5v3.5h-1.06v-8.51zM870.92 492.32v-.65l.83-.8c1.99-1.89 2.89-2.9 2.9-4.08 0-.79-.38-1.52-1.55-1.52-.71 0-1.29.36-1.66.66l-.34-.74c.54-.46 1.31-.79 2.21-.79 1.68 0 2.39 1.15 2.39 2.27 0 1.44-1.04 2.6-2.69 4.19l-.62.58v.02h3.5v.88h-4.97zM879.37 485.51h-.02l-1.36.73-.2-.8 1.7-.91h.9v7.8h-1.02v-6.82zM882.88 493.8c.26-.71.59-1.99.72-2.87l1.17-.12c-.28 1.02-.8 2.35-1.14 2.91l-.75.08zM890.8 492.32v-.65l.83-.8c1.99-1.89 2.89-2.9 2.9-4.08 0-.79-.38-1.52-1.55-1.52-.71 0-1.3.36-1.66.66l-.34-.74c.54-.46 1.31-.79 2.21-.79 1.68 0 2.39 1.15 2.39 2.27 0 1.44-1.04 2.6-2.69 4.19l-.62.58v.02h3.5v.88h-4.97zM902.14 488.34c0 2.65-.98 4.11-2.71 4.11-1.52 0-2.55-1.43-2.58-4.01 0-2.61 1.13-4.05 2.71-4.05 1.64 0 2.58 1.47 2.58 3.95zm-4.23.12c0 2.03.62 3.18 1.58 3.18 1.08 0 1.6-1.26 1.6-3.25 0-1.92-.49-3.18-1.58-3.18-.93 0-1.6 1.13-1.6 3.25zM903.11 492.32v-.65l.83-.8c1.99-1.89 2.89-2.9 2.9-4.08 0-.79-.38-1.52-1.55-1.52-.71 0-1.3.36-1.66.66l-.34-.74c.54-.46 1.31-.79 2.21-.79 1.68 0 2.39 1.15 2.39 2.27 0 1.44-1.04 2.6-2.69 4.19l-.62.58v.02h3.5v.88h-4.97zM914.45 488.34c0 2.65-.98 4.11-2.71 4.11-1.52 0-2.55-1.43-2.58-4.01 0-2.61 1.13-4.05 2.71-4.05 1.64 0 2.58 1.47 2.58 3.95zm-4.23.12c0 2.03.62 3.18 1.58 3.18 1.08 0 1.6-1.26 1.6-3.25 0-1.92-.49-3.18-1.58-3.18-.93 0-1.6 1.13-1.6 3.25zM269.09 375.22l1.74-2.96.15-5.31 1.02.6-.15 2.5c-.04.69-.08 1.23-.15 1.84l.02.01c.46-.34.97-.66 1.55-1.03l2.13-1.33 1.02.6-4.69 2.63-1.74 2.97-.9-.52zM275.15 378.78l.3-.67-.03-.02c-.51.23-1.25.26-1.97-.15-1.01-.6-1.11-1.61-.69-2.34.71-1.21 2.17-1.24 4.1-.09l.06-.1c.24-.41.57-1.22-.46-1.83-.47-.27-1.04-.41-1.52-.39l.15-.72c.57-.03 1.27.15 1.91.52 1.53.9 1.29 2.16.7 3.16l-1.1 1.87c-.25.43-.48.87-.62 1.25l-.83-.49zm1.37-2.64c-.98-.6-2.21-1.09-2.78-.12-.35.59-.12 1.1.35 1.37.65.38 1.31.21 1.7-.13.09-.07.17-.17.22-.26l.51-.86zM279.51 376.43c.3-.52.54-.95.75-1.38l.8.47-.43.83.03.02c.56-.31 1.29-.48 2.11 0 .68.4.96 1.12.83 1.83l.02.01c.32-.19.64-.29.94-.32.43-.05.84.02 1.31.3.66.39 1.39 1.4.37 3.14l-1.73 2.95-.89-.52 1.66-2.83c.56-.96.55-1.75-.18-2.18-.52-.3-1.15-.16-1.56.2-.11.1-.24.25-.34.41l-1.82 3.09-.89-.52 1.76-3c.47-.8.46-1.58-.24-1.99-.57-.33-1.25-.12-1.66.25-.13.1-.24.25-.33.4l-1.77 3.02-.89-.52 2.15-3.66zM290.99 386.24c-.3.52-.56.98-.76 1.39l-.81-.47.43-.85-.02-.01c-.47.26-1.31.48-2.2-.04-.79-.46-1.47-1.45-.44-3.21l1.72-2.93.91.53-1.63 2.77c-.56.95-.65 1.76.18 2.25.61.36 1.28.18 1.69-.12.13-.1.26-.25.36-.42l1.8-3.07.91.54-2.14 3.64zM293.84 384.84c.3-.52.54-.95.75-1.38l.81.47-.43.86.02.01c.53-.33 1.38-.46 2.21.03.69.41 1.53 1.45.52 3.17l-1.75 2.99-.91-.53 1.69-2.89c.47-.81.57-1.66-.29-2.16-.6-.35-1.31-.2-1.77.21-.11.09-.22.23-.31.39l-1.77 3.01-.91-.53 2.14-3.65zM300.21 393.49l.3-.67-.03-.02c-.51.23-1.25.26-1.97-.15-1.01-.59-1.11-1.61-.69-2.34.71-1.21 2.17-1.24 4.1-.09l.06-.1c.24-.41.57-1.23-.46-1.83-.47-.27-1.04-.41-1.52-.39l.14-.72c.57-.03 1.27.15 1.91.52 1.53.9 1.29 2.16.7 3.16l-1.1 1.87c-.25.43-.48.87-.62 1.25l-.82-.49zm1.37-2.63c-.98-.6-2.21-1.09-2.78-.12-.35.59-.12 1.1.35 1.37.65.38 1.31.21 1.7-.13.09-.08.17-.17.22-.26l.51-.86zM354.26 358.34c-.44-.24-1.26-.74-1.98-1.56-.81-.91-1.25-1.87-1.22-2.96.04-.97.56-2.01 1.49-2.85 1.81-1.6 4.22-1.54 6.03.49.62.7.96 1.38 1.06 1.75l-.8.38c-.14-.45-.39-.96-.93-1.56-1.31-1.47-3.08-1.61-4.59-.26-1.53 1.37-1.61 3.09-.36 4.5.46.51.84.79 1.09.89l1.8-1.61-1.09-1.23.63-.56 1.77 1.99-2.9 2.59zM357.24 362.21l.49-.55-.02-.03c-.56.06-1.27-.13-1.83-.75-.78-.88-.56-1.88.06-2.43 1.05-.93 2.45-.52 3.93 1.17l.09-.08c.36-.32.91-.99.12-1.88-.36-.4-.86-.71-1.33-.84l.36-.64c.55.15 1.17.53 1.65 1.08 1.18 1.32.57 2.45-.3 3.23l-1.62 1.45c-.38.34-.73.68-.97 1l-.63-.73zm2.1-2.09c-.75-.87-1.77-1.71-2.61-.96-.51.46-.45 1.01-.09 1.41.5.56 1.18.6 1.66.4.1-.05.21-.11.29-.18l.75-.67zM362.11 361.31c.45-.4.81-.74 1.14-1.08l.62.7-.68.68.02.02c.6-.15 1.45-.01 2.09.7.53.6 1.01 1.85-.48 3.17l-2.59 2.31-.7-.79 2.5-2.23c.7-.62 1.05-1.4.38-2.14-.46-.52-1.19-.59-1.75-.34-.13.05-.28.15-.41.27l-2.6 2.32-.7-.79 3.16-2.8zM371.05 368.96c-.33.26-.69.55-1.22 1.03l-2.51 2.24c-.99.89-1.78 1.23-2.53 1.15-.77-.07-1.44-.57-1.93-1.11-.46-.52-.85-1.2-.93-1.76l.77-.34c.08.45.32 1.04.79 1.58.72.8 1.67 1.02 2.76.04l.48-.43-.02-.02c-.62.12-1.36-.06-1.96-.73-.96-1.07-.73-2.66.47-3.73 1.47-1.31 3.15-1.1 4.04-.1.67.75.65 1.51.46 2.02l.02.02.69-.55.62.69zm-2.44.71c.13-.12.24-.23.32-.36.33-.55.36-1.27-.15-1.84-.67-.75-1.79-.72-2.79.17-.85.76-1.17 1.82-.41 2.67.43.48 1.13.65 1.78.37.17-.08.34-.19.48-.31l.77-.7zM370.27 372.73c-1.05.97-.88 2.04-.18 2.83.5.56.9.82 1.29 1l-.44.64c-.37-.17-.94-.51-1.56-1.2-1.19-1.33-1.02-2.91.28-4.08 1.31-1.17 3.02-1.31 4.15-.05 1.26 1.41.35 2.9-.44 3.61-.16.14-.3.24-.39.3l-2.71-3.05zm2.62 1.81c.51-.44 1.1-1.35.3-2.23-.71-.8-1.76-.49-2.36-.07l2.06 2.3zM372.57 377.76c.06.37.26.92.61 1.32.51.57 1.04.58 1.39.27.38-.34.38-.74.08-1.52-.42-1.03-.32-1.78.2-2.24.7-.62 1.77-.57 2.6.36.39.44.61.94.68 1.3l-.75.31c-.04-.27-.18-.71-.54-1.11-.42-.46-.92-.48-1.24-.2-.36.32-.29.72 0 1.48.38 1.01.35 1.73-.29 2.3-.76.68-1.82.57-2.74-.46-.42-.47-.7-1.02-.79-1.48l.79-.33z"/><g><path d="M358.57 317.55c-.46-.18-1.34-.58-2.16-1.31-.92-.81-1.47-1.71-1.57-2.8-.08-.96.31-2.06 1.14-3 1.6-1.8 4.01-2.04 6.04-.25.7.62 1.12 1.25 1.27 1.61l-.75.47c-.2-.43-.5-.9-1.11-1.44-1.48-1.3-3.25-1.23-4.59.3-1.35 1.54-1.23 3.27.19 4.51.51.45.93.69 1.19.76l1.59-1.81-1.23-1.08.55-.63 2 1.76-2.56 2.91zM365.44 320.14c-1.42 1.61-3.15 1.33-4.21.41-1.18-1.04-1.33-2.7-.12-4.08 1.28-1.46 2.99-1.48 4.2-.42 1.26 1.1 1.3 2.76.13 4.09zm-3.5-2.99c-.84.96-.92 2.16-.15 2.84.76.66 1.95.45 2.81-.53.65-.74 1.1-2 .17-2.82s-2.1-.32-2.83.51zM367.29 320.06c.4-.45.71-.83 1-1.21l.69.61-.58.73.03.02c.61-.2 1.35-.23 2.07.4.59.52.73 1.28.47 1.96l.02.02c.35-.12.69-.16.99-.14.44.03.82.18 1.23.54.58.51 1.1 1.64-.23 3.15l-2.26 2.57-.77-.68 2.17-2.47c.74-.84.87-1.61.23-2.17-.45-.4-1.09-.37-1.57-.1-.13.08-.29.2-.41.34l-2.37 2.69-.77-.68 2.3-2.61c.61-.69.75-1.47.14-2-.5-.44-1.2-.36-1.68-.07-.15.08-.28.2-.4.33l-2.31 2.63-.77-.68 2.78-3.18zM374.43 331.97l.42-.6-.03-.02c-.54.13-1.28.02-1.9-.52-.88-.78-.79-1.79-.23-2.42.93-1.05 2.37-.81 4.05.68l.08-.09c.32-.36.79-1.1-.1-1.88-.41-.36-.94-.6-1.42-.67l.28-.68c.57.08 1.22.39 1.77.87 1.33 1.17.86 2.37.09 3.24l-1.43 1.63c-.33.38-.64.76-.85 1.11l-.73-.65zm1.84-2.33c-.85-.78-1.97-1.49-2.71-.64-.45.51-.32 1.06.08 1.41.57.5 1.24.46 1.7.2.1-.06.2-.13.27-.21l.66-.76zM382.21 328.86l-1.1 1.25 1.14 1-.53.6-1.14-1-2.07 2.35c-.48.54-.59.98-.15 1.37.21.18.38.29.51.35l-.49.63c-.21-.07-.49-.24-.8-.51-.37-.33-.56-.7-.56-1.09-.02-.43.24-.89.69-1.4l2.09-2.38-.68-.59.53-.6.68.59.92-1.04.96.47zM379.31 336.25l3.83-4.36.79.7-3.83 4.36-.79-.7zm5.79-4.81c-.23.28-.62.32-.93.04a.63.63 0 0 1-.05-.91c.25-.28.64-.31.93-.06.29.27.29.66.05.93z"/></g><g><path d="M410.39 376.95c-.49.05-1.46.1-2.52-.15-1.19-.29-2.09-.83-2.68-1.75-.52-.82-.68-1.97-.38-3.19.58-2.34 2.61-3.66 5.24-3.02.91.22 1.57.59 1.87.84l-.45.77c-.37-.29-.86-.57-1.65-.76-1.91-.46-3.45.42-3.93 2.39-.48 1.99.43 3.46 2.26 3.91.66.16 1.14.18 1.4.12l.57-2.34-1.6-.39.2-.82 2.59.63-.92 3.76zM413.83 369.39l1.03.25-.86 3.52h.02c.23-.25.55-.45.91-.54.35-.1.73-.13 1.12-.04.76.18 1.86.94 1.38 2.89l-.82 3.36-1.03-.25.79-3.24c.22-.91.07-1.76-.9-2-.66-.16-1.3.18-1.62.69-.09.13-.14.27-.19.47l-.83 3.4-1.03-.25 2.03-8.26zM421.42 380l.09-.73-.04-.01c-.42.37-1.12.62-1.93.42-1.14-.28-1.53-1.22-1.33-2.04.33-1.36 1.72-1.82 3.9-1.27l.03-.12c.11-.47.19-1.34-.96-1.62a2.87 2.87 0 0 0-1.57.06l-.07-.73c.54-.19 1.26-.22 1.98-.05 1.72.42 1.86 1.7 1.58 2.83l-.51 2.11c-.12.49-.21.97-.24 1.37l-.93-.22zm.55-2.92c-1.11-.3-2.43-.41-2.7.69-.16.66.21 1.09.73 1.21.73.18 1.31-.17 1.59-.61.06-.1.11-.21.14-.31l.24-.98zM430.15 376.15c-.12.4-.26.85-.42 1.54l-.8 3.27c-.31 1.29-.76 2.02-1.43 2.38-.67.38-1.5.35-2.22.18-.68-.16-1.38-.51-1.76-.92l.45-.72c.32.32.85.68 1.55.84 1.05.25 1.95-.11 2.3-1.53l.15-.63h-.02c-.44.45-1.15.72-2.02.51-1.4-.34-2.11-1.77-1.73-3.33.46-1.91 1.98-2.69 3.27-2.38.98.24 1.39.88 1.52 1.41l.02.01.25-.84.89.21zm-1.61 1.96c.04-.18.07-.33.06-.48-.04-.64-.42-1.25-1.17-1.43-.98-.24-1.88.42-2.2 1.72-.27 1.11.07 2.16 1.17 2.43.63.15 1.3-.1 1.68-.7.1-.16.17-.35.21-.53l.25-1.01zM432.44 373.92l1.03.25-.86 3.52.02.01c.23-.25.55-.45.91-.54.35-.1.73-.13 1.12-.04.76.18 1.86.94 1.38 2.89l-.82 3.36-1.03-.25.79-3.24c.22-.91.07-1.76-.9-2-.66-.16-1.3.18-1.62.69-.09.12-.14.27-.19.47l-.83 3.4-1.03-.25 2.03-8.27zM440.03 384.52l.09-.73-.04-.01c-.42.37-1.12.62-1.93.42-1.14-.28-1.53-1.22-1.33-2.04.33-1.36 1.72-1.81 3.9-1.27l.03-.12c.11-.47.19-1.34-.96-1.62a2.87 2.87 0 0 0-1.57.06l-.07-.73c.54-.19 1.26-.22 1.98-.05 1.72.42 1.86 1.7 1.58 2.83l-.51 2.11c-.12.49-.21.97-.24 1.37l-.93-.22zm.55-2.91c-1.11-.3-2.43-.41-2.7.69-.16.66.21 1.09.73 1.21.73.18 1.31-.17 1.59-.61.06-.1.11-.21.14-.31l.24-.98zM443.47 381.25c.16-.66.29-1.24.38-1.77l.9.22-.23 1.12.05.01c.44-.69 1.17-1.02 1.86-.86.12.03.2.06.28.11l-.24.97c-.1-.05-.2-.09-.34-.12-.72-.18-1.37.25-1.7.98-.06.13-.12.29-.16.47l-.73 3.01-1.01-.25.94-3.89zM449.4 386.8l.09-.73-.04-.01c-.42.37-1.12.62-1.93.42-1.14-.28-1.53-1.22-1.33-2.04.33-1.36 1.73-1.82 3.9-1.27l.03-.12c.11-.47.19-1.34-.96-1.62a2.87 2.87 0 0 0-1.57.06l-.07-.73c.54-.19 1.26-.22 1.98-.05 1.73.42 1.86 1.7 1.58 2.83l-.51 2.11c-.12.49-.21.97-.24 1.37l-.93-.22zm.55-2.91c-1.11-.3-2.43-.41-2.7.69-.16.66.21 1.09.73 1.21.73.18 1.31-.17 1.59-.61.06-.1.11-.21.14-.31l.24-.98z"/></g><g><path d="M509.49 366.01a7.63 7.63 0 0 1-1.91-1.64c-.77-.95-1.17-1.93-1.08-3.02.08-.96.65-1.98 1.62-2.78 1.88-1.51 4.29-1.34 6 .76.59.72.89 1.42.98 1.8l-.82.34c-.12-.46-.34-.97-.86-1.61-1.24-1.53-3-1.75-4.57-.47-1.59 1.29-1.75 3.02-.56 4.48.43.53.8.83 1.04.94l1.87-1.52-1.04-1.27.65-.53 1.68 2.07-3 2.45zM512.29 370.01l.51-.53-.02-.03c-.56.04-1.27-.19-1.79-.83-.74-.91-.48-1.9.17-2.43 1.09-.89 2.47-.4 3.88 1.34l.09-.08c.37-.3.96-.95.21-1.87-.34-.42-.83-.75-1.29-.9l.39-.63c.54.18 1.14.59 1.6 1.15 1.12 1.38.45 2.48-.45 3.21l-1.68 1.37c-.39.32-.76.65-1.02.95l-.6-.72zm2.19-1.99c-.71-.91-1.69-1.79-2.57-1.08-.53.43-.49.99-.15 1.41.48.59 1.15.65 1.64.47.11-.04.21-.1.3-.17l.78-.63zM517.19 369.33c.46-.38.84-.7 1.19-1.03l.59.73-.71.65.01.02c.61-.12 1.45.05 2.06.8.51.62.92 1.89-.62 3.15l-2.69 2.19-.67-.82 2.6-2.11c.72-.59 1.11-1.35.48-2.12-.44-.54-1.16-.65-1.73-.42-.13.05-.29.14-.43.25l-2.71 2.2-.67-.82 3.3-2.67zM527.88 375.68l-5.44 4.43c-.4.33-.85.71-1.13.98l-.6-.73.75-.67-.02-.02c-.71.16-1.53-.08-2.13-.81-.88-1.09-.65-2.68.72-3.79 1.49-1.23 3.17-1.05 4.06.05.56.69.61 1.42.42 1.92l.02.02 2.69-2.19.66.81zm-4.6 2.39c.1-.08.23-.21.31-.32.42-.55.49-1.34-.01-1.95-.69-.85-1.84-.74-2.84.07-.91.74-1.3 1.8-.58 2.69.45.55 1.22.75 1.95.41.13-.06.25-.14.38-.25l.79-.65zM524.41 384.91l.51-.53-.02-.03c-.56.04-1.27-.19-1.79-.83-.74-.91-.48-1.9.17-2.43 1.09-.89 2.47-.4 3.88 1.34l.09-.08c.37-.3.96-.95.21-1.87-.34-.42-.83-.75-1.29-.9l.39-.62c.55.18 1.14.59 1.6 1.15 1.12 1.38.45 2.47-.45 3.21l-1.68 1.37c-.39.32-.76.65-1.02.95l-.6-.73zm2.2-1.99c-.71-.91-1.69-1.79-2.57-1.08-.53.43-.49.99-.15 1.41.48.59 1.15.65 1.64.47.11-.04.21-.1.3-.17l.78-.63zM529.13 385.73l.01.02c.25-.02.57-.02.84-.02l2.63.06.8.99-3.27-.23-1.04 4.14-.81-1 .89-3.31-.81-.04-1.69 1.38-.66-.81 6.6-5.38.66.81-4.15 3.39z"/></g><g><path d="M575.13 376.74l.67-.8 2.97 2.52.02-.03c-.1-.37-.18-.72-.25-1.04l-.71-3.85.84-.99.72 4.45 5.59.61-.8.94-4.75-.54.18 1.16 2.35 1.99-.68.8-6.15-5.22zM586.62 371.12c1.64 1.39 1.39 3.13.48 4.2-1.02 1.2-2.68 1.38-4.08.19-1.48-1.26-1.53-2.96-.49-4.19 1.09-1.27 2.74-1.35 4.09-.2zm-2.93 3.55c.97.82 2.17.89 2.84.1.65-.77.42-1.96-.58-2.8-.75-.64-2.02-1.07-2.83-.12-.8.95-.27 2.11.57 2.82zM588.82 371.42c.36-.11.88-.39 1.22-.79.5-.58.44-1.11.07-1.42-.38-.33-.79-.28-1.51.13-.96.56-1.72.56-2.25.11-.71-.6-.81-1.68 0-2.63.38-.45.84-.73 1.2-.86l.42.7c-.26.08-.68.28-1.02.69-.4.48-.35.97-.02 1.25.37.31.75.18 1.46-.21.95-.52 1.66-.59 2.32-.03.78.66.81 1.73-.08 2.78-.41.48-.91.83-1.36.99l-.45-.71zM587.9 362.68c.28.22.33.61.06.93-.24.28-.63.3-.9.07a.654.654 0 0 1-.08-.93c.26-.3.64-.31.92-.07zm4.91 5.71l-4.43-3.76.68-.8 4.43 3.76-.68.8z"/></g><g><path d="M675.03 361.76l-1.72-1.76.63-.62 4.18 4.28-.64.62-1.73-1.77-5.15 5.03-.74-.75 5.17-5.03zM672.85 369.83l4.15-4.06.74.75-4.15 4.06-.74-.75zm6.14-4.36c-.25.26-.64.27-.93-.03a.628.628 0 0 1 .02-.91c.27-.26.67-.26.93.01.28.29.25.67-.02.93zM675.48 370.98c.07.37.3.91.67 1.29.54.55 1.06.54 1.41.2.36-.35.35-.76.01-1.52-.46-1.01-.39-1.76.1-2.25.67-.65 1.75-.65 2.62.24.41.42.65.91.74 1.27l-.73.35c-.06-.26-.21-.7-.59-1.08-.44-.45-.94-.44-1.24-.14-.34.33-.25.73.07 1.48.43.99.43 1.71-.19 2.31-.73.71-1.8.65-2.76-.34-.44-.45-.74-.98-.86-1.44l.75-.37zM684.37 370.92l-1.19 1.17 1.05 1.08-.57.56-1.06-1.08-2.24 2.19c-.52.5-.66.93-.25 1.35.19.2.36.32.48.39l-.53.59c-.2-.09-.47-.28-.76-.57-.34-.35-.51-.74-.48-1.12.01-.43.31-.87.8-1.35l2.26-2.21-.63-.64.58-.56.63.64 1-.97.91.53zM683.15 380.38l.46-.57-.02-.03c-.55.09-1.28-.07-1.86-.67-.82-.84-.65-1.85-.05-2.44 1-.98 2.42-.62 3.98.99l.09-.08c.34-.33.87-1.03.04-1.88a2.9 2.9 0 0 0-1.36-.78l.33-.66c.56.12 1.19.48 1.7 1 1.24 1.27.68 2.42-.16 3.24l-1.55 1.52c-.36.35-.7.71-.93 1.04l-.67-.68zm2.01-2.18c-.79-.84-1.85-1.63-2.65-.85-.49.48-.4 1.03-.03 1.42.53.54 1.21.55 1.68.33.1-.05.21-.12.28-.19l.72-.71z"/></g><g><path d="M675.94 237.76l-2.46.03-.01-.89 5.98-.07.01.89-2.47.03.08 7.2-1.05.01-.08-7.2zM679.63 243.83c.31.2.87.41 1.4.4.77-.01 1.12-.4 1.12-.88-.01-.5-.31-.78-1.09-1.06-1.05-.36-1.55-.93-1.55-1.63-.01-.94.74-1.71 1.98-1.73.59-.01 1.1.15 1.43.34l-.25.77c-.23-.14-.65-.33-1.19-.32-.62.01-.97.37-.96.8.01.48.36.69 1.11.97 1.01.37 1.53.87 1.54 1.73.01 1.02-.77 1.75-2.15 1.76-.63.01-1.22-.14-1.63-.38l.24-.77zM687.75 244.82l-.09-.73h-.04c-.32.46-.94.87-1.76.88-1.18.01-1.79-.81-1.79-1.65-.02-1.4 1.22-2.19 3.46-2.2V241c-.01-.48-.15-1.34-1.33-1.33-.54.01-1.1.18-1.51.45l-.25-.69c.48-.32 1.17-.53 1.9-.54 1.77-.02 2.22 1.19 2.23 2.35l.03 2.17c.01.5.04 1 .11 1.39l-.96.02zm-.19-2.96c-1.15-.01-2.46.21-2.44 1.34.01.68.47 1 1.01 1 .76-.01 1.23-.49 1.39-.99.03-.11.06-.23.06-.34l-.02-1.01zM690.27 240.55c-.01-.6-.02-1.09-.07-1.57l.94-.01.07.96h.02c.28-.56.95-1.1 1.91-1.11.8-.01 2.06.46 2.08 2.45l.04 3.47-1.06.01-.04-3.35c-.01-.94-.37-1.71-1.36-1.7-.7.01-1.23.51-1.4 1.1-.05.13-.07.31-.07.49l.04 3.49-1.06.01-.04-4.24zM701.91 238.85c-.02.42-.04.89-.03 1.6l.04 3.37c.02 1.33-.24 2.15-.8 2.66-.56.53-1.37.71-2.1.72-.7.01-1.47-.15-1.94-.46l.25-.81c.39.24.99.44 1.71.44 1.08-.01 1.86-.59 1.85-2.05l-.01-.65h-.02c-.32.54-.94.98-1.84.99-1.44.02-2.48-1.19-2.5-2.8-.02-1.97 1.25-3.1 2.58-3.11 1.01-.01 1.57.51 1.82.99h.02l.04-.88.93-.01zm-1.06 2.3c0-.18-.02-.34-.07-.48-.2-.61-.72-1.11-1.49-1.1-1.01.01-1.72.87-1.7 2.21.01 1.14.6 2.08 1.74 2.07.65-.01 1.23-.42 1.45-1.1.06-.18.08-.38.08-.56l-.01-1.04zM703.57 240.72c-.01-.74-.04-1.34-.07-1.89l.95-.01.06.99h.02c.42-.71 1.1-1.14 2.05-1.15 1.4-.02 2.47 1.16 2.49 2.92.02 2.09-1.23 3.13-2.6 3.15-.77.01-1.44-.32-1.8-.89h-.02l.04 3.15-1.04.01-.08-6.28zm1.06 1.54c0 .16.03.3.05.43.2.73.84 1.23 1.6 1.22 1.12-.01 1.75-.93 1.74-2.26-.01-1.16-.64-2.15-1.75-2.14-.72.01-1.38.53-1.58 1.33-.03.13-.07.29-.07.43l.01.99zM715.66 241.54c.02 2.15-1.45 3.1-2.85 3.11-1.57.02-2.8-1.12-2.82-2.95-.02-1.94 1.24-3.1 2.84-3.12 1.67-.01 2.81 1.19 2.83 2.96zm-4.61.12c.01 1.27.76 2.22 1.79 2.21 1.01-.01 1.75-.97 1.74-2.27-.01-.98-.52-2.23-1.77-2.21-1.24.01-1.77 1.16-1.76 2.27zM718.69 244.94l3.25-8.73.82-.01-3.26 8.73-.81.01zM726.17 236.4c.46-.1 1.17-.18 1.91-.19 1.04-.01 1.72.16 2.22.56.42.31.68.78.69 1.42.01.78-.5 1.47-1.35 1.79v.02c.77.18 1.68.81 1.69 2.01.01.7-.26 1.23-.66 1.63-.56.52-1.47.77-2.79.79-.72.01-1.27-.03-1.62-.08l-.09-7.95zm1.09 3.29l.95-.01c1.1-.01 1.74-.6 1.74-1.38-.01-.95-.74-1.31-1.79-1.3-.48.01-.75.04-.92.08l.02 2.61zm.04 3.88c.2.03.5.04.88.04 1.08-.01 2.07-.42 2.06-1.6-.01-1.1-.96-1.55-2.1-1.54l-.86.01.02 3.09zM732.69 240.3c-.01-.68-.03-1.27-.07-1.81l.92-.01.05 1.14h.05c.25-.78.88-1.28 1.59-1.29.12 0 .2.01.3.03l.01 1c-.11-.02-.22-.03-.36-.03-.74.01-1.27.58-1.4 1.37-.02.14-.04.31-.04.49l.04 3.09-1.04.01-.05-3.99zM739.81 244.22l-.09-.73h-.04c-.32.46-.94.87-1.77.88-1.17.01-1.78-.81-1.79-1.65-.02-1.4 1.22-2.19 3.46-2.2v-.12c-.01-.48-.15-1.34-1.33-1.33-.54.01-1.1.18-1.51.45l-.25-.69c.48-.32 1.17-.53 1.9-.54 1.77-.02 2.22 1.19 2.23 2.35l.03 2.17c.01.5.04.99.11 1.39l-.95.02zm-.19-2.96c-1.15-.01-2.46.21-2.44 1.34.01.68.47 1 1.01 1 .75-.01 1.23-.49 1.39-.99.03-.11.06-.23.06-.34l-.02-1.01zM742.28 235.67l1.06-.01.04 3.62h.02c.16-.3.42-.57.75-.75.31-.18.68-.31 1.08-.31.78-.01 2.03.46 2.05 2.46l.04 3.45-1.06.01-.04-3.33c-.01-.94-.37-1.72-1.36-1.71-.68.01-1.22.49-1.4 1.07-.06.14-.07.3-.07.5l.04 3.5-1.06.01-.09-8.51zM748.99 239.88c-.01-.6-.02-1.09-.07-1.57l.92-.01.06.94h.04c.32-.56.85-1.08 1.81-1.09.79-.01 1.4.46 1.66 1.14h.02c.18-.33.4-.58.64-.76.34-.27.73-.42 1.28-.42.77-.01 1.91.48 1.94 2.5l.04 3.42-1.03.01-.04-3.29c-.01-1.12-.43-1.78-1.28-1.77-.6.01-1.06.46-1.24.97-.05.14-.08.34-.08.53l.04 3.59-1.03.01-.04-3.48c-.01-.92-.43-1.59-1.23-1.58-.66.01-1.13.54-1.29 1.07-.06.16-.08.34-.08.52l.04 3.5-1.03.01-.05-4.24zM762.26 243.96l-.09-.73h-.04c-.32.46-.94.87-1.76.88-1.18.01-1.79-.81-1.79-1.65-.02-1.4 1.22-2.19 3.46-2.2v-.12c-.01-.48-.15-1.34-1.33-1.33-.54.01-1.1.18-1.51.45l-.25-.69c.48-.32 1.17-.53 1.9-.54 1.78-.02 2.22 1.19 2.23 2.35l.02 2.17c.01.5.04.99.11 1.39l-.95.02zm-.19-2.96c-1.15-.01-2.46.21-2.44 1.34.01.68.47 1 1.01 1 .76-.01 1.23-.49 1.39-.99.03-.11.06-.23.06-.34l-.02-1.01zM764.79 240.02c-.01-.74-.04-1.34-.07-1.89l.95-.01.06.99h.02c.42-.71 1.1-1.14 2.05-1.15 1.4-.02 2.47 1.16 2.49 2.92.02 2.09-1.24 3.13-2.6 3.15-.77.01-1.44-.32-1.8-.89h-.02l.04 3.15-1.04.01-.08-6.28zm1.06 1.53c0 .16.03.3.05.43.2.73.84 1.23 1.6 1.22 1.12-.01 1.75-.93 1.74-2.26-.01-1.16-.64-2.15-1.75-2.14-.72.01-1.38.53-1.58 1.33-.03.13-.07.29-.07.43l.01.99zM776.5 242.21c.01.6.02 1.13.07 1.58l-.94.01-.07-.95h-.02c-.27.47-.87 1.09-1.91 1.1-.91.01-2.01-.48-2.03-2.52l-.04-3.39 1.06-.01.04 3.21c.01 1.1.36 1.84 1.32 1.83.71-.01 1.19-.51 1.38-.98.06-.16.09-.35.09-.54l-.04-3.56 1.06-.01.03 4.23zM779.46 236.29l.02 1.67 1.51-.02.01.8-1.51.02.04 3.13c.01.72.22 1.12.8 1.12.28 0 .48-.04.61-.08l.06.79c-.2.09-.53.15-.93.15-.49.01-.89-.15-1.14-.43-.3-.31-.42-.82-.43-1.51l-.04-3.17-.9.01-.01-.8.9-.01-.02-1.39 1.03-.28zM782.2 239.73c-.01-.68-.03-1.27-.07-1.81l.92-.01.05 1.14h.05c.25-.78.88-1.28 1.59-1.29.12 0 .2.01.3.03l.01 1c-.11-.02-.22-.03-.36-.03-.74.01-1.26.58-1.4 1.37-.02.14-.04.31-.04.49l.04 3.09-1.04.01-.05-3.99zM789.32 243.64l-.09-.73h-.04c-.32.46-.94.87-1.77.88-1.17.01-1.78-.81-1.79-1.65-.02-1.4 1.22-2.19 3.46-2.2v-.12c-.01-.48-.15-1.34-1.33-1.33-.54.01-1.1.18-1.51.45l-.25-.69c.48-.32 1.17-.53 1.9-.54 1.77-.02 2.22 1.19 2.23 2.35l.03 2.17c.01.5.04 1 .11 1.39l-.95.02zm-.19-2.96c-1.15-.01-2.46.21-2.44 1.34.01.68.47 1 1.01 1 .75-.01 1.23-.49 1.39-.99.03-.11.06-.23.06-.34l-.02-1.01z"/></g><g><path d="M179.58 174.83c.22-.41.63-1.01 1.1-1.57.67-.8 1.24-1.19 1.88-1.32.51-.12 1.04 0 1.52.41.6.5.79 1.34.47 2.19l.02.02c.64-.46 1.71-.74 2.62.03.53.45.76 1 .8 1.57.03.76-.37 1.61-1.22 2.62-.46.55-.86.94-1.12 1.18l-6.07-5.13zm3.2 1.34l.61-.72c.71-.84.69-1.71.09-2.21-.72-.61-1.47-.3-2.15.51-.31.37-.46.6-.54.75l1.99 1.67zm2.96 2.5c.16-.13.36-.35.6-.64.7-.82 1.04-1.84.14-2.6-.84-.71-1.8-.28-2.54.59l-.56.66 2.36 1.99zM188.18 172.8c1.11.9 2.14.58 2.82-.22.49-.58.68-1.01.81-1.42l.69.35c-.11.39-.37 1-.97 1.71-1.15 1.37-2.74 1.42-4.08.29s-1.73-2.81-.64-4.1c1.22-1.45 2.82-.76 3.64-.07.16.14.28.27.35.35l-2.62 3.11zm1.42-2.85c-.51-.44-1.49-.9-2.25.01-.69.82-.24 1.81.27 2.34l1.98-2.35zM195.83 167.94l-.61-.41-.02.03c.14.54.05 1.28-.49 1.91-.76.9-1.78.82-2.42.28-1.07-.9-.86-2.35.6-4.06l-.09-.08c-.37-.31-1.11-.77-1.88.14-.35.41-.58.95-.64 1.43l-.69-.27c.07-.57.36-1.23.84-1.79 1.14-1.36 2.35-.91 3.24-.16l1.66 1.4c.38.32.78.62 1.13.82l-.63.76zm-2.37-1.79c-.76.86-1.45 2-.59 2.72.52.44 1.06.3 1.41-.11.49-.58.43-1.25.16-1.7-.06-.1-.14-.19-.22-.26l-.76-.65zM196.56 165.4c.36-.11.88-.39 1.22-.79.5-.59.43-1.11.07-1.42-.39-.32-.79-.27-1.51.14-.96.56-1.71.56-2.25.11-.71-.6-.81-1.68-.01-2.63.38-.45.84-.73 1.2-.86l.42.7c-.26.08-.67.28-1.02.69-.4.48-.35.98-.02 1.25.37.31.75.18 1.46-.21.94-.52 1.66-.59 2.32-.04.78.66.82 1.73-.07 2.78-.41.49-.91.83-1.36.99l-.45-.71z"/></g><g><path d="M395.43 180.74h1.04v3.9h.04c.22-.31.43-.6.64-.86l2.47-3.03h1.3l-2.93 3.43 3.15 4.65h-1.23l-2.66-3.97-.77.89v3.08h-1.04v-8.09zM405.3 188.82l-.08-.73h-.04c-.32.46-.95.86-1.77.86-1.18 0-1.77-.83-1.77-1.67 0-1.4 1.25-2.17 3.49-2.16V185c0-.48-.13-1.34-1.32-1.34-.54 0-1.1.17-1.51.43l-.24-.7c.48-.31 1.18-.52 1.91-.52 1.77 0 2.21 1.21 2.21 2.37v2.17c0 .5.02 1 .1 1.39h-.98zm-.15-2.96c-1.15-.02-2.46.18-2.46 1.31 0 .68.46 1.01 1 1.01.76 0 1.24-.48 1.4-.97.04-.11.06-.23.06-.34v-1.01zM409.05 181.39c.01.36-.25.65-.67.65-.37 0-.64-.29-.64-.65 0-.37.28-.66.66-.66.4 0 .65.28.65.66zm-1.18 7.43v-5.8h1.06v5.8h-1.06zM410.68 180.31h1.06v8.52h-1.06v-8.52zM416.73 188.82l-.08-.73h-.04c-.32.46-.95.86-1.77.86-1.18 0-1.77-.83-1.77-1.67 0-1.4 1.25-2.17 3.49-2.16V185c0-.48-.13-1.34-1.32-1.34-.54 0-1.1.17-1.51.43l-.24-.7c.48-.31 1.18-.52 1.91-.52 1.77 0 2.21 1.21 2.21 2.37v2.17c0 .5.02 1 .1 1.39h-.98zm-.16-2.96c-1.15-.02-2.46.18-2.46 1.31 0 .68.46 1.01 1 1.01.76 0 1.24-.48 1.4-.97.04-.11.06-.23.06-.34v-1.01zM419.15 187.74c.31.2.86.42 1.39.42.77 0 1.13-.38 1.13-.86 0-.5-.3-.78-1.08-1.07-1.04-.37-1.54-.95-1.54-1.64 0-.94.76-1.7 2-1.7.59 0 1.1.17 1.43.36l-.26.77c-.23-.14-.65-.34-1.19-.34-.62 0-.97.36-.97.79 0 .48.35.7 1.1.98 1.01.38 1.52.89 1.52 1.75 0 1.02-.79 1.74-2.17 1.74-.64 0-1.22-.16-1.63-.4l.27-.8z"/></g><path class="st9" d="M603.17 288.59c-1.81-1.63-2.23-4.25-4.6-5.9-1.11 1.79-2.77 4.05-3.08 6.07"/><g><path d="M607.13 279.2h-3.14v2.91h3.5v.88h-4.54v-8.08h4.37v.88H604v2.55h3.14v.86zM609.13 277.19l1.14 3.26c.19.53.35 1.01.47 1.49h.04c.13-.48.3-.96.49-1.49l1.13-3.26h1.1l-2.28 5.8h-1.01l-2.21-5.8h1.13zM614.96 280.28c.02 1.43.94 2.01 1.99 2.01.75 0 1.21-.13 1.61-.3l.18.76c-.37.17-1.01.36-1.93.36-1.79 0-2.85-1.18-2.85-2.93 0-1.75 1.03-3.13 2.72-3.13 1.9 0 2.4 1.67 2.4 2.73 0 .22-.02.38-.04.49h-4.08zm3.1-.76c.01-.67-.28-1.71-1.46-1.71-1.07 0-1.54.98-1.62 1.71h3.08zM620.39 279c0-.68-.01-1.27-.05-1.81h.92l.04 1.14h.05c.26-.78.9-1.27 1.61-1.27.12 0 .2.01.3.04v1c-.11-.02-.22-.04-.36-.04-.74 0-1.27.56-1.42 1.36-.02.14-.05.31-.05.49V283h-1.04v-4zM624.78 280.28c.02 1.43.94 2.01 1.99 2.01.75 0 1.21-.13 1.61-.3l.18.76c-.37.17-1.01.36-1.93.36-1.79 0-2.85-1.18-2.85-2.93 0-1.75 1.03-3.13 2.72-3.13 1.9 0 2.4 1.67 2.4 2.73 0 .22-.02.38-.04.49h-4.08zm3.1-.76c.01-.67-.28-1.71-1.46-1.71-1.07 0-1.54.98-1.62 1.71h3.08zM630.06 281.91c.31.2.86.42 1.39.42.77 0 1.13-.38 1.13-.86 0-.5-.3-.78-1.08-1.07-1.04-.37-1.54-.95-1.54-1.64 0-.94.75-1.7 2-1.7.59 0 1.1.17 1.43.36l-.26.77c-.23-.14-.65-.34-1.19-.34-.62 0-.97.36-.97.79 0 .48.35.7 1.1.98 1.01.38 1.52.89 1.52 1.75 0 1.02-.79 1.74-2.17 1.74-.64 0-1.22-.16-1.63-.4l.27-.8zM636.23 275.52v1.67h1.51v.8h-1.51v3.13c0 .72.2 1.13.79 1.13.28 0 .48-.04.61-.07l.05.79c-.2.08-.53.14-.94.14-.49 0-.89-.16-1.14-.44-.3-.31-.41-.83-.41-1.51v-3.17h-.9v-.8h.9v-1.39l1.04-.28z"/></g><g><path d="M381 226.78l.89.55-2.05 3.31.03.02c.35-.15.68-.28 1-.4l3.7-1.28 1.1.68-4.29 1.38.23 5.62-1.05-.65-.17-4.78-1.12.35-1.62 2.62-.89-.55 4.24-6.87zM385.14 238.85l.31-.67-.03-.02c-.51.22-1.26.24-1.96-.2-1-.62-1.07-1.64-.63-2.35.74-1.19 2.2-1.19 4.1 0l.06-.1c.25-.41.59-1.21-.41-1.84-.46-.29-1.03-.44-1.51-.43l.16-.72c.57-.01 1.27.18 1.89.57 1.51.93 1.24 2.19.63 3.18l-1.14 1.85c-.27.43-.5.86-.65 1.23l-.82-.5zm1.42-2.6c-.97-.63-2.18-1.14-2.78-.18-.36.58-.14 1.1.32 1.38.64.4 1.3.24 1.71-.09.09-.07.17-.16.23-.25l.52-.86zM389.42 236.81c.36-.58.66-1.09.91-1.57l.79.49-.57.99.04.03c.63-.52 1.43-.61 2.04-.23.1.06.17.12.24.19l-.52.85c-.08-.08-.16-.14-.29-.22-.63-.39-1.38-.19-1.92.41-.1.11-.2.24-.3.39l-1.63 2.63-.89-.55 2.1-3.41zM392.93 238.69c.32-.51.56-.93.79-1.36l.8.49-.45.85.02.01c.54-.32 1.39-.42 2.21.08.68.42 1.49 1.49.44 3.18l-1.82 2.95-.9-.56 1.76-2.84c.49-.8.61-1.64-.24-2.17-.59-.37-1.31-.23-1.77.17-.11.09-.23.23-.32.38l-1.84 2.97-.9-.56 2.22-3.59zM399.09 247.49l.31-.67-.03-.02c-.52.22-1.26.24-1.96-.2-1-.62-1.07-1.64-.63-2.35.74-1.19 2.2-1.19 4.1 0l.06-.1c.25-.41.6-1.21-.41-1.84-.46-.28-1.03-.44-1.51-.43l.16-.72c.57-.01 1.27.18 1.89.57 1.51.93 1.24 2.19.63 3.18l-1.14 1.85c-.27.43-.5.86-.65 1.23l-.82-.5zm1.43-2.6c-.97-.63-2.19-1.14-2.78-.18-.36.58-.14 1.1.32 1.38.64.4 1.3.24 1.7-.09.09-.07.17-.16.23-.25l.53-.86zM405.76 241.6l.9.56-4.48 7.24-.9-.56 4.48-7.24zM403.69 250.34l3.06-4.94.9.56-3.06 4.94-.9-.56zm4.91-5.71c-.18.31-.56.42-.91.2a.62.62 0 0 1-.2-.88c.2-.32.58-.42.91-.21.33.2.4.58.2.89z"/></g><g><path d="M183.93 206.32c.47.28 1.16.5 1.88.49 1.07-.02 1.68-.6 1.66-1.42-.02-.75-.46-1.18-1.56-1.57-1.33-.44-2.16-1.11-2.18-2.24-.03-1.26 1-2.22 2.57-2.25.83-.02 1.43.16 1.79.36l-.27.86a3.15 3.15 0 0 0-1.54-.35c-1.1.02-1.51.69-1.5 1.24.02.76.52 1.12 1.64 1.52 1.38.5 2.09 1.14 2.11 2.33.03 1.25-.87 2.35-2.78 2.39-.78.02-1.64-.19-2.07-.47l.25-.89zM194.8 205.77c.01.6.04 1.13.08 1.58l-.94.02-.08-.95h-.02c-.27.47-.86 1.1-1.9 1.12-.91.02-2.01-.46-2.06-2.5l-.07-3.39 1.06-.02.07 3.21c.02 1.1.38 1.84 1.33 1.82.71-.02 1.19-.52 1.37-.99.06-.16.09-.35.08-.54l-.08-3.56 1.06-.02.1 4.22zM197.7 199.82l.04 1.67 1.51-.03.02.8-1.51.03.07 3.13c.02.72.23 1.12.82 1.11.28-.01.48-.05.61-.08l.06.79c-.2.09-.52.16-.93.16-.49.01-.89-.14-1.15-.42-.31-.31-.43-.82-.44-1.5l-.07-3.17-.9.02-.02-.8.9-.02-.03-1.39 1.02-.3zM200.38 198.72l1.06-.02.18 8.51-1.06.02-.18-8.51zM203.92 204.45c.05 1.43.98 1.99 2.03 1.97.76-.02 1.21-.16 1.6-.33l.2.75c-.37.18-1 .38-1.92.4-1.79.04-2.88-1.11-2.92-2.86-.04-1.75.96-3.15 2.65-3.19 1.89-.04 2.43 1.62 2.46 2.68 0 .22-.02.38-.03.49l-4.07.09zm3.08-.82c0-.67-.31-1.71-1.5-1.68-1.07.02-1.51 1.02-1.58 1.75l3.08-.07zM208.02 208.75c.48-.05.9-.19 1.14-.47.28-.34.38-.8.35-2.19l-.1-4.86 1.06-.02.11 5.26c.02 1.13-.14 1.86-.64 2.4-.46.48-1.22.69-1.78.7l-.14-.82zm2.53-9.17c.02.35-.23.65-.65.66-.4.01-.65-.29-.66-.63-.01-.37.26-.67.66-.67.38-.02.64.27.65.64z"/></g><g><path d="M560.67 85.94h-4.3v-1.55h10.48v1.55h-4.33v12.6h-1.85v-12.6zM570.16 85.52c.02.63-.44 1.13-1.18 1.13-.65 0-1.11-.5-1.11-1.13 0-.65.48-1.16 1.16-1.16.69.01 1.13.51 1.13 1.16zm-2.06 13.02V88.38h1.85v10.16h-1.85zM572.93 98.54c.04-.69.08-1.72.08-2.62V83.63h1.83v6.38h.04c.65-1.13 1.83-1.87 3.46-1.87 2.52 0 4.3 2.1 4.28 5.19 0 3.63-2.29 5.44-4.56 5.44-1.47 0-2.65-.57-3.4-1.91h-.06l-.08 1.68h-1.59zm1.91-4.07c0 .23.04.46.08.67.36 1.28 1.43 2.16 2.77 2.16 1.93 0 3.09-1.57 3.09-3.9 0-2.04-1.05-3.78-3.02-3.78-1.26 0-2.44.86-2.81 2.27-.04.21-.11.46-.11.76v1.82zM585.99 93.8c.04 2.5 1.64 3.53 3.49 3.53 1.32 0 2.12-.23 2.81-.53l.31 1.32c-.65.29-1.76.63-3.38.63-3.13 0-5-2.06-5-5.12s1.81-5.48 4.77-5.48c3.32 0 4.2 2.92 4.2 4.79 0 .38-.04.67-.06.86h-7.14zm5.42-1.33c.02-1.18-.48-3-2.56-3-1.87 0-2.69 1.72-2.83 3h5.39zM597.71 85.46v2.92h2.65v1.41h-2.65v5.48c0 1.26.36 1.97 1.39 1.97.48 0 .84-.06 1.07-.13l.08 1.39c-.36.15-.92.25-1.64.25-.86 0-1.55-.27-1.99-.78-.53-.54-.71-1.45-.71-2.64v-5.54h-1.58v-1.41h1.58v-2.44l1.8-.48zM608.06 98.54l-.15-1.28h-.06c-.57.8-1.66 1.51-3.11 1.51-2.06 0-3.11-1.45-3.11-2.92 0-2.46 2.18-3.8 6.11-3.78v-.21c0-.84-.23-2.35-2.31-2.35-.95 0-1.93.29-2.65.76l-.42-1.22c.84-.55 2.06-.9 3.34-.9 3.11 0 3.86 2.12 3.86 4.16v3.8c0 .88.04 1.74.17 2.44h-1.67zm-.27-5.18c-2.02-.04-4.3.32-4.3 2.29 0 1.2.8 1.76 1.74 1.76 1.32 0 2.16-.84 2.46-1.7.06-.19.11-.4.11-.59v-1.76zM612.56 91.13c0-1.05-.02-1.91-.08-2.75h1.64l.11 1.68h.04c.5-.97 1.68-1.91 3.36-1.91 1.41 0 3.59.84 3.59 4.33v6.07h-1.85v-5.86c0-1.64-.61-3-2.35-3-1.22 0-2.16.86-2.48 1.89-.08.23-.13.55-.13.86v6.11h-1.85v-7.42zM628.73 84.56c.88-.15 2.04-.27 3.51-.27 1.81 0 3.13.42 3.97 1.18.78.67 1.24 1.7 1.24 2.96 0 1.28-.38 2.29-1.09 3.02-.97 1.03-2.54 1.55-4.33 1.55-.55 0-1.05-.02-1.47-.13v5.67h-1.83V84.56zm1.82 6.82c.4.1.9.15 1.51.15 2.21 0 3.55-1.07 3.55-3.02 0-1.87-1.32-2.77-3.34-2.77-.8 0-1.41.06-1.72.15v5.49zM639.73 83.63h1.85v14.91h-1.85V83.63zM650.32 98.54l-.15-1.28h-.06c-.57.8-1.66 1.51-3.11 1.51-2.06 0-3.11-1.45-3.11-2.92 0-2.46 2.18-3.8 6.11-3.78v-.21c0-.84-.23-2.35-2.31-2.35-.95 0-1.93.29-2.65.76l-.42-1.22c.84-.55 2.06-.9 3.34-.9 3.11 0 3.86 2.12 3.86 4.16v3.8c0 .88.04 1.74.17 2.44h-1.67zm-.28-5.18c-2.02-.04-4.3.32-4.3 2.29 0 1.2.8 1.76 1.74 1.76 1.32 0 2.16-.84 2.46-1.7.06-.19.11-.4.11-.59v-1.76zM656.95 85.46v2.92h2.65v1.41h-2.65v5.48c0 1.26.36 1.97 1.39 1.97.48 0 .84-.06 1.07-.13l.08 1.39c-.36.15-.92.25-1.64.25-.86 0-1.55-.27-2-.78-.52-.54-.71-1.45-.71-2.64v-5.54h-1.57v-1.41h1.57v-2.44l1.81-.48zM662.58 93.8c.04 2.5 1.64 3.53 3.49 3.53 1.32 0 2.12-.23 2.81-.53l.32 1.32c-.65.29-1.76.63-3.38.63-3.13 0-5-2.06-5-5.12s1.81-5.48 4.77-5.48c3.32 0 4.2 2.92 4.2 4.79 0 .38-.04.67-.06.86h-7.15zm5.42-1.33c.02-1.18-.48-3-2.56-3-1.87 0-2.69 1.72-2.83 3H668zM677.7 98.54l-.15-1.28h-.06c-.57.8-1.66 1.51-3.11 1.51-2.06 0-3.11-1.45-3.11-2.92 0-2.46 2.18-3.8 6.11-3.78v-.21c0-.84-.23-2.35-2.31-2.35-.95 0-1.93.29-2.65.76l-.42-1.22c.84-.55 2.06-.9 3.34-.9 3.11 0 3.86 2.12 3.86 4.16v3.8c0 .88.04 1.74.17 2.44h-1.67zm-.27-5.18c-2.02-.04-4.3.32-4.3 2.29 0 1.2.8 1.76 1.74 1.76 1.32 0 2.16-.84 2.46-1.7.06-.19.11-.4.11-.59v-1.76zM690.7 95.77c0 1.05.02 1.97.08 2.77h-1.64l-.11-1.66H689c-.48.82-1.55 1.89-3.36 1.89-1.6 0-3.51-.88-3.51-4.45v-5.94h1.85v5.63c0 1.93.59 3.23 2.27 3.23 1.24 0 2.1-.86 2.44-1.68.1-.27.17-.61.17-.95v-6.24h1.85v7.4z"/></g><g><path d="M282.35 109.26v-8.08h1.14l2.59 4.09c.6.95 1.07 1.8 1.45 2.63l.02-.01c-.1-1.08-.12-2.06-.12-3.32v-3.38h.98v8.08h-1.06l-2.57-4.1c-.56-.9-1.1-1.82-1.51-2.7l-.04.01c.06 1.02.08 1.99.08 3.33v3.45h-.96zM291.57 109.26l-2.05-8.08h1.1l.96 4.09c.24 1.01.46 2.01.6 2.79h.02c.13-.8.38-1.76.66-2.81l1.08-4.08h1.09l.98 4.1c.23.96.44 1.92.56 2.77h.02c.17-.89.4-1.79.65-2.79l1.07-4.08h1.07l-2.29 8.08H296l-1.02-4.21c-.25-1.03-.42-1.82-.53-2.64h-.02c-.14.8-.32 1.6-.62 2.64l-1.15 4.21h-1.09zM303.99 101.17v8.08h-1.04v-8.08h1.04zM305.9 105.02c0-.6-.01-1.09-.05-1.57h.94l.06.96h.02c.29-.55.96-1.09 1.92-1.09.8 0 2.05.48 2.05 2.47v3.47h-1.06v-3.35c0-.94-.35-1.71-1.34-1.71-.7 0-1.24.49-1.42 1.08-.05.13-.07.31-.07.49v3.49h-1.06v-4.24zM317.57 100.74v7.02c0 .52.01 1.1.05 1.5h-.95l-.05-1.01h-.02c-.32.65-1.03 1.14-1.98 1.14-1.4 0-2.48-1.19-2.48-2.95-.01-1.93 1.19-3.12 2.6-3.12.89 0 1.49.42 1.75.89h.02v-3.47h1.06zm-1.06 5.08c0-.13-.01-.31-.05-.44-.16-.67-.73-1.22-1.52-1.22-1.09 0-1.74.96-1.74 2.24 0 1.18.58 2.15 1.72 2.15.71 0 1.35-.47 1.55-1.26.04-.14.05-.29.05-.46v-1.01zM320.5 101.82c.01.36-.25.65-.67.65-.37 0-.64-.29-.64-.65 0-.37.28-.66.66-.66.4 0 .65.29.65.66zm-1.18 7.44v-5.8h1.06v5.8h-1.06zM325.35 109.26l-.08-.73h-.04c-.32.46-.95.86-1.77.86-1.18 0-1.77-.83-1.77-1.67 0-1.4 1.25-2.17 3.49-2.16v-.12c0-.48-.13-1.34-1.32-1.34-.54 0-1.1.17-1.51.43l-.24-.7c.48-.31 1.18-.52 1.91-.52 1.77 0 2.21 1.21 2.21 2.37v2.17c0 .5.02 1 .1 1.39h-.98zm-.16-2.96c-1.15-.02-2.46.18-2.46 1.31 0 .68.46 1.01 1 1.01.76 0 1.24-.48 1.4-.97.04-.11.06-.23.06-.34v-1.01z"/></g><g><path d="M759.63 402.6c.47.27 1.17.49 1.88.47 1.07-.03 1.67-.61 1.65-1.43-.02-.75-.46-1.17-1.57-1.56-1.33-.43-2.17-1.09-2.2-2.23-.04-1.26.98-2.22 2.55-2.27.83-.02 1.43.15 1.8.34l-.26.86c-.27-.14-.81-.36-1.55-.34-1.1.03-1.5.7-1.49 1.25.02.75.52 1.11 1.65 1.51 1.38.49 2.1 1.13 2.13 2.32.04 1.25-.86 2.35-2.76 2.41-.78.02-1.64-.18-2.08-.46l.25-.87zM765.45 395.19l1.05-.03.1 3.62h.02c.16-.3.42-.58.73-.76.31-.19.67-.32 1.07-.33.78-.02 2.04.42 2.1 2.42l.1 3.45-1.05.03-.09-3.33c-.03-.94-.4-1.72-1.39-1.69-.68.02-1.21.51-1.38 1.09-.06.15-.06.3-.06.51l.1 3.5-1.06.03-.24-8.51zM773.31 396.04c.02.36-.23.65-.65.67-.37.01-.64-.27-.65-.63-.01-.37.26-.67.64-.68.39-.01.65.27.66.64zm-.97 7.47l-.16-5.8 1.05-.03.16 5.8-1.05.03zM774.91 394.92l1.05-.03.24 8.51-1.06.03-.23-8.51zM777.74 394.84l1.05-.03.24 8.51-1.06.03-.23-8.51zM785.98 400.17c.06 2.15-1.4 3.12-2.8 3.16-1.57.04-2.81-1.07-2.87-2.91-.06-1.94 1.18-3.12 2.79-3.16 1.67-.04 2.83 1.14 2.88 2.91zm-4.6.19c.04 1.27.79 2.21 1.83 2.18 1.01-.03 1.74-1 1.7-2.3-.03-.98-.55-2.22-1.8-2.18s-1.76 1.2-1.73 2.3zM787.28 398.85c-.02-.6-.04-1.09-.09-1.57l.94-.03.09.96h.02c.27-.56.93-1.12 1.89-1.15.8-.02 2.06.42 2.12 2.41l.1 3.46-1.05.03-.09-3.34c-.03-.94-.4-1.7-1.39-1.68-.7.02-1.22.53-1.38 1.12-.04.13-.06.31-.06.49l.1 3.49-1.06.03-.14-4.22zM798.89 396.95c-.01.42-.02.89 0 1.6l.1 3.37c.04 1.33-.2 2.15-.75 2.67-.55.54-1.36.73-2.09.76-.7.02-1.47-.13-1.94-.43l.24-.81c.39.23 1 .43 1.72.41 1.08-.03 1.85-.62 1.81-2.08l-.02-.65h-.02c-.31.55-.92 1-1.82 1.02-1.44.04-2.5-1.15-2.55-2.76-.06-1.97 1.2-3.12 2.53-3.15 1.01-.03 1.57.48 1.84.96h.02l.02-.88.91-.03zm-1.03 2.32c0-.18-.02-.34-.07-.48-.21-.61-.74-1.1-1.51-1.07-1.01.03-1.7.9-1.66 2.24.03 1.14.63 2.07 1.77 2.04.65-.02 1.22-.44 1.43-1.12.05-.18.07-.39.07-.57l-.03-1.04zM803.11 394.65c.5-.1 1.16-.19 2-.21 1.03-.03 1.79.19 2.28.61.46.37.74.95.75 1.67.02.73-.18 1.31-.57 1.74-.53.6-1.43.93-2.44.96-.31.01-.6.01-.84-.05l.09 3.24-1.04.03-.23-7.99zm1.16 3.87c.23.05.52.07.87.06 1.26-.04 2.01-.67 1.98-1.78-.03-1.07-.8-1.56-1.95-1.53-.46.01-.8.06-.98.11l.08 3.14zM809.38 393.94l1.05-.03.24 8.51-1.06.03-.23-8.51zM815.67 402.28l-.1-.73h-.04c-.31.46-.92.89-1.75.91-1.17.03-1.8-.78-1.82-1.62-.04-1.4 1.19-2.21 3.43-2.26v-.12c-.01-.48-.17-1.34-1.36-1.31-.54.02-1.1.2-1.5.47l-.26-.69c.47-.33 1.16-.55 1.89-.57 1.77-.05 2.24 1.15 2.27 2.31l.06 2.17c.01.5.05.99.13 1.39l-.95.05zm-.24-2.95c-1.15.01-2.45.25-2.42 1.38.02.68.48.99 1.02.98.75-.02 1.22-.51 1.38-1.01.03-.11.05-.23.05-.34l-.03-1.01zM819.25 394.71l.05 1.67 1.51-.04.02.8-1.51.04.09 3.13c.02.72.24 1.12.82 1.1.28-.01.48-.05.61-.09l.07.79c-.2.09-.52.16-.93.17-.49.01-.89-.13-1.15-.41-.31-.3-.43-.82-.45-1.5l-.09-3.17-.9.03-.02-.8.9-.03-.04-1.39 1.02-.3zM822.6 399.38c.06 1.43.99 1.99 2.05 1.96.75-.02 1.21-.17 1.6-.34l.2.75c-.37.18-1 .39-1.92.41-1.79.05-2.89-1.09-2.94-2.85-.05-1.75.94-3.16 2.63-3.21 1.89-.05 2.45 1.6 2.48 2.67.01.22-.01.38-.02.49l-4.08.12zm3.07-.85c-.01-.67-.32-1.71-1.51-1.67-1.07.03-1.51 1.03-1.57 1.76l3.08-.09zM831.31 401.84l-.1-.73h-.04c-.31.46-.92.89-1.75.91-1.17.03-1.8-.78-1.82-1.62-.04-1.4 1.19-2.21 3.43-2.26v-.12c-.01-.48-.17-1.34-1.36-1.31-.54.02-1.1.2-1.5.47l-.26-.69c.47-.33 1.16-.55 1.89-.57 1.77-.05 2.24 1.15 2.27 2.31l.06 2.17c.01.5.05.99.13 1.39l-.95.05zm-.24-2.96c-1.15.01-2.45.25-2.42 1.38.02.68.48.99 1.02.98.76-.02 1.22-.51 1.38-1.01.03-.11.05-.23.05-.34l-.03-1.01zM838.69 400.05c.02.6.04 1.13.09 1.58l-.94.03-.09-.94h-.02c-.26.47-.86 1.1-1.89 1.13-.91.03-2.02-.45-2.07-2.48l-.1-3.39 1.05-.03.09 3.21c.03 1.1.39 1.84 1.35 1.81.71-.02 1.18-.52 1.36-1 .06-.16.09-.35.08-.54l-.1-3.56 1.06-.03.13 4.21z"/></g><g><path d="M151.43 149.92c.36-.4.94-.89 1.52-1.31.9-.65 1.61-.91 2.28-.84.54.05 1.05.37 1.42.87.63.86.5 1.83-.02 2.56l.02.03c.63-.19 1.27.06 1.92.62.88.76 1.49 1.28 1.81 1.43l-.87.63c-.24-.11-.79-.56-1.57-1.25-.85-.76-1.45-.85-2.23-.32l-.8.58 2.05 2.84-.84.61-4.69-6.45zm3 2.37l.86-.63c.9-.65 1.12-1.56.58-2.31-.61-.85-1.49-.77-2.39-.13-.41.3-.67.55-.78.68l1.73 2.39zM164.02 150.64l-.5-.54-.03.02c0 .56-.26 1.25-.93 1.74-.95.69-1.92.37-2.42-.31-.82-1.14-.26-2.49 1.56-3.8l-.07-.1c-.28-.39-.89-1.01-1.86-.31-.44.32-.79.78-.97 1.24l-.6-.42c.21-.53.65-1.11 1.24-1.54 1.44-1.04 2.5-.31 3.18.63l1.27 1.76c.29.41.6.79.89 1.07l-.76.56zm-1.86-2.3c-.95.66-1.89 1.59-1.22 2.5.4.55.96.55 1.4.23.61-.44.72-1.11.57-1.61a.892.892 0 0 0-.15-.31l-.6-.81zM162.95 144.25l2.84 1.97c.46.31.87.61 1.25.93l.03-.02c-.17-.47-.32-.95-.47-1.49l-1-3.3.89-.65 1.56 6.04-.82.59-5.19-3.41.91-.66zM167.29 139.09c.22.28.18.67-.16.92-.3.22-.68.14-.9-.15a.64.64 0 0 1 .15-.92c.32-.23.69-.15.91.15zm3.41 6.72l-3.41-4.7.86-.62 3.41 4.7-.86.62z"/></g><g><path d="M131.36 135.54c-.18.39-.67 1.01-1.44 1.62-1.79 1.41-4.03 1.33-5.67-.75-1.56-1.99-1.27-4.4.7-5.95.79-.62 1.43-.84 1.73-.9l.33.83c-.43.09-.96.33-1.49.74-1.49 1.17-1.73 2.9-.42 4.57 1.22 1.56 2.9 1.85 4.45.64.5-.39.93-.9 1.13-1.32l.68.52zM127.27 128.27l.83-.65 2.24 2.85.02-.02c-.05-.34-.01-.71.14-1.05.13-.33.35-.66.67-.9.61-.48 1.89-.87 3.13.7l2.13 2.72-.83.65-2.06-2.62c-.58-.74-1.34-1.14-2.12-.53-.54.42-.67 1.13-.46 1.7.04.15.13.28.25.44l2.16 2.76-.83.65-5.27-6.7zM136.55 128.36c.9 1.11 1.98 1.01 2.81.36.59-.47.87-.85 1.08-1.23l.61.48c-.19.36-.57.9-1.3 1.48-1.41 1.1-2.97.84-4.05-.54-1.08-1.38-1.12-3.1.21-4.14 1.49-1.17 2.92-.17 3.57.67.13.17.22.32.28.41l-3.21 2.51zm1.97-2.51c-.4-.54-1.28-1.18-2.21-.45-.84.66-.6 1.72-.22 2.35l2.43-1.9zM139.88 123.81c-.37-.47-.68-.85-1.01-1.21l.74-.58.64.72.02-.01c-.11-.61.08-1.45.84-2.04.63-.5 1.91-.89 3.14.68l2.14 2.73-.83.65-2.06-2.63c-.58-.74-1.33-1.13-2.12-.52-.55.43-.67 1.15-.45 1.72.04.13.14.29.25.43l2.15 2.75-.83.65-2.62-3.34zM150.26 121.05l-.52-.52-.03.02c.03.56-.21 1.26-.86 1.77-.92.73-1.91.44-2.43-.22-.87-1.1-.36-2.48 1.41-3.85l-.07-.09c-.3-.38-.93-.98-1.87-.24-.43.33-.76.81-.92 1.27l-.62-.4c.19-.54.61-1.13 1.18-1.58 1.4-1.1 2.48-.41 3.2.51l1.34 1.71c.31.4.63.77.93 1.04l-.74.58zm-1.95-2.24c-.92.69-1.82 1.66-1.13 2.55.42.54.98.51 1.41.18.59-.47.68-1.14.5-1.63a.956.956 0 0 0-.16-.3l-.62-.8zM152.25 119.49c-.23-.33-.57-.8-.89-1.21l-4.33-5.52.82-.64 2.25 2.87.02-.02c-.11-.74.16-1.48.9-2.06 1.13-.89 2.67-.57 3.75.82 1.28 1.63.89 3.25-.13 4.05-.66.52-1.39.68-2.2.34l-.03.02.55.78-.71.57zm-.58-2.5c.08.1.18.19.27.27.61.45 1.4.47 2.01-.01.87-.68.83-1.8.01-2.84-.72-.92-1.8-1.33-2.69-.63-.57.44-.79 1.25-.46 2.01.05.11.12.24.22.38l.64.82z"/></g><g><path d="M87.12 122l.67-.8 4.13 3.49c1.64 1.38 1.46 2.62.57 3.68-.25.29-.61.6-.87.73l-.55-.67c.2-.11.46-.3.68-.57.6-.72.64-1.41-.57-2.43L87.12 122zM88.56 119.63l.68-.81 2.77 2.34.02-.02c-.12-.32-.15-.69-.08-1.06.06-.35.21-.72.47-1.02.5-.6 1.67-1.24 3.2.05l2.64 2.23-.68.81-2.55-2.15c-.72-.6-1.54-.85-2.19-.09-.44.52-.42 1.24-.11 1.76.07.14.18.25.34.38l2.68 2.26-.68.81-6.51-5.49zM97.68 117.83c1.11.9 2.14.58 2.82-.22.49-.58.68-1.01.81-1.42l.69.35c-.11.39-.38 1-.97 1.71-1.15 1.37-2.74 1.42-4.08.29-1.34-1.13-1.73-2.81-.64-4.1 1.22-1.45 2.82-.76 3.64-.07.17.14.28.27.35.34l-2.62 3.12zm1.41-2.85c-.51-.44-1.49-.9-2.25.01-.69.82-.24 1.81.27 2.34l1.98-2.35zM96.74 109.94l.68-.81 6.51 5.49-.68.81-6.51-5.49zM106.99 108.53c.46.39.87.72 1.24.98l-.6.72-.76-.56-.02.02c.18.51.25 1.37-.41 2.16-.59.7-1.68 1.21-3.24-.11l-2.59-2.19.68-.81 2.46 2.07c.84.71 1.63.93 2.25.2.46-.54.4-1.23.16-1.68-.08-.15-.2-.3-.35-.42l-2.72-2.3.68-.81 3.22 2.73zM106.1 105.48c-.46-.39-.84-.69-1.23-.98l.6-.71.75.57.02-.03c-.21-.6-.26-1.35.36-2.08.51-.6 1.26-.75 1.95-.51l.02-.02c-.13-.35-.18-.68-.16-.98.02-.44.16-.82.52-1.24.5-.59 1.62-1.13 3.15.17l2.61 2.2-.67.79-2.51-2.12c-.85-.72-1.63-.84-2.18-.19-.39.46-.35 1.1-.07 1.57.08.13.2.28.35.4l2.74 2.31-.67.79-2.66-2.24c-.71-.6-1.48-.72-2-.1-.42.5-.33 1.21-.04 1.68.08.15.2.28.34.4l2.68 2.26-.67.79-3.23-2.73z"/></g><g><path d="M198.68 42.38h1.04v3.9h.04c.22-.31.43-.6.64-.86l2.47-3.03h1.3l-2.93 3.43 3.15 4.65h-1.23l-2.66-3.97-.77.89v3.08h-1.04v-8.09zM208.55 50.46l-.08-.73h-.04c-.32.46-.95.86-1.77.86-1.18 0-1.77-.83-1.77-1.67 0-1.4 1.25-2.17 3.49-2.16v-.12c0-.48-.13-1.34-1.32-1.34-.54 0-1.1.17-1.51.43l-.24-.7c.48-.31 1.18-.52 1.91-.52 1.77 0 2.21 1.21 2.21 2.37v2.17c0 .5.02 1 .1 1.39h-.98zm-.15-2.96c-1.15-.02-2.46.18-2.46 1.31 0 .68.46 1.01 1 1.01.76 0 1.24-.48 1.4-.97.04-.11.06-.23.06-.34V47.5zM210.98 49.38c.31.2.86.42 1.39.42.77 0 1.13-.38 1.13-.86 0-.5-.3-.78-1.08-1.07-1.04-.37-1.54-.95-1.54-1.64 0-.94.76-1.7 2-1.7.59 0 1.1.17 1.43.36l-.26.77c-.23-.14-.65-.34-1.19-.34-.62 0-.97.36-.97.79 0 .48.35.7 1.1.98 1.01.38 1.52.89 1.52 1.75 0 1.02-.79 1.74-2.17 1.74-.64 0-1.22-.16-1.63-.4l.27-.8zM215.87 41.95h1.06v3.62h.02c.17-.3.43-.56.76-.74.31-.18.68-.3 1.08-.3.78 0 2.03.48 2.03 2.48v3.45h-1.06v-3.33c0-.94-.35-1.73-1.34-1.73-.68 0-1.22.48-1.42 1.06-.06.14-.07.3-.07.5v3.5h-1.06v-8.51zM222.53 46.23c0-.6-.01-1.09-.05-1.57h.92l.05.94h.04c.32-.55.86-1.07 1.82-1.07.79 0 1.39.48 1.64 1.16h.02c.18-.32.41-.58.65-.76.35-.26.73-.41 1.28-.41.77 0 1.91.5 1.91 2.52v3.42h-1.03v-3.29c0-1.12-.41-1.79-1.26-1.79-.6 0-1.07.44-1.25.96-.05.14-.08.34-.08.53v3.59h-1.03v-3.48c0-.92-.41-1.6-1.21-1.6-.66 0-1.14.53-1.31 1.06-.06.16-.08.34-.08.52v3.5h-1.03v-4.23zM233.72 43.02c.01.36-.25.65-.67.65-.37 0-.64-.29-.64-.65 0-.37.28-.66.66-.66.4 0 .65.29.65.66zm-1.18 7.44v-5.8h1.06v5.8h-1.06zM235.35 46.47c0-.68-.01-1.27-.05-1.81h.92l.04 1.14h.05c.26-.78.9-1.27 1.61-1.27.12 0 .2.01.3.04v1c-.11-.02-.22-.04-.36-.04-.74 0-1.27.56-1.42 1.36-.02.14-.05.31-.05.49v3.09h-1.04v-4z"/></g><g><path d="M423.16 260.09l-1.21 5.79 6.7 1.4 1.21-5.79 1.81.38-2.9 13.85-1.81-.38 1.36-6.49-6.7-1.4-1.36 6.49-1.79-.37 2.9-13.85 1.79.37zM436.17 277.26l2.08-9.95 1.81.38-2.08 9.95-1.81-.38zm4.68-12.32c-.11.62-.66 1.02-1.38.87-.64-.13-.99-.72-.86-1.34.13-.64.71-1.03 1.37-.89.68.14 1 .73.87 1.36zM455.99 271.03c-.19.71-.4 1.5-.65 2.71l-1.21 5.78c-.48 2.28-1.22 3.58-2.37 4.25-1.16.7-2.61.7-3.87.43-1.19-.25-2.45-.81-3.14-1.51l.74-1.28c.57.55 1.52 1.13 2.76 1.39 1.85.39 3.41-.3 3.93-2.8l.23-1.11-.04-.01c-.75.81-1.97 1.33-3.51 1-2.47-.52-3.79-2.98-3.22-5.74.7-3.37 3.3-4.82 5.58-4.34 1.73.36 2.48 1.46 2.74 2.38l.04.01.4-1.48 1.59.32zm-2.69 3.53c.06-.31.1-.58.07-.84-.11-1.12-.81-2.17-2.13-2.44-1.73-.36-3.26.84-3.75 3.14-.41 1.95.24 3.78 2.19 4.19 1.11.23 2.26-.26 2.89-1.33.17-.29.28-.63.35-.94l.38-1.78zM464.24 267.91l1.81.38-1.3 6.21.04.01c.4-.45.94-.81 1.56-1 .6-.2 1.28-.27 1.96-.13 1.34.28 3.3 1.55 2.58 4.98l-1.24 5.92-1.81-.38 1.2-5.71c.33-1.6.02-3.08-1.68-3.44-1.17-.24-2.27.38-2.8 1.3-.15.23-.23.49-.3.84l-1.26 6-1.81-.38 3.05-14.6zM490.41 274.15l-1.21 5.79 6.7 1.4 1.21-5.79 1.81.38-2.9 13.85-1.81-.38 1.36-6.49-6.7-1.4-1.36 6.49-1.79-.37 2.9-13.85 1.79.37zM503.43 291.33l2.08-9.95 1.81.38-2.08 9.95-1.81-.38zm4.68-12.32c-.11.62-.66 1.02-1.38.87-.64-.13-.99-.72-.86-1.34.13-.64.71-1.03 1.37-.89.67.14 1 .72.87 1.36zM514.11 286c.21-1.03.37-1.88.48-2.71l1.58.33-.25 1.62.06.01c.75-.83 1.86-1.52 3.51-1.18 1.36.28 2.21 1.32 2.4 2.58l.04.01c.42-.49.91-.84 1.38-1.06.69-.33 1.4-.44 2.35-.24 1.32.27 3.09 1.55 2.36 5l-1.22 5.86-1.77-.37 1.18-5.63c.4-1.91-.06-3.21-1.52-3.51-1.03-.21-1.99.38-2.48 1.2-.13.23-.26.55-.33.87l-1.29 6.15-1.77-.37 1.25-5.96c.33-1.58-.13-2.88-1.5-3.17-1.13-.24-2.14.5-2.62 1.34-.16.25-.26.54-.33.85l-1.25 6-1.77-.37 1.51-7.25zM539.6 298.9l.12-1.28-.06-.01c-.72.67-1.93 1.14-3.35.84-2.01-.42-2.75-2.05-2.44-3.49.5-2.4 2.92-3.27 6.75-2.45l.04-.21c.17-.82.25-2.35-1.78-2.78-.92-.19-1.95-.11-2.74.2l-.16-1.28c.93-.36 2.2-.46 3.45-.2 3.04.64 3.35 2.87 2.93 4.86l-.78 3.72c-.18.86-.32 1.71-.33 2.42l-1.65-.34zm.8-5.13c-1.96-.45-4.28-.57-4.68 1.36-.25 1.17.42 1.89 1.34 2.08 1.29.27 2.29-.38 2.75-1.16.1-.17.18-.37.22-.55l.37-1.73zM551.41 286.14l1.81.38-3.05 14.59-1.81-.38 3.05-14.59zM563.08 303.81l.12-1.28-.06-.01c-.72.66-1.93 1.14-3.35.84-2.01-.42-2.75-2.05-2.44-3.49.5-2.4 2.92-3.27 6.75-2.45l.04-.21c.17-.82.25-2.35-1.78-2.77-.92-.19-1.95-.11-2.74.2l-.16-1.28c.93-.36 2.2-.46 3.45-.2 3.04.64 3.35 2.87 2.93 4.86l-.78 3.72c-.18.86-.32 1.72-.33 2.42l-1.65-.35zm.79-5.13c-1.96-.45-4.28-.57-4.68 1.36-.25 1.17.42 1.89 1.34 2.08 1.29.27 2.29-.38 2.75-1.16.1-.17.18-.37.22-.55l.37-1.73zM574.57 295.83l.95 6.33c.09.71.17 1.54.21 2.17l.04.01c.31-.56.67-1.27 1.07-1.94l3.19-5.42 1.91.4-4.2 6.52c-2.01 3.14-3.26 4.7-4.71 5.51-1.05.6-2 .72-2.46.71l-.13-1.61c.48-.05 1.14-.21 1.77-.55.58-.29 1.34-.86 1.94-1.7.12-.17.21-.3.23-.4.02-.1.01-.26-.03-.5l-1.76-9.94 1.98.41zM591.38 309.73l.12-1.28-.06-.01c-.72.66-1.93 1.14-3.35.84-2.01-.42-2.75-2.05-2.44-3.49.5-2.4 2.92-3.27 6.75-2.45l.04-.21c.17-.82.25-2.35-1.78-2.78-.92-.19-1.95-.11-2.75.2l-.16-1.28c.93-.36 2.2-.46 3.45-.2 3.04.64 3.35 2.87 2.93 4.86l-.78 3.72c-.18.86-.32 1.71-.33 2.42l-1.64-.34zm.79-5.13c-1.96-.45-4.28-.57-4.68 1.36-.25 1.17.42 1.89 1.34 2.08 1.29.27 2.29-.38 2.75-1.16.1-.17.18-.37.22-.55l.37-1.73zM600.28 309.66c.46.46 1.33 1.03 2.23 1.22 1.32.28 2.07-.25 2.24-1.08.18-.86-.23-1.44-1.47-2.21-1.65-1.01-2.29-2.17-2.04-3.37.33-1.6 1.91-2.65 4.04-2.2 1.01.21 1.83.68 2.32 1.13l-.73 1.22c-.34-.33-.99-.81-1.91-1-1.07-.22-1.79.27-1.95 1.01-.17.82.35 1.32 1.54 2.08 1.59 1.02 2.29 2.07 1.98 3.54-.37 1.75-1.98 2.7-4.34 2.2-1.09-.23-2.04-.71-2.65-1.26l.74-1.28z"/></g></g><g id="three_detailed__boxes"><path d="M786 192.99c-.38.19-1.15.38-2.13.38-2.28 0-3.99-1.44-3.99-4.09 0-2.53 1.72-4.25 4.22-4.25 1.01 0 1.64.22 1.92.36l-.25.85c-.4-.19-.96-.34-1.63-.34-1.89 0-3.15 1.21-3.15 3.33 0 1.98 1.14 3.25 3.11 3.25.64 0 1.28-.13 1.7-.34l.2.85zM787.28 184.74h1.06v3.62h.02c.17-.3.43-.56.76-.74.31-.18.68-.3 1.08-.3.78 0 2.03.48 2.03 2.48v3.45h-1.06v-3.33c0-.94-.35-1.73-1.34-1.73-.68 0-1.22.48-1.42 1.06-.06.14-.07.3-.07.5v3.5h-1.06v-8.51zM795.11 185.82c.01.36-.25.65-.67.65-.37 0-.64-.29-.64-.65 0-.37.28-.66.66-.66.4 0 .65.29.65.66zm-1.17 7.44v-5.8H795v5.8h-1.06zM796.74 189.26c0-.68-.01-1.27-.05-1.81h.92l.04 1.14h.05c.26-.78.9-1.27 1.61-1.27.12 0 .2.01.3.04v1c-.11-.02-.22-.04-.36-.04-.74 0-1.27.56-1.42 1.36-.02.14-.05.31-.05.49v3.09h-1.04v-4zM805.8 190.31c0 2.15-1.49 3.08-2.89 3.08-1.57 0-2.78-1.15-2.78-2.99 0-1.94 1.27-3.08 2.88-3.08 1.66 0 2.79 1.21 2.79 2.99zm-4.61.06c0 1.27.73 2.23 1.76 2.23 1.01 0 1.76-.95 1.76-2.25 0-.98-.49-2.23-1.74-2.23-1.24-.01-1.78 1.14-1.78 2.25zM811.99 191.67c0 .6.01 1.13.05 1.58h-.94l-.06-.95h-.02a2.19 2.19 0 0 1-1.92 1.08c-.91 0-2-.5-2-2.54v-3.39h1.06v3.21c0 1.1.34 1.85 1.3 1.85.71 0 1.2-.49 1.39-.96.06-.16.1-.35.1-.54v-3.56h1.06v4.22zM813.09 192.65l2.63-3.42c.25-.31.49-.59.76-.9v-.02h-3.14v-.85h4.43l-.01.66-2.59 3.37c-.24.32-.48.61-.74.91v.02h3.39v.84h-4.71v-.61zM822.01 190.55c.02 1.43.93 2.01 1.99 2.01.76 0 1.21-.13 1.61-.3l.18.76c-.37.17-1.01.36-1.93.36-1.79 0-2.85-1.18-2.85-2.93 0-1.75 1.03-3.13 2.72-3.13 1.89 0 2.4 1.67 2.4 2.73 0 .22-.02.38-.04.49h-4.08zm3.1-.76c.01-.67-.28-1.71-1.46-1.71-1.07 0-1.54.98-1.62 1.71h3.08zM828.71 185.79v1.67h1.51v.8h-1.51v3.13c0 .72.2 1.13.79 1.13.28 0 .48-.04.61-.07l.05.79c-.2.08-.53.14-.94.14-.49 0-.89-.16-1.14-.44-.3-.31-.41-.83-.41-1.51v-3.17h-.9v-.8h.9v-1.39l1.04-.28zM837.17 193.26l-.08-.73h-.04c-.32.46-.95.86-1.77.86-1.18 0-1.78-.83-1.78-1.67 0-1.4 1.25-2.17 3.49-2.16v-.12c0-.48-.13-1.34-1.32-1.34-.54 0-1.1.17-1.51.43l-.24-.7c.48-.31 1.17-.52 1.91-.52 1.77 0 2.21 1.21 2.21 2.37v2.17c0 .5.02 1 .1 1.39h-.97zm-.16-2.96c-1.15-.02-2.46.18-2.46 1.31 0 .68.46 1.01 1 1.01.76 0 1.24-.48 1.4-.97.04-.11.06-.23.06-.34v-1.01zM839.74 184.74h1.06v8.52h-1.06v-8.52zM842.2 192.63c0-.44.3-.76.72-.76s.71.31.71.76c0 .43-.28.76-.72.76-.42 0-.71-.32-.71-.76zM847.14 193.26v-.65l.83-.8c1.99-1.9 2.89-2.9 2.9-4.08 0-.79-.38-1.52-1.55-1.52-.71 0-1.29.36-1.66.66l-.34-.74c.54-.46 1.31-.79 2.21-.79 1.68 0 2.39 1.15 2.39 2.27 0 1.44-1.04 2.6-2.69 4.19l-.62.58v.02h3.5v.88h-4.97zM858.48 189.28c0 2.65-.98 4.11-2.71 4.11-1.52 0-2.55-1.43-2.58-4.01 0-2.61 1.13-4.05 2.71-4.05 1.64 0 2.58 1.46 2.58 3.95zm-4.23.12c0 2.03.62 3.18 1.58 3.18 1.08 0 1.59-1.26 1.59-3.25 0-1.92-.49-3.18-1.58-3.18-.92 0-1.59 1.12-1.59 3.25zM861.75 186.45h-.02l-1.36.73-.2-.8 1.7-.91h.9v7.8h-1.02v-6.82zM865.61 193.26v-.65l.83-.8c1.99-1.9 2.89-2.9 2.9-4.08 0-.79-.38-1.52-1.55-1.52-.71 0-1.3.36-1.66.66l-.34-.74c.54-.46 1.31-.79 2.21-.79 1.68 0 2.39 1.15 2.39 2.27 0 1.44-1.04 2.6-2.69 4.19l-.62.58v.02h3.5v.88h-4.97z"/></g><g id="flags"><a xlink:href="eastern-india-geologic-maps#key-map"><path id="map-5" class="hoverthing_x0020_2" d="M328.34 225.67h-1.52c-4.68-.01-8.49 3.77-8.5 8.46v.73a8.378 8.378 0 0 0 8.36 8.4l15.8.04.05-17.59-14.19-.04"/></a><a xlink:href="western-india-geologic-maps#key-map"><path id="west" class="hoverthing_x0020_2" d="M101.34 143.67h-1.52c-4.68-.01-8.49 3.77-8.5 8.46v.73a8.378 8.378 0 0 0 8.36 8.4l15.8.04.05-17.59-14.19-.04"/></a><a xlink:href="kashmir-geologic-maps#key-map"><path id="map-1" d="M209.87 59.58l1.52.01c4.68.02 8.46 3.84 8.44 8.52v.73c-.02 4.63-3.79 8.36-8.42 8.34l-15.8-.08.09-17.59 14.17.07" opacity=".8" fill="#f05a28"/></a></g><g id="blowups"><path id="peshawar" class="st10" d="M885.17 443.11H362.15c-9.9 0-18-8.1-18-18V218.6c0-9.9 8.1-18 18-18h523.02c9.9 0 18 8.1 18 18v206.51c0 9.9-8.1 18-18 18z"/><path id="peshawar_1_" class="st10" d="M257.17 235.11H133.15c-9.9 0-18-8.1-18-18V119.6c0-9.9 8.1-18 18-18h124.02c9.9 0 18 8.1 18 18v97.51c0 9.9-8.1 18-18 18z"/><path id="kashmir" class="st10" d="M177 96h-38c-9.9 0-18-8.1-18-18V55c0-9.9 8.1-18 18-18h38c9.9 0 18 8.1 18 18v23c0 9.9-8.1 18-18 18z"/></g><g id="box"><path class="st8" d="M77 30h835v438H77z"/></g></svg>