<?xml version="1.0" encoding="utf-8"?>
<!-- Generator: Adobe Illustrator 23.0.0, SVG Export Plug-In . SVG Version: 6.00 Build 0)  -->
<svg version="1.1" xmlns="http://www.w3.org/2000/svg" xmlns:xlink="http://www.w3.org/1999/xlink" x="0px" y="0px"
	 viewBox="0 0 1647.16 1899.19" style="enable-background:new 0 0 1647.16 1899.19;" xml:space="preserve">
<style type="text/css">
	.st0{fill:none;stroke:#231F20;stroke-width:0.3;}
	.st1{display:none;}
	.st2{display:inline;fill:#F4DAB9;}
	.st3{display:inline;fill:none;stroke:#8BC53F;stroke-miterlimit:10;}
	.st4{display:inline;opacity:0.35;fill:#00A14B;}
	.st5{display:inline;opacity:0.35;}
	.st6{fill:#00A14B;}
	.st7{fill:#F9EC31;}
	.st8{display:inline;}
	.st9{fill:#EC1C24;}
	.st10{display:none;fill:none;stroke:#26A9E0;stroke-miterlimit:10;}
	.st11{display:inline;fill:none;stroke:#26A9E0;stroke-miterlimit:10;}
	.st12{display:none;fill:none;stroke:#26A9E0;stroke-linejoin:round;stroke-miterlimit:10;}
	.st13{fill:#26A9E0;}
	.st14{opacity:0.6;fill:#26A9E0;}
	.st15{fill:#FFFFFF;stroke:#231F20;stroke-miterlimit:10;}
	.st16{stroke:#231F20;stroke-miterlimit:10;}
</style>
<symbol  id="Deleted_Symbol" viewBox="-30.1 -12.21 60.2 24.42">
	<line class="st0" x1="30.01" y1="6.21" x2="28.01" y2="4.71"/>
	<line class="st0" x1="16.84" y1="-4.29" x2="12.59" y2="-3.54"/>
	<line class="st0" x1="26.34" y1="1.13" x2="23.34" y2="1.13"/>
	<line class="st0" x1="21.06" y1="-7.38" x2="22.17" y2="-4.42"/>
	<line class="st0" x1="4.58" y1="9.57" x2="2.93" y2="12.13"/>
	<line class="st0" x1="-9.87" y1="-10.84" x2="-8.01" y2="-8.16"/>
	<line class="st0" x1="18.76" y1="5.8" x2="16.76" y2="2.55"/>
	<line class="st0" x1="-29.99" y1="-1.12" x2="-27.74" y2="1.38"/>
	<line class="st0" x1="-20.49" y1="-2.29" x2="-16.49" y2="0.21"/>
	<line class="st0" x1="-21.82" y1="-5.95" x2="-23.82" y2="-4.7"/>
	<line class="st0" x1="-7.12" y1="4.84" x2="-9.87" y2="7.09"/>
	<line class="st0" x1="5.09" y1="-4.87" x2="3.09" y2="-3.62"/>
	<line class="st0" x1="-6.32" y1="-5.47" x2="-3.27" y2="-5.6"/>
	<line class="st0" x1="-4.07" y1="-0.26" x2="-1.68" y2="-2.08"/>
	<line class="st0" x1="3.07" y1="3.73" x2="4.19" y2="0.67"/>
	<line class="st0" x1="-2.41" y1="8.46" x2="-5.66" y2="9.46"/>
	<line class="st0" x1="11.97" y1="2.09" x2="9.22" y2="3.84"/>
	<line class="st0" x1="11.84" y1="7.46" x2="9.84" y2="5.96"/>
	<line class="st0" x1="-20.24" y1="6.71" x2="-19.74" y2="3.46"/>
	<line class="st0" x1="-12.24" y1="0.21" x2="-8.74" y2="0.96"/>
	<line class="st0" x1="0.34" y1="-12.21" x2="0.45" y2="-9.21"/>
	<line class="st0" x1="-15.7" y1="-7.61" x2="-17.12" y2="-5.56"/>
</symbol>
<g id="base-K_Dovac">
</g>
<g id="orng_brwn" class="st1">
	<polygon class="st2" points="416.28,949.27 437.78,953.77 478.28,946.27 516.78,938.77 532.28,940.27 545.78,935.77 554.78,927.77 
		590.62,899.6 593.28,885.27 623.28,853.77 641.28,825.27 651.28,793.77 668.78,764.77 675.78,738.27 687.28,703.77 703.95,658.27 
		710.28,618.27 693.95,588.27 683.28,630.27 676.78,650.77 678.78,657.77 670.78,687.27 665.78,717.77 650.56,739.1 642.78,759.27 
		634.44,761.1 627.28,772.27 618.28,795.77 619.28,805.77 605.78,825.27 600.62,842.93 580.28,864.77 534.78,901.27 520.78,897.77 
		508.87,903.46 499.78,891.77 485.78,887.77 496.28,901.27 494.62,910.27 469.78,929.27 446.78,933.27 445.78,921.77 437.28,921.77 
			"/>
	<polygon class="st2" points="738.28,605.27 730.78,609.77 711.78,570.27 701.78,505.77 704.78,494.27 713.28,448.77 742.78,442.77 
		761.28,448.77 738.78,462.27 726.78,478.77 722.28,499.77 721.28,519.77 729.28,557.77 744.78,580.27 745.78,589.77 	"/>
	<polygon class="st2" points="404.28,964.6 353.95,995.93 332.78,1008.27 307.78,1027.77 296.62,1038.27 287.28,1051.77 
		281.28,1095.6 287.95,1096.6 293.28,1101.27 295.78,1114.27 292.95,1122.6 285.28,1127.6 290.78,1136.27 308.78,1120.77 
		316.62,1116.27 334.28,1110.27 347.78,1084.27 347.95,1080.6 339.28,1077.6 342.28,1074.27 363.28,1053.77 368.78,1052.77 
		386.62,1034.27 397.28,1031.93 400.78,1026.27 401.78,1009.77 424.28,1006.27 433.78,997.27 474.28,987.27 492.62,973.6 
		491.95,970.6 464.78,980.27 450.28,982.27 431.95,989.93 424.78,990.77 423.78,984.77 	"/>
	<path class="st2" d="M289.53,1117.27c0,4.69-3.26,8-5.75,8c-2.49,0-6-3.81-6-8.5c0-4.69,3.51-8.5,6-8.5
		C286.27,1108.27,289.53,1112.57,289.53,1117.27z"/>
	<path class="st2" d="M268.78,1091.27c0,0-8.75,11,2.25,22s2.25-1.5,2.25-1.5l-1.25-16.75L268.78,1091.27z"/>
	<path class="st2" d="M295.78,1138.52c3,2.75,5,2.25,9.5,2.75c7.18,0,12-9.5,12-13.5c0-4-6.25-4.75-11.5,1.75
		C298.6,1129.52,295.78,1134.51,295.78,1138.52z"/>
	<polygon class="st2" points="-16.72,1224.77 38.28,1223.77 59.78,1225.77 98.28,1216.27 130.78,1203.77 142.28,1195.27 
		201.28,1174.77 226.78,1164.77 229.78,1150.27 238.28,1140.27 244.28,1118.27 236.78,1089.77 210.28,1100.77 208.78,1108.27 
		220.28,1115.27 198.78,1143.27 183.78,1159.27 132.78,1181.27 114.78,1194.27 77.78,1198.77 26.28,1196.77 -9.22,1200.27 
		-9.22,1189.27 -19.22,1172.77 	"/>
	<polygon class="st2" points="63.78,1096.77 94.28,1102.77 118.28,1089.77 133.28,1069.77 138.78,1042.77 133.28,1023.27 
		119.62,1005.93 114.78,1002.77 127.28,1035.27 112.28,1072.27 94.78,1088.27 70.28,1088.27 46.62,1080.6 32.95,1079.6 
		24.62,1083.93 11.95,1095.93 5.62,1106.93 8.62,1131.93 1.62,1150.6 -7.72,1150.27 -16.38,1153.93 -16.05,1157.27 4.62,1156.6 
		18.62,1147.6 16.28,1129.27 19.95,1116.27 21.28,1099.93 30.28,1088.93 41.95,1090.6 	"/>
</g>
<g id="green_x2B_blue" class="st1">
	<path class="st3" d="M605.95,740.27"/>
	<polygon class="st4" points="1162.78,2319.72 279.41,2319.29 276.78,1809.72 302.77,1822.76 320.78,1853.72 344.78,1866.72 
		367.78,1852.72 377.78,1868.72 391.78,1878.72 401.78,1895.72 416.78,1901.72 433.78,1889.72 447.78,1896.72 444.78,1914.72 
		464.78,1932.72 477.78,1927.72 482.78,1938.72 538.78,1941.72 555.78,1955.72 579.78,1990.72 585.78,2014.72 650.78,2049.72 
		719.78,2065.72 806.78,2096.72 838.78,2119.72 872.78,2130.72 906.78,2148.72 934.78,2175.72 964.78,2177.72 1000.78,2204.72 
		1010.98,2195.23 1016.78,2181.72 1025.78,2181.72 1010.78,2214.72 1100.78,2255.72 1097.78,2279.72 1116.78,2284.72 
		1117.78,2254.72 1149.78,2257.72 1154.78,2249.72 	"/>
	<g class="st5">
		<g>
			<g>
				<rect x="711.4" y="1870.81" class="st6" width="694.47" height="204.02"/>
			</g>
		</g>
	</g>
</g>
<g id="yellow-C">
	<polygon class="st7" points="1028.72,1052.58 1030.42,1061.57 1043.72,1054.52 1069.3,1030.1 1201.78,890.94 1201.09,882.6 
		1177.17,904.36 1112.4,967.93 1053.29,1026.49 	"/>
	<polygon class="st7" points="796.5,1084.11 803.2,1092.75 806.73,1091.5 826.42,1071.33 925.37,959.3 923.99,947.3 904.72,964.04 
		856.24,1019.16 811.78,1069.72 	"/>
	<polygon class="st7" points="950.63,850.2 966.29,848.14 1021.72,784.6 1019.78,774.51 965.55,827.15 	"/>
	<polygon class="st7" points="805.76,974.74 822.75,971.68 832.6,959.52 853.18,936.12 849.92,927.91 834.64,941.97 818.7,958.36 	
		"/>
	<polygon class="st7" points="913.54,1095.67 928.6,1092.9 943.14,1078.23 964.39,1055.48 965.17,1040.99 954.04,1049.52 
		932.81,1078.94 	"/>
	<polygon class="st7" points="998.16,1173.03 1007.49,1170.99 1032.39,1145.57 1067.92,1106.77 1064.89,1099.45 1055.26,1108.48 
		1011.75,1150.98 	"/>
	<polygon class="st7" points="930.27,1111.28 936.28,1116.26 946.9,1101.22 968.15,1078.8 969.94,1067.97 957.15,1078.85 
		940.23,1101.57 	"/>
	<polygon class="st7" points="769.62,1117.88 759.33,1129.58 754.7,1138.93 752.74,1148.6 775.32,1125.85 777.31,1122.18 	"/>
	<polygon class="st7" points="722.83,1173.38 704.88,1188.12 688.95,1205.84 674.35,1225.23 666.72,1235.26 679.07,1237.21 
		703.63,1208.79 728.52,1179.03 	"/>
	<polygon class="st7" points="747.64,1211.96 731.69,1226.35 707.11,1248.11 684.53,1273.53 667.62,1296.59 678.3,1299.88 
		714.93,1259.77 749.01,1222.95 	"/>
	<polygon class="st7" points="926.28,1204.63 910.33,1219.02 887.76,1244.1 865.85,1269.85 848.95,1296.25 867.62,1295.85 
		895.8,1253.74 927.65,1215.62 	"/>
	<polygon class="st7" points="889.13,1164.77 884.81,1167.11 859.23,1191.21 837.65,1215.96 822.07,1238.68 841.04,1231.28 
		867.59,1199.85 897.46,1164.07 	"/>
	<polygon class="st7" points="993.1,1245.71 976.49,1260.11 953.9,1282.86 931.33,1306.94 918.39,1324.99 930.41,1329.28 
		961.94,1292.5 988.5,1263.06 	"/>
	<polygon class="st7" points="957.89,1368.51 943.25,1377.23 923.35,1401.97 890.81,1438.09 869.9,1462.51 890.92,1466.43 
		925.11,1427.97 957.94,1382.18 	"/>
	<polygon class="st7" points="760.57,1282.91 753.24,1283.6 738.65,1304.99 726.37,1319.04 735.38,1322.34 761.6,1291.57 	"/>
	<polygon class="st7" points="1007.51,1085.99 994.88,1098.04 977.29,1118.77 974.98,1123.78 984.97,1120.74 1007.21,1096.99 	"/>
	<polygon class="st7" points="1007.6,1111.32 995.3,1121.37 980.72,1142.76 978.75,1150.77 985.07,1148.08 1006.65,1123.66 	"/>
	<polygon class="st7" points="1129.71,1141.87 1110.44,1157.94 1086.87,1184.36 1080.25,1196.06 1089.57,1193.69 1133.75,1150.19 	
		"/>
	<polygon class="st7" points="1149.78,1158.13 1123.18,1177.9 1103.25,1197.64 1090.32,1214.02 1100.32,1214.31 1150.13,1163.46 	
		"/>
	<polygon class="st7" points="1207.82,1081.58 1184.9,1103 1164.98,1122.74 1150.39,1142.79 1160.39,1143.09 1211.85,1088.57 	"/>
	<polygon class="st7" points="1291.15,1079.94 1264.91,1103.37 1243.65,1125.12 1215.1,1156.22 1229.45,1158.83 1292.17,1085.93 	
		"/>
	<polygon class="st7" points="1215.46,1162.22 1190.21,1186.65 1169.3,1209.39 1116.87,1272.92 1128.87,1272.21 1187.63,1209.99 
		1217.82,1170.21 	"/>
	<polygon class="st7" points="1251.68,1311.42 1221.11,1338.87 1191.23,1369.64 1143.4,1417.16 1160.06,1413.76 1216.18,1355.89 
		1257.35,1313.07 	"/>
	<polygon class="st7" points="1248.93,1199.76 1221.7,1226.53 1179.54,1274.35 1130.44,1336.2 1135.12,1340.85 1160.34,1309.09 
		1205.83,1262.92 1249.3,1210.09 	"/>
	<polygon class="st7" points="1266.5,1262.03 1237.59,1286.47 1192.43,1333.97 1125.01,1400.89 1125.37,1408.22 1150.32,1394.46 
		1219.72,1322.54 1264.87,1274.37 	"/>
	<polygon class="st7" points="1237.46,984.47 1214.54,1005.89 1188.3,1031.32 1175.37,1047.7 1185.37,1048 1240.84,996.79 	"/>
	<polygon class="st7" points="1211.39,1054.9 1175.51,1087.37 1155.93,1110.77 1140.01,1132.83 1157.99,1125.43 1210.76,1064.9 	"/>
	<polygon class="st7" points="1146.55,1188.48 1124.3,1208.56 1103.04,1228.97 1094.42,1243.34 1105.08,1240.63 1146.91,1193.81 	
		"/>
	<polygon class="st7" points="1080.74,1149.39 1068.1,1155.1 1024.59,1199.26 1034.59,1199.56 1053.87,1184.49 1079.44,1157.39 	"/>
	<polygon class="st7" points="1304.27,1289.89 1218.91,1374.54 1206.31,1392.59 1218.64,1391.54 1287.38,1320.29 1306.97,1299.21 	
		"/>
	<polygon class="st7" points="1314.33,1306.85 1296.39,1322.92 1275.47,1345.67 1254.89,1367.41 1246.93,1379.1 1260.26,1378.72 
		1283.51,1355.64 1315.02,1314.18 	"/>
	<polygon class="st7" points="1282.78,1429.31 1291.06,1413.27 1302.66,1396.9 1358.75,1330.69 1361.8,1344.01 1310.01,1401.87 	"/>
	<polygon class="st7" points="1306.5,1441.88 1282.26,1468.97 1266.68,1492.7 1275.69,1493.33 1311.19,1450.2 	"/>
	<polygon class="st7" points="548.15,1260.7 566.74,1238.63 566.1,1247.3 558.82,1260.66 	"/>
	<polygon class="st7" points="583.57,1239.73 613.63,1209.45 613.52,1225.62 597.57,1238.18 	"/>
	<polygon class="st7" points="583.09,1244.74 579.14,1257.75 565.7,1273.8 552.73,1282.35 559.19,1270.82 	"/>
	<polygon class="st7" points="532.83,1307.42 532.89,1323.92 523.93,1334.46 503.45,1341.03 	"/>
	<polygon class="st7" points="630.37,1408.06 632.26,1423.55 614.83,1444.12 601.83,1443.17 	"/>
	<polygon class="st7" points="515.04,1363.99 556.89,1325.33 558.94,1337.83 529.04,1364.94 	"/>
	<polygon class="st7" points="589.24,1285.21 560.86,1317.32 571.37,1318.78 590.29,1297.71 	"/>
	<polygon class="st7" points="393.06,1504.44 440.84,1446.26 444.38,1456.25 439.42,1468.77 428.5,1489.31 416.05,1503.36 	"/>
	<polygon class="st7" points="612.95,1342.12 613.5,1353.62 591.55,1368.2 582.09,1379.74 575.65,1395.26 548.26,1424.87 
		532.26,1423.93 557.15,1395.33 581.05,1368.24 	"/>
	<polygon class="st7" points="638.41,1330.53 592.63,1388.7 604.12,1386.66 644.44,1338.51 	"/>
	<polygon class="st7" points="663.82,1439.27 637.9,1461.7 622.96,1477.76 596.74,1508.19 614.42,1512.12 644.66,1486.67 
		653.92,1468.64 665.89,1457.93 	"/>
	<polygon class="st7" points="497.95,1476.55 504.33,1487.86 484.06,1506.6 475.11,1519.3 467.82,1531.67 455.22,1549.38 
		439.89,1550.1 466.09,1512.67 	"/>
	<polygon class="st7" points="648.7,1677.99 655.55,1681.14 651.27,1694.99 628.87,1724.07 616.59,1738.45 597.51,1760.69 
		585.01,1760.23 614.86,1719.45 	"/>
	<polygon class="st7" points="663.91,1734.94 633.55,1772.05 632.07,1777.56 642.58,1778.52 666.95,1745.43 	"/>
	<path class="st7" d="M604.08,1644.66l-21.38,31.58l-13.44,15.05l-10.92,22.04l12.98-4.55l12.44-16.55c0,0,7.96-10.53,9.46-11.54
		c1.5-1.01,11.43-19.54,11.43-19.54L604.08,1644.66z"/>
	<path class="st7" d="M1027.21,1545.59l-19.92,20.57l-23.88,32.59l-15.93,18.56l-16.43,17.56l-9.94,16.54l-0.41,23l34.84-43.13
		c0,0,19.89-29.07,23.39-30.59s6.94-15.03,6.94-15.03l14.95-14.06l6.44-15.52L1027.21,1545.59z"/>
	<path class="st7" d="M1089.95,1608.36l-12.46,11.05l-31.36,36.62l-15.93,18.56l-16.43,17.56l-38.8,54.64l13.5-1.05l36.31-50.14
		c0,0,24.37-36.09,27.86-37.6c3.49-1.51,16.44-17.06,16.44-17.06l8.97-9.03l11.95-13.04L1089.95,1608.36z"/>
	<path class="st7" d="M1048.83,1576.51l-23.95,23.81l-25.33,34.87l-15.9,28.06l-25.41,25.09l-15.42,22.56l-1.11,19.72l41-49.87
		c0,0,18.99-31.25,23.38-33.09c4.39-1.84,24.91-25.09,24.91-25.09l10.92-15.81l8.02-18.67L1048.83,1576.51z"/>
	<path class="st7" d="M1197.62,1571.46l-22.2,29.08l-33.32,47.62l-25.89,29.1l-30.35,40.61l-25.86,37.1l13.01,3.95l44.78-58.67
		c0,0,23.69-39.52,28.92-41.77c5.23-2.25,26.31-30.44,26.31-30.44l13.92-21.05l12-21.36L1197.62,1571.46z"/>
	<polygon class="st7" points="987.82,1708.74 986.36,1721.24 962.5,1756.33 946.02,1761.89 964.91,1732.32 	"/>
	<polygon class="st7" points="1176.2,1542.04 1179.73,1551.02 1131.46,1610.7 1114.98,1616.26 1133.87,1586.69 	"/>
	<polygon class="st7" points="1214.45,1607.89 1216.99,1618.88 1184.66,1665 1143.83,1711.16 1130.33,1711.21 1172.11,1652.55 	"/>
	<path class="st7" d="M1108.67,1533.29l-11.9,27.54l-16.96,11.56c0,0,6.94-16.03,8.94-16.03S1108.67,1533.29,1108.67,1533.29z"/>
	<polygon class="st7" points="1115.2,1542.76 1105.24,1552.3 1096.78,1564.83 1080.35,1581.39 1092.84,1578.84 1111.78,1562.77 
		1116.23,1550.26 	"/>
	<polygon class="st7" points="1128.75,1555.21 1095.37,1588.34 1109.36,1585.28 1122.8,1569.73 1129.77,1561.71 	"/>
	<polygon class="st7" points="1097.08,1778.83 1111.57,1776.28 1220.55,1636.37 1220.51,1624.37 	"/>
	<polygon class="st7" points="1224.59,1647.86 1201.68,1671.94 1187.26,1692.49 1176.3,1704.54 1190.3,1702.48 1226.63,1658.35 	"/>
	<polygon class="st7" points="1220.76,1691.37 1226.28,1698.85 1182.5,1756.51 1166,1757.07 1202.34,1714.44 	"/>
	<polygon class="st7" points="1259.4,1731.23 1246.9,1729.77 1219.04,1766.88 1233.53,1765.82 	"/>
	<polygon class="st7" points="1403.08,1644.19 1424.17,1669.12 1326.07,1776.98 1305.5,1756.06 	"/>
	<polygon class="st7" points="1212.94,1606.9 1210.37,1586.91 1249.23,1550.76 1256.66,1530.74 1280.11,1517.65 1280.08,1509.65 
		1294.01,1489.6 1298.1,1515.58 1274.19,1539.67 1254.8,1567.24 1236.35,1581.81 	"/>
	<polygon class="st7" points="1200.7,1408.44 1200.25,1420.44 1168.36,1450.06 1156.86,1450.11 	"/>
	<g>
		<g>
			<path class="st7" d="M911.49,1146.12c2.67-2.62,4.35-5.78,6.97-8.36c2.3-2.26-1.24-5.8-3.54-3.54c-2.67,2.62-4.35,5.78-6.97,8.36
				C905.66,1144.85,909.19,1148.38,911.49,1146.12L911.49,1146.12z"/>
		</g>
	</g>
	<g>
		<g>
			<path class="st7" d="M1120.47,1323.81c6.63-7.01,16.43-9.87,18.21-20.54c0.52-3.15-4.29-4.5-4.82-1.33
				c-1.56,9.37-11.05,12.13-16.92,18.34C1114.72,1322.61,1118.25,1326.15,1120.47,1323.81L1120.47,1323.81z"/>
		</g>
	</g>
	<g>
		<g>
			<path class="st7" d="M1046.47,1468.73c2.48-4.82,6.06-8.73,10.7-11.54c2.75-1.66,0.24-5.99-2.52-4.32
				c-5.33,3.23-9.65,7.78-12.5,13.33C1040.68,1469.06,1045,1471.59,1046.47,1468.73L1046.47,1468.73z"/>
		</g>
	</g>
	<g>
		<g>
			<path class="st7" d="M932.09,1345.56c3.66-3.34,7.33-6.67,10.99-10.01c2.38-2.17-1.16-5.7-3.54-3.54
				c-3.66,3.34-7.33,6.67-10.99,10.01C926.17,1344.2,929.72,1347.73,932.09,1345.56L932.09,1345.56z"/>
		</g>
	</g>
	<g>
		<g>
			<path class="st7" d="M241.55,1632.55c2.47-2.15,4.66-4.1,5.92-7.19c1.46-3.6,3.62-7.42,4.59-11.17
				c2.17-8.44-3.29-18.75-4.2-27.19c-0.68-6.33-10.69-6.4-10,0c0.83,7.73,4.16,15.39,4.47,23.11c0.13,3.29-2.39,6.18-3.44,9.28
				c-1.03,3.05-1.93,3.94-4.41,6.1C229.62,1629.71,236.71,1636.76,241.55,1632.55L241.55,1632.55z"/>
		</g>
	</g>
	<g>
		<g>
			<path class="st7" d="M264.79,1562.97c3.2-2.74,7.3-4.04,10.83-6.26c3.9-2.45,6.65-5.65,7.94-10.12c1.78-6.2-7.86-8.84-9.64-2.66
				c-0.89,3.1-3.58,4.37-6.28,5.76c-3.54,1.83-6.87,3.61-9.92,6.21C252.82,1560.08,259.92,1567.13,264.79,1562.97L264.79,1562.97z"
				/>
		</g>
	</g>
</g>
<g id="red_1_" class="st1">
	<g class="st8">
		<g>
			<g>
				<path class="st9" d="M392.12,731.85c8.04,0,8.06-12.5,0-12.5C384.07,719.35,384.06,731.85,392.12,731.85L392.12,731.85z"/>
			</g>
		</g>
		<g>
			<g>
				<path class="st9" d="M199.78,686.52c8.04,0,8.06-12.5,0-12.5C191.74,674.02,191.73,686.52,199.78,686.52L199.78,686.52z"/>
			</g>
		</g>
		<g>
			<g>
				<path class="st9" d="M221.45,694.85c8.04,0,8.06-12.5,0-12.5C213.41,682.35,213.39,694.85,221.45,694.85L221.45,694.85z"/>
			</g>
		</g>
		<g>
			<g>
				<path class="st9" d="M218.45,671.35c8.04,0,8.06-12.5,0-12.5C210.41,658.85,210.39,671.35,218.45,671.35L218.45,671.35z"/>
			</g>
		</g>
		<g>
			<g>
				<path class="st9" d="M265.95,683.35c8.04,0,8.06-12.5,0-12.5C257.91,670.85,257.89,683.35,265.95,683.35L265.95,683.35z"/>
			</g>
		</g>
		<g>
			<g>
				<path class="st9" d="M292.95,692.35c8.04,0,8.06-12.5,0-12.5C284.91,679.85,284.89,692.35,292.95,692.35L292.95,692.35z"/>
			</g>
		</g>
		<g>
			<g>
				<path class="st9" d="M316.78,702.52c8.04,0,8.06-12.5,0-12.5C308.74,690.02,308.73,702.52,316.78,702.52L316.78,702.52z"/>
			</g>
		</g>
		<g>
			<g>
				<path class="st9" d="M344.28,713.52c8.04,0,8.06-12.5,0-12.5C336.24,701.02,336.23,713.52,344.28,713.52L344.28,713.52z"/>
			</g>
		</g>
		<g>
			<g>
				<path class="st9" d="M261.45,706.35c8.04,0,8.06-12.5,0-12.5C253.41,693.85,253.39,706.35,261.45,706.35L261.45,706.35z"/>
			</g>
		</g>
		<g>
			<g>
				<path class="st9" d="M282.95,713.85c8.04,0,8.06-12.5,0-12.5C274.91,701.35,274.89,713.85,282.95,713.85L282.95,713.85z"/>
			</g>
		</g>
		<g>
			<g>
				<path class="st9" d="M307.28,723.52c8.04,0,8.06-12.5,0-12.5C299.24,711.02,299.23,723.52,307.28,723.52L307.28,723.52z"/>
			</g>
		</g>
		<g>
			<g>
				<path class="st9" d="M368.62,722.85c8.04,0,8.06-12.5,0-12.5C360.57,710.35,360.56,722.85,368.62,722.85L368.62,722.85z"/>
			</g>
		</g>
	</g>
</g>
<g id="blue_river">
	<path class="st10" d="M1368.37,794.35c0,0-0.01,0.7,1,2.42c0.86,1.47,2.17,2.94,3.08,4.25c1.98,2.84,2.25,9.25,2.25,9.25l0.17,4.42
		l1.08,6.33l0.25,5.33"/>
	<g class="st1">
		<polyline class="st11" points="1351.53,714.39 1347.91,720.89 1344.66,724.65 1341.78,728.64 1340.53,733.52 1339.41,737.52 		"/>
		<path class="st11" d="M1369.53,787.14l-2.5-4.62l-0.62-5.38l-2.77-4.67l-1.73-3.45l-0.38-2.25c0,0,0-2.12,2-1.38
			s3.12,2.12,3.12,2.12s3.5,0.5,5.88-0.38c1.88-1.75,4.12-1.62,4.12-1.62l1.12-2.88"/>
	</g>
	<polyline class="st10" points="881.62,863.1 888.12,861.43 892.78,857.1 899.62,853.93 903.25,849.65 908.95,837.93 905.53,835.77 
			"/>
	<path class="st10" d="M1351.91,753.39l4.62,4.25c0,0,1,2.25,1.12,2.88s1.75,5.12,1.88,5.75s1.25,4.38,1.25,4.38l1.12,3
		c0,0,1.5,1.25,2,3.12s0.88,5.62,0.88,5.62l1.12,3.5l1.38,4l0.38,0.88"/>
	<polyline class="st12" points="876.78,811.77 877.12,814.77 878.28,815.27 879.12,817.77 878.28,819.6 878.62,821.6 877.95,824.77 
		876.45,826.1 	"/>
	<polyline class="st12" points="876.62,810.43 879.78,808.27 882.78,809.43 884.28,810.43 889.78,811.1 891.45,812.77 
		894.28,814.93 896.62,816.77 908.95,818.6 	"/>
	<path class="st12" d="M920.28,839.77l2.5-0.33l-1.5,1.5c0,0-0.5,1.5,1.5,1.5s2.67-1,2.67-1s2.33,0.17,3,1.33
		c0.67,1.17,0.67,3,0.67,3l2.83,1.5l2.83,1l3.5,1.83l2.5-2.67l1,0.83l-0.17,2.5l2.5,2l2.33,3.33"/>
	<line class="st13" x1="935.21" y1="1813.93" x2="940.7" y2="1812.91"/>
	<polygon class="st14" points="436.25,479.78 431.8,491.79 424.81,495.32 422.43,527.83 413.99,543.86 404.65,586.89 405.2,601.39 
		406.76,617.39 411.28,621.87 427.77,618.81 436.32,631.78 458.38,648.19 469.39,651.15 480.44,664.61 493.97,674.06 506.49,678.52 
		515.51,683.98 528.01,684.94 536.54,690.9 570.53,690.28 582.08,702.74 591.6,708.7 591.18,728.2 583.7,735.73 548.84,771.86 
		536.36,779.41 519.9,788.97 511.93,798 496.45,803.55 478.5,816.12 466,817.17 448.04,825.73 433.95,840.67 434.13,851.79 
		455.19,868.21 463.28,890.68 467.86,912.16 461.9,923.68 460.44,934.69 451.96,940.72 446.02,957.24 438.57,969.77 437.98,982.79 
		452.65,989.72 469.15,981.43 493.07,969.57 505.03,957.52 528.01,953.94 542.04,961.39 543.17,996.88 539.27,1022.4 542.3,1031.89 
		537.44,1069.9 533.1,1085.59 538.56,1101.4 552.62,1117.35 567.71,1141.29 573.28,1159.27 567.34,1177.79 563.42,1198.31 
		556.51,1221.33 562.55,1233.31 546.08,1242.37 539.53,1272.73 526.31,1303.45 517.83,1309.48 503.43,1335.53 487.01,1358.59 
		465.59,1377.67 459.3,1391.03 487.6,1380.26 497.09,1378.56 511.59,1379.5 517.31,1391.81 517.17,1399.48 523.39,1415.46 
		520.44,1428.8 520.16,1442.14 538.86,1450.4 548.55,1456.36 545.61,1474.38 536.99,1487.07 532.69,1496.76 522.73,1507.13 
		509.45,1519.84 494.53,1542.9 496.92,1558.56 509.97,1569.84 525.64,1572.45 543.03,1586.39 548.75,1602.03 543.11,1607.72 
		538.16,1621.74 520.9,1640.47 508.59,1647.51 490.92,1647.58 488.95,1655.92 501.33,1666.88 534.06,1685.09 544.09,1693.38 
		549.44,1697.36 552.51,1716.02 560.59,1736.99 582.7,1766.57 593.8,1793.53 583.13,1794.24 572.75,1780.61 570.04,1768.62 
		558.64,1751.33 554.26,1738.35 538.1,1696.07 509.71,1681.51 480.65,1662.95 473.94,1651.31 475.55,1637.97 517.19,1628.82 
		529.23,1613.03 533.75,1600.75 531.7,1589.1 521.34,1579.47 505.33,1577.86 492.96,1569.24 485.6,1560.93 482.9,1551.94 
		487.5,1534.93 499.79,1523.55 507.08,1510.52 532.31,1483.43 537.69,1471.74 538.23,1460.07 514.19,1451.49 509.82,1441.18 
		510.08,1420.84 509.21,1410.51 494.72,1398.18 484.66,1397.6 470.17,1401.66 446.17,1401.24 450.1,1380.73 466.97,1363.4 
		474.01,1358.14 479.44,1339.62 495.41,1331.06 502.37,1319.04 518.75,1285.97 536.74,1239.41 541.01,1221.89 547.98,1213.37 
		556.41,1194.33 560.27,1158.82 553.38,1142.55 549.68,1133.36 524.12,1117.95 516.58,1106.98 516.5,1083.98 522.94,1069.96 
		521.33,1040.46 528.76,1020.94 523.23,1006.44 509.28,992.56 487.01,989.72 467.67,997.16 439.22,1009.27 420.68,999.84 
		419.14,987.34 419.59,975.34 424.53,957.82 428.97,942.31 434.45,937.78 444.89,920.25 447.32,902.24 432.71,872.29 419.65,855.84 
		420.07,834.84 427.03,823.31 448.48,811.73 478.46,804.62 493.88,784.06 519.34,771.97 542.26,751.38 562.33,740.54 569.18,730.28 
		572.64,717.96 567.7,710.03 520.59,704.46 500.58,703.54 477.53,688.62 462.47,672.68 450.94,664.72 434.89,650.78 416.88,647.85 
		399.88,650.41 395.37,645.93 396.33,634.92 390.74,612.45 384.22,604.97 381.69,596.98 388.63,582.95 387.07,566.96 392.01,550.44 
		409.43,528.38 414.84,503.35 423.19,463.32 432.04,409.79 432.45,399.29 429.91,386.8 420.87,378.33 401.38,379.4 369.92,390.52 
		341.93,393.12 313.96,401.73 297.56,402.11 282.93,394.34 278.4,385.86 283.36,373.84 278.79,354.86 283.25,345.34 308.18,326.25 
		309.12,311.25 313.08,299.73 319.55,291.71 355.41,254.07 365.67,232.7 396.74,208.42 409.18,192.37 408.77,170.54 398.75,163.91 
		376.7,150.66 361.53,151.55 323.42,166.86 299.62,174.28 280.63,177.85 248.2,195.8 224.87,198.56 225.1,170.56 258.72,158.43 
		291.39,156.98 323.53,149.69 368.62,130.02 399.97,133.91 414.99,138.85 426.71,155.14 427.12,166.46 418.7,197.84 403.61,217.23 
		394.33,231.43 378.86,240.49 370.93,258.02 354.49,276.08 337.08,299.14 320.17,322.71 308.77,349.25 295.86,373.3 302.39,382.27 
		339.39,382.63 383.35,370.97 399.3,357.91 412.79,355.36 436.8,358.27 443.4,384.75 443.46,400.75 446.55,425.24 436.69,463.77 	
		"/>
	<polygon class="st14" points="784.29,1117.82 772.34,1131.87 769.39,1145.21 762.79,1163.57 753.13,1165.6 742.78,1160.98 
		718.02,1135.07 704.34,1134.41 687.09,1152.85 669.41,1150.58 648.72,1144.66 633.07,1149.38 593.18,1177.2 577.44,1204.42 
		559.02,1226.49 562.38,1233.65 572.02,1225.94 583.63,1208.73 606.52,1180.81 620.48,1168.76 640.11,1159.02 653.44,1157.97 
		673.46,1163.57 695.78,1161.48 703.75,1152.45 716.23,1147.91 737.15,1169 754.37,1184.77 767.68,1177.55 774.95,1161.86 
		784.39,1145.49 787.71,1139.97 790.91,1128.71 801.12,1118.17 818.83,1107.36 827.86,1114.58 821.93,1133.6 788.59,1177.22 
		783.13,1186.99 779.7,1204.76 793.98,1213.7 807,1219.4 814.5,1218.63 833.17,1198.06 838.65,1191.04 855.38,1187.47 
		863.63,1185.94 882.81,1168.12 901.51,1154.55 901.73,1145.55 895.48,1145.82 880.5,1152.63 875.53,1160.9 861.5,1176.97 
		854.85,1179.73 843.59,1177.27 826.89,1189.83 818.44,1202.36 804.45,1206.66 792.18,1200.96 799.85,1179.18 811.05,1164.39 
		824,1151.34 835.15,1126.05 834.07,1104.55 835.04,1095.3 824.52,1090.09 811.03,1092.64 	"/>
	<polygon class="st14" points="1100.51,1356.98 1093.57,1371.01 1084.18,1357.71 1076.46,1342.07 1070.06,1324.09 1074.26,1288.91 
		1065.84,1264.44 1038.1,1245.88 971.53,1226.79 952.5,1219.36 941.96,1207.4 946.34,1176.89 935.31,1167.93 904.26,1154.54 
		909.75,1151.35 941.79,1162.4 951.32,1169.37 953.9,1175.84 953.88,1186.86 952.93,1199.86 958.46,1207.34 974.46,1209.28 
		988,1217.73 1014.52,1223.63 1022.54,1230.6 1041.4,1236.87 1058.6,1244.47 1078.67,1263.4 1082.54,1273.38 1081.95,1295.38 
		1079.33,1307.73 1080.38,1320.39 1082.78,1326.02 1093.72,1323.67 1101.07,1328.31 1100.08,1331.32 1091.09,1333.35 
		1085.47,1346.04 1090.51,1356.35 	"/>
	<polygon class="st14" points="616.5,343.35 592.79,354.86 584.11,352.23 567.06,338.29 548.78,353.69 540.45,354.39 525.03,351.69 
		510.46,357.5 497.85,372.21 492.62,377.07 480.87,376.61 476.86,374.29 475.5,367.96 480.81,360.61 484.71,333.59 485.67,323.59 
		483.41,319.85 475.99,319.96 475.02,327.96 478.72,336.62 452.33,366.21 441.37,375.76 436.3,357.77 444.46,355.41 451.76,348.22 
		457.21,335.2 463.02,328.01 458.15,317.69 457.61,308.19 467.08,298.66 487.93,302.58 490.62,309.57 494.7,331.56 491.76,347.57 
		487.31,362.08 494.33,365.06 503.54,356.27 507.77,348.84 516.73,340.48 526.41,341.44 544.25,344.87 561.03,330.98 568.02,327.28 
		576.37,330.59 585.06,339.22 598.24,340.92 605.38,334.48 618.03,330.1 	"/>
</g>
<g id="circles">
	<g>
		<circle class="st15" cx="1120.3" cy="1340.04" r="8.24"/>
		<circle class="st15" cx="1112.84" cy="1264.6" r="8.24"/>
		<circle class="st15" cx="1090.81" cy="1257.35" r="8.24"/>
		<circle class="st15" cx="1091.39" cy="1232.68" r="8.24"/>
		<circle class="st15" cx="1021.82" cy="1214.44" r="8.24"/>
		<circle class="st15" cx="939.82" cy="1214.24" r="8.24"/>
		<circle class="st15" cx="935.74" cy="1193.76" r="8.24"/>
		<circle class="st15" cx="917.15" cy="1123.49" r="8.24"/>
		<circle class="st15" cx="965.17" cy="1174.15" r="8.24"/>
		<circle class="st15" cx="980.2" cy="1183.59" r="8.24"/>
		<circle class="st15" cx="790.54" cy="1098.39" r="8.24"/>
		<circle class="st15" cx="750.58" cy="1107.87" r="8.24"/>
		<circle class="st15" cx="712.62" cy="1118.01" r="8.24"/>
		<circle class="st15" cx="670.58" cy="1109.5" r="8.24"/>
		<circle class="st15" cx="636.25" cy="1020.29" r="8.24"/>
		<circle class="st15" cx="679.44" cy="981.47" r="8.24"/>
		<circle class="st15" cx="623.41" cy="973.67" r="8.24"/>
		<circle class="st15" cx="603.38" cy="964.41" r="8.24"/>
		<circle class="st15" cx="573.97" cy="945.19" r="8.24"/>
		<circle class="st15" cx="554.53" cy="915.93" r="8.24"/>
		<circle class="st15" cx="841.91" cy="1079.15" r="8.24"/>
		<circle class="st15" cx="1106.88" cy="1439.77" r="8.24"/>
		<circle class="st15" cx="865.45" cy="1070.85" r="8.24"/>
		
			<ellipse transform="matrix(1 -3.712982e-03 3.712982e-03 1 -3.9034 3.1882)" class="st15" cx="856.72" cy="1052.88" rx="8.24" ry="8.24"/>
		<circle class="st16" cx="1116.52" cy="1290.78" r="8.24"/>
		<circle class="st16" cx="1073.61" cy="1224.94" r="8.24"/>
		<circle class="st16" cx="1003" cy="1196.7" r="8.24"/>
		<circle class="st16" cx="968.82" cy="1146.83" r="8.24"/>
		<circle class="st16" cx="843.54" cy="1094.93" r="8.24"/>
		<circle class="st16" cx="864.19" cy="1091.52" r="8.24"/>
		<circle class="st16" cx="856.93" cy="1109.55" r="8.24"/>
		<circle class="st16" cx="835.81" cy="1167.63" r="8.24"/>
		<circle class="st16" cx="815.83" cy="1173.7" r="8.24"/>
		<circle class="st16" cx="745.05" cy="1143.97" r="8.24"/>
		<circle class="st16" cx="707.07" cy="1083.44" r="8.24"/>
		<circle class="st16" cx="694.99" cy="1062.15" r="8.24"/>
		<circle class="st16" cx="678.23" cy="1038.88" r="8.24"/>
		<circle class="st16" cx="419.18" cy="819.84" r="8.24"/>
		<circle class="st16" cx="399.2" cy="825.25" r="8.24"/>
		<circle class="st16" cx="385.82" cy="811.96" r="8.24"/>
		<circle class="st16" cx="780.94" cy="1113.17" r="8.24"/>
		<circle class="st16" cx="796.04" cy="1229.78" r="8.24"/>
		<circle class="st16" cx="937.81" cy="1146.44" r="8.24"/>
		<circle class="st16" cx="910.39" cy="1168.04" r="8.24"/>
		<circle class="st16" cx="934.67" cy="1129.43" r="8.24"/>
		<circle class="st16" cx="1035.23" cy="1259.58" r="8.24"/>
		<circle class="st16" cx="1014.21" cy="1251.66" r="8.24"/>
		<circle class="st16" cx="1142.12" cy="1479.76" r="8.24"/>
		<circle class="st16" cx="1198.21" cy="1504.55" r="8.24"/>
		<circle class="st16" cx="1201.76" cy="1517.04" r="8.24"/>
		<circle class="st16" cx="1209.28" cy="1523.51" r="8.24"/>
		<circle class="st16" cx="1219.81" cy="1530.47" r="8.24"/>
		<circle class="st16" cx="1229.41" cy="1556.94" r="8.24"/>
		<circle class="st16" cx="1216.87" cy="1547.98" r="8.24"/>
		<circle class="st16" cx="1212.95" cy="1567.5" r="8.24"/>
		<circle class="st16" cx="1229.11" cy="1610.44" r="8.24"/>
		<circle class="st16" cx="1238.13" cy="1615.91" r="8.24"/>
		<circle class="st16" cx="1248.18" cy="1629.87" r="8.24"/>
		<circle class="st16" cx="1248.78" cy="1658.37" r="8.24"/>
		<circle class="st16" cx="1248.83" cy="1670.37" r="8.24"/>
		<circle class="st16" cx="1256.91" cy="1691.34" r="8.24"/>
		<circle class="st16" cx="1269.96" cy="1706.79" r="8.24"/>
		<circle class="st16" cx="1271.56" cy="1731.78" r="8.24"/>
		<circle class="st16" cx="1278.62" cy="1748.76" r="8.24"/>
		<circle class="st16" cx="1301.04" cy="1726.17" r="8.24"/>
		<circle class="st16" cx="1311" cy="1717.14" r="8.24"/>
		<circle class="st16" cx="1342.48" cy="1710.02" r="8.24"/>
		<circle class="st16" cx="1422.03" cy="1723.22" r="8.24"/>
		<circle class="st16" cx="1265.19" cy="1632.31" r="8.24"/>
		<circle class="st16" cx="1124.6" cy="1474.33" r="8.24"/>
		<circle class="st16" cx="1110.56" cy="1464.38" r="8.24"/>
		<circle class="st16" cx="1098.4" cy="1419.92" r="8.24"/>
		<circle class="st16" cx="1114.27" cy="1386.36" r="8.24"/>
		<circle class="st16" cx="1122.23" cy="1375.33" r="8.24"/>
	</g>
	<circle class="st15" cx="1414.05" cy="1755.13" r="8.24"/>
	<g>
	</g>
	<g>
	</g>
	<g>
	</g>
	<g>
	</g>
	<g>
	</g>
	<g>
	</g>
	<g>
	</g>
	<g>
	</g>
	<g>
	</g>
	<g>
	</g>
	<g>
	</g>
	<g>
	</g>
	<g>
	</g>
	<g>
	</g>
	<g>
	</g>
	<g>
	</g>
	<g>
	</g>
	<g>
	</g>
	<g>
	</g>
	<g>
	</g>
	<g>
	</g>
	<g>
	</g>
	<g>
	</g>
	<g>
	</g>
	<g>
	</g>
</g>
</svg>
