<svg xmlns="http://www.w3.org/2000/svg" viewBox="0 0 1647.16 1899.19" style="enable-background:new 0 0 1647.16 1899.19">
    <style>
        .kas_dovac_sections_svg__st0{fill:none;stroke:#231f20;stroke-width:.3}.kas_dovac_sections_svg__st1{display:none}.kas_dovac_sections_svg__st2,.kas_dovac_sections_svg__st3{display:inline;fill:#f4dab9}.kas_dovac_sections_svg__st3{fill:none;stroke:#8bc53f;stroke-miterlimit:10}.kas_dovac_sections_svg__st4{fill:#00a14b}.kas_dovac_sections_svg__st4,.kas_dovac_sections_svg__st5{display:inline;opacity:.35}.kas_dovac_sections_svg__st6{fill:#00a14b}.kas_dovac_sections_svg__st7{fill:#f9ec31}.kas_dovac_sections_svg__st8{display:inline}.kas_dovac_sections_svg__st9{fill:#ec1c24}.kas_dovac_sections_svg__st10,.kas_dovac_sections_svg__st11,.kas_dovac_sections_svg__st12{display:none;fill:none;stroke:#26a9e0;stroke-miterlimit:10}.kas_dovac_sections_svg__st11,.kas_dovac_sections_svg__st12{display:inline}.kas_dovac_sections_svg__st12{display:none;stroke-linejoin:round}.kas_dovac_sections_svg__st13,.kas_dovac_sections_svg__st14{fill:#26a9e0}.kas_dovac_sections_svg__st14{opacity:.6}.kas_dovac_sections_svg__st15{fill:#fff}.kas_dovac_sections_svg__st15,.kas_dovac_sections_svg__st16{stroke:#231f20;stroke-miterlimit:10}
    </style>
    <symbol id="kas_dovac_sections_svg__Deleted_Symbol" viewBox="-30.1 -12.21 60.2 24.42">
        <path class="kas_dovac_sections_svg__st0" d="M30.01 6.21l-2-1.5M16.84-4.29l-4.25.75M26.34 1.13h-3M21.06-7.38l1.11 2.96M4.58 9.57l-1.65 2.56M-9.87-10.84l1.86 2.68M18.76 5.8l-2-3.25M-29.99-1.12l2.25 2.5M-20.49-2.29l4 2.5M-21.82-5.95l-2 1.25M-7.12 4.84l-2.75 2.25M5.09-4.87l-2 1.25M-6.32-5.47l3.05-.13M-4.07-.26l2.39-1.82M3.07 3.73L4.19.67M-2.41 8.46l-3.25 1M11.97 2.09L9.22 3.84M11.84 7.46l-2-1.5M-20.24 6.71l.5-3.25M-12.24.21l3.5.75M.34-12.21l.11 3M-15.7-7.61l-1.42 2.05"/>
    </symbol>
    <g id="kas_dovac_sections_svg__orng_brwn" class="kas_dovac_sections_svg__st1">
        <path class="kas_dovac_sections_svg__st2" d="M416.28 949.27l21.5 4.5 40.5-7.5 38.5-7.5 15.5 1.5 13.5-4.5 9-8 35.84-28.17 2.66-14.33 30-31.5 18-28.5 10-31.5 17.5-29 7-26.5 11.5-34.5 16.67-45.5 6.33-40-16.33-30-10.67 42-6.5 20.5 2 7-8 29.5-5 30.5-15.22 21.33-7.78 20.17-8.34 1.83-7.16 11.17-9 23.5 1 10-13.5 19.5-5.16 17.66-20.34 21.84-45.5 36.5-14-3.5-11.91 5.69-9.09-11.69-14-4 10.5 13.5-1.66 9-24.84 19-23 4-1-11.5h-8.5zM738.28 605.27l-7.5 4.5-19-39.5-10-64.5 3-11.5 8.5-45.5 29.5-6 18.5 6-22.5 13.5-12 16.5-4.5 21-1 20 8 38 15.5 22.5 1 9.5zM404.28 964.6l-50.33 31.33-21.17 12.34-25 19.5-11.16 10.5-9.34 13.5-6 43.83 6.67 1 5.33 4.67 2.5 13-2.83 8.33-7.67 5 5.5 8.67 18-15.5 7.84-4.5 17.66-6 13.5-26 .17-3.67-8.67-3 3-3.33 21-20.5 5.5-1 17.84-18.5 10.66-2.34 3.5-5.66 1-16.5 22.5-3.5 9.5-9 40.5-10 18.34-13.67-.67-3-27.17 9.67-14.5 2-18.33 7.66-7.17.84-1-6z"/>
        <path class="kas_dovac_sections_svg__st2" d="M289.53 1117.27c0 4.69-3.26 8-5.75 8s-6-3.81-6-8.5c0-4.69 3.51-8.5 6-8.5s5.75 4.3 5.75 9zM268.78 1091.27s-8.75 11 2.25 22 2.25-1.5 2.25-1.5l-1.25-16.75-3.25-3.75zM295.78 1138.52c3 2.75 5 2.25 9.5 2.75 7.18 0 12-9.5 12-13.5s-6.25-4.75-11.5 1.75c-7.18 0-10 4.99-10 9zM-16.72 1224.77l55-1 21.5 2 38.5-9.5 32.5-12.5 11.5-8.5 59-20.5 25.5-10 3-14.5 8.5-10 6-22-7.5-28.5-26.5 11-1.5 7.5 11.5 7-21.5 28-15 16-51 22-18 13-37 4.5-51.5-2-35.5 3.5v-11l-10-16.5zM63.78 1096.77l30.5 6 24-13 15-20 5.5-27-5.5-19.5-13.66-17.34-4.84-3.16 12.5 32.5-15 37-17.5 16h-24.5l-23.66-7.67-13.67-1-8.33 4.33-12.67 12-6.33 11 3 25-7 18.67-9.34-.33-8.66 3.66.33 3.34 20.67-.67 14-9-2.34-18.33 3.67-13 1.33-16.34 9-11 11.67 1.67z"/>
    </g>
    <g id="kas_dovac_sections_svg__green_x2B_blue" class="kas_dovac_sections_svg__st1">
        <path class="kas_dovac_sections_svg__st4" d="M1162.78 2319.72l-883.37-.43-2.63-509.57 25.99 13.04 18.01 30.96 24 13 23-14 10 16 14 10 10 17 15 6 17-12 14 7-3 18 20 18 13-5 5 11 56 3 17 14 24 35 6 24 65 35 69 16 87 31 32 23 34 11 34 18 28 27 30 2 36 27 10.2-9.49 5.8-13.51h9l-15 33 90 41-3 24 19 5 1-30 32 3 5-8z"/>
        <g class="kas_dovac_sections_svg__st5">
            <path class="kas_dovac_sections_svg__st6" d="M711.4 1870.81h694.47v204.02H711.4z"/>
        </g>
    </g>
    <g id="kas_dovac_sections_svg__yellow-C">
        <path class="kas_dovac_sections_svg__st7" d="M1028.72 1052.58l1.7 8.99 13.3-7.05 25.58-24.42 132.48-139.16-.69-8.34-23.92 21.76-64.77 63.57-59.11 58.56zM796.5 1084.11l6.7 8.64 3.53-1.25 19.69-20.17 98.95-112.03-1.38-12-19.27 16.74-48.48 55.12-44.46 50.56zM950.63 850.2l15.66-2.06 55.43-63.54-1.94-10.09-54.23 52.64zM805.76 974.74l16.99-3.06 9.85-12.16 20.58-23.4-3.26-8.21-15.28 14.06-15.94 16.39zM913.54 1095.67l15.06-2.77 14.54-14.67 21.25-22.75.78-14.49-11.13 8.53-21.23 29.42zM998.16 1173.03l9.33-2.04 24.9-25.42 35.53-38.8-3.03-7.32-9.63 9.03-43.51 42.5zM930.27 1111.28l6.01 4.98 10.62-15.04 21.25-22.42 1.79-10.83-12.79 10.88-16.92 22.72zM769.62 1117.88l-10.29 11.7-4.63 9.35-1.96 9.67 22.58-22.75 1.99-3.67zM722.83 1173.38l-17.95 14.74-15.93 17.72-14.6 19.39-7.63 10.03 12.35 1.95 24.56-28.42 24.89-29.76zM747.64 1211.96l-15.95 14.39-24.58 21.76-22.58 25.42-16.91 23.06 10.68 3.29 36.63-40.11 34.08-36.82zM926.28 1204.63l-15.95 14.39-22.57 25.08-21.91 25.75-16.9 26.4 18.67-.4 28.18-42.11 31.85-38.12zM889.13 1164.77l-4.32 2.34-25.58 24.1-21.58 24.75-15.58 22.72 18.97-7.4 26.55-31.43 29.87-35.78zM993.1 1245.71l-16.61 14.4-22.59 22.75-22.57 24.08-12.94 18.05 12.02 4.29 31.53-36.78 26.56-29.44zM957.89 1368.51l-14.64 8.72-19.9 24.74-32.54 36.12-20.91 24.42 21.02 3.92 34.19-38.46 32.83-45.79zM760.57 1282.91l-7.33.69-14.59 21.39-12.28 14.05 9.01 3.3 26.22-30.77zM1007.51 1085.99l-12.63 12.05-17.59 20.73-2.31 5.01 9.99-3.04 22.24-23.75zM1007.6 1111.32l-12.3 10.05-14.58 21.39-1.97 8.01 6.32-2.69 21.58-24.42zM1129.71 1141.87l-19.27 16.07-23.57 26.42-6.62 11.7 9.32-2.37 44.18-43.5zM1149.78 1158.13l-26.6 19.77-19.93 19.74-12.93 16.38 10 .29 49.81-50.85zM1207.82 1081.58L1184.9 1103l-19.92 19.74-14.59 20.05 10 .3 51.46-54.52zM1291.15 1079.94l-26.24 23.43-21.26 21.75-28.55 31.1 14.35 2.61 62.72-72.9zM1215.46 1162.22l-25.25 24.43-20.91 22.74-52.43 63.53 12-.71 58.76-62.22 30.19-39.78zM1251.68 1311.42l-30.57 27.45-29.88 30.77-47.83 47.52 16.66-3.4 56.12-57.87 41.17-42.82zM1248.93 1199.76l-27.23 26.77-42.16 47.82-49.1 61.85 4.68 4.65 25.22-31.76 45.49-46.17 43.47-52.83zM1266.5 1262.03l-28.91 24.44-45.16 47.5-67.42 66.92.36 7.33 24.95-13.76 69.4-71.92 45.15-48.17zM1237.46 984.47l-22.92 21.42-26.24 25.43-12.93 16.38 10 .3 55.47-51.21zM1211.39 1054.9l-35.88 32.47-19.58 23.4-15.92 22.06 17.98-7.4 52.77-60.53zM1146.55 1188.48l-22.25 20.08-21.26 20.41-8.62 14.37 10.66-2.71 41.83-46.82zM1080.74 1149.39l-12.64 5.71-43.51 44.16 10 .3 19.28-15.07 25.57-27.1zM1304.27 1289.89l-85.36 84.65-12.6 18.05 12.33-1.05 68.74-71.25 19.59-21.08zM1314.33 1306.85l-17.94 16.07-20.92 22.75-20.58 21.74-7.96 11.69 13.33-.38 23.25-23.08 31.51-41.46zM1282.78 1429.31l8.28-16.04 11.6-16.37 56.09-66.21 3.05 13.32-51.79 57.86zM1306.5 1441.88l-24.24 27.09-15.58 23.73 9.01.63 35.5-43.13zM548.15 1260.7l18.59-22.07-.64 8.67-7.28 13.36zM583.57 1239.73l30.06-30.28-.11 16.17-15.95 12.56zM583.09 1244.74l-3.95 13.01-13.44 16.05-12.97 8.55 6.46-11.53zM532.83 1307.42l.06 16.5-8.96 10.54-20.48 6.57zM630.37 1408.06l1.89 15.49-17.43 20.57-13-.95zM515.04 1363.99l41.85-38.66 2.05 12.5-29.9 27.11zM589.24 1285.21l-28.38 32.11 10.51 1.46 18.92-21.07zM393.06 1504.44l47.78-58.18 3.54 9.99-4.96 12.52-10.92 20.54-12.45 14.05zM612.95 1342.12l.55 11.5-21.95 14.58-9.46 11.54-6.44 15.52-27.39 29.61-16-.94 24.89-28.6 23.9-27.09zM638.41 1330.53l-45.78 58.17 11.49-2.04 40.32-48.15zM663.82 1439.27l-25.92 22.43-14.94 16.06-26.22 30.43 17.68 3.93 30.24-25.45 9.26-18.03 11.97-10.71zM497.95 1476.55l6.38 11.31-20.27 18.74-8.95 12.7-7.29 12.37-12.6 17.71-15.33.72 26.2-37.43zM648.7 1677.99l6.85 3.15-4.28 13.85-22.4 29.08-12.28 14.38-19.08 22.24-12.5-.46 29.85-40.78zM663.91 1734.94l-30.36 37.11-1.48 5.51 10.51.96 24.37-33.09zM604.08 1644.66l-21.38 31.58-13.44 15.05-10.92 22.04 12.98-4.55 12.44-16.55s7.96-10.53 9.46-11.54c1.5-1.01 11.43-19.54 11.43-19.54l-.57-16.49zM1027.21 1545.59l-19.92 20.57-23.88 32.59-15.93 18.56-16.43 17.56-9.94 16.54-.41 23 34.84-43.13s19.89-29.07 23.39-30.59 6.94-15.03 6.94-15.03l14.95-14.06 6.44-15.52-.05-10.49zM1089.95 1608.36l-12.46 11.05-31.36 36.62-15.93 18.56-16.43 17.56-38.8 54.64 13.5-1.05 36.31-50.14s24.37-36.09 27.86-37.6c3.49-1.51 16.44-17.06 16.44-17.06l8.97-9.03 11.95-13.04-.05-10.51zM1048.83 1576.51l-23.95 23.81-25.33 34.87-15.9 28.06-25.41 25.09-15.42 22.56-1.11 19.72 41-49.87s18.99-31.25 23.38-33.09c4.39-1.84 24.91-25.09 24.91-25.09l10.92-15.81 8.02-18.67-1.11-11.58zM1197.62 1571.46l-22.2 29.08-33.32 47.62-25.89 29.1-30.35 40.61-25.86 37.1 13.01 3.95 44.78-58.67s23.69-39.52 28.92-41.77 26.31-30.44 26.31-30.44l13.92-21.05 12-21.36-1.32-14.17zM987.82 1708.74l-1.46 12.5-23.86 35.09-16.48 5.56 18.89-29.57zM1176.2 1542.04l3.53 8.98-48.27 59.68-16.48 5.56 18.89-29.57zM1214.45 1607.89l2.54 10.99-32.33 46.12-40.83 46.16-13.5.05 41.78-58.66zM1108.67 1533.29l-11.9 27.54-16.96 11.56s6.94-16.03 8.94-16.03 19.92-23.07 19.92-23.07zM1115.2 1542.76l-9.96 9.54-8.46 12.53-16.43 16.56 12.49-2.55 18.94-16.07 4.45-12.51zM1128.75 1555.21l-33.38 33.13 13.99-3.06 13.44-15.55 6.97-8.02zM1097.08 1778.83l14.49-2.55 108.98-139.91-.04-12zM1224.59 1647.86l-22.91 24.08-14.42 20.55-10.96 12.05 14-2.06 36.33-44.13zM1220.76 1691.37l5.52 7.48-43.78 57.66-16.5.56 36.34-42.63zM1259.4 1731.23l-12.5-1.46-27.86 37.11 14.49-1.06zM1403.08 1644.19l21.09 24.93-98.1 107.86-20.57-20.92zM1212.94 1606.9l-2.57-19.99 38.86-36.15 7.43-20.02 23.45-13.09-.03-8 13.93-20.05 4.09 25.98-23.91 24.09-19.39 27.57-18.45 14.57zM1200.7 1408.44l-.45 12-31.89 29.62-11.5.05zM911.49 1146.12c2.67-2.62 4.35-5.78 6.97-8.36 2.3-2.26-1.24-5.8-3.54-3.54-2.67 2.62-4.35 5.78-6.97 8.36-2.29 2.27 1.24 5.8 3.54 3.54zM1120.47 1323.81c6.63-7.01 16.43-9.87 18.21-20.54.52-3.15-4.29-4.5-4.82-1.33-1.56 9.37-11.05 12.13-16.92 18.34-2.22 2.33 1.31 5.87 3.53 3.53zM1046.47 1468.73c2.48-4.82 6.06-8.73 10.7-11.54 2.75-1.66.24-5.99-2.52-4.32-5.33 3.23-9.65 7.78-12.5 13.33-1.47 2.86 2.85 5.39 4.32 2.53zM932.09 1345.56c3.66-3.34 7.33-6.67 10.99-10.01 2.38-2.17-1.16-5.7-3.54-3.54-3.66 3.34-7.33 6.67-10.99 10.01-2.38 2.18 1.17 5.71 3.54 3.54zM241.55 1632.55c2.47-2.15 4.66-4.1 5.92-7.19 1.46-3.6 3.62-7.42 4.59-11.17 2.17-8.44-3.29-18.75-4.2-27.19-.68-6.33-10.69-6.4-10 0 .83 7.73 4.16 15.39 4.47 23.11.13 3.29-2.39 6.18-3.44 9.28-1.03 3.05-1.93 3.94-4.41 6.1-4.86 4.22 2.23 11.27 7.07 7.06zM264.79 1562.97c3.2-2.74 7.3-4.04 10.83-6.26 3.9-2.45 6.65-5.65 7.94-10.12 1.78-6.2-7.86-8.84-9.64-2.66-.89 3.1-3.58 4.37-6.28 5.76-3.54 1.83-6.87 3.61-9.92 6.21-4.9 4.18 2.2 11.23 7.07 7.07z"/>
    </g>
    <g id="kas_dovac_sections_svg__red_1_" class="kas_dovac_sections_svg__st1">
        <g class="kas_dovac_sections_svg__st8">
            <path class="kas_dovac_sections_svg__st9" d="M392.12 731.85c8.04 0 8.06-12.5 0-12.5-8.05 0-8.06 12.5 0 12.5zM199.78 686.52c8.04 0 8.06-12.5 0-12.5-8.04 0-8.05 12.5 0 12.5zM221.45 694.85c8.04 0 8.06-12.5 0-12.5-8.04 0-8.06 12.5 0 12.5zM218.45 671.35c8.04 0 8.06-12.5 0-12.5-8.04 0-8.06 12.5 0 12.5zM265.95 683.35c8.04 0 8.06-12.5 0-12.5-8.04 0-8.06 12.5 0 12.5zM292.95 692.35c8.04 0 8.06-12.5 0-12.5-8.04 0-8.06 12.5 0 12.5zM316.78 702.52c8.04 0 8.06-12.5 0-12.5-8.04 0-8.05 12.5 0 12.5zM344.28 713.52c8.04 0 8.06-12.5 0-12.5-8.04 0-8.05 12.5 0 12.5zM261.45 706.35c8.04 0 8.06-12.5 0-12.5-8.04 0-8.06 12.5 0 12.5zM282.95 713.85c8.04 0 8.06-12.5 0-12.5-8.04 0-8.06 12.5 0 12.5zM307.28 723.52c8.04 0 8.06-12.5 0-12.5-8.04 0-8.05 12.5 0 12.5zM368.62 722.85c8.04 0 8.06-12.5 0-12.5-8.05 0-8.06 12.5 0 12.5z"/>
        </g>
    </g>
    <g id="kas_dovac_sections_svg__blue_river">
        <path class="kas_dovac_sections_svg__st10" d="M1368.37 794.35s-.01.7 1 2.42c.86 1.47 2.17 2.94 3.08 4.25 1.98 2.84 2.25 9.25 2.25 9.25l.17 4.42 1.08 6.33.25 5.33"/>
        <g class="kas_dovac_sections_svg__st1">
            <path class="kas_dovac_sections_svg__st11" d="M1351.53 714.39l-3.62 6.5-3.25 3.76-2.88 3.99-1.25 4.88-1.12 4M1369.53 787.14l-2.5-4.62-.62-5.38-2.77-4.67-1.73-3.45-.38-2.25s0-2.12 2-1.38 3.12 2.12 3.12 2.12 3.5.5 5.88-.38c1.88-1.75 4.12-1.62 4.12-1.62l1.12-2.88"/>
        </g>
        <path class="kas_dovac_sections_svg__st10" d="M881.62 863.1l6.5-1.67 4.66-4.33 6.84-3.17 3.63-4.28 5.7-11.72-3.42-2.16M1351.91 753.39l4.62 4.25s1 2.25 1.12 2.88 1.75 5.12 1.88 5.75 1.25 4.38 1.25 4.38l1.12 3s1.5 1.25 2 3.12.88 5.62.88 5.62l1.12 3.5 1.38 4 .38.88"/>
        <path class="kas_dovac_sections_svg__st12" d="M876.78 811.77l.34 3 1.16.5.84 2.5-.84 1.83.34 2-.67 3.17-1.5 1.33M876.62 810.43l3.16-2.16 3 1.16 1.5 1 5.5.67 1.67 1.67 2.83 2.16 2.34 1.84 12.33 1.83M920.28 839.77l2.5-.33-1.5 1.5s-.5 1.5 1.5 1.5 2.67-1 2.67-1 2.33.17 3 1.33c.67 1.17.67 3 .67 3l2.83 1.5 2.83 1 3.5 1.83 2.5-2.67 1 .83-.17 2.5 2.5 2 2.33 3.33"/>
        <path class="kas_dovac_sections_svg__st13" d="M935.21 1813.93l5.49-1.02"/>
        <path class="kas_dovac_sections_svg__st14" d="M436.25 479.78l-4.45 12.01-6.99 3.53-2.38 32.51-8.44 16.03-9.34 43.03.55 14.5 1.56 16 4.52 4.48 16.49-3.06 8.55 12.97 22.06 16.41 11.01 2.96 11.05 13.46 13.53 9.45 12.52 4.46 9.02 5.46 12.5.96 8.53 5.96 33.99-.62 11.55 12.46 9.52 5.96-.42 19.5-7.48 7.53-34.86 36.13-12.48 7.55-16.46 9.56-7.97 9.03-15.48 5.55-17.95 12.57-12.5 1.05-17.96 8.56-14.09 14.94.18 11.12 21.06 16.42 8.09 22.47 4.58 21.48-5.96 11.52-1.46 11.01-8.48 6.03-5.94 16.52-7.45 12.53-.59 13.02 14.67 6.93 16.5-8.29 23.92-11.86 11.96-12.05 22.98-3.58 14.03 7.45 1.13 35.49-3.9 25.52 3.03 9.49-4.86 38.01-4.34 15.69 5.46 15.81 14.06 15.95 15.09 23.94 5.57 17.98-5.94 18.52-3.92 20.52-6.91 23.02 6.04 11.98-16.47 9.06-6.55 30.36-13.22 30.72-8.48 6.03-14.4 26.05-16.42 23.06-21.42 19.08-6.29 13.36 28.3-10.77 9.49-1.7 14.5.94 5.72 12.31-.14 7.67 6.22 15.98-2.95 13.34-.28 13.34 18.7 8.26 9.69 5.96-2.94 18.02-8.62 12.69-4.3 9.69-9.96 10.37-13.28 12.71-14.92 23.06 2.39 15.66 13.05 11.28 15.67 2.61 17.39 13.94 5.72 15.64-5.64 5.69-4.95 14.02-17.26 18.73-12.31 7.04-17.67.07-1.97 8.34 12.38 10.96 32.73 18.21 10.03 8.29 5.35 3.98 3.07 18.66 8.08 20.97 22.11 29.58 11.1 26.96-10.67.71-10.38-13.63-2.71-11.99-11.4-17.29-4.38-12.98-16.16-42.28-28.39-14.56-29.06-18.56-6.71-11.64 1.61-13.34 41.64-9.15 12.04-15.79 4.52-12.28-2.05-11.65-10.36-9.63-16.01-1.61-12.37-8.62-7.36-8.31-2.7-8.99 4.6-17.01 12.29-11.38 7.29-13.03 25.23-27.09 5.38-11.69.54-11.67-24.04-8.58-4.37-10.31.26-20.34-.87-10.33-14.49-12.33-10.06-.58-14.49 4.06-24-.42 3.93-20.51 16.87-17.33 7.04-5.26 5.43-18.52 15.97-8.56 6.96-12.02 16.38-33.07 17.99-46.56 4.27-17.52 6.97-8.52 8.43-19.04 3.86-35.51-6.89-16.27-3.7-9.19-25.56-15.41-7.54-10.97-.08-23 6.44-14.02-1.61-29.5 7.43-19.52-5.53-14.5-13.95-13.88-22.27-2.84-19.34 7.44-28.45 12.11-18.54-9.43-1.54-12.5.45-12 4.94-17.52 4.44-15.51 5.48-4.53 10.44-17.53 2.43-18.01-14.61-29.95-13.06-16.45.42-21 6.96-11.53 21.45-11.58 29.98-7.11 15.42-20.56 25.46-12.09 22.92-20.59 20.07-10.84 6.85-10.26 3.46-12.32-4.94-7.93-47.11-5.57-20.01-.92-23.05-14.92-15.06-15.94-11.53-7.96-16.05-13.94-18.01-2.93-17 2.56-4.51-4.48.96-11.01-5.59-22.47-6.52-7.48-2.53-7.99 6.94-14.03-1.56-15.99 4.94-16.52 17.42-22.06 5.41-25.03 8.35-40.03 8.85-53.53.41-10.5-2.54-12.49-9.04-8.47-19.49 1.07-31.46 11.12-27.99 2.6-27.97 8.61-16.4.38-14.63-7.77-4.53-8.48 4.96-12.02-4.57-18.98 4.46-9.52 24.93-19.09.94-15 3.96-11.52 6.47-8.02 35.86-37.64 10.26-21.37 31.07-24.28 12.44-16.05-.41-21.83-10.02-6.63-22.05-13.25-15.17.89-38.11 15.31-23.8 7.42-18.99 3.57-32.43 17.95-23.33 2.76.23-28 33.62-12.13 32.67-1.45 32.14-7.29 45.09-19.67 31.35 3.89 15.02 4.94 11.72 16.29.41 11.32-8.42 31.38-15.09 19.39-9.28 14.2-15.47 9.06-7.93 17.53-16.44 18.06-17.41 23.06-16.91 23.57-11.4 26.54-12.91 24.05 6.53 8.97 37 .36 43.96-11.66 15.95-13.06 13.49-2.55 24.01 2.91 6.6 26.48.06 16 3.09 24.49-9.86 38.53z"/>
        <path class="kas_dovac_sections_svg__st14" d="M784.29 1117.82l-11.95 14.05-2.95 13.34-6.6 18.36-9.66 2.03-10.35-4.62-24.76-25.91-13.68-.66-17.25 18.44-17.68-2.27-20.69-5.92-15.65 4.72-39.89 27.82-15.74 27.22-18.42 22.07 3.36 7.16 9.64-7.71 11.61-17.21 22.89-27.92 13.96-12.05 19.63-9.74 13.33-1.05 20.02 5.6 22.32-2.09 7.97-9.03 12.48-4.54 20.92 21.09 17.22 15.77 13.31-7.22 7.27-15.69 9.44-16.37 3.32-5.52 3.2-11.26 10.21-10.54 17.71-10.81 9.03 7.22-5.93 19.02-33.34 43.62-5.46 9.77-3.43 17.77 14.28 8.94 13.02 5.7 7.5-.77 18.67-20.57 5.48-7.02 16.73-3.57 8.25-1.53 19.18-17.82 18.7-13.57.22-9-6.25.27-14.98 6.81-4.97 8.27-14.03 16.07-6.65 2.76-11.26-2.46-16.7 12.56-8.45 12.53-13.99 4.3-12.27-5.7 7.67-21.78 11.2-14.79 12.95-13.05 11.15-25.29-1.08-21.5.97-9.25-10.52-5.21-13.49 2.55zM1100.51 1356.98l-6.94 14.03-9.39-13.3-7.72-15.64-6.4-17.98 4.2-35.18-8.42-24.47-27.74-18.56-66.57-19.09-19.03-7.43-10.54-11.96 4.38-30.51-11.03-8.96-31.05-13.39 5.49-3.19 32.04 11.05 9.53 6.97 2.58 6.47-.02 11.02-.95 13 5.53 7.48 16 1.94 13.54 8.45 26.52 5.9 8.02 6.97 18.86 6.27 17.2 7.6 20.07 18.93 3.87 9.98-.59 22-2.62 12.35 1.05 12.66 2.4 5.63 10.94-2.35 7.35 4.64-.99 3.01-8.99 2.03-5.62 12.69 5.04 10.31zM616.5 343.35l-23.71 11.51-8.68-2.63-17.05-13.94-18.28 15.4-8.33.7-15.42-2.7-14.57 5.81-12.61 14.71-5.23 4.86-11.75-.46-4.01-2.32-1.36-6.33 5.31-7.35 3.9-27.02.96-10-2.26-3.74-7.42.11-.97 8 3.7 8.66-26.39 29.59-10.96 9.55-5.07-17.99 8.16-2.36 7.3-7.19 5.45-13.02 5.81-7.19-4.87-10.32-.54-9.5 9.47-9.53 20.85 3.92 2.69 6.99 4.08 21.99-2.94 16.01-4.45 14.51 7.02 2.98 9.21-8.79 4.23-7.43 8.96-8.36 9.68.96 17.84 3.43 16.78-13.89 6.99-3.7 8.35 3.31 8.69 8.63 13.18 1.7 7.14-6.44 12.65-4.38z"/>
    </g>
    <g id="kas_dovac_sections_svg__circles">
        <circle class="kas_dovac_sections_svg__st15" cx="1120.3" cy="1340.04" r="8.24"/>
        <circle class="kas_dovac_sections_svg__st15" cx="1112.84" cy="1264.6" r="8.24"/>
        <circle class="kas_dovac_sections_svg__st15" cx="1090.81" cy="1257.35" r="8.24"/>
        <circle class="kas_dovac_sections_svg__st15" cx="1091.39" cy="1232.68" r="8.24"/>
        <circle class="kas_dovac_sections_svg__st15" cx="1021.82" cy="1214.44" r="8.24"/>
        <circle class="kas_dovac_sections_svg__st15" cx="939.82" cy="1214.24" r="8.24"/>
        <circle class="kas_dovac_sections_svg__st15" cx="935.74" cy="1193.76" r="8.24"/>
        <circle class="kas_dovac_sections_svg__st15" cx="917.15" cy="1123.49" r="8.24"/>
        <circle class="kas_dovac_sections_svg__st15" cx="965.17" cy="1174.15" r="8.24"/>
        <circle class="kas_dovac_sections_svg__st15" cx="980.2" cy="1183.59" r="8.24"/>
        <circle class="kas_dovac_sections_svg__st15" cx="790.54" cy="1098.39" r="8.24"/>
        <circle class="kas_dovac_sections_svg__st15" cx="750.58" cy="1107.87" r="8.24"/>
        <circle class="kas_dovac_sections_svg__st15" cx="712.62" cy="1118.01" r="8.24"/>
        <circle class="kas_dovac_sections_svg__st15" cx="670.58" cy="1109.5" r="8.24"/>
        <circle class="kas_dovac_sections_svg__st15" cx="636.25" cy="1020.29" r="8.24"/>
        <circle class="kas_dovac_sections_svg__st15" cx="679.44" cy="981.47" r="8.24"/>
        <circle class="kas_dovac_sections_svg__st15" cx="623.41" cy="973.67" r="8.24"/>
        <circle class="kas_dovac_sections_svg__st15" cx="603.38" cy="964.41" r="8.24"/>
        <circle class="kas_dovac_sections_svg__st15" cx="573.97" cy="945.19" r="8.24"/>
        <circle class="kas_dovac_sections_svg__st15" cx="554.53" cy="915.93" r="8.24"/>
        <circle class="kas_dovac_sections_svg__st15" cx="841.91" cy="1079.15" r="8.24"/>
        <circle class="kas_dovac_sections_svg__st15" cx="1106.88" cy="1439.77" r="8.24"/>
        <circle class="kas_dovac_sections_svg__st15" cx="865.45" cy="1070.85" r="8.24"/>
        <ellipse transform="matrix(1 -.00371 .00371 1 -3.903 3.188)" class="kas_dovac_sections_svg__st15" cx="856.72" cy="1052.88" rx="8.24" ry="8.24"/>
        <circle class="kas_dovac_sections_svg__st16" cx="1116.52" cy="1290.78" r="8.24"/>
        <circle class="kas_dovac_sections_svg__st16" cx="1073.61" cy="1224.94" r="8.24"/>
        <circle class="kas_dovac_sections_svg__st16" cx="1003" cy="1196.7" r="8.24"/>
        <circle class="kas_dovac_sections_svg__st16" cx="968.82" cy="1146.83" r="8.24"/>
        <circle class="kas_dovac_sections_svg__st16" cx="843.54" cy="1094.93" r="8.24"/>
        <circle class="kas_dovac_sections_svg__st16" cx="864.19" cy="1091.52" r="8.24"/>
        <circle class="kas_dovac_sections_svg__st16" cx="856.93" cy="1109.55" r="8.24"/>
        <circle class="kas_dovac_sections_svg__st16" cx="835.81" cy="1167.63" r="8.24"/>
        <circle class="kas_dovac_sections_svg__st16" cx="815.83" cy="1173.7" r="8.24"/>
        <circle class="kas_dovac_sections_svg__st16" cx="745.05" cy="1143.97" r="8.24"/>
        <circle class="kas_dovac_sections_svg__st16" cx="707.07" cy="1083.44" r="8.24"/>
        <circle class="kas_dovac_sections_svg__st16" cx="694.99" cy="1062.15" r="8.24"/>
        <circle class="kas_dovac_sections_svg__st16" cx="678.23" cy="1038.88" r="8.24"/>
        <circle class="kas_dovac_sections_svg__st16" cx="419.18" cy="819.84" r="8.24"/>
        <circle class="kas_dovac_sections_svg__st16" cx="399.2" cy="825.25" r="8.24"/>
        <circle class="kas_dovac_sections_svg__st16" cx="385.82" cy="811.96" r="8.24"/>
        <circle class="kas_dovac_sections_svg__st16" cx="780.94" cy="1113.17" r="8.24"/>
        <circle class="kas_dovac_sections_svg__st16" cx="796.04" cy="1229.78" r="8.24"/>
        <circle class="kas_dovac_sections_svg__st16" cx="937.81" cy="1146.44" r="8.24"/>
        <circle class="kas_dovac_sections_svg__st16" cx="910.39" cy="1168.04" r="8.24"/>
        <circle class="kas_dovac_sections_svg__st16" cx="934.67" cy="1129.43" r="8.24"/>
        <circle class="kas_dovac_sections_svg__st16" cx="1035.23" cy="1259.58" r="8.24"/>
        <circle class="kas_dovac_sections_svg__st16" cx="1014.21" cy="1251.66" r="8.24"/>
        <circle class="kas_dovac_sections_svg__st16" cx="1142.12" cy="1479.76" r="8.24"/>
        <circle class="kas_dovac_sections_svg__st16" cx="1198.21" cy="1504.55" r="8.24"/>
        <circle class="kas_dovac_sections_svg__st16" cx="1201.76" cy="1517.04" r="8.24"/>
        <circle class="kas_dovac_sections_svg__st16" cx="1209.28" cy="1523.51" r="8.24"/>
        <circle class="kas_dovac_sections_svg__st16" cx="1219.81" cy="1530.47" r="8.24"/>
        <circle class="kas_dovac_sections_svg__st16" cx="1229.41" cy="1556.94" r="8.24"/>
        <circle class="kas_dovac_sections_svg__st16" cx="1216.87" cy="1547.98" r="8.24"/>
        <circle class="kas_dovac_sections_svg__st16" cx="1212.95" cy="1567.5" r="8.24"/>
        <circle class="kas_dovac_sections_svg__st16" cx="1229.11" cy="1610.44" r="8.24"/>
        <circle class="kas_dovac_sections_svg__st16" cx="1238.13" cy="1615.91" r="8.24"/>
        <circle class="kas_dovac_sections_svg__st16" cx="1248.18" cy="1629.87" r="8.24"/>
        <circle class="kas_dovac_sections_svg__st16" cx="1248.78" cy="1658.37" r="8.24"/>
        <circle class="kas_dovac_sections_svg__st16" cx="1248.83" cy="1670.37" r="8.24"/>
        <circle class="kas_dovac_sections_svg__st16" cx="1256.91" cy="1691.34" r="8.24"/>
        <circle class="kas_dovac_sections_svg__st16" cx="1269.96" cy="1706.79" r="8.24"/>
        <circle class="kas_dovac_sections_svg__st16" cx="1271.56" cy="1731.78" r="8.24"/>
        <circle class="kas_dovac_sections_svg__st16" cx="1278.62" cy="1748.76" r="8.24"/>
        <circle class="kas_dovac_sections_svg__st16" cx="1301.04" cy="1726.17" r="8.24"/>
        <circle class="kas_dovac_sections_svg__st16" cx="1311" cy="1717.14" r="8.24"/>
        <circle class="kas_dovac_sections_svg__st16" cx="1342.48" cy="1710.02" r="8.24"/>
        <circle class="kas_dovac_sections_svg__st16" cx="1422.03" cy="1723.22" r="8.24"/>
        <circle class="kas_dovac_sections_svg__st16" cx="1265.19" cy="1632.31" r="8.24"/>
        <circle class="kas_dovac_sections_svg__st16" cx="1124.6" cy="1474.33" r="8.24"/>
        <circle class="kas_dovac_sections_svg__st16" cx="1110.56" cy="1464.38" r="8.24"/>
        <circle class="kas_dovac_sections_svg__st16" cx="1098.4" cy="1419.92" r="8.24"/>
        <circle class="kas_dovac_sections_svg__st16" cx="1114.27" cy="1386.36" r="8.24"/>
        <circle class="kas_dovac_sections_svg__st16" cx="1122.23" cy="1375.33" r="8.24"/>
        <circle class="kas_dovac_sections_svg__st15" cx="1414.05" cy="1755.13" r="8.24"/>
    </g>
</svg>
