<svg xmlns="http://www.w3.org/2000/svg" xmlns:xlink="http://www.w3.org/1999/xlink" viewBox="0 0 651.62 568.79" style="enable-background:new 0 0 651.62 568.79">
    <style>
        .Kashmir_Map_svg__Arched_x0020_Green{fill:url(#Kashmir_Map_svg__SVGID_1_);stroke:#fff;stroke-width:.25;stroke-miterlimit:1}.Kashmir_Map_svg__hoverthing7{opacity:.8;fill:#079247}.Kashmir_Map_svg__hoverthing8{opacity:.8;fill:#ec008c}.Kashmir_Map_svg__hoverthing5{opacity:.8;fill:#f15a26}.Kashmir_Map_svg__hoverthing6{opacity:.8;fill:#662f90}.Kashmir_Map_svg__st0,.Kashmir_Map_svg__st1,.Kashmir_Map_svg__st2{fill:#d1bd40;stroke:#000;stroke-width:2}.Kashmir_Map_svg__st1,.Kashmir_Map_svg__st2{fill:#f9ed32;stroke-width:.5}.Kashmir_Map_svg__st2{fill:#fcf8c1}.Kashmir_Map_svg__st3,.Kashmir_Map_svg__st4{fill:none;stroke:#4bace0}.Kashmir_Map_svg__st4{stroke-width:2}.Kashmir_Map_svg__st5{opacity:.7;fill:#fff}.Kashmir_Map_svg__st6{fill:none}.Kashmir_Map_svg__st6,.Kashmir_Map_svg__st7{stroke:#000}.Kashmir_Map_svg__st8{fill:#4bace0;stroke:#4bace0;stroke-width:2}.Kashmir_Map_svg__st9{fill:#736357}.Kashmir_Map_svg__st10,.Kashmir_Map_svg__st11,.Kashmir_Map_svg__st12,.Kashmir_Map_svg__st13{fill:none;stroke:#009247;stroke-width:2;stroke-miterlimit:10}.Kashmir_Map_svg__st11,.Kashmir_Map_svg__st12,.Kashmir_Map_svg__st13{stroke:#f15a26}.Kashmir_Map_svg__st12,.Kashmir_Map_svg__st13{stroke:#662f90}.Kashmir_Map_svg__st13{stroke:#ec008c}
    </style>
    <linearGradient id="Kashmir_Map_svg__SVGID_1_" gradientUnits="userSpaceOnUse" x1="-7.027" y1="771.068" x2="-6.32" y2="770.361">
        <stop offset="0" style="stop-color:#20ac4b"/>
        <stop offset=".983" style="stop-color:#19361a"/>
    </linearGradient>
    <path class="Kashmir_Map_svg__st0" d="M21.38 29.74h609.01v505.91H21.38z" id="Kashmir_Map_svg__Bedrock"/>
    <g id="Kashmir_Map_svg__Karewa_Seds">
        <path class="Kashmir_Map_svg__st1" d="M388.65 329.84c-.92 2.16-1.86 5.32-2.41 7.65-.34 1.45-.29 2.43-.8 3.79-.56 1.48-1.46 2.6-1.69 4.1-.22 1.42.15 2.71-.33 4.08-.39 1.11-1.5 1.89-1.86 2.98-.65 1.97-1.25 5.81-1.05 7.86 3.19.79 3.7-.12 6.45-.84 2.37-.62 3.21.95 5.22 1.72 2.08.8 4.44.84 6.55 1.62 2.18.81 3.53 1.9 6 2.18 3.14.36 10.48-2.37 8.25-6.53-.5-.94-1.75-1.03-2.34-1.83-.59-.82-.6-2.31-1.07-3.28-.76-1.59-2.08-3.14-3.54-4.09-1.14-.75-2.69-.76-2.98-2.47-3.15-.52-4.36-5.84-6-8.22-2.22-3.23-5.22-5.62-7.36-8.41-.34-.08-.69.05-.99 0-.18.36-.23.67-.32 1.04"/>
        <path class="Kashmir_Map_svg__st1" d="M214.49 274.78c1.11.44 2.98 2.91 3 4.09.02 1.07-1.39 1.67-1.38 2.45.02 1.49.95 1.57 1.58 2.54.91 1.4 2.4 3.29 2.53 4.83.16 1.99-.69 4.4-.82 6.54-.15 2.45-.34 3.54.81 5.72 1.05 2 2.7 3.42 4.04 5.19 2.4 3.15 3.59 6.45 4.75 10.08 1.46 4.56 3.77 7.27 8.89 6.23.27-5.53 7.96.3 3.08 1.72-.15 1.73-3.38 3.19-.91 4.9.19 1.17 1.04 1.23 1.35 2.13.41 1.17.05 2.37.32 3.55 1.28 5.63 4.67 6.07 9.65 4.39-.08 1.32.73 2.5.66 3.86 3.89 1.39 10.02.52 13.31 2.69 3.34 2.19 3.89 8.78 5.08 11.9 1.34 3.52 1.56 9.13 3.64 11.89 2.41 3.2 7.37 3.33 9.82 5.68.17 2.28 2.54 3.4 3.45 5.38 1.35 2.91.35 4.88.77 7.88.26 1.85 1.6 3.37 2.59 5.1.62 1.09 1.09 1.58 1.22 2.97.09 1.02-.28 2.31.03 3.28.66 2.06 4.79 1.66 3.84 4.21 1.37.12 2.27-.48 3.33.51 1.2 1.11.41 1.16 2.4 1.44 1.17.17 2.7 1.96 3.32 2.98.46.76 1.25 2.61 1.55 3.54 1.24 3.82-2.66 4.03-3.66 6.61-.33.87.3 2.44.16 3.44-.19 1.4-.66 2.56-1.93 3.31-1.72 1.01-3.93 2.18-5.76 2.97-2.4 1.04-4.59 1.52-7 2.81-1.9 1.01-4.66 1.68-5.36 4.24 3.42 1.35 9.64.87 13.44.51 1.53-.14 2.63-.74 4.18-.87 2.17-.19 2.66.33 3.5 2.1.86 1.81 1.09 1.75 3.32 1.75 1.67-.01 2.42.36 3.84.88 1.76.64 3.3.93 4.76 1.92 1.57 1.06 2.82.79 4.8.69 1.98-.1 2.67.25 4.25 1.14 1.6.9 2.85.89 4.68.99.45 2.57.84 4.16 3.25 5.21.47.2 1.69.5 2.01.74.76.56.36.64.87 1.37.71 1.02 1.21 1.84 1.61 3.11 1.8.11 3.35.23 5.01.58.19 1.39-.9 2.62-.72 3.78.13.8 1.26 1.9 1.93 2.52.9.83 1.86 1.63 3.22 1.23 1.56-.45 1.74-2.07 2.62-3.12 1.18.7 1.4 2.03 2.22 3.11.88 1.16 1.96 2.91 3.02 3.94 1.15 1.12 2.09.69 3.32.89 2.23.37 1.86 1.44 2.06 3.36.21 2.05.81 2.4 2.79 2.75.83.15 1.5.03 2.28.43.63.32.97 1.1 1.47 1.37 1.49.79 3.24 0 4.82.34 1.61.35 2.86 2.03 4.73 2.67 2.08.71 2.73 1.46 4.24 3.05 1.38 1.45 3.62 1.59 4.67 3.02 1.35 1.84 1.17 3.08 3.36 4.18 1.31.66 4.75 1.56 5.4 2.77.98 0 1.68.69 2.63.9 1.02.23 1.93-.01 2.9.38 1.09 3.12 2.93 4.35 6.46 4.14.23-.01.41-.56.91-.51.33.03.6.45.91.49 1.22.18 1.01.54 2.06-.31.7-.56 1.74-3.63 2.8-3.5 1.4.17 1.1 3.24 1.94 3.86 1.45 1.06 3.87-.7 4.12-1.97.34-1.67-.73-3.03-.83-4.68-.16-2.53.13-2.05-2.1-2.66-2.37-.65-2.11-1.73-3.27-3.46-1.41-2.1-4.3-1.49-5.63-3.14-.95-1.18.19-2.62-1.56-3.46-1.55-.75-3.7-.18-5.31-.76-4.89-1.78-.3-3.08-1.4-6.22-.59-1.69-2.51-2.94-3.96-3.36-2.68-.78-4.61.29-6.64 1.88-.04-1.13.02-2.3-.05-3.42-1.25-.58-7.36-3.32-5.44-5.67.15-.18 1.87-.47 2.21-.61.74-.32 1.68-1.39 2.39-1.57 1.79-.46 3.07 1.98 5.07 1.71 1.38-.19 2.58-1.42 3.84-2.1 1.72-.93 3.54-.28 5.12-.99.96-.43 1.94-1.88 2.96-2.45 1.04-.59 2.29-1.3 3.46-1.61 1.25-.33 11.01.23 8.39 2.84-.51.51-2.59.14-3.34.44-.88.36-1.32.91-2.09 1.65-1.94 1.88-4.03 3.19-6.1 4.86-1.79 1.45-1.94 2.54.68 2.96 1.11.18 1.2.19 2.1.66.65.34.54.7 1.36.87 1.29.26 3.17-.47 4.73-.11.32 1.14-.13 2.54.24 3.64.36 1.05 1.51 1.64 2.09 2.42 3.04.51 3.29-2.96 3.67-5.18 1.42-.39 1.23.77 2.21 1.2 1.58.69 1.75-.98 2.7-2.1.88-1.04 2.12-1.69 3.05-2.67.91-.95 1.51-2.21 2.46-2.96 1.01-.8 1.85-1.01 2.83-1.93 2.05-1.92 3.58-3.4 6.6-3.28 1.07.05 1.69.34 2.71.54 1.03.2 2.22-.08 3.23.16 2.89.71.12 4.48-.96 6.32-.65 1.1-1.68 2.49-2.66 3.08-1.19.71-2.58.61-3.67 1.64-1.56 1.48-.56 1.83.92 2.92 1.37 1.02 1.17 2.13 2.07 3.46 1.24 1.84 2.62 3.06 4.34.78 1.27-1.68 1.21-4.03 1.39-6.15.18-2.01.92-4.36 2.62-5.73.47-.38 1.7-1.11 2.27-1.23 1.13-.23 1.45.3 2.59.51.9 3.1 3.32 5.45 2.35 8.89-.87 3.08-3.06 4.78-.88 7.99 1.83 2.7 4.77.18 6.77-1.52 1.35-1.15 1.77-3.22 3.49-3.86 1.75-.66 2.89-.23 4.59-1.56 3.7-2.92 2.75-7.9-.03-11.37-1.68-2.1-3.03-3.39-4.05-5.71-.7-1.59-1.28-3-1.55-4.76-.36-2.35-1.5-4.87-.6-7.03 2.11-5.11 7.16-8.65 10-13.41 1.86-3.11 6.23-7.82 10.01-7.81 3.44.01 8.08 1.68 11.17-.58.56-.41.89-1.17 1.26-1.86 1.47-2.76 3.72-4.84 5.94-7.09 3.54-3.6 6.86-5.79 11.19-8.03 2.04-1.06 5.53-1.55 6.47-4 .56-1.46.32-4.62-.84-5.75-1.32-1.28-2.75.19-4.28.93-1.21.58-3.24 1.25-4.54 1.36-1.64.14-2.14-.85-3.2-2.06-.97-1.11-2.22-2.29-3.28-.44-1.52 2.65 4.41 6.04 1.54 8.59-1.7-.46-3.09-.6-4.3-1.9-1.3-1.39-1.6-2.9-2.13-4.55-1.39-4.31-4.4.93-6.96 1.24-2.1.25-6.57-.68-7.07-2.94-.46-2.06 2.68-4.18 2.83-6.5.22-3.35-4.17-7.92-2.37-11.19.51-.92 1.75-1.3 2.49-2.13.63-.71 1.29-1.7 1.53-2.64.58-2.23-.77-3.58-2.81-4.31-1.44-.51-3.05-.04-4.41-.52-1.38-.49-1.49-1.85-1.95-3.11-1.83.54-6.32.1-6.11-2.63-2.75-.57-2.64-2.27-2.77-4.74-.06-1.21-.3-2.21.16-3.33.35-.85 1.33-1.39 1.59-2.26.67-2.25-.72-4.52.2-6.81.52-1.3 1.07-1.94 1.36-3.32.2-.94.14-2.28.84-2.83.51-.92.49-1.96-.49-2.61-1.39.99-2.07 3.02-3.31 4.21-1.97 1.88-2.91 1.93-5.56.72-.99.78-2.65 2.68-3.23 3.78-.75 1.41-.34 2.65-.65 4.24-.9 4.61-5.14 3.38-8.05 1.72-1.71 2.57-2.65 6.88-6.28 3.67-1.33.91-3.53 2.08-4.5.33-1.2-2.16.98-3.84-2.11-4.69.03-.25-.08-.58-.06-.83-1.16-.61-2.17-.56-3.17-1.37-.74-.61-.98-1.47-1.84-2-.78-1.71.25-3.37.32-5.21.07-2.01.19-4.49-.66-6.22-1.17-2.38-1.79-3.39-1.62-6.3.13-2.34 2.24-6.7.35-8.75-1.83-1.98-6.5-.73-8.94-1.31-1.45-.35-3.38-1.17-4.5-2.06-1.04-.83-1.51-2.29-2.31-3.26-1.75 1.55-2.37 4.77-2.05 6.92.22 1.48.65 2.71-.15 4.2-.65 1.21-2.17 1.85-2.66 3.14-.23.59.32 1.43-.2 1.93-.41.39-1.67.17-2.24.17-1.44-.01-2.73.08-3.84-.87-2.36-2.03-1.94-5.77-3.35-8.53-1.49-.14-4.24-.63-5-2.17-1.03-2.08.92-5.7 1.76-7.43.69-1.45 1.56-3.21 2-4.79.55-1.95-.84-2.01-2.36-3.14-.08-1.35.03-2.67-.37-3.99-.52-1.74-1.08-2.1-.33-3.99 1.14-.04 3.34 1.15 4.32.47.67-.46.72-2.13.74-2.91 1.81-.73 6.65-1.12 7.52.83 1.46-1.12 4.16-2.92 2.45-5.23-.65-.88-.91-.38-1.79-.87-.87-.49-.55-.69-1.17-1.23-.84-.75-2.28-.75-2.97-1.6-1.01-1.24-.04-2.7 1.34-2.94 1.43-.24 2.42.86 3.5 1.58.96.64 2.3 1.67 3.14.36.84-1.31-.77-2.6-1.39-3.33-.92-1.08-1.5-2.01-2.46-2.97-.77-.77-2.33-1.72-2.42-2.94.59-.34 1.02-.88 1.69-1.11.44-1.41-1.36-1.82-1.99-2.94-.43-.76-.83-2.08-.96-2.97-.26-1.84 1.11-6.75-1.95-5.46-2.54 1.07-1.4 4.96-1.19 7.04.25 2.54.04 4.98-1.69 6.86-.47.51-1.21.94-1.63 1.49-.45.59-.36.76-.69 1.43-.75 1.54-1.17 1.89-2.76 2.66-1.28.63-2.02 1.53-3.53 1.52-1.52-.01-2.77-.92-4.16-1.38-1.42-.48-2.74-.43-2.66-2.45.05-1.42.98-2.85 1.24-4.18.34-1.75-.39-2.85-.35-4.38.03-1.21 1.11-2.59 1.63-3.64.66-1.35 1.19-2.47 2.52-3.31 3.7-2.35 1.25-4.59-2.23-4.75-2.17-.1-2.27 1.17-3.84 1.76-1.42.53-3.27-.35-4.41-.5-1.09-.14-.65-.23-1.7.14-.76.27-1.55.85-2.28 1.26-.58.33-1.15.58-1.73 1.04-.58.47-.69 1.43-1.05 1.72-1.36 1.1-2.16-.27-3.32.69-.45.37-.5 1.03-1.01 1.44-.71.57-1.1.32-1.8.65-1.72.81-1.37 1.73-2.05 3.19-.63 1.36-1.98 1.81-3.2 2.4-3.41 1.65-7.77 1.1-11.66.92-2.81-.13-5.3-1.15-8.05-1.27-3.34-.15-6.21 1.74-9.66 1.76-3.05.01-6.5.27-9.42-.8-2.88-1.06-5.6-3.28-8.32-4.76-3.23-1.76-6.55-4.27-7.96-7.79-.68-1.71-.65-3.5-1.4-5.2-.82-1.86-1.97-3.52-3.25-5.09-8.24-10.06-17.71-20.74-29.03-27.4-6.87-4.04-13.6-8.09-20.41-12.23-9.84-5.98-18.56-11.88-27.43-19.2-4.6-3.79-9.59-6.67-13.84-10.58-2.69-2.47-5.89-4.25-8.8-6.44-3.48-2.62-6.44-5.77-9.29-9.07-5.1-5.89-9.28-13.16-14.93-18.29-4.67-4.24-9.39-7.45-15.36-9.29-2.89-.89-4.53-1.94-6.45-4.11-1.96-2.21-3.43-4.68-4.79-7.29-1.32-2.53-.54-6.06-.03-8.8.39-2.14 3.17-4.53 1.52-6.9-.83-1.19-2.4-1.38-3.53-2.19-1.04-.75-2.02-1.39-2.94-2.25-.98-.91-2.3-1.37-3.52-2.01-1.11-.58-2.02-1.41-3.01-2.11-2.05-1.44-4.48-2.02-6.35-3.8-1.2-1.15-2.06-4.6.62-3.77.82.25 1.74.93 2.58 1.35 1.62.82 2.91 1.58 4.8 2.11 1.88.53 7.84 1.49 7.94-1.59.04-1.33-.9-2.6-.84-3.96.03-.6.21-1.01.11-1.59-.1-.6-.59-1.14-.73-1.72-.8-3.27 4.43-1.86 5.81-.65.82.72 2.99 5.13 4.07 2.71.3-.66-.26-1.73-.29-2.4-.04-.82.13-1.64-.28-2.31-.37-.6-1.3-1.62-1.82-2.04-.41-.33-1.17-.49-1.62-.87-.41-.35-.68-.91-1.07-1.23-.39-.32-1.46-.51-1.79-.94-.25-.33-.05-.89-.19-1.25-.34-.9-1.94-.78-1.79-1.75-1.23-.4-2.18-.37-3.45-.54-1.17-.15-2.07-.79-3.32-.84-2-.07-4.65-.46-6.32-1.66-.87-.62-.75-1.43-.75-2.4 0-1.05-.19-1.39-.52-2.29-1.02-2.76 2.66-2.47 4.36-3.36-.57-1.81-2.64-2.11-4.16-2.95-.46-.25-.94-.66-1.45-.87-.38-.15-1-.1-1.32-.3-.54-.35-.28-.71-.65-1.07-.37-.36-1.29-.49-1.89-.63-.4-.09-.84-.19-1.33-.28-1.12-.19-1.66-.95-2.6-1.39-.82-.38-1.55-.06-2.44.21-2.27.68-4.36 1.07-6.49-.07-2.48-1.34-5.26-2.14-8.02-2.66-3.12-.59-4.79-.59-6.27-2.83-1.51-2.28-3.02-2.65-4.84-4.38-1.9-1.8-1.76-4.32-3.33-6.3-1.34-1.68-3.84-2.7-5.92-3.42-.06 2.55 1.93 4.94-.99 5.93-1.71.58-5.34-.52-6.01-2.15-1.44-.13-2.94-.18-4.31.31.01 2.6 2.78 5.5 3.45 8.07.85.02 1.5.5 2.41.41.73 1.82.46 4.16-.31 5.87-2.87-.33-4.56 1.93-2.07 4.08 1.3-.91 4.75-2.39 5.27.04.36 1.68-2.54 3.18-3.2 4.66-2.66.3-4.92 1.66-7.8 1.94-2.17.21-6.81 1.77-8.41.24-2.94-2.82 1.13-14.46-7.63-10.01-1.39-3.46 2.96-7.34 2.22-10.96-.73-3.58-5.5-3.44-6.64-.06-1.71-.19-3.47-.29-5.24-.21-.02 2.98 4.2 4.7 2.73 7.76-1.65.24-2.5-1.05-3.98-1.15-.95 3.12-2.19 4.35-.34 7.48-.72.59-1.41 1.06-2.5.99-.07 2.1 2.45 4.09 3.48 6.17 1.38 2.79.81 3.42.24 6.34-.67 3.4.55 4.73-2.51 6.21-2.09 1.02-5.72.35-7.18 1.89 3.2 2.74 6.4 5.88 9.38 8.86 1.62 1.61 2.72 3.53 5.02 4.09 2.23.55 5.86-.14 7.8-1 1.94-.86 3.48-3.8 6.04-2.46 2.37 1.23 1.53 4.07.32 5.65-1.49 1.95-4.66 1.91-6.31 3.13-2.84 2.1-.92 3.34.07 5.94 3.05.78 4.92 1.25 7.44 3.12-.77.17-1.53.74-2.42.75-.48 2.76 1.56 4.74 4.3 4.4.45 2.31-3.04 3.75-4.93 3.77-1.49 2.14-.82 3.89 1.53 4.6.59.18 2.77-.26 3.83-.01 1.27.29 2.52.81 3.71 1.01 2.55.43 3.88-.49 6.28-.93 2.78-.51 3.56.58 5.95 1.26 5.04 1.42 11.36-.32 16.66-.32 4.8 0 9.63 2.09 13.77 4.45 1.23 7.2-7.46 1.12-9.38.27-1.79-.8-4.04-2.36-6.28-1.9-3.06.63-2.22 2.54-3.13 4.72-1.29 3.08-2.5 1.64-5.72 2.44-2.46.61-4.2 1.85-3.71 4.24.02.07 1.45 2.17 1.59 2.41.71 1.26 1 2.04 1.89 3.23 1.42 1.89 1.89 4.18 3.13 5.58 1.96 2.2 6.69 5.53 9.68 6.65.21 3.67-.52 7.1 1.95 9.99.21.25 1.39 1.28 1.56 1.58.38.67.53 1.37.94 2.2.92 1.85-.16 2.58 2.46 3.2.13 4.11 1.04 3.57 3.25 6.17.6-.03 1.21.25 1.78.42-.65 3.78 5.43 5.15 8.47 5.03.99 3.23 4.89 1.09 6.72-.3 3.24-2.45 4.77-2.92 8.1.24 2.88 2.74 4.43 1.65 8.17 2.83 2.79.88 4.76 2.97 7.81 3.82.21 1.06.05 1.5-.58 2.18-3.82-3.83-11.35-.38-14.08 2.54-.06.06-1.11 3.49-1.2 3.95-.32 1.76-.88 2.4.71 3.74 1.48 1.25 3.23 1.92 4.69 2.94 2.81 1.95 5.35 2.3 8.59 3.33 3.13 1 5.4 1.66 5.23 5.28-2.96.15-5.33-.88-8.18-1.02-3-.15-4.91.2-6.9-2.16-1.55-1.83-2.23-3.85-4.3-5.17-1.88-1.19-5.01-2-6.1-4.22-.25-.02-.53.01-.77 0-1.21 3 1.26 6.1 2.44 8.65.94 2.03 2.7 3.16 4.1 4.74 1.09 1.22 3.15 2.92 3.99 4.23.5.79.49 1.61.2 2.53 2.27-.6 4.08-2.18 6.93-1.85 1.52.18 2.8.92 4.38 1.1 1.17.14 2.55.13 3.8.2.21.01-.3 3.91-.49 4.31-.75 1.63-2.46 2.8-3.42 4.34-1.39 2.22-.73 5.4 1.05 7.11.81.78 6.87 2.97 3.57 4.46.21 1.32 1.42 1 2.12 1.86.81 1 .54 2.07.62 3.33 3.29 2.1 4.3 5.87 7.17 8.2 1.46 1.18 2.19 1.69 3.37 3.2 1.63 2.07 1.69 4.14 2.09 6.7.28 1.81 0 3.8.1 5.63 2.36.93 2.88.14 5.2-.17 2.12-.28 3.89.98 5.89.72 1.51-2.84 7.77-5.36 11.17-4 1.61.64 1.93 3.11 3.86 3.77.5.17 2.48.17 3.06.27 1.08.18 1.94.57 3.21.55"/>
    </g>
    <g id="Kashmir_Map_svg__Holocene_seds">
        <path class="Kashmir_Map_svg__st2" d="M378.55 308.65c.39-.18.81-.35 1.26-.53.64-.24 1.29-.46 1.91-.78.31-.16 1.36-.83 1.53-.88 1.93-.55 4.87.15 6.67.57 2.18.51 4.04 1.88 6.2 2.41.5.12 6.1.41 6.13.54.34 1.58.56 6.11 2.64 6.5 1.9.35 3-3.2 4.32-4.29 3.09 4.06 2.52 7.15 2.01 11.83-.53 4.89 3.7 5.51 6.32 7.76 1.62 1.39 1.87 3.08 4.6 2.87 1.64-.12 3.39-1.4 4.31-2.65 1.09-1.47 1.31-3.52 1.66-5.17.47-2.22.98-2.49 2.37-4.23 3.39-4.24 5.28-7.09 1.71-11.51-1.9-2.35-3.33-3.31-3.15-6.62.12-2.29.3-4.54.06-6.9-.46-4.54-.92-9.25-1.58-13.74-.34-2.27-.3-4.93-.79-7.25-.89-4.19-2.04-7.4-1.36-11.76.51-3.27 1.74-5.23 4.33-1.82 1.01 1.33 1.71 5.92 3.36 6.12 2.19.27 3.98-4.06 6.36-3.63 2.39.42.71 4.94-.38 6.44-.97 1.34-3.38 3.23-4.6 1.23-.87.3-2.06.36-3.06.3-.17 3.62 1.95 3.27 3.46 5.37.74-.08 1.25.34 1.91.39-.33.9-.75 1.97-.86 3.06-.69.42-1.13.9-1.59 1.55-3.03 4.34-3.82 8.68 1.64 11.43 4.09 2.06 7.95 4.22 10.88 7.83 1.4 1.73 1.76 3.8 4.42 3.47 3.07-.38 2.28-3.31 3.46-5.17 1.03-1.62 2.99-3.48 5.11-2.96 2.08.51 2.36 3.63 4.85 3.52-1.13 1.32-1.14 4.94.55 5.74.17.55.16 1.65.01 2.21-2.09-.08-4.29.8-5.88 1.99 1.44 4.01 1.18 5.14 5.64 3.79 2.43-.73 8.06-2.65 8.87 1.09-1.67 2.41-5.97 1.65-4.92 4.67.8 2.32 5.48 5.43.66 5.97-1.47.17-2.81-.5-3.74-1.37-1.03-.96-.79-2.88-1.5-3.68-1.61-1.84-5.98-1.3-8.24-1.16.59 1.6 1.82 1.86 1.62 3.91-.13 1.29-1.3 2.03-1.28 3.39.02 1.36 1.36 2.29 1.57 3.64.17 1.1-.49 5.34-1.13 6.2-1.01 1.36-4.34 1.77-5.66 2.7-.48 3.26-8.35 1.39-10.68 1.39-1.84 0-4.01.03-5.76.58-1.5.47-2.78 1.76-4.54 2.06-1.25 3.12.41 4.91 1.68 7.13 1.24 2.18 2.49 4.61 3.54 7.13 1.06 2.54.99 5.32 2.72 7.04 2.11 2.08 4.94 2.99 7.78 3.42 3.14 10.7 14.43 9.21 23.29 6.2 4.26-1.44 7.84-2.89 11.88-4.75 1.81-.83 3.81-.7 5.19-2.35 1.47-1.76 1.39-4.68 1.99-6.76 1.35-4.71 3.37-8.48 4.26-13.37.91-4.95 3.12-8.1 1.72-12.93-.96-3.31-.47-2.58 2.88-2.88 2.57-.23 3.66-.74 4.82-3 .85-1.66 2.29-4.09 2.72-5.84.5-2.03-.72-4.22.55-6.06 5.95.26 4.27-5.63 8.52-8.06-1.23 4.21.09 9.42-1.1 13.75-1.13 4.15-5.8 6.9-6.33 10.94-.36 2.79 1.37 3.14 2.67 5.09 1.56 2.34 1.1 3.65.43 5.84-.53 1.71-1.89 4.48 1.58 2.65 1.71-.9 2.18-3.9 4.48-3.75.71 1.28 3.72 1.62 5.2 2.02-.94 2.54-4.45 1.79-5.38 3.74-1.76 3.69 4.06 1.38 5.14 2.45 2.21 2.16-1.84 4.79-3.47 5.33-2.65.87-4.81.12-7.43.55.16 1.54 1.25 2.91 1.5 4.51 2.25.27 4.4-.72 6.73-.82 2.4-.1 4.72.06 7.02-.81.87-.33 6.1-2.79 6.15-3.53-.16 2.36-2.06 3.63-3.83 4.98-1.85 1.41-2.69 3.18-4.46 4.75-1.74 1.54-3.8 2.37-5.46 3.96-2.42 2.32-1.63 2.72-1.7 5.84-1.47.48-3.03.75-4.45 1.42 1.66 2.42 5.88 1.89 7.38 4.61 2.23 4.04-4.83 1.39-4.07 5.48-7.56.65-5.04-7.37-10.61-8.02-1.66-.19-3.73.88-5.72.58-1.45-.22-4.88-1.48-5.84.5-1.61 3.32 10.23 5.03 1.45 8.34-3.93 1.48-7.27 2.36-10.21 5.32-2.77 2.78-5.75 6.34-8.98 8.56-4.11 2.82-10.09-1.2-13.76 2.05 1.24 4.98 9.09 1.7 9.49 6.52 2.73.74 7.13 1.12 9.51 2.54 2.21 1.32 2.49 2.67 5.68 2.1 1.97-.36 3.82-1.5 5.74-2.03 2.53-.7 3.37-.87 5.11-2.65 1.45-1.49 2.38-2.75 4.09-3.66 2.06-1.08 4.52-1.51 6.63-2.36 2.36-.96 3.05-2.42 4.89-3.74 2.42-1.74 5.4-1.26 7.76.07 1.55.87 3.67 3.48 4.65.34 3.04-.06 1.12-4.04 1.39-5.81.26-1.7 1.52-3.49 2.79-4.66 3.85-3.58 8.03-5.58 10.2-10.52.51-.13 1.42-.16 1.93 0-.51 2.3-1.97 4.21-3.33 6.04-2 2.68-1.85 4.27-2.65 7.44-.71 2.8-.57 4.74-.88 7.75-.25 2.47-2.16 3.92-4.84 4.07-.23 1.54 5.62 7 1.04 6.36-1.72-.24-4.27-5.77-5.11-.08-.19 1.27.05 2.51-.27 3.74-.31 1.21-1.42 1.53-1.21 3.11-1.7.34-3.36.62-2.87 2.88-2.15.18-3.5-.76-5.37-.77-.67 5.4-11.07 1.28-8.92 6.81 1.54 3.97 4.92 3.53 4.51 8.35-2.5.94-6.83-2.89-9.01-4.08-2.43-1.32-4.92-3.54-5.64-6.19-1.45-.73-2.34.53-3.7.81-1.41.29-5.86-.24-6.34 1.72-.11.43 2.31 5.13 2.67 5.7 1.37 2.18 3.31 3.07 4.61 5.74.87 1.78 1.39 3.87 2.58 5.46 1.47 1.96 4.83 3.18 7.11 4.15 3.29 1.4 6.09 3.26 9.56 3.39 5.23.19 8.66-2.4 11.42-6.37 1.42 1.56 3.1 3.57 5.15 4.4.15 3.55.12 4.39-3.14 5.4-2.2.68-4.52 1.66-6.86 1.52 3.4 3.39 8.91 5.76 13.36 7.76 3.17 1.42 11.75 8.38 5.01 10.29-3.71 1.05-6.83-.71-10.13-2.1-2.64-1.12-5.25-.73-7.99-1.64-1.06-.35-1.37-1.48-2.22-1.81-1.41-.54-3.16.04-4.69-.2-2.65-.42-3.21-2.49-5.68-3.51-2.41-.99-5.19-1.69-7.54-2.53-1.22-.44-4.61-.94-5.97-1.85-2.32-1.56-1.25-3.43-4.65-3.89-3.06-.42-5.32-.9-7.78-2.93-1.78-1.47-3.19-3.03-4.97-4.46-2.69-2.16-4.96-6.35-6.87-8.95-.84-.09-2.23.26-2.47 1.17-.47 1.73 1.21 1.38 1.89 2.31 1.39 1.88 1.7 3.83 3.14 5.75 1.93 2.58 2.81 6.08 5.24 8.27 3.04 2.74 7.4 3.78 10.59 6.7 3.59 3.28 5.45 7.72 8.51 11.39 3.17 3.81 6.47 7.68 10.25 11 1.47 1.29 2.93 3.22 4.25 4.61 1.23 1.29 4.19 3.58 4.04 5.35-2.1.15-4.45-2.24-6.12-3.33-1.97-1.28-3.87-2.6-5.89-3.82-4.33-2.64-8.5-5.16-12.97-7.46-3.4-1.75-6.84-3.86-10.12-6.27-2.21-1.63-3.9-1.67-6.55-2.59-2.61-.9-3.38-1.97-5.25-3.73-1.67-1.57-3.13-2.79-4.59-4.59-1.3-1.61-1.58-3.78-2.96-4.98-.98-.86-3-1.02-4.17-1.79-.9-.59-1.5-1.59-2.3-2.23-1.63-1.29-3.65-1.86-5.45-3.16-2.07-1.48-2.56-3.49-4.91-4.96-2.23-1.39-4.41-1.76-7.24-1.32-6.23.97-11.42 3.73-17.97 2.18-3.81-.91-5.73-1.93-9.57-1.02-3.06.72-4.79 2.83-7.54 3.89-2.37.91-5.06.13-7.48-.21-3.39-.49-6.84-.16-10.28-.29-4.54-.18-10.25-2.23-14.65-.24-3.59 1.63-4 2.84-8.07 1.17-4.81-1.98-9.7-2.39-14-5.61-4.69-3.51-8.94-7.41-14.07-10.28 3.34 1.16 6.58 1.43 9.96 2.32 3.77.99 4.44 3.37 8.64 1.66 3.37-1.37 3.44-1.91 3.45-5.4 0-2.44-1.05-4.89 1.15-6.05 4.2-2.22 9.89 1 13.8 1.16 5.22.22 9.26-2.58 14.02-3.51 5.17-1.02 9.01-4.45 13.88-6.26 5.03-1.87 8.69-3.53 12-8.35 2.73-3.97 4.79-8.47 7.04-12.56 2.45-4.47 3.61-8.79 5.96-13.37 1.09-2.12 2.11-5.71.59-7.97-1.49-2.22-4.65-1.36-7.15-1.49-.11-2.26.19-5.34-1.53-6.28-1.08-.59-7.63-.71-9.08-.51-2.44.33-5.46 3.23-7.7 4.54-7.78 4.51-13.59 10.35-23.13 10.92-4.81.29-5.1 3.29-6.26 7.4-1.37 4.84-3.01 6.59-6.96 9.5-4 2.95-6.56 6.95-9.83 10.56-3.77 4.16-8.38 6.03-13.44 8.14-1.68.7-3.5.59-5.2 1.2-1.61.59-2.75 1.82-4.16 2.66-2.42 1.44-5.67 3.18-8.18 4.02-5.93 1.98-13.16 1.09-19.41 1.09 4.47-.09 5.83-2.39 9.41-4.54 3.24-1.94 8.06-2.13 11.7-2.72 3.67-.6 8.37-1.37 9.8-5.09 1.2-3.13 2.69-9.69 2.24-13.18-1.92-2.63-2.17-6.93-2.01-10.64a.836.836 0 0 0-.54-.03c-1.38-1.05-5.17-.42-6.89-.85-2.18-.54-4.34-1.67-6.61-2.26-1.74-.44-6.32-.38-5.83-2.73.58-2.76 3.89-.74 5.38-.27 4.51 1.43 8.75.55 12.44-1.74 4.19-2.59 4.88-6.45 4.64-11.38-1.91-.4-3.34-2.47-5.31-1.87-1.48-4.3 3.87-7.71 6.35-10.31 1.64-1.73 2.12-3.03 2.42-5.32.36-2.72 2.28-4.92 2.57-7.67.15-1.39-.19-2.83.56-4.02.57-.91 1.97-1.68 2.75-2.49 2.01-2.06 3.63-4.71 5.46-6.9 4.92-5.9 11.75-9.1 16.92-14.77a49.55 49.55 0 0 0 7.71-11.17c1.23-2.54 2.55-3.74 4.67-4.72z"/>
        <path class="Kashmir_Map_svg__st2" d="M232.03 218.6c.52.87 1.05 1.73 1.56 2.6 1.01 1.69 2.79 2.6 3.86 4.09 4.52 6.36-6.74 7.42-3.22 12.02 1.48 1.94 3.61 1.48 6.04 1.48 2.6 0 4.72-.2 6.57 1.28 1.45 1.15 1.54-.14 1.04 1.94-.19.79-1.28 1.7-1.7 2.38-2.21.3-2.77 1.4-4.41 2.5-1.86 1.24-3.34 1.32-5.57 1.65-1.91.28-4.66.54-6.31 1.56-1.4.86-1.78 3.15-4.01 1.83-1.26-4.38 5.81-5.48 7.26-8.65.68-1.47.83-4.96-.09-6.38-2.28-3.55-10.88-1.46-13.93-.26-3.24 1.27-8.05 3.11-9.88 6.2-1.05 1.78-1 4.24-2.13 5.79-1.03 1.42-3.9 3.45-5.38 4.44-2.04 1.35-4.17 1.16-6.34 2.09-2.11.9-4.07 3.1-5.53 4.84-1.3 1.57-2.44 3.11-3.53 4.91-.81 1.34-2.83 3.49-2.34 5.21.89.25 1.79.12 2.68.31 4.6 1.01 5.82-.42 9.6-3.2 3.03-2.23 8.72-2.7 12.42-2.74 2.75-.03 5.63 1.17 8.52 1.3 2.62.12 5.27 0 7.89 0 2.51 0 4.39 0 6.56-1.03 1.84-.87 3.55-2.4 5.38-3.02 1.17 3.1 1.09 4.63-1.77 6.51 2.12-.03 3.01.23 4.35-1.07 1.19-1.15.88-3.15 2.9-2.97-.86 2.52.54 3.73 1.77 5.68 1.52 2.41 1.29 3.74 1.53 6.53.22 2.54.78 5.21 2 7.45.75 1.38 2.94 3.1 2.38 4.82-.27.81-3.03 2.35-3.9 2.66-2.34.82-4.8-.23-6.69 1.48-1.83 1.66-1.87 3.71-.88 5.94 1.07 2.4 2.47 3.65 3.06 6.27.48 2.15.72 4.64 1.64 6.75 2.27 5.19 5.96 8.19 5.67 14.24-.11 2.27-.39 4.7-.29 7.08.06 1.47.45 2.07.76 3.05.38 1.21 1.16 1.68.92 3.17 2-.03 2.84-3.39 3.56-4.86 1.77-3.61 4.13-8.04 3.22-12.27-.86-3.98-5.53-6.81-5.73-10.9-.11-2.19.43-3.85 2.18-4.9 1.77-1.07 4.86.14 6.49-.87 1.39-.87 1.88-3.2 2.24-4.57.68-2.55.44-3.5 3.22-4.69.14-.77.14-1.86 0-2.63-2.05-.69-1.07-2.36-1.92-3.8-.73-1.24-2.17-.83-2.44-2.47-1.91-.74-2.62-3.81-3.78-5.5-.91-1.32-.8-1.93-1.36-3.27-.53-1.27-1.12-2.25-1.42-3.57-.23-1.01.35-1.84-.29-2.8-.78-1.16-4.1-1.2-3.75-3.46.14-.93 2.49-2.29 3.34-3.2 2.6-2.77 4.16-6.4 4.88-9.84 1.58-.08 3.24-.09 4.82.01.22.23.62.6.82.82.7 3.46 2.59 7.39 5.56 9.16.77.46.82 1.27 1.84 1.43 1.53.23 1.31-.88 2.45-1.11 2.27-.45 4.54.06 6.01 1.1 1.49 1.06 2.53 3.17 3.74 4.42.86.88 1.48.68 2.25 1.59.63.75.99 1.76 1.36 2.7.6 1.52.88 4.57 2.81 4.44.4-.03 1.23-1.49 1.56-1.71.68-.45 2.05-.94 2.92-1.1 4.01-.74 3.09 4.49 4.43 7.36 1.74 3.72 5.14 6.51 5.98 10.69 1.62 8.07-1.45 12.39-8.5 15.05-5.87 2.21-16.5-.39-16.55 8-.03 4.34 1.9 4.28-2.1 7.38-2.42 1.88-7.07 2.37-7.3 6.02 5.36 2.73 12.01-5.63 16.3-8.08 2.7-1.54 7.07-.46 9.54-2.33 2.31-1.75 1.3-6.77 6.01-5.45.25 1.43.25 3.41-.01 4.84-3.06 2.08-6.08 2.08-7.55 5.96-1.2 3.16-.8 6.32-2.45 9.54-6.61.92-10.77 5.12-16.33 8.17-1.18 4.49 4.7 5.49 6.83 2.83 2.08-6.74 11.17-10.04 17.07-11.9 6.76-2.13 12.94-5.29 18.99-8.64 6.5-3.6 11.59-7.57 17.91-11.5 6.56-4.08 11.7-8.07 17.13-.39-.09.32-.06.63.07.93.63.18 1.24.4 1.83.67 1.66 6.59-.36 11.98-5.02 16.84-3.05 3.17-6.35 8.04-10.3 11.16-1.6 1.26-.46 7.43-.36 9.19 1.54-.01 2.34-2.04 2.81-3.25.61-1.57.86-2.35 2.09-3.66 1.17-1.25 1.62-2.58 2.45-3.85 1.68-2.54 5.17-3.52 6.63-6.12.67-1.19.76-2.43 1.88-3.41 1.96-1.72 5.58-.8 8.04-1.52 2.23-.65 4.9-3.79 6.24-5.6.8-1.08 1.21-2.26 2.15-3.27.96-1.04 2.1-1.77 3.02-2.8 1.04-1.16 2.15-3.87 2.1-5.45-.06-1.88-1.79-2.85-2.63-4.42-.95-1.76.77-1.7 2.26-2.19 3.22-1.06 5.88-1.94 9.55-2.16.01-.23.03-.42 0-.65-.18-1.66-6.5.18-7.21.44-2.13.8-3.87.02-5.47-1.78-1.48-1.65-1.81-3.23-1.12-5.14.5-1.39 1.11-2.74 2.09-3.72.77-.76 2.55-1.21 2.28-2.55-.53-.2-.92-.88-1.41-1.04-.57-.19-1.29.05-1.89-.03-1.12-.16-2.16-.72-2.97-1.4-1.1-.92-.97-1.41-1.23-3.14-.18-1.24-.72-2.11.39-2.94 2.4-1.78 6.23 1.16 8.18-.73 1.97-1.91-.32-5.12-1.05-7.15-1.57.53-2.43 1.47-4.37 1.2-1.34-.18-2.07-.86-3.49-.88-2.31-.03-7.83 2.17-6.79-2.24 1.59-.79 6.05-2.78 1.55-3-1.55-.08-3.14.01-4.67-.21-2.67-.38-6.28-1.56-7.78-4-2.53-4.12-3.01-10.46-.48-13.72 3.29-4.24 9.17-6.38 11.22-11.39 3.38-8.26-6.59-9.29-5.02-15.91 4.22-2.01 6.65-3.27 11.83-3 .87 2.51 3.41 3.61 6 2.83.86-2.86.7-8.85-3.84-7.99 0-1.48-.81-2.81-.65-4.35-1.66-.08-3.26-.13-4.75.46 1.31-1.24 2.67-2.33 4.24-3.12.41-2.69-1.01-4.49-2-6.83-4.43-1.22-7.95 3.65-10.91 6.21-.47-.37-.31-.78-.59-1.21-3.67.64-5.46-3.31-4.99-6.51-3.57-.79-5.52 1.85-8.35 2.86-.11-2.09-.04-4.27-.15-6.36-2.22-1.13-4.11-.28-5.84.51-.63 1.74-1.82 3.12-3.5 3.33 1.24-.16 3.6-8.12.37-9.34-2.23-.84-5.15 1.89-7.31 2.47-3.08.83-6.44.53-9.57.37-1.11-5.54 4.97-4.68 6.07-7.78 1.34-3.77-5.17-5.18-3.03-9.03 1.03-1.85 6.66-2.5 8.4-4.1 2.29-2.11 2.95-5.97 6.9-6.6 3.19-5.73 20.28 4.43 24.51 5.66-.1 4.08 6.76 8.88 10.07 10.55 2.36 1.19 5.43 1.08 7.89 2 2.59.97 4.47 2.21 7.12 2.88 5.28 1.32 10.32 1.71 15.99 1.99 3.04.15 6.08.89 8.99 1.01 4.9.21 5.01-1.42 8.45-3.59-.34-6.71 13.47-10.93 19.46-10.91 9.89.02 16.27-1.57 23.18-7.97-4.22-4.68-18.07.9-22.96 2.09-7.58 1.84-15 5.23-22.53 6.97-4.39 7.14-12.82 8.6-19.68 5.79-7.31-2.99-16.44-2.68-23.36-6.5-3.34-1.85-5.43-4.44-9.04-5.9-3.76-1.52-7.18-1.81-4.65-6.62 1.79-3.39 6.15-3.04 8.55-4.84 2.31-1.73 4.32-5.8 5.65-7.81-8.01 2.78-13.11 6.21-22.47 5.73-.69-4.45 2.02-7.05 2.86-10.89-5.11 3.1-14.92 12.12-20.84 11.39-1.51-.19-1.26-2.83-3.73-2.57-.26.03-3.73 3.24-4.62 3.78-2.9 1.79-6.02 3.74-9.25 4.99-4.65 1.8-6.44 2.64-10.1 5.65-3.22 2.65-6.97 7.04-10.9 7.72-6.43 1.11-8.31-3.56-12.61-7.44-1.46-1.32-2.11-1.41-2.83-3.39-.58-1.56-.28-3.15-1.3-4.63-1.13-1.65-4.13-2.24-4.67-4.2-.69-2.5 3.05-5.46 4.67-6.92.72-2.41 1.09-4.42.93-7.12-3.16-1.59-10.96-6.27-10.26-10.68 2.94-1.15 2.31-7.74 6.81-6.92.21 2.82-3.93 2.28-3.67 4.93 1.75.13 3.48.62 5.31.38.67-.09 1.51-.91 2.17-.97.87-.08 2.2.53 2.84.34 1.18-.35 1.1-.85 1.89-1.26-.16.08 2.3-1.21 2.14-1.01 1.16-1.42 1.52-2.35 1.37-4.28 2.18-.76 1.47-2.49.21-3.46-3.01-1.52-5.27-2.68-8.74-3.2-2.38-.36-7.41.31-7.91-2.77-1.96-.71-1.33-3.03-2.11-4.4 3.11-.48 5.55-3.34 7.82-5.12 2.02 1.56 7.49 1.68 10.06 2.23 2.18.46 7.88 3.07 10.04 1.91 3.23-1.73-5.41-3.47-6.6-4.07-4.66-2.38.1-4.4-.37-7.83-5.06 1.4-8.99 6.34-14.08 6.87-2.77.29-5.67-.35-8.41.07-1.08.17-7.74 1.93-5.36-1.9 3.48-.22 9.39.97 12.11-1.38 2.22-1.92 1.46-3.07-.86-3.7-1.08-.29-2.4.3-3.47.02-.92-.24-1.84-1.27-2.76-1.64-.98-3.52 3.31-5.18 5.38-7.01 1.94-1.73 4.26-4.72 5.28-7.07-2.13-2.73-7.39.52-9.47 1.87-1.52.99-2.98 2.18-4.37 3.14-1.41.97-2.88 1.88-3.83 3.41-2.16.7-3.53 2.17-5.6 2.88-1.14.39-2.24.56-3.23.94-1.27.49-1.52 1.51-3.31 1.2-.31-.97-.89-1.41-1.04-2.41-3.01-.9-3 2.97-6.23 1.84-2.42-.85-2.68-4.08-4.72-5.1-2.27-1.14-1.53-.36-2.9 1.02-.5.5-.13 1.25-.61 1.81-.46.53-1.47.15-1.82.7-1.39 2.16-.12 4-.36 6.85-2.73 1.21-3.81-.6-6-1.75-2.05-1.08-3.63-1.1-6.17-.97.43 2.83 3.99 4.99 5.24 7.8 1.67 3.77-.43 6.49-2.38 9.76-.75 1.25-1.81 2.51-2.02 4-.4 2.8.86 1.94 2.04 4.07 2.5 4.53-4.5 4.85-5.17 1.71-1.27-.45-2.54-.82-3.98-.63.88 4.5-4.38 3.41-6.57 2.71-3.81-1.21-6.13.63-10.07.34-.07-1.42-.02-2.89-.09-4.3-4.55-.2-6.51 3.46-10.63 3.72-3.15.2-2.71-.54-3.47-3.14-.92-3.15-.91-1.33-3.13-3.2-3.02-2.54-2.6-5.73-7.22-6.22-4.1-.43-8.49.74-12.27-.69-1.09-.41-2.26-.87-3.29-1.36-.56-.27-1.53-1.38-1.98-1.86-.55-.6-.58-1.15-.95-1.87-.52-1.01-1.63-1.51-2.38-2.4-.81-.97-1.41-1.51-2.6-2.08-.91-.43-1.86-.63-2.74-1.15-.85-.5-1.66-1.03-2.65-1.41-1.15-.44-2.55-.33-3.66-.78-.74-.3-1.57-1.1-2.06-1.71-1.32-1.61-2.08-3.77-.65-5.69 1.05-1.41 2.89-1.75 3.44-3.63.25-.87.2-2.23.08-3.15-.15-1.11-.18-2.94-.63-3.96-.5-1.15-2.13-1.6-2.62-2.68-.4-.87.02-2.34.04-3.26.02-1.25-.43-2.02-.84-3.11-.56-1.53-.43-3.26-.93-4.71-.7-2.01-2.02-3.32-3.03-5.07-1.02-1.77-2.83-3-4.79-3.56-1.03-.3-2.11-.55-3.12-.94-1.57-.61-.9-2.49-.43-3.67 1.67-4.18 6.74-2.69 10.37-2.5 2.91.15 5.88.01 8.8 0 1.51 0 3.01-.11 4.41.31 1.51.44 3.16 2.36 4.53 2.7 3.67.91 3.5-1.52 5.73-2.77 2.07-1.16 5.11.12 7.09 1.26 2.44 1.41 3.58 3.21 4 6.04.54 3.65-.37 3.89-2.84 5.65-4.32 3.07-.14 3.2 2.46 6.15 1.92 2.17.37 5.11 2.27 7.33 4.04-.81 3.35-2.51 4.14-6.19.26-.26.37-.32.63-.63.69-.13 1.78.02 2.41.31.12 2.38-.38 5.29.36 7.48.27.78 1.48 3.02 2.51 3.18 1.54.23 1.69-1.35 2.51-1.53 1.93-.43 5.59 1.03 6.61 3.07 1.21 2.43-1.22 5.94 3.41 4.98-.45-1.58-.89-5.75-.27-7.48 1-2.79 3.66-1.45 5.02-3.45 1.8-2.65-2.58-2.27-4.39-3.39-1.42-.88-4.03-3-4.8-4.7-1.31-2.85.15-3.44-2.76-5.42-1.45-.98-3.6-2.02-5.07-3.08-3.13-2.26-10.49-3.04-8.36-8.5 3.11-.18 6.32-.07 9.37-.37 4.8-.46 6.9 1.27 11.11 3.54 4.09 2.21 7.53 2.8 12.22 3.12 3.95.27 7.2 3.39 11.17 2.71.2-1.89-5.56-5.07-7.19-6.5-3.03-2.65-7.68-1.91-10.66-4.13-.55-.41-.42-1.51-.92-1.98-.59-.55-1.61.11-2.16-.61-1.01-1.34-.86-2.31.02-3.6 1.55-2.3 5.56-2.65 4.59-6.32-3.17.39-5.38 3.04-7.51 4.72-2.32 1.83-5.05.93-7.59 2.44-1.47.87-1.4 2.2-3.38 2.86-1.39.46-2.88.23-4.4.31-3.07.15-5.78.27-8.75-.36-.27-3.79 4.24-4.33 2.78-8.96-1.15 1.44-4.41 5.16-6.28 5.56-2.09.45-6.23-3.03-6.97.87-2.19.29-4.35-.49-6.53-.58-2.39-.1-3.98.4-3.49-3.13.25-1.76 1.94-3.19 2.22-5.03.28-1.79-.05-3.8.05-5.6 1.49-2.25 6.9-4.31 7.12-7.55-2.5.92-3.59-.83-5.92.83-1.55 1.1-3.02 3.22-4.01 4.53-3.1 4.13-1.89 8.11-3.75 12.26-1.44 3.2-5.59 5.27-8.64 6.2-3.31 1-4.48-.33-7.16-.3-2.08.03-3.74 1.65-5.28 2.79-.55-3.36 1.03-6.16-.07-9.39-.7-2.07-.54-1.81-2.2-3.16-1.22-.98-2.61-.26-2.88-2.44-.37-.34-.33-.16-.63-.63-.4-.03-.75-.02-1.16-.01-.57 4.5 1.28 9.82 2.52 13.46 2.52 7.38-11.8 2.79-14.9 4.31-2.43 1.19-1.3 3.96-3.03 5.43-2.03 1.72-5.89-.08-8.14 1.56-.78.57-.93 1.77-2.26 2.51-1.54.86-1.98.66-3.85.94-2.56.38-4.83 1.07-6.89 2.14-2.8 1.44-7.17 2.45-9.81-.05-1.41-1.34-1.98-4.97-4.13-5.64-.13 2.56.85 5.1.45 7.68-.5 3.2-4.72 3.75-7.17 5.07-1.86 1-5.5 3.17-3.55 5.98 1.51 2.17 8.16 1.25 10.41 1.12 2.69-5.54 7.33 4.44 10.4 6.27 2.75 1.64 5.87 1.59 8.89 2.18 3.3.64 5.41 1.63 9.04 1.66 4.31.03 14.83 6.18 16.96-.32 2.21-6.75-5.07-7.81-9.42-7.54-2.89.18-3.37 1.89-6.2.86-1.37-.5-2.2-1.29-3.86-1.49-1.53-.19-2.55.22-3.84-.63-2.7-1.79-2.28-4.71.08-5.98 2.73-1.47 3.95-.73 5.96-3.43 4.13-5.54 7.98-2.52 13.82-3.79 4.21-.92 9.57-5.55 13.12-.86.76 1 2.6 4.58 2.29 5.9-.47 2.02-2.9-3.42-4.01-4.11-5.21-3.23-8.18 5.29-6.37 9.12 1.17 2.48 3.89 3.48 5.98 5.1 1.8 1.41 4.26 3.87 5.71 5.84 1.86.39 5.2 2.82 5.88 4.4-3.75.66-6.23-2.71-8.74-4.74-2.96-2.39-5.82-4.21-9.62-4.56-.49 2.2.08 4.2-1.92 5.87-.79.66-1.49 1.25-2.19 1.95-.64.64-1.73.96-1.47 2.07.2.12.17.19.31.31 1.45 1.28 5.33.91 7.1.91 1.96 0 3.93-.18 5.89-.18 3.62-.01 3.97.19 5.87 2.83 1.46 2.02 2.76 3.73 3.61 6.14.64 1.82.98 3.75 1.69 5.51-2.96-1.4-5.15-1.39-8.36-1.91-2.95-.48-5.45-2.63-8.5-3.12-2.93-.48-5.96-1.28-8.46-1.91-4.34-1.09-5.22-.08-6.02 3.73-1.49.42-7.77.45-7.5 3.19.21 2.13 5.93.23 5.71 4.98.49.03.98.11 1.48 0 .31-1.35 2.42-3.63 3.19-4.98 1.43-2.52 1.64-2.34 5.03-2.51 5.19-.27 9.13 1.89 13.83 2.51 4.14.55 14.37 4.13 15.37 8.93.66 3.19-2.9 4.26-4.73 5.92-4.02 3.65-7.03 7.9-12.52 9.58-4.19 1.28-9.32.67-13.82.38-2.35-.15-7.28-1.87-9.14 0 .16.37.52 1.23.71 1.52.45.3.29.27.63.63 3.45-.02 7.77.7 11.28 1.23 3.6.55 7.49.24 11.24.44.37 1.71-.58 5.26-1.19 6.89-.69 1.82-2.84 3.31-2.48 5.58 1.67-.18 3.07-1.28 3.98-2.52.75-2.94 2.69-5.08 4.47-7.48 1.63-2.2 2.64-4.57 4.29-7 2.56-3.76 7.24-4.27 10.71-6.9 2.27-1.73 10.96-5.6 12.96-1.5.77 1.58-.34 5.68-.34 7.54 0 2.86.58 4.55 1.25 6.93.6 2.12.6 4.81 2.13 6.57 1.02 1.17 2.07.71 2.59 2.21.24.7-.52 2.34-.67 3.09-5.41 1.98-11.23-.54-16.67 1.3-2.72.92-3.62 2.29-6.84 2.21-2.52-.06-3.94-.57-6.21-1.19-2.96-.8-2.35.15-5.18 1.43-1.85.83-4.43.32-6.47.43-.33 3.94 4.37 6.31 7.81 6.24 3.99-.08 6.57-3.04 10.67-3.46 4.29-.44 8.41-2.6 12.88-2.21 3.79.34 7.89.48 11.89.67-.19 1.03-.39 2.2-.22 3.36 1.31-.06 2.75-.03 3.99.42-.31 4.53-7.38 5.1-10.28 7.17.53.97 1.59 1.56 2.69 1.64-1.76.57-1.24 2.58-.8 3.97 3.14-.27 6.3-1.87 9-3.48.88-.52 2.76-2.2 4.08-1.12.97.79.21 3.16 1.04 4.33-1.04 2.26-2.05 3.77-1.73 6.36.32 2.51 1.16 3.02.35 5.8-.93 3.2-2.28 5.32-5.49 6.76-2.83 1.27-14.83-.4-15.43 4.28 3.19.61 6.9.78 9.96 1.99 2.4.95 3.8 3.26 6.91 2.71 1.76-4.46 5.33-6.5 9.88-6.54 2.91-.03 3.84.08 4.64-2.81.85-3.09.28-2.79 2.63-4.72 3.48-2.87 7.64-5.43 12.43-4.41 5.74 1.23.17 8.38 3.72 10.97.35-1.26 1.65-7.01 4.15-5.96 2.13.9-.75 5.44-1.35 6.6-4.35 8.42-9.13 16.4-14.99 23.89-3.63 4.63-3.51 8.81-5.12 14.11-.68 2.25-.88 5.08-1.88 7.17-1.06 2.23-4.13 3.41-3.94 6.01 5.23-3.6 8.47-10.11 8.78-16.58 3.4-.89 3.49-6.34 4.58-8.92 1.37-3.24 4.51-4.1 7.62-5.27 4.26-1.6 7.16-.75 6.61-6.27-.39-3.82.58-6.68.67-10.31 2.4-1.01 1.8-5.74 4.35-7.67 3.24-2.45 4.14-.14 7.22 1.02 1.28.48 3.94.49 4.73 1.87.73 1.28-.48 3.91-.02 5.35.66 2.1 3.35 3.12 4.7 4.73 1.54 1.84 1.74 4.21 4.99 4.42 1.3.07 4.58 7.21 5.25 8.33z"/>
    </g>
    <g id="Kashmir_Map_svg__drainages">
        <path class="Kashmir_Map_svg__st3" d="M237.93 483.57c-1.55-1.74-3.14-2.99-3-5.65.12-2.18 2.2-3.73 3.34-5.46 1.3-2 2.2-3.88 3.82-5.77 1.41-1.65 3.09-2.44 4.5-3.9 1.41-1.46 1.92-3.69 1.17-5.66-.8-2.09-4.59-5.3-.33-6.04 1.04-2.77 5.06-2.68 7.68-2.68 3.94.01 6.36-.4 9.58-2.07 2.68-1.39 6-1.83 8.61-3.45 1.41-.88 2.21-2.05 3.55-3 1.6-1.13 3.66-1.33 5.36-2.3 1.77-1.01 3.21-2.51 5.06-3.42 2.21-1.09 4.9-.76 7.37-.76 4.72 0 9.56.66 13.41-1.85 4.16-2.71 8.3-3.67 12.75-5.18 3.96-1.35 10.18-2.23 12.8-5.78 2.56-3.47.73-10 2.53-14.05 2.02-4.54 5.51-6.07 9.26-9.04 2.34-1.85 4.95-1.84 7.62-3.28 5.11-2.76 9.21-6.35 14.66-8.85 1.87-.86 3.76-.86 5.6-1.63 2-.84 3-2.54 4.76-3.48 2.17-1.16 4.28-.7 6.61-1.09 2.37-.4 3.94-1.1 6.49-1.1 5.81.02 9.84-1.81 14.92-4.17 3.46-1.6 10.24-1.95 11.8-6.21 1.69-4.59-1.1-11.38 2.24-15.21.31 4.11.97 11.59-1.08 15.21-1.76 3.12-5.59 3.38-8.33 5.19-1.26.83-1.91 2.42-3.04 3.14-1.85 1.18-3.9.44-5.9.94-1.51.38-2.52 1.66-4.08 1.92-3.29.56-8.03-.43-10.83 1.43-1.2.8-1.38 2.42-2.45 3.28-1.51 1.2-2.94.9-4.71.8-2.12-.11-4.81-.44-6.82.22-1.58.52-2.94 1.96-4.37 2.7-3.4 1.77-6.97 3.29-9.86 6.01-1.4 1.32-2.08 2.85-3.81 3.75-1.97 1.03-4.51 1.64-6.55 2.46-3.37 1.36-7.98 5.32-9.82 8.49-1.27 2.19-.91 4.05-1.28 6.5-.32 2.14-1.56 4.36-2.39 6.31-2.12 4.98-5.02 7.43-10.43 8.74-2.37.57-4.79.42-7.08 1.02-2.06.54-3.85 1.53-5.71 2.25-8.7 3.39-18.02 3-27.54 3M282.08 484.66c1.02-4.15 2.71-7.45 3-11.99.3-4.62 4.07-6.53 5.7-10.37.61-1.44 1.84-4.48 3.3-5.38 1.62-1 4.11.04 6-.59 1.83-.6 3.15-1.41 5.16-1.92 1.83-.46 2.96-1.85 4.91-1.91 2.37-.06 3.45 2.11 5.98 1.09 1.46-.59 2.97-2.51 3.9-4.01 1.14-1.83.7-3.73 3.2-4.46 2.04-.59 4.95.13 7.09.03 5.13-.25 7.28-.04 11.1 3.07 1.72 1.4 3.66 1.5 5.59 2.58 1.65.92 2.28 2.39 3.83 3.53 2.22 1.63 2.67 1.03 5.1.56 2.53-.49 4.27.02 6.53.88 2.13.82 2.91 2.59 4.91 3.27 1.8.61 4.03.96 6 1.08 4.55.29 8.84-1.92 13.63-1.09 2.21.38 4.02 1.5 6.54 1.36 2.87-.16 2.49-1.59 4.42-2.96 2.89-2.05 8.53-2.5 11.87-3.38 4.05-1.07 8.04-2.48 12.08-3.75 2.09-.66 4.75-1.54 6.34-3.18 1.4-1.45 2.09-3.81 3.4-5.26 2.91-3.22 5.89-4.77 7.09-9.27.5-1.86.58-3.67.61-5.64-.49 6.27-9.36 9.75-13.86 12.78-.65 3.68-5.13 8.03-8.16 9.82-4.31 2.55-8.89 1.63-13.69 2.66-2.28.49-2.75 2.14-4.63 2.73-2.24.7-4.58-.86-6.34-1.91-3.29-1.98-8.94-2.76-12.45-.26s-5.43 5.49-10.64 4.64c-2.29-.37-3.71-1.93-5.72-2.73-2.03-.81-4.31-.72-6.55-.83-1.94-.09-4.82.57-6.28-.53-1.01-.76-1.76-3.04-3.19-4.17-1.44-1.14-3-1.6-4.43-2.65-1.29-.95-2.36-2.78-3.81-3.28-2.42-.84-6.93-.44-9.55-.27-3.26.21-6.45 1.5-9 3M263.27 401.8c-.08-2.34 2.63-4.57 4.15-5.95 1.73-1.58 5.59-2.9 6.25-5.18 2.59-1.05 3.18-3.1 6.22-3.58 3.44-.54 4.98.98 7.86 2.22l.09.45c1.95.64 4.9.32 6.77-.56 1.87-.89 2.67-2.62 4.62-3.48 3.97-1.75 8.25-.82 11.73-3.82 3.47-2.98 5.38-5.9 9.81-7.03 2.31-.59 3.76-1.18 5.78-2.46 2.1-1.33 2.27-2.11 3.7-4.14 1.72-2.45 4.23-2.85 6.6-4.83 3.45-2.88 3.01-6.98 4.78-10.67 2.12-4.43 5.55-8.11 8.77-11.75 2.12-2.39 3.8-5.59 6.56-7.43 3.04-2.03 7.1-.89 10.12-2.73 2.59-1.57 3.36-5.01 5.37-7.13 1.55-1.64 4.05-1.94 5.19-3.94.98-1.73.75-5.54-.37-6.98"/>
        <path class="Kashmir_Map_svg__st3" d="M315.61 406.7c3.49-1.7 4.66-7.11 7.43-9.75 2.08-1.98 3.03-.88 5.64-.87 2.54.01 3.19-.82 4.64-2.46 2.91-3.28 2.98-7.23 4.96-10.58 1.91-3.22 5.26-6.55 8.46-8.72 1.96-1.33 3.51-3.09 5.32-4.43 1.88-1.41 4-1.1 5.75-3.25 1.46-1.79 2.6-4.11 4.26-5.66 1.95-1.82 3.33-3.87 5.35-5.59 1.89-1.61 4.24-2.56 6.24-4.02 1.35-.98 3.65-1.84 4.59-3.33 1.17-1.86.61-3.86 2.73-5.17 2.24-4.31-1.01-6.14-1.38-10.46-.15-1.79-.47-3.95-.21-5.84.3-2.19 1.48-3.8 1.63-6 .36-5.12-2.73-6.65-5.8-9.74-1.42-1.43-2.22-3.3-3.37-4.92-1.18-1.65-2.69-2.43-3.95-3.81-3.59-3.93-.34-7.76 4.18-8.32.1-1.8-1.17-2.77-1.9-4.35-.76-1.65-.81-2.33-.63-4.23.13-1.37 1.22-3.14.85-4.6-.35-1.36-1.78-2.22-2.87-3.17-2.8-2.43-4.38-3.16-8.34-3.15-3.39 0-2.24-2.52-4.24-4.67-1.42-1.52-2.85-1.77-3.75-3.73-1.7-3.71-.69-7.97-2.94-11.43"/>
        <path class="Kashmir_Map_svg__st3" d="M331.96 408.34c.53-4.32.77-9.11 3.04-12.74.98-1.58 2.8-2.76 3.71-4.49.97-1.84.79-4.27 1.68-5.95.86-1.62 2.76-2.95 3.97-4.36 1.22-1.41 2.46-2.39 4.02-3.47 1.55-1.06 3.02-2.34 4.62-3.27 1.86-1.08 3.77-1.55 5.73-2.72 2.09-1.25 4.12-2.38 6.42-3.12 1.17-2.56 4.38-4.04 6.75-5.21 2.83-1.4 3.82-2.82 6.02-5.01 2.4-2.37 3.61-2.13 3.38-6.11-.16-2.92.97-3.93 1.44-6.61.43-2.47-.54-5.04-1.15-7.19M311.52 489.56c-1.03-3.4-2.43-5.96-.76-9.54 1.46-3.13 4.98-6.54 7.8-8.22.65-3.79.3-7.19-1.05-10.3-1.71-3.95.87-6.06.55-9.82M222.94 454.4c1.26 3.31 9.14 2.94 11.93 2.39 1.9-.38 3.52-2.31 5.23-2.96 1.53-.58 4.1-1.14 5.74-1.34M390.01 496.92c-1.79-.86-.47-3.81.06-5.18.78-2 .78-3.48 1.03-6 .42-4.19 2.76-8.15-2.12-10.5-1.76-.85-4.02-.87-5.58-1.69-1.32-.7-2.65-2.7-3.53-3.83-2.21-2.83-4.83-6.75-1.85-9.87"/>
        <path class="Kashmir_Map_svg__st3" d="M382.38 499.38c.02-2.59.04-3.4 2.17-4.7 1.69-1.03 3.76-.78 4.41-2.88.46.07.55-.17.77-.32M428.18 359.95c1.56 1.75 2.13 3.98 2.36 6.33.28 2.77-.14 6.56-.34 9.35-.22 3.04-1.94 5.57-1.21 8.73.89 3.89 4.6 6.69 5.38 10.64.79 4.04 1.67 7.9 1.71 12.25.04 4.48 2.02 7.95 2.94 12.33.5 2.39.06 4.96.06 7.57M229.52 390.43c.2-1.34 1.25-2.62 2.06-3.69 2.77-.62 3.75-.61 5.7-2.64 1.43-1.49 2.68-2.86 4.16-4.24 1.27-1.19 2.8-3.05 4.46-3.53 2.15-.62 5.52.01 7.78.01 6.83 0 7.12-3.91 10.92-8.11 3.08-3.41 7.03-4.73 8.11-10 1.09-5.31.99-9.39 4.82-13.5 3.53-3.79 10.39-2.8 13.28-7.44 4.62-1.44 8.18-4.48 11.69-7.59 1.52-1.35 3.78-3.17 6.09-3.67 2.24-.49 5.38.86 7.49.02 1.92-.76 2.68-3.77 3.74-5.48 1.12-1.82 2.69-3.25 3.99-4.95 1.41-1.85 2.61-3.55 4.69-5.05 1.58-1.15 3.77-1.57 4.53-3.49 1-2.52-1.2-3.97-1.44-6.34-.29-2.85.26-5.36-.86-7.83-1.06-2.32-1.87-3.42-2.01-6.26-.51-10.57-1.73-21.01-2.35-31.57-1.41-1.08-3.54-1.58-4.7-2.91-1.56-1.79-1.33-3.8-3.65-5.13-3.92-2.24-7.57-2.19-9.79-6.3-1.16-2.15-.93-3.63-3.37-4.4-2.02-.63-4.06.33-5.94-.64-1.47-.76-3.83-2.86-4.76-4.17-1.42-2.02-.05-3.06.03-5.2-2.25-1.05-4.56-1.21-6.82-2.12-.8-4.35 1.82-8.45-3.23-10.59-1.94-.82-5-.22-6.03-2.58-.68-1.55-.52-3.85-1.14-5.47-.54-1.41-.58-4.32-1.37-5.53-.91-1.39-3.33-1.52-4.32-2.87-1.3-1.77-.43-3.65-.93-5.69-.88-3.61-3.35-8.96-7.17-10.36-2.3-.84-10.43-1.32-9.16-5.69 2.25-1.38 4.92-2.4 7.38-3.26.26-.47.3-.83.29-1.34-7.05-.85-4.14-10.26.57-11.89 6.83-2.37.99-23.99-6.2-23.95-.23-2.15-1.91-3.52-3.57-4.43"/>
        <path class="Kashmir_Map_svg__st3" d="M465.26 168.77c-2.35.19-4.39 1.74-6.6 2.31-2.24.57-4.89.39-7.2.85-5.03 1-8.43 4.14-13.51 4.61-4.11.38-10.22.2-13.29 3.15-2.64 2.54-4.17 7.88-7.34 9.58-3.41 1.82-10.19.87-14.15 1.07-2.91.14-5.35.05-7.9-1.08-1.98-.88-4.03-2.3-6.11-2.74-8.83-1.86-15.92-6.82-24.44-9.76-4.5-1.56-8.04-4.11-12.17-6.32-2.13-1.14-4.3-1.44-6.6-2.22-2.04-.69-3.59-2.14-5.75-2.61-4.34-.95-10.42 1.43-14.1 2.87-4.29 1.68-8.79 3.29-12.91 5.05-7.47 3.18-13.39 7.33-22.81 7.33-2.38 0-4.79.13-7.17 0-2.63-.15-4.89-1.08-7.58-.8-3.08.32-7.94 3.3-10.76 1.95"/>
        <path class="Kashmir_Map_svg__st3" d="M390.8 132.84c-5.4-.35-5.03 7.13-6.56 9.56-2.32 3.69-7.33 4.73-9.88 7.93-4.47 1.07-7.57 7.85-9.23 11.55-1.75 3.89-8.03 8.84-12.57 8.34M366.66 127.37c-1.68.9-2.73 3.06-4.24 4.32-1.63 1.36-3.22 2.93-4.39 4.58-.96 1.36-2.15 2.72-3.08 4.1-1.42 2.11-1.41 4.23-2.36 6.26-.89 1.91-2.35 3.47-3.4 5.25-1.09 1.85-1.65 4.12-2.71 5.96-1.68 2.93-5.44 6.76-8.86 7.19M182.09 311.08c.92-3.75.06-6.52-1.16-9.77-1.19-3.16-.99-6.13-1.14-9.77-.15-3.73-1.49-6.88-2.01-10.36-.81-5.4 3.2-5.86 4.65-10.3 2.16-.21 3.64-2.06 5.76-2.86 2.3-.87 4.36-1.31 6.55-2.31 3.94-1.79 8.22-2.41 12.07-5.24 3.43-2.53 7.04-4.97 10.42-7.68 3.47-2.79 4.83-6.63 7.78-9.49.88-.85 1.92-.63 2.27-2.03 2.83-.95 6.5-4.66 8.79-6.73 3.39-3.05 6.99-5.46 11.82-6.3.72-3.5.44-6.45-1.04-9.51-1.32-2.73-1.38-5.46-3.29-7.91-2.71-3.48-4.86-2-8.34-.99-3.52 1.02-6.51-.48-9.96-.55-1.11-2.54 1.25-3.89 2.54-5.94.89-1.42 1.82-3.3 3.1-4.94 2.59-3.35 7.03-6.62 2.16-10.43-1.55-1.21-3.87-1.87-5.19-3.44-1.45-1.72-1.34-3.8-2.12-5.89-1.78-4.76-2.25-8.5-2.25-13.88v-2.59M207.1 342.13c-.19-2.71 1.88-10.4 4.95-11.17 1.29-.32 2.33.91 3.45 1.04 1.41.16 2.23-.67 3.67-.51 1.7.18 4.7 1.37 6.35 2.01 2.91 1.13 2.05 2.15 2.86 4.89.5 1.72 1.76 3.29 3.15 4.59 1.48 1.38 3.04 3 5.19 3.23 2.02.22 3.71-1.13 5.46-2.14 2.3-1.34 4.33-2.48 6.05-4.53 1.91-2.29 1.72-3.53 1.72-6.61 0-2.4.92-4.73.88-6.9-.04-2.53-1.79-4.33-2.68-6.61-.99-2.52-.56-4.61-1.06-7.19-.49-2.53-1.79-4.13-3.1-6.4-1.57-2.73-3.83-9.87-1.88-12.93 2.56-4 11.07-3.14 7.63-10.35-3.74-7.84.76-16.53-.92-24.96-.42-2.13-1.5-4.09.76-5.8 1.77-1.34 4.38-1.01 6.63-1.14 5.52-.32 8.73-4.41 13.42-5.91 2.43-.78 5.26.05 7.64-.87 2.01-.78 3.61-2.36 6.02-2.59 5.01-.47 10.11-4.01 11.22-9.26"/>
        <path class="Kashmir_Map_svg__st3" d="M227.51 263.07c2.88-.69 5.02-2.37 7.2-4 2.65-1.98 5.28-3.23 8.04-4.98 1.94-1.23 5.12-4.11 5.99-6.32 1.09-2.75.23-6.93.38-9.96.25-.12.51-.02.77-.09 1.3-2.96 6.04-2.74 8.6-4.33 3.73-2.31 3.49-3.56 1.88-7.2-.5-1.12-.11-3.85-1.01-4.76-.79-.8-3.32-.83-4.48-1.54-1.63-1.01-1.57-1.41-3.79-1.96-1.76-.44-3.28-.57-5.17-.57"/>
        <path class="Kashmir_Map_svg__st4" d="M219.46 161.3c-3.39 2.9-7.23 3.39-11.51 4.02-4.76.7-6.69 2.88-10.69 5.12-2.34 1.3-3.7.27-5.97.92-2.14.61-2.87 3.09-5.18 3.74-2.41.68-4.5-1.21-6.91-.58-.72.19-2.26.61-2.52 1.5-.62 2.09 1.08 1.19 1.67 2.01 1.24 1.73 1.97 3.35.81 5.64-2.82 3.03-4.2-2.33-5.99-3.72-3.49 1.35-.6 9.13-3.5 12.12-2.07 2.13-6.98 4.54-9.73 5.73-3.96 1.7-8.91-.06-12.93 1.73-2.91 1.3-8.25 3.71-8.58 7.14 3.32 2.29 3.37 6.91-2.06 5.86-1.92-.37-2.88-1.61-5.18-1.5-2.33.11-3.97.26-6.27.05-.45 2.55-3.5 2.23-5.3 3.63-1.91 1.49-3.96 3.93-6.49 4.42-.99 2.14-3.59 1.68-5.51 2.25-1.88.56-3.54 1.6-5.4 2.36-2.18.89-3.67 1.76-5.46 3.21-1.91 1.55-3.38 2.29-6.11 1.4-2.3-.75-3.07-1.96-5.74-2.08-2.51-.12-4.22-.67-6.33-1.14-1.3-.29-5.48-1.42-6.54-.24-.57.63.21 2.6-.05 3.4-.39 1.18-1.05 1.51-2.02 2.35-4.73 4.12-10.07 3.02-14.63 7.43-2.24 2.17-7.24 5.02-8.85 7.3-2.43 3.44.79 10.79-5.88 10.06-.31-.03-8.45-5.47-8.5-5.47-1.49.02-2.28-4.6-2.87-5.6-1.57-2.67-5.37-3.43-8.19-3.33-.07 1.6.23 2.53.7 3.99"/>
        <path class="Kashmir_Map_svg__st3" d="M209.4 63.55c-.21-.4-.84-.62-.62-1.68.05-.23-4.75-3.09-5.51-3.31-1.88-.56-3.87-.55-5.77-1-2.99-.7-5.94-1.4-8.99-1.98-1.35-.25-2.65-.8-4.03-1.07-1.36-.27-2.78-.31-4.17-.41-2.59-.2-5.27-.05-7.85-.29-1.86-.18-3.9-.17-5.63-.7-2.02-.61-4.25-.63-6.47-.84-5.42-.51-10.76.6-16.06.6-1.53 0-2.81-1.27-4.33-1.17-1.14.08-2.72.71-3.83 1.06"/>
        <path class="Kashmir_Map_svg__st3" d="M189.85 87.99c-1.09-2.92-4.36-6.6-6.69-8.86-1.63-1.58-2.38-2.12-3.15-4.3-.62-1.78-1.03-3.39-2.31-4.88-2.4-2.8-4.78-4.73-6.47-8.18-1.47-3.01-1.37-7.3-4.96-8.85M55.59 79.65c2.62-.14 5.61-.44 8.05-1.22 2.16-.69 5.07-.57 7.03-1.71 1.99-1.15 2.84-3.61 5.38-4.14.03-.15.06-.3.09-.46 3.16-.67 7.08-.86 9.54-3.1 2.5-2.27 6.27-3.59 9.36-4.88 1.83-.76 3.48-.41 5.36-.75.92-.16 1.87-.74 2.71-1.12 1.11-.5 2.3-.84 3.37-1.38 2-1.02 3.24-2.91 5.61-3.13 2.31-.22 4.79-.36 7.07 0 1.55.24 3.12 1.31 4.29 2.29 1.76 1.48 3.57 2.85 5.1 4.53 1.63 1.79 3.48 3.1 3.96 5.58.45 2.3.06 4.8.29 7.14.32 3.38 2.86 4.6 4.57 7.23.71 1.1.81 2.1.75 3.41-.04.91-.54 1.74-.72 2.63-.12.6-.09 1.03-.42 1.57-.8 1.29-2.73 2.06-3.23 3.53-.3.88-.03 2.59.19 3.44.35 1.4 1.21 3.26 2.53 4.07.93.57 2.44.7 3.51 1.14 1.19.49 2.33 1.15 3.39 1.77 1.17.69 2.45.99 3.62 1.69 1.02.62 1.37 1.33 2.18 2.16.54.55 1.37.74 1.91 1.28.51.52.72 1.03 1.32 1.49 1.33 1.01 3.05 1.68 4.64 2.16"/>
        <path class="Kashmir_Map_svg__st3" d="M65.66 48.89c-1.39 2.74-4.79 4.91-5.4 8.11-.64 3.35 2.41 5.7 5.06 6.89.16.07.87 2.79 1.15 3.22.63.95 1.5 1.7 2.47 2.27 2.63 1.52 5.91 1.25 8.8 1.61M54.73 150.09c1.99.47 3.77 1.99 6.03 2.3 3.23.45 4.2-1.56 6.91-2.25 2.96-.75 4.21.52 6.55-1.86 1.59-1.62 2.86-3.3 4.88-4.58 2.48-1.57 4.73-1.76 7.62-2.16 2.92-.4 5.1-1.98 7.97-2.37 5.52-.75 10.88.24 16.1-1.73 2.23-.84 3.88-1.7 6.32-2.01 2.02-.25 3.88-.57 5.81-1.37 3.6-1.48 6.76-3.71 10-5.6 3.48-2.04 7.08-2.65 10-5.4 1.84-1.73 3.84-3.98 6.37-4.66 1.49-3.85 6.64-3.25 9.71-2.64 4.46.88 8.42 1.82 12.59 3.57 4.26 1.8 5.94 4.3 9.08 7.57 1.59 1.65 2.78 1.98 5.38 1.71.87-.09 2.03-.67 2.88-.46.89.22 1.12 1.26 2.24 1.42 1.1.16 2.1-.44 3.18-.31s2.1.89 3.17 1.04c2.27.33 4.8.14 7.07.25 2.67.13 5.22.02 7.82 0 2.14-.02 4.13.35 6.36.25 1.28-.06 2.44-.53 3.91-.49 1.64.04 2.67.88 4.14.98M166.85 252.14c1.39-.36 2.6-1.2 3.98-1.77 1.09-1.83 2.26-4.02 3.86-5.98 1.45-1.78 3.42-3.33 4.24-5.47 1.9-4.95-.05-9.12 3.68-13.58 1.58-1.89 2.23-3.82 3.49-5.69 1.35-2 3.22-3.5 4.33-5.73 2.05-4.09 6.2-6.6 7.98-10.94 1.56-3.8 1.12-7.32 2.09-11.19.99-3.98 4.54-5.52 7.39-8.35 1.68-1.68 2.21-2.46 3.01-4.82.57-1.69.48-4.17 1.59-5.81 1.02-1.51 2.99-1.91 3.83-3.44.69-1.26.97-4.01.85-5.48M238.44 403.65c.04-.29-.04-.52.05-.81 4.09-2.14 8.11-2.43 12.1-4.59 1.87-1.01 3.76-2.18 5.46-3.45 1.25-.94 3.81-2.26 4.82-3.51 1.22-1.5 2.02-3.69 3.11-5.25 1.24-1.78 3.01-3.63 3.79-5.68.75-1.97.31-4.73 1.42-6.4 1.02-1.54 4.55-2.96 6.14-3.59 4.02-1.61 6.22.23 9.13 2.52 2.86 2.25 7.06 2.66 10.69 3.39 4.09.82 8.12-.28 11.73-1.37 2.73-.82 9.14-2.34 11.21.28M533.14 508.9c.43.63.23 1.27-.02 1.91-2.9.36-5.67-1.08-8.05-2.59-2.37-1.5-4.95-2.21-7.48-3.45-2.82-1.38-3.71-3.31-6.04-5.4-1.89-1.7-4.58-1.97-6.4-3.64-1.92-1.76-3.56-4.52-5.39-6.48-4.33-4.62-8.81-7.18-14.89-8.9-.45-.37-.19-.3-.87-.57-.44-2.41-2.47-4.92-3.51-6.84-1.27-2.36-2.16-5.37-3.72-7.78-2.47-3.81-4.28-7.84-7.42-11.23-3.14-3.39-6.74-5.96-9.62-9.71-2.34-3.05-2.7-8.45-4.47-12.27-2.18-4.69-4.93-9.01-7.6-13.36-1.43-2.32-2.62-4.71-4.32-6.86-2.09-2.64-4.43-3.71-7.4-4.94"/>
        <path class="Kashmir_Map_svg__st3" d="M565.89 499.96c-4.14 0-10.67 1.15-14.09-1.14-4.06-2.72-6.39-8.42-7.18-12.94-.86-4.93-3.44-9.32-7.7-12.14-3.6-2.4-8.36-3.01-11.86-5.96-3.68-3.11-5.82-7.13-9.83-9.43-4.73-2.7-9.44-5.22-14.38-7.53-2.6-1.21-3.76-1.73-6.83-1.73-3 0-5.97 0-8.93-.28-5.65-.54-6.88-5.72-11.49-8.07-2.78-1.42-5.96-1.87-8.33-4.51-2.22-2.48-3.41-5.76-3.6-9.07-.07-1.3.47-1.73-.04-3.31-.41-1.3-1.51-2.34-1.9-3.66-.83-2.79-.56-6-1.6-8.77-.9-2.41-3.15-3.83-4.38-6.07-1.34-2.46-1.47-4.54-2.07-7.14-.52-2.26-1.82-4.34-2.59-6.61-.8-2.36-1.31-5.15-2.52-7.2-1.14-1.95-2.01-2.51-2.61-4.87-.52-2.06-.92-3.98-2.19-5.82-.97-1.41-2.4-2.66-3.47-4.02-1.35-1.73-1.5-3.83-2.67-5.39-1.38-1.83-4.16-2.28-6.12-3.23-2.46-1.19-3.18-2.47-4.84-4.49-4.27-.96-3.81-4.53-6.2-7.03-1.42-1.48-3.34-1.01-4.98-2.22-1.52-1.12-1.77-3.09-2.05-4.85-1.99-.01-6.12-1.58-6.49-3.85-.28-1.71 3.61-4.12 5.35-4.86-.21-2.72-5.85-3.82-6.29-6.85-.42-2.85 1.9-2.42-.84-4.87-.82-.73-2.17-.99-2.82-2.09-.49-.83.01-1.75-.34-2.54-1.2-2.67-2.7-1.8-4.34-3.42-1.65-1.62-.91-4.15-2.5-5.77-2.21-2.26-7.86-1.56-10.95-1.38-.97 2.48-4.62 3.2-7.24 3.11"/>
        <path class="Kashmir_Map_svg__st3" d="M566.47 413.71c-3.03.17-6.61 5.11-8.04 7.47-1.72 2.84-3.14 5.54-5.47 8.34-2.73 3.27-3.61 6.67-4.59 10.64-.94 3.78-3.19 6.73-4.37 10.59-2.41.5-5.53-1.37-7.71-2.03-2.42-.73-5.33-1.76-8-1.32-.63 1.43-2.13 1.89-2.85 3.18-.84 1.51-.27 3.19-.94 4.83-1.3 3.2-4.72 4.08-7.47 4.59M551.8 256.74c-2.43.28-4.65 1.23-6.89 2.3-2.51 1.19-5.73 1.37-8.07 2.56-2.3 1.17-4.8 3.74-7.12 5.27-2.02 1.33-4.07 1.7-5.22 3.68-.96 1.65-1.55 3.56-2.68 5.37-1.19 1.91-1.88 3.74-2.23 6.12-.69 4.74.82 9.56.51 14.15-.29 4.31-3.08 8.13-5.05 11.79-2.16 4.02-2.93 8.72-4.66 12.87-1.8 4.32-3.62 8.45-5.81 12.59-1.68 3.18-3.33 6.46-4.27 9.96-.84 3.16-.96 6.38-2.63 9.3-1.17 2.03-2.65 3.77-3.39 6.11-1.05 3.32-1.41 5.02-3.53 8.07-1.83 2.63-1.93 4.54-1.93 7.74 0 5.02.33 8.93-3.16 12.64-4.3 4.56-8.68 2.15-13.8 4.39-1.79.78-2.92 2.48-4.83 2.85-2.16 3.34-12.5 3.67-15.86 1.96"/>
        <path class="Kashmir_Map_svg__st3" d="M516.16 198.67c-3.69-1.1-6.85-7.2-11.56-4.97-2.62 1.24-1.85 3.28-2.87 5.82-.92 2.3-2.27 4.56-3.76 6.56-3.31 4.44-6.85 7.11-7.12 13.23-.22 5.09 2.46 8.65 1.72 13.86-.49 3.44-1.34 6.6-.27 10.05.91 2.91 3.54 5.73 5.4 7.83-.01 3.72 2.95 6.23 4.87 8.87 1.18 1.62 2.28 2.8 3.53 4.24 1.02 1.17 2.06 4.03 3.39 4.43.84 2.94 3.97 4.77 6 6.68 2.19 2.06 3.38 5.01 4.67 7.64M344.52 249.84c-4.02-.03-6.09 6.3-10.88 5.42-.59-2.19-.56-4.7-1.23-6.82-4.91-1.52-8.05 1.04-12.9.53M156.45 29.75c-1.48-.09-2.96-.68-4.42-.15-1.37.5-2.24 1.76-3.11 2.86-1.11 1.4-2.14 3.15-2.76 4.87-.34.95-.59 1.92-.67 2.94-.1 1.17-.67 2.24-.8 3.42-.11.95-.06 1.96-.37 2.88-.58 1.78-2.06 2.78-3.58 3.62-1.62.89-3.01 2.23-4.89 2.6-2.32.47-4.72.38-7.11.5-4.12.21-7.29 1.84-10.83 3.86-.55.31-1.28.68-1.98.85-.61.15-1.44.07-1.88.6M169.31 335.4c-5.13.36-8.62 3.64-13.37 5.17-3.8 1.22-14.14-1.42-14.08 4.05-1.65.67-6.14.55-7.23 1.44-2.37 1.91-1.73 3.76-2.8 7.16-1.65 5.19-3.99 9.99-5.03 15.52-1 5.32.59 9.2-2.93 13.8-3.22 4.2-8.04 7.7-12.03 10.07-2.05 1.22-4.54 1.85-6.37 3.6-1.5 1.43-2.02 4.78-3.97 6.05-4.29 2.79-11.96.2-16.18-1.52-10.77-4.39-18.72-6.46-30.16-2.83-4.43 1.41-8.25 1.35-13.08 1.6.21 1.08-.5 2.87-.35 3.8-4.73.57-9.26 2.07-13.92 2.96-1.97.38-3.84.69-5.85.43-.07-1.33-.21-2.85.15-4.12"/>
        <path class="Kashmir_Map_svg__st3" d="M131.31 308.73c.35 5.97-6.86 5.55-10.63 6.7-5.12 1.56-8.78 4.89-13.39 7.14-4.73 2.3-10.41.75-15.35 2.78-3.72 1.53-7.8 7.04-10.66 10.05-6.06 6.39-17.13 9.98-21.31 18-2.36 4.53-1.58 8.92-1.98 14.02-.42 5.35.84 7.69 1.31 13.31.41 4.83-.57 13.58-4 16.67M198.64 438.73c-.21 5.61-6.97 10.48-8.68 15.98-.81 2.6.48 6.34-1.95 8.05-2.88 2.02-8.69-1.35-11.01-2.04-13.26-3.96-25.66.82-38.91-2.77-.67-2.43-1.1-6.19-2.25-8.42-1.29-2.49-4.76-3.6-5.7-5.6-1.49-3.18-.04-6.93-1.31-10.01-.86-2.09-4.44-5.6-6.05-8-3.07-4.58-7.62-8.69-11.65-13.03-3.79-4.09-4.65-9.8-11.17-12.23-.53.59-1.44.96-2 1.41M208.64 468.73c-8.27-2.29-11.35-5.33-20.67-5.33M128.64 470.73c-4.22-1.12-8.39-3.59-12.67-4-4.66-.44-8.26 1.35-12.67 1.85-6.44.73-18.88-1.77-20.78-9.07-6.76.2-12.78-5.04-18.72-7.95-6.55-3.21-12.79.1-18.65-3.35-2.22-1.31-3.42-4.32-5.84-5.35-2.21-.94-4.88-.33-7.19-.2-3.43.2-6.8-.92-10.18-.72-.08 1.31-.03 2.66-.03 3.98M225.31 378.73c0-3.51-.09-7.09.12-10.55.9-.69 1.27-1.33 2-2 2.08-.96 4.2-1.7 6.44-2.23 4.7-6.68 11.23-13.84 18.77-16.57 5-1.81 8.88-3.09 13.18-6.81 3.35-2.9 6.02-7.32 9.31-10.02 6.98-5.73 15.24-11.14 22.86-16.28 1.9-1.28 4.37-3.66 6.49-4.4 2.89-1.01 5.41-.1 8.03-1.82 1.77-1.17 2.48-4.16 3.99-5.49 1.92-1.7 4.2-1.62 6.13-3.32.76-.67 1.79-.79 2.57-1.28 1.37-4.7 1.86-9.95 2.78-14.55M255.97 426.73c-.22-6.78 7.51-5.37 11.83-6.83 5.62-1.91 6.64-5.91 9.65-10.35 2.6-3.84 6.5-6.78 9.01-10.33 2.49-3.52 3.98-7.87 6.85-11.15"/>
        <path class="Kashmir_Map_svg__st3" d="M101.31 494.07c-.84-2.8-1.15-5.47-1.98-8.02-.77-2.36-3.18-3.43-2.8-7.2-3.09-3.19-4.79-8.23-7.89-12.11M41.97 326.73c-.63 3.77 2.15 5.3 2.66 8.67.54 3.53-2.42 8.89-1.34 12 2.19 6.3 11.17 5.82 14.68 11.33M20.64 350.73c0 6.6-.27 13.33.12 19.88 3.75 2 6.69 8.57 10.07 11.93 3.85 3.83 6.35 10.18 11.7 11.63.59 1.21 1.3 2.59 1.45 3.89M87.31 437.4c-.02 8.33-3.84 15.4-10.67 20"/>
    </g>
    <g id="Kashmir_Map_svg__text">
        <path d="M134.19 280.11c.46.61 1.02 1.43 1.61 2.55.72 1.37.94 2.54.7 3.48-.2.86-.79 1.62-1.75 2.13-.97.51-1.89.63-2.73.38-1.17-.32-2.2-1.3-2.91-2.66-.22-.41-.4-.8-.49-1.17l-4.3 2.27-.73-1.38 10.6-5.6zm-4.44 4.12c.08.34.25.74.5 1.21.88 1.67 2.23 2.26 3.71 1.48 1.42-.75 1.57-2.11.76-3.64-.32-.61-.61-1.04-.8-1.25l-4.17 2.2zM127.91 293.88l7.7-4.07.74 1.4-7.7 4.08-.74-1.41zm10.69-3.66c-.47.27-1.04.12-1.33-.44-.26-.49-.06-1.05.41-1.3a.968.968 0 0 1 1.34.41c.28.53.07 1.07-.42 1.33zM135.17 294.8c.91-.48 1.68-.91 2.37-1.33l.65 1.23-1.49.85.03.06c1.22-.2 2.32.3 2.82 1.24.08.16.13.28.16.42l-1.32.7c-.04-.16-.1-.31-.2-.5-.52-.99-1.64-1.29-2.79-.93-.21.07-.45.16-.69.28l-4.11 2.17-.73-1.38 5.3-2.81zM165.74 342c.55.54 1.22 1.28 1.96 2.29.91 1.25 1.29 2.38 1.18 3.35-.07.88-.56 1.72-1.43 2.35-.89.65-1.78.89-2.65.77-1.2-.15-2.36-.98-3.26-2.22-.27-.38-.51-.74-.65-1.08l-3.93 2.86-.92-1.27 9.7-7.05zm-3.82 4.7c.13.33.35.7.66 1.12 1.11 1.53 2.53 1.92 3.89.94 1.3-.94 1.26-2.31.24-3.71-.4-.55-.75-.94-.97-1.12l-3.82 2.77zM164.19 360.27l.81-.75-.03-.04c-.84.01-1.88-.39-2.61-1.39-1.04-1.43-.56-2.89.46-3.63 1.7-1.24 3.74-.4 5.7 2.33l.15-.11c.58-.42 1.52-1.34.47-2.79a4.41 4.41 0 0 0-1.86-1.46l.63-.91c.8.31 1.66.97 2.31 1.86 1.57 2.16.48 3.75-.94 4.78l-2.64 1.92c-.61.44-1.19.91-1.61 1.34l-.84-1.15zm3.46-2.8c-.99-1.42-2.39-2.83-3.76-1.83-.83.6-.82 1.44-.35 2.1.67.92 1.67 1.08 2.42.85.16-.05.33-.13.46-.22l1.23-.9zM171.6 359.65c.73-.53 1.31-.98 1.87-1.44l.83 1.14-1.11.92.02.03c.92-.14 2.17.2 3.02 1.37.71.98 1.23 2.91-1.19 4.67l-4.21 3.06-.93-1.28 4.06-2.95c1.14-.83 1.78-1.94.9-3.14-.61-.84-1.69-1.07-2.56-.77-.2.06-.44.19-.66.35l-4.24 3.08-.93-1.28 5.13-3.76zM169.04 371.24c.47.55 1 .94 1.55 1.01.66.05 1.31-.22 3-1.45l5.9-4.29.93 1.28-6.4 4.65c-1.37.99-2.42 1.42-3.51 1.26-.98-.16-1.89-.92-2.39-1.6l.92-.86zm13.47-4.74c-.41.32-1 .28-1.37-.23-.35-.48-.21-1.05.22-1.36.45-.33 1.04-.25 1.39.23.34.47.21 1.03-.24 1.36zM177.73 378.92l.81-.75-.03-.04c-.84.01-1.89-.39-2.62-1.39-1.04-1.43-.56-2.89.46-3.63 1.7-1.24 3.74-.4 5.7 2.33l.15-.11c.58-.42 1.52-1.35.47-2.79a4.41 4.41 0 0 0-1.86-1.46l.63-.9c.8.31 1.66.97 2.31 1.86 1.57 2.16.48 3.75-.94 4.78l-2.64 1.92c-.61.44-1.19.91-1.6 1.34l-.84-1.16zm3.46-2.81c-.99-1.42-2.39-2.83-3.76-1.83-.83.6-.82 1.44-.35 2.1.67.92 1.67 1.08 2.42.85.16-.05.33-.13.46-.22l1.23-.9zM190.34 374.52l.93 1.28-10.34 7.51-.93-1.28 10.34-7.51zM214.22 417.64c.72.37 1.67 1 2.51 1.67 1.31 1.04 1.97 1.95 2.13 2.96.14.8-.1 1.66-.69 2.4-1 1.25-2.45 1.46-3.72 1l-.03.04c.53.84.43 1.86-.13 3.03-.74 1.57-1.24 2.67-1.34 3.19l-1.27-1.01c.06-.39.5-1.38 1.17-2.77.76-1.54.64-2.43-.44-3.36l-1.16-.92-3.27 4.12-1.23-.97 7.47-9.38zm-2.21 5.3l1.25 1c1.31 1.04 2.71.98 3.58-.1.97-1.23.51-2.47-.77-3.51-.59-.47-1.06-.75-1.3-.85l-2.76 3.46zM218.26 436.14l.58-.94-.04-.04c-.81.23-1.92.13-2.89-.64-1.38-1.1-1.31-2.63-.53-3.62 1.31-1.65 3.49-1.39 6.12.72l.11-.14c.45-.56 1.1-1.7-.3-2.81-.63-.5-1.45-.83-2.18-.9l.37-1.04c.86.08 1.86.49 2.72 1.17 2.09 1.66 1.46 3.48.38 4.85l-2.03 2.55c-.47.59-.9 1.19-1.19 1.73l-1.12-.89zm2.59-3.63c-1.33-1.1-3.06-2.08-4.11-.76-.64.8-.4 1.61.23 2.11.89.71 1.9.59 2.56.17.14-.09.28-.21.38-.34l.94-1.18zM225.23 433.56c.56-.71 1-1.29 1.41-1.89l1.1.87-.83 1.18.03.02c.85-.38 2.15-.39 3.28.51.94.75 1.96 2.48.1 4.82l-3.24 4.07-1.24-.98 3.12-3.93c.87-1.1 1.19-2.34.02-3.27-.82-.65-1.91-.58-2.67-.05-.18.11-.38.3-.54.51l-3.26 4.1-1.24-.99 3.96-4.97zM240.4 442.59c-.42.47-.89 1-1.55 1.83l-3.15 3.96c-1.24 1.57-2.31 2.28-3.45 2.34-1.16.09-2.27-.47-3.13-1.15-.82-.65-1.56-1.56-1.82-2.37l1.06-.7c.23.64.73 1.46 1.58 2.13 1.27 1.01 2.73 1.08 4.09-.64l.6-.76-.03-.02c-.88.33-2.02.26-3.08-.58-1.69-1.34-1.76-3.75-.26-5.63 1.84-2.31 4.39-2.43 5.95-1.18 1.18.94 1.34 2.07 1.19 2.88l.03.02.87-.98 1.1.85zm-3.42 1.68c.17-.21.3-.41.38-.62.35-.9.21-1.97-.69-2.69-1.18-.94-2.83-.61-4.08.97-1.06 1.34-1.27 2.99.07 4.05.76.61 1.83.67 2.73.1.24-.16.46-.37.62-.58l.97-1.23zM240.2 448.36c-1.3 1.7-.78 3.24.46 4.23.89.71 1.55.98 2.17 1.15l-.49 1.06c-.59-.15-1.52-.52-2.61-1.38-2.1-1.67-2.26-4.05-.62-6.11 1.63-2.06 4.14-2.72 6.12-1.14 2.23 1.77 1.26 4.2.27 5.46-.2.25-.39.43-.5.54l-4.8-3.81zm4.35 2.01c.64-.78 1.28-2.28-.12-3.38-1.25-1-2.72-.28-3.5.5l3.62 2.88z"/>
        <g>
            <path d="M39.19 377.98c.14.81.55 1.82 1.26 2.63 1.06 1.2 2.31 1.34 3.23.54.85-.75.91-1.67.3-3.31-.78-1.95-.82-3.55.46-4.68 1.42-1.25 3.51-1 5.07.77.82.93 1.2 1.8 1.33 2.41l-1.24.52c-.1-.44-.36-1.29-1.09-2.11-1.1-1.24-2.26-1.06-2.88-.51-.85.75-.78 1.67-.16 3.36.76 2.06.71 3.5-.63 4.68-1.4 1.24-3.54 1.27-5.43-.88-.77-.88-1.36-2.06-1.47-2.83l1.25-.59zM43.73 386.02l6.54-5.76 1.05 1.19-6.54 5.76-1.05-1.19zm9.54-6.06c-.39.37-.98.36-1.4-.11-.37-.42-.31-1 .1-1.36.42-.37 1.02-.35 1.4.09.4.44.32 1.01-.1 1.38zM53.47 383.88l-2.56 3.79c-.56.83-1.08 1.6-1.65 2.32l.04.04c.79-.43 1.69-.84 2.58-1.24l4.28-1.88.88 1-2.38 3.89c-.57.93-1.09 1.73-1.62 2.46l.04.04c.76-.47 1.6-.91 2.56-1.37l4.1-1.96 1.04 1.17-8.4 3.66-.95-1.08 2.24-3.75c.53-.87 1.01-1.63 1.64-2.47l-.02-.03c-.93.53-1.78.92-2.69 1.31l-4.04 1.68-.95-1.08 4.8-7.73 1.06 1.23zM58.42 402.68l.74-.82-.04-.04c-.83.09-1.91-.21-2.73-1.14-1.17-1.32-.83-2.82.12-3.65 1.58-1.39 3.68-.75 5.9 1.79l.13-.12c.54-.48 1.38-1.48.2-2.82-.54-.61-1.28-1.08-1.99-1.27l.54-.96c.83.23 1.75.81 2.47 1.64 1.76 2 .83 3.69-.48 4.84l-2.44 2.16c-.57.5-1.1 1.02-1.47 1.49l-.95-1.1zm3.18-3.12c-1.12-1.32-2.64-2.59-3.91-1.47-.77.68-.68 1.51-.15 2.12.75.85 1.77.92 2.49.62.16-.07.32-.16.44-.27l1.13-1zM70.56 397.11l1.05 1.19-9.59 8.45-1.05-1.19 9.59-8.45zM63.78 408.75l6.54-5.76 1.05 1.19-6.54 5.76-1.05-1.19zm9.54-6.05c-.39.37-.98.36-1.4-.11-.37-.42-.31-1 .1-1.36.42-.37 1.02-.35 1.4.09.39.44.32 1.01-.1 1.38zM71.14 409.97l.02.03c.37-.04.86-.06 1.25-.07l3.95-.07 1.26 1.43-4.91-.16-1.31 6.27-1.27-1.45 1.15-5.02-1.21-.01-2.46 2.17-1.04-1.18 9.59-8.45 1.04 1.17-6.06 5.34z"/>
        </g>
        <g>
            <path d="M93.91 425.97l3.94 5.21-1.05.79-3-3.96-3.22 2.43 2.77 3.66-1.03.78-2.77-3.66-4.38 3.31-.95-1.25 9.69-7.31zM97.44 443.41c-2.57 1.94-5.04 1.01-6.31-.67-1.42-1.88-1.14-4.37 1.05-6.04 2.33-1.76 4.84-1.27 6.3.65 1.52 2 1.09 4.45-1.04 6.06zm-4.24-5.46c-1.52 1.15-2.01 2.9-1.07 4.13.91 1.21 2.73 1.25 4.3.07 1.18-.89 2.23-2.61 1.1-4.1-1.14-1.5-3.01-1.1-4.33-.1zM103.4 451.29c-2.57 1.94-5.04 1.01-6.31-.67-1.42-1.88-1.14-4.37 1.05-6.04 2.33-1.76 4.84-1.27 6.3.65 1.52 2 1.09 4.45-1.04 6.06zm-4.24-5.46c-1.52 1.15-2.01 2.9-1.07 4.13.91 1.21 2.73 1.25 4.3.07 1.18-.89 2.23-2.61 1.1-4.1s-3.01-1.1-4.33-.1zM111.17 450.31l-2 1.51 1.37 1.81-.96.73-1.37-1.81-3.75 2.83c-.86.65-1.17 1.27-.63 1.97.25.33.48.54.64.67l-.9.77c-.28-.17-.65-.5-1.02-.99-.45-.59-.62-1.21-.5-1.77.1-.64.62-1.24 1.44-1.86l3.79-2.87-.81-1.08.96-.73.81 1.08 1.67-1.26 1.26 1zM114.87 452.59l.96 1.26-4.34 3.28.02.03c.51-.07 1.07.01 1.57.23.5.21.98.55 1.34 1.02.71.93 1.26 2.86-1.14 4.68l-4.14 3.13-.96-1.26 3.99-3.02c1.12-.85 1.75-1.98.85-3.17-.62-.82-1.68-1.03-2.55-.74-.23.06-.42.19-.67.37l-4.19 3.17-.96-1.26 10.22-7.72zM110.7 468.27l6.95-5.26.96 1.26-6.95 5.26-.96-1.26zm9.97-5.33c-.42.34-1 .29-1.38-.22-.34-.45-.23-1.02.2-1.35a.966.966 0 0 1 1.39.19c.35.48.23 1.05-.21 1.38zM123.43 463.92l.96 1.26-10.19 7.71-.96-1.26 10.19-7.71zM126 467.3l.96 1.26-10.19 7.71-.96-1.26L126 467.3zM119.53 477.25c.04.56.28 1.41.76 2.05.7.92 1.48 1 2.05.57.6-.46.66-1.06.3-2.26-.5-1.58-.26-2.7.58-3.33 1.12-.85 2.72-.64 3.85.86.53.7.8 1.47.86 2.03l-1.16.38a3.4 3.4 0 0 0-.67-1.72c-.56-.75-1.31-.84-1.83-.45-.57.43-.52 1.05-.18 2.21.45 1.55.32 2.63-.72 3.41-1.22.92-2.8.63-4.05-1.02-.58-.76-.92-1.61-1-2.31l1.21-.42z"/>
        </g>
        <g>
            <path d="M526.58 99.81c-.7-.27-2.02-.85-3.27-1.92-1.4-1.19-2.24-2.53-2.41-4.17-.14-1.45.42-3.1 1.65-4.54 2.37-2.74 5.97-3.13 9.07-.49 1.07.91 1.7 1.86 1.94 2.39l-1.12.73c-.3-.64-.77-1.34-1.7-2.14-2.24-1.92-4.9-1.78-6.88.54-2 2.34-1.77 4.93.37 6.76.78.67 1.41 1.01 1.8 1.11l2.35-2.75-1.87-1.6.82-.96 3.04 2.6-3.79 4.44zM531.9 97.19c.67-.78 1.23-1.46 1.71-2.11l1.05.9-1.07 1.33.05.05c1.06-.63 2.27-.57 3.07.12.14.12.22.21.31.33l-.97 1.14c-.1-.13-.21-.25-.38-.39-.85-.73-2-.6-2.94.16-.17.14-.36.31-.53.51l-3.02 3.53-1.19-1.02 3.91-4.55zM535.66 102.93c-1.37 1.65-.9 3.21.3 4.24.86.74 1.51 1.03 2.13 1.22l-.53 1.04c-.59-.17-1.5-.57-2.55-1.47-2.04-1.74-2.11-4.13-.4-6.12 1.71-2 4.23-2.56 6.16-.92 2.16 1.85 1.11 4.24.07 5.46-.21.25-.4.41-.52.53l-4.66-3.98zm4.26 2.16c.67-.76 1.36-2.23 0-3.38-1.22-1.04-2.71-.38-3.52.38l3.52 3zM542.86 114.45l.62-.92-.04-.03c-.81.2-1.92.06-2.87-.75-1.34-1.15-1.22-2.68-.4-3.63 1.37-1.6 3.54-1.26 6.09.94l.12-.14c.47-.55 1.16-1.66-.19-2.82-.62-.53-1.42-.88-2.15-.98l.41-1.03c.85.11 1.84.56 2.68 1.27 2.03 1.73 1.34 3.54.2 4.86l-2.12 2.48c-.49.58-.94 1.16-1.25 1.68l-1.1-.93zm2.71-3.53c-1.29-1.15-2.98-2.19-4.08-.91-.67.78-.46 1.59.15 2.12.86.74 1.88.66 2.55.26.15-.09.29-.2.4-.32l.98-1.15zM554.47 109.62l-1.63 1.9 1.72 1.47-.78.92-1.72-1.47-3.05 3.57c-.7.82-.87 1.49-.2 2.06.32.27.58.43.77.52l-.72.95c-.31-.1-.74-.35-1.21-.75-.56-.48-.86-1.04-.87-1.62-.04-.65.34-1.34 1.01-2.12l3.09-3.61-1.03-.88.79-.92 1.03.88 1.36-1.59 1.44.69z"/>
        </g>
        <g>
            <path d="M462.04 73.73l-3.18 3.96 4.57 3.68 3.18-3.96 1.23.99-7.61 9.45-1.23-.99 3.57-4.43-4.57-3.68-3.57 4.43-1.22-.98 7.61-9.45 1.22.98zM462.45 89.63l5.46-6.79 1.23.99-5.46 6.79-1.23-.99zm8.38-7.59c-.33.43-.9.52-1.4.12-.43-.35-.47-.94-.13-1.36.35-.44.94-.51 1.39-.15.46.38.49.96.14 1.39zM469.72 87.32c.56-.7 1.01-1.29 1.42-1.88l1.08.87-.83 1.14.04.03c.9-.34 2.02-.44 3.14.47.93.75 1.18 1.87.83 2.91l.03.02c.52-.21 1.02-.29 1.47-.27.65.02 1.24.21 1.88.73.9.72 1.76 2.38-.14 4.74l-3.22 4-1.21-.97 3.09-3.84c1.05-1.3 1.21-2.47.21-3.28-.7-.56-1.67-.49-2.36-.05-.19.12-.41.31-.59.54l-3.38 4.19-1.21-.97 3.27-4.07c.87-1.08 1.03-2.25.08-3.01-.77-.62-1.83-.46-2.52 0-.22.12-.41.31-.58.52l-3.3 4.1-1.21-.97 4.01-4.95zM481.19 104.71l.59-.93-.04-.03c-.81.23-1.92.12-2.89-.66-1.38-1.11-1.3-2.64-.51-3.62 1.32-1.64 3.5-1.36 6.11.76l.11-.14c.45-.56 1.11-1.7-.28-2.81-.63-.51-1.45-.84-2.17-.92l.38-1.04c.85.09 1.86.5 2.71 1.19 2.08 1.67 1.44 3.49.35 4.86l-2.04 2.54c-.47.59-.91 1.19-1.2 1.72l-1.12-.92zm2.6-3.61c-1.32-1.11-3.04-2.1-4.11-.79-.64.8-.42 1.61.22 2.11.88.71 1.9.6 2.56.19.14-.09.28-.21.39-.34l.94-1.17zM492.2 97.17l1.23.99-8.02 9.96-1.23-.99 8.02-9.96zM491.26 112.82l.59-.93-.04-.03c-.81.23-1.92.12-2.89-.66-1.37-1.11-1.3-2.64-.51-3.62 1.32-1.64 3.5-1.36 6.11.76l.11-.14c.45-.56 1.11-1.7-.28-2.81-.63-.51-1.45-.84-2.17-.92l.37-1.04c.86.09 1.86.5 2.72 1.19 2.08 1.67 1.44 3.49.35 4.86l-2.04 2.54c-.47.59-.91 1.19-1.2 1.72l-1.12-.92zm2.6-3.61c-1.32-1.11-3.04-2.1-4.11-.79-.64.8-.42 1.61.22 2.11.88.71 1.9.6 2.56.19.14-.09.29-.21.39-.34l.94-1.17zM500.06 108.71l-1.74 5.21c-.21.57-.47 1.24-.68 1.74l.03.02c.45-.3 1.01-.71 1.58-1.07l4.55-2.9 1.3 1.05-5.75 3.35c-2.76 1.62-4.32 2.32-5.75 2.38-1.03.05-1.8-.23-2.16-.42l.53-1.29c.39.15.95.28 1.57.27.55 0 1.36-.13 2.14-.54.16-.08.28-.15.33-.22.06-.07.11-.19.18-.39l2.52-8.28 1.35 1.09zM504.45 123.44l.59-.93-.04-.03c-.81.23-1.92.12-2.89-.66-1.37-1.11-1.3-2.64-.51-3.62 1.32-1.64 3.5-1.36 6.11.76l.11-.14c.45-.56 1.11-1.7-.28-2.81-.63-.51-1.45-.84-2.17-.92l.37-1.04c.85.09 1.86.5 2.71 1.19 2.08 1.67 1.44 3.49.35 4.85l-2.04 2.54c-.47.59-.91 1.19-1.2 1.72l-1.11-.91zm2.61-3.61c-1.32-1.11-3.04-2.1-4.11-.79-.64.8-.42 1.61.21 2.12.88.71 1.9.6 2.56.19.14-.09.28-.21.38-.34l.96-1.18zM511.44 120.9c.56-.7 1.01-1.29 1.42-1.88l1.09.88-.83 1.18.03.02c.86-.37 2.15-.37 3.27.53.94.76 1.95 2.49.07 4.82l-3.26 4.05-1.23-.99 3.15-3.91c.88-1.09 1.21-2.33.04-3.27-.81-.65-1.91-.59-2.67-.07-.18.11-.38.3-.55.51l-3.29 4.08-1.23-.99 3.99-4.96z"/>
        </g>
        <g>
            <path d="M542.76 139.14c.71.38 1.65 1.03 2.48 1.71 1.29 1.06 1.93 1.99 2.08 3 .13.8-.13 1.66-.72 2.39-1.02 1.24-2.47 1.42-3.73.94l-.03.04c.52.85.4 1.87-.18 3.02-.77 1.56-1.29 2.65-1.39 3.17l-1.25-1.03c.06-.39.52-1.37 1.21-2.75.79-1.52.68-2.42-.38-3.37l-1.14-.94-3.34 4.06-1.21-.99 7.6-9.25zm-2.3 5.26l1.24 1.02c1.29 1.06 2.7 1.03 3.58-.04 1-1.21.55-2.46-.71-3.52-.58-.48-1.05-.77-1.29-.87l-2.82 3.41zM546.49 157.7l.6-.93-.04-.03c-.81.22-1.92.1-2.88-.69-1.36-1.12-1.27-2.65-.47-3.63 1.34-1.63 3.52-1.33 6.11.82l.11-.14c.46-.56 1.13-1.68-.25-2.82-.62-.51-1.44-.86-2.16-.94l.38-1.04c.85.1 1.86.52 2.7 1.22 2.06 1.69 1.41 3.51.3 4.86l-2.07 2.52c-.48.58-.92 1.18-1.21 1.71l-1.12-.91zm2.64-3.58c-1.31-1.13-3.02-2.14-4.1-.83-.65.79-.43 1.6.19 2.12.88.72 1.89.62 2.55.21.14-.09.29-.21.39-.33l.97-1.17zM553.5 155.23c.57-.7 1.03-1.28 1.44-1.87l1.09.89-.85 1.17.03.02c.86-.37 2.15-.35 3.27.56.93.77 1.92 2.51.02 4.82l-3.3 4.02-1.22-1.01 3.19-3.88c.89-1.08 1.23-2.32.08-3.27-.81-.66-1.9-.61-2.67-.1-.18.11-.38.29-.55.5l-3.33 4.05-1.22-1.01 4.02-4.89zM568.51 164.52c-.43.46-.9.98-1.58 1.8l-3.21 3.91c-1.27 1.54-2.35 2.24-3.49 2.29-1.16.08-2.26-.51-3.11-1.21-.81-.66-1.54-1.59-1.78-2.4l1.07-.68c.22.64.71 1.47 1.54 2.15 1.25 1.03 2.71 1.13 4.1-.57l.62-.75-.03-.02c-.89.32-2.03.22-3.07-.63-1.67-1.37-1.7-3.77-.17-5.64 1.88-2.28 4.43-2.35 5.97-1.08 1.17.96 1.31 2.1 1.14 2.89l.03.02.89-.97 1.08.89zm-3.45 1.62c.17-.21.31-.4.39-.61.36-.89.24-1.97-.65-2.7-1.17-.96-2.81-.66-4.09.9-1.09 1.32-1.32 2.97 0 4.06.75.62 1.82.71 2.73.14.24-.15.46-.37.63-.57l.99-1.22zM568.22 170.29c-1.33 1.68-.84 3.23.39 4.24.88.72 1.53 1 2.15 1.18l-.51 1.05c-.59-.16-1.51-.54-2.58-1.42-2.07-1.7-2.19-4.08-.52-6.12s4.18-2.65 6.14-1.04c2.2 1.81 1.19 4.22.17 5.46-.21.25-.39.42-.51.54l-4.73-3.89zm4.31 2.08c.65-.77 1.32-2.25-.06-3.38-1.24-1.02-2.72-.32-3.51.45l3.57 2.93z"/>
        </g>
        <path transform="rotate(138.151 299.067 259.473)" class="Kashmir_Map_svg__st5" d="M284.41 151.07h29.32v216.78h-29.32z"/>
        <g>
            <path d="M455.27 529.2l-.08-.73h-.04c-.32.46-.95.86-1.78.86-1.17 0-1.77-.83-1.77-1.67 0-1.4 1.25-2.17 3.49-2.16v-.12c0-.48-.13-1.34-1.32-1.34-.54 0-1.1.17-1.51.43l-.24-.7c.48-.31 1.18-.52 1.91-.52 1.77 0 2.21 1.21 2.21 2.37v2.17c0 .5.02 1 .1 1.39h-.97zm-.15-2.96c-1.15-.02-2.46.18-2.46 1.31 0 .68.46 1.01 1 1.01.75 0 1.24-.48 1.4-.97.04-.11.06-.23.06-.34v-1.01zM457.95 529.2v-5h-.82v-.8h.82v-.28c0-.82.18-1.56.67-2.03.4-.38.92-.54 1.42-.54.37 0 .7.08.9.17l-.14.82c-.16-.07-.37-.13-.67-.13-.9 0-1.13.79-1.13 1.68v.31h1.4v.8H459v5h-1.05zM462.75 521.73v1.67h1.51v.8h-1.51v3.13c0 .72.2 1.13.79 1.13.28 0 .48-.04.61-.07l.05.79c-.21.08-.53.14-.94.14-.49 0-.89-.16-1.14-.44-.3-.31-.41-.83-.41-1.51v-3.17h-.9v-.8h.9V522l1.04-.27zM465.97 526.49c.02 1.43.94 2.02 1.99 2.02.75 0 1.21-.13 1.61-.3l.18.75c-.37.17-1.01.36-1.93.36-1.79 0-2.85-1.18-2.85-2.93s1.03-3.13 2.72-3.13c1.9 0 2.4 1.67 2.4 2.73 0 .22-.03.38-.04.49h-4.08zm3.09-.76c.01-.67-.28-1.72-1.46-1.72-1.07 0-1.54.98-1.62 1.72h3.08zM471.39 525.21c0-.68-.01-1.27-.05-1.81h.92l.04 1.14h.05c.26-.78.9-1.27 1.61-1.27.12 0 .2.01.3.04v1c-.11-.02-.22-.04-.36-.04-.74 0-1.27.56-1.42 1.36-.02.14-.05.31-.05.49v3.09h-1.04v-4zM477.89 521.23c.46-.1 1.17-.17 1.91-.17 1.04 0 1.71.18 2.22.59.42.31.67.79.67 1.43 0 .78-.52 1.46-1.37 1.78v.02c.77.19 1.67.83 1.67 2.03 0 .7-.28 1.22-.68 1.62-.56.52-1.47.76-2.79.76-.72 0-1.27-.05-1.62-.1v-7.96zm1.05 3.31h.95c1.1 0 1.75-.58 1.75-1.36 0-.95-.72-1.32-1.77-1.32-.48 0-.75.04-.92.07v2.61zm0 3.87c.2.04.5.05.88.05 1.08 0 2.07-.4 2.07-1.57 0-1.1-.95-1.56-2.09-1.56h-.86v3.08zM489.22 527.62c0 .6.01 1.13.05 1.58h-.94l-.06-.95h-.02a2.19 2.19 0 0 1-1.92 1.08c-.91 0-2-.5-2-2.54v-3.39h1.06v3.21c0 1.1.34 1.85 1.29 1.85.71 0 1.2-.49 1.39-.96.06-.16.1-.35.1-.54v-3.56h1.06v4.22zM490.97 525.21c0-.68-.01-1.27-.05-1.81h.92l.04 1.14h.05c.26-.78.9-1.27 1.61-1.27.12 0 .21.01.3.04v1c-.11-.02-.22-.04-.36-.04-.74 0-1.27.56-1.42 1.36-.02.14-.05.31-.05.49v3.09h-1.04v-4zM494.9 529.2c.02-.4.05-.98.05-1.5v-7.02h1.04v3.65h.02c.37-.65 1.04-1.07 1.98-1.07 1.44 0 2.46 1.2 2.45 2.96 0 2.08-1.31 3.11-2.6 3.11-.84 0-1.51-.32-1.94-1.09h-.04l-.05.96h-.91zm1.09-2.33c0 .13.02.26.05.38.2.73.82 1.24 1.58 1.24 1.1 0 1.76-.9 1.76-2.23 0-1.16-.6-2.16-1.73-2.16-.72 0-1.39.49-1.61 1.3-.02.12-.06.26-.06.43v1.04zM504.99 529.2l-.08-.73h-.04c-.32.46-.95.86-1.78.86-1.18 0-1.78-.83-1.78-1.67 0-1.4 1.25-2.17 3.49-2.16v-.12c0-.48-.13-1.34-1.32-1.34-.54 0-1.1.17-1.51.43l-.24-.7c.48-.31 1.18-.52 1.91-.52 1.77 0 2.21 1.21 2.21 2.37v2.17c0 .5.02 1 .1 1.39h-.96zm-.16-2.96c-1.15-.02-2.46.18-2.46 1.31 0 .68.46 1.01 1 1.01.76 0 1.24-.48 1.4-.97.04-.11.06-.23.06-.34v-1.01zM507.56 524.97c0-.6-.01-1.09-.05-1.57h.94l.06.96h.02c.29-.55.96-1.09 1.92-1.09.8 0 2.05.48 2.05 2.47v3.47h-1.06v-3.35c0-.94-.35-1.72-1.34-1.72-.7 0-1.24.49-1.42 1.08-.05.13-.07.31-.07.49v3.49h-1.06v-4.23zM515.26 526.06h.02c.14-.2.35-.46.52-.66l1.7-2h1.27l-2.24 2.39 2.55 3.42h-1.28l-2-2.78-.54.6v2.18h-1.04v-8.52h1.04v5.37zM525.6 529.2l-.08-.73h-.04c-.32.46-.95.86-1.77.86-1.17 0-1.77-.83-1.77-1.67 0-1.4 1.25-2.17 3.49-2.16v-.12c0-.48-.13-1.34-1.32-1.34-.54 0-1.1.17-1.51.43l-.24-.7c.48-.31 1.18-.52 1.91-.52 1.78 0 2.21 1.21 2.21 2.37v2.17c0 .5.02 1 .1 1.39h-.98zm-.15-2.96c-1.15-.02-2.46.18-2.46 1.31 0 .68.46 1.01 1 1.01.75 0 1.23-.48 1.4-.97.04-.11.06-.23.06-.34v-1.01zM528.17 524.97c0-.6-.01-1.09-.05-1.57h.94l.06.96h.02c.29-.55.96-1.09 1.92-1.09.8 0 2.05.48 2.05 2.47v3.47h-1.06v-3.35c0-.94-.35-1.72-1.34-1.72-.7 0-1.23.49-1.41 1.08-.05.13-.07.31-.07.49v3.49h-1.06v-4.23zM539.85 520.69v7.02c0 .52.01 1.1.05 1.5h-.95l-.05-1.01h-.02c-.32.65-1.03 1.14-1.98 1.14-1.4 0-2.48-1.19-2.48-2.95-.01-1.93 1.19-3.12 2.6-3.12.89 0 1.49.42 1.75.89h.02v-3.47h1.06zm-1.06 5.07c0-.13-.01-.31-.05-.44-.16-.67-.73-1.22-1.52-1.22-1.09 0-1.74.96-1.74 2.24 0 1.17.58 2.15 1.71 2.15.71 0 1.36-.47 1.55-1.26.04-.14.05-.29.05-.46v-1.01zM545.84 521.12h1.04v5.41c0 2.15-1.05 2.81-2.45 2.81-.38 0-.85-.08-1.12-.19l.16-.85c.22.08.53.16.88.16.93 0 1.49-.42 1.49-2v-5.34zM553.84 526.25c0 2.15-1.49 3.08-2.89 3.08-1.57 0-2.78-1.15-2.78-2.99 0-1.94 1.27-3.08 2.88-3.08 1.66 0 2.79 1.22 2.79 2.99zm-4.61.06c0 1.27.73 2.23 1.76 2.23 1.01 0 1.76-.95 1.76-2.25 0-.98-.49-2.23-1.74-2.23-1.24 0-1.78 1.15-1.78 2.25zM555.17 520.69h1.06v3.62h.02c.17-.3.43-.56.76-.74.31-.18.68-.3 1.08-.3.78 0 2.03.48 2.03 2.48v3.45h-1.06v-3.33c0-.94-.35-1.73-1.34-1.73-.68 0-1.22.48-1.41 1.06-.06.14-.07.3-.07.5v3.5h-1.06v-8.51zM561.83 524.97c0-.6-.01-1.09-.05-1.57h.94l.06.96h.02c.29-.55.96-1.09 1.92-1.09.8 0 2.05.48 2.05 2.47v3.47h-1.06v-3.35c0-.94-.35-1.72-1.34-1.72-.7 0-1.23.49-1.41 1.08-.05.13-.07.31-.07.49v3.49h-1.06v-4.23zM568.35 528.12c.31.2.86.42 1.39.42.77 0 1.13-.38 1.13-.86 0-.5-.3-.78-1.08-1.07-1.04-.37-1.54-.95-1.54-1.64 0-.94.75-1.7 2-1.7.59 0 1.1.17 1.43.36l-.26.77c-.23-.14-.65-.34-1.19-.34-.62 0-.97.36-.97.79 0 .48.35.7 1.1.98 1.01.38 1.52.89 1.52 1.75 0 1.02-.79 1.74-2.17 1.74-.64 0-1.22-.16-1.63-.4l.27-.8zM578.5 526.25c0 2.15-1.49 3.08-2.89 3.08-1.57 0-2.78-1.15-2.78-2.99 0-1.94 1.27-3.08 2.88-3.08 1.66 0 2.79 1.22 2.79 2.99zm-4.61.06c0 1.27.73 2.23 1.76 2.23 1.01 0 1.76-.95 1.76-2.25 0-.98-.49-2.23-1.74-2.23-1.24 0-1.78 1.15-1.78 2.25zM579.83 524.97c0-.6-.01-1.09-.05-1.57h.94l.06.96h.02c.29-.55.96-1.09 1.92-1.09.8 0 2.05.48 2.05 2.47v3.47h-1.06v-3.35c0-.94-.35-1.72-1.34-1.72-.7 0-1.23.49-1.41 1.08-.05.13-.07.31-.07.49v3.49h-1.06v-4.23zM588.35 530.68c.26-.71.59-1.99.72-2.87l1.17-.12c-.28 1.02-.8 2.35-1.14 2.91l-.75.08zM596.02 522.39H596l-1.36.73-.2-.8 1.7-.91h.9v7.8h-1.02v-6.82zM600.5 528.46c.23.02.49 0 .85-.04.61-.08 1.19-.34 1.63-.76.52-.47.89-1.15 1.03-2.08h-.04c-.43.53-1.05.84-1.83.84-1.4 0-2.3-1.06-2.3-2.39 0-1.48 1.07-2.77 2.66-2.77s2.58 1.29 2.58 3.29c0 1.71-.58 2.92-1.34 3.66-.6.59-1.43.95-2.27 1.04-.38.06-.72.07-.97.06v-.85zm.38-4.49c0 .97.59 1.66 1.5 1.66.71 0 1.26-.35 1.54-.82.06-.1.1-.22.1-.38 0-1.33-.49-2.35-1.59-2.35-.91 0-1.55.79-1.55 1.89zM605.95 527.22c0-.98.59-1.68 1.55-2.09l-.01-.04c-.86-.41-1.24-1.08-1.24-1.75 0-1.24 1.04-2.08 2.41-2.08 1.51 0 2.27.95 2.27 1.92 0 .66-.32 1.37-1.28 1.82v.04c.97.38 1.57 1.07 1.57 2.01 0 1.36-1.16 2.27-2.65 2.27-1.64.01-2.62-.96-2.62-2.1zm4.19-.05c0-.95-.66-1.4-1.71-1.7-.91.26-1.4.86-1.4 1.61-.04.79.56 1.49 1.56 1.49.94-.01 1.55-.59 1.55-1.4zm-2.9-3.89c0 .78.59 1.2 1.49 1.44.67-.23 1.19-.71 1.19-1.42 0-.62-.37-1.27-1.32-1.27-.88 0-1.36.57-1.36 1.25zM612.45 527.99c.3.19 1 .49 1.73.49 1.36 0 1.77-.86 1.76-1.51-.01-1.09-1-1.56-2.01-1.56h-.59v-.79h.59c.77 0 1.74-.4 1.74-1.32 0-.62-.4-1.18-1.37-1.18-.62 0-1.22.28-1.56.52l-.28-.77c.41-.3 1.2-.6 2.04-.6 1.54 0 2.23.91 2.23 1.86 0 .8-.48 1.49-1.44 1.83v.02c.96.19 1.74.91 1.74 2 0 1.25-.97 2.34-2.84 2.34-.88 0-1.64-.28-2.03-.53l.29-.8z"/>
        </g>
        <g>
            <path d="M236.51 183.97l1.06 1.15-4.3 3.97.04.04c.56-.08 1.1-.13 1.6-.18l5.86-.36 1.32 1.43-6.76.26-1.93 8.22-1.26-1.36 1.67-6.98-1.76.06-3.4 3.14-1.06-1.15 8.92-8.24zM237.63 203.09l.72-.84-.04-.04c-.83.11-1.92-.17-2.76-1.08-1.2-1.3-.89-2.8.03-3.65 1.55-1.43 3.66-.83 5.93 1.65l.13-.12c.53-.49 1.35-1.51.14-2.82-.55-.6-1.31-1.05-2.01-1.23l.52-.97c.83.21 1.77.77 2.51 1.58 1.81 1.96.91 3.67-.38 4.85l-2.4 2.21c-.56.51-1.07 1.04-1.44 1.52l-.95-1.06zm3.11-3.18c-1.15-1.29-2.7-2.53-3.95-1.38-.75.7-.65 1.53-.1 2.12.77.83 1.79.88 2.5.56.16-.07.31-.17.43-.28l1.12-1.02zM241.29 204.67c.09.55.42 1.38.95 1.96.78.85 1.57.85 2.1.37.56-.51.56-1.12.08-2.28-.65-1.53-.52-2.66.25-3.37 1.03-.95 2.65-.9 3.92.48.6.65.94 1.39 1.06 1.94l-1.12.49a3.33 3.33 0 0 0-.84-1.65c-.63-.69-1.39-.71-1.86-.27-.53.49-.41 1.09.04 2.22.6 1.5.57 2.58-.38 3.46-1.12 1.04-2.72.9-4.13-.63-.65-.7-1.07-1.51-1.22-2.2l1.15-.52zM254.47 202.5l1.07 1.17-4 3.69.02.03c.5-.12 1.06-.1 1.59.08.52.16 1.03.45 1.43.89.79.86 1.53 2.72-.68 4.76l-3.81 3.52-1.07-1.17 3.68-3.39c1.03-.95 1.55-2.14.54-3.24-.7-.75-1.77-.86-2.6-.49-.22.08-.4.23-.63.43l-3.87 3.56-1.07-1.17 9.4-8.67zM256.52 214.2c.66-.61 1.19-1.12 1.69-1.65l.94 1.02-.98 1 .04.04c.94-.2 2.06-.13 3.03.92.81.87.89 2.02.39 3l.02.03c.54-.13 1.05-.14 1.49-.05.65.12 1.19.39 1.76 1 .78.85 1.39 2.62-.84 4.67l-3.77 3.48-1.05-1.14 3.63-3.34c1.23-1.13 1.56-2.27.69-3.21-.61-.66-1.58-.73-2.33-.4-.21.09-.46.25-.67.44l-3.96 3.65-1.05-1.14 3.84-3.54c1.02-.94 1.35-2.07.53-2.96-.67-.73-1.74-.72-2.5-.37-.23.09-.46.25-.65.43l-3.87 3.56-1.05-1.14 4.67-4.3zM262.02 229.54l6.41-5.91 1.07 1.17-6.41 5.91-1.07-1.17zm9.4-6.27c-.38.38-.97.38-1.4-.08-.38-.41-.33-1 .07-1.36a.96.96 0 0 1 1.4.06c.41.43.35 1-.07 1.38zM269.28 228.58c.75-.7 1.39-1.31 1.95-1.9l.94 1.02-1.22 1.2.05.05c1.13-.5 2.32-.3 3.04.48.12.13.19.24.27.37l-1.1 1.01c-.08-.14-.18-.27-.33-.43-.76-.82-1.92-.83-2.94-.18-.18.12-.39.26-.59.45l-3.42 3.15-1.06-1.15 4.41-4.07z"/>
        </g>
        <g>
            <path d="M334.24 292.98c.56.41 1.37 1.14 2.1 1.96 1.05 1.17 1.52 2.1 1.57 3.07.07.78-.21 1.54-.92 2.18-.87.78-2.15.89-3.35.25l-.03.02c.56 1.05.75 2.69-.59 3.89-.78.7-1.64.92-2.49.86-1.14-.11-2.32-.89-3.65-2.36-.72-.8-1.22-1.47-1.52-1.9l8.88-7.97zm-6.97 8.37c.16.26.45.61.82 1.03 1.08 1.21 2.52 1.92 3.84.74 1.23-1.11.79-2.62-.35-3.89l-.87-.96-3.44 3.08zm4.32-3.88l.95 1.06c1.11 1.23 2.4 1.38 3.27.6 1.06-.95.75-2.13-.31-3.31-.48-.54-.8-.81-1.01-.96l-2.9 2.61zM335.04 311.79l.73-.83-.04-.04c-.83.09-1.92-.19-2.74-1.12-1.18-1.31-.86-2.81.08-3.65 1.57-1.41 3.68-.79 5.91 1.73l.13-.12c.54-.48 1.37-1.49.18-2.82a4.42 4.42 0 0 0-2-1.26l.54-.96c.83.22 1.76.79 2.49 1.61 1.78 1.98.86 3.68-.44 4.85l-2.42 2.18c-.56.51-1.09 1.03-1.46 1.5l-.96-1.07zm3.15-3.15c-1.13-1.31-2.67-2.56-3.93-1.43-.76.69-.67 1.52-.13 2.12.76.84 1.78.9 2.49.59.16-.07.32-.16.44-.27l1.13-1.01zM338.68 313.41c.08.55.4 1.38.93 1.97.77.86 1.56.88 2.09.39.56-.5.57-1.12.11-2.28-.63-1.54-.48-2.67.3-3.36 1.04-.94 2.66-.86 3.91.53.59.66.92 1.4 1.03 1.96l-1.12.47c-.07-.4-.28-1.06-.82-1.66-.62-.7-1.38-.72-1.86-.29-.54.48-.43 1.09.01 2.22.58 1.51.54 2.59-.43 3.46-1.14 1.02-2.74.86-4.12-.68-.64-.71-1.05-1.52-1.19-2.22l1.16-.51zM342.38 319.96l6.48-5.82 1.06 1.18-6.48 5.82-1.06-1.18zm9.48-6.15c-.39.37-.98.37-1.4-.1-.37-.42-.32-1 .08-1.36a.969.969 0 0 1 1.4.08c.41.44.34 1.01-.08 1.38zM349.92 318.85c.67-.6 1.21-1.11 1.71-1.63l.94 1.05-1.01 1.03.02.03c.91-.23 2.18-.02 3.14 1.05.8.9 1.52 2.77-.7 4.77l-3.87 3.48-1.06-1.18 3.74-3.36c1.04-.94 1.57-2.11.57-3.22-.7-.78-1.79-.89-2.62-.5-.2.08-.42.23-.62.41l-3.9 3.5-1.06-1.18 4.72-4.25z"/>
        </g>
    </g>
    <g id="Kashmir_Map_svg__thrust_faults">
        <path class="Kashmir_Map_svg__st6" d="M21.56 218.24c0 2.11-.46 4.98.76 6.7 1.42 2 4.82 2.64 6.96 3.58 3.17 1.38 6.31 2.79 9.54 4.03 6.1 2.35 8.22 1.72 14.48 1.5 7.76-.27 4.27 3.3 8.02 8.66 4.09 5.85 7.3 2.51 13.32 3.32 13.07 1.76 7.99 14.72 8 24.03.01 10.64-2.59 22.68.13 33.2 1.06 4.11 3.15 9.25 4.7 13.3 1.66 4.36 3 9.04 4.65 13.35 1.76 4.62 4.2 6.02 7.32 10.15 3.71 4.93 3.18 9.41 5.35 15.18 2.8 7.46 8.93 17.12 16.34 21 2.36 1.23 6.13 1.38 8.73 1.93 3.56 9.38 13.89 13.69 18.82 21.85 5.51 9.12 10.59 16.96 12.63 28.18 1.02 5.59-.43 11.66.65 17.2.99 5.07 4.93 8.17 5.35 13.32.97 12.02-12.58 19.94-2.63 29.83 1.4 1.39 2.86 2.09 4.54 2.95 1.11 8.67 12.46 14.95 17.95 20.02 4.56 4.21 7.9 9.48 11.99 14.11 1.65 1.87 3.64 3.58 5.55 5.15 1.99 1.63 4.55 2.4 6.45 4.09 4.47.14 8.84-.2 13.32-.2"/>
        <path class="Kashmir_Map_svg__st6" d="M21.74 235.36c-.3-.9-.2-1.94-.15-2.89 1.4-.25 1.99.79 3.05 1.38 1.26.69 2.81 1.02 4.12 1.62 2.62 1.19 5.07 2.71 7.23 4.61 3.23 2.84 7.08 6.9 11.46 9.18 4.09 2.13 9.16 1.28 13.37 3.28 5.84 2.78 6.3 11.18 7.73 16.73 3.24 12.56 4.94 25.95 9.83 38.01 6.51 16.06 10.92 33.3 19.6 48.13 2.58 4.41 3.23 7.44 4.65 12.65 4.05 14.81 18.94 24.86 27.31 36.67 6.03 8.51 12.77 13.53 15.35 24 1.23 4.99 3.92 8.26 4.66 13.47.88 6.14-1.38 10.63-2.66 15.82-.65 2.64.1 4.43-.85 6.52-1.72 3.76-4.17 2.69-5.86 4.96-3.65 4.89.12 23.2 3.51 28.54 4.38 6.88 12.46 12.3 18 18.48 7.73 8.62 15.96 21.58 29.32 17.67"/>
        <path class="Kashmir_Map_svg__st7" d="M76.37 245.77c1.58-.42 3.17-1.01 4.91-.77.26 1.07.07 2.17-.35 2.84M24.95 233.38c2.6.54 4.4-.72 6.23-2.12 1.35 1.39.81 3.86.82 5.86M83.01 269.41c1.72.7 3.77 1.65 4.52 3.33-1.35.84-2.97 1.77-4.11 2.48M83.84 306.73c1.56.44 3.2.51 4.8.54-.75 1.46-2.16 2.75-2.47 4.6M73.88 294.71c1.16.23 2.36.59 3.67.48.21 2.02-1.47 3.48-2.01 4.91M96.74 336.64c.4 0 4.88.15 4.86.43-.23 1.16-.81 2.72-1.55 3.65M97.31 354.53c1.59.41 3.5.4 5.14.37.08 0-1.05 1.94-1.17 2.14-.46.71-.79 1.48-1.07 2.28M114.1 370.53c1.43.11 2.88-.02 4.07-.36.08 1.12.28 2.55.07 3.68M120.53 393.69c1.88.39 3.87.41 5.75.9-.35 1.13-1.17 2.44-2.02 3.25M150.6 403.77c1.77.56 3.79.36 5.74.48-.02.06-.02 1.01-.01 1.11-1.09.6-1.55 1.35-2.41 2.14M144.38 423.68c1.16-.14 2.42 0 3.59-.02-1.68 1.76-2.04 3.93-3.17 5.83M133.72 384.29c1.31-.16 2.79-.01 4.08.06-.2 1.13-.59 2.64-1.18 3.67M160.97 432.39c1.42.75 3.26 1.86 4.82 2.48-1.92.79-2.93 2.56-4.41 4.16M148.94 453.13c1.23.68 1.85 2.11 2.01 3.65-1.47.65-2.92 1.37-4.5 1.74M165.95 466.4c1.22.83 1.97 2.3 2.45 3.65-.39.14-.74.02-1.13.15-.59 1.06-.43.93-1.66 1.24-.05.23-.09.46-.14.69-.7-.11-.84.31-1.17.48M139.41 480.91c.93-.25 2.31-.01 3.25.06.42 1.98-.86 3.73-1.6 5.33M171.34 495.84c1.08.02 2.23.47 3.26.91-.26 1.29-1.06 2.72-2.02 3.65M156.41 510.77c1.26-.91 2.86-1.13 4.5-.77.08 1.62.06 3.28.06 4.91M188.76 512.01c1.5.01 3.02-.01 4.5.06-.38 1.39-1.34 2.66-2.42 3.67M178.8 533.58c2.08-.45 4.3-.31 6.14-1.62.21 1.29.1 2.56-.33 3.69M200.78 528.19c1.32-.63 2.92-1.09 4.5-.77.09 1.25.05 2.55-.35 3.67M52.16 233.91c-.39-.95-.6-2.13-1.09-3.21-.92 1.07-1.6 2.23-3.09 2.67-1.56.46-3.66.06-5.11.54M66.88 264.33c1.51.72 2.95 1.87 4.6 2.04-.23 1.43-2 2.9-2.94 4.27"/>
    </g>
    <g id="Kashmir_Map_svg__lakes">
        <path class="Kashmir_Map_svg__st8" d="M237.57 158.42c.21-.87-.05-2.59.35-3.39.58-1.16 1.72-.94 2.46-1.87 1.36-1.69.91-3.7.58-5.89-.32-2.09.45-3.99.59-6.05.23-3.55-2.05-7.53-1.37-10.95 3.18-.2 5.75.43 8.8.72 2.69.26 6.06-.09 3.73-3.46-.76-1.1-2.63-.92-3.4-2.54-.98-2.05-.42-3.96 2.07-3.12.79.27 5.16 3.2 5.17 4.01.03 3.41 1.63 2.94 4.24 3.87 2.66.94 4.82 2.8 7.6 3.49 1.73.43 4.01 1.83 5.49-.26 2.53-3.6-6.06-2.36-.59-5.62 3.48-2.07 5.25-2.71 5.25-7.01 0-2.54.45-4.5-2.18-5.21-2.94-.8-4.93 2.58-7.15 1.94-1.62-.46-3.69-5.09-5-6.53-2.44-2.68-6.27-4.37-9.8-2.21-2.61 1.6-9.68 8.54-9.27.76.15-2.79 2.71-4.93 2.63-7.36-2.9-2.53-4.22-3.05-7.48-.82-2.09 1.43-3.5 3.26-4.87 5.37-2.19 3.38-7.03 2.58-9.12 6.31-2.14 3.82 1.02 7.86 1.22 11.86.2 4.01 3.23 9.15-1.98 10.36-2.77.65-3.2.72-3.51 3.9-.24 2.44-.04 5.04.01 7.41.05 2.39.88 4.45 1.1 6.64.5 4.98-5.31 4.28-6.95 7.55-1.83 3.64 3.32 3.52 5.03 3.17 6.17-1.24 14.15 4.07 16.35-5.07zM346.53 251.86c-.04.83.09 1.68.32 2.47 1.96.08 4.43-.7 5.5-2.56.27-.46.62-2.39.82-3.01.29-.91.7-1.43.82-2.48.31-2.91-.15-3.66 1.31-6.4 2.23-4.16.94-7.09-2.48-9.99-2.4-2.03-5.1-8.67-9.59-5.63-3.56 2.41-1.47 8.87 1.4 10.72 2.54 1.64 6.8 2.38 6.08 6.37-.29 1.61-2.74 4.56-3.85 5.75-.4.43-2.29 1.68-2.4 1.99-.5 1.39 1.52 2.58 1.79 3.91"/>
    </g>
    <g id="Kashmir_Map_svg__cities">
        <path class="Kashmir_Map_svg__st9" d="M327.67 215.56l-1.94 12.61v8.45l-3.84 6.09-8.23-2.5-2.9 3.41 4.85 14.82 6.28 9.47.27 8.54 13.44 2.47-2.32-15.85 12.75-1.43-1.51-9.5-6.9-9.15 6.9-7.23-3.18-12.28 2.22-6.12z"/>
        <path d="M292.82 208.8l1.07-.09c.05.43.17.78.35 1.06s.47.5.86.67.83.25 1.32.25c.43 0 .82-.06 1.15-.19s.58-.31.74-.53.24-.47.24-.74-.08-.5-.23-.71-.41-.37-.77-.51c-.23-.09-.74-.23-1.53-.42s-1.34-.37-1.66-.54c-.41-.21-.72-.48-.92-.8s-.3-.67-.3-1.07c0-.43.12-.84.37-1.22s.61-.66 1.08-.86 1-.29 1.58-.29c.64 0 1.2.1 1.68.31s.86.51 1.12.91.4.85.42 1.35l-1.09.08c-.06-.54-.26-.95-.59-1.23s-.84-.42-1.5-.42c-.69 0-1.19.13-1.5.38s-.47.56-.47.91c0 .31.11.56.33.76.22.2.79.4 1.71.61s1.56.39 1.9.55c.5.23.87.52 1.11.88s.36.76.36 1.22c0 .46-.13.89-.39 1.29s-.64.72-1.13.94-1.04.34-1.66.34c-.78 0-1.43-.11-1.95-.34s-.94-.57-1.24-1.02-.44-.96-.46-1.53zM301.07 211.56v-6.22h.95v.94c.24-.44.47-.73.67-.87s.43-.21.68-.21c.36 0 .72.11 1.08.34l-.36.98c-.26-.15-.52-.23-.77-.23-.23 0-.44.07-.62.21s-.31.33-.39.58c-.12.38-.18.79-.18 1.23v3.26h-1.06zM305.08 204.18v-1.21h1.05v1.21h-1.05zm0 7.38v-6.22h1.05v6.22h-1.05zM307.74 211.56v-6.22h.95v.88c.46-.68 1.12-1.03 1.98-1.03.38 0 .72.07 1.03.2s.55.31.71.53.27.48.33.78c.04.2.06.54.06 1.03v3.83h-1.05v-3.79c0-.43-.04-.75-.12-.96s-.23-.38-.44-.51-.45-.19-.74-.19c-.45 0-.84.14-1.16.43s-.49.83-.49 1.62v3.4h-1.06zM318.48 210.79c-.39.33-.77.57-1.13.7s-.75.21-1.16.21c-.68 0-1.21-.17-1.58-.5s-.55-.76-.55-1.28c0-.3.07-.58.21-.83s.32-.45.54-.61.48-.27.76-.35c.21-.05.52-.11.94-.16.85-.1 1.48-.22 1.88-.36 0-.14.01-.24.01-.28 0-.43-.1-.73-.3-.91-.27-.24-.67-.36-1.2-.36-.5 0-.86.09-1.1.26s-.41.48-.52.92l-1.03-.14c.09-.44.25-.8.46-1.07s.53-.48.93-.63.88-.22 1.41-.22c.53 0 .96.06 1.29.19s.58.28.73.47.27.43.33.72c.04.18.05.5.05.97v1.41c0 .98.02 1.6.07 1.86s.13.51.27.75h-1.1c-.11-.21-.18-.47-.21-.76zm-.09-2.36c-.38.16-.96.29-1.72.4-.43.06-.74.13-.92.21s-.32.19-.42.34-.15.32-.15.5c0 .28.11.52.32.7s.52.28.93.28c.41 0 .77-.09 1.08-.27s.55-.42.7-.73c.11-.24.17-.59.17-1.05v-.38zM320.9 212.07l1.03.15c.04.32.16.55.36.69.26.2.62.29 1.07.29.49 0 .87-.1 1.13-.29s.45-.47.54-.82c.05-.21.08-.67.08-1.35-.46.54-1.04.81-1.72.81-.86 0-1.52-.31-1.99-.93s-.7-1.36-.7-2.22c0-.59.11-1.14.32-1.64s.53-.89.93-1.16.89-.41 1.44-.41c.73 0 1.34.3 1.82.89v-.75h.97v5.38c0 .97-.1 1.66-.3 2.06s-.51.72-.94.96-.95.35-1.58.35c-.74 0-1.34-.17-1.8-.5s-.68-.84-.66-1.51zm.87-3.74c0 .82.16 1.41.49 1.79s.73.56 1.22.56c.48 0 .89-.19 1.22-.56s.49-.96.49-1.75c0-.76-.17-1.34-.51-1.72s-.75-.58-1.22-.58-.87.19-1.2.57-.49.94-.49 1.69zM331.82 210.79c-.39.33-.77.57-1.13.7s-.75.21-1.16.21c-.68 0-1.21-.17-1.58-.5s-.55-.76-.55-1.28c0-.3.07-.58.21-.83s.32-.45.54-.61.48-.27.76-.35c.21-.05.52-.11.94-.16.85-.1 1.48-.22 1.88-.36 0-.14.01-.24.01-.28 0-.43-.1-.73-.3-.91-.27-.24-.67-.36-1.2-.36-.5 0-.86.09-1.1.26s-.41.48-.52.92l-1.03-.14c.09-.44.25-.8.46-1.07s.53-.48.93-.63.88-.22 1.41-.22c.53 0 .96.06 1.29.19s.58.28.73.47.27.43.33.72c.04.18.05.5.05.97v1.41c0 .98.02 1.6.07 1.86s.13.51.27.75h-1.1c-.1-.21-.18-.47-.21-.76zm-.08-2.36c-.38.16-.96.29-1.72.4-.43.06-.74.13-.92.21s-.32.19-.42.34-.15.32-.15.5c0 .28.11.52.32.7s.52.28.93.28c.41 0 .77-.09 1.08-.27s.55-.42.7-.73c.11-.24.17-.59.17-1.05v-.38zM334.43 211.56v-6.22h.95v.94c.24-.44.47-.73.67-.87s.43-.21.68-.21c.36 0 .72.11 1.08.34l-.36.98c-.26-.15-.52-.23-.77-.23-.23 0-.44.07-.62.21s-.31.33-.39.58c-.12.38-.18.79-.18 1.23v3.26h-1.06z"/>
        <g>
            <path d="M78.86 218.38l.91-.49c.25.6.53.98.82 1.13s.62.16.98.02c.27-.1.48-.25.62-.44.15-.2.22-.41.21-.65-.01-.24-.09-.59-.27-1.05l-2.07-5.54 1.06-.4 2.05 5.48c.25.67.37 1.23.34 1.66-.02.43-.18.81-.46 1.13s-.66.58-1.13.75c-.71.26-1.32.26-1.85 0-.52-.25-.92-.79-1.21-1.6zM85.75 218.41l-3-8.05.99-.37 1.08 2.89c.26-.71.74-1.19 1.45-1.45.43-.16.84-.22 1.22-.17.38.05.7.2.95.45s.48.66.69 1.23l1.38 3.69-.99.37-1.38-3.69c-.18-.49-.42-.81-.72-.96-.3-.15-.64-.14-1.03 0-.29.11-.54.29-.74.54-.2.25-.31.52-.32.82-.01.3.07.68.24 1.14l1.19 3.19-1.01.37zM95.29 212.71l1.07-.25c.06.66-.06 1.23-.38 1.72-.31.49-.81.86-1.48 1.12-.85.32-1.63.31-2.32-.03s-1.22-.98-1.57-1.93c-.37-.98-.4-1.84-.09-2.57s.86-1.25 1.66-1.55c.78-.29 1.52-.26 2.21.08.69.35 1.22 1 1.58 1.96l.09.27-4.35 1.62c.28.63.64 1.05 1.09 1.27.45.22.92.24 1.41.06.36-.13.64-.35.82-.63s.27-.66.26-1.14zm-3.84-.38l3.25-1.22c-.23-.47-.49-.79-.78-.96-.46-.26-.94-.3-1.44-.11-.45.17-.78.46-.97.88-.19.41-.21.88-.06 1.41zM98.24 213.75l-3-8.05.99-.37 3 8.05-.99.37zM104.57 211.39l-.32-.86c-.21.83-.7 1.39-1.48 1.68-.34.13-.69.18-1.04.16s-.63-.1-.85-.25-.41-.35-.58-.62c-.11-.18-.25-.48-.4-.9l-1.35-3.61.99-.37 1.21 3.23c.19.52.34.86.45 1.02.16.24.37.39.62.46.26.07.53.05.83-.06.3-.11.55-.29.75-.54.2-.25.31-.52.32-.83.01-.3-.08-.7-.26-1.2l-1.17-3.12.99-.37 2.18 5.83-.89.35zM107.01 210.48l-2.18-5.83.88-.33.31.82c.08-.35.23-.67.47-.96.24-.29.55-.5.94-.65.43-.16.82-.2 1.16-.13s.63.25.87.53c.21-.85.68-1.42 1.42-1.69.58-.22 1.08-.22 1.51-.02.43.2.77.64 1.02 1.31l1.49 4-.98.37-1.37-3.67c-.15-.4-.29-.67-.42-.82s-.3-.25-.5-.29a1.22 1.22 0 0 0-.65.06c-.41.15-.7.42-.87.79-.17.37-.14.86.08 1.46l1.26 3.39-.99.37-1.41-3.79c-.16-.44-.37-.74-.61-.9-.24-.16-.55-.17-.91-.03-.28.1-.51.27-.69.51-.18.23-.27.51-.27.83 0 .32.1.75.3 1.28l1.13 3.03-.99.36zM119.64 205.76l-3-8.05 3.57-1.33c.72-.27 1.29-.4 1.72-.39.43 0 .82.15 1.18.43s.62.65.79 1.09c.21.57.21 1.12-.02 1.65-.22.53-.7.99-1.43 1.39.33.03.6.08.79.16.42.17.85.42 1.28.74l2.22 1.67-1.34.5-1.69-1.28c-.49-.37-.89-.64-1.18-.82-.3-.18-.54-.29-.74-.34-.2-.04-.38-.05-.57-.03-.13.02-.33.08-.61.18l-1.24.46 1.33 3.57-1.06.4zm-.62-4.89l2.29-.85c.49-.18.85-.37 1.09-.58a1.323 1.323 0 0 0 .39-1.52c-.14-.38-.4-.64-.76-.78-.37-.14-.85-.1-1.45.12l-2.55.95.99 2.66zM127.89 202.68l-.42-1.13 1.13-.42.42 1.12-1.13.43z"/>
        </g>
    </g>
    <g id="Kashmir_Map_svg__blowups">
        <path id="Kashmir_Map_svg__shaliganga" class="Kashmir_Map_svg__st10" d="M268.4 311.75h25.1v17.88h-25.1z"/>
        <path id="Kashmir_Map_svg__romushi" class="Kashmir_Map_svg__st11" d="M297.02 360.63h25.1v17.88h-25.1z"/>
        <path id="Kashmir_Map_svg__hirpur" class="Kashmir_Map_svg__st12" d="M310.23 414.95h20.7v13.65h-20.7z"/>
        <path id="Kashmir_Map_svg__baramula" class="Kashmir_Map_svg__st13" d="M160.07 195.21h11.01v10.57h-11.01z"/>
    </g>
    <g id="Kashmir_Map_svg__flags">
        <a xlink:href="#Kashmir_Map_svg__b">
            <path id="Kashmir_Map_svg__shaliganga-flag" onclick="navTo('g')" class="Kashmir_Map_svg__hoverthing7" d="M261.48 317l-.66-.01c-2.03-.03-3.69 1.82-3.71 4.13v.36c-.02 2.28 1.58 4.15 3.58 4.17l6.83.09.09-8.66-6.13-.08"/>
        </a>
        <a xlink:href="#Kashmir_Map_svg__c">
            <path id="Kashmir_Map_svg__romushi-flag" onclick="navTo('g')" class="Kashmir_Map_svg__hoverthing5" d="M289.94 365.47l-.66-.01c-2.03-.03-3.69 1.82-3.71 4.13v.36c-.02 2.28 1.58 4.15 3.58 4.17l6.83.09.09-8.66-6.13-.08"/>
        </a>
        <a xlink:href="#Kashmir_Map_svg__d">
            <path id="Kashmir_Map_svg__hirpur-flag" onclick="navTo('g')" class="Kashmir_Map_svg__hoverthing6" d="M303.27 417.88l-.66-.01c-2.03-.03-3.69 1.82-3.71 4.13v.36c-.02 2.28 1.58 4.15 3.58 4.17l6.83.09.09-8.66-6.13-.08"/>
        </a>
        <a xlink:href="#Kashmir_Map_svg__a">
            <path id="Kashmir_Map_svg__baramula-flag" onclick="navTo('g')" class="Kashmir_Map_svg__hoverthing8" d="M177.25 198.1l.66-.01c2.03-.03 3.69 1.82 3.71 4.13v.36c.02 2.28-1.58 4.15-3.58 4.17l-6.83.09-.09-8.66 6.13-.08"/>
        </a>
    </g>
</svg>
