<?xml version="1.0" encoding="utf-8"?>
<!--Generator: Adobe Illustrator 26.5.2, SVG Export Plug-In . SVG Version: 6.00 Build 0)-->
<svg version="1.1" xmlns="http://www.w3.org/2000/svg" xmlns:xlink="http://www.w3.org/1999/xlink" x="0px" y="0px" viewBox="0 0 636 393" style="enable-background:new 0 0 636 393;" xml:space="preserve">
  <style type="text/css">
    .Key_Map_Eastern_India_sections_svg__hoverthing_x0020_2{opacity:0.8;fill:#F05A28}.Key_Map_Eastern_India_sections_svg__st0{fill:#FEF201}.Key_Map_Eastern_India_sections_svg__st1{fill:none;stroke:#000000;stroke-miterlimit:10}.Key_Map_Eastern_India_sections_svg__st2{opacity:0.57;fill:#F8F7CA;stroke:#231F20;stroke-width:0.5;stroke-miterlimit:10}.Key_Map_Eastern_India_sections_svg__st3{fill:none;stroke:#3ABFEF;stroke-miterlimit:10}.Key_Map_Eastern_India_sections_svg__st4{fill:none;stroke:#3ABFEF;stroke-width:0.5;stroke-miterlimit:10}.Key_Map_Eastern_India_sections_svg__st5{fill:none;stroke:#231F20;stroke-width:2;stroke-miterlimit:10}.Key_Map_Eastern_India_sections_svg__st6{fill:#231F20;stroke:#231F20;stroke-width:2;stroke-miterlimit:10}.Key_Map_Eastern_India_sections_svg__st7{display:none}.Key_Map_Eastern_India_sections_svg__st8{display:inline;opacity:0.8;fill:#F05A28}.Key_Map_Eastern_India_sections_svg__st9{display:inline;opacity:0.8;fill:none;stroke:#F05A28;stroke-width:4;stroke-miterlimit:10}
  </style>
  <g id="Key_Map_Eastern_India_sections_svg__Pre_Siwaliks"/>
  <g id="Key_Map_Eastern_India_sections_svg__Below_TWS">
    <path class="Key_Map_Eastern_India_sections_svg__st0" d="M601.07,154.71c-0.02-1.77-0.11-3.7-1.27-5.04c-5.53,2.33-11.18,4.75-15.57,8.84
		c-3.04,2.84-5.33,6.36-8.09,9.47c-4.26,4.79-9.81,8.3-15.12,11.74c-2.99,1.94-6.16,3.6-9.13,5.56c-5.18,3.42-9.76,7.75-13.47,12.74
		c-3.27,4.39-7.32,9.38-12.4,11.74c-9.07,4.22-18.23-1.38-27.53-1.04c-7.19,0.26-12.59,3.73-19.14,6.22
		c-7.06,2.69-14.47,4.45-21.98,5.21c-4.79,0.48-9.63,0.56-14.35,1.48c-3.57,0.69-7.04,1.86-10.61,2.56
		c-3.54,0.7-7.14,0.93-10.74,1.17c-7.67,0.5-15.34,1-23.01,1.5c-3.34,0.22-6.86,0.93-10.16,0.55c-3.84-0.44-7.66-1-11.49-1.51
		c-2.23-0.29-4.48-0.59-6.59-1.34c-1.88-0.67-3.62-1.68-5.44-2.49c-2.21-0.99-4.55-1.69-6.94-2.08c-0.07-0.01-0.14-0.02-0.21-0.03
		c-0.73-0.11-1.48-0.2-2.21-0.08c-1.02,0.17-1.93,0.73-2.81,1.28c-9.03,5.65-18.58,11.67-29.23,11.83c-5.39,0.08-11-1.34-16.05,0.54
		c-3.24,1.21-6.15,0.26-9.5-0.41c-3.93-0.79-7.82-1.72-11.71-2.66c-13.32-3.2-26.67-5.38-39.78-9.35
		c-7.53-2.28-14.95-4.89-22.25-7.82c-7.06-2.84-13.74-6.49-21.09-8.29c-10.94-2.68-22.2-1.33-33.31-1.08
		c-11.67,0.26-19.68-2.06-30.08-5.92c-17.9-6.63-31.92-18-48.37-27.34c-13.51-7.67-28.31-10.94-42.34-17.21
		c-0.02,0.13-0.06,0.25-0.09,0.38v76.35c0.09,0.34,0.16,0.69,0.17,1.09c0.09,3.7-0.01,7.39-0.17,11.08v0.67
		c1.53,2.27,3.07,4.53,4.64,6.77c5.11,7.27,12.91,9.11,20.23,13.37c2.56,1.49,5.12,3.23,6.63,5.78c1.65,2.78,1.84,6.18,2.99,9.2
		c1.89,4.96,6.33,8.63,11.24,10.65c4.91,2.02,10.29,2.56,15.59,2.78c10.27,0.42,20.07-0.68,29.71-4.31
		c4.86-1.83,10.43-2.49,15.54-3.6c5.63-1.23,11.27-2.47,16.9-3.7c2.86-0.63,5.71-1.25,8.54-1.99c7.08-1.85,14.02-4.22,21.38-2.95
		c7.21,1.25,14.51,2.31,21.76,3.27c9.72,1.29,19.5,2.19,29.29,2.77c4.82,0.28,9.69,0.64,14.52,0.61c4.46-0.02,8.94,0.73,13.47,0.74
		c16.89,0.04,38.39,0.82,48.65,16.49c1.65,2.51,2.94,5.27,4.8,7.63c1.62,2.05,3.62,3.73,5.51,5.53c2,1.89,3.48,3.96,5.82,5.39
		c9.79,6,18.93,12.85,26.59,21.48c0.39,0.44,0.8,0.9,1.33,1.16c0.45,0.21,0.95,0.27,1.44,0.32l7.37,0.77
		c5.31,0.55,10.67,1.11,16.01,0.67c2.41-0.2,4.42-0.95,6.69-1.47c2.52-0.57,5.48-0.06,8.06,0.02c11.83,0.39,23.65,0.78,35.48,1.16
		c8.03,0.26,16.23,0.51,23.94-1.73c-5.56-5.23-5.91-15.02-0.72-20.62c3.32-3.59,8.57-5.77,9.99-10.44
		c1.21-3.97-1.05-8.34-4.36-10.86c-3.3-2.52-7.45-3.59-11.48-4.61c-17.76-4.48-37.42-6.43-53.19-16.2
		c-4.88-3.02-9.95-8.65-7.36-13.77c2.24-4.44,8.37-4.64,13.34-4.42c21.53,0.95,43.72-1.99,62.72-12.16
		c6.87-3.68,13.25-8.25,20.23-11.71c12.93-6.41,27.92-6.62,41.8-10.55c11.88-3.36,23-8.09,34.21-13.17c2.79-1.27,4.9-2.48,6.64-4.99
		c3.46-5.01,7.33-8.94,12.86-11.66c1.03-0.5,2.14-1.01,2.73-2c0.49-0.82,0.52-1.83,0.53-2.78
		C601.22,178.18,601.22,166.44,601.07,154.71z"/>
    <path class="Key_Map_Eastern_India_sections_svg__st1" d="M430.46,296.49c-0.14,0-0.29,0-0.43,0"/>
  </g>
  <g id="Key_Map_Eastern_India_sections_svg__Upper_Siwaliks"/>
  <g id="Key_Map_Eastern_India_sections_svg__Active_floodplain">
    <path class="Key_Map_Eastern_India_sections_svg__st2" d="M364.77,331.3c-3.28-3.3-7.11-6.16-11.28-8.24c-11.49-5.72-18.35-18.39-26.48-28.15
		c-4.72-5.67-11.96-8.78-19.24-9.99c-23.19-3.85-48.59-2.81-72.15-4.45c-8.64-0.6-16.85-3.06-25.37-4.53
		c-3.25-0.56-6.54-1.02-9.84-1.04c-3.3-0.02-6.11,0.64-9.29,1.47c-7.6,1.97-15.59,5.01-23.44,5.26c-2.38,0.08-4.22,0.15-6.48,0.88
		c-2.35,0.75-4.76,1.32-7.2,1.69c-2.1,0.32-4.21,0.5-6.3,0.88c-4.68,0.87-9.11,2.76-13.71,4.01c-4.09,1.11-8.21,2.01-12.48,2.26
		c-3.88,0.22-7.88-0.43-11.72-0.09c-6.92,0.61-14.02-1.46-20.02-5.02c-1.16-0.69-2.31-1.43-3.26-2.38c-3-3-3.65-7.54-5.23-11.48
		c-1.23-3.06-2.95-6.07-5.81-7.82c-2.92-1.78-6.13-3.03-9.23-4.45c-2.56-1.18-4.91-2.78-7.02-4.64c-2.81-2.49-5.2-5.42-7.31-8.52
		c-0.96-1.41-1.94-2.79-2.92-4.18c-0.28,6.16-0.74,12.31-0.99,18.46c1.14,0.72,2.02,1.46,3.06,2.67c2.73,3.14,6.19,5.5,9.37,8.14
		c3.49,2.89,6.67,6.14,9.84,9.38c1.19,1.21,2.45,2.61,2.45,4.31c-5.89-2.58-11.7-5.35-17.41-8.31c-1.45-0.75-2.87-1.56-4.32-2.29
		c-0.91-0.45-1.87-0.61-2.78-0.99c0.52,4.85,1.39,9.75,1.15,14.55c0.81,0.49,1.63,0.98,2.45,1.46c4.69,2.73,9.49,5.39,14.19,8.15
		c5.09,2.98,10.5,5.4,16.05,7.37c2.73,0.97,5.53,1.97,8.35,2.61c2.85,0.65,5.58,2.22,8.46,2.97c0.43,0.11,0.86,0.22,1.28,0.32
		c2.67,0.64,5.38,1.11,8.08,1.58c2.47,0.43,4.94,0.9,7.42,1.31c2.12,0.34,4.21,1.06,6.36,1.4c4.61,0.73,9.29,0.71,13.94,0.68
		c2.19-0.01,4.38-0.03,6.57-0.04c1.68-0.01,3.28,0.53,4.93,0c1.4-0.45,2.54-1.47,3.68-2.41c16.2-13.44,42.67-16.78,62.93-16.54
		c12.78,0.15,25.49,1.92,37.96,4.63c12,2.61,23.76,5.81,36.2,4.03c8.45-1.21,17.99-4.61,24.83,0.5c5.68,4.25,5.23,12.03,10.79,16.72
		c3.51,2.96,7.66,5.11,11.1,8.15c2.23,1.97,4.13,4.3,6.43,6.17c8.86,7.2,22.27,3.68,32.94,4.07
		C371.5,338,368.06,334.62,364.77,331.3z"/>
    <path class="Key_Map_Eastern_India_sections_svg__st1" d="M473.5,341.5c-7-5-6.48-16.66-1.29-22.26c3.32-3.59,8.57-5.77,9.99-10.44c1.21-3.97-1.05-8.34-4.36-10.86
		c-3.3-2.52-7.45-3.59-11.48-4.61c-17.76-4.48-37.42-6.43-53.19-16.2c-4.88-3.02-9.95-8.65-7.36-13.76
		c2.24-4.44,8.37-4.64,13.34-4.42c21.53,0.95,43.72-1.99,62.72-12.16c6.87-3.68,13.25-8.25,20.23-11.71
		c12.93-6.41,27.92-6.62,41.8-10.55c15.03-4.25,24.97-8.38,38.6-16.01c1.67-0.93,5.83-7.48,7-9c1.55-2.02,3.09-1.33,4.38-3.52
		c2.62-4.48,6.24,3.67,5.62-11.48"/>
  </g>
  <g id="Key_Map_Eastern_India_sections_svg__rivers">
    <path class="Key_Map_Eastern_India_sections_svg__st3" d="M154.89,294.4c1.87,0.25,3.75,0.42,5.64,0.49c1.35,0.05,2.82,0.03,3.9-0.79c1.1-0.83,1.52-2.29,2.48-3.28
		c0.95-0.98,2.36-1.42,3.72-1.47c1.73-0.06,3.54,0.36,5.23,0.63c3.33,0.52,7.4,0.17,9.08-2.75c0.76-1.32,0.95-3.08,2.21-3.94
		c0.6-0.41,1.34-0.53,2.07-0.62c3.16-0.36,6.39-0.12,9.45,0.73c1.46,0.4,2.9,0.94,4.41,0.95c1.99,0.02,3.86-0.85,5.78-1.4
		c11.22-3.21,18.26,9.45,28.79,5.33c0.15,2.62,3.17,4.64,5.64,3.77c1-0.35,1.87-1.07,2.91-1.23c1.04-0.15,2.07,0.27,3,0.75
		c5.75,2.93,11.46,8.22,17.66,6.41c4.39-1.28,8.16-6.05,12.5-4.61c1.14,0.38,2.09,1.16,3.1,1.79c8.87,5.53,12.86,0.11,20.82-2.58
		c6.45-2.18,12.84,3.58,16.27,9.47c2.83,4.86,4.89,10.2,8.27,14.7c3.14,4.17,7.38,7.51,12.17,9.59c1.36,0.59,2.79,1.09,4.02,1.91
		c3.37,2.24,4.77,6.42,7.16,9.69c0.77,1.05,1.68,1.99,2.48,3.01c0.05,0.06,0.1,0.13,0.1,0.21c-0.01,0.16-0.21,0.22-0.37,0.23
		c-0.93,0.06-1.86,0.07-2.79,0.03"/>
    <path class="Key_Map_Eastern_India_sections_svg__st3" d="M49.45,255.84C53,259,54,265,59,268c4,2,9,2,14,2c6,6,12,12,15,20c9,7,20,13,31,14c7,1,12,4,19,4c2,0,4-1,6-3
		c4-4,4-13,12-12c3,1,7,4,10,1c1-1,1-2,1.34-3.19"/>
    <path class="Key_Map_Eastern_India_sections_svg__st4" d="M62.15,87.18c1.29-0.13,2.5,0.64,3.45,1.51c0.96,0.87,1.81,1.9,2.95,2.5c1.08,0.57,2.38,0.73,3.32,1.51
		c0.99,0.82,1.37,2.14,1.8,3.35c1.26,3.51,3.11,6.65,6.4,8.47c1.33,0.74,2.98,2.04,4.54,2.13c0.73,0.04,1.48-0.03,2.16,0.22
		c0.68,0.25,1.23,0.84,1.44,1.53c0.14,0.45,0.15,0.96,0.39,1.37c0.26,0.43,0.74,0.68,1.22,0.82c2.03,0.58,4.36-0.48,6.25,0.45
		c0.63,0.31,1.14,0.81,1.63,1.31c0.88,0.88,1.77,1.76,2.65,2.64c0.76,0.75,1.55,1.58,1.7,2.64c0.15,1.1-0.41,2.37,0.26,3.25
		c0.95,1.26,3.34,0.35,4.32,1.6c0.27,0.34,0.37,0.8,0.34,1.24c-0.08,1.33-1.18,2.38-2.37,2.97c-1.19,0.59-2.52,0.87-3.7,1.48
		c-1.34,0.69-2.44,1.82-3.13,3.15c-0.56,1.1-1.66,2.46-1.87,3.66c-0.24,1.4,0.79,2.67,1.14,4.05c0.38,1.51-0.15,3.22-1.32,4.25
		c-1.06,0.93-2.61,1.4-3.19,2.68c-0.18,0.39-0.24,0.81-0.4,1.21c-0.42,1.07-1.43,1.79-2.43,2.36s-2.07,1.09-2.8,1.98
		c-1.92,2.35,0.73,4.79,2.42,6.23c0.96,0.81,1.82,1.74,2.57,2.75c0.22,0.29,0.43,0.61,0.49,0.97c0.13,0.85-0.72,1.63-1.58,1.63
		c-0.86,0-1.63-0.58-2.11-1.3c-0.48-0.71-0.73-1.55-1.03-2.36c-0.3-0.81-0.67-1.62-1.32-2.19c-1.2-1.04-3-0.95-4.57-0.69
		c-1.69,0.29-3.17,0.54-4.77-0.11c-1.7-0.69-3.4-1.38-5.1-2.07c-1.35,0.91,0.96,2.4,1.63,2.8c1.41,0.84,2.44,1.17,4.09,1.49
		c0.4,0.08,0.81,0.15,1.18,0.35c0.63,0.33,1.04,0.96,1.36,1.59c0.59,1.16,0.97,2.45,0.9,3.75c-0.07,1.21-0.53,2.36-0.98,3.48
		c-0.83,2.05-1.51,4.11-2.61,6.03c-1.05,1.83-2.21,3.67-2.5,5.8c-1.16,8.55,5.6,21.34,8.1,29.45c1.48,4.8,2.97,9.67,3.13,14.69
		c0.06,2.05-0.38,4.24,0.93,6.03c1.53,2.09,4.69,2.32,6.42,4.25c0.49,0.54,0.84,1.2,1.4,1.67c1,0.82,2.47,0.87,3.49,1.68
		c0.44,0.35,0.76,0.81,1.12,1.24c1.63,1.92,4.17,3,6.68,2.95c2.72-0.05,5.73-1.4,8.38-0.35c0.94,0.37,2.28,1.07,2.94,1.84
		c0.76,0.88,0.67,2.16,1.24,3.13c0.57,0.95,1.79,1.46,2.86,1.2c0.83-0.2,1.57-0.81,2.42-0.76c1.31,0.08,2.03,1.59,3.25,2.09
		c0.68,0.28,1.45,0.21,2.13,0.47c0.79,0.3,1.38,1.01,2.19,1.27c0.59,0.19,1.24,0.12,1.86,0.17c1.27,0.1,2.44,0.69,3.57,1.28
		c1.42,0.74,2.85,1.47,4.27,2.21c1.1,0.57,1.39,1.44,2.2,2.32c0.85,0.92,1.94,1.62,3.14,1.99c1.06,0.32,2.18,0.4,3.23,0.73
		c1.19,0.37,2.25,1.06,3.37,1.6c1.51,0.73,3.12,1.21,4.72,1.68c0.93,0.27,1.87,0.55,2.83,0.56c1.48,0.02,2.96-0.58,4.41-0.25
		c0.95,0.21,1.77,0.8,2.56,1.38c1.58,1.15,3.15,2.31,4.73,3.46c0.41,0.3,0.83,0.61,1.13,1.02c2.73-0.01,5.14,1.64,7.36,3.23
		c1.13,0.8,2.28,1.63,3.02,2.8c1.16,1.8,1.19,4.18,2.46,5.91c0.98,1.35,2.67,2.14,4.33,2.03"/>
    <path class="Key_Map_Eastern_India_sections_svg__st4" d="M176.3,141.36c-0.55,3.15-2.35,5.78-3.11,8.82c-0.56,2.25-1.97,3.88-2.76,5.99c-0.91,2.42-2.21,4.7-3.85,6.7
		c-0.92,1.13-1.94,2.16-2.96,3.2c-0.42,0.43-0.88,0.98-0.71,1.56c0.11,0.4,0.5,0.66,0.75,1c0.49,0.64,0.48,1.51,0.44,2.31
		c-0.04,0.95-0.08,1.92-0.32,2.84c-0.38,1.43-1.26,2.71-1.51,4.17c-0.34,1.96,0.49,3.93,1.54,5.61c0.29,0.47,0.61,0.95,0.72,1.5
		c0.29,1.43-0.9,2.68-1.49,4.02c-0.97,2.19-0.49,5.14-2.37,6.62c1.14,0.73,2.49,1.11,3.84,1.08c0.7-0.01,1.41-0.13,2.09,0.04
		c0.7,0.18,1.28,0.65,1.96,0.91c1.44,0.54,3.1,0.03,4.58,0.49c0.6,0.18,1.14,0.52,1.74,0.71c0.73,0.23,1.5,0.23,2.26,0.25
		c4.79,0.15,9.67,1.15,13.83,3.59c0.28,0.16,0.56,0.34,0.76,0.58c0.68,0.82,0.09,2.3-0.96,2.43c-0.61,0.07-1.21-0.23-1.82-0.2
		c-0.42,0.02-0.82,0.19-1.2,0.37c-1.27,0.57-2.54,1.13-3.81,1.7c-0.41,0.18-0.83,0.37-1.15,0.68c-0.23,0.22-0.41,0.5-0.65,0.71
		c-0.93,0.83-2.27,0.45-3.36,0.83c-0.48,0.17-0.85,0.48-1.3,0.66c-0.72,0.28-1.37,0.18-1.95,0.84c-1.22,1.4-0.15,3.94-1.48,5.23
		c-1.35,1.31-3.21,2.98-2.89,5.1c0.15,1.02,0.82,1.88,1.47,2.68c0.74,0.92,1.48,1.84,2.22,2.76c0.37,0.46,0.76,0.93,1.29,1.18
		c0.46,0.22,1.02,0.26,1.41,0.6c0.51,0.45,0.53,1.24,0.91,1.8c0.76,1.11,2.51,0.87,3.58,1.68c0.68,0.51,0.99,1.37,1.3,2.16
		c1.16,2.95,2.84,5.7,4.94,8.07c0.83,0.93,1.95,1.73,2.65,2.74c0.74,1.06,0.94,2.42,1.8,3.42c0.74,0.86,1.88,1.32,2.56,2.22
		c0.29,0.39,0.49,0.85,0.8,1.24c0.87,1.09,2.43,1.34,3.46,2.27c0.85,0.77,1.26,1.93,2.1,2.71c0.88,0.83,2.15,1.17,2.97,2.06
		c0.73,0.8,0.98,1.9,1.34,2.92c1.37,3.87,4.59,7.1,4.96,11.2c0.1,1.09-0.02,2.19,0.08,3.28c0.21,2.19,1.35,4.27,3.09,5.62
		c0.1,0.08,0.22,0.15,0.34,0.11s0.07-0.28-0.04-0.24"/>
    <path class="Key_Map_Eastern_India_sections_svg__st4" d="M278.2,292.88c-5.51-2.54-10.2-6.84-13.21-12.11c-0.53-0.93-1.01-1.88-1.34-2.9
		c-0.38-1.16-0.56-2.38-0.61-3.61c-0.08-1.67,0.06-3.35,0.41-4.98c0.12-0.56,0.27-1.12,0.58-1.59c0.73-1.11,2.15-1.52,3.13-2.42
		c0.6-0.54,1.01-1.25,1.5-1.89c2.5-3.28,6.79-4.74,9.42-7.91c1.43-1.73,2.62-3.75,3.92-5.59c1.63-2.31,2.73-5.2,4.01-7.74
		c0.71-1.4,1.43-2.83,1.69-4.38c0.18-1.07,0.15-2.17,0.49-3.2c0.19-0.58,0.5-1.11,0.67-1.7c0.39-1.35,0.02-2.91,0.74-4.12
		c0.4-0.66,1.1-1.16,1.29-1.9c0.21-0.85-0.32-1.71-0.91-2.35c-0.6-0.64-1.31-1.23-1.61-2.05c-0.35-0.98-0.03-2.06-0.1-3.09
		c-0.06-0.86-0.39-1.68-0.46-2.54c-0.2-2.31,1.52-4.42,3.57-5.49c0.74-0.39,1.73-0.77,2.23-1.48c1.04-1.5-0.46-3.62,1-5.06
		c0.78-0.77,2.1-0.87,2.74-1.76c0.25-0.35,0.37-0.78,0.4-1.21c0.15-1.68-0.74-3.25-1.15-4.88c-0.27-1.08-0.33-2.2-0.52-3.3
		c-0.52-3.04-2.02-6.21-0.85-9.07c0.14-0.34,0.33-0.69,0.65-0.87c0.47-0.26,1.06-0.11,1.58-0.24c2-0.49,0.15-2.64,0.87-3.8
		c0.36-0.58,0.96-0.97,1.54-1.33c0.9-0.56,1.81-1.11,2.73-1.64c0.29-0.17,0.58-0.34,0.78-0.61c0.49-0.66,0.16-1.65-0.47-2.19
		s-1.45-0.75-2.23-1.02c-1.12-0.39-2.19-0.93-3.18-1.6c-0.9-0.61-1.78-1.36-2.85-1.49c-0.76-0.09-1.52,0.14-2.28,0.17
		c-1.9,0.06-3.61-1.14-5.49-1.44c-1.04-0.16-2.11-0.04-3.16,0.09c-2.5,0.31-5.01,0.67-7.53,0.65c-2.98-0.02-5.95-0.55-8.92-0.34
		c-1.09,0.08-2.31,0.23-3.18-0.43c-1.36-1.04-0.91-3.21-1.68-4.74c-0.79-1.57-2.69-2.15-4.4-2.58c-1.07-0.27-2.25-0.4-3.27,0.04
		c-0.56,0.24-1.1,0.64-1.3,1.22c-0.16,0.43-0.11,0.93-0.31,1.35c-0.47,1-1.95,1.03-2.66,1.88c-0.23,0.28-0.37,0.64-0.63,0.9
		c-0.46,0.47-1.19,0.51-1.84,0.49c-1.53-0.04-3.06-0.29-4.52-0.72c-0.87-0.26-1.74-0.59-2.65-0.57s-1.88,0.47-2.19,1.32
		c-0.22,0.62-0.06,1.3,0.11,1.94c0.31,1.16,0.61,2.31,0.92,3.47"/>
    <path class="Key_Map_Eastern_India_sections_svg__st4" d="M342.7,195.13c1.98,2.2,2.11,5.53,1.39,8.4c-0.72,2.87-2.16,5.51-2.98,8.35c-1.28,4.41-1.01,9.25,0.75,13.49
		c3.64,8.77,12.87,14.02,17.44,22.34c0.72,1.3,1.32,2.69,2.32,3.79c1.45,1.61,3.58,2.46,5.06,4.04c1.93,2.07,2.46,5.03,3.48,7.67
		c0.85,2.2,2.29,4.9,3.88,6.66c1.75,1.93,3.83,2.22,5.72,3.95c0.62,0.57,1.03,1.34,1.66,1.9c0.53,0.46,1.18,0.74,1.79,1.06
		c3.06,1.62,3.73,3.59,5.07,6.56c0.83,1.85,2.3,3.56,2.22,5.59"/>
    <path class="Key_Map_Eastern_India_sections_svg__st3" d="M404.03,341.58c-2.03-1.3-4.13-2.5-5.97-4.07c-1.95-1.66-3.92-3.49-4.78-5.9c-1.26-3.5,0.06-7.43-0.68-11.08
		c-0.52-2.54-2-4.76-3.1-7.1c-3.04-6.44-3.25-14.16-0.55-20.74c0.89-2.16,2.07-4.22,2.64-6.49c0.97-3.86,0.08-7.91-0.02-11.89
		c-0.18-7.16,3.83-11.36,9.83-14.46c5.02-2.59,10.51-6.76,15.57-8.78c5.19-2.07,8.98,1.45,14.19,1.71c3.43,0.17,6.65-1.51,10-2.25
		c6.06-1.33,12.54,0.47,18.52-1.21c4.61-1.3,8.39-4.51,12.29-7.29c8.29-5.9,17.78-10.14,27.71-12.37
		c10.22-2.3,19.58-6.52,30.24-7.29c1.74-0.13,3.56-0.21,5.06-1.1c1.77-1.04,2.79-3.01,4.36-4.34c2.71-2.27,6.58-2.31,9.97-3.33
		c9.28-2.79,14.27-12.61,17.96-21.57c0.51-1.23,1.03-2.5,1.97-3.44c1.72-1.72,4.4-1.97,6.47-3.24c2.01-1.23,3.31-3.32,5.07-4.88
		c2.57-2.29,6.03-3.38,8.64-5.62c2.62-2.24,4.09-6.63,1.6-9.01c-0.77-0.73-1.79-1.14-2.78-1.53c-2-0.78-4.41-1.36-6.21-2.54
		c-1.52-0.99-1.01-2.82-3.67-2.95c-2.51-0.12-5.62,0.2-6.9-1.95c-0.73-1.23-0.47-2.81,0.08-4.13s1.37-2.53,1.77-3.9
		c1.1-3.83-1.3-7.71-3.6-10.98c-1.2-1.7-2.39-3.41-3.59-5.11c-1.84-2.63-3.68-3.08-2.48-6.06c0.34-0.85,1.09-1.46,1.8-2.03
		c4.26-3.4,8.52-6.81,12.78-10.21c1.78-1.42,3.62-2.91,4.63-4.96c1.97-3.96,0.32-8.69-1.34-12.79c-0.68-1.68-1.42-3.44-2.87-4.52
		c-2.55-1.9-6.35-0.88-8.69,1.27s-3.63,5.17-5.2,7.94c-1.56,2.77-3.66,5.52-6.7,6.45c-1.1,0.33-2.27,0.41-3.38,0.69
		c-3.3,0.85-5.8,3.43-8.42,5.61c-6.36,5.29-14.34,8.61-22.57,9.39c-2.28,0.22-4.64,0.26-6.75,1.14c-2.24,0.94-4.09,2.8-6.47,3.31
		c-3.02,0.65-6.08-1.04-9.17-0.91c-2.01,0.09-3.89,0.94-5.85,1.41c-8.26,2-18.96-2.09-27.37-2.73c-2.57-0.19-5.15-0.33-7.72-0.46
		c-2.28-0.12-4.56-0.23-6.84-0.35c-11.01-0.56-22.1-1.12-33,0.53c-3.01,0.46-6.03,1.08-9.08,0.97c-3.27-0.13-6.44-1.11-9.69-1.44
		c-9.05-0.93-18.11,2.42-27.17,2.63c-7.73,0.18-16.9,2.35-24.46,1.03c-2.35-0.41-4.6-1.35-6.97-1.64c-4.7-0.57-9.18,1.42-13.71,2.3
		c-2.22,0.43-4.41,0.09-6.59,0.45c-2.44,0.4-4.63,1.74-6.7,3.03c-0.5,0.31-1.02,0.64-1.27,1.17c-0.21,0.43-0.21,0.92-0.33,1.38
		c-0.36,1.51-1.77,2.5-2.8,3.66c-1.01,1.14-1.69,2.54-2.7,3.67c-1.77,1.97-4.39,2.98-7.01,3.4c-2.62,0.42-5.28,0.31-7.93,0.43
		c-4.96,0.22-10.04,1.22-14.81-0.18c-1.8-0.53-3.34-1.56-5.22-1.58c-2.31-0.02-4.46,0.34-6.74,0.73
		c-5.58,0.96-11.27,0.92-16.93,0.87c-2.73-0.02-5.48-0.05-8.13-0.7c-1.49-0.37-2.97-0.93-4.5-0.87c-1.91,0.08-3.88,1.13-5.65,0.41
		c-0.92-0.37-1.63-1.19-2.58-1.49c-1.52-0.49-3.3,0.44-4.74-0.27c-1.14-0.56-1.77-1.71-3.14-1.85c-0.97-0.1-2.1,0.2-3.09,0.25
		c-2.59,0.12-5.1,1.24-6.71,3.31c-0.44,0.57-0.89,1.24-1.6,1.35c-0.39,0.06-0.77-0.07-1.14-0.2c-1.83-0.63-3.65-1.26-5.48-1.89
		c-1.09-0.38-2.19-0.75-3.33-0.83c-0.89-0.06-1.8,0.07-2.68-0.07c-1.38-0.22-2.58-1.09-3.59-2.06c-0.16-0.15-0.31-0.31-0.39-0.51
		c-0.1-0.28-0.03-0.58,0.04-0.87c0.22-0.89,0.44-1.78,0.66-2.67c0.14-0.58,0.28-1.17,0.21-1.76c-0.12-0.98-0.83-1.82-1.67-2.33
		c-3.66-2.23-8.67-2.05-12.73-3.23c-1.44-0.42-3.07-1.1-3.47-2.55c-0.18-0.68-0.06-1.44-0.39-2.06c-0.38-0.71-1.21-1.01-1.9-1.42
		c-1.63-0.96-2.7-2.74-4.41-3.57c-1.61-0.78-3.56-0.59-5.2-1.32c-1.43-0.63-2.47-1.88-3.69-2.86c-1.06-0.86-2.29-1.53-3.58-1.96
		c-1.46-0.49-2.64-0.79-3.47-2.16c-0.75-1.25-1.54-2.04-2.86-2.78c-2.4-1.34-4.9-2.53-7.45-3.56c-1.24-0.5-2.52-0.97-3.52-1.85
		c-1.32-1.16-2.08-2.96-3.66-3.72c-1.51-0.74-3.33-0.3-4.98-0.61c-1.35-0.25-2.56-1-3.87-1.42c-0.73-0.23-1.5-0.36-2.2-0.66
		c-0.83-0.35-1.55-0.91-2.26-1.46c-3.67-2.83-7.52-6-11.99-7.34c-2.53-0.76-4.86-2.3-7.49-2.46c-0.85-0.05-1.7,0.04-2.55-0.02
		c-1.91-0.13-3.68-1-5.4-1.86"/>
    <path class="Key_Map_Eastern_India_sections_svg__st4" d="M455.34,162.18c6.71,9.3,6.73,22.9,0.03,32.21c-1.76,2.44-3.91,4.59-5.56,7.11c-2.6,3.98-3.85,8.75-6.72,12.54
		c-3.86,5.08-10.55,8.35-12.05,14.56c-0.53,2.19-0.31,4.48-0.49,6.72c-0.46,5.83-3.75,11.38-8.65,14.57"/>
    <path class="Key_Map_Eastern_India_sections_svg__st4" d="M465.85,151.18c1.52,4.52,7.17,5.98,11.94,6.05c4.77,0.06,10.04-0.43,13.8,2.51c6.45,5.04,6.5-1.14,12.45-2.96
		c1.59-0.49,3.29-0.45,4.95-0.41c3.69,0.09,7.39,0.18,11.08,0.27c1.41,0.03,2.99,0,3.96-1.02c0.57-0.6,0.82-1.44,1.36-2.06
		c1.21-1.38,3.37-1.23,5.19-0.97c2.39,0.35,5.01,0.81,6.58,2.65c1.58,1.85,1.83,4.8,3.93,6.02c0.79,0.46,1.8,0.64,2.35,1.37
		c0.82,1.07,0.19,2.61,0.42,3.94c0.32,1.81,2.12,2.88,3.46,4.14c2.67,2.51,3.74,6.36,3.67,10.02c-0.13,6.66-0.89,13.97-1.55,20.66
		c-0.11,1.09-0.24,2.21-0.72,3.19c-0.58,1.16-1.6,2.02-2.59,2.85c-3.99,3.34-7.99,6.68-11.98,10.02c-3.2,2.68-7.13,4.9-11.3,5.63"/>
    <path class="Key_Map_Eastern_India_sections_svg__st4" d="M74.74,76.22c-6.47-5.94-15.48-8.16-23.62-10.79"/>
    <path class="Key_Map_Eastern_India_sections_svg__st4" d="M123.08,176.41c0.88,0.84,1.77,1.69,2.65,2.53c0.28,0.26,0.57,0.55,0.65,0.93c0.12,0.54-0.23,1.12-0.04,1.63
		c0.13,0.33,0.45,0.55,0.76,0.72c0.85,0.48,1.75,0.87,2.68,1.14c0.7,0.21,1.45,0.37,2.02,0.83c0.43,0.35,0.72,0.85,1,1.34
		c0.57,1.01,1.15,2.02,1.72,3.04c0.77,1.36,1.54,2.74,1.89,4.25c0.35,1.52,0.22,3.22-0.7,4.47c-0.53,0.72-1.29,1.25-2.08,1.65
		c-2.13,1.09-4.65,1.41-6.98,0.87c-1.1-0.25-2.14-0.68-3.18-1.11c-3.7-1.52-7.4-3.05-11.11-4.57c-0.9-0.37-1.81-0.75-2.78-0.91
		c-1.49-0.25-3.19-0.04-4.33-1.03c-0.4-0.35-0.72-0.84-1.24-0.98c-0.29-0.08-0.6-0.03-0.9-0.03c-1.2,0-2.24-0.74-3.31-1.27
		c-0.52-0.26-1.09-0.48-1.66-0.37c-0.77,0.14-1.32,0.86-1.56,1.61c-0.59,1.89,0.39,3.88,1.34,5.62c0.6,1.09,1.2,2.19,1.79,3.28
		c0.17,0.31,0.34,0.64,0.35,0.99c0.01,0.52-0.35,0.97-0.57,1.44c-0.5,1.05-0.32,2.39,0.44,3.27c0.83,0.96,1.96,1.46,2.68,2.53
		c0.79,1.19,1.99,2,3.45,2.48c0.61,0.2,1.25,0.31,1.82,0.6c0.62,0.32,1.11,0.83,1.7,1.2c1.33,0.81,3.05,0.77,4.38,1.59
		c0.81,0.5,1.42,1.3,2.25,1.77c0.92,0.52,2.1,0.66,2.75,1.5c0.25,0.33,0.39,0.73,0.67,1.05c0.68,0.78,1.92,0.73,2.75,1.34
		c1.23,0.9,1.12,2.8,2.04,4.01c0.84,1.1,2.35,1.41,3.72,1.63c1.73,0.28,3.47,0.57,5.22,0.54c1.11-0.02,2.26-0.15,3.31,0.19
		c0.76,0.25,1.51,0.75,2.29,0.6c0.58-0.11,1.05-0.56,1.63-0.64c0.82-0.12,1.54,0.52,2.32,0.8c1.07,0.38,2.16,0.14,3.11,0.83
		c0.98,0.71,1.59,1.86,1.84,3.02c0.26,1.21,0.29,2.48,0.8,3.61c0.23,0.51,0.56,0.97,0.74,1.49c0.29,0.79,0.23,1.66,0.34,2.5
		c0.17,1.4,0.77,2.71,1.37,3.99c0.5,1.07,1.01,2.16,1.82,3.02c0.51,0.54,1.12,0.96,1.69,1.43c1.33,1.1,2.45,2.46,3.28,3.97
		c0.98,1.77,0.89,3.54,1.03,5.53c0.02,0.27,0.04,0.54,0.13,0.79c0.34,0.9,1.43,1.2,2.29,1.65c1.97,1.05,3.03,3.43,5.09,4.29"/>
    <path class="Key_Map_Eastern_India_sections_svg__st4" d="M49.52,176.12C59,179,65,187,70,194c-2,8,8,8,11.87,11.83"/>
    <path class="Key_Map_Eastern_India_sections_svg__st3" d="M49.93,280.29c10.74,5.82,21.6,11.41,32.41,17.1c4.5,2.37,10.4,6.93,15.72,4.85
		c2.39-0.93,9.12-6.26,10.69-1.07"/>
  </g>
  <g id="Key_Map_Eastern_India_sections_svg__scale"/>
  <g id="Key_Map_Eastern_India_sections_svg__towns"/>
  <g id="Key_Map_Eastern_India_sections_svg__Thrust_faults">
    <path class="Key_Map_Eastern_India_sections_svg__st5" d="M600.17,150.38C589,154,582,164,573,172c-2,2-4,3-6,5c-12,7-24,14-33,25c-9,9-21,11-33,7c-8,2-16,4-23,7
		c-11,4-23,6-35,6c-3,0-7,2-10,2c-5,0-10,1-15,1c-3,0-7,1-10,2c-18,3-33-2-49-7c-3,0-7,1-10,3c-18,12-37,12-57,8c-31-5-59-13-87-26
		c-3-1-6-2-9-2c-14,0-28,1-42-1c-9-1-16-5-24-8c-12-5-22-14-34-21c-15-8-30-14-45.51-20.51"/>
    <path class="Key_Map_Eastern_India_sections_svg__st6" d="M221.9,211.99c-1.18-2.03-0.9-4.43-2.58-6.68c-1.43,1.14-3.45,2.5-4.23,4.13"/>
    <path class="Key_Map_Eastern_India_sections_svg__st6" d="M316.58,232.35c-1.84-1.48-2.4-4.02-4.79-5.49c-0.99,1.83-2.48,4.15-2.67,6.16"/>
    <path class="Key_Map_Eastern_India_sections_svg__st6" d="M168.48,202.53c-1.41-1.52-1.49-4.01-3.4-5.54c-1.18,1.71-2.9,3.86-3.4,5.79"/>
    <path class="Key_Map_Eastern_India_sections_svg__st6" d="M61.81,156.35c-1.05-2.12-0.47-4.66-2.02-7c-1.67,1.24-4,2.71-5.02,4.45"/>
    <path class="Key_Map_Eastern_India_sections_svg__st6" d="M111.98,182.39c-0.79-2.21-0.07-4.52-1.3-7.04c-1.61,0.86-3.85,1.82-4.91,3.28"/>
    <path class="Key_Map_Eastern_India_sections_svg__st6" d="M268.28,225.93c-1.36-1.93-1.2-4.53-3.09-6.6c-1.45,1.49-3.53,3.3-4.27,5.18"/>
    <path class="Key_Map_Eastern_India_sections_svg__st6" d="M368,222.29c-1.1-2.09-0.6-4.65-2.21-6.94c-1.63,1.28-3.93,2.82-4.9,4.58"/>
    <path class="Key_Map_Eastern_India_sections_svg__st6" d="M575.31,169.52c-2.34-0.36-4.09-2.29-6.89-2.36c0.06,2.08-0.08,4.83,0.76,6.67"/>
    <path class="Key_Map_Eastern_India_sections_svg__st6" d="M534.71,200.15c-2.36-0.06-4.35-1.75-7.14-1.46c0.32,2.05,0.54,4.8,1.6,6.52"/>
    <path class="Key_Map_Eastern_India_sections_svg__st6" d="M89.66,71.43c-1.81-1.63-2.23-4.25-4.6-5.9c-1.11,1.79-2.77,4.05-3.08,6.07"/>
    <path class="Key_Map_Eastern_India_sections_svg__st6" d="M418.06,224.97c-1.84-1.48-2.39-4.03-4.78-5.5c-0.99,1.83-2.49,4.15-2.68,6.15"/>
    <path class="Key_Map_Eastern_India_sections_svg__st6" d="M473.34,216.66c-2.07-1.13-3.07-3.55-5.67-4.57c-0.65,1.97-1.72,4.52-1.56,6.53"/>
  </g>
  <g id="Key_Map_Eastern_India_sections_svg__Labels">
    <g>
      <path d="M533.21,361.79c-0.06-1.18-0.13-2.6-0.12-3.65h-0.04c-0.28,0.99-0.61,2.05-1.02,3.21l-1.43,4.11h-0.79l-1.31-4.03
			c-0.38-1.19-0.71-2.29-0.94-3.29h-0.02c-0.02,1.05-0.08,2.47-0.16,3.74l-0.22,3.63h-1l0.56-8.46h1.33l1.38,4.09
			c0.34,1.04,0.61,1.97,0.82,2.85h0.04c0.2-0.85,0.49-1.78,0.85-2.85l1.44-4.09h1.33l0.5,8.46h-1.02L533.21,361.79z"/>
      <path d="M539.3,365.51l-0.08-0.77h-0.04c-0.32,0.48-0.95,0.9-1.78,0.9c-1.17,0-1.77-0.87-1.77-1.75c0-1.47,1.25-2.27,3.49-2.26
			v-0.12c0-0.5-0.13-1.41-1.32-1.41c-0.54,0-1.1,0.18-1.51,0.45l-0.24-0.73c0.48-0.33,1.17-0.54,1.91-0.54
			c1.78,0,2.21,1.27,2.21,2.49v2.27c0,0.53,0.02,1.04,0.1,1.46H539.3z M539.14,362.41c-1.15-0.03-2.46,0.19-2.46,1.37
			c0,0.72,0.46,1.06,1,1.06c0.76,0,1.24-0.5,1.4-1.02c0.04-0.11,0.06-0.24,0.06-0.35V362.41z"/>
      <path d="M542.16,359.43l1.27,3.59c0.13,0.4,0.28,0.88,0.37,1.24h0.02c0.11-0.36,0.23-0.83,0.37-1.27l1.15-3.57h1.12l-1.58,4.33
			c-0.75,2.08-1.27,3.15-1.99,3.8c-0.52,0.48-1.03,0.67-1.3,0.72l-0.26-0.93c0.26-0.09,0.61-0.26,0.92-0.54
			c0.29-0.24,0.65-0.67,0.89-1.23c0.05-0.11,0.08-0.2,0.08-0.26s-0.02-0.15-0.07-0.29l-2.15-5.6H542.16z"/>
      <path d="M549.89,364.24c0.3,0.2,1,0.51,1.73,0.51c1.36,0,1.78-0.9,1.76-1.58c-0.01-1.14-1-1.63-2.01-1.63h-0.59v-0.83h0.59
			c0.77,0,1.74-0.42,1.74-1.38c0-0.65-0.4-1.23-1.37-1.23c-0.62,0-1.22,0.29-1.56,0.54l-0.28-0.8c0.41-0.31,1.2-0.63,2.04-0.63
			c1.54,0,2.23,0.95,2.23,1.95c0,0.84-0.48,1.56-1.44,1.92v0.02c0.96,0.2,1.74,0.96,1.74,2.1c0,1.31-0.97,2.45-2.84,2.45
			c-0.88,0-1.64-0.29-2.03-0.55L549.89,364.24z"/>
      <path d="M555.44,367.06c0.26-0.74,0.59-2.08,0.72-3l1.18-0.12c-0.28,1.07-0.8,2.46-1.14,3.05L555.44,367.06z"/>
      <path d="M563.36,365.51v-0.68l0.83-0.84c1.99-1.98,2.89-3.04,2.9-4.27c0-0.83-0.38-1.59-1.55-1.59c-0.71,0-1.3,0.38-1.66,0.69
			l-0.34-0.78c0.54-0.48,1.31-0.83,2.21-0.83c1.68,0,2.39,1.21,2.39,2.37c0,1.51-1.04,2.73-2.69,4.38l-0.62,0.6v0.02h3.5v0.92
			H563.36z"/>
      <path d="M574.7,361.34c0,2.78-0.98,4.31-2.71,4.31c-1.52,0-2.55-1.49-2.58-4.19c0-2.74,1.13-4.24,2.71-4.24
			C573.76,357.21,574.7,358.74,574.7,361.34z M570.47,361.47c0,2.12,0.62,3.33,1.58,3.33c1.08,0,1.59-1.32,1.59-3.4
			c0-2.01-0.49-3.33-1.58-3.33C571.14,358.06,570.47,359.25,570.47,361.47z"/>
      <path d="M575.67,365.51v-0.68l0.83-0.84c1.99-1.98,2.89-3.04,2.9-4.27c0-0.83-0.38-1.59-1.55-1.59c-0.71,0-1.3,0.38-1.66,0.69
			l-0.34-0.78c0.54-0.48,1.31-0.83,2.21-0.83c1.68,0,2.39,1.21,2.39,2.37c0,1.51-1.04,2.73-2.69,4.38l-0.62,0.6v0.02h3.5v0.92
			H575.67z"/>
      <path d="M584.12,358.38h-0.02l-1.36,0.77l-0.2-0.84l1.7-0.96h0.9v8.16h-1.02V358.38z"/>
    </g>
    <g>
      <path d="M92.24,283.01c-0.5,0-1.46-0.06-2.49-0.43c-1.15-0.42-1.99-1.05-2.48-2.03c-0.43-0.87-0.47-2.03-0.04-3.21
			c0.83-2.26,2.99-3.36,5.54-2.44c0.88,0.32,1.5,0.76,1.77,1.03l-0.53,0.71c-0.34-0.33-0.8-0.66-1.56-0.93
			c-1.85-0.67-3.47,0.05-4.16,1.95c-0.7,1.93,0.05,3.49,1.82,4.13c0.64,0.23,1.12,0.3,1.38,0.27l0.82-2.27l-1.54-0.56l0.29-0.79
			l2.5,0.9L92.24,283.01z"/>
      <path d="M96.7,285l0.17-0.72l-0.03-0.01c-0.46,0.32-1.18,0.49-1.96,0.21c-1.11-0.4-1.39-1.38-1.1-2.17
			c0.48-1.32,1.91-1.62,4.01-0.85l0.04-0.11c0.16-0.45,0.33-1.31-0.78-1.71c-0.51-0.18-1.09-0.22-1.57-0.11l0.01-0.74
			c0.56-0.13,1.28-0.09,1.97,0.16c1.67,0.6,1.66,1.89,1.27,2.98l-0.74,2.04c-0.17,0.47-0.32,0.94-0.38,1.34L96.7,285z M97.56,282.16
			c-1.08-0.41-2.37-0.67-2.76,0.39c-0.23,0.64,0.09,1.1,0.59,1.29c0.71,0.26,1.32-0.03,1.65-0.44c0.07-0.09,0.13-0.19,0.17-0.3
			L97.56,282.16z"/>
      <path d="M100.55,281.89c0.2-0.56,0.36-1.03,0.49-1.49l0.88,0.32l-0.27,0.92l0.02,0.01c0.46-0.42,1.27-0.7,2.18-0.38
			c0.76,0.27,1.77,1.15,1.09,3.02l-1.18,3.26l-0.99-0.36l1.14-3.15c0.32-0.88,0.25-1.73-0.68-2.07c-0.65-0.24-1.33,0.04-1.7,0.53
			c-0.09,0.11-0.17,0.27-0.23,0.44l-1.19,3.28l-0.99-0.36L100.55,281.89z"/>
      <path d="M112.05,284.37c-0.17,0.39-0.35,0.82-0.59,1.48l-1.14,3.17c-0.45,1.25-0.98,1.93-1.68,2.21c-0.71,0.3-1.53,0.19-2.22-0.06
			c-0.65-0.24-1.32-0.66-1.65-1.11l0.52-0.67c0.28,0.36,0.77,0.76,1.45,1.01c1.01,0.37,1.95,0.1,2.45-1.27l0.22-0.61l-0.02-0.01
			c-0.49,0.4-1.22,0.59-2.07,0.29c-1.35-0.49-1.91-1.99-1.36-3.5c0.67-1.85,2.25-2.46,3.51-2.01c0.95,0.34,1.29,1.03,1.36,1.56
			l0.02,0.01l0.34-0.81L112.05,284.37z M110.25,286.16c0.06-0.17,0.1-0.32,0.11-0.47c0.03-0.64-0.29-1.29-1.01-1.55
			c-0.95-0.34-1.91,0.21-2.37,1.48c-0.39,1.07-0.17,2.16,0.9,2.55c0.61,0.22,1.3,0.04,1.74-0.52c0.12-0.15,0.21-0.33,0.27-0.5
			L110.25,286.16z"/>
      <path d="M113.16,288.06c-0.46,1.35,0.2,2.21,1.19,2.57c0.71,0.26,1.18,0.29,1.61,0.26l-0.09,0.77c-0.41,0.03-1.07,0-1.94-0.32
			c-1.68-0.61-2.29-2.07-1.69-3.72s2.03-2.59,3.62-2.02c1.78,0.64,1.69,2.38,1.33,3.39c-0.07,0.2-0.15,0.35-0.2,0.45L113.16,288.06z
			 M116.33,288.4c0.24-0.63,0.32-1.71-0.79-2.11c-1-0.36-1.78,0.4-2.11,1.06L116.33,288.4z"/>
      <path d="M117.57,291.39c0.22,0.3,0.67,0.69,1.17,0.87c0.72,0.26,1.19,0.02,1.35-0.43c0.17-0.47-0.02-0.84-0.65-1.37
			c-0.86-0.7-1.12-1.41-0.89-2.07c0.32-0.88,1.29-1.34,2.46-0.92c0.55,0.2,0.98,0.53,1.22,0.82l-0.51,0.63
			c-0.17-0.21-0.5-0.54-1-0.72c-0.59-0.21-1.04,0.01-1.18,0.41c-0.16,0.45,0.09,0.77,0.7,1.3c0.82,0.7,1.13,1.35,0.84,2.16
			c-0.35,0.96-1.34,1.37-2.63,0.9c-0.6-0.22-1.1-0.56-1.4-0.93L117.57,291.39z"/>
    </g>
    <g>
      <path d="M99.39,250.95c-0.49,0.05-1.46,0.1-2.52-0.15c-1.19-0.29-2.09-0.83-2.68-1.75c-0.52-0.82-0.68-1.97-0.38-3.19
			c0.58-2.34,2.61-3.66,5.24-3.02c0.91,0.22,1.57,0.59,1.87,0.84l-0.45,0.77c-0.37-0.29-0.86-0.57-1.65-0.76
			c-1.91-0.46-3.45,0.42-3.93,2.39c-0.48,1.99,0.43,3.46,2.26,3.91c0.66,0.16,1.14,0.18,1.4,0.12l0.57-2.34l-1.6-0.39l0.2-0.82
			l2.59,0.63L99.39,250.95z"/>
      <path d="M102.83,243.39l1.03,0.25l-0.86,3.52l0.02,0c0.23-0.25,0.55-0.45,0.91-0.54c0.35-0.1,0.73-0.13,1.12-0.04
			c0.76,0.18,1.86,0.94,1.38,2.89l-0.82,3.36l-1.03-0.25l0.79-3.24c0.22-0.91,0.07-1.76-0.9-2c-0.66-0.16-1.3,0.18-1.62,0.69
			c-0.09,0.13-0.14,0.27-0.19,0.47l-0.83,3.4l-1.03-0.25L102.83,243.39z"/>
      <path d="M110.42,254l0.09-0.73l-0.04-0.01c-0.42,0.37-1.12,0.62-1.93,0.42c-1.14-0.28-1.53-1.22-1.33-2.04
			c0.33-1.36,1.72-1.82,3.9-1.27l0.03-0.12c0.11-0.47,0.19-1.34-0.96-1.62c-0.52-0.13-1.11-0.1-1.57,0.06l-0.07-0.73
			c0.54-0.19,1.26-0.22,1.98-0.05c1.72,0.42,1.86,1.7,1.58,2.83l-0.51,2.11c-0.12,0.49-0.21,0.97-0.24,1.37L110.42,254z
			 M110.97,251.08c-1.11-0.3-2.43-0.41-2.7,0.69c-0.16,0.66,0.21,1.09,0.73,1.21c0.73,0.18,1.31-0.17,1.59-0.61
			c0.06-0.1,0.11-0.21,0.14-0.31L110.97,251.08z"/>
      <path d="M119.15,250.15c-0.12,0.4-0.26,0.85-0.42,1.54l-0.8,3.27c-0.31,1.29-0.76,2.02-1.43,2.38c-0.67,0.38-1.5,0.35-2.22,0.18
			c-0.68-0.16-1.38-0.51-1.76-0.92l0.45-0.72c0.32,0.32,0.85,0.68,1.55,0.84c1.05,0.25,1.95-0.11,2.3-1.53l0.15-0.63l-0.02,0
			c-0.44,0.45-1.15,0.72-2.02,0.51c-1.4-0.34-2.11-1.77-1.73-3.33c0.46-1.91,1.98-2.69,3.27-2.38c0.98,0.24,1.39,0.88,1.52,1.41
			l0.02,0.01l0.25-0.84L119.15,250.15z M117.54,252.11c0.04-0.18,0.07-0.33,0.06-0.48c-0.04-0.64-0.42-1.25-1.17-1.43
			c-0.98-0.24-1.88,0.42-2.2,1.72c-0.27,1.11,0.07,2.16,1.17,2.43c0.63,0.15,1.3-0.1,1.68-0.7c0.1-0.16,0.17-0.35,0.21-0.53
			L117.54,252.11z"/>
      <path d="M121.44,247.92l1.03,0.25l-0.86,3.52l0.02,0.01c0.23-0.25,0.55-0.45,0.91-0.54c0.35-0.1,0.73-0.13,1.12-0.04
			c0.76,0.18,1.86,0.94,1.38,2.89l-0.82,3.36l-1.03-0.25l0.79-3.24c0.22-0.91,0.07-1.76-0.9-2c-0.66-0.16-1.3,0.18-1.62,0.69
			c-0.09,0.12-0.14,0.27-0.19,0.47l-0.83,3.4l-1.03-0.25L121.44,247.92z"/>
      <path d="M129.03,258.52l0.09-0.73l-0.04-0.01c-0.42,0.37-1.12,0.62-1.93,0.42c-1.14-0.28-1.53-1.22-1.33-2.04
			c0.33-1.36,1.72-1.81,3.9-1.27l0.03-0.12c0.11-0.47,0.19-1.34-0.96-1.62c-0.52-0.13-1.11-0.1-1.57,0.06l-0.07-0.73
			c0.54-0.19,1.26-0.22,1.98-0.05c1.72,0.42,1.86,1.7,1.58,2.83l-0.51,2.11c-0.12,0.49-0.21,0.97-0.24,1.37L129.03,258.52z
			 M129.58,255.61c-1.11-0.3-2.43-0.41-2.7,0.69c-0.16,0.66,0.21,1.09,0.73,1.21c0.73,0.18,1.31-0.17,1.59-0.61
			c0.06-0.1,0.11-0.21,0.14-0.31L129.58,255.61z"/>
      <path d="M132.47,255.25c0.16-0.66,0.29-1.24,0.38-1.77l0.9,0.22l-0.23,1.12l0.05,0.01c0.44-0.69,1.17-1.02,1.86-0.86
			c0.12,0.03,0.2,0.06,0.28,0.11l-0.24,0.97c-0.1-0.05-0.2-0.09-0.34-0.12c-0.72-0.18-1.37,0.25-1.7,0.98
			c-0.06,0.13-0.12,0.29-0.16,0.47l-0.73,3.01l-1.01-0.25L132.47,255.25z"/>
      <path d="M138.4,260.8l0.09-0.73l-0.04-0.01c-0.42,0.37-1.12,0.62-1.93,0.42c-1.14-0.28-1.53-1.22-1.33-2.04
			c0.33-1.36,1.73-1.82,3.9-1.27l0.03-0.12c0.11-0.47,0.19-1.34-0.96-1.62c-0.52-0.13-1.11-0.1-1.57,0.06l-0.07-0.73
			c0.54-0.19,1.26-0.22,1.98-0.05c1.73,0.42,1.86,1.7,1.58,2.83l-0.51,2.11c-0.12,0.49-0.21,0.97-0.24,1.37L138.4,260.8z
			 M138.95,257.89c-1.11-0.3-2.43-0.41-2.7,0.69c-0.16,0.66,0.21,1.09,0.73,1.21c0.73,0.18,1.31-0.17,1.59-0.61
			c0.06-0.1,0.11-0.21,0.14-0.31L138.95,257.89z"/>
    </g>
    <g>
      <path d="M198.49,240.01c-0.43-0.26-1.22-0.8-1.91-1.64c-0.77-0.95-1.17-1.93-1.08-3.02c0.08-0.96,0.65-1.98,1.62-2.78
			c1.88-1.51,4.29-1.34,6,0.76c0.59,0.72,0.89,1.42,0.98,1.8l-0.82,0.34c-0.12-0.46-0.34-0.97-0.86-1.61
			c-1.24-1.53-3-1.75-4.57-0.47c-1.59,1.29-1.75,3.02-0.56,4.48c0.43,0.53,0.8,0.83,1.04,0.94l1.87-1.52l-1.04-1.27l0.65-0.53
			l1.68,2.07L198.49,240.01z"/>
      <path d="M201.29,244.01l0.51-0.53l-0.02-0.03c-0.56,0.04-1.27-0.19-1.79-0.83c-0.74-0.91-0.48-1.9,0.17-2.43
			c1.09-0.89,2.47-0.4,3.88,1.34l0.09-0.08c0.37-0.3,0.96-0.95,0.21-1.87c-0.34-0.42-0.83-0.75-1.29-0.9l0.39-0.63
			c0.54,0.18,1.14,0.59,1.6,1.15c1.12,1.38,0.45,2.48-0.45,3.21l-1.68,1.37c-0.39,0.32-0.76,0.65-1.02,0.95L201.29,244.01z
			 M203.48,242.02c-0.71-0.91-1.69-1.79-2.57-1.08c-0.53,0.43-0.49,0.99-0.15,1.41c0.48,0.59,1.15,0.65,1.64,0.47
			c0.11-0.04,0.21-0.1,0.3-0.17L203.48,242.02z"/>
      <path d="M206.19,243.33c0.46-0.38,0.84-0.7,1.19-1.03l0.59,0.73l-0.71,0.65l0.01,0.02c0.61-0.12,1.45,0.05,2.06,0.8
			c0.51,0.62,0.92,1.89-0.62,3.15l-2.69,2.19l-0.67-0.82l2.6-2.11c0.72-0.59,1.11-1.35,0.48-2.12c-0.44-0.54-1.16-0.65-1.73-0.42
			c-0.13,0.05-0.29,0.14-0.43,0.25l-2.71,2.2l-0.67-0.82L206.19,243.33z"/>
      <path d="M216.88,249.68l-5.44,4.43c-0.4,0.33-0.85,0.71-1.13,0.98l-0.6-0.73l0.75-0.67l-0.02-0.02c-0.71,0.16-1.53-0.08-2.13-0.81
			c-0.88-1.09-0.65-2.68,0.72-3.79c1.49-1.23,3.17-1.05,4.06,0.05c0.56,0.69,0.61,1.42,0.42,1.92l0.02,0.02l2.69-2.19L216.88,249.68
			z M212.28,252.07c0.1-0.08,0.23-0.21,0.31-0.32c0.42-0.55,0.49-1.34-0.01-1.95c-0.69-0.85-1.84-0.74-2.84,0.07
			c-0.91,0.74-1.3,1.8-0.58,2.69c0.45,0.55,1.22,0.75,1.95,0.41c0.13-0.06,0.25-0.14,0.38-0.25L212.28,252.07z"/>
      <path d="M213.41,258.91l0.51-0.53l-0.02-0.03c-0.56,0.04-1.27-0.19-1.79-0.83c-0.74-0.91-0.48-1.9,0.17-2.43
			c1.09-0.89,2.47-0.4,3.88,1.34l0.09-0.08c0.37-0.3,0.96-0.95,0.21-1.87c-0.34-0.42-0.83-0.75-1.29-0.9l0.39-0.62
			c0.55,0.18,1.14,0.59,1.6,1.15c1.12,1.38,0.45,2.47-0.45,3.21l-1.68,1.37c-0.39,0.32-0.76,0.65-1.02,0.95L213.41,258.91z
			 M215.61,256.92c-0.71-0.91-1.69-1.79-2.57-1.08c-0.53,0.43-0.49,0.99-0.15,1.41c0.48,0.59,1.15,0.65,1.64,0.47
			c0.11-0.04,0.21-0.1,0.3-0.17L215.61,256.92z"/>
      <path d="M218.13,259.73l0.01,0.02c0.25-0.02,0.57-0.02,0.84-0.02l2.63,0.06l0.8,0.99l-3.27-0.23l-1.04,4.14l-0.81-1l0.89-3.31
			l-0.81-0.04l-1.69,1.38l-0.66-0.81l6.6-5.38l0.66,0.81L218.13,259.73z"/>
    </g>
    <g>
      <path d="M264.13,250.74l0.67-0.8l2.97,2.52l0.02-0.03c-0.1-0.37-0.18-0.72-0.25-1.04l-0.71-3.85l0.84-0.99l0.72,4.45l5.59,0.61
			l-0.8,0.94l-4.75-0.54l0.18,1.16l2.35,1.99l-0.68,0.8L264.13,250.74z"/>
      <path d="M275.62,245.12c1.64,1.39,1.39,3.13,0.48,4.2c-1.02,1.2-2.68,1.38-4.08,0.19c-1.48-1.26-1.53-2.96-0.49-4.19
			C272.62,244.05,274.27,243.97,275.62,245.12z M272.69,248.67c0.97,0.82,2.17,0.89,2.84,0.1c0.65-0.77,0.42-1.96-0.58-2.8
			c-0.75-0.64-2.02-1.07-2.83-0.12C271.32,246.8,271.85,247.96,272.69,248.67z"/>
      <path d="M277.82,245.42c0.36-0.11,0.88-0.39,1.22-0.79c0.5-0.58,0.44-1.11,0.07-1.42c-0.38-0.33-0.79-0.28-1.51,0.13
			c-0.96,0.56-1.72,0.56-2.25,0.11c-0.71-0.6-0.81-1.68,0-2.63c0.38-0.45,0.84-0.73,1.2-0.86l0.42,0.7
			c-0.26,0.08-0.68,0.28-1.02,0.69c-0.4,0.48-0.35,0.97-0.02,1.25c0.37,0.31,0.75,0.18,1.46-0.21c0.95-0.52,1.66-0.59,2.32-0.03
			c0.78,0.66,0.81,1.73-0.08,2.78c-0.41,0.48-0.91,0.83-1.36,0.99L277.82,245.42z"/>
      <path d="M276.9,236.68c0.28,0.22,0.33,0.61,0.06,0.93c-0.24,0.28-0.63,0.3-0.9,0.07c-0.28-0.24-0.32-0.64-0.08-0.93
			C276.24,236.45,276.62,236.44,276.9,236.68z M281.81,242.39l-4.43-3.76l0.68-0.8l4.43,3.76L281.81,242.39z"/>
    </g>
    <g>
      <path d="M364.03,235.76l-1.72-1.76l0.63-0.62l4.18,4.28l-0.64,0.62l-1.73-1.77l-5.15,5.03l-0.74-0.75L364.03,235.76z"/>
      <path d="M361.85,243.83l4.15-4.06l0.74,0.75l-4.15,4.06L361.85,243.83z M367.99,239.47c-0.25,0.26-0.64,0.27-0.93-0.03
			c-0.26-0.27-0.24-0.66,0.02-0.91c0.27-0.26,0.67-0.26,0.93,0.01C368.29,238.83,368.26,239.21,367.99,239.47z"/>
      <path d="M364.48,244.98c0.07,0.37,0.3,0.91,0.67,1.29c0.54,0.55,1.06,0.54,1.41,0.2c0.36-0.35,0.35-0.76,0.01-1.52
			c-0.46-1.01-0.39-1.76,0.1-2.25c0.67-0.65,1.75-0.65,2.62,0.24c0.41,0.42,0.65,0.91,0.74,1.27l-0.73,0.35
			c-0.06-0.26-0.21-0.7-0.59-1.08c-0.44-0.45-0.94-0.44-1.24-0.14c-0.34,0.33-0.25,0.73,0.07,1.48c0.43,0.99,0.43,1.71-0.19,2.31
			c-0.73,0.71-1.8,0.65-2.76-0.34c-0.44-0.45-0.74-0.98-0.86-1.44L364.48,244.98z"/>
      <path d="M373.37,244.92l-1.19,1.17l1.05,1.08l-0.57,0.56l-1.06-1.08l-2.24,2.19c-0.52,0.5-0.66,0.93-0.25,1.35
			c0.19,0.2,0.36,0.32,0.48,0.39l-0.53,0.59c-0.2-0.09-0.47-0.28-0.76-0.57c-0.34-0.35-0.51-0.74-0.48-1.12
			c0.01-0.43,0.31-0.87,0.8-1.35l2.26-2.21l-0.63-0.64l0.58-0.56l0.63,0.64l1-0.97L373.37,244.92z"/>
      <path d="M372.15,254.38l0.46-0.57l-0.02-0.03c-0.55,0.09-1.28-0.07-1.86-0.67c-0.82-0.84-0.65-1.85-0.05-2.44
			c1-0.98,2.42-0.62,3.98,0.99l0.09-0.08c0.34-0.33,0.87-1.03,0.04-1.88c-0.38-0.39-0.89-0.67-1.36-0.78l0.33-0.66
			c0.56,0.12,1.19,0.48,1.7,1c1.24,1.27,0.68,2.42-0.16,3.24l-1.55,1.52c-0.36,0.35-0.7,0.71-0.93,1.04L372.15,254.38z
			 M374.16,252.2c-0.79-0.84-1.85-1.63-2.65-0.85c-0.49,0.48-0.4,1.03-0.03,1.42c0.53,0.54,1.21,0.55,1.68,0.33
			c0.1-0.05,0.21-0.12,0.28-0.19L374.16,252.2z"/>
    </g>
    <g>
      <path d="M364.94,111.76l-2.46,0.03l-0.01-0.89l5.98-0.07l0.01,0.89l-2.47,0.03l0.08,7.2l-1.05,0.01L364.94,111.76z"/>
      <path d="M368.63,117.83c0.31,0.2,0.87,0.41,1.4,0.4c0.77-0.01,1.12-0.4,1.12-0.88c-0.01-0.5-0.31-0.78-1.09-1.06
			c-1.05-0.36-1.55-0.93-1.55-1.63c-0.01-0.94,0.74-1.71,1.98-1.73c0.59-0.01,1.1,0.15,1.43,0.34l-0.25,0.77
			c-0.23-0.14-0.65-0.33-1.19-0.32c-0.62,0.01-0.97,0.37-0.96,0.8c0.01,0.48,0.36,0.69,1.11,0.97c1.01,0.37,1.53,0.87,1.54,1.73
			c0.01,1.02-0.77,1.75-2.15,1.76c-0.63,0.01-1.22-0.14-1.63-0.38L368.63,117.83z"/>
      <path d="M376.75,118.82l-0.09-0.73h-0.04c-0.32,0.46-0.94,0.87-1.76,0.88c-1.18,0.01-1.79-0.81-1.79-1.65
			c-0.02-1.4,1.22-2.19,3.46-2.2l0-0.12c-0.01-0.48-0.15-1.34-1.33-1.33c-0.54,0.01-1.1,0.18-1.51,0.45l-0.25-0.69
			c0.48-0.32,1.17-0.53,1.9-0.54c1.77-0.02,2.22,1.19,2.23,2.35l0.03,2.17c0.01,0.5,0.04,1,0.11,1.39L376.75,118.82z M376.56,115.86
			c-1.15-0.01-2.46,0.21-2.44,1.34c0.01,0.68,0.47,1,1.01,1c0.76-0.01,1.23-0.49,1.39-0.99c0.03-0.11,0.06-0.23,0.06-0.34
			L376.56,115.86z"/>
      <path d="M379.27,114.55c-0.01-0.6-0.02-1.09-0.07-1.57l0.94-0.01l0.07,0.96h0.02c0.28-0.56,0.95-1.1,1.91-1.11
			c0.8-0.01,2.06,0.46,2.08,2.45l0.04,3.47l-1.06,0.01l-0.04-3.35c-0.01-0.94-0.37-1.71-1.36-1.7c-0.7,0.01-1.23,0.51-1.4,1.1
			c-0.05,0.13-0.07,0.31-0.07,0.49l0.04,3.49l-1.06,0.01L379.27,114.55z"/>
      <path d="M390.91,112.85c-0.02,0.42-0.04,0.89-0.03,1.6l0.04,3.37c0.02,1.33-0.24,2.15-0.8,2.66c-0.56,0.53-1.37,0.71-2.1,0.72
			c-0.7,0.01-1.47-0.15-1.94-0.46l0.25-0.81c0.39,0.24,0.99,0.44,1.71,0.44c1.08-0.01,1.86-0.59,1.85-2.05l-0.01-0.65h-0.02
			c-0.32,0.54-0.94,0.98-1.84,0.99c-1.44,0.02-2.48-1.19-2.5-2.8c-0.02-1.97,1.25-3.1,2.58-3.11c1.01-0.01,1.57,0.51,1.82,0.99
			l0.02,0l0.04-0.88L390.91,112.85z M389.85,115.15c0-0.18-0.02-0.34-0.07-0.48c-0.2-0.61-0.72-1.11-1.49-1.1
			c-1.01,0.01-1.72,0.87-1.7,2.21c0.01,1.14,0.6,2.08,1.74,2.07c0.65-0.01,1.23-0.42,1.45-1.1c0.06-0.18,0.08-0.38,0.08-0.56
			L389.85,115.15z"/>
      <path d="M392.57,114.72c-0.01-0.74-0.04-1.34-0.07-1.89l0.95-0.01l0.06,0.99h0.02c0.42-0.71,1.1-1.14,2.05-1.15
			c1.4-0.02,2.47,1.16,2.49,2.92c0.02,2.09-1.23,3.13-2.6,3.15c-0.77,0.01-1.44-0.32-1.8-0.89l-0.02,0l0.04,3.15l-1.04,0.01
			L392.57,114.72z M393.63,116.26c0,0.16,0.03,0.3,0.05,0.43c0.2,0.73,0.84,1.23,1.6,1.22c1.12-0.01,1.75-0.93,1.74-2.26
			c-0.01-1.16-0.64-2.15-1.75-2.14c-0.72,0.01-1.38,0.53-1.58,1.33c-0.03,0.13-0.07,0.29-0.07,0.43L393.63,116.26z"/>
      <path d="M404.66,115.54c0.02,2.15-1.45,3.1-2.85,3.11c-1.57,0.02-2.8-1.12-2.82-2.95c-0.02-1.94,1.24-3.1,2.84-3.12
			C403.5,112.57,404.64,113.77,404.66,115.54z M400.05,115.66c0.01,1.27,0.76,2.22,1.79,2.21c1.01-0.01,1.75-0.97,1.74-2.27
			c-0.01-0.98-0.52-2.23-1.77-2.21C400.57,113.4,400.04,114.55,400.05,115.66z"/>
      <path d="M407.69,118.94l3.25-8.73l0.82-0.01l-3.26,8.73L407.69,118.94z"/>
      <path d="M415.17,110.4c0.46-0.1,1.17-0.18,1.91-0.19c1.04-0.01,1.72,0.16,2.22,0.56c0.42,0.31,0.68,0.78,0.69,1.42
			c0.01,0.78-0.5,1.47-1.35,1.79l0,0.02c0.77,0.18,1.68,0.81,1.69,2.01c0.01,0.7-0.26,1.23-0.66,1.63
			c-0.56,0.52-1.47,0.77-2.79,0.79c-0.72,0.01-1.27-0.03-1.62-0.08L415.17,110.4z M416.26,113.69l0.95-0.01
			c1.1-0.01,1.74-0.6,1.74-1.38c-0.01-0.95-0.74-1.31-1.79-1.3c-0.48,0.01-0.75,0.04-0.92,0.08L416.26,113.69z M416.3,117.57
			c0.2,0.03,0.5,0.04,0.88,0.04c1.08-0.01,2.07-0.42,2.06-1.6c-0.01-1.1-0.96-1.55-2.1-1.54l-0.86,0.01L416.3,117.57z"/>
      <path d="M421.69,114.3c-0.01-0.68-0.03-1.27-0.07-1.81l0.92-0.01l0.05,1.14l0.05,0c0.25-0.78,0.88-1.28,1.59-1.29
			c0.12,0,0.2,0.01,0.3,0.03l0.01,1c-0.11-0.02-0.22-0.03-0.36-0.03c-0.74,0.01-1.27,0.58-1.4,1.37c-0.02,0.14-0.04,0.31-0.04,0.49
			l0.04,3.09l-1.04,0.01L421.69,114.3z"/>
      <path d="M428.81,118.22l-0.09-0.73l-0.04,0c-0.32,0.46-0.94,0.87-1.77,0.88c-1.17,0.01-1.78-0.81-1.79-1.65
			c-0.02-1.4,1.22-2.19,3.46-2.2l0-0.12c-0.01-0.48-0.15-1.34-1.33-1.33c-0.54,0.01-1.1,0.18-1.51,0.45l-0.25-0.69
			c0.48-0.32,1.17-0.53,1.9-0.54c1.77-0.02,2.22,1.19,2.23,2.35l0.03,2.17c0.01,0.5,0.04,0.99,0.11,1.39L428.81,118.22z
			 M428.62,115.26c-1.15-0.01-2.46,0.21-2.44,1.34c0.01,0.68,0.47,1,1.01,1c0.75-0.01,1.23-0.49,1.39-0.99
			c0.03-0.11,0.06-0.23,0.06-0.34L428.62,115.26z"/>
      <path d="M431.28,109.67l1.06-0.01l0.04,3.62h0.02c0.16-0.3,0.42-0.57,0.75-0.75c0.31-0.18,0.68-0.31,1.08-0.31
			c0.78-0.01,2.03,0.46,2.05,2.46l0.04,3.45l-1.06,0.01l-0.04-3.33c-0.01-0.94-0.37-1.72-1.36-1.71c-0.68,0.01-1.22,0.49-1.4,1.07
			c-0.06,0.14-0.07,0.3-0.07,0.5l0.04,3.5l-1.06,0.01L431.28,109.67z"/>
      <path d="M437.99,113.88c-0.01-0.6-0.02-1.09-0.07-1.57l0.92-0.01l0.06,0.94l0.04,0c0.32-0.56,0.85-1.08,1.81-1.09
			c0.79-0.01,1.4,0.46,1.66,1.14h0.02c0.18-0.33,0.4-0.58,0.64-0.76c0.34-0.27,0.73-0.42,1.28-0.42c0.77-0.01,1.91,0.48,1.94,2.5
			l0.04,3.42l-1.03,0.01l-0.04-3.29c-0.01-1.12-0.43-1.78-1.28-1.77c-0.6,0.01-1.06,0.46-1.24,0.97c-0.05,0.14-0.08,0.34-0.08,0.53
			l0.04,3.59l-1.03,0.01l-0.04-3.48c-0.01-0.92-0.43-1.59-1.23-1.58c-0.66,0.01-1.13,0.54-1.29,1.07c-0.06,0.16-0.08,0.34-0.08,0.52
			l0.04,3.5l-1.03,0.01L437.99,113.88z"/>
      <path d="M451.26,117.96l-0.09-0.73l-0.04,0c-0.32,0.46-0.94,0.87-1.76,0.88c-1.18,0.01-1.79-0.81-1.79-1.65
			c-0.02-1.4,1.22-2.19,3.46-2.2l0-0.12c-0.01-0.48-0.15-1.34-1.33-1.33c-0.54,0.01-1.1,0.18-1.51,0.45l-0.25-0.69
			c0.48-0.32,1.17-0.53,1.9-0.54c1.78-0.02,2.22,1.19,2.23,2.35l0.02,2.17c0.01,0.5,0.04,0.99,0.11,1.39L451.26,117.96z M451.07,115
			c-1.15-0.01-2.46,0.21-2.44,1.34c0.01,0.68,0.47,1,1.01,1c0.76-0.01,1.23-0.49,1.39-0.99c0.03-0.11,0.06-0.23,0.06-0.34
			L451.07,115z"/>
      <path d="M453.79,114.02c-0.01-0.74-0.04-1.34-0.07-1.89l0.95-0.01l0.06,0.99h0.02c0.42-0.71,1.1-1.14,2.05-1.15
			c1.4-0.02,2.47,1.16,2.49,2.92c0.02,2.09-1.24,3.13-2.6,3.15c-0.77,0.01-1.44-0.32-1.8-0.89l-0.02,0l0.04,3.15l-1.04,0.01
			L453.79,114.02z M454.85,115.55c0,0.16,0.03,0.3,0.05,0.43c0.2,0.73,0.84,1.23,1.6,1.22c1.12-0.01,1.75-0.93,1.74-2.26
			c-0.01-1.16-0.64-2.15-1.75-2.14c-0.72,0.01-1.38,0.53-1.58,1.33c-0.03,0.13-0.07,0.29-0.07,0.43L454.85,115.55z"/>
      <path d="M465.5,116.21c0.01,0.6,0.02,1.13,0.07,1.58l-0.94,0.01l-0.07-0.95h-0.02c-0.27,0.47-0.87,1.09-1.91,1.1
			c-0.91,0.01-2.01-0.48-2.03-2.52l-0.04-3.39l1.06-0.01l0.04,3.21c0.01,1.1,0.36,1.84,1.32,1.83c0.71-0.01,1.19-0.51,1.38-0.98
			c0.06-0.16,0.09-0.35,0.09-0.54l-0.04-3.56l1.06-0.01L465.5,116.21z"/>
      <path d="M468.46,110.29l0.02,1.67l1.51-0.02l0.01,0.8l-1.51,0.02l0.04,3.13c0.01,0.72,0.22,1.12,0.8,1.12
			c0.28,0,0.48-0.04,0.61-0.08l0.06,0.79c-0.2,0.09-0.53,0.15-0.93,0.15c-0.49,0.01-0.89-0.15-1.14-0.43
			c-0.3-0.31-0.42-0.82-0.43-1.51l-0.04-3.17l-0.9,0.01l-0.01-0.8l0.9-0.01l-0.02-1.39L468.46,110.29z"/>
      <path d="M471.2,113.73c-0.01-0.68-0.03-1.27-0.07-1.81l0.92-0.01l0.05,1.14l0.05,0c0.25-0.78,0.88-1.28,1.59-1.29
			c0.12,0,0.2,0.01,0.3,0.03l0.01,1c-0.11-0.02-0.22-0.03-0.36-0.03c-0.74,0.01-1.26,0.58-1.4,1.37c-0.02,0.14-0.04,0.31-0.04,0.49
			l0.04,3.09l-1.04,0.01L471.2,113.73z"/>
      <path d="M478.32,117.64l-0.09-0.73l-0.04,0c-0.32,0.46-0.94,0.87-1.77,0.88c-1.17,0.01-1.78-0.81-1.79-1.65
			c-0.02-1.4,1.22-2.19,3.46-2.2l0-0.12c-0.01-0.48-0.15-1.34-1.33-1.33c-0.54,0.01-1.1,0.18-1.51,0.45l-0.25-0.69
			c0.48-0.32,1.17-0.53,1.9-0.54c1.77-0.02,2.22,1.19,2.23,2.35l0.03,2.17c0.01,0.5,0.04,1,0.11,1.39L478.32,117.64z M478.13,114.68
			c-1.15-0.01-2.46,0.21-2.44,1.34c0.01,0.68,0.47,1,1.01,1c0.75-0.01,1.23-0.49,1.39-0.99c0.03-0.11,0.06-0.23,0.06-0.34
			L478.13,114.68z"/>
    </g>
    <g>
      <path d="M84.43,54.74h1.04v3.9h0.04c0.22-0.31,0.43-0.6,0.64-0.86l2.47-3.03h1.3l-2.93,3.43l3.15,4.65H88.9l-2.66-3.97l-0.77,0.89
			v3.08h-1.04V54.74z"/>
      <path d="M94.3,62.82l-0.08-0.73h-0.04c-0.32,0.46-0.95,0.86-1.77,0.86c-1.18,0-1.77-0.83-1.77-1.67c0-1.4,1.25-2.17,3.49-2.16
			v-0.12c0-0.48-0.13-1.34-1.32-1.34c-0.54,0-1.1,0.17-1.51,0.43l-0.24-0.7c0.48-0.31,1.18-0.52,1.91-0.52
			c1.77,0,2.21,1.21,2.21,2.37v2.17c0,0.5,0.02,1,0.1,1.39H94.3z M94.15,59.86c-1.15-0.02-2.46,0.18-2.46,1.31
			c0,0.68,0.46,1.01,1,1.01c0.76,0,1.24-0.48,1.4-0.97c0.04-0.11,0.06-0.23,0.06-0.34V59.86z"/>
      <path d="M98.05,55.39c0.01,0.36-0.25,0.65-0.67,0.65c-0.37,0-0.64-0.29-0.64-0.65c0-0.37,0.28-0.66,0.66-0.66
			C97.8,54.73,98.05,55.01,98.05,55.39z M96.87,62.82v-5.8h1.06v5.8H96.87z"/>
      <path d="M99.68,54.31h1.06v8.52h-1.06V54.31z"/>
      <path d="M105.73,62.82l-0.08-0.73h-0.04c-0.32,0.46-0.95,0.86-1.77,0.86c-1.18,0-1.77-0.83-1.77-1.67c0-1.4,1.25-2.17,3.49-2.16
			v-0.12c0-0.48-0.13-1.34-1.32-1.34c-0.54,0-1.1,0.17-1.51,0.43l-0.24-0.7c0.48-0.31,1.18-0.52,1.91-0.52
			c1.77,0,2.21,1.21,2.21,2.37v2.17c0,0.5,0.02,1,0.1,1.39H105.73z M105.57,59.86c-1.15-0.02-2.46,0.18-2.46,1.31
			c0,0.68,0.46,1.01,1,1.01c0.76,0,1.24-0.48,1.4-0.97c0.04-0.11,0.06-0.23,0.06-0.34V59.86z"/>
      <path d="M108.15,61.74c0.31,0.2,0.86,0.42,1.39,0.42c0.77,0,1.13-0.38,1.13-0.86c0-0.5-0.3-0.78-1.08-1.07
			c-1.04-0.37-1.54-0.95-1.54-1.64c0-0.94,0.76-1.7,2-1.7c0.59,0,1.1,0.17,1.43,0.36l-0.26,0.77c-0.23-0.14-0.65-0.34-1.19-0.34
			c-0.62,0-0.97,0.36-0.97,0.79c0,0.48,0.35,0.7,1.1,0.98c1.01,0.38,1.52,0.89,1.52,1.75c0,1.02-0.79,1.74-2.17,1.74
			c-0.64,0-1.22-0.16-1.63-0.4L108.15,61.74z"/>
    </g>
    <path class="Key_Map_Eastern_India_sections_svg__st6" d="M292.17,162.59c-1.81-1.63-2.23-4.25-4.6-5.9c-1.11,1.79-2.77,4.05-3.08,6.07"/>
    <g>
      <path d="M296.13,153.2h-3.14v2.91h3.5v0.88h-4.54v-8.08h4.37v0.88h-3.32v2.55h3.14V153.2z"/>
      <path d="M298.13,151.19l1.14,3.26c0.19,0.53,0.35,1.01,0.47,1.49h0.04c0.13-0.48,0.3-0.96,0.49-1.49l1.13-3.26h1.1l-2.28,5.8
			h-1.01l-2.21-5.8H298.13z"/>
      <path d="M303.96,154.28c0.02,1.43,0.94,2.01,1.99,2.01c0.75,0,1.21-0.13,1.61-0.3l0.18,0.76c-0.37,0.17-1.01,0.36-1.93,0.36
			c-1.79,0-2.85-1.18-2.85-2.93c0-1.75,1.03-3.13,2.72-3.13c1.9,0,2.4,1.67,2.4,2.73c0,0.22-0.02,0.38-0.04,0.49H303.96z
			 M307.06,153.52c0.01-0.67-0.28-1.71-1.46-1.71c-1.07,0-1.54,0.98-1.62,1.71H307.06z"/>
      <path d="M309.39,153c0-0.68-0.01-1.27-0.05-1.81h0.92l0.04,1.14h0.05c0.26-0.78,0.9-1.27,1.61-1.27c0.12,0,0.2,0.01,0.3,0.04v1
			c-0.11-0.02-0.22-0.04-0.36-0.04c-0.74,0-1.27,0.56-1.42,1.36c-0.02,0.14-0.05,0.31-0.05,0.49v3.09h-1.04V153z"/>
      <path d="M313.78,154.28c0.02,1.43,0.94,2.01,1.99,2.01c0.75,0,1.21-0.13,1.61-0.3l0.18,0.76c-0.37,0.17-1.01,0.36-1.93,0.36
			c-1.79,0-2.85-1.18-2.85-2.93c0-1.75,1.03-3.13,2.72-3.13c1.9,0,2.4,1.67,2.4,2.73c0,0.22-0.02,0.38-0.04,0.49H313.78z
			 M316.88,153.52c0.01-0.67-0.28-1.71-1.46-1.71c-1.07,0-1.54,0.98-1.62,1.71H316.88z"/>
      <path d="M319.06,155.91c0.31,0.2,0.86,0.42,1.39,0.42c0.77,0,1.13-0.38,1.13-0.86c0-0.5-0.3-0.78-1.08-1.07
			c-1.04-0.37-1.54-0.95-1.54-1.64c0-0.94,0.75-1.7,2-1.7c0.59,0,1.1,0.17,1.43,0.36l-0.26,0.77c-0.23-0.14-0.65-0.34-1.19-0.34
			c-0.62,0-0.97,0.36-0.97,0.79c0,0.48,0.35,0.7,1.1,0.98c1.01,0.38,1.52,0.89,1.52,1.75c0,1.02-0.79,1.74-2.17,1.74
			c-0.64,0-1.22-0.16-1.63-0.4L319.06,155.91z"/>
      <path d="M325.23,149.52v1.67h1.51v0.8h-1.51v3.13c0,0.72,0.2,1.13,0.79,1.13c0.28,0,0.48-0.04,0.61-0.07l0.05,0.79
			c-0.2,0.08-0.53,0.14-0.94,0.14c-0.49,0-0.89-0.16-1.14-0.44c-0.3-0.31-0.41-0.83-0.41-1.51v-3.17h-0.9v-0.8h0.9v-1.39
			L325.23,149.52z"/>
    </g>
    <g>
      <path d="M73,104.78l0.89,0.55l-2.05,3.31l0.03,0.02c0.35-0.15,0.68-0.28,1-0.4l3.7-1.28l1.1,0.68l-4.29,1.38l0.23,5.62l-1.05-0.65
			l-0.17-4.78l-1.12,0.35l-1.62,2.62l-0.89-0.55L73,104.78z"/>
      <path d="M77.14,116.85l0.31-0.67l-0.03-0.02c-0.51,0.22-1.26,0.24-1.96-0.2c-1-0.62-1.07-1.64-0.63-2.35c0.74-1.19,2.2-1.19,4.1,0
			l0.06-0.1c0.25-0.41,0.59-1.21-0.41-1.84c-0.46-0.29-1.03-0.44-1.51-0.43l0.16-0.72c0.57-0.01,1.27,0.18,1.89,0.57
			c1.51,0.93,1.24,2.19,0.63,3.18l-1.14,1.85c-0.27,0.43-0.5,0.86-0.65,1.23L77.14,116.85z M78.56,114.25
			c-0.97-0.63-2.18-1.14-2.78-0.18c-0.36,0.58-0.14,1.1,0.32,1.38c0.64,0.4,1.3,0.24,1.71-0.09c0.09-0.07,0.17-0.16,0.23-0.25
			L78.56,114.25z"/>
      <path d="M81.42,114.81c0.36-0.58,0.66-1.09,0.91-1.57l0.79,0.49l-0.57,0.99l0.04,0.03c0.63-0.52,1.43-0.61,2.04-0.23
			c0.1,0.06,0.17,0.12,0.24,0.19l-0.52,0.85c-0.08-0.08-0.16-0.14-0.29-0.22c-0.63-0.39-1.38-0.19-1.92,0.41
			c-0.1,0.11-0.2,0.24-0.3,0.39l-1.63,2.63l-0.89-0.55L81.42,114.81z"/>
      <path d="M84.93,116.69c0.32-0.51,0.56-0.93,0.79-1.36l0.8,0.49l-0.45,0.85l0.02,0.01c0.54-0.32,1.39-0.42,2.21,0.08
			c0.68,0.42,1.49,1.49,0.44,3.18l-1.82,2.95l-0.9-0.56l1.76-2.84c0.49-0.8,0.61-1.64-0.24-2.17c-0.59-0.37-1.31-0.23-1.77,0.17
			c-0.11,0.09-0.23,0.23-0.32,0.38l-1.84,2.97l-0.9-0.56L84.93,116.69z"/>
      <path d="M91.09,125.49l0.31-0.67l-0.03-0.02c-0.52,0.22-1.26,0.24-1.96-0.2c-1-0.62-1.07-1.64-0.63-2.35c0.74-1.19,2.2-1.19,4.1,0
			l0.06-0.1c0.25-0.41,0.6-1.21-0.41-1.84c-0.46-0.28-1.03-0.44-1.51-0.43l0.16-0.72c0.57-0.01,1.27,0.18,1.89,0.57
			c1.51,0.93,1.24,2.19,0.63,3.18l-1.14,1.85c-0.27,0.43-0.5,0.86-0.65,1.23L91.09,125.49z M92.52,122.89
			c-0.97-0.63-2.19-1.14-2.78-0.18c-0.36,0.58-0.14,1.1,0.32,1.38c0.64,0.4,1.3,0.24,1.7-0.09c0.09-0.07,0.17-0.16,0.23-0.25
			L92.52,122.89z"/>
      <path d="M97.76,119.6l0.9,0.56l-4.48,7.24l-0.9-0.56L97.76,119.6z"/>
      <path d="M95.69,128.34l3.06-4.94l0.9,0.56l-3.06,4.94L95.69,128.34z M100.6,122.63c-0.18,0.31-0.56,0.42-0.91,0.2
			c-0.32-0.2-0.39-0.58-0.2-0.88c0.2-0.32,0.58-0.42,0.91-0.21C100.73,121.94,100.8,122.32,100.6,122.63z"/>
    </g>
    <g>
      <path d="M226.06,84.74h-3.69v-1.33h8.99v1.33h-3.71v10.8h-1.58V84.74z"/>
      <path d="M234.19,84.38c0.02,0.54-0.38,0.97-1.01,0.97c-0.56,0-0.96-0.43-0.96-0.97c0-0.56,0.41-0.99,0.99-0.99
			C233.82,83.39,234.19,83.82,234.19,84.38z M232.43,95.54v-8.71h1.58v8.71H232.43z"/>
      <path d="M236.57,95.54c0.04-0.59,0.07-1.48,0.07-2.25V82.76h1.57v5.47h0.04c0.56-0.97,1.57-1.6,2.97-1.6
			c2.16,0,3.69,1.8,3.67,4.45c0,3.12-1.96,4.66-3.91,4.66c-1.26,0-2.27-0.49-2.92-1.64h-0.05l-0.07,1.44H236.57z M238.21,92.05
			c0,0.2,0.04,0.4,0.07,0.58c0.31,1.1,1.22,1.85,2.38,1.85c1.66,0,2.65-1.35,2.65-3.35c0-1.75-0.9-3.24-2.59-3.24
			c-1.08,0-2.09,0.74-2.41,1.94c-0.04,0.18-0.09,0.4-0.09,0.65V92.05z"/>
      <path d="M247.76,91.47c0.04,2.14,1.4,3.03,2.99,3.03c1.13,0,1.82-0.2,2.41-0.45l0.27,1.13c-0.56,0.25-1.51,0.54-2.9,0.54
			c-2.68,0-4.29-1.76-4.29-4.39c0-2.63,1.55-4.7,4.09-4.7c2.84,0,3.6,2.5,3.6,4.11c0,0.32-0.04,0.58-0.05,0.74H247.76z
			 M252.41,90.34c0.02-1.01-0.41-2.58-2.2-2.58c-1.6,0-2.3,1.48-2.43,2.58H252.41z"/>
      <path d="M257.81,84.32v2.5h2.27v1.21h-2.27v4.7c0,1.08,0.31,1.69,1.19,1.69c0.41,0,0.72-0.05,0.92-0.11l0.07,1.19
			c-0.31,0.13-0.79,0.22-1.4,0.22c-0.74,0-1.33-0.23-1.71-0.67c-0.45-0.47-0.61-1.24-0.61-2.27v-4.75h-1.35v-1.21h1.35v-2.09
			L257.81,84.32z"/>
      <path d="M266.68,95.54l-0.13-1.1h-0.05c-0.49,0.68-1.42,1.3-2.67,1.3c-1.76,0-2.66-1.24-2.66-2.5c0-2.11,1.87-3.26,5.24-3.24
			v-0.18c0-0.72-0.2-2.02-1.98-2.02c-0.81,0-1.66,0.25-2.27,0.65l-0.36-1.04c0.72-0.47,1.76-0.77,2.86-0.77
			c2.67,0,3.31,1.82,3.31,3.57v3.26c0,0.76,0.04,1.5,0.14,2.09H266.68z M266.45,91.09c-1.73-0.04-3.69,0.27-3.69,1.96
			c0,1.03,0.68,1.51,1.49,1.51c1.13,0,1.85-0.72,2.11-1.46c0.05-0.16,0.09-0.34,0.09-0.5V91.09z"/>
      <path d="M270.53,89.19c0-0.9-0.02-1.64-0.07-2.36h1.41l0.09,1.44h0.04c0.43-0.83,1.44-1.64,2.88-1.64c1.21,0,3.08,0.72,3.08,3.71
			v5.2h-1.58v-5.02c0-1.4-0.52-2.58-2.02-2.58c-1.04,0-1.85,0.74-2.12,1.62c-0.07,0.2-0.11,0.47-0.11,0.74v5.24h-1.58V89.19z"/>
      <path d="M284.39,83.55c0.76-0.13,1.75-0.23,3.01-0.23c1.55,0,2.68,0.36,3.4,1.01c0.67,0.58,1.06,1.46,1.06,2.54
			c0,1.1-0.32,1.96-0.94,2.59c-0.83,0.88-2.18,1.33-3.71,1.33c-0.47,0-0.9-0.02-1.26-0.11v4.86h-1.57V83.55z M285.96,89.4
			c0.34,0.09,0.77,0.13,1.3,0.13c1.89,0,3.04-0.92,3.04-2.59c0-1.6-1.13-2.38-2.86-2.38c-0.68,0-1.21,0.05-1.48,0.13V89.4z"/>
      <path d="M293.83,82.76h1.58v12.78h-1.58V82.76z"/>
      <path d="M302.9,95.54l-0.13-1.1h-0.05c-0.49,0.68-1.42,1.3-2.67,1.3c-1.76,0-2.66-1.24-2.66-2.5c0-2.11,1.87-3.26,5.24-3.24v-0.18
			c0-0.72-0.2-2.02-1.98-2.02c-0.81,0-1.66,0.25-2.27,0.65l-0.36-1.04c0.72-0.47,1.76-0.77,2.86-0.77c2.67,0,3.31,1.82,3.31,3.57
			v3.26c0,0.76,0.04,1.5,0.14,2.09H302.9z M302.67,91.09c-1.73-0.04-3.69,0.27-3.69,1.96c0,1.03,0.68,1.51,1.49,1.51
			c1.13,0,1.85-0.72,2.11-1.46c0.05-0.16,0.09-0.34,0.09-0.5V91.09z"/>
      <path d="M308.59,84.32v2.5h2.27v1.21h-2.27v4.7c0,1.08,0.31,1.69,1.19,1.69c0.41,0,0.72-0.05,0.92-0.11l0.07,1.19
			c-0.31,0.13-0.79,0.22-1.4,0.22c-0.74,0-1.33-0.23-1.71-0.67c-0.45-0.47-0.61-1.24-0.61-2.27v-4.75h-1.35v-1.21h1.35v-2.09
			L308.59,84.32z"/>
      <path d="M313.41,91.47c0.04,2.14,1.4,3.03,2.99,3.03c1.13,0,1.82-0.2,2.41-0.45l0.27,1.13c-0.56,0.25-1.51,0.54-2.9,0.54
			c-2.68,0-4.29-1.76-4.29-4.39c0-2.63,1.55-4.7,4.09-4.7c2.84,0,3.6,2.5,3.6,4.11c0,0.32-0.04,0.58-0.05,0.74H313.41z
			 M318.06,90.34c0.02-1.01-0.41-2.58-2.2-2.58c-1.6,0-2.3,1.48-2.43,2.58H318.06z"/>
      <path d="M326.37,95.54l-0.13-1.1h-0.05c-0.49,0.68-1.42,1.3-2.67,1.3c-1.76,0-2.66-1.24-2.66-2.5c0-2.11,1.87-3.26,5.24-3.24
			v-0.18c0-0.72-0.2-2.02-1.98-2.02c-0.81,0-1.66,0.25-2.27,0.65l-0.36-1.04c0.72-0.47,1.76-0.77,2.86-0.77
			c2.67,0,3.31,1.82,3.31,3.57v3.26c0,0.76,0.04,1.5,0.14,2.09H326.37z M326.14,91.09c-1.73-0.04-3.69,0.27-3.69,1.96
			c0,1.03,0.68,1.51,1.49,1.51c1.13,0,1.85-0.72,2.11-1.46c0.05-0.16,0.09-0.34,0.09-0.5V91.09z"/>
      <path d="M337.51,93.17c0,0.9,0.02,1.69,0.07,2.38h-1.4l-0.09-1.42h-0.04c-0.41,0.7-1.33,1.62-2.88,1.62
			c-1.37,0-3.01-0.76-3.01-3.82v-5.1h1.58v4.83c0,1.66,0.5,2.77,1.95,2.77c1.06,0,1.8-0.74,2.09-1.44c0.09-0.23,0.14-0.52,0.14-0.81
			v-5.35h1.58V93.17z"/>
    </g>
    <g>
      <path d="M448.63,276.6c0.47,0.27,1.17,0.49,1.88,0.47c1.07-0.03,1.67-0.61,1.65-1.43c-0.02-0.75-0.46-1.17-1.57-1.56
			c-1.33-0.43-2.17-1.09-2.2-2.23c-0.04-1.26,0.98-2.22,2.55-2.27c0.83-0.02,1.43,0.15,1.8,0.34l-0.26,0.86
			c-0.27-0.14-0.81-0.36-1.55-0.34c-1.1,0.03-1.5,0.7-1.49,1.25c0.02,0.75,0.52,1.11,1.65,1.51c1.38,0.49,2.1,1.13,2.13,2.32
			c0.04,1.25-0.86,2.35-2.76,2.41c-0.78,0.02-1.64-0.18-2.08-0.46L448.63,276.6z"/>
      <path d="M454.45,269.19l1.05-0.03l0.1,3.62l0.02,0c0.16-0.3,0.42-0.58,0.73-0.76c0.31-0.19,0.67-0.32,1.07-0.33
			c0.78-0.02,2.04,0.42,2.1,2.42l0.1,3.45l-1.05,0.03l-0.09-3.33c-0.03-0.94-0.4-1.72-1.39-1.69c-0.68,0.02-1.21,0.51-1.38,1.09
			c-0.06,0.15-0.06,0.3-0.06,0.51l0.1,3.5l-1.06,0.03L454.45,269.19z"/>
      <path d="M462.31,270.04c0.02,0.36-0.23,0.65-0.65,0.67c-0.37,0.01-0.64-0.27-0.65-0.63c-0.01-0.37,0.26-0.67,0.64-0.68
			C462.04,269.39,462.3,269.67,462.31,270.04z M461.34,277.51l-0.16-5.8l1.05-0.03l0.16,5.8L461.34,277.51z"/>
      <path d="M463.91,268.92l1.05-0.03l0.24,8.51l-1.06,0.03L463.91,268.92z"/>
      <path d="M466.74,268.84l1.05-0.03l0.24,8.51l-1.06,0.03L466.74,268.84z"/>
      <path d="M474.98,274.17c0.06,2.15-1.4,3.12-2.8,3.16c-1.57,0.04-2.81-1.07-2.87-2.91c-0.06-1.94,1.18-3.12,2.79-3.16
			C473.77,271.22,474.93,272.4,474.98,274.17z M470.38,274.36c0.04,1.27,0.79,2.21,1.83,2.18c1.01-0.03,1.74-1,1.7-2.3
			c-0.03-0.98-0.55-2.22-1.8-2.18S470.35,273.26,470.38,274.36z"/>
      <path d="M476.28,272.85c-0.02-0.6-0.04-1.09-0.09-1.57l0.94-0.03l0.09,0.96l0.02,0c0.27-0.56,0.93-1.12,1.89-1.15
			c0.8-0.02,2.06,0.42,2.12,2.41l0.1,3.46l-1.05,0.03l-0.09-3.34c-0.03-0.94-0.4-1.7-1.39-1.68c-0.7,0.02-1.22,0.53-1.38,1.12
			c-0.04,0.13-0.06,0.31-0.06,0.49l0.1,3.49l-1.06,0.03L476.28,272.85z"/>
      <path d="M487.89,270.95c-0.01,0.42-0.02,0.89,0,1.6l0.1,3.37c0.04,1.33-0.2,2.15-0.75,2.67c-0.55,0.54-1.36,0.73-2.09,0.76
			c-0.7,0.02-1.47-0.13-1.94-0.43l0.24-0.81c0.39,0.23,1,0.43,1.72,0.41c1.08-0.03,1.85-0.62,1.81-2.08l-0.02-0.65l-0.02,0
			c-0.31,0.55-0.92,1-1.82,1.02c-1.44,0.04-2.5-1.15-2.55-2.76c-0.06-1.97,1.2-3.12,2.53-3.15c1.01-0.03,1.57,0.48,1.84,0.96l0.02,0
			l0.02-0.88L487.89,270.95z M486.86,273.27c0-0.18-0.02-0.34-0.07-0.48c-0.21-0.61-0.74-1.1-1.51-1.07
			c-1.01,0.03-1.7,0.9-1.66,2.24c0.03,1.14,0.63,2.07,1.77,2.04c0.65-0.02,1.22-0.44,1.43-1.12c0.05-0.18,0.07-0.39,0.07-0.57
			L486.86,273.27z"/>
      <path d="M492.11,268.65c0.5-0.1,1.16-0.19,2-0.21c1.03-0.03,1.79,0.19,2.28,0.61c0.46,0.37,0.74,0.95,0.75,1.67
			c0.02,0.73-0.18,1.31-0.57,1.74c-0.53,0.6-1.43,0.93-2.44,0.96c-0.31,0.01-0.6,0.01-0.84-0.05l0.09,3.24l-1.04,0.03L492.11,268.65
			z M493.27,272.52c0.23,0.05,0.52,0.07,0.87,0.06c1.26-0.04,2.01-0.67,1.98-1.78c-0.03-1.07-0.8-1.56-1.95-1.53
			c-0.46,0.01-0.8,0.06-0.98,0.11L493.27,272.52z"/>
      <path d="M498.38,267.94l1.05-0.03l0.24,8.51l-1.06,0.03L498.38,267.94z"/>
      <path d="M504.67,276.28l-0.1-0.73l-0.04,0c-0.31,0.46-0.92,0.89-1.75,0.91c-1.17,0.03-1.8-0.78-1.82-1.62
			c-0.04-1.4,1.19-2.21,3.43-2.26l0-0.12c-0.01-0.48-0.17-1.34-1.36-1.31c-0.54,0.02-1.1,0.2-1.5,0.47l-0.26-0.69
			c0.47-0.33,1.16-0.55,1.89-0.57c1.77-0.05,2.24,1.15,2.27,2.31l0.06,2.17c0.01,0.5,0.05,0.99,0.13,1.39L504.67,276.28z
			 M504.43,273.33c-1.15,0.01-2.45,0.25-2.42,1.38c0.02,0.68,0.48,0.99,1.02,0.98c0.75-0.02,1.22-0.51,1.38-1.01
			c0.03-0.11,0.05-0.23,0.05-0.34L504.43,273.33z"/>
      <path d="M508.25,268.71l0.05,1.67l1.51-0.04l0.02,0.8l-1.51,0.04l0.09,3.13c0.02,0.72,0.24,1.12,0.82,1.1
			c0.28-0.01,0.48-0.05,0.61-0.09l0.07,0.79c-0.2,0.09-0.52,0.16-0.93,0.17c-0.49,0.01-0.89-0.13-1.15-0.41
			c-0.31-0.3-0.43-0.82-0.45-1.5l-0.09-3.17l-0.9,0.03l-0.02-0.8l0.9-0.03l-0.04-1.39L508.25,268.71z"/>
      <path d="M511.6,273.38c0.06,1.43,0.99,1.99,2.05,1.96c0.75-0.02,1.21-0.17,1.6-0.34l0.2,0.75c-0.37,0.18-1,0.39-1.92,0.41
			c-1.79,0.05-2.89-1.09-2.94-2.85c-0.05-1.75,0.94-3.16,2.63-3.21c1.89-0.05,2.45,1.6,2.48,2.67c0.01,0.22-0.01,0.38-0.02,0.49
			L511.6,273.38z M514.67,272.53c-0.01-0.67-0.32-1.71-1.51-1.67c-1.07,0.03-1.51,1.03-1.57,1.76L514.67,272.53z"/>
      <path d="M520.31,275.84l-0.1-0.73l-0.04,0c-0.31,0.46-0.92,0.89-1.75,0.91c-1.17,0.03-1.8-0.78-1.82-1.62
			c-0.04-1.4,1.19-2.21,3.43-2.26l0-0.12c-0.01-0.48-0.17-1.34-1.36-1.31c-0.54,0.02-1.1,0.2-1.5,0.47l-0.26-0.69
			c0.47-0.33,1.16-0.55,1.89-0.57c1.77-0.05,2.24,1.15,2.27,2.31l0.06,2.17c0.01,0.5,0.05,0.99,0.13,1.39L520.31,275.84z
			 M520.07,272.88c-1.15,0.01-2.45,0.25-2.42,1.38c0.02,0.68,0.48,0.99,1.02,0.98c0.76-0.02,1.22-0.51,1.38-1.01
			c0.03-0.11,0.05-0.23,0.05-0.34L520.07,272.88z"/>
      <path d="M527.69,274.05c0.02,0.6,0.04,1.13,0.09,1.58l-0.94,0.03l-0.09-0.94l-0.02,0c-0.26,0.47-0.86,1.1-1.89,1.13
			c-0.91,0.03-2.02-0.45-2.07-2.48l-0.1-3.39l1.05-0.03l0.09,3.21c0.03,1.1,0.39,1.84,1.35,1.81c0.71-0.02,1.18-0.52,1.36-1
			c0.06-0.16,0.09-0.35,0.08-0.54l-0.1-3.56l1.06-0.03L527.69,274.05z"/>
    </g>
    <g>
      <path d="M186.74,174.81l-0.39,5.06l5.85,0.45l0.39-5.06l1.58,0.12l-0.94,12.1l-1.58-0.12l0.44-5.67l-5.85-0.45l-0.44,5.67
			l-1.56-0.12l0.94-12.1L186.74,174.81z"/>
      <path d="M199.69,187.98l0.67-8.69l1.58,0.12l-0.67,8.69L199.69,187.98z M202.32,176.99c-0.02,0.54-0.45,0.94-1.08,0.89
			c-0.56-0.04-0.92-0.5-0.88-1.04c0.04-0.56,0.49-0.96,1.06-0.91C202.02,175.98,202.36,176.44,202.32,176.99z"/>
      <path d="M215.86,180.5c-0.08,0.63-0.18,1.32-0.26,2.38l-0.39,5.04c-0.15,1.99-0.64,3.18-1.55,3.87c-0.91,0.72-2.15,0.88-3.24,0.79
			c-1.04-0.08-2.17-0.42-2.83-0.94l0.49-1.17c0.55,0.4,1.42,0.8,2.5,0.88c1.62,0.12,2.87-0.62,3.04-2.82l0.08-0.97l-0.04,0
			c-0.55,0.77-1.53,1.34-2.88,1.24c-2.15-0.17-3.56-2.12-3.37-4.52c0.23-2.94,2.28-4.46,4.27-4.31c1.51,0.12,2.27,0.97,2.59,1.72
			l0.04,0l0.17-1.3L215.86,180.5z M213.96,183.8c0.02-0.27,0.02-0.5-0.03-0.73c-0.22-0.94-0.93-1.75-2.08-1.84
			c-1.51-0.12-2.68,1.07-2.84,3.08c-0.13,1.71,0.62,3.19,2.32,3.32c0.97,0.08,1.9-0.47,2.32-1.45c0.11-0.26,0.17-0.56,0.19-0.83
			L213.96,183.8z"/>
      <path d="M222.52,176.93l1.58,0.12l-0.42,5.42l0.04,0c0.29-0.43,0.71-0.79,1.22-1.03c0.49-0.23,1.06-0.37,1.65-0.32
			c1.17,0.09,2.98,0.95,2.75,3.95l-0.4,5.17l-1.58-0.12l0.39-4.99c0.11-1.4-0.32-2.62-1.81-2.74c-1.02-0.08-1.89,0.58-2.24,1.42
			c-0.11,0.21-0.14,0.44-0.17,0.75l-0.41,5.24l-1.58-0.12L222.52,176.93z"/>
      <path d="M245.46,179.36l-0.39,5.06l5.85,0.45l0.39-5.06l1.58,0.12l-0.94,12.1l-1.58-0.12l0.44-5.67l-5.85-0.45l-0.44,5.67
			l-1.56-0.12l0.94-12.1L245.46,179.36z"/>
      <path d="M258.41,192.54l0.67-8.69l1.58,0.12l-0.67,8.69L258.41,192.54z M261.04,181.55c-0.02,0.54-0.45,0.94-1.08,0.89
			c-0.56-0.04-0.92-0.5-0.88-1.04c0.04-0.56,0.49-0.96,1.06-0.91C260.74,180.53,261.08,180.99,261.04,181.55z"/>
      <path d="M266.91,186.83c0.07-0.9,0.11-1.63,0.11-2.36l1.38,0.11l-0.04,1.4l0.05,0c0.55-0.79,1.42-1.5,2.85-1.39
			c1.18,0.09,2.03,0.88,2.32,1.93l0.04,0c0.31-0.46,0.68-0.81,1.06-1.06c0.55-0.35,1.14-0.53,1.97-0.46
			c1.15,0.09,2.8,0.98,2.56,3.99l-0.4,5.12l-1.54-0.12l0.38-4.92c0.13-1.67-0.4-2.72-1.68-2.82c-0.9-0.07-1.65,0.54-1.98,1.29
			c-0.09,0.21-0.17,0.49-0.19,0.78l-0.42,5.37l-1.54-0.12l0.4-5.21c0.11-1.38-0.43-2.44-1.63-2.53c-0.99-0.08-1.77,0.66-2.08,1.43
			c-0.11,0.23-0.17,0.49-0.19,0.76l-0.41,5.24l-1.54-0.12L266.91,186.83z"/>
      <path d="M290,194.99l-0.04-1.11l-0.05,0c-0.54,0.65-1.52,1.18-2.76,1.09c-1.76-0.14-2.56-1.44-2.46-2.7
			c0.16-2.1,2.12-3.1,5.47-2.83l0.01-0.18c0.06-0.72-0.04-2.03-1.82-2.16c-0.81-0.06-1.67,0.12-2.31,0.47l-0.28-1.07
			c0.75-0.41,1.82-0.64,2.91-0.55c2.66,0.21,3.16,2.07,3.03,3.81l-0.25,3.25c-0.06,0.76-0.08,1.49-0.02,2.09L290,194.99z
			 M290.11,190.54c-1.72-0.17-3.7-0.02-3.83,1.67c-0.08,1.02,0.56,1.56,1.37,1.62c1.13,0.09,1.91-0.57,2.21-1.29
			c0.07-0.16,0.12-0.33,0.13-0.5L290.11,190.54z"/>
      <path d="M298.63,182.84l1.58,0.12l-0.99,12.75l-1.58-0.12L298.63,182.84z"/>
      <path d="M310.49,196.59l-0.04-1.11l-0.05,0c-0.54,0.64-1.52,1.18-2.76,1.09c-1.76-0.14-2.56-1.44-2.46-2.7
			c0.16-2.1,2.12-3.1,5.47-2.83l0.01-0.18c0.06-0.72-0.04-2.03-1.82-2.16c-0.81-0.06-1.67,0.12-2.31,0.47l-0.28-1.07
			c0.75-0.41,1.82-0.64,2.91-0.55c2.66,0.21,3.16,2.07,3.03,3.81l-0.25,3.25c-0.06,0.75-0.08,1.49-0.02,2.09L310.49,196.59z
			 M310.6,192.13c-1.72-0.17-3.7-0.02-3.83,1.67c-0.08,1.02,0.56,1.56,1.37,1.62c1.13,0.09,1.91-0.57,2.21-1.29
			c0.07-0.16,0.12-0.33,0.13-0.5L310.6,192.13z"/>
      <path d="M319.39,188.53l1.5,5.28c0.15,0.59,0.32,1.29,0.42,1.82l0.04,0c0.2-0.51,0.43-1.16,0.7-1.77l2.12-4.96l1.67,0.13
			l-2.85,6.01c-1.36,2.89-2.25,4.36-3.4,5.21c-0.82,0.62-1.62,0.83-2.02,0.87l-0.29-1.36c0.4-0.09,0.94-0.31,1.44-0.67
			c0.46-0.31,1.04-0.88,1.46-1.65c0.08-0.16,0.15-0.28,0.15-0.37c0.01-0.09-0.02-0.22-0.08-0.42l-2.59-8.25L319.39,188.53z"/>
      <path d="M335.2,198.5l-0.04-1.11l-0.05,0c-0.54,0.64-1.52,1.18-2.76,1.09c-1.76-0.14-2.56-1.44-2.46-2.7
			c0.16-2.1,2.12-3.1,5.47-2.83l0.01-0.18c0.06-0.72-0.04-2.03-1.82-2.16c-0.81-0.06-1.67,0.12-2.31,0.47l-0.28-1.07
			c0.75-0.41,1.82-0.64,2.92-0.55c2.66,0.21,3.16,2.07,3.03,3.81l-0.25,3.25c-0.06,0.75-0.08,1.49-0.02,2.09L335.2,198.5z
			 M335.32,194.05c-1.72-0.17-3.7-0.02-3.83,1.67c-0.08,1.02,0.56,1.56,1.37,1.62c1.13,0.09,1.91-0.57,2.21-1.29
			c0.07-0.16,0.12-0.33,0.13-0.5L335.32,194.05z"/>
      <path d="M342.76,197.46c0.44,0.34,1.24,0.73,2.03,0.79c1.15,0.09,1.73-0.44,1.79-1.16c0.06-0.75-0.36-1.2-1.49-1.72
			c-1.52-0.68-2.19-1.6-2.11-2.64c0.11-1.4,1.33-2.46,3.2-2.32c0.88,0.07,1.63,0.38,2.09,0.71l-0.48,1.12
			c-0.32-0.24-0.93-0.58-1.74-0.64c-0.93-0.07-1.5,0.43-1.55,1.07c-0.06,0.72,0.44,1.08,1.54,1.6c1.46,0.69,2.18,1.5,2.08,2.8
			c-0.12,1.53-1.39,2.51-3.45,2.35c-0.95-0.07-1.81-0.38-2.4-0.78L342.76,197.46z"/>
    </g>
  </g>
  <g id="Key_Map_Eastern_India_sections_svg__three_detailed__boxes"/>
  <g id="Key_Map_Eastern_India_sections_svg__flags" class="Key_Map_Eastern_India_sections_svg__st7">
    <a xlink:href="eastern-india-geologic-maps#key-map">
      <path id="Key_Map_Eastern_India_sections_svg__map-5" class="Key_Map_Eastern_India_sections_svg__st8" d="M17.34,99.67l-1.52,0c-4.68-0.01-8.49,3.77-8.5,8.46l0,0.73c-0.01,4.63,3.73,8.39,8.36,8.4
			l15.8,0.04l0.05-17.59L17.34,99.67"/>
    </a>
    <a xlink:href="western-india-geologic-maps#key-map">
      <path id="Key_Map_Eastern_India_sections_svg__west" class="Key_Map_Eastern_India_sections_svg__st8" d="M-209.66,17.67l-1.52,0c-4.68-0.01-8.49,3.77-8.5,8.46l0,0.73c-0.01,4.63,3.73,8.39,8.36,8.4
			l15.8,0.04l0.05-17.59L-209.66,17.67"/>
    </a>
    <a xlink:href="kashmir-geologic-maps#key-map">
      <path id="Key_Map_Eastern_India_sections_svg__map-1" class="Key_Map_Eastern_India_sections_svg__st8" d="M-101.13-66.42l1.52,0.01c4.68,0.02,8.46,3.84,8.44,8.52l0,0.73c-0.02,4.63-3.79,8.36-8.42,8.34
			l-15.8-0.08l0.09-17.59L-101.13-66.42"/>
    </a>
  </g>
  <g id="Key_Map_Eastern_India_sections_svg__blowups" class="Key_Map_Eastern_India_sections_svg__st7">
    <path id="Key_Map_Eastern_India_sections_svg__peshawar" class="Key_Map_Eastern_India_sections_svg__st9" d="M574.17,317.11H51.15c-9.9,0-18-8.1-18-18V92.6c0-9.9,8.1-18,18-18h523.02c9.9,0,18,8.1,18,18
		v206.51C592.17,309.01,584.07,317.11,574.17,317.11z"/>
    <path id="Key_Map_Eastern_India_sections_svg__peshawar_1_" class="Key_Map_Eastern_India_sections_svg__st9" d="M-53.83,109.11h-124.02c-9.9,0-18-8.1-18-18V-6.4c0-9.9,8.1-18,18-18h124.02
		c9.9,0,18,8.1,18,18v97.51C-35.83,101.01-43.93,109.11-53.83,109.11z"/>
    <path id="Key_Map_Eastern_India_sections_svg__kashmir" class="Key_Map_Eastern_India_sections_svg__st9" d="M-134-30h-38c-9.9,0-18-8.1-18-18v-23c0-9.9,8.1-18,18-18h38c9.9,0,18,8.1,18,18v23
		C-116-38.1-124.1-30-134-30z"/>
  </g>
  <g id="Key_Map_Eastern_India_sections_svg__star_section"/>
  <g id="Key_Map_Eastern_India_sections_svg__box">
    <rect x="49" y="34" class="Key_Map_Eastern_India_sections_svg__st5" width="552" height="308"/>
  </g>
  <g id="Key_Map_Eastern_India_sections_svg__sections">
    <a xlink:href="#Key_Map_Eastern_India_sections_svg__a">
      <circle id="Key_Map_Eastern_India_sections_svg__kameng" onclick="navTo('a')" class="Key_Map_Eastern_India_sections_svg__hoverthing_x0020_2" cx="501" cy="220" r="6"/>
    </a>
    <a xlink:href="#Key_Map_Eastern_India_sections_svg__b">
      <circle id="Key_Map_Eastern_India_sections_svg__swat" onclick="navTo('b')" class="Key_Map_Eastern_India_sections_svg__hoverthing_x0020_2" cx="100" cy="167" r="6"/>
    </a>
    <a xlink:href="#Key_Map_Eastern_India_sections_svg__c">
      <circle id="Key_Map_Eastern_India_sections_svg__surai" onclick="navTo('c')" class="Key_Map_Eastern_India_sections_svg__hoverthing_x0020_2" cx="142" cy="188" r="6"/>
    </a>
    <a xlink:href="#Key_Map_Eastern_India_sections_svg__e">
      <circle id="Key_Map_Eastern_India_sections_svg__muksar" onclick="navTo('e')" class="Key_Map_Eastern_India_sections_svg__hoverthing_x0020_2" cx="257" cy="217" r="6"/>
    </a>
    <a xlink:href="#Key_Map_Eastern_India_sections_svg__d">
      <circle id="Key_Map_Eastern_India_sections_svg__tinau" onclick="navTo('d')" class="Key_Map_Eastern_India_sections_svg__hoverthing_x0020_2" cx="158" cy="188" r="6"/>
    </a>
    <g/>
    <g/>
    <g/>
    <g/>
    <g/>
    <g/>
    <g/>
    <g/>
    <g/>
    <g/>
    <g/>
    <g/>
    <g/>
    <g/>
    <g/>
  </g>
</svg>
