<svg xmlns="http://www.w3.org/2000/svg" xmlns:xlink="http://www.w3.org/1999/xlink" viewBox="0 0 636 393" style="enable-background:new 0 0 636 393">
    <style>
        .Key_Map_Eastern_India_sections_svg__hoverthing_x0020_2{opacity:.8;fill:#f05a28}.Key_Map_Eastern_India_sections_svg__st0{fill:#fef201}.Key_Map_Eastern_India_sections_svg__st1,.Key_Map_Eastern_India_sections_svg__st2{fill:none;stroke:#000;stroke-miterlimit:10}.Key_Map_Eastern_India_sections_svg__st2{opacity:.57;fill:#f8f7ca;stroke:#231f20;stroke-width:.5}.Key_Map_Eastern_India_sections_svg__st3,.Key_Map_Eastern_India_sections_svg__st4,.Key_Map_Eastern_India_sections_svg__st5,.Key_Map_Eastern_India_sections_svg__st6{fill:none;stroke:#3abfef;stroke-miterlimit:10}.Key_Map_Eastern_India_sections_svg__st4,.Key_Map_Eastern_India_sections_svg__st5,.Key_Map_Eastern_India_sections_svg__st6{stroke-width:.5}.Key_Map_Eastern_India_sections_svg__st5,.Key_Map_Eastern_India_sections_svg__st6{stroke:#231f20;stroke-width:2}.Key_Map_Eastern_India_sections_svg__st6{fill:#231f20}.Key_Map_Eastern_India_sections_svg__st7{display:none}.Key_Map_Eastern_India_sections_svg__st8,.Key_Map_Eastern_India_sections_svg__st9{display:inline;opacity:.8;fill:#f05a28}.Key_Map_Eastern_India_sections_svg__st9{fill:none;stroke:#f05a28;stroke-width:4;stroke-miterlimit:10}
    </style>
    <g id="Key_Map_Eastern_India_sections_svg__Below_TWS">
        <path class="Key_Map_Eastern_India_sections_svg__st0" d="M601.07 154.71c-.02-1.77-.11-3.7-1.27-5.04-5.53 2.33-11.18 4.75-15.57 8.84-3.04 2.84-5.33 6.36-8.09 9.47-4.26 4.79-9.81 8.3-15.12 11.74-2.99 1.94-6.16 3.6-9.13 5.56a53.68 53.68 0 0 0-13.47 12.74c-3.27 4.39-7.32 9.38-12.4 11.74-9.07 4.22-18.23-1.38-27.53-1.04-7.19.26-12.59 3.73-19.14 6.22a86.199 86.199 0 0 1-21.98 5.21c-4.79.48-9.63.56-14.35 1.48-3.57.69-7.04 1.86-10.61 2.56-3.54.7-7.14.93-10.74 1.17l-23.01 1.5c-3.34.22-6.86.93-10.16.55-3.84-.44-7.66-1-11.49-1.51-2.23-.29-4.48-.59-6.59-1.34-1.88-.67-3.62-1.68-5.44-2.49-2.21-.99-4.55-1.69-6.94-2.08l-.21-.03c-.73-.11-1.48-.2-2.21-.08-1.02.17-1.93.73-2.81 1.28-9.03 5.65-18.58 11.67-29.23 11.83-5.39.08-11-1.34-16.05.54-3.24 1.21-6.15.26-9.5-.41-3.93-.79-7.82-1.72-11.71-2.66-13.32-3.2-26.67-5.38-39.78-9.35a269.03 269.03 0 0 1-22.25-7.82c-7.06-2.84-13.74-6.49-21.09-8.29-10.94-2.68-22.2-1.33-33.31-1.08-11.67.26-19.68-2.06-30.08-5.92-17.9-6.63-31.92-18-48.37-27.34-13.51-7.67-28.31-10.94-42.34-17.21-.02.13-.06.25-.09.38v76.35c.09.34.16.69.17 1.09.09 3.7-.01 7.39-.17 11.08v.67c1.53 2.27 3.07 4.53 4.64 6.77 5.11 7.27 12.91 9.11 20.23 13.37 2.56 1.49 5.12 3.23 6.63 5.78 1.65 2.78 1.84 6.18 2.99 9.2 1.89 4.96 6.33 8.63 11.24 10.65 4.91 2.02 10.29 2.56 15.59 2.78 10.27.42 20.07-.68 29.71-4.31 4.86-1.83 10.43-2.49 15.54-3.6 5.63-1.23 11.27-2.47 16.9-3.7 2.86-.63 5.71-1.25 8.54-1.99 7.08-1.85 14.02-4.22 21.38-2.95 7.21 1.25 14.51 2.31 21.76 3.27 9.72 1.29 19.5 2.19 29.29 2.77 4.82.28 9.69.64 14.52.61 4.46-.02 8.94.73 13.47.74 16.89.04 38.39.82 48.65 16.49 1.65 2.51 2.94 5.27 4.8 7.63 1.62 2.05 3.62 3.73 5.51 5.53 2 1.89 3.48 3.96 5.82 5.39 9.79 6 18.93 12.85 26.59 21.48.39.44.8.9 1.33 1.16.45.21.95.27 1.44.32l7.37.77c5.31.55 10.67 1.11 16.01.67 2.41-.2 4.42-.95 6.69-1.47 2.52-.57 5.48-.06 8.06.02 11.83.39 23.65.78 35.48 1.16 8.03.26 16.23.51 23.94-1.73-5.56-5.23-5.91-15.02-.72-20.62 3.32-3.59 8.57-5.77 9.99-10.44 1.21-3.97-1.05-8.34-4.36-10.86-3.3-2.52-7.45-3.59-11.48-4.61-17.76-4.48-37.42-6.43-53.19-16.2-4.88-3.02-9.95-8.65-7.36-13.77 2.24-4.44 8.37-4.64 13.34-4.42 21.53.95 43.72-1.99 62.72-12.16 6.87-3.68 13.25-8.25 20.23-11.71 12.93-6.41 27.92-6.62 41.8-10.55 11.88-3.36 23-8.09 34.21-13.17 2.79-1.27 4.9-2.48 6.64-4.99 3.46-5.01 7.33-8.94 12.86-11.66 1.03-.5 2.14-1.01 2.73-2 .49-.82.52-1.83.53-2.78.15-11.71.15-23.45 0-35.18z"/>
        <path class="Key_Map_Eastern_India_sections_svg__st1" d="M430.46 296.49h-.43"/>
    </g>
    <g id="Key_Map_Eastern_India_sections_svg__Active_floodplain">
        <path class="Key_Map_Eastern_India_sections_svg__st2" d="M364.77 331.3c-3.28-3.3-7.11-6.16-11.28-8.24-11.49-5.72-18.35-18.39-26.48-28.15-4.72-5.67-11.96-8.78-19.24-9.99-23.19-3.85-48.59-2.81-72.15-4.45-8.64-.6-16.85-3.06-25.37-4.53-3.25-.56-6.54-1.02-9.84-1.04-3.3-.02-6.11.64-9.29 1.47-7.6 1.97-15.59 5.01-23.44 5.26-2.38.08-4.22.15-6.48.88a46.76 46.76 0 0 1-7.2 1.69c-2.1.32-4.21.5-6.3.88-4.68.87-9.11 2.76-13.71 4.01-4.09 1.11-8.21 2.01-12.48 2.26-3.88.22-7.88-.43-11.72-.09-6.92.61-14.02-1.46-20.02-5.02-1.16-.69-2.31-1.43-3.26-2.38-3-3-3.65-7.54-5.23-11.48-1.23-3.06-2.95-6.07-5.81-7.82-2.92-1.78-6.13-3.03-9.23-4.45-2.56-1.18-4.91-2.78-7.02-4.64-2.81-2.49-5.2-5.42-7.31-8.52-.96-1.41-1.94-2.79-2.92-4.18-.28 6.16-.74 12.31-.99 18.46 1.14.72 2.02 1.46 3.06 2.67 2.73 3.14 6.19 5.5 9.37 8.14 3.49 2.89 6.67 6.14 9.84 9.38 1.19 1.21 2.45 2.61 2.45 4.31-5.89-2.58-11.7-5.35-17.41-8.31-1.45-.75-2.87-1.56-4.32-2.29-.91-.45-1.87-.61-2.78-.99.52 4.85 1.39 9.75 1.15 14.55.81.49 1.63.98 2.45 1.46 4.69 2.73 9.49 5.39 14.19 8.15 5.09 2.98 10.5 5.4 16.05 7.37 2.73.97 5.53 1.97 8.35 2.61 2.85.65 5.58 2.22 8.46 2.97.43.11.86.22 1.28.32 2.67.64 5.38 1.11 8.08 1.58 2.47.43 4.94.9 7.42 1.31 2.12.34 4.21 1.06 6.36 1.4 4.61.73 9.29.71 13.94.68 2.19-.01 4.38-.03 6.57-.04 1.68-.01 3.28.53 4.93 0 1.4-.45 2.54-1.47 3.68-2.41 16.2-13.44 42.67-16.78 62.93-16.54 12.78.15 25.49 1.92 37.96 4.63 12 2.61 23.76 5.81 36.2 4.03 8.45-1.21 17.99-4.61 24.83.5 5.68 4.25 5.23 12.03 10.79 16.72 3.51 2.96 7.66 5.11 11.1 8.15 2.23 1.97 4.13 4.3 6.43 6.17 8.86 7.2 22.27 3.68 32.94 4.07-2.8-3.82-6.24-7.2-9.53-10.52z"/>
        <path class="Key_Map_Eastern_India_sections_svg__st1" d="M473.5 341.5c-7-5-6.48-16.66-1.29-22.26 3.32-3.59 8.57-5.77 9.99-10.44 1.21-3.97-1.05-8.34-4.36-10.86-3.3-2.52-7.45-3.59-11.48-4.61-17.76-4.48-37.42-6.43-53.19-16.2-4.88-3.02-9.95-8.65-7.36-13.76 2.24-4.44 8.37-4.64 13.34-4.42 21.53.95 43.72-1.99 62.72-12.16 6.87-3.68 13.25-8.25 20.23-11.71 12.93-6.41 27.92-6.62 41.8-10.55 15.03-4.25 24.97-8.38 38.6-16.01 1.67-.93 5.83-7.48 7-9 1.55-2.02 3.09-1.33 4.38-3.52 2.62-4.48 6.24 3.67 5.62-11.48"/>
    </g>
    <g id="Key_Map_Eastern_India_sections_svg__rivers">
        <path class="Key_Map_Eastern_India_sections_svg__st3" d="M154.89 294.4c1.87.25 3.75.42 5.64.49 1.35.05 2.82.03 3.9-.79 1.1-.83 1.52-2.29 2.48-3.28.95-.98 2.36-1.42 3.72-1.47 1.73-.06 3.54.36 5.23.63 3.33.52 7.4.17 9.08-2.75.76-1.32.95-3.08 2.21-3.94.6-.41 1.34-.53 2.07-.62 3.16-.36 6.39-.12 9.45.73 1.46.4 2.9.94 4.41.95 1.99.02 3.86-.85 5.78-1.4 11.22-3.21 18.26 9.45 28.79 5.33.15 2.62 3.17 4.64 5.64 3.77 1-.35 1.87-1.07 2.91-1.23 1.04-.15 2.07.27 3 .75 5.75 2.93 11.46 8.22 17.66 6.41 4.39-1.28 8.16-6.05 12.5-4.61 1.14.38 2.09 1.16 3.1 1.79 8.87 5.53 12.86.11 20.82-2.58 6.45-2.18 12.84 3.58 16.27 9.47 2.83 4.86 4.89 10.2 8.27 14.7 3.14 4.17 7.38 7.51 12.17 9.59 1.36.59 2.79 1.09 4.02 1.91 3.37 2.24 4.77 6.42 7.16 9.69.77 1.05 1.68 1.99 2.48 3.01.05.06.1.13.1.21-.01.16-.21.22-.37.23-.93.06-1.86.07-2.79.03"/>
        <path class="Key_Map_Eastern_India_sections_svg__st3" d="M49.45 255.84C53 259 54 265 59 268c4 2 9 2 14 2 6 6 12 12 15 20 9 7 20 13 31 14 7 1 12 4 19 4 2 0 4-1 6-3 4-4 4-13 12-12 3 1 7 4 10 1 1-1 1-2 1.34-3.19"/>
        <path class="Key_Map_Eastern_India_sections_svg__st4" d="M62.15 87.18c1.29-.13 2.5.64 3.45 1.51.96.87 1.81 1.9 2.95 2.5 1.08.57 2.38.73 3.32 1.51.99.82 1.37 2.14 1.8 3.35 1.26 3.51 3.11 6.65 6.4 8.47 1.33.74 2.98 2.04 4.54 2.13.73.04 1.48-.03 2.16.22.68.25 1.23.84 1.44 1.53.14.45.15.96.39 1.37.26.43.74.68 1.22.82 2.03.58 4.36-.48 6.25.45.63.31 1.14.81 1.63 1.31.88.88 1.77 1.76 2.65 2.64.76.75 1.55 1.58 1.7 2.64.15 1.1-.41 2.37.26 3.25.95 1.26 3.34.35 4.32 1.6.27.34.37.8.34 1.24-.08 1.33-1.18 2.38-2.37 2.97-1.19.59-2.52.87-3.7 1.48-1.34.69-2.44 1.82-3.13 3.15-.56 1.1-1.66 2.46-1.87 3.66-.24 1.4.79 2.67 1.14 4.05.38 1.51-.15 3.22-1.32 4.25-1.06.93-2.61 1.4-3.19 2.68-.18.39-.24.81-.4 1.21-.42 1.07-1.43 1.79-2.43 2.36s-2.07 1.09-2.8 1.98c-1.92 2.35.73 4.79 2.42 6.23.96.81 1.82 1.74 2.57 2.75.22.29.43.61.49.97.13.85-.72 1.63-1.58 1.63-.86 0-1.63-.58-2.11-1.3-.48-.71-.73-1.55-1.03-2.36-.3-.81-.67-1.62-1.32-2.19-1.2-1.04-3-.95-4.57-.69-1.69.29-3.17.54-4.77-.11l-5.1-2.07c-1.35.91.96 2.4 1.63 2.8 1.41.84 2.44 1.17 4.09 1.49.4.08.81.15 1.18.35.63.33 1.04.96 1.36 1.59.59 1.16.97 2.45.9 3.75-.07 1.21-.53 2.36-.98 3.48-.83 2.05-1.51 4.11-2.61 6.03-1.05 1.83-2.21 3.67-2.5 5.8-1.16 8.55 5.6 21.34 8.1 29.45 1.48 4.8 2.97 9.67 3.13 14.69.06 2.05-.38 4.24.93 6.03 1.53 2.09 4.69 2.32 6.42 4.25.49.54.84 1.2 1.4 1.67 1 .82 2.47.87 3.49 1.68.44.35.76.81 1.12 1.24 1.63 1.92 4.17 3 6.68 2.95 2.72-.05 5.73-1.4 8.38-.35.94.37 2.28 1.07 2.94 1.84.76.88.67 2.16 1.24 3.13.57.95 1.79 1.46 2.86 1.2.83-.2 1.57-.81 2.42-.76 1.31.08 2.03 1.59 3.25 2.09.68.28 1.45.21 2.13.47.79.3 1.38 1.01 2.19 1.27.59.19 1.24.12 1.86.17 1.27.1 2.44.69 3.57 1.28 1.42.74 2.85 1.47 4.27 2.21 1.1.57 1.39 1.44 2.2 2.32.85.92 1.94 1.62 3.14 1.99 1.06.32 2.18.4 3.23.73 1.19.37 2.25 1.06 3.37 1.6 1.51.73 3.12 1.21 4.72 1.68.93.27 1.87.55 2.83.56 1.48.02 2.96-.58 4.41-.25.95.21 1.77.8 2.56 1.38 1.58 1.15 3.15 2.31 4.73 3.46.41.3.83.61 1.13 1.02 2.73-.01 5.14 1.64 7.36 3.23 1.13.8 2.28 1.63 3.02 2.8 1.16 1.8 1.19 4.18 2.46 5.91a5.035 5.035 0 0 0 4.33 2.03M176.3 141.36c-.55 3.15-2.35 5.78-3.11 8.82-.56 2.25-1.97 3.88-2.76 5.99-.91 2.42-2.21 4.7-3.85 6.7-.92 1.13-1.94 2.16-2.96 3.2-.42.43-.88.98-.71 1.56.11.4.5.66.75 1 .49.64.48 1.51.44 2.31-.04.95-.08 1.92-.32 2.84-.38 1.43-1.26 2.71-1.51 4.17-.34 1.96.49 3.93 1.54 5.61.29.47.61.95.72 1.5.29 1.43-.9 2.68-1.49 4.02-.97 2.19-.49 5.14-2.37 6.62 1.14.73 2.49 1.11 3.84 1.08.7-.01 1.41-.13 2.09.04.7.18 1.28.65 1.96.91 1.44.54 3.1.03 4.58.49.6.18 1.14.52 1.74.71.73.23 1.5.23 2.26.25 4.79.15 9.67 1.15 13.83 3.59.28.16.56.34.76.58.68.82.09 2.3-.96 2.43-.61.07-1.21-.23-1.82-.2-.42.02-.82.19-1.2.37-1.27.57-2.54 1.13-3.81 1.7-.41.18-.83.37-1.15.68-.23.22-.41.5-.65.71-.93.83-2.27.45-3.36.83-.48.17-.85.48-1.3.66-.72.28-1.37.18-1.95.84-1.22 1.4-.15 3.94-1.48 5.23-1.35 1.31-3.21 2.98-2.89 5.1.15 1.02.82 1.88 1.47 2.68l2.22 2.76c.37.46.76.93 1.29 1.18.46.22 1.02.26 1.41.6.51.45.53 1.24.91 1.8.76 1.11 2.51.87 3.58 1.68.68.51.99 1.37 1.3 2.16 1.16 2.95 2.84 5.7 4.94 8.07.83.93 1.95 1.73 2.65 2.74.74 1.06.94 2.42 1.8 3.42.74.86 1.88 1.32 2.56 2.22.29.39.49.85.8 1.24.87 1.09 2.43 1.34 3.46 2.27.85.77 1.26 1.93 2.1 2.71.88.83 2.15 1.17 2.97 2.06.73.8.98 1.9 1.34 2.92 1.37 3.87 4.59 7.1 4.96 11.2.1 1.09-.02 2.19.08 3.28a8.183 8.183 0 0 0 3.09 5.62c.1.08.22.15.34.11s.07-.28-.04-.24M278.2 292.88a29.613 29.613 0 0 1-13.21-12.11c-.53-.93-1.01-1.88-1.34-2.9-.38-1.16-.56-2.38-.61-3.61-.08-1.67.06-3.35.41-4.98.12-.56.27-1.12.58-1.59.73-1.11 2.15-1.52 3.13-2.42.6-.54 1.01-1.25 1.5-1.89 2.5-3.28 6.79-4.74 9.42-7.91 1.43-1.73 2.62-3.75 3.92-5.59 1.63-2.31 2.73-5.2 4.01-7.74.71-1.4 1.43-2.83 1.69-4.38.18-1.07.15-2.17.49-3.2.19-.58.5-1.11.67-1.7.39-1.35.02-2.91.74-4.12.4-.66 1.1-1.16 1.29-1.9.21-.85-.32-1.71-.91-2.35-.6-.64-1.31-1.23-1.61-2.05-.35-.98-.03-2.06-.1-3.09-.06-.86-.39-1.68-.46-2.54-.2-2.31 1.52-4.42 3.57-5.49.74-.39 1.73-.77 2.23-1.48 1.04-1.5-.46-3.62 1-5.06.78-.77 2.1-.87 2.74-1.76.25-.35.37-.78.4-1.21.15-1.68-.74-3.25-1.15-4.88-.27-1.08-.33-2.2-.52-3.3-.52-3.04-2.02-6.21-.85-9.07.14-.34.33-.69.65-.87.47-.26 1.06-.11 1.58-.24 2-.49.15-2.64.87-3.8.36-.58.96-.97 1.54-1.33.9-.56 1.81-1.11 2.73-1.64.29-.17.58-.34.78-.61.49-.66.16-1.65-.47-2.19s-1.45-.75-2.23-1.02c-1.12-.39-2.19-.93-3.18-1.6-.9-.61-1.78-1.36-2.85-1.49-.76-.09-1.52.14-2.28.17-1.9.06-3.61-1.14-5.49-1.44-1.04-.16-2.11-.04-3.16.09-2.5.31-5.01.67-7.53.65-2.98-.02-5.95-.55-8.92-.34-1.09.08-2.31.23-3.18-.43-1.36-1.04-.91-3.21-1.68-4.74-.79-1.57-2.69-2.15-4.4-2.58-1.07-.27-2.25-.4-3.27.04-.56.24-1.1.64-1.3 1.22-.16.43-.11.93-.31 1.35-.47 1-1.95 1.03-2.66 1.88-.23.28-.37.64-.63.9-.46.47-1.19.51-1.84.49-1.53-.04-3.06-.29-4.52-.72-.87-.26-1.74-.59-2.65-.57s-1.88.47-2.19 1.32c-.22.62-.06 1.3.11 1.94.31 1.16.61 2.31.92 3.47M342.7 195.13c1.98 2.2 2.11 5.53 1.39 8.4s-2.16 5.51-2.98 8.35c-1.28 4.41-1.01 9.25.75 13.49 3.64 8.77 12.87 14.02 17.44 22.34.72 1.3 1.32 2.69 2.32 3.79 1.45 1.61 3.58 2.46 5.06 4.04 1.93 2.07 2.46 5.03 3.48 7.67.85 2.2 2.29 4.9 3.88 6.66 1.75 1.93 3.83 2.22 5.72 3.95.62.57 1.03 1.34 1.66 1.9.53.46 1.18.74 1.79 1.06 3.06 1.62 3.73 3.59 5.07 6.56.83 1.85 2.3 3.56 2.22 5.59"/>
        <path class="Key_Map_Eastern_India_sections_svg__st3" d="M404.03 341.58c-2.03-1.3-4.13-2.5-5.97-4.07-1.95-1.66-3.92-3.49-4.78-5.9-1.26-3.5.06-7.43-.68-11.08-.52-2.54-2-4.76-3.1-7.1-3.04-6.44-3.25-14.16-.55-20.74.89-2.16 2.07-4.22 2.64-6.49.97-3.86.08-7.91-.02-11.89-.18-7.16 3.83-11.36 9.83-14.46 5.02-2.59 10.51-6.76 15.57-8.78 5.19-2.07 8.98 1.45 14.19 1.71 3.43.17 6.65-1.51 10-2.25 6.06-1.33 12.54.47 18.52-1.21 4.61-1.3 8.39-4.51 12.29-7.29a77.115 77.115 0 0 1 27.71-12.37c10.22-2.3 19.58-6.52 30.24-7.29 1.74-.13 3.56-.21 5.06-1.1 1.77-1.04 2.79-3.01 4.36-4.34 2.71-2.27 6.58-2.31 9.97-3.33 9.28-2.79 14.27-12.61 17.96-21.57.51-1.23 1.03-2.5 1.97-3.44 1.72-1.72 4.4-1.97 6.47-3.24 2.01-1.23 3.31-3.32 5.07-4.88 2.57-2.29 6.03-3.38 8.64-5.62 2.62-2.24 4.09-6.63 1.6-9.01-.77-.73-1.79-1.14-2.78-1.53-2-.78-4.41-1.36-6.21-2.54-1.52-.99-1.01-2.82-3.67-2.95-2.51-.12-5.62.2-6.9-1.95-.73-1.23-.47-2.81.08-4.13s1.37-2.53 1.77-3.9c1.1-3.83-1.3-7.71-3.6-10.98-1.2-1.7-2.39-3.41-3.59-5.11-1.84-2.63-3.68-3.08-2.48-6.06.34-.85 1.09-1.46 1.8-2.03 4.26-3.4 8.52-6.81 12.78-10.21 1.78-1.42 3.62-2.91 4.63-4.96 1.97-3.96.32-8.69-1.34-12.79-.68-1.68-1.42-3.44-2.87-4.52-2.55-1.9-6.35-.88-8.69 1.27s-3.63 5.17-5.2 7.94c-1.56 2.77-3.66 5.52-6.7 6.45-1.1.33-2.27.41-3.38.69-3.3.85-5.8 3.43-8.42 5.61-6.36 5.29-14.34 8.61-22.57 9.39-2.28.22-4.64.26-6.75 1.14-2.24.94-4.09 2.8-6.47 3.31-3.02.65-6.08-1.04-9.17-.91-2.01.09-3.89.94-5.85 1.41-8.26 2-18.96-2.09-27.37-2.73-2.57-.19-5.15-.33-7.72-.46-2.28-.12-4.56-.23-6.84-.35-11.01-.56-22.1-1.12-33 .53-3.01.46-6.03 1.08-9.08.97-3.27-.13-6.44-1.11-9.69-1.44-9.05-.93-18.11 2.42-27.17 2.63-7.73.18-16.9 2.35-24.46 1.03-2.35-.41-4.6-1.35-6.97-1.64-4.7-.57-9.18 1.42-13.71 2.3-2.22.43-4.41.09-6.59.45-2.44.4-4.63 1.74-6.7 3.03-.5.31-1.02.64-1.27 1.17-.21.43-.21.92-.33 1.38-.36 1.51-1.77 2.5-2.8 3.66-1.01 1.14-1.69 2.54-2.7 3.67-1.77 1.97-4.39 2.98-7.01 3.4-2.62.42-5.28.31-7.93.43-4.96.22-10.04 1.22-14.81-.18-1.8-.53-3.34-1.56-5.22-1.58-2.31-.02-4.46.34-6.74.73-5.58.96-11.27.92-16.93.87-2.73-.02-5.48-.05-8.13-.7-1.49-.37-2.97-.93-4.5-.87-1.91.08-3.88 1.13-5.65.41-.92-.37-1.63-1.19-2.58-1.49-1.52-.49-3.3.44-4.74-.27-1.14-.56-1.77-1.71-3.14-1.85-.97-.1-2.1.2-3.09.25-2.59.12-5.1 1.24-6.71 3.31-.44.57-.89 1.24-1.6 1.35-.39.06-.77-.07-1.14-.2-1.83-.63-3.65-1.26-5.48-1.89-1.09-.38-2.19-.75-3.33-.83-.89-.06-1.8.07-2.68-.07-1.38-.22-2.58-1.09-3.59-2.06-.16-.15-.31-.31-.39-.51-.1-.28-.03-.58.04-.87l.66-2.67c.14-.58.28-1.17.21-1.76-.12-.98-.83-1.82-1.67-2.33-3.66-2.23-8.67-2.05-12.73-3.23-1.44-.42-3.07-1.1-3.47-2.55-.18-.68-.06-1.44-.39-2.06-.38-.71-1.21-1.01-1.9-1.42-1.63-.96-2.7-2.74-4.41-3.57-1.61-.78-3.56-.59-5.2-1.32-1.43-.63-2.47-1.88-3.69-2.86-1.06-.86-2.29-1.53-3.58-1.96-1.46-.49-2.64-.79-3.47-2.16-.75-1.25-1.54-2.04-2.86-2.78-2.4-1.34-4.9-2.53-7.45-3.56-1.24-.5-2.52-.97-3.52-1.85-1.32-1.16-2.08-2.96-3.66-3.72-1.51-.74-3.33-.3-4.98-.61-1.35-.25-2.56-1-3.87-1.42-.73-.23-1.5-.36-2.2-.66-.83-.35-1.55-.91-2.26-1.46-3.67-2.83-7.52-6-11.99-7.34-2.53-.76-4.86-2.3-7.49-2.46-.85-.05-1.7.04-2.55-.02-1.91-.13-3.68-1-5.4-1.86"/>
        <path class="Key_Map_Eastern_India_sections_svg__st4" d="M455.34 162.18c6.71 9.3 6.73 22.9.03 32.21-1.76 2.44-3.91 4.59-5.56 7.11-2.6 3.98-3.85 8.75-6.72 12.54-3.86 5.08-10.55 8.35-12.05 14.56-.53 2.19-.31 4.48-.49 6.72-.46 5.83-3.75 11.38-8.65 14.57M465.85 151.18c1.52 4.52 7.17 5.98 11.94 6.05 4.77.06 10.04-.43 13.8 2.51 6.45 5.04 6.5-1.14 12.45-2.96 1.59-.49 3.29-.45 4.95-.41l11.08.27c1.41.03 2.99 0 3.96-1.02.57-.6.82-1.44 1.36-2.06 1.21-1.38 3.37-1.23 5.19-.97 2.39.35 5.01.81 6.58 2.65 1.58 1.85 1.83 4.8 3.93 6.02.79.46 1.8.64 2.35 1.37.82 1.07.19 2.61.42 3.94.32 1.81 2.12 2.88 3.46 4.14 2.67 2.51 3.74 6.36 3.67 10.02-.13 6.66-.89 13.97-1.55 20.66-.11 1.09-.24 2.21-.72 3.19-.58 1.16-1.6 2.02-2.59 2.85-3.99 3.34-7.99 6.68-11.98 10.02-3.2 2.68-7.13 4.9-11.3 5.63M74.74 76.22c-6.47-5.94-15.48-8.16-23.62-10.79M123.08 176.41l2.65 2.53c.28.26.57.55.65.93.12.54-.23 1.12-.04 1.63.13.33.45.55.76.72.85.48 1.75.87 2.68 1.14.7.21 1.45.37 2.02.83.43.35.72.85 1 1.34.57 1.01 1.15 2.02 1.72 3.04.77 1.36 1.54 2.74 1.89 4.25.35 1.52.22 3.22-.7 4.47-.53.72-1.29 1.25-2.08 1.65a10.35 10.35 0 0 1-6.98.87c-1.1-.25-2.14-.68-3.18-1.11-3.7-1.52-7.4-3.05-11.11-4.57-.9-.37-1.81-.75-2.78-.91-1.49-.25-3.19-.04-4.33-1.03-.4-.35-.72-.84-1.24-.98-.29-.08-.6-.03-.9-.03-1.2 0-2.24-.74-3.31-1.27-.52-.26-1.09-.48-1.66-.37-.77.14-1.32.86-1.56 1.61-.59 1.89.39 3.88 1.34 5.62.6 1.09 1.2 2.19 1.79 3.28.17.31.34.64.35.99.01.52-.35.97-.57 1.44-.5 1.05-.32 2.39.44 3.27.83.96 1.96 1.46 2.68 2.53.79 1.19 1.99 2 3.45 2.48.61.2 1.25.31 1.82.6.62.32 1.11.83 1.7 1.2 1.33.81 3.05.77 4.38 1.59.81.5 1.42 1.3 2.25 1.77.92.52 2.1.66 2.75 1.5.25.33.39.73.67 1.05.68.78 1.92.73 2.75 1.34 1.23.9 1.12 2.8 2.04 4.01.84 1.1 2.35 1.41 3.72 1.63 1.73.28 3.47.57 5.22.54 1.11-.02 2.26-.15 3.31.19.76.25 1.51.75 2.29.6.58-.11 1.05-.56 1.63-.64.82-.12 1.54.52 2.32.8 1.07.38 2.16.14 3.11.83.98.71 1.59 1.86 1.84 3.02.26 1.21.29 2.48.8 3.61.23.51.56.97.74 1.49.29.79.23 1.66.34 2.5.17 1.4.77 2.71 1.37 3.99.5 1.07 1.01 2.16 1.82 3.02.51.54 1.12.96 1.69 1.43 1.33 1.1 2.45 2.46 3.28 3.97.98 1.77.89 3.54 1.03 5.53.02.27.04.54.13.79.34.9 1.43 1.2 2.29 1.65 1.97 1.05 3.03 3.43 5.09 4.29M49.52 176.12C59 179 65 187 70 194c-2 8 8 8 11.87 11.83"/>
        <path class="Key_Map_Eastern_India_sections_svg__st3" d="M49.93 280.29c10.74 5.82 21.6 11.41 32.41 17.1 4.5 2.37 10.4 6.93 15.72 4.85 2.39-.93 9.12-6.26 10.69-1.07"/>
    </g>
    <g id="Key_Map_Eastern_India_sections_svg__Thrust_faults">
        <path class="Key_Map_Eastern_India_sections_svg__st5" d="M600.17 150.38C589 154 582 164 573 172c-2 2-4 3-6 5-12 7-24 14-33 25-9 9-21 11-33 7-8 2-16 4-23 7-11 4-23 6-35 6-3 0-7 2-10 2-5 0-10 1-15 1-3 0-7 1-10 2-18 3-33-2-49-7-3 0-7 1-10 3-18 12-37 12-57 8-31-5-59-13-87-26-3-1-6-2-9-2-14 0-28 1-42-1-9-1-16-5-24-8-12-5-22-14-34-21-15-8-30-14-45.51-20.51"/>
        <path class="Key_Map_Eastern_India_sections_svg__st6" d="M221.9 211.99c-1.18-2.03-.9-4.43-2.58-6.68-1.43 1.14-3.45 2.5-4.23 4.13M316.58 232.35c-1.84-1.48-2.4-4.02-4.79-5.49-.99 1.83-2.48 4.15-2.67 6.16M168.48 202.53c-1.41-1.52-1.49-4.01-3.4-5.54-1.18 1.71-2.9 3.86-3.4 5.79M61.81 156.35c-1.05-2.12-.47-4.66-2.02-7-1.67 1.24-4 2.71-5.02 4.45M111.98 182.39c-.79-2.21-.07-4.52-1.3-7.04-1.61.86-3.85 1.82-4.91 3.28M268.28 225.93c-1.36-1.93-1.2-4.53-3.09-6.6-1.45 1.49-3.53 3.3-4.27 5.18M368 222.29c-1.1-2.09-.6-4.65-2.21-6.94-1.63 1.28-3.93 2.82-4.9 4.58M575.31 169.52c-2.34-.36-4.09-2.29-6.89-2.36.06 2.08-.08 4.83.76 6.67M534.71 200.15c-2.36-.06-4.35-1.75-7.14-1.46.32 2.05.54 4.8 1.6 6.52M89.66 71.43c-1.81-1.63-2.23-4.25-4.6-5.9-1.11 1.79-2.77 4.05-3.08 6.07M418.06 224.97c-1.84-1.48-2.39-4.03-4.78-5.5-.99 1.83-2.49 4.15-2.68 6.15M473.34 216.66c-2.07-1.13-3.07-3.55-5.67-4.57-.65 1.97-1.72 4.52-1.56 6.53"/>
    </g>
    <g id="Key_Map_Eastern_India_sections_svg__Labels">
        <path d="M533.21 361.79c-.06-1.18-.13-2.6-.12-3.65h-.04c-.28.99-.61 2.05-1.02 3.21l-1.43 4.11h-.79l-1.31-4.03c-.38-1.19-.71-2.29-.94-3.29h-.02c-.02 1.05-.08 2.47-.16 3.74l-.22 3.63h-1l.56-8.46h1.33l1.38 4.09c.34 1.04.61 1.97.82 2.85h.04c.2-.85.49-1.78.85-2.85l1.44-4.09h1.33l.5 8.46h-1.02l-.18-3.72zM539.3 365.51l-.08-.77h-.04c-.32.48-.95.9-1.78.9-1.17 0-1.77-.87-1.77-1.75 0-1.47 1.25-2.27 3.49-2.26v-.12c0-.5-.13-1.41-1.32-1.41-.54 0-1.1.18-1.51.45l-.24-.73c.48-.33 1.17-.54 1.91-.54 1.78 0 2.21 1.27 2.21 2.49v2.27c0 .53.02 1.04.1 1.46h-.97zm-.16-3.1c-1.15-.03-2.46.19-2.46 1.37 0 .72.46 1.06 1 1.06.76 0 1.24-.5 1.4-1.02.04-.11.06-.24.06-.35v-1.06zM542.16 359.43l1.27 3.59c.13.4.28.88.37 1.24h.02c.11-.36.23-.83.37-1.27l1.15-3.57h1.12l-1.58 4.33c-.75 2.08-1.27 3.15-1.99 3.8-.52.48-1.03.67-1.3.72l-.26-.93c.26-.09.61-.26.92-.54.29-.24.65-.67.89-1.23.05-.11.08-.2.08-.26s-.02-.15-.07-.29l-2.15-5.6h1.16zM549.89 364.24c.3.2 1 .51 1.73.51 1.36 0 1.78-.9 1.76-1.58-.01-1.14-1-1.63-2.01-1.63h-.59v-.83h.59c.77 0 1.74-.42 1.74-1.38 0-.65-.4-1.23-1.37-1.23-.62 0-1.22.29-1.56.54l-.28-.8c.41-.31 1.2-.63 2.04-.63 1.54 0 2.23.95 2.23 1.95 0 .84-.48 1.56-1.44 1.92v.02c.96.2 1.74.96 1.74 2.1 0 1.31-.97 2.45-2.84 2.45-.88 0-1.64-.29-2.03-.55l.29-.86zM555.44 367.06c.26-.74.59-2.08.72-3l1.18-.12c-.28 1.07-.8 2.46-1.14 3.05l-.76.07zM563.36 365.51v-.68l.83-.84c1.99-1.98 2.89-3.04 2.9-4.27 0-.83-.38-1.59-1.55-1.59-.71 0-1.3.38-1.66.69l-.34-.78c.54-.48 1.31-.83 2.21-.83 1.68 0 2.39 1.21 2.39 2.37 0 1.51-1.04 2.73-2.69 4.38l-.62.6v.02h3.5v.92h-4.97zM574.7 361.34c0 2.78-.98 4.31-2.71 4.31-1.52 0-2.55-1.49-2.58-4.19 0-2.74 1.13-4.24 2.71-4.24 1.64-.01 2.58 1.52 2.58 4.12zm-4.23.13c0 2.12.62 3.33 1.58 3.33 1.08 0 1.59-1.32 1.59-3.4 0-2.01-.49-3.33-1.58-3.33-.92-.01-1.59 1.18-1.59 3.4zM575.67 365.51v-.68l.83-.84c1.99-1.98 2.89-3.04 2.9-4.27 0-.83-.38-1.59-1.55-1.59-.71 0-1.3.38-1.66.69l-.34-.78c.54-.48 1.31-.83 2.21-.83 1.68 0 2.39 1.21 2.39 2.37 0 1.51-1.04 2.73-2.69 4.38l-.62.6v.02h3.5v.92h-4.97zM584.12 358.38h-.02l-1.36.77-.2-.84 1.7-.96h.9v8.16h-1.02v-7.13zM92.24 283.01c-.5 0-1.46-.06-2.49-.43-1.15-.42-1.99-1.05-2.48-2.03-.43-.87-.47-2.03-.04-3.21.83-2.26 2.99-3.36 5.54-2.44.88.32 1.5.76 1.77 1.03l-.53.71c-.34-.33-.8-.66-1.56-.93-1.85-.67-3.47.05-4.16 1.95-.7 1.93.05 3.49 1.82 4.13.64.23 1.12.3 1.38.27l.82-2.27-1.54-.56.29-.79 2.5.9-1.32 3.67zM96.7 285l.17-.72-.03-.01c-.46.32-1.18.49-1.96.21-1.11-.4-1.39-1.38-1.1-2.17.48-1.32 1.91-1.62 4.01-.85l.04-.11c.16-.45.33-1.31-.78-1.71-.51-.18-1.09-.22-1.57-.11l.01-.74c.56-.13 1.28-.09 1.97.16 1.67.6 1.66 1.89 1.27 2.98l-.74 2.04c-.17.47-.32.94-.38 1.34l-.91-.31zm.86-2.84c-1.08-.41-2.37-.67-2.76.39-.23.64.09 1.1.59 1.29.71.26 1.32-.03 1.65-.44.07-.09.13-.19.17-.3l.35-.94zM100.55 281.89c.2-.56.36-1.03.49-1.49l.88.32-.27.92.02.01c.46-.42 1.27-.7 2.18-.38.76.27 1.77 1.15 1.09 3.02l-1.18 3.26-.99-.36 1.14-3.15c.32-.88.25-1.73-.68-2.07-.65-.24-1.33.04-1.7.53-.09.11-.17.27-.23.44l-1.19 3.28-.99-.36 1.43-3.97zM112.05 284.37c-.17.39-.35.82-.59 1.48l-1.14 3.17c-.45 1.25-.98 1.93-1.68 2.21-.71.3-1.53.19-2.22-.06-.65-.24-1.32-.66-1.65-1.11l.52-.67c.28.36.77.76 1.45 1.01 1.01.37 1.95.1 2.45-1.27l.22-.61-.02-.01c-.49.4-1.22.59-2.07.29-1.35-.49-1.91-1.99-1.36-3.5.67-1.85 2.25-2.46 3.51-2.01.95.34 1.29 1.03 1.36 1.56l.02.01.34-.81.86.32zm-1.8 1.79c.06-.17.1-.32.11-.47.03-.64-.29-1.29-1.01-1.55-.95-.34-1.91.21-2.37 1.48-.39 1.07-.17 2.16.9 2.55.61.22 1.3.04 1.74-.52.12-.15.21-.33.27-.5l.36-.99zM113.16 288.06c-.46 1.35.2 2.21 1.19 2.57.71.26 1.18.29 1.61.26l-.09.77c-.41.03-1.07 0-1.94-.32-1.68-.61-2.29-2.07-1.69-3.72s2.03-2.59 3.62-2.02c1.78.64 1.69 2.38 1.33 3.39-.07.2-.15.35-.2.45l-3.83-1.38zm3.17.34c.24-.63.32-1.71-.79-2.11-1-.36-1.78.4-2.11 1.06l2.9 1.05zM117.57 291.39c.22.3.67.69 1.17.87.72.26 1.19.02 1.35-.43.17-.47-.02-.84-.65-1.37-.86-.7-1.12-1.41-.89-2.07.32-.88 1.29-1.34 2.46-.92.55.2.98.53 1.22.82l-.51.63c-.17-.21-.5-.54-1-.72-.59-.21-1.04.01-1.18.41-.16.45.09.77.7 1.3.82.7 1.13 1.35.84 2.16-.35.96-1.34 1.37-2.63.9-.6-.22-1.1-.56-1.4-.93l.52-.65z"/>
        <g>
            <path d="M99.39 250.95c-.49.05-1.46.1-2.52-.15-1.19-.29-2.09-.83-2.68-1.75-.52-.82-.68-1.97-.38-3.19.58-2.34 2.61-3.66 5.24-3.02.91.22 1.57.59 1.87.84l-.45.77c-.37-.29-.86-.57-1.65-.76-1.91-.46-3.45.42-3.93 2.39-.48 1.99.43 3.46 2.26 3.91.66.16 1.14.18 1.4.12l.57-2.34-1.6-.39.2-.82 2.59.63-.92 3.76zM102.83 243.39l1.03.25-.86 3.52h.02c.23-.25.55-.45.91-.54.35-.1.73-.13 1.12-.04.76.18 1.86.94 1.38 2.89l-.82 3.36-1.03-.25.79-3.24c.22-.91.07-1.76-.9-2-.66-.16-1.3.18-1.62.69-.09.13-.14.27-.19.47l-.83 3.4-1.03-.25 2.03-8.26zM110.42 254l.09-.73-.04-.01c-.42.37-1.12.62-1.93.42-1.14-.28-1.53-1.22-1.33-2.04.33-1.36 1.72-1.82 3.9-1.27l.03-.12c.11-.47.19-1.34-.96-1.62a2.87 2.87 0 0 0-1.57.06l-.07-.73c.54-.19 1.26-.22 1.98-.05 1.72.42 1.86 1.7 1.58 2.83l-.51 2.11c-.12.49-.21.97-.24 1.37l-.93-.22zm.55-2.92c-1.11-.3-2.43-.41-2.7.69-.16.66.21 1.09.73 1.21.73.18 1.31-.17 1.59-.61.06-.1.11-.21.14-.31l.24-.98zM119.15 250.15c-.12.4-.26.85-.42 1.54l-.8 3.27c-.31 1.29-.76 2.02-1.43 2.38-.67.38-1.5.35-2.22.18-.68-.16-1.38-.51-1.76-.92l.45-.72c.32.32.85.68 1.55.84 1.05.25 1.95-.11 2.3-1.53l.15-.63h-.02c-.44.45-1.15.72-2.02.51-1.4-.34-2.11-1.77-1.73-3.33.46-1.91 1.98-2.69 3.27-2.38.98.24 1.39.88 1.52 1.41l.02.01.25-.84.89.21zm-1.61 1.96c.04-.18.07-.33.06-.48-.04-.64-.42-1.25-1.17-1.43-.98-.24-1.88.42-2.2 1.72-.27 1.11.07 2.16 1.17 2.43.63.15 1.3-.1 1.68-.7.1-.16.17-.35.21-.53l.25-1.01zM121.44 247.92l1.03.25-.86 3.52.02.01c.23-.25.55-.45.91-.54.35-.1.73-.13 1.12-.04.76.18 1.86.94 1.38 2.89l-.82 3.36-1.03-.25.79-3.24c.22-.91.07-1.76-.9-2-.66-.16-1.3.18-1.62.69-.09.12-.14.27-.19.47l-.83 3.4-1.03-.25 2.03-8.27zM129.03 258.52l.09-.73-.04-.01c-.42.37-1.12.62-1.93.42-1.14-.28-1.53-1.22-1.33-2.04.33-1.36 1.72-1.81 3.9-1.27l.03-.12c.11-.47.19-1.34-.96-1.62a2.87 2.87 0 0 0-1.57.06l-.07-.73c.54-.19 1.26-.22 1.98-.05 1.72.42 1.86 1.7 1.58 2.83l-.51 2.11c-.12.49-.21.97-.24 1.37l-.93-.22zm.55-2.91c-1.11-.3-2.43-.41-2.7.69-.16.66.21 1.09.73 1.21.73.18 1.31-.17 1.59-.61.06-.1.11-.21.14-.31l.24-.98zM132.47 255.25c.16-.66.29-1.24.38-1.77l.9.22-.23 1.12.05.01c.44-.69 1.17-1.02 1.86-.86.12.03.2.06.28.11l-.24.97c-.1-.05-.2-.09-.34-.12-.72-.18-1.37.25-1.7.98-.06.13-.12.29-.16.47l-.73 3.01-1.01-.25.94-3.89zM138.4 260.8l.09-.73-.04-.01c-.42.37-1.12.62-1.93.42-1.14-.28-1.53-1.22-1.33-2.04.33-1.36 1.73-1.82 3.9-1.27l.03-.12c.11-.47.19-1.34-.96-1.62a2.87 2.87 0 0 0-1.57.06l-.07-.73c.54-.19 1.26-.22 1.98-.05 1.73.42 1.86 1.7 1.58 2.83l-.51 2.11c-.12.49-.21.97-.24 1.37l-.93-.22zm.55-2.91c-1.11-.3-2.43-.41-2.7.69-.16.66.21 1.09.73 1.21.73.18 1.31-.17 1.59-.61.06-.1.11-.21.14-.31l.24-.98z"/>
        </g>
        <g>
            <path d="M198.49 240.01a7.63 7.63 0 0 1-1.91-1.64c-.77-.95-1.17-1.93-1.08-3.02.08-.96.65-1.98 1.62-2.78 1.88-1.51 4.29-1.34 6 .76.59.72.89 1.42.98 1.8l-.82.34c-.12-.46-.34-.97-.86-1.61-1.24-1.53-3-1.75-4.57-.47-1.59 1.29-1.75 3.02-.56 4.48.43.53.8.83 1.04.94l1.87-1.52-1.04-1.27.65-.53 1.68 2.07-3 2.45zM201.29 244.01l.51-.53-.02-.03c-.56.04-1.27-.19-1.79-.83-.74-.91-.48-1.9.17-2.43 1.09-.89 2.47-.4 3.88 1.34l.09-.08c.37-.3.96-.95.21-1.87-.34-.42-.83-.75-1.29-.9l.39-.63c.54.18 1.14.59 1.6 1.15 1.12 1.38.45 2.48-.45 3.21l-1.68 1.37c-.39.32-.76.65-1.02.95l-.6-.72zm2.19-1.99c-.71-.91-1.69-1.79-2.57-1.08-.53.43-.49.99-.15 1.41.48.59 1.15.65 1.64.47.11-.04.21-.1.3-.17l.78-.63zM206.19 243.33c.46-.38.84-.7 1.19-1.03l.59.73-.71.65.01.02c.61-.12 1.45.05 2.06.8.51.62.92 1.89-.62 3.15l-2.69 2.19-.67-.82 2.6-2.11c.72-.59 1.11-1.35.48-2.12-.44-.54-1.16-.65-1.73-.42-.13.05-.29.14-.43.25l-2.71 2.2-.67-.82 3.3-2.67zM216.88 249.68l-5.44 4.43c-.4.33-.85.71-1.13.98l-.6-.73.75-.67-.02-.02c-.71.16-1.53-.08-2.13-.81-.88-1.09-.65-2.68.72-3.79 1.49-1.23 3.17-1.05 4.06.05.56.69.61 1.42.42 1.92l.02.02 2.69-2.19.66.81zm-4.6 2.39c.1-.08.23-.21.31-.32.42-.55.49-1.34-.01-1.95-.69-.85-1.84-.74-2.84.07-.91.74-1.3 1.8-.58 2.69.45.55 1.22.75 1.95.41.13-.06.25-.14.38-.25l.79-.65zM213.41 258.91l.51-.53-.02-.03c-.56.04-1.27-.19-1.79-.83-.74-.91-.48-1.9.17-2.43 1.09-.89 2.47-.4 3.88 1.34l.09-.08c.37-.3.96-.95.21-1.87-.34-.42-.83-.75-1.29-.9l.39-.62c.55.18 1.14.59 1.6 1.15 1.12 1.38.45 2.47-.45 3.21l-1.68 1.37c-.39.32-.76.65-1.02.95l-.6-.73zm2.2-1.99c-.71-.91-1.69-1.79-2.57-1.08-.53.43-.49.99-.15 1.41.48.59 1.15.65 1.64.47.11-.04.21-.1.3-.17l.78-.63zM218.13 259.73l.01.02c.25-.02.57-.02.84-.02l2.63.06.8.99-3.27-.23-1.04 4.14-.81-1 .89-3.31-.81-.04-1.69 1.38-.66-.81 6.6-5.38.66.81-4.15 3.39z"/>
        </g>
        <g>
            <path d="M264.13 250.74l.67-.8 2.97 2.52.02-.03c-.1-.37-.18-.72-.25-1.04l-.71-3.85.84-.99.72 4.45 5.59.61-.8.94-4.75-.54.18 1.16 2.35 1.99-.68.8-6.15-5.22zM275.62 245.12c1.64 1.39 1.39 3.13.48 4.2-1.02 1.2-2.68 1.38-4.08.19-1.48-1.26-1.53-2.96-.49-4.19 1.09-1.27 2.74-1.35 4.09-.2zm-2.93 3.55c.97.82 2.17.89 2.84.1.65-.77.42-1.96-.58-2.8-.75-.64-2.02-1.07-2.83-.12-.8.95-.27 2.11.57 2.82zM277.82 245.42c.36-.11.88-.39 1.22-.79.5-.58.44-1.11.07-1.42-.38-.33-.79-.28-1.51.13-.96.56-1.72.56-2.25.11-.71-.6-.81-1.68 0-2.63.38-.45.84-.73 1.2-.86l.42.7c-.26.08-.68.28-1.02.69-.4.48-.35.97-.02 1.25.37.31.75.18 1.46-.21.95-.52 1.66-.59 2.32-.03.78.66.81 1.73-.08 2.78-.41.48-.91.83-1.36.99l-.45-.71zM276.9 236.68c.28.22.33.61.06.93-.24.28-.63.3-.9.07a.654.654 0 0 1-.08-.93c.26-.3.64-.31.92-.07zm4.91 5.71l-4.43-3.76.68-.8 4.43 3.76-.68.8z"/>
        </g>
        <g>
            <path d="M364.03 235.76l-1.72-1.76.63-.62 4.18 4.28-.64.62-1.73-1.77-5.15 5.03-.74-.75 5.17-5.03zM361.85 243.83l4.15-4.06.74.75-4.15 4.06-.74-.75zm6.14-4.36c-.25.26-.64.27-.93-.03a.628.628 0 0 1 .02-.91c.27-.26.67-.26.93.01.28.29.25.67-.02.93zM364.48 244.98c.07.37.3.91.67 1.29.54.55 1.06.54 1.41.2.36-.35.35-.76.01-1.52-.46-1.01-.39-1.76.1-2.25.67-.65 1.75-.65 2.62.24.41.42.65.91.74 1.27l-.73.35c-.06-.26-.21-.7-.59-1.08-.44-.45-.94-.44-1.24-.14-.34.33-.25.73.07 1.48.43.99.43 1.71-.19 2.31-.73.71-1.8.65-2.76-.34-.44-.45-.74-.98-.86-1.44l.75-.37zM373.37 244.92l-1.19 1.17 1.05 1.08-.57.56-1.06-1.08-2.24 2.19c-.52.5-.66.93-.25 1.35.19.2.36.32.48.39l-.53.59c-.2-.09-.47-.28-.76-.57-.34-.35-.51-.74-.48-1.12.01-.43.31-.87.8-1.35l2.26-2.21-.63-.64.58-.56.63.64 1-.97.91.53zM372.15 254.38l.46-.57-.02-.03c-.55.09-1.28-.07-1.86-.67-.82-.84-.65-1.85-.05-2.44 1-.98 2.42-.62 3.98.99l.09-.08c.34-.33.87-1.03.04-1.88a2.9 2.9 0 0 0-1.36-.78l.33-.66c.56.12 1.19.48 1.7 1 1.24 1.27.68 2.42-.16 3.24l-1.55 1.52c-.36.35-.7.71-.93 1.04l-.67-.68zm2.01-2.18c-.79-.84-1.85-1.63-2.65-.85-.49.48-.4 1.03-.03 1.42.53.54 1.21.55 1.68.33.1-.05.21-.12.28-.19l.72-.71z"/>
        </g>
        <g>
            <path d="M364.94 111.76l-2.46.03-.01-.89 5.98-.07.01.89-2.47.03.08 7.2-1.05.01-.08-7.2zM368.63 117.83c.31.2.87.41 1.4.4.77-.01 1.12-.4 1.12-.88-.01-.5-.31-.78-1.09-1.06-1.05-.36-1.55-.93-1.55-1.63-.01-.94.74-1.71 1.98-1.73.59-.01 1.1.15 1.43.34l-.25.77c-.23-.14-.65-.33-1.19-.32-.62.01-.97.37-.96.8.01.48.36.69 1.11.97 1.01.37 1.53.87 1.54 1.73.01 1.02-.77 1.75-2.15 1.76-.63.01-1.22-.14-1.63-.38l.24-.77zM376.75 118.82l-.09-.73h-.04c-.32.46-.94.87-1.76.88-1.18.01-1.79-.81-1.79-1.65-.02-1.4 1.22-2.19 3.46-2.2V115c-.01-.48-.15-1.34-1.33-1.33-.54.01-1.1.18-1.51.45l-.25-.69c.48-.32 1.17-.53 1.9-.54 1.77-.02 2.22 1.19 2.23 2.35l.03 2.17c.01.5.04 1 .11 1.39l-.96.02zm-.19-2.96c-1.15-.01-2.46.21-2.44 1.34.01.68.47 1 1.01 1 .76-.01 1.23-.49 1.39-.99.03-.11.06-.23.06-.34l-.02-1.01zM379.27 114.55c-.01-.6-.02-1.09-.07-1.57l.94-.01.07.96h.02c.28-.56.95-1.1 1.91-1.11.8-.01 2.06.46 2.08 2.45l.04 3.47-1.06.01-.04-3.35c-.01-.94-.37-1.71-1.36-1.7-.7.01-1.23.51-1.4 1.1-.05.13-.07.31-.07.49l.04 3.49-1.06.01-.04-4.24zM390.91 112.85c-.02.42-.04.89-.03 1.6l.04 3.37c.02 1.33-.24 2.15-.8 2.66-.56.53-1.37.71-2.1.72-.7.01-1.47-.15-1.94-.46l.25-.81c.39.24.99.44 1.71.44 1.08-.01 1.86-.59 1.85-2.05l-.01-.65h-.02c-.32.54-.94.98-1.84.99-1.44.02-2.48-1.19-2.5-2.8-.02-1.97 1.25-3.1 2.58-3.11 1.01-.01 1.57.51 1.82.99h.02l.04-.88.93-.01zm-1.06 2.3c0-.18-.02-.34-.07-.48-.2-.61-.72-1.11-1.49-1.1-1.01.01-1.72.87-1.7 2.21.01 1.14.6 2.08 1.74 2.07.65-.01 1.23-.42 1.45-1.1.06-.18.08-.38.08-.56l-.01-1.04zM392.57 114.72c-.01-.74-.04-1.34-.07-1.89l.95-.01.06.99h.02c.42-.71 1.1-1.14 2.05-1.15 1.4-.02 2.47 1.16 2.49 2.92.02 2.09-1.23 3.13-2.6 3.15-.77.01-1.44-.32-1.8-.89h-.02l.04 3.15-1.04.01-.08-6.28zm1.06 1.54c0 .16.03.3.05.43.2.73.84 1.23 1.6 1.22 1.12-.01 1.75-.93 1.74-2.26-.01-1.16-.64-2.15-1.75-2.14-.72.01-1.38.53-1.58 1.33-.03.13-.07.29-.07.43l.01.99zM404.66 115.54c.02 2.15-1.45 3.1-2.85 3.11-1.57.02-2.8-1.12-2.82-2.95-.02-1.94 1.24-3.1 2.84-3.12 1.67-.01 2.81 1.19 2.83 2.96zm-4.61.12c.01 1.27.76 2.22 1.79 2.21 1.01-.01 1.75-.97 1.74-2.27-.01-.98-.52-2.23-1.77-2.21-1.24.01-1.77 1.16-1.76 2.27zM407.69 118.94l3.25-8.73.82-.01-3.26 8.73-.81.01zM415.17 110.4c.46-.1 1.17-.18 1.91-.19 1.04-.01 1.72.16 2.22.56.42.31.68.78.69 1.42.01.78-.5 1.47-1.35 1.79v.02c.77.18 1.68.81 1.69 2.01.01.7-.26 1.23-.66 1.63-.56.52-1.47.77-2.79.79-.72.01-1.27-.03-1.62-.08l-.09-7.95zm1.09 3.29l.95-.01c1.1-.01 1.74-.6 1.74-1.38-.01-.95-.74-1.31-1.79-1.3-.48.01-.75.04-.92.08l.02 2.61zm.04 3.88c.2.03.5.04.88.04 1.08-.01 2.07-.42 2.06-1.6-.01-1.1-.96-1.55-2.1-1.54l-.86.01.02 3.09zM421.69 114.3c-.01-.68-.03-1.27-.07-1.81l.92-.01.05 1.14h.05c.25-.78.88-1.28 1.59-1.29.12 0 .2.01.3.03l.01 1c-.11-.02-.22-.03-.36-.03-.74.01-1.27.58-1.4 1.37-.02.14-.04.31-.04.49l.04 3.09-1.04.01-.05-3.99zM428.81 118.22l-.09-.73h-.04c-.32.46-.94.87-1.77.88-1.17.01-1.78-.81-1.79-1.65-.02-1.4 1.22-2.19 3.46-2.2v-.12c-.01-.48-.15-1.34-1.33-1.33-.54.01-1.1.18-1.51.45l-.25-.69c.48-.32 1.17-.53 1.9-.54 1.77-.02 2.22 1.19 2.23 2.35l.03 2.17c.01.5.04.99.11 1.39l-.95.02zm-.19-2.96c-1.15-.01-2.46.21-2.44 1.34.01.68.47 1 1.01 1 .75-.01 1.23-.49 1.39-.99.03-.11.06-.23.06-.34l-.02-1.01zM431.28 109.67l1.06-.01.04 3.62h.02c.16-.3.42-.57.75-.75.31-.18.68-.31 1.08-.31.78-.01 2.03.46 2.05 2.46l.04 3.45-1.06.01-.04-3.33c-.01-.94-.37-1.72-1.36-1.71-.68.01-1.22.49-1.4 1.07-.06.14-.07.3-.07.5l.04 3.5-1.06.01-.09-8.51zM437.99 113.88c-.01-.6-.02-1.09-.07-1.57l.92-.01.06.94h.04c.32-.56.85-1.08 1.81-1.09.79-.01 1.4.46 1.66 1.14h.02c.18-.33.4-.58.64-.76.34-.27.73-.42 1.28-.42.77-.01 1.91.48 1.94 2.5l.04 3.42-1.03.01-.04-3.29c-.01-1.12-.43-1.78-1.28-1.77-.6.01-1.06.46-1.24.97-.05.14-.08.34-.08.53l.04 3.59-1.03.01-.04-3.48c-.01-.92-.43-1.59-1.23-1.58-.66.01-1.13.54-1.29 1.07-.06.16-.08.34-.08.52l.04 3.5-1.03.01-.05-4.24zM451.26 117.96l-.09-.73h-.04c-.32.46-.94.87-1.76.88-1.18.01-1.79-.81-1.79-1.65-.02-1.4 1.22-2.19 3.46-2.2v-.12c-.01-.48-.15-1.34-1.33-1.33-.54.01-1.1.18-1.51.45l-.25-.69c.48-.32 1.17-.53 1.9-.54 1.78-.02 2.22 1.19 2.23 2.35l.02 2.17c.01.5.04.99.11 1.39l-.95.02zm-.19-2.96c-1.15-.01-2.46.21-2.44 1.34.01.68.47 1 1.01 1 .76-.01 1.23-.49 1.39-.99.03-.11.06-.23.06-.34l-.02-1.01zM453.79 114.02c-.01-.74-.04-1.34-.07-1.89l.95-.01.06.99h.02c.42-.71 1.1-1.14 2.05-1.15 1.4-.02 2.47 1.16 2.49 2.92.02 2.09-1.24 3.13-2.6 3.15-.77.01-1.44-.32-1.8-.89h-.02l.04 3.15-1.04.01-.08-6.28zm1.06 1.53c0 .16.03.3.05.43.2.73.84 1.23 1.6 1.22 1.12-.01 1.75-.93 1.74-2.26-.01-1.16-.64-2.15-1.75-2.14-.72.01-1.38.53-1.58 1.33-.03.13-.07.29-.07.43l.01.99zM465.5 116.21c.01.6.02 1.13.07 1.58l-.94.01-.07-.95h-.02c-.27.47-.87 1.09-1.91 1.1-.91.01-2.01-.48-2.03-2.52l-.04-3.39 1.06-.01.04 3.21c.01 1.1.36 1.84 1.32 1.83.71-.01 1.19-.51 1.38-.98.06-.16.09-.35.09-.54l-.04-3.56 1.06-.01.03 4.23zM468.46 110.29l.02 1.67 1.51-.02.01.8-1.51.02.04 3.13c.01.72.22 1.12.8 1.12.28 0 .48-.04.61-.08l.06.79c-.2.09-.53.15-.93.15-.49.01-.89-.15-1.14-.43-.3-.31-.42-.82-.43-1.51l-.04-3.17-.9.01-.01-.8.9-.01-.02-1.39 1.03-.28zM471.2 113.73c-.01-.68-.03-1.27-.07-1.81l.92-.01.05 1.14h.05c.25-.78.88-1.28 1.59-1.29.12 0 .2.01.3.03l.01 1c-.11-.02-.22-.03-.36-.03-.74.01-1.26.58-1.4 1.37-.02.14-.04.31-.04.49l.04 3.09-1.04.01-.05-3.99zM478.32 117.64l-.09-.73h-.04c-.32.46-.94.87-1.77.88-1.17.01-1.78-.81-1.79-1.65-.02-1.4 1.22-2.19 3.46-2.2v-.12c-.01-.48-.15-1.34-1.33-1.33-.54.01-1.1.18-1.51.45l-.25-.69c.48-.32 1.17-.53 1.9-.54 1.77-.02 2.22 1.19 2.23 2.35l.03 2.17c.01.5.04 1 .11 1.39l-.95.02zm-.19-2.96c-1.15-.01-2.46.21-2.44 1.34.01.68.47 1 1.01 1 .75-.01 1.23-.49 1.39-.99.03-.11.06-.23.06-.34l-.02-1.01z"/>
        </g>
        <g>
            <path d="M84.43 54.74h1.04v3.9h.04c.22-.31.43-.6.64-.86l2.47-3.03h1.3l-2.93 3.43 3.15 4.65H88.9l-2.66-3.97-.77.89v3.08h-1.04v-8.09zM94.3 62.82l-.08-.73h-.04c-.32.46-.95.86-1.77.86-1.18 0-1.77-.83-1.77-1.67 0-1.4 1.25-2.17 3.49-2.16V59c0-.48-.13-1.34-1.32-1.34-.54 0-1.1.17-1.51.43l-.24-.7c.48-.31 1.18-.52 1.91-.52 1.77 0 2.21 1.21 2.21 2.37v2.17c0 .5.02 1 .1 1.39h-.98zm-.15-2.96c-1.15-.02-2.46.18-2.46 1.31 0 .68.46 1.01 1 1.01.76 0 1.24-.48 1.4-.97.04-.11.06-.23.06-.34v-1.01zM98.05 55.39c.01.36-.25.65-.67.65-.37 0-.64-.29-.64-.65 0-.37.28-.66.66-.66.4 0 .65.28.65.66zm-1.18 7.43v-5.8h1.06v5.8h-1.06zM99.68 54.31h1.06v8.52h-1.06v-8.52zM105.73 62.82l-.08-.73h-.04c-.32.46-.95.86-1.77.86-1.18 0-1.77-.83-1.77-1.67 0-1.4 1.25-2.17 3.49-2.16V59c0-.48-.13-1.34-1.32-1.34-.54 0-1.1.17-1.51.43l-.24-.7c.48-.31 1.18-.52 1.91-.52 1.77 0 2.21 1.21 2.21 2.37v2.17c0 .5.02 1 .1 1.39h-.98zm-.16-2.96c-1.15-.02-2.46.18-2.46 1.31 0 .68.46 1.01 1 1.01.76 0 1.24-.48 1.4-.97.04-.11.06-.23.06-.34v-1.01zM108.15 61.74c.31.2.86.42 1.39.42.77 0 1.13-.38 1.13-.86 0-.5-.3-.78-1.08-1.07-1.04-.37-1.54-.95-1.54-1.64 0-.94.76-1.7 2-1.7.59 0 1.1.17 1.43.36l-.26.77c-.23-.14-.65-.34-1.19-.34-.62 0-.97.36-.97.79 0 .48.35.7 1.1.98 1.01.38 1.52.89 1.52 1.75 0 1.02-.79 1.74-2.17 1.74-.64 0-1.22-.16-1.63-.4l.27-.8z"/>
        </g>
        <path class="Key_Map_Eastern_India_sections_svg__st6" d="M292.17 162.59c-1.81-1.63-2.23-4.25-4.6-5.9-1.11 1.79-2.77 4.05-3.08 6.07"/>
        <g>
            <path d="M296.13 153.2h-3.14v2.91h3.5v.88h-4.54v-8.08h4.37v.88H293v2.55h3.14v.86zM298.13 151.19l1.14 3.26c.19.53.35 1.01.47 1.49h.04c.13-.48.3-.96.49-1.49l1.13-3.26h1.1l-2.28 5.8h-1.01l-2.21-5.8h1.13zM303.96 154.28c.02 1.43.94 2.01 1.99 2.01.75 0 1.21-.13 1.61-.3l.18.76c-.37.17-1.01.36-1.93.36-1.79 0-2.85-1.18-2.85-2.93 0-1.75 1.03-3.13 2.72-3.13 1.9 0 2.4 1.67 2.4 2.73 0 .22-.02.38-.04.49h-4.08zm3.1-.76c.01-.67-.28-1.71-1.46-1.71-1.07 0-1.54.98-1.62 1.71h3.08zM309.39 153c0-.68-.01-1.27-.05-1.81h.92l.04 1.14h.05c.26-.78.9-1.27 1.61-1.27.12 0 .2.01.3.04v1c-.11-.02-.22-.04-.36-.04-.74 0-1.27.56-1.42 1.36-.02.14-.05.31-.05.49V157h-1.04v-4zM313.78 154.28c.02 1.43.94 2.01 1.99 2.01.75 0 1.21-.13 1.61-.3l.18.76c-.37.17-1.01.36-1.93.36-1.79 0-2.85-1.18-2.85-2.93 0-1.75 1.03-3.13 2.72-3.13 1.9 0 2.4 1.67 2.4 2.73 0 .22-.02.38-.04.49h-4.08zm3.1-.76c.01-.67-.28-1.71-1.46-1.71-1.07 0-1.54.98-1.62 1.71h3.08zM319.06 155.91c.31.2.86.42 1.39.42.77 0 1.13-.38 1.13-.86 0-.5-.3-.78-1.08-1.07-1.04-.37-1.54-.95-1.54-1.64 0-.94.75-1.7 2-1.7.59 0 1.1.17 1.43.36l-.26.77c-.23-.14-.65-.34-1.19-.34-.62 0-.97.36-.97.79 0 .48.35.7 1.1.98 1.01.38 1.52.89 1.52 1.75 0 1.02-.79 1.74-2.17 1.74-.64 0-1.22-.16-1.63-.4l.27-.8zM325.23 149.52v1.67h1.51v.8h-1.51v3.13c0 .72.2 1.13.79 1.13.28 0 .48-.04.61-.07l.05.79c-.2.08-.53.14-.94.14-.49 0-.89-.16-1.14-.44-.3-.31-.41-.83-.41-1.51v-3.17h-.9v-.8h.9v-1.39l1.04-.28z"/>
        </g>
        <g>
            <path d="M73 104.78l.89.55-2.05 3.31.03.02c.35-.15.68-.28 1-.4l3.7-1.28 1.1.68-4.29 1.38.23 5.62-1.05-.65-.17-4.78-1.12.35-1.62 2.62-.89-.55 4.24-6.87zM77.14 116.85l.31-.67-.03-.02c-.51.22-1.26.24-1.96-.2-1-.62-1.07-1.64-.63-2.35.74-1.19 2.2-1.19 4.1 0l.06-.1c.25-.41.59-1.21-.41-1.84-.46-.29-1.03-.44-1.51-.43l.16-.72c.57-.01 1.27.18 1.89.57 1.51.93 1.24 2.19.63 3.18l-1.14 1.85c-.27.43-.5.86-.65 1.23l-.82-.5zm1.42-2.6c-.97-.63-2.18-1.14-2.78-.18-.36.58-.14 1.1.32 1.38.64.4 1.3.24 1.71-.09.09-.07.17-.16.23-.25l.52-.86zM81.42 114.81c.36-.58.66-1.09.91-1.57l.79.49-.57.99.04.03c.63-.52 1.43-.61 2.04-.23.1.06.17.12.24.19l-.52.85c-.08-.08-.16-.14-.29-.22-.63-.39-1.38-.19-1.92.41-.1.11-.2.24-.3.39l-1.63 2.63-.89-.55 2.1-3.41zM84.93 116.69c.32-.51.56-.93.79-1.36l.8.49-.45.85.02.01c.54-.32 1.39-.42 2.21.08.68.42 1.49 1.49.44 3.18l-1.82 2.95-.9-.56 1.76-2.84c.49-.8.61-1.64-.24-2.17-.59-.37-1.31-.23-1.77.17-.11.09-.23.23-.32.38l-1.84 2.97-.9-.56 2.22-3.59zM91.09 125.49l.31-.67-.03-.02c-.52.22-1.26.24-1.96-.2-1-.62-1.07-1.64-.63-2.35.74-1.19 2.2-1.19 4.1 0l.06-.1c.25-.41.6-1.21-.41-1.84-.46-.28-1.03-.44-1.51-.43l.16-.72c.57-.01 1.27.18 1.89.57 1.51.93 1.24 2.19.63 3.18l-1.14 1.85c-.27.43-.5.86-.65 1.23l-.82-.5zm1.43-2.6c-.97-.63-2.19-1.14-2.78-.18-.36.58-.14 1.1.32 1.38.64.4 1.3.24 1.7-.09.09-.07.17-.16.23-.25l.53-.86zM97.76 119.6l.9.56-4.48 7.24-.9-.56 4.48-7.24zM95.69 128.34l3.06-4.94.9.56-3.06 4.94-.9-.56zm4.91-5.71c-.18.31-.56.42-.91.2a.62.62 0 0 1-.2-.88c.2-.32.58-.42.91-.21.33.2.4.58.2.89z"/>
        </g>
        <g>
            <path d="M226.06 84.74h-3.69v-1.33h8.99v1.33h-3.71v10.8h-1.58v-10.8zM234.19 84.38c.02.54-.38.97-1.01.97-.56 0-.96-.43-.96-.97 0-.56.41-.99.99-.99.61 0 .98.43.98.99zm-1.76 11.16v-8.71h1.58v8.71h-1.58zM236.57 95.54c.04-.59.07-1.48.07-2.25V82.76h1.57v5.47h.04c.56-.97 1.57-1.6 2.97-1.6 2.16 0 3.69 1.8 3.67 4.45 0 3.12-1.96 4.66-3.91 4.66-1.26 0-2.27-.49-2.92-1.64h-.05l-.07 1.44h-1.37zm1.64-3.49c0 .2.04.4.07.58.31 1.1 1.22 1.85 2.38 1.85 1.66 0 2.65-1.35 2.65-3.35 0-1.75-.9-3.24-2.59-3.24-1.08 0-2.09.74-2.41 1.94-.04.18-.09.4-.09.65v1.57zM247.76 91.47c.04 2.14 1.4 3.03 2.99 3.03 1.13 0 1.82-.2 2.41-.45l.27 1.13c-.56.25-1.51.54-2.9.54-2.68 0-4.29-1.76-4.29-4.39s1.55-4.7 4.09-4.7c2.84 0 3.6 2.5 3.6 4.11 0 .32-.04.58-.05.74h-6.12zm4.65-1.13c.02-1.01-.41-2.58-2.2-2.58-1.6 0-2.3 1.48-2.43 2.58h4.63zM257.81 84.32v2.5h2.27v1.21h-2.27v4.7c0 1.08.31 1.69 1.19 1.69.41 0 .72-.05.92-.11l.07 1.19c-.31.13-.79.22-1.4.22-.74 0-1.33-.23-1.71-.67-.45-.47-.61-1.24-.61-2.27v-4.75h-1.35v-1.21h1.35v-2.09l1.54-.41zM266.68 95.54l-.13-1.1h-.05c-.49.68-1.42 1.3-2.67 1.3-1.76 0-2.67-1.24-2.67-2.5 0-2.11 1.87-3.26 5.24-3.24v-.18c0-.72-.2-2.02-1.98-2.02-.81 0-1.66.25-2.27.65l-.36-1.04c.72-.47 1.76-.77 2.86-.77 2.67 0 3.31 1.82 3.31 3.57v3.26c0 .76.04 1.5.14 2.09h-1.42zm-.23-4.45c-1.73-.04-3.69.27-3.69 1.96 0 1.03.68 1.51 1.49 1.51 1.13 0 1.85-.72 2.11-1.46.05-.16.09-.34.09-.5v-1.51zM270.53 89.19c0-.9-.02-1.64-.07-2.36h1.41l.09 1.44h.04c.43-.83 1.44-1.64 2.88-1.64 1.21 0 3.08.72 3.08 3.71v5.2h-1.58v-5.02c0-1.4-.52-2.58-2.02-2.58-1.04 0-1.85.74-2.12 1.62-.07.2-.11.47-.11.74v5.24h-1.58v-6.35zM284.39 83.55c.76-.13 1.75-.23 3.01-.23 1.55 0 2.68.36 3.4 1.01.67.58 1.06 1.46 1.06 2.54 0 1.1-.32 1.96-.94 2.59-.83.88-2.18 1.33-3.71 1.33-.47 0-.9-.02-1.26-.11v4.86h-1.57V83.55zm1.57 5.85c.34.09.77.13 1.3.13 1.89 0 3.04-.92 3.04-2.59 0-1.6-1.13-2.38-2.86-2.38-.68 0-1.21.05-1.48.13v4.71zM293.83 82.76h1.58v12.78h-1.58V82.76zM302.9 95.54l-.13-1.1h-.05c-.49.68-1.42 1.3-2.67 1.3-1.76 0-2.67-1.24-2.67-2.5 0-2.11 1.87-3.26 5.24-3.24v-.18c0-.72-.2-2.02-1.98-2.02-.81 0-1.66.25-2.27.65l-.36-1.04c.72-.47 1.76-.77 2.86-.77 2.67 0 3.31 1.82 3.31 3.57v3.26c0 .76.04 1.5.14 2.09h-1.42zm-.23-4.45c-1.73-.04-3.69.27-3.69 1.96 0 1.03.68 1.51 1.49 1.51 1.13 0 1.85-.72 2.11-1.46.05-.16.09-.34.09-.5v-1.51zM308.59 84.32v2.5h2.27v1.21h-2.27v4.7c0 1.08.31 1.69 1.19 1.69.41 0 .72-.05.92-.11l.07 1.19c-.31.13-.79.22-1.4.22-.74 0-1.33-.23-1.71-.67-.45-.47-.61-1.24-.61-2.27v-4.75h-1.35v-1.21h1.35v-2.09l1.54-.41zM313.41 91.47c.04 2.14 1.4 3.03 2.99 3.03 1.13 0 1.82-.2 2.41-.45l.27 1.13c-.56.25-1.51.54-2.9.54-2.68 0-4.29-1.76-4.29-4.39s1.55-4.7 4.09-4.7c2.84 0 3.6 2.5 3.6 4.11 0 .32-.04.58-.05.74h-6.12zm4.64-1.13c.02-1.01-.41-2.58-2.2-2.58-1.6 0-2.3 1.48-2.43 2.58h4.63zM326.37 95.54l-.13-1.1h-.05c-.49.68-1.42 1.3-2.67 1.3-1.76 0-2.67-1.24-2.67-2.5 0-2.11 1.87-3.26 5.24-3.24v-.18c0-.72-.2-2.02-1.98-2.02-.81 0-1.66.25-2.27.65l-.36-1.04c.72-.47 1.76-.77 2.86-.77 2.67 0 3.31 1.82 3.31 3.57v3.26c0 .76.04 1.5.14 2.09h-1.42zm-.23-4.45c-1.73-.04-3.69.27-3.69 1.96 0 1.03.68 1.51 1.49 1.51 1.13 0 1.85-.72 2.11-1.46.05-.16.09-.34.09-.5v-1.51zM337.51 93.17c0 .9.02 1.69.07 2.38h-1.41l-.09-1.42h-.04c-.41.7-1.33 1.62-2.88 1.62-1.37 0-3.01-.76-3.01-3.82v-5.1h1.58v4.83c0 1.66.5 2.77 1.94 2.77 1.06 0 1.8-.74 2.09-1.44.09-.23.14-.52.14-.81v-5.35h1.58v6.34z"/>
        </g>
        <g>
            <path d="M448.63 276.6c.47.27 1.17.49 1.88.47 1.07-.03 1.67-.61 1.65-1.43-.02-.75-.46-1.17-1.57-1.56-1.33-.43-2.17-1.09-2.2-2.23-.04-1.26.98-2.22 2.55-2.27.83-.02 1.43.15 1.8.34l-.26.86c-.27-.14-.81-.36-1.55-.34-1.1.03-1.5.7-1.49 1.25.02.75.52 1.11 1.65 1.51 1.38.49 2.1 1.13 2.13 2.32.04 1.25-.86 2.35-2.76 2.41-.78.02-1.64-.18-2.08-.46l.25-.87zM454.45 269.19l1.05-.03.1 3.62h.02c.16-.3.42-.58.73-.76.31-.19.67-.32 1.07-.33.78-.02 2.04.42 2.1 2.42l.1 3.45-1.05.03-.09-3.33c-.03-.94-.4-1.72-1.39-1.69-.68.02-1.21.51-1.38 1.09-.06.15-.06.3-.06.51l.1 3.5-1.06.03-.24-8.51zM462.31 270.04c.02.36-.23.65-.65.67-.37.01-.64-.27-.65-.63-.01-.37.26-.67.64-.68.39-.01.65.27.66.64zm-.97 7.47l-.16-5.8 1.05-.03.16 5.8-1.05.03zM463.91 268.92l1.05-.03.24 8.51-1.06.03-.23-8.51zM466.74 268.84l1.05-.03.24 8.51-1.06.03-.23-8.51zM474.98 274.17c.06 2.15-1.4 3.12-2.8 3.16-1.57.04-2.81-1.07-2.87-2.91-.06-1.94 1.18-3.12 2.79-3.16 1.67-.04 2.83 1.14 2.88 2.91zm-4.6.19c.04 1.27.79 2.21 1.83 2.18 1.01-.03 1.74-1 1.7-2.3-.03-.98-.55-2.22-1.8-2.18s-1.76 1.2-1.73 2.3zM476.28 272.85c-.02-.6-.04-1.09-.09-1.57l.94-.03.09.96h.02c.27-.56.93-1.12 1.89-1.15.8-.02 2.06.42 2.12 2.41l.1 3.46-1.05.03-.09-3.34c-.03-.94-.4-1.7-1.39-1.68-.7.02-1.22.53-1.38 1.12-.04.13-.06.31-.06.49l.1 3.49-1.06.03-.14-4.22zM487.89 270.95c-.01.42-.02.89 0 1.6l.1 3.37c.04 1.33-.2 2.15-.75 2.67-.55.54-1.36.73-2.09.76-.7.02-1.47-.13-1.94-.43l.24-.81c.39.23 1 .43 1.72.41 1.08-.03 1.85-.62 1.81-2.08l-.02-.65h-.02c-.31.55-.92 1-1.82 1.02-1.44.04-2.5-1.15-2.55-2.76-.06-1.97 1.2-3.12 2.53-3.15 1.01-.03 1.57.48 1.84.96h.02l.02-.88.91-.03zm-1.03 2.32c0-.18-.02-.34-.07-.48-.21-.61-.74-1.1-1.51-1.07-1.01.03-1.7.9-1.66 2.24.03 1.14.63 2.07 1.77 2.04.65-.02 1.22-.44 1.43-1.12.05-.18.07-.39.07-.57l-.03-1.04zM492.11 268.65c.5-.1 1.16-.19 2-.21 1.03-.03 1.79.19 2.28.61.46.37.74.95.75 1.67.02.73-.18 1.31-.57 1.74-.53.6-1.43.93-2.44.96-.31.01-.6.01-.84-.05l.09 3.24-1.04.03-.23-7.99zm1.16 3.87c.23.05.52.07.87.06 1.26-.04 2.01-.67 1.98-1.78-.03-1.07-.8-1.56-1.95-1.53-.46.01-.8.06-.98.11l.08 3.14zM498.38 267.94l1.05-.03.24 8.51-1.06.03-.23-8.51zM504.67 276.28l-.1-.73h-.04c-.31.46-.92.89-1.75.91-1.17.03-1.8-.78-1.82-1.62-.04-1.4 1.19-2.21 3.43-2.26v-.12c-.01-.48-.17-1.34-1.36-1.31-.54.02-1.1.2-1.5.47l-.26-.69c.47-.33 1.16-.55 1.89-.57 1.77-.05 2.24 1.15 2.27 2.31l.06 2.17c.01.5.05.99.13 1.39l-.95.05zm-.24-2.95c-1.15.01-2.45.25-2.42 1.38.02.68.48.99 1.02.98.75-.02 1.22-.51 1.38-1.01.03-.11.05-.23.05-.34l-.03-1.01zM508.25 268.71l.05 1.67 1.51-.04.02.8-1.51.04.09 3.13c.02.72.24 1.12.82 1.1.28-.01.48-.05.61-.09l.07.79c-.2.09-.52.16-.93.17-.49.01-.89-.13-1.15-.41-.31-.3-.43-.82-.45-1.5l-.09-3.17-.9.03-.02-.8.9-.03-.04-1.39 1.02-.3zM511.6 273.38c.06 1.43.99 1.99 2.05 1.96.75-.02 1.21-.17 1.6-.34l.2.75c-.37.18-1 .39-1.92.41-1.79.05-2.89-1.09-2.94-2.85-.05-1.75.94-3.16 2.63-3.21 1.89-.05 2.45 1.6 2.48 2.67.01.22-.01.38-.02.49l-4.08.12zm3.07-.85c-.01-.67-.32-1.71-1.51-1.67-1.07.03-1.51 1.03-1.57 1.76l3.08-.09zM520.31 275.84l-.1-.73h-.04c-.31.46-.92.89-1.75.91-1.17.03-1.8-.78-1.82-1.62-.04-1.4 1.19-2.21 3.43-2.26v-.12c-.01-.48-.17-1.34-1.36-1.31-.54.02-1.1.2-1.5.47l-.26-.69c.47-.33 1.16-.55 1.89-.57 1.77-.05 2.24 1.15 2.27 2.31l.06 2.17c.01.5.05.99.13 1.39l-.95.05zm-.24-2.96c-1.15.01-2.45.25-2.42 1.38.02.68.48.99 1.02.98.76-.02 1.22-.51 1.38-1.01.03-.11.05-.23.05-.34l-.03-1.01zM527.69 274.05c.02.6.04 1.13.09 1.58l-.94.03-.09-.94h-.02c-.26.47-.86 1.1-1.89 1.13-.91.03-2.02-.45-2.07-2.48l-.1-3.39 1.05-.03.09 3.21c.03 1.1.39 1.84 1.35 1.81.71-.02 1.18-.52 1.36-1 .06-.16.09-.35.08-.54l-.1-3.56 1.06-.03.13 4.21z"/>
        </g>
        <g>
            <path d="M186.74 174.81l-.39 5.06 5.85.45.39-5.06 1.58.12-.94 12.1-1.58-.12.44-5.67-5.85-.45-.44 5.67-1.56-.12.94-12.1 1.56.12zM199.69 187.98l.67-8.69 1.58.12-.67 8.69-1.58-.12zm2.63-10.99c-.02.54-.45.94-1.08.89-.56-.04-.92-.5-.88-1.04.04-.56.49-.96 1.06-.91.6.05.94.51.9 1.06zM215.86 180.5c-.08.63-.18 1.32-.26 2.38l-.39 5.04c-.15 1.99-.64 3.18-1.55 3.87-.91.72-2.15.88-3.24.79-1.04-.08-2.17-.42-2.83-.94l.49-1.17c.55.4 1.42.8 2.5.88 1.62.12 2.87-.62 3.04-2.82l.08-.97h-.04c-.55.77-1.53 1.34-2.88 1.24-2.15-.17-3.56-2.12-3.37-4.52.23-2.94 2.28-4.46 4.27-4.31 1.51.12 2.27.97 2.59 1.72h.04l.17-1.3 1.38.11zm-1.9 3.3c.02-.27.02-.5-.03-.73-.22-.94-.93-1.75-2.08-1.84-1.51-.12-2.68 1.07-2.84 3.08-.13 1.71.62 3.19 2.32 3.32.97.08 1.9-.47 2.32-1.45.11-.26.17-.56.19-.83l.12-1.55zM222.52 176.93l1.58.12-.42 5.42h.04c.29-.43.71-.79 1.22-1.03.49-.23 1.06-.37 1.65-.32 1.17.09 2.98.95 2.75 3.95l-.4 5.17-1.58-.12.39-4.99c.11-1.4-.32-2.62-1.81-2.74-1.02-.08-1.89.58-2.24 1.42-.11.21-.14.44-.17.75l-.41 5.24-1.58-.12.98-12.75zM245.46 179.36l-.39 5.06 5.85.45.39-5.06 1.58.12-.94 12.1-1.58-.12.44-5.67-5.85-.45-.44 5.67-1.56-.12.94-12.1 1.56.12zM258.41 192.54l.67-8.69 1.58.12-.67 8.69-1.58-.12zm2.63-10.99c-.02.54-.45.94-1.08.89-.56-.04-.92-.5-.88-1.04.04-.56.49-.96 1.06-.91.6.04.94.5.9 1.06zM266.91 186.83c.07-.9.11-1.63.11-2.36l1.38.11-.04 1.4h.05c.55-.79 1.42-1.5 2.85-1.39 1.18.09 2.03.88 2.32 1.93h.04c.31-.46.68-.81 1.06-1.06.55-.35 1.14-.53 1.97-.46 1.15.09 2.8.98 2.56 3.99l-.4 5.12-1.54-.12.38-4.92c.13-1.67-.4-2.72-1.68-2.82-.9-.07-1.65.54-1.98 1.29-.09.21-.17.49-.19.78l-.42 5.37-1.54-.12.4-5.21c.11-1.38-.43-2.44-1.63-2.53-.99-.08-1.77.66-2.08 1.43-.11.23-.17.49-.19.76l-.41 5.24-1.54-.12.52-6.31zM290 194.99l-.04-1.11h-.05c-.54.65-1.52 1.18-2.76 1.09-1.76-.14-2.56-1.44-2.46-2.7.16-2.1 2.12-3.1 5.47-2.83l.01-.18c.06-.72-.04-2.03-1.82-2.16-.81-.06-1.67.12-2.31.47l-.28-1.07c.75-.41 1.82-.64 2.91-.55 2.66.21 3.16 2.07 3.03 3.81l-.25 3.25c-.06.76-.08 1.49-.02 2.09l-1.43-.11zm.11-4.45c-1.72-.17-3.7-.02-3.83 1.67-.08 1.02.56 1.56 1.37 1.62 1.13.09 1.91-.57 2.21-1.29.07-.16.12-.33.13-.5l.12-1.5zM298.63 182.84l1.58.12-.99 12.75-1.58-.12.99-12.75zM310.49 196.59l-.04-1.11h-.05c-.54.64-1.52 1.18-2.76 1.09-1.76-.14-2.56-1.44-2.46-2.7.16-2.1 2.12-3.1 5.47-2.83l.01-.18c.06-.72-.04-2.03-1.82-2.16-.81-.06-1.67.12-2.31.47l-.28-1.07c.75-.41 1.82-.64 2.91-.55 2.66.21 3.16 2.07 3.03 3.81l-.25 3.25c-.06.75-.08 1.49-.02 2.09l-1.43-.11zm.11-4.46c-1.72-.17-3.7-.02-3.83 1.67-.08 1.02.56 1.56 1.37 1.62 1.13.09 1.91-.57 2.21-1.29.07-.16.12-.33.13-.5l.12-1.5zM319.39 188.53l1.5 5.28c.15.59.32 1.29.42 1.82h.04c.2-.51.43-1.16.7-1.77l2.12-4.96 1.67.13-2.85 6.01c-1.36 2.89-2.25 4.36-3.4 5.21-.82.62-1.62.83-2.02.87l-.29-1.36c.4-.09.94-.31 1.44-.67.46-.31 1.04-.88 1.46-1.65.08-.16.15-.28.15-.37.01-.09-.02-.22-.08-.42l-2.59-8.25 1.73.13zM335.2 198.5l-.04-1.11h-.05c-.54.64-1.52 1.18-2.76 1.09-1.76-.14-2.56-1.44-2.46-2.7.16-2.1 2.12-3.1 5.47-2.83l.01-.18c.06-.72-.04-2.03-1.82-2.16-.81-.06-1.67.12-2.31.47l-.28-1.07c.75-.41 1.82-.64 2.92-.55 2.66.21 3.16 2.07 3.03 3.81l-.25 3.25c-.06.75-.08 1.49-.02 2.09l-1.44-.11zm.12-4.45c-1.72-.17-3.7-.02-3.83 1.67-.08 1.02.56 1.56 1.37 1.62 1.13.09 1.91-.57 2.21-1.29.07-.16.12-.33.13-.5l.12-1.5zM342.76 197.46c.44.34 1.24.73 2.03.79 1.15.09 1.73-.44 1.79-1.16.06-.75-.36-1.2-1.49-1.72-1.52-.68-2.19-1.6-2.11-2.64.11-1.4 1.33-2.46 3.2-2.32.88.07 1.63.38 2.09.71l-.48 1.12c-.32-.24-.93-.58-1.74-.64-.93-.07-1.5.43-1.55 1.07-.06.72.44 1.08 1.54 1.6 1.46.69 2.18 1.5 2.08 2.8-.12 1.53-1.39 2.51-3.45 2.35-.95-.07-1.81-.38-2.4-.78l.49-1.18z"/>
        </g>
    </g>
    <g id="Key_Map_Eastern_India_sections_svg__flags" class="Key_Map_Eastern_India_sections_svg__st7">
        <a xlink:href="eastern-india-geologic-maps#key-map">
            <path id="Key_Map_Eastern_India_sections_svg__map-5" class="Key_Map_Eastern_India_sections_svg__st8" d="M17.34 99.67h-1.52c-4.68-.01-8.49 3.77-8.5 8.46v.73a8.378 8.378 0 0 0 8.36 8.4l15.8.04.05-17.59-14.19-.04"/>
        </a>
        <a xlink:href="western-india-geologic-maps#key-map">
            <path id="Key_Map_Eastern_India_sections_svg__west" class="Key_Map_Eastern_India_sections_svg__st8" d="M-209.66 17.67h-1.52c-4.68-.01-8.49 3.77-8.5 8.46v.73a8.378 8.378 0 0 0 8.36 8.4l15.8.04.05-17.59-14.19-.04"/>
        </a>
        <a xlink:href="kashmir-geologic-maps#key-map">
            <path id="Key_Map_Eastern_India_sections_svg__map-1" class="Key_Map_Eastern_India_sections_svg__st8" d="M-101.13-66.42l1.52.01c4.68.02 8.46 3.84 8.44 8.52v.73c-.02 4.63-3.79 8.36-8.42 8.34l-15.8-.08.09-17.59 14.17.07"/>
        </a>
    </g>
    <g id="Key_Map_Eastern_India_sections_svg__blowups" class="Key_Map_Eastern_India_sections_svg__st7">
        <path id="Key_Map_Eastern_India_sections_svg__peshawar" class="Key_Map_Eastern_India_sections_svg__st9" d="M574.17 317.11H51.15c-9.9 0-18-8.1-18-18V92.6c0-9.9 8.1-18 18-18h523.02c9.9 0 18 8.1 18 18v206.51c0 9.9-8.1 18-18 18z"/>
        <path id="Key_Map_Eastern_India_sections_svg__peshawar_1_" class="Key_Map_Eastern_India_sections_svg__st9" d="M-53.83 109.11h-124.02c-9.9 0-18-8.1-18-18V-6.4c0-9.9 8.1-18 18-18h124.02c9.9 0 18 8.1 18 18v97.51c0 9.9-8.1 18-18 18z"/>
        <path id="Key_Map_Eastern_India_sections_svg__kashmir" class="Key_Map_Eastern_India_sections_svg__st9" d="M-134-30h-38c-9.9 0-18-8.1-18-18v-23c0-9.9 8.1-18 18-18h38c9.9 0 18 8.1 18 18v23c0 9.9-8.1 18-18 18z"/>
    </g>
    <path class="Key_Map_Eastern_India_sections_svg__st5" d="M49 34h552v308H49z" id="Key_Map_Eastern_India_sections_svg__box"/>
    <g id="Key_Map_Eastern_India_sections_svg__sections">
        <a xlink:href="#Key_Map_Eastern_India_sections_svg__a">
            <circle id="Key_Map_Eastern_India_sections_svg__kameng" onclick="navTo('a')" class="Key_Map_Eastern_India_sections_svg__hoverthing_x0020_2" cx="501" cy="220" r="6"/>
        </a>
    </g>
</svg>
