<svg xmlns="http://www.w3.org/2000/svg" xmlns:xlink="http://www.w3.org/1999/xlink" viewBox="0 0 764 628.69" style="enable-background:new 0 0 764 628.69">
    <style>
        .Peshawar_Map_svg__Arched_x0020_Green{fill:url(#Peshawar_Map_svg__SVGID_1_);stroke:#fff;stroke-width:.25;stroke-miterlimit:1}.Peshawar_Map_svg__hoverthing7{opacity:.8;fill:#079247}.Peshawar_Map_svg__hoverthing5{opacity:.8;fill:#f15a26}.Peshawar_Map_svg__st0{display:none}.Peshawar_Map_svg__st1{fill:#fcf8c1}.Peshawar_Map_svg__st2{fill:none}.Peshawar_Map_svg__st3{fill:#f9ed32;stroke:#000;stroke-width:.5}.Peshawar_Map_svg__st4{fill:#d1bd40}.Peshawar_Map_svg__st5{fill:none}.Peshawar_Map_svg__st5,.Peshawar_Map_svg__st6{stroke:#000}.Peshawar_Map_svg__st7{fill:#333}.Peshawar_Map_svg__st8{fill:none;stroke:#000;stroke-width:2;stroke-miterlimit:10}.Peshawar_Map_svg__st9{fill:none;stroke:#4bace0}.Peshawar_Map_svg__st10{fill:#736357}.Peshawar_Map_svg__st11,.Peshawar_Map_svg__st12,.Peshawar_Map_svg__st13,.Peshawar_Map_svg__st14{fill:#4bace0;stroke:#4bace0;stroke-width:2}.Peshawar_Map_svg__st12,.Peshawar_Map_svg__st13,.Peshawar_Map_svg__st14{fill:none}.Peshawar_Map_svg__st13,.Peshawar_Map_svg__st14{stroke:#009247;stroke-miterlimit:10}.Peshawar_Map_svg__st14{stroke:#f15a26}
    </style>
    <linearGradient id="Peshawar_Map_svg__SVGID_1_" gradientUnits="userSpaceOnUse" x1="107.806" y1="749.943" x2="108.514" y2="749.236">
        <stop offset="0" style="stop-color:#20ac4b"/>
        <stop offset=".983" style="stop-color:#19361a"/>
    </linearGradient>
    <g id="Peshawar_Map_svg__BAsin_OUtline">
        <path class="Peshawar_Map_svg__st1" d="M646.48 367.98c1.38-2.24 3.25-3.98 6.2-4.33.11-.44.1-.96.01-1.4-.18-.04-.37-.08-.55-.11-1.25-1.95-5.96-2.31-8.05-3.35-2.57-1.28-5.44-2.44-5.82-5.64-.48-4.01-.25-7.9 2.04-10.62 2.81-3.35 5.59-4.42 8.83-6.56 4.21-2.78 6-7.38 9.48-10.86 1.34-1.33 5.42-3.38 5.6-5.44.18-2.1-2.88-3.17-3.38-5.07-2.84-.9-6-4.31-8.41-4.52-2.28-.2-4.81 2.49-6.52 3.65-3.56 2.42-11.19 4.94-14.57 1.73-1.14-1.09-2.25-3.85-3.25-5.19-2.2-2.94-2.74-2.04-6.13-.84-3.21 1.14-6.09.97-9.64 1.21-3.08.21-3.66.82-5.71 2.95-3.62 3.77-7.64 4.26-11.16.08-1.75-2.07-2.29-3.25-4.82-4.61-2.25-1.21-4.4-2.59-6.57-3.31-1.72-.57-5.88-1.25-7.93-.56-1.93.65-3.21 3.04-4.72 4.53-1.65 1.64-3.72 3.34-5.57 5.06-2.03 1.88-4.63 2.51-6.57 4.29-1.75 1.6-2.19 3.81-4.5 4.85-2.91 1.31-5.61.13-8.42-.38 1.32-3.28.69-5.9 4.49-7.55 1.75-.76 3.46-1.02 5.04-1.82 1.49-.76 2.93-2.34 4.59-2.88 2.83-.91 2.83.08 4.61-2.4.94-1.32 2.1-3.08 2.73-4.52.71-1.62.17-3.04 2.03-4 1.48-.76 4.53.98 5.81-.2 2.41-2.22-4.46-7.75-6.04-8.9-1.67-1.2-3.63-2.31-5.43-3.32-2.2-1.23-4.49-1.12-6.72-2.26-4.31-2.22-4.95-5.54-6.85-9.5-1.77-3.67-1.77-5.49-.56-9.37.85-2.71 1.74-4.94-1.61-6.19-2.56-.96-3.97.1-6.22-2.56-1.44-1.71-2.6-4.07-2.84-6.31-.34-3.14.45-7.86-2.79-9.7-2.87-1.63-3.08.53-3.51-3.06-.29-2.42.47-5.53 1.41-7.74 1.13-2.65 3.73-5.61 3.06-8.63-2.59-.48-7.05 3.23-8.61 4.99-.77.87-1.44 3.15-2.54 3.57-.55.21-3.27-.91-3.24-1.13.28-2.05 3.21-2.45 2.37-5.69-.4-1.55-2.31-3.24-3.55-4.22-2.16-1.71-2.77-1.86-3.1-4.81-.21-1.91.93-5.18-1.76-5.48-.03-.17-.07-.33-.1-.5-.28-.09-.52-.02-.81-.09-.04-1.53.69-2.8-.41-4.12-.82-.99-3.15-.43-3.85-1.59-.81-1.34.57-2.98.83-4.28.19-.91 1.19-8.23 1.52-8.33-3.82 1.16-14.37 4.36-17.1-.7-1.93-3.58-8.85.12-10.67 1.8-3.57 3.28-6.73 3.1-11.27 3.33-2.81.14-8.6.44-10.31 3.14-1.19 1.88.37 4.59-.36 6.57-1.4 3.84-8.21 2.87-11.72 3.05-.4 1.83.7 4.21 1.2 5.93 2.11 1.27 3.9 3.08 6.04 4.51 2.3 1.53 5.54 1.52 8.09 2.46s4.08 2.85 6.32 4.32c1.33.87 3.1.92 4.22 2.1 2.98 3.15 1.62 10.55-2.99 11.39-5.13.94-7.89-1.46-11.17-4.54-4.03-3.78-7.23-.93-12.36-.6-5.4.35-11.07-1.14-16.29-.31-2.22.35-3.25 1.83-5.1 2.65-2.41 1.06-5.02.48-7.55.35-6.05-.29-9.87.82-14.72 3.99-.29.97-1.59 2.82-2.68 3.35-1.73.84-5-.14-6.12-1.58-1.48-1.91-.78-4.27 0-6.35 2.09-5.63 6.24-5.91 11.91-7 5.79-1.12 11.24-1.96 16.81-3.77 3.25-1.06 10.81-2.58 12.01-6.69.86-2.93-1.9-3.13-3.33-4.77-3.48-4.01 2.22-7.51 6.02-9.49 2.31-1.2 4.85-1.28 6.96-2.88.91-.69 3.8-3.34 3.91-4.27.27-2.24-3.12-2.83-1.75-4.76 1.88-2.65 6.47-1.08 9.2-1.66 2.48-.53 8.16-3.44 8.78-6.3 1.1-5.1 3.17-5.61 7.89-7.18 2.39-.8 2.18-.83 3.61-3.03 1.13-1.74 1.77-2.87 3.63-3.84 1.58-.82 3.01-.57 4.19-2.11-3.92-.26-7.32-.87-11.24-1.26-2.56-.25-7.09.2-9.18-1.52-1.95-1.61-2.35-5.41-4.22-7.3-1.85-1.87-3.72-4.36-5.89-3.94-.49.1-1.85 1.62-3.23 1.83-1.17.18-2.43.07-3.62.07-2.45 0-5.45-.49-7.84 0-3.93.8-9.72 4.27-12.74 6.86-3.78 3.24-6.22 6.96-11.68 6.1-5.13-.81-9.88-.81-14.49-3.28-1.68 1.98-2.81 2.91-5.41 2.99-3.09.09-2.71-1.26-4.9-2.35-4.42-2.22-6.34 4.16-8.75 6.79-2.36 2.57-6.22 5.39-9.87 5.81-3.38.39-6.4-.03-9.4 1.83-2.89 1.79-5.15 4.11-8.35 5.56-4.73 2.15-10.4-.01-15.26 2.61-4.52 2.44-9.3 1.95-14.69 1.65-.11-2.52 3.92-5.12 6.09-5.57 1.83-.38 3.41.06 5.22-.67 1.55-.62 2.55-1.95 3.99-2.64 2.49-1.19 5.26.33 7.96.34 3.55.01 5.11-1.89 7.77-3.9 4.04-3.05 10.72-4.69 13.85-8.59.99-1.23.99-2.47.95-3.97-.05-1.76.49-3.18.73-4.88.44-3.12 1.8-6.01 3.85-8.38 2.07-2.4 4.67-2.72 6.88-4.5 2.18-1.74 4.72-4.06 7.2-6.05 3.46-2.77 9.98-6.08 11.62-10.4.79-2.09.61-4.16 1.8-6.04 2.93-4.64 5.58-5.78 5.31-11.78-2.45-.19-2.06-1.74-3.27-2.77-1.24-1.05-2.04-.95-3.63-1.87-2.09-1.21-3.66-4.54-4.88-6.51-3.62-.22-8.53.24-11.64-1.62-1.55-.93-1.68-2.68-3-3.93-1.14-1.08-2.75-1.01-3.93-2.12-2.54-2.39-1.91-8.98-5.48-10.49-2.96-1.25-4.95.38-5.74 2.42-.73 1.89-1.29 6.26-4.23 4.22-3.92-2.72-1.53-11.21.24-14.17.85-1.42 2.52-4.91.97-6.63-1.2-1.33-7.37-.38-9.6-.26-.09 3.79 2.82 12.79-2.71 13.88-.51 1.24-1.48 1.53-2.23 2.59-.62.88-.77 2.49-1.36 3.16-2.28 2.63-8.01.83-9.61 3.94-1.67 3.25 2.92 7.39 1.98 10.15-.6 1.75-5.03 1.72-7 2.93-1.41.86-2.09 1.88-3.79 2.27-1.54.36-2.79-.6-4.29-.38-1.93.29-3.02 2.51-2.46 4.28.77 2.45 3.84 2.66 5.89 3.34 1.34.45 4.48.48 5.74 1.61 2.4 2.16-.53 6.62-2.83 7.84-2.92 1.55-4.6-.05-5.81 4.03-.55 1.87.34 2.96-2.06 2.97-.57 0-3.28-1.83-3.54-2.36-1.99-3.98 6.41-8.24 7.11-12.14.42-2.32-1-3.75-1.43-5.97-.41-2.12-1.01-4.56-1.21-6.63-.69-6.9 6.31-17.56-4.5-18.82-5.88-.68-12.63 2.97-17.71 5.54-.96.48-1.78 1.5-2.86 1.67-.43.07-4.26-.71-4.11-1.03-1.45 3.02-.12 5.01 2.1 6.85 1.85 1.53 3.82 2.66 5.37 4.58.77.95 1.04 2.06 1.86 2.97 4.49.57 2.06 7.84 1.39 10.61-.47 1.94-1.44 3.99-3.25 5.07-1.65.98-3.09 0-3.98 2.42-4.14-.18-7.02-3.57-8.88-6.96.99-.93 1.81-2.22 2.66-2.95 1.06-.9 3.07-.98 3.86-1.8 1.11-1.16.89-3.01 2.12-4.39.93-1.05 2.44-1.43 3.53-2.02 2.65-1.45 4.87-2.17 3.4-5.41-1.43-3.14-3.91-4.44-6.89-5.11-.03-.17-.07-.33-.1-.5-2.87-1.54-6-3.01-9.17-2.71-1.15.11-2.77.17-3.71-.26-.49-.22-2.44-1.49-2.58-1.88-.12-.33.43-3.19.61-3.57.59-1.23 1.75-.86 3.11-.86 2.55 0 4.64.14 6.85-1 1.08-.56 1.41-1.23 2.17-2.12.61-.71 1.71-1.27 2.51-2.06.86-.86 1.27-1.52 2.31-2.14 1-.6 2.1-1.08 2.15-2.39.13-3.55-7.36-4.61-9.67-4.86-2.46-.27-5.02-1.09-7.49.12-2.52 1.23-8.58 7.43-11.52 3.74-1.23-1.54-.66-4.2-2.28-5.43-1.48-1.13-4.92-.42-6.85-.42-2.35-.01-3.43 2-5.29 2.99-1.76.94-3.9 1.18-5.84 1.72-2.41.67-5.43.57-7.67 1.59-1.15.52-2 .88-3.32 1.16-2.67.56-5.02 1.29-7.7 1.68-2.5.36-4.06 2.34-6.62 2.96-1.57.38-1.82.4-3.04 1.36-.51.4-2.83 1.45-2.05 2.54l.03.11c1.79.09 2.83.21 4.28.88 1.04.48 2.17.98 3.3 1.11 2.01.22 5.37-1.14 6.1 1.17.4 1.28-.12 2.16 1.57 2.43 2.26.35 4.9-1.09 7.17-1.28 1.69-.15 3.44-.4 5.11-.43 4.53-.07 5.32 5.38 8.75 6.63 1.55.56 3.46.52 5.08.37 1.33-.13 2.33-.77 3.71-.57 1.13.16 1.72 1.08 2.69 1.3 1.25 1.23 1.02 2.72 1.02 4.54 0 .94.16 2.14-.64 2.8-.79.65-2.69-.06-3.33.65-1.39 1.55-2.27 4.03-3.03 5.94-.61 1.54-.93 1.28-2.56 1.77-1.15.34-2.22 1.19-3.4 1.4-3.43.61-6.69-2.1-8.1-4.97-.98-2-2.46-4.17-2.26-6.49.24-2.72 2.54-3.03 4.84-3.16.9-.05 2 .06 2.85-.31 1.16-.51 1.49-2.11 2.38-2.6 2.35-1.31-3.17-5.84-4.99-4.85-.03.37-.26.47-.34.81-1.66-.31-3.48 1.81-4.18 3.01-.88 1.5-1.44 3.19-3.22 3.86-3.09 1.15-6.44-.25-9.56-.57-2.08-.22-4.55-1.6-6.82-.82-3.03 1.04.86 3.24 1.82 3.97 1.57 1.18 3.87 3.12 5.97 3.58.51 2.58 4.23 5.03.13 6.65-1.29.51-2.79.52-4.25.6-.83.05-1.66.08-2.25-.29-.56-.35-.64-1.02-1.15-1.3-.04-.13 0-.25-.04-.38-.17-.48-2.21-.74-2.65-.6-.83.25-1.79 1.44-1.9 2.29-.27 2.09 2.55 3.76.85 5.96-1.29 1.66-4.07-.44-5.67-.85-.93-1.67-1.75-1.75-3.45-2.54-1.36-.63-2.37-2.17-3.97-2.12-1.13 2.96-3.53 5.11-5.2 7.53-.63.91-.56 1.01-1.81 1.01-.82 0-1.75-.13-2.39-.47-.4-.21-.47-.77-.78-.94-.8-.45-1.97-.48-2.82-.91-.78-.4-1.31-.96-2.01-1.47-.82-.6-1.82-1.97-2.83-1.47-.21.81-.49 1.8-1.43 2-2.51 3.07-6.05 2.12-9.73 2.12-.91 0-1.78-.2-2.53-.29-1.23-.14-1.06.01-1.92.68-3.38 2.63-7.43.85-10.92 2.63-.84.43-1.43.9-2.46.68-.84-.18-1.33-.82-2.14-1.14-1.54-.6-3.49-.08-5.14 0-1.98.1-3.99-.08-5.97.02-.71 1.99-2.47 3.02-2.74 5.4-.27 2.42-2.33 3.93-4.16 5.43-2.06 1.69-4.49 1.89-6.54 3.46-1.48 1.13-3.58 2.97-3.03 5 .35 1.28 2.01 1.34 2.6 2.54.45.9-.11 2.49-.67 3.45-.94 1.62-2.27.92-4.01 1.25-3.02.58-5.23 3.77-6.02 6.67-.57 2.09-.94 3.91-1.14 6.17-.2 2.2.1 4.5-.14 6.71-.15 1.37-.48 1.59-1.86 1.71-1.42.12-3.05.03-4.39-.27-1.45 2.38-3.22 4.72-5.73 5.96-1.42.7-3.03.92-4.29 1.6-2.62 1.43-6.23 2.67-7.53 5.58-.74 1.65-.54 3.31-.88 5.01-.4 1.99-1.1 3.67-.98 5.77 2.64 1.13 5 1.87 7.8 2.9.31 2.32.47 4.51-.26 6.69-.64 1.92-1.86 4.14-2.83 6.13-.83 1.72-1.93 3.44-3.14 5.02-.6.78-.97 1.95-1.56 2.69-.69.86-1.63 1.33-2.36 2.24-1.4 1.76-1.61 3.87-3.96 4.57-1.49.44-6.03-.01-5.43 2.61.1.44.7.69.87 1.25.15.49.02 1.37-.01 1.89-.04.92.07 2.58-.85 3.15-1.08.66-3.8.05-5-.01-2.03-.09-6.34.14-6.85 2.57-.25 1.17-.57 2.06-1.18 3.11-1.13 1.96-3.7 2.75-5.96 2.6-2.43-.16-3.46-2.97-6.28-2.86-2.54.1-4.85.1-7.41-.27-3.68-.54-7.8-1.8-11.57-1.01-4.26.89-6.9 4.57-7.56 8.57-.35 2.11-2.57 2.62-2.89 4.99-.29 2.2 0 4.4.75 6.42 1.08 2.89 2.99 4.29 4.7 6.72.37.53 1.02 1.2.86 1.99-.24 1.17-1.39.83-2.3 1.28-1.23.6-3.25 2.45-1.56 3.58.74.5 1.99.17 2.58.99.89 1.25.06 3.32.17 4.71.09 1 .8 2.54.4 3.57-.36.93-1.26 1.01-1.29 2.14-.06 2.22 6.18 4.85 3.29 7.03-1.12.84-2.62.45-3.85 1.11-1.3.69-2.06 1.81-2.96 2.89-1.01 1.22-1.4 1.59-1.46 3.24-.06 1.71-.27 2.68-.83 4.29-.51 1.47-1.29 2.91-1.74 4.39-.41 1.35-.27 2.84-.43 4.27-.2 1.86-1.04 3.26-1.41 5.02-.41 1.9.3 3.87-.48 5.72-.51 1.22-1.37 1.95-1.55 3.39-.19 1.57-.04 3.15-.14 4.72-.31 5.09-.11 9.92-3.14 14.01-1.06 1.43-1.86 2.98-3.03 4.29-1.79 2.02-2.9 2.04-3.09 4.96-.37 5.67-1.34 12.04.03 17.58.72 2.92.39 6.12.37 9.11-.02 3.48-.09 6.97-.28 10.44-.44 8.24-.71 16.61-.71 24.84v21.78c0 2.64-.11 5.37.14 7.92.1 1.07-.17 3.23.43 4.1.46.67 1.92 1.07 2.63 1.47 1.19.66 2.15 1.22 2.46 2.67.5 2.31-1.29 2.95-1.98 4.63 1.71.15 2.05-.54 3.4-1.25 1.3-.68 2.92.12 4.33.01 1.31-.11 3.34-.88 4.55-.03.99.69 1.23 1.93.23 2.66.69.07 1.52.76 2.14.76.74 0 .82-.33 1.39-.61 1.28-.63 1.75-.55 3.18-.28 1.37.26 3.83-.42 5.04.14.32.15.51.78.88 1.02.5.33 1.64.54 2.24.66 1.21.23 2.07.14 3.12.86 1.8 1.22 3.28 2.2 5.62 2.44 2.05.21 5.14-.29 6.18 1.91.23.48.44 1.43.28 1.97-.05.17-.87 1.1-.9 1.02-.1 0-.1 0-.02-.01 1.03 0 1.78.02 2.68-.38 1.12-.5 1.49-.68 3-.63 1.13.03 2.53-.03 3.49.4.7.31 1.14 1.02 1.84 1.27-.27 1.99 2.53 3.47 4.18 3.54.17.8.09 1.54.51 2.25.76 1.27 2.52.59 3.17 1.74.54.96-.68 1.76-1.14 2.55-.66 1.13-.57 1.83-.64 3.14-.06 1.21-.33 1.05-.92 1.92-.5.72-.34 1.49-.81 2.19-2.32 3.42-6.71 2.75-10.09 2.01-2.92-.64-6.47-.91-9.43-.76.22 2.84 3.57 3.08 5.57 4.88 1.57 1.42 4.28 3.69 4.36 5.84-1.38.51-6.07 3.18-5.31 4.58.84 1.55 4.47 1.02 5.83 1.75 2.2 1.18 2.78 2.78 4.71 4.36 4.36 3.57 8.7 7.13 14.41 8.38 5.5 1.21 12.81-.49 18.07-1.33 5.53-.89 9.5-3.22 15.33-2.05 5.85 1.18 8.75 2.07 15.17.54 11.53-2.75 23.43-2.49 34.7-5.99 9.47-2.93 20.94-6.16 29.3-11.39 4.76-2.98 6.82-8.62-1.08-7.25.38-2.77-1.53-9.51-3.55-11.21-2.55-2.16-8.81-1.49-11.96-1.49-1.39 0-2.57-.05-3.76.53-3.01 1.47-5.94 2.95-8.99 4.4-3.08 1.47-4.91 3.34-7.29 5.72-2.17 2.16-5 4.49-8.28 3.67-2.4-.6-4.7-2.22-7.08-3.05-1.12-.39-2-.47-1.77-1.94.19-1.2 1.23-1.71 2.21-2.09 1.64-.65 2.7-1.13 3.98-2.45.58-.59 1.52-1.39 2.31-1.59.79-.2 1.6.04 2.37-.25.85-.32 1.61-1.23 2.41-1.77.91-.62 1.67-.6 2.65-.94 1.09-.37 1.86-1.34 2.95-1.67.94-.29 1.84-.19 2.8-.67 2.28-1.14 4.6-1.84 7.17-1.93 2.72-.1 4.61.69 6.62 2.18 4.21 3.13 9.93 3.78 15.23 4.81 2.2.43 4.43 1.01 6.7 1.1 2.12.08 2.78-.72 4.2-2.16 1.2-1.22.86-1.62.57-3.12-.54-2.72.67-7.96 3.58-9.1 1.47-.58 2.86-.96 4.4-1.17 1.01-.13 2.05-.23 3.06-.38 1.12-.17 2.13-.78 3.16-1.42 2.95-1.83 5.93-4.01 9.36-4.4 2-.23 5.68.65 6.45-1.52.56-1.56-.78-6.26.88-6.83 1.56-.53 3.56 1.03 5.32.41 1.52-.54 1.92-2.53 3.29-3.32 1.59-.92 4.59.06 6.41.13 1.82.07 2.16-.26 3.44-1.17 1.13-.8 1.93-.9 1.77-2.56-.15-1.48-1.37-2.75-.52-4.14 1.39-2.26 5.32-1.4 6.59-3.64.89-1.57-.25-3.82.4-5.42 1-2.48 7.19-5.07 9.58-4.05 1.21-.91 1.57-.93 3.16-.97 1.22-.04 2.46-.06 3.66-.32 2.46-.52 4.61-1.56 7.04-1.82 2.02-.21 6.69-1.41 8.56-.35.5.29.53.9 1.09 1.18.65.32 2.04.29 2.77.23.1-1.2-1.03-1.9.04-2.76 1.02-.81 3.3-.32 4.52-.38 1.43-.07 2.86-.35 4.29-.51 1.48-.16 2.28-1.27 3.55-1.79 1.92-.79 4-.66 5.99-1.08 2.42-.52 5.17-2.51 6.45-4.48 1.62-2.5 4.8-3.51 7.64-3.9 1.02-.14 3.08.21 4-.18 3.35-1.41 3.16-3.7 7.17-3.94 2.75-.16 5.47.58 8.05.51.99-.02 1.29.37 2.31-.22.42-.25 1.5-2.13 1.53-2.13.17-.03.33-.07.5-.1.37-1.3 1.3-2.41 2.18-3.5 6.7-8.34 18.95-5.96 28.63-5.5 5.96.29 7.98 3.47 12.66 6.11 3.32 1.87 7.28 2.29 10.49 4.2 1.78 1.06 3.83 3.71 6.05 4.21 2.38.54 3.05 8.32 4.01 10.26 1.76 3.56 5.62 5.71 9.32 6.63 2.52.63 4.35 2.16 6.61 3.27 2.74 1.34 5.81 1.35 8.61 2.31 2.75.94 5.06 2.58 8 3.1 2.7.48 5.07.79 7.83.91 3.16.14 6.03.82 8.76 2.11 2.64 1.25 2.56 2.07 1.57 4.89-.86 2.44-2.2 3.68-3.68 5.43-1.37 1.62-2.21 4.33-3.7 5.89-10.61 11.12-33.56 4.7-46.48 3.07-9.3-1.18-18.33-.48-27.67-1.37-17.77-1.69-38.69-6.09-55.42 2.4-10.01 5.08-17.31 9.19-29.51 9.19-5.83 0-10.8.05-15.25 2.02-3.01 1.33-6.16 2.33-9.12 3.77-2.79 1.36-5.08 3.74-7.58 5.64-.94.71-4.66 1.33-4.29 2.7 2.5-.12 5.37.37 7.81.86 4.95 1.01 9.95 1.59 14.88 2.75 4.72 1.12 9.15 2.63 13.97 3.32 3.4.49 6.8 1 10.2 1.37 4.47.48 8.58 1.71 12.92 2.71 4.45 1.02 9.02 1.45 13.57 1.64 9.59.41 19.49 1.08 29.05.47 2.89-.18 6.17.87 8.99 1.61 19.22 5.03 35.27 17.32 46.21 33.78 3.63 5.46 8.06 9.79 14.43 11.75 3.26 1 6.41 1.28 9.46 2.75 3.24 1.57 6.95 1.42 10.11 2.91 1.31.62 2.73 1.32 4.15 1.73 3.25.94 6.72.78 10.06.69 3.09-.08 5.54 1.33 8.51 2.17 5.55 1.57 11.53 1.64 17.24 1.92 4.9.24 10.27-.38 15.1.44 1.5.25 2.89.72 4.28 1.16 1.54.49 3.04.55 4.8.81 5.65.83 11.25 1.95 16.63 3.85 4.54 1.61 9.74 3.71 12.68 7.74 11.8-.49 23.81 5.72 33.87 10.93 10.06 5.21 23.96 7.17 31.5 14.5 5.18 5.03 6.26 7.28 14.01 7.35 10.95.1 20.82-.69 31.22-4.16 13.77-4.59 25.46-4.71 40.52-5.24.7-14.14.75-28.05.77-42.08.02-16.2-4.17-28.51-14.94-40.6-3.55-3.98-7.73-7.19-11.47-10.97-2.73-2.77-5.51-6.09-8.88-8.09-2.05-1.21-3.98-.48-6.3-.22-4.9.55-8.45 4.12-12 7.21-2.19 1.91-4.43 3.14-7.35 2.37-2.04-.54-3.73-1.29-5.92-1.27-3.02.03-6.07.38-9.11.38-5.73 0-11.35-1.1-16.99-2.02-5.47-.9-11.67-.31-16.88-2.31-1.68-.65-4.08-1.5-4.41-3.38-.51-2.87 2.35-3.69 4.62-3.93 3.13-.33 7.01-1.17 10.04.01 1.74.68 2.94.39 4.56-.12 2.35-.73 4.77.1 7.08-.51 2.49-.66 4.84.3 7.33.64 1.78.25 3.53.37 5.34.37 1.74 0 3.49.03 5.23 0 1.69-.03 3.08-.79 4.61-1.49 3.52-1.6 7.16-3.89 9.83-6.74 1.15-1.23 2.46-3.04 2.77-4.7.96-5.1-6.3-7.59-10.13-8.81-1.99-.63-4.62-1.21-5.01-3.55-.23-1.37-.02-2.99.51-4.21.78-1.78 2.17-3.72 3.88-4.72 2.07-1.22 4.56-1.11 6.75-1.97 5.18-2.04 7.48-5.93 10.38-10.19 2.93-4.29 8.06-8.32 12.19-11.57 1.85-1.46 4.28-3.63 6.27-4.67 11.12-5.79 22.94-13.86 31.31-23.78 6.31-7.48 14.25-14.14 20.78-21.55 8.23-9.36-.97-18.81-5.92-26.76-4.77-.3-7.04 2.79-10.75 5.43-5.12 3.64-9.32 8.07-13.65 12.69-4.05 4.32-8.31 8.35-12.3 12.63-4.59 4.93-10.53 11.12-12.58 17.56-1.59 4.98-3.87 10.76-7.71 14.6-3.8 3.8-8.96 6.86-13.35 9.56-4.79 2.95-6.86 7.84-12.13 10.03-2.27.94-4.4 1.55-6.78 2.43-2.49.92-3.61 3.03-5.75 3.9-.43 1.79-1.83 3.31-2.17 5.07-.37 1.89.76 4.69-1.27 5.99-2.09 1.35-9.91-.36-12.29-.85-2.71-.56-3.61-3.1-6.01-3.94-2.37-.83-5.73.39-7.27 1.83-3.71 3.46-5.88 6.05-11.44 6.32-2.87.14-5.79.67-5.37-2.95.26-2.22 2.4-4.7 3.32-6.7 3.88-8.35 8.71-16.36 15.59-22.66 4.85-4.44 12.07-5.74 16.38-10.82 3.22-3.79 3.81-8.39 5.94-12.66 1.41-2.84 4.26-5.53 4.49-8.85.11-1.62-.95-3.04-.33-4.56.6-1.48 2.92-2.26 3.92-3.47 1.67-2.02 2.95-4.99 4.08-7.48 1.14-2.49 2.07-5.62 3.61-8.12z"/>
        <path class="Peshawar_Map_svg__st2" d="M160.71 140.57c.23-.03.46-.04.69-.02.57 1.99 1.29 3.9 1.5 5.99.17 1.74-.27 3.43.24 5.11"/>
    </g>
    <g id="Peshawar_Map_svg__plio_Pleis">
        <path class="Peshawar_Map_svg__st3" d="M150.81 483.94c-2.07-14.61 10.37-7.71 19-9.95 3.94-1.02 5-3.92 8.75-5.3 3.59-1.32 7.01-1.01 11.01-1.98 6.96-1.69 14.23-5.83 20.98-8.04 3.43-1.13 8.22-.29 11.34-2.63 2.66-2 3.9-8.93 6.18-11.82 5.47-6.94 10.28-7.42 15.28-14.32 5.66-7.82 10.32-9.27 18.74-13.7 3.43-1.8 5.16-4.11 9-5.03 6.48-1.55 15.1 3.88 20.77 1.85 8.36-3 7.53-16.39 17.93-18.09 5.92-.97 17.69 7.02 21.2-1.81 8.73-.5 18.13 1.01 26.83-.17 8.37-1.14 16.34-4.01 25-5 4.81-.55 10.86-3.62 16.33-.78 4.94 2.57 2.81 4.62 6.4 7.83 5.52 4.92 10.49 7.54 15.82 13-54.04-.74-105.45 25.64-156.09 40.73-14.24 4.25-21.65 8.69-32.46 18-8.19 7.05-15.53 11.64-26 13.2-11.35 1.69-22.98.35-34.55 1.02-5.58.33-18.14 5.99-20.44 2M496.74 558.94c31.88.01 65.53 9.81 96.1 17.23 10.19 2.47 16.14 11.97 25.66 15.67 3.67 1.42 7.88.78 11.32 2.18 4.35 1.77 7.39 5.69 12 6.97 5.75 1.6 14.15-.11 19.78-1.27 13.57-2.79 27.12-1.69 40.88-1.6 7.44.04 30.23 3.1 35.59-3.96 3.29-4.35 1.42-11.94.99-16.83-.68-7.81.37-11.4 1.62-18.8 2.5-14.84-2.86-29.75-2.86-44.58v-.1c0-41.79-.69-83.58-2.32-125.34-.38-9.8-.33-19.79-1.32-29.55-.96-9.51-1.53-11.64-11.68-9.39-12.05 2.67-21.03 11.24-30.48 18.65-15.14 11.88-30.3 23.77-44.94 36.25-6.53 5.57-8.9 10.27-13.46 16.74-4.88 6.94-12.36 9.42-18.07 15.47-5.54 5.88-9.95 12.82-17.73 17.27-8.03 4.58-16.9 6.08-23.97 11.78-5.5 4.44-8.98 10.82-14.8 15.22-10.84 8.18-29.96-.42-44.22 1-8.09.81-15.92 1.7-24 3.02-10.21 1.67-13.84 4.77-22.03 10.7-7.11 5.15-23.41 11.19-27.77.28-4.7-11.74 8.93-18.76 17.65-21.15 3.12-18.27-81.46-24.8-95.05-26.08-15.01-1.41-34.83-3.49-49.82-.77-15.65 2.84-26.77 15.04-39.8 22.17-.53 9-1.95 16.86 7.05 21.57 9.03 4.73 21.61 4.27 31.2 6.03 24.32 4.48 49.74 5.8 72.58 14.95 8.18 3.28 18.21 5.23 26.02 9.25 6.38 3.29 11.36 10.15 16.74 15.25 5.76 5.47 11.33 10.19 17.02 14.97 8.28 6.97 16.43 6.26 27.22 6.8 8.24.42 16.61 0 24.9 0z"/>
    </g>
    <g id="Peshawar_Map_svg__bedrock">
        <path class="Peshawar_Map_svg__st4" d="M197.76 491.48c4.29-.07 8.57.16 12.83-.23 3.65-.34 6.9 1.49 10.56 1.72 4.5.29 9.06-.06 13.52-.27 4.09-.19 8.34-.45 12.35-1.07 6.36-.97 11.99-3.21 18.06-5.12 3.88-1.22 8-3.24 11.61-5.14 6.74-3.55 12.72-9.9 20.58-10.7 4.68-.48 8.7-2.01 12.87-3.52 3.78-1.37 8.16-.04 12.04-.27 4.39-.27 7.14-3.55 11.21-4.85 4.58-1.45 9.28-2.57 13.77-4.32 2.5-.97 5.02-.7 7.6-1.07 2.86-.41 5.66-1.02 8.59-1.21 6.42-.41 12.85-.16 19.27-.16 2.53 0 5.1-.22 7.59-.25 3.03-.03 5.9 1.12 8.87 1.54 4.93.7 9.78.69 14.69 1.47 5.39.86 10.88.72 16.31 1.25 4.09.4 8.43.99 12.46.47 3.69-.48 7.34.11 11.02-.25 3.49-.35 7.08-.66 10.42-1.81 3.68-1.26 4.62-3.04 7.25-5.5 1.02-.96 2.19-2.05 3.29-3 2.27-1.96 5.75-4.48 4.42-8.42-1.22-3.61-6.52-3.52-9.56-4.02-4.58-.75-9.89-.72-14.27-2.22-6.35-2.17-12.38-5.84-18.91-7.2-4-.83-6.81-4.31-9.15-7.4-1.22-1.61-1.9-2.67-2.35-4.6-.5-2.11-.68-4.03-2.25-5.69-2-2.1-4.78-4.34-7.53-5.07-3.29-.87-5.54-.68-8.29-3.04-5.33-4.58-10.89-7.33-18.07-6.77-4.92.39-11.39-.22-16.04 1.71-5.22 2.17-7.15 8.51-12.24 10.61-5.5 2.27-11.93-1.45-17.31.9-9.46 4.15-18.09 10.33-28.31 12.58-6.8 1.5-13.29 4.74-20.37 4.98-4.42.15-8.86 0-13.28 0-5.29 0-10.14-1-13.33 3.3-2.16 2.92-3.55 7.44-5.85 9.87-1.41 1.5-2.62 1.15-3.7 3.3-.91 1.82-.6 3.83-.7 5.92-4.28 1.09-8.49 2-12.72 3.27-1.99.6-6.05.54-7.21 2.22-1.18 1.71.19 4.66-1.06 6.64-5.42.33-9.89 1.12-14.76 2.72-2.59.86-3.28 2.22-5.49 3.52-5.1 3.01-7.39 4.42-10.58 9.77-2.93 4.98-5.36 10.21-7.85 15.41z"/>
        <path class="Peshawar_Map_svg__st4" d="M335.65 492.53c-20.09-5.13-40.57-9.31-61.31-10.44-11.05-.6-22.2-.32-33.13 1.51-5.26.88-10.46 2.12-15.52 3.82-2.58.87-4.47 1.52-7.21 1.87-.74.09-8.67 1.01-8.67.99-.24 2.07-2.57 5.43-4.36 6.54-2.39 1.47-5.37 1.48-7.75 3.03-2.54 1.65-5.42 2.63-8.25 3.83-6.59 2.78-13.26 5.55-20.31 6.91-16.14 3.1-32.94.93-49.57 1.76-7.57.38-15.12.98-22.68 1.4-4.96.27-13.35 2.25-16.28-3.33-.75-1.44-1.38-2-2.69-2.85-1.09-.71-1.86-2.07-3.03-2.75-1.31-.76-4.07-.38-5.12-1.27-1.19-1.02-.09-2.19.93-2.92 2.2-1.58 2.96-3.44.36-5.44-1.58-1.22-2.34-1.74-3.2-3.51-.67-1.37-1.91-1.87-2.66-2.97 1.57-.02 3.11.62 4.67.51 1.18-.08 2.03-.41 3.28-.28 2.71.27 5.43.77 7.98-.54 2.97-1.52 2.45-5.49 4.02-8.07.81-1.32 2.11-2.68.97-4.12-.84-1.06-2.47-.87-3.56-1.59-3.76-2.49-3.57-9.32-9.71-8.6-1.47.17-2.79 1.25-4.2.45-.41-.23-.98-1.23-1.36-1.6-.89-.87-1.96-1.67-2.92-2.41-1.38-1.05-1.97-1-3.71-1.11-3.55-.22-6.28-2.29-9.4-3.68-1.68-.75-3.42-1.23-5.15-1.75-1.37-.41-2.45.08-4 .47-.73.18-1.4.47-2.23.33-1.3-.23-1.8-1.31-2.89-1.72-1.54-.59-3.34.32-5.11-.31-3.69-1.32-5.61-5.21-9.12-6.7.66.28.32 8.62.31 9.8-.03 3.73-.24 7.46-.37 11.19-.25 7.27-.16 14.39.92 21.59.36 2.42-.35 4.11-.57 6.45-.32 3.46-.44 7.18-.44 10.66 0 2.48-.29 5.09-.11 7.55.19 2.66.99 5.12.75 7.83-.23 2.63-1.03 5.14-1.28 7.67-.27 2.8-.29 5.85-.16 8.63.15 3.07.97 6.05 1.12 9.11.26 5.26-.16 10.62-.16 15.83 0 2.78.32 5.49.32 8.31 0 2.56-.3 5.43.35 7.8.1.36 14 .61 15.32.67 1.57.07 2.98-.3 4.48-.44 7.53-.74 15.18-.01 22.78-.36 8.33-.38 16.6-.64 25.01-.64 7.19 0 14.75-1.13 21.91-.45 2.87.27 5.18.44 8.13.12 3.75-.41 7.49-.84 11.24-1.3 4.97-.61 9.93-1.26 14.89-1.94 4.74-.65 9.16-1.95 13.85-1.26 1.91.28 4.25.35 6.17.19 3.15-.26 6.59-.29 9.7-.8 2.98-.49 6.24-.88 9.07-1.76 2.71-.85 5.75-1.08 8.47-2.07 2.48-.9 5.06-2.31 7.54-3.33 2.74-1.12 5.65-2.16 8-3.87 1.19-.86 2.43-2.17 3.81-2.81 1.78-.83 4.08-.95 6.03-1.34 3.08-.62 6.33-1.05 9.14-2.43 2.15-1.06 4.5-2.35 6.83-2.94 1.55-.39 3.07-.02 4.64-.21 2.38-.29 4.44-1.66 6.73-2.32 2.45-.7 5-.97 7.44-1.75 1.72-.55 3.04-1.62 4.7-2.33 2.06-.88 4.28-1.11 6.48-1.63 4.31-1.04 8.12-2.86 12.47-3.56 3.74-.6 7.35-1.42 10.76-2.84 7.17-2.99 13.13-6.96 21.13-7.69 1.69-.15 4.56-.71 6.24-.12 1.39.49 3.04 2.08 4.29 2.84 1.4.85 2.23 2.1 3.33 2.86 1.57 1.08 2.99 1.29 4.37 2.56 16.04 14.73 33.02 29.68 52.45 39.77 14.85 7.71 28.6 19.84 45.97 19.75 7.17-.04 14.35-3.34 20.78-5 9.39-2.43 17.91-.06 28 1 7.95.83 16.05 1.43 24.22 1 6.1-.32 11.62-3.34 17.63-3.93 6.61-.64 12.8 1.38 19.39 1.71 9.59.47 19.88-.4 28.95 1.25 10.66 1.93 19.66 6.78 30.02 7.97 8.29.95 17.67.32 26 0 17.92-.68 34.32-3.23 50.03-9 12.2-4.47 23.63-20 38.89-19.23-12.48-4.05-33.34-.32-46.14 2-19.29 3.5-38.54 3.81-57.9 2.38-2.27-.17-4.25-.54-6.42-1.25-2.58-.85-5.04-.77-7.51-2.05-1.23-.64-2.83-.78-4.13-1.28-1.46-.56-2.96-.94-4.52-1.09-3.08-.3-6.25-.96-9.12-1.84-2.18-.67-3.78-2.68-5.95-3.43-1.01-.35-1.97-.22-2.99-.47-1.35-.32-2.69-1.06-3.85-1.8-4.68-2.99-7.66-7.93-12.12-11.2-11.53-8.47-38.44-1.56-52.32-3.73-14.94-2.33-30.86-5.98-44.93-12-10.21-4.37-7.23-6.49-13-15.08-3.3-4.91-11.29-9.72-16.75-13.25-5.89-3.82-13.72-7.02-20.08-9.9-21.1-9.56-45.49-2.65-67.34-8.23zM187.53 121.2c-.66.07-1.33.13-2.1.01-.01-.5-.28-.74-.24-1.25-.9 1.14-2.71 2.87-4.06 3.37-1.48.55-3.45.06-4.96.38-1.69.36-2.99 1.4-4.72 1.58-2.38.24-2.33-.84-3.89-2.23-1.76 1.53-3.7.86-5.79.65-3.03-.3-4.76-.93-5.91 1.94-1.02 2.55-1.6 5.98-3.91 7.75-2.68 2.05-6.36 3.7-9.27 5.57-2.32 1.49-2.65 2.6-2.5 5.43 2.52-.36 4.36 1.51 3.61 3.45-1.29 3.33-3.95 1.95-6.85 3.05-5.4 2.06-5.52 9.59-5.57 14.69-.02 1.58.32 5.62-1.57 6.08-1.02.25-1.68-1-2.48-.91-1.17.12-1.17.92-1.86 1.59-1.76 1.72-3.38 3.82-5.56 5.05-1.89 1.07-3.99 1.08-5.85 2.13-1.84 1.04-3.68 2.1-5.38 3.17-2.27 1.43-2.3 3.34-2.3 6.07 0 1.95-.79 6.15.45 7.66 1.22 1.48 3.74.26 5.29 1.12 1.6.88 1.9 2.7 1.69 4.49-.44 3.7-3.49 6.96-4.78 10.37-.74 1.95-.45 2.5-1.81 3.95-2.41 2.57-5.1 5.31-6.05 8.62-2.17-.05-4.56.75-6.69 1.2-.15 2.18 2.09 5.71-.08 7.41-1.17.91-1.85.3-3.28.16-2.9-.28-4.74.56-6.78 2.08-.58.43-1.35.07-1.89.84-.69.99-.03 2.67-.81 3.89-.83 1.3-2.52 2.2-3.87 2.46-2.3.45-7.34-.5-7.21-3.52.06-1.26-4.59 1.08-4.73 1.1-1.45.21-2.6-.73-4.02-.97-2.86-.48-6.23.11-9.04-.15-2.73-.25-4.81-.6-7.17 1.13-1.17.86-2.48 1.84-2.99 3.31-.42 1.23.16 2.62-.15 3.86-.38 1.51-1.76 1.99-2.33 3.29-.55 1.26 0 1.98.29 3.43.46 2.3-.26 5.04.85 7.04 1 1.8 3.19 2.82 4.1 4.67 1.14 2.32.27 5.51-.23 7.89-.3 1.4-.62 2.69-.62 4.18 0 .8.49 1.99.19 2.81-.37 1.04-1.72 1.29-1.55 2.64.1.76 1.26 1.56 1.71 2.13.92 1.18 3.3 2.16 3.16 3.39-.24 2.16-3.07 2.25-4.51 2.41-2.19.24-4.69.91-5.74 2.94-1.14 2.22.33 2.81.56 4.77.13 1.05-.37 4.18-.67 5.35-.92 3.54-2.71 6.36-2.21 9.9.29 2-.41 4.64-1.3 6.2-.68 1.2-1.81 1.57-1.87 3.04-.2 5.29.35 10-1.17 15.33-.41 1.43-7.79 12.41-8.27 11.47-1.33-2.59-.64-6.59-.64-9.63v-54.38c0-17.94-2.25-35.15-.5-52.61 1.77-17.71-1.06-35.42-1.04-52.7.02-18.01 2.88-35.14 3.07-52.71.09-8.05-.31-16.17-.9-24.2-.52-7.04 1.28-14.44-.1-21.35-1.29-6.5-.14-9.59.49-15.86.37-3.71-2.56-38.65.59-38.82 4.77-.25 9.31.52 14.03.52 12.99 0 25.98.15 38.97 0 29.48-.35 59.26-1 89.38-1 51.7 0 103.35.35 154.89.4 5.89.01 11.4-.84 17.4-.51 13.31.72 25.95 1.46 39.36.42 16.52-1.29 30.65.91 46.97 1.69 12.34.59 24.89 0 37.25 0 13.1 0 25.64-.49 38.7-1 23.05-.9 45.83.92 68.85-.05 23.92-1.01 48.1-1.64 72.04-1.35 31.08.38 63.17 6.7 94.02.56 3.42 69.03 3.15 140.39 3.15 209.85 0 21.01.03 42.44-1 63.03-.55 10.95-.99 21.47-2 31.97-.86 8.87-2.43 20.69-.13 28.81-.39-1.37-16.84-5.23-18.67-4.65-6.4 2.03-9.79 13.74-13.25 19.68-.96 1.63-1.25 3.14-2.51 4.76-1.26 1.61-2.67 3.15-4.1 4.61-1.47 1.49-2.6 3.16-4.01 4.66-1.52 1.63-3.71 2.76-5.61 4-2.41 1.58-5.17 2.92-6.29 5.8-.64 1.66-.41 3.44-.66 5.19-.49 3.51-3.05 6.32-5.45 8.87-2.15 2.29-3.06 3.19-5.92 4.23-2.76 1-7.43 3.4-9.12 6.05-.58.91-.67 2.15-1.39 3.18-1.11 1.58-2.12 2.36-3.5 3.42-3.7 2.82-7.05 3.07-11.32 4.51-2.15.72-6.5 1.95-8.16 3.62-2.09 2.11-1.6 6.18-1.85 8.97-.24 2.59.03 3.78-2.64 4.24-1.6.28-3.54 0-5.18 0-2.43 0-3.71-.34-5.75-1.17-1.77-.72-3.62-.95-5.24-2.07-1.45-1-2.55-2.51-3.89-3.57-3.85 2.54-5.74 6.97-9.92 9.08-3.11 1.57-7.55 1.62-10.96.84-.23-2.02.89-4.73 1.58-6.56 1.25-3.31 2.84-6.19 4.75-9.23 3.49-5.56 7.27-10.32 11.31-15.4 2.36-2.97 6.04-4.56 9.41-6.03 1.31-.57 2.93-1 4-1.79 1.6-1.19 3.5-4.15 4.68-5.82 2.18-3.1 5.02-7.02 6.09-10.7.55-1.91 1.3-3.5 1.88-5.47.59-2 .2-4.6.63-6.8.57-2.87 2.76-4.48 4.67-6.53 2.04-2.18 1.5-3.29 1.86-6.03.35-2.68 1.77-5.74 4-7.49 1.9-1.5 8.09-2.1 8.86-4.21 1.03-2.81-3.38-1.82-4.83-2.48-2.21-1.02-4-2.58-6.24-3.65-3.03-1.45-3.03-2.04-3.54-5.3-.33-2.1-1.14-3.81-.49-6.13.8-2.86 2.99-5.77 5.49-7.35 2.94-1.86 5.34-1.69 7.62-4.85 2.66-3.69 5.5-7.03 8.62-10.33.73-.77 5.44-7.56 4.79-7.6-2.38-.12-4.16.46-5.78-1.4-1.27-1.46-1.2-3.17-2.68-4.55-1.4-1.31-3.12-2.48-4.75-1.91-.63.22-1.67 1.17-2.31 1.52-1.06.6-2.34.98-3.36 1.63-1.73 1.09-1.88 3.64-3.59 4.46-1.79.86-6.07.28-8.18.21-2.46-.08-3.97-.43-4.67-2.93-.82-2.96-.91-4.13-4.29-5.29-3.58-1.22-4.66 2.05-8.12 1.86-1.27-.07-3.3-.64-4.75-.84-2.42-.35-1.91-.73-3.05 1.51-2.03 3.98-6.5 6.77-11.05 6.55-.84-1.73-1.39-4-2.61-5.53-1.27-1.59-3.54-3.34-5.13-4.34-3.3-2.05-12.03-3.81-15.65-1.83-2.42 1.32-4.13 3.27-6.09 5.21-2.69 2.66-5.7 4.31-8.03 7.01-.99 1.15-2.34 1.78-3.27 2.94-.61.76-.93 1.83-1.63 2.59-2.1 2.28-6.51 1.55-9.37 1.36-.44-1.5.11-3.84 1.07-5.13 1.93-2.59 6.29-4.12 9.26-5.18 2.6-.94 5.34-.98 7.04-3.37 1.69-2.38 1.87-5.38 3.53-7.66 2.1-2.88 7.17-.25 8.57-2.53 1.59-2.58-.87-5.1-2.5-6.33-2.65-1.99-5.54-2.98-8.09-5.07-2.58-2.11-5.06-3.4-8.43-4.55-1.33-.45-3.42-.62-4.34-1.82-1-1.3-.49-2.99-1.41-4.49-1.32-2.16-2.62-2.99-2.71-5.62-.08-2.43.64-3.13 1.64-5.11.69-1.37 1.33-5.12.16-6.38-1.4-1.52-3.64.71-5.42-.24-.57-.3-1.41-1.77-1.98-2.27-.61-.54-1.61-1.03-2.23-1.97-2.27-3.39-1.91-9.3-2.11-13.27-6.06.32-7.31-6.5-6.01-11.26.26 0 .57-.07.82-.06.66-1.94 1.64-3.44 2.89-5.14 1.83-2.49 1.48-2.7.02-5.61-1.01.52-1.5 2.02-2.36 2.95-1.21 1.3-2.51 1.54-3.79 2.66-1.3 1.14-1.45 2.83-3.21 3.39-1.02.33-2.77.01-3.85-.05-.16-2.67 4.69-6.5 1.84-9.03-1.58-1.4-4.6-.86-5.7-3.24-1.07-2.32.35-4.59-1.21-6.64-1.05-1.39-1.83-1.44-2.16-3.06-.17-.81.46-2.67-.03-3.33-1.52-2.04-5.44.95-4.66-3.47.23-1.29.93-2.4 1.09-3.86.1-.89-.31-1.09.15-2 .87-1.73 3.72-2.87 2.55-5.22-.45.51-4.36 1.42-5.39 1.56-2.32.33-4.36-.47-6.55-.02-2.21.46-2.58 1.03-4.78-.33-2.13-1.32-2.66-2.69-5.35-1.81-1.74.57-3.48 1.17-5.17 1.75-1.99.68-3.15 2.5-4.92 3.38-2.8 1.39-5.9.53-8.87.85-1.81.2-5.54-.18-7.11.72-3.96 2.27.63 7.99-2.56 10.76-1.36 1.18-4.78.92-6.48 1.22-1.94.34-3.99.45-5.78 1.3 1.94 1.95 2.5 4.51 4.6 6.38.92.81 1.84 1.68 2.98 1.92.92.19 2.36-.47 3.39-.18 1.87.52 2.37 2.27 3.86 3.33 1.6 1.14 3.61 1.17 5.36 1.85 4.86 1.87 10.36 3.29 7.92 9.73-1.53 4.04-7.99 9.67-12.39 5.57-1.51-1.41-1.7-3.91-2.98-5.38-2.21-2.54-4.3-1.17-6.67-.39-2.41.79-6.08.22-8.61.43-3.27.28-6.64.73-9.85.85-1.7.06-3.6-.58-5.25-.18-1.16.28-2.4 1.55-3.63 1.98-3.11 1.11-7.31.45-10.58.45-2.2 0-5.53-.64-7.62 0-2.51.76-4.56 4.14-6.86 5.64-1.4.92-4.75 2.78-6.04.74-.55-.87.04-4.51.24-5.52.25-1.28 1.03-4.28 1.89-5.25 1.18-1.35 4.86-2.04 6.51-2.58 2.72-.9 5.23-1.12 8.12-1.12 3.44 0 7 .27 10.11-.63 2.51-.73 4.08-2.07 6.31-3.65 1.91-1.35 3.96-2.73 5.95-4 1.22-.78 2.81-.79 2.6-2.52-.14-1.19-1.62-1.98-2.6-2.5-2.1-1.12-3.58-.92-3.71-3.58-.16-3.31 1.74-4.01 4.45-5.18 2.36-1.02 4.06-1.34 5.63-3.21 1.75-2.08 1.99-2.03 4.56-2.65 1.22-.3 5.21-2.08 4.96-3.6-.25-1.53-4.33-1.09-2.32-4.28 1.14-1.82 3.94-1.11 5.95-1.36 3.6-.45 7.64-2.42 10.26-5 1.26-1.24 1.47-1.78 1.86-3.33.27-1.06-.03-1.82.66-2.81 2-2.84 7.22-1.69 9.2-4.21.49-.62.34-2.02 1-2.89.57-.75 1.57-1.41 2.38-1.86 2.09-1.17 6.46-1.39 7-4.2-2.99 1.75-8-.95-11.47-.42-3.43.52-8.8.95-10.79-2.07-1.79-2.73-3.29-6.5-5.74-9.06-.72-.76-2.3-2.93-3.33-2.49-.9.39-.24 1.15-.67 1.64-1.23 1.39.38.74-1.82 1.36-3.66 1.02-7.07-1.35-10.62-.71-3.85.7-7.63 2.58-11.14 4.26-2.6 1.25-3.58 1.31-4.68 3.88-.94 2.19-1.44 3.65-3.67 4.95-4.74 2.75-8.46-.01-13.22 0-2.99.01-5.01-.71-7.54-2.01-1.34-.69-.89-1.25-2.48-.24-.81.51-1.05 1.46-1.97 1.81-3.04 1.18-4.99-2.08-7.43-2.27-2.5-.2-3.23 1.87-4.28 3.4-1.24 1.82-2.8 3.22-4.16 4.94-1.27 1.61-3.87 3.85-5.8 4.67-4.32 1.84-7.9-.38-12.3-.13-.4 9.49-11.04 10.88-18.77 10.09-4.2-.43-6.94-1.69-10.32 1.85-1.84 1.92-2.13 2.6-5.17 2.22-1.37-.17-3.67-.44-4.93-.9.34-1.08.8-2.39 1.37-3.12 1.72-2.21 3.45-1.79 6.06-2.08 2.73-.3 4.09-2.93 6.28-4.5 1.15-.82 2.71-2.17 4.28-2.27 1.27-.08 1.76.78 2.7.93 1.82.27 4.61-.04 6.48-.24 6.75-.72 12.78-8.79 17.67-13.31 1.92-1.78 1.85-2.29 1.96-4.92.18-4.32 2.18-7.25 4.8-10.66 1.67-2.17 4.51-3.28 6.69-5.11 2.87-2.4 5.76-3.79 8.9-5.61 3.28-1.9 8.37-5.55 9.56-9.3.5-1.59.09-3.31.61-4.95.57-1.79 1.8-3.48 2.81-5.01 1.73-2.6 4.55-5.75 3.1-8.9-1.75-3.8-6.64-1.93-9.01-4.5-.8-.86-.56-1.63-.67-2.68-.24-2.54.5-2.57-2.2-3.22-2.84-.69-5.84-.82-8.71-1.31-.83-.14-2.17-.05-2.84-.68-.92-.85-.51-2.08-1.51-3.05-1.17-1.15-2.22-.51-3.66-.77-1.66-.3-2.16-.96-3.11-2.32-1.52-2.16-.72-3.11-.48-5.57.23-2.34-.19-4.29-2.21-5.17-1.84-.81-4.56-.76-5.85.99-1.57 2.13-.26 5.18-2.63 6.94-2.23 1.66-4.35.2-4.62-2.3-.33-3.13.37-6.66 1.41-9.51.94-2.58 2.99-4.93 2.64-7.82-.4-3.4-3.01-3.35-6.15-3.38-2.49-.02-4.38.56-4.38 3.16 0 3.94 3.04 9.87-1.63 11.93-2.92 1.29-3.28.85-4.05 4.07-.98 4.06-2.15 2.82-5.86 2.92-2.07.06-4.16.98-5.34 2.76-2.48 3.73 5.84 8.14 5.32 12.52-2.95.16-6.15-.4-9.03.31-1.92.48-2.46 1.7-3.77 2.43-2.45 1.34-5.81.8-6.33-2.43-.4-2.49.64-4.73 1.09-7.08.7-3.65 2.63-8.59-.56-11.5-3.85-3.49-8.69.7-12.39 1.83-1.26.38-2.61-.07-3.83.26-1 .27-1.53 1.21-2.53 1.55-2.01.67-3.89.51-4.74 2.92-1.11.08-2.55.25-3.64-.11-.89-.3-1.63-1.31-2.41-1.44-1.28-.21-3.21.71-4.46.96-3.04.61-7.34.21-7.03-4.05.15-2.08.62-1.64 2.5-1.85 2.44-.28 5.16-.48 7.47-1.33 2.14-.79 3.09-2.58 4.7-4.07 1.4-1.29 2.74-1.99 3.96-3.38 1.84-2.09 1.2-3.78-1.81-4.79-1.18-.4-2.35-.09-3.76-.16-1.84-.09-2.68-.61-4.29-1.23-4.58-1.78-7.86 1.75-11.74 3.88-2.25 1.23-4.3 2.16-6.1-.57-1.12-1.71-.71-4.43-2.91-5.7-1.53-.88-1.67 0-2.89.24-1.26.25-2.71-.25-3.89-.01-1.9.38-3.21 2.56-4.88 3.4-1.89.95-4.79 1.93-6.99 2.23-2.1.29-4.25-.26-6.09.44-1.62.62-2.92 1.81-4.5 2.49-1.8.78-3.08.39-4.92.61-3.25.38-5.39 2.47-8.14 3.89-1.16.6-6.83.96-4.46 3.61 1.03 1.15 6.25 1 7.84 1.13.99.08 3.26-.34 4.1.2 1.11.71 1.21 2.29 1.33 3.82 4.01-.7 8.5-1.78 12.46-2.18 3.23-.33 9.04 3.1 3.5 4.23-2.17.44-3.29.68-4.46 2.75-.81 1.43-.94 3.03-2.8 3.61-2.23.7-5.91-.18-8.11-.69-1.35-.31-7.7-1.88-8.92-.68-3.16 3.11 7.55 6.22 8.49 7.62.65.96 2.09 4.07 1.83 4.95-.42 1.43-3.55 2.13-4.73 2.44-2.51.67-2.92-.24-4.5-1.77-1.57-1.53-3.66-1.86-4.52.51-.73 2.02 1.08 3.6.92 5.35-.44 4.92-6.86-.53-8.29-1.58-1.82-1.33-2.62-2.44-4.97-3.12-1.18 1.88-2.7 3.31-3.64 5.14-.65 1.26-1.65 3.26-2.98 3.78-2.49.97-4.24-.89-6.03-2.19-1.34-.97-4.17-1.5-4.5-3.77-2.85.64-3.47 4.62-6.32 5.52-1.72.54-2.56-.4-4.2-.68-.82-.12-1.51-.05-2.22.03z"/>
        <path class="Peshawar_Map_svg__st4" d="M268.93 96.7c-2.75 0-4.53.16-6.74 1.63-1.06.7-1.93 1.92-3.14 2.21-1.4.34-2.47-.48-3.91.22-5.23 2.53-.38 7.36.09 11.01 2.18.13 2.34 2.05 3.84 2.91 1.31.74 3.5.19 4.89-.02 2.23-.34 4.07-.52 5.2-2.63.7-1.32.92-4.35 2.28-5.43 1.52-1.21 3.55-.07 4.63-2.46.77-1.69-.32-3.21-1.02-4.72-2.32-5-4.4-1.49-8.39-2.7M308.33 105.25c-6.19.19-4.24 5.24-7.82 8.39-1.51 1.33-4.31 1.32-5.69 2.86-1.7 1.9.04 2.58 1.47 3.84 1.43 1.26 1.52 3.29 3.03 4.51 2.06 1.66 2.7-.13 4.28-1.11 1.4-.86 4.16-.01 5.24-1.15.96-1.01.47-4.52.61-5.86.33-3.02 2.23-4.92 2.03-8.1-.12-1.9-.14-2.57-2.04-3.39-1.34-.58-2.84-.71-3.59.68M336.47 116.51c-1.02-1.15-3.04-1.67-4.11-.74-1.45 1.26-.58 3.27-1.96 4.51-1.23 1.1-3.02.9-4.28 2.25-1.52 1.63-1.95 3.3-2.25 5.46-.28 2.02-1 3.35.89 4.05 2.11.78 4.11-.02 4.68-1.85.69-2.22-.38-3.47 2.34-4.18 2.94-.76 4.83.53 6.27-2.76.93-2.12.76-4.18-.51-5.77-1.53-1.91-2.71-1.6-4.9-2.32M189.96 478.87c.94-.26-1.16-1.96-1.45-2.14-.47-.29-1.29-.35-1.68-.67-.38-.31-.37-.91-.77-1.27-1.51-1.37-3.89-1.58-5.83-1.16-1.74.37-3.63.18-5.4.51-2.16.41-3.99 1.76-6.01 2.53-2.08.79-4.37.76-6.37 1.95-1.26.74-2.2 2.06-3.48 2.7-1.4.7-3.13.25-4.52 1.07-1.02.6-2.13 1.88-2.67 2.95-.18.36-1.03 3.36-.15 3.45.83.09 1.65.49 2.4.87 1.46.75 2.54.92 4.22 1.19 1.48.24 2.67.9 4.23.69 1.52-.2 3.54-1.44 4.93-2.44.76-.55 1.12-1.55 1.79-2.23.88-.88 2.28-1.41 3.4-1.85 1.4-.55 2.99-.98 4.3-1.74 1-.58 1.72-1.39 2.85-1.81 3.28-1.21 6.82-1.66 10.21-2.6zM625.81 485.94c-6.74 0-17.71-2.17-24.02-.02-12.27 4.17-4.74 9.45 4.02 11.03 6.97 1.25 18.79 2.88 25.78.77 5.75-1.74 11.12-7.03 16.85-9.53-7.49-2.75-17.9-3.4-25.62-.25"/>
    </g>
    <path class="Peshawar_Map_svg__st5" d="M22.81 27.94H738.7v573.7H22.81z" id="Peshawar_Map_svg__box"/>
    <g id="Peshawar_Map_svg__thrust_fault">
        <path class="Peshawar_Map_svg__st6" d="M223.61 491.18c2.17-1.46 2.64-3.71 3.84-5.78 1.82 1.85 2.5 4.55 3.75 6.67M266.88 485.61c.03-2.74 1.49-4.59 1.37-7.33 1.98.05 3.76 2.25 4.87 3.76M301.68 468.88c1.82-1.78 3.2-4.76 4.05-7.11 2.24.89 2.79 3.64 4.2 5.33M341.16 458.62c.65-1.56 1.65-4.64 2.68-5.82 2.02 1.61 3.27 3.36 5.35 4.93M380.64 453.93c1.96-.93 5.8-2.04 6.74-4.21 1.26.83 2.54 3.21 3.07 4.66M423.24 457.95c.3-1.69 2.75-3.83 4.24-4.59.3.67.84 1.21 1.52 1.5.59 1.09 1.33 2.24 1.82 3.53M461.83 459.83c0-1.69-.05-3.41.03-5.1 2.4.18 3.68 2.83 5.99 3.09"/>
        <path d="M33.19 580.99c1.85-2.2 5.64-3.58 5.6-6.84 2.17.72 3.57 4.37 4.52 6.38M91.61 579.15c2.88-2.61 4.82-4.03 7.02-7.29 2.16 2.14 4.32 4.64 6.32 6.83M167.51 574.55c1.36-3.06 4.43-4.69 5.15-8.24 1.87 2.36 4.68 4.42 5.89 7.32M235.14 553.39c.01-3.1.03-5.25 1.46-7.74.57-.84 1.29-1.51 1.84-2.77 4.28.72 6.55 5.92 10.5 7.75M292.64 537.75c0-1.35-.56-8.52 1.01-9.13 1.82-.7 4.2 4.52 5.43 5.45M340.48 546.49c2.27-2.49 5.04-5.23 6.99-8.11 1.44 2.07 3.05 4.64 4.97 6.73M391.08 545.57c2.71-.88 6.01-2.98 7.96-5.01 1.57 1.74 3.13 4.29 3.09 6.85"/>
        <path class="Peshawar_Map_svg__st7" d="M443.52 560.75c3.33.13 11.46-.77 13.7-3.17 1.03 2.48.57 5.64 1.02 8.23M505.62 583.29c.97-3.51 5.46-6.35 7.47-9.05 1.54 2.91 2.89 9.05 4.95 10.89M569.1 592.03c1.06-2.93 7.15-5.2 9.57-7.32-.2 4.37 5.97 8.08 9.29 9.62"/>
        <path class="Peshawar_Map_svg__st8" d="M209.81 489.94c12.27 1.33 24.26 4.81 37 2.22 9.47-1.92 21.97-5.21 29.23-10.22 7.92-5.47 19.71-11.1 30.02-13.75 11.65-2.99 20.79 2.6 29.93-8.08 11.3-.66 19.19-5.17 31.83-5.17 11.94 0 23.4.81 35.02 1.98 9.08.91 64.43 7.61 66.12-1.81 4.58-2.02 5.91-7.61 8.86-11.17M22.81 580.94c39.54 0 78.79-1.16 118-3 7.8-.37 13.85-2.72 22-3 8.5-.3 17.12-.06 25.02-1.98 13.75-3.33 23.7-13.26 37.95-16.05 14.4-2.82 27.7-8.06 42.24-11.76 7.41-1.88 15.34-3.29 22.78-5.44 6.92-2 10.65-7.54 17.98-8.75 15.37-2.53 20.99 20.04 38.02 16.97 8.78-1.58 10.13-6.55 20.78-4.97 8.51 1.26 17.76 1.3 26.25 2.97 14.53 2.86 26.12 10.42 39.98 14.02 14.49 3.77 28.06 7.26 43 12.73 14.58 5.34 32.77 13.67 48 14.25 16.8.64 30.95 4.56 47 6 20.79 1.87 39.88 7 62 7"/>
    </g>
    <g id="Peshawar_Map_svg__rivers">
        <path class="Peshawar_Map_svg__st9" d="M365.85 107.16c-.91 2.46-4.04 3.7-5.92 5.28-2.83 2.39-5.81 4.77-7.25 8.3-1.22 2.99-1.49 6.62-3.1 9.78-2.26 4.41-5.03 7.69-6.79 12.4-2.39 6.38-4.14 14.3-7.97 20.81-4.07 6.92-10.32 11.88-12.02 20.22-.92 4.49-.26 8.98.82 13.38.51 2.06 1.28 4.14 1.58 6.24.32 2.16.07 4.22 1.05 6.31.46.98 1.11 1.8 1.49 2.81.3.82.38 1.67.61 2.49.4 1.47 1.35 2.52 1.35 4.13 0 1.41-.06 3.02.43 4.36.47 1.28 1.6 2.46 2.44 3.53 5.86 7.53 16.17 14.79 19.73 23.85 1.69 4.29 1.12 10.87-.69 14.96-1.9 4.27-4.96 7.92-6.22 12.47-1.49 5.37.95 7.99-3.64 11.76-3.24 2.66-5.14 4.13-5.48 8.44-.33 4.22-.78 7.11-2.11 11.14-1.25 3.79.18 4.59 1.49 7.92 1.22 3.13 2.94 8.13 2.72 11.87-.11 1.84-.23 3.68-.51 5.5-.24 1.55-.5 4.2-1.59 5.43-.94 1.07-2.25 1.08-3.03 2.59-.62 1.2-1.05 2.88-.63 4.22.71 2.28 3.5 2.07 5.48 2.2.29.49 1.02.46 1.31.98.25.45.08 1.34.08 1.87 0 1.08-.04 2.45 1.26 2.75"/>
        <path class="Peshawar_Map_svg__st9" d="M250.94 108.9c2.58 2.49 3.1 5.46 6.18 7.4 4.98 3.14 8.06 4.96 9.84 10.72 1.12 3.62 4.04 5.55 4.17 9.74.13 4.21-2.09 5.9-3.23 9.44-.79 2.47.23 6.06 1.08 8.4 2.2 6.01 7.19 10.15 11.59 14.54 7.47 7.44 8.98 16.52 14.34 24.63.2.3 7.62.59 8.82 1.06 2.54.99 4.05 2.64 6.09 4.29 3.97 3.22 7.86 9.48 12.77 11.17 1.31 3.69 2.12 9 7.04 8.34-.57-1.16-.94.02-1.84-.69M159.81 54.94c-1.64.08-3.23-.06-4.83.17-4.32 5.44-7.84 11.63-12.43 17.61-5.83 7.6-11.68 6.88-20.52 5.02-7.71-1.62-13.61-2.93-22.28.38-9.61 3.67-8.81 10.34-12.95 18.6-3.57 7.12-9.58 10.14-5.8 19.03 3.39 7.98 7.89 9.19 8.8 19.17.73 7.92.21 19 6 25.02 5.32 5.53 14.12 6.29 20.66 9.65 5.76 2.96 6.9 9.85 11.46 13.89 5.4 4.79 8.58 10.55 11.95 16.9 1.61 3.04 1.73 6.03 2.51 9.33 1.02 4.29 4.14 5.82 7.25 8.52 2.6 2.26 3.35 5.22 5.47 7.68 2.23 2.59 5.13 4.32 6.95 7.39 2.03 3.41 3.13 7.21 3.92 11.12.85 4.23 2.55 7.56 4.44 11.31 2.19 4.34 1.57 9.53 3.83 13.7 1.34 2.48 3.56 4.03 4.29 6.94 1.31 5.17 1.74 5.06 5.92 8.74 2.58 2.27 1.55 4.16 2.07 7.62.56 3.71 3.78 5.6 3.48 9.43-.21 2.72-2.27 4.37-1.74 7.31.39 2.16 1.33 3.45 3.48 3.83"/>
        <path class="Peshawar_Map_svg__st9" d="M161.45 124.57c.31 2.37 2 3.63 3.06 5.73 1.14 2.27 1.57 4.83 3.2 7.15 3.07 4.34 8.07 6.74 11.42 10.53 3.24 3.67 2.75 10.91 2.53 15.95-.14 3.29-.68 6.75-1.33 10.04-.94 4.69-2.88 9.53-2.98 14.16-.11 5.05-.06 10.59.86 15.56.9 4.84 4.36 8.29 6.55 12.53 2.47 4.79 5.06 9.81 8.97 13.69 3.25 3.23 8.82 5.14 10.9 9.92 1.51 3.46.88 7.49.63 11.08-2.41 2.27.29 10.34-1.76 13.93-1.62 2.83-3.26 5.27-4.71 8.15-3.74 7.42-12.69 9.1-12.97 18.37M78.23 351.95c6.73-5.63 2.73-15.53 8.97-21.33 2.5-2.32 5.77-3.65 8.52-5.42 3-1.93 4.83-1.5 8.29-2.14 3.27-.61 6.15-1.84 9.38-2.46 3.14-.6 5.88-1.85 8.71-3.49 3.32-1.93 6.75-4.24 10.11-5.85 3.51-1.68 3.25-.06 6.24.92 2.16.71 5.05-.4 7.06-.21 2.83.27 6.76 1.54 9.43 2.81 2.11 1.01 3.31 2.99 5.46 4 2.45 1.15 6.78 1.26 9.5 1.46 2.77.21 6.17.66 8.73-.69 1.2-.63 2.59-1.55 3.81-1.91 1.36-.4 2.75-.28 4.04-.95 1.15-.59 1.96-1.12 3.24-1.39 2.65-.56 4.38-3.22 7.25-3.07"/>
        <path class="Peshawar_Map_svg__st9" d="M41.81 430.94c6.09-13.49 24.22-17.36 36-22 13.57-5.35 17.51-19.88 32.03-24.97 13.18-4.61 28.81-8.37 37.05-19.78 6.25-8.66 12.71-17.14 21.06-23.9 3.3-2.67 7.03-4.65 9.16-8.4 1.97-3.46 2.51-7.6 4.54-11.01 2.72-4.57 8.68-5.59 13.23-6.89M103.81 481.94c12.57-10.75 15.82-28.92 18-45 1.41-10.38-1.63-14.45 5.27-21.78 4.54-4.83 11.28-7.33 15.51-12.44 4.3-5.19 6.46-13.15 11-18.72 4.68-5.75 9.96-8.83 15.47-13.83 7.69-7 14.93-14.72 20.69-23.4 2.81-4.24 4.9-8.46 6.52-13.24 1.24-3.66 2.23-9.21 5.23-11.87 2.86-2.53 10.06-6.17 13.12-1.82"/>
        <path d="M482.25 384.77l-2.96 1.78-.27-.83.98-.59-2.22-6.86-.98.59-.27-.83 2.96-1.78.27.83-.98.59 2.23 6.86.98-.59.26.83zM486.88 376.09c.05.08.11.19.17.34.07.15.12.28.15.4l1.35 4.15-.94.57-1.19-3.63c-.07-.2-.13-.38-.19-.52-.06-.15-.13-.28-.21-.41-.17-.28-.37-.45-.59-.51s-.52.02-.88.24c-.25.15-.49.39-.72.72s-.42.67-.59 1.04l1.55 4.77-.94.57-2.08-6.39.94-.57.23.71c.21-.47.43-.86.66-1.18s.51-.58.85-.78c.49-.29.94-.4 1.36-.32.44.06.79.33 1.07.8zM492.03 368.25l2.89 8.9-.94.57-.22-.67c-.25.55-.47.95-.67 1.21-.2.26-.45.48-.75.66-.53.32-1.05.4-1.56.25-.51-.15-.96-.54-1.34-1.18-.32-.54-.55-1.1-.67-1.68-.12-.58-.15-1.14-.08-1.67.07-.53.24-1.01.5-1.46.26-.44.61-.79 1.05-1.06.3-.18.59-.31.88-.4s.58-.13.87-.14l-.9-2.77.94-.56zm.24 4.23c-.29.02-.57.07-.82.14s-.5.18-.74.33c-.35.21-.61.48-.78.81-.17.33-.27.7-.29 1.11-.02.37.04.77.17 1.2.13.43.3.82.51 1.17.25.41.52.67.83.78.3.11.65.05 1.05-.19.28-.17.53-.41.73-.73.21-.32.38-.63.53-.95l-1.19-3.67zM499.34 366.85l2.08 6.38-.94.57-.23-.71c-.21.46-.43.85-.66 1.17-.23.32-.51.59-.86.8-.48.29-.93.39-1.35.31-.42-.08-.77-.35-1.04-.82-.07-.11-.13-.23-.18-.35-.05-.12-.1-.25-.16-.4l-1.35-4.14.94-.57 1.19 3.64c.05.15.11.31.18.5s.14.32.2.42c.17.29.38.46.61.52.23.06.52-.02.87-.23.25-.15.49-.39.72-.73.23-.33.43-.68.59-1.03l-1.56-4.77.95-.56zM505.12 371.2c-.42.25-.82.42-1.21.52-.39.09-.74.15-1.03.16l-.4-1.14.05-.03c.11.02.24.03.4.05.16.01.35.01.58-.01.2-.02.42-.06.66-.13.24-.07.47-.17.7-.31.47-.28.79-.59.95-.93s.14-.67-.06-1.01a.57.57 0 0 0-.45-.29c-.19-.01-.44.03-.73.12-.15.05-.33.11-.53.18-.21.07-.42.14-.63.2-.46.12-.84.14-1.16.04-.31-.1-.56-.29-.74-.6-.16-.26-.25-.54-.27-.84s.02-.61.13-.93c.11-.31.29-.62.55-.93.26-.31.6-.59 1-.83.34-.2.69-.36 1.08-.48.38-.12.72-.18 1-.18l.38 1.08-.05.03a3.612 3.612 0 0 0-.9-.01c-.18.02-.38.07-.6.14-.22.07-.44.17-.64.29-.42.25-.71.54-.86.88-.16.33-.14.65.04.96.1.17.25.27.44.3.2.04.44.01.74-.09.19-.06.38-.12.58-.2.2-.07.4-.14.59-.2.45-.14.83-.16 1.15-.07.32.09.57.28.76.59.16.26.25.55.27.87.03.32-.02.64-.14.96-.12.33-.32.66-.6.97-.28.34-.63.62-1.05.87zM518.58 362.92l-1.17.7-3.76-1.81-1.42.86 1.11 3.4-1 .6-2.78-8.51 2.04-1.22c.46-.27.84-.47 1.16-.58.32-.11.63-.16.94-.13.27.03.52.1.74.23.22.13.42.34.6.63.38.62.51 1.29.4 1.99-.11.71-.42 1.34-.94 1.9l4.08 1.94zm-4.49-4.95c-.11-.18-.22-.31-.35-.4-.13-.09-.27-.14-.43-.17-.19-.03-.39-.01-.6.07-.21.07-.45.19-.71.35l-1.12.68 1.07 3.28 1.05-.63c.33-.2.59-.4.8-.6.21-.2.36-.44.47-.71a2 2 0 0 0 .14-.94 2.51 2.51 0 0 0-.32-.93zM517.65 353.24l.36 1.12-1.07.64-.36-1.11 1.07-.65zm.63 2.22l2.08 6.39-.94.57-2.08-6.39.94-.57zM524.93 351.47l-.19 7.75-.94.56-4.33-5.03.96-.58 3.41 4.06.06-6.14 1.03-.62zM531.04 355.61c-.78.47-1.5.65-2.16.55-.66-.1-1.2-.5-1.62-1.2-.62-1.03-.82-2.1-.62-3.23.21-1.12.79-1.98 1.74-2.55.64-.38 1.22-.52 1.75-.4s.96.46 1.31 1.03c.06.1.14.27.24.5.1.23.21.52.32.84l-4.13 2.48a2.88 2.88 0 0 0 .28.58c.28.47.65.76 1.1.85.45.1.94-.01 1.47-.33.37-.22.7-.52 1.01-.9.3-.38.53-.74.69-1.08l.06-.03.41 1.14c-.13.16-.25.31-.35.44s-.24.28-.42.46-.34.32-.48.45-.36.25-.6.4zm-.25-4.68c-.04-.11-.08-.2-.11-.27s-.07-.15-.12-.23c-.21-.36-.48-.58-.8-.66-.32-.08-.69.01-1.12.27-.48.29-.81.69-1 1.2-.19.52-.21 1.05-.05 1.62l3.2-1.93zM536.19 346.05l-.05.03c-.15.05-.29.1-.42.15-.12.05-.27.13-.43.23-.31.19-.58.45-.81.78-.22.33-.42.68-.58 1.05l1.49 4.53-.95.57-2.09-6.38.95-.57.31.94c.26-.58.51-1.02.74-1.33.24-.31.5-.55.78-.72.16-.1.29-.17.37-.2.08-.04.2-.08.35-.15l.34 1.07z"/>
        <g>
            <path d="M238.54 332.91l-1.34-.31-1.73-4.4-1.39.71-1.3 2.66-1.14-.27 3.94-8.04 1.14.27-2.05 4.16 6.01-3.24 1.44.34-5.61 2.98 2.03 5.14zM243.83 333.43c-.12.04-.28.09-.48.16s-.41.12-.61.16a3.419 3.419 0 0 1-1.55-.04c-.51-.12-.88-.36-1.13-.73-.25-.37-.31-.79-.2-1.27.12-.51.33-.91.63-1.2.3-.3.7-.5 1.19-.62.48-.12 1.04-.15 1.66-.11.63.04 1.33.15 2.12.3.05-.1.09-.19.12-.26s.06-.15.08-.24a.93.93 0 0 0 0-.47c-.05-.13-.13-.25-.24-.35s-.26-.18-.43-.25c-.17-.07-.36-.12-.58-.17-.32-.08-.71-.11-1.14-.1s-.8.03-1.08.08l-.06-.01.46-1.02c.23-.01.56 0 1 .03s.85.08 1.23.17c.79.18 1.36.45 1.69.79s.44.78.32 1.31c-.02.1-.06.21-.1.32-.04.11-.09.22-.14.31l-2.01 4.09-1.06-.25.31-.63zm1.25-2.54c-.59-.11-1.12-.19-1.59-.23-.47-.04-.87-.03-1.19.02-.34.05-.61.17-.82.35-.21.18-.35.43-.43.75-.06.27-.02.5.13.69.15.19.42.33.82.42.35.08.72.09 1.11.02.4-.07.77-.18 1.14-.32l.83-1.7zM254.14 331.95c-.14.62-.38 1.19-.71 1.71-.33.52-.7.94-1.11 1.26-.44.34-.89.58-1.36.71-.47.13-.96.14-1.47.02-.34-.08-.65-.2-.92-.36-.27-.16-.51-.34-.71-.54l-.22.28-1-.23 4.12-8.4 1.07.25-1.47 3c.41-.16.81-.29 1.18-.36.38-.08.77-.07 1.19.03.62.14 1.05.45 1.29.91s.28 1.03.12 1.72zm-2.36 2.15c.29-.28.54-.61.73-.98.2-.37.35-.78.46-1.23.11-.45.09-.83-.05-1.12-.14-.29-.43-.49-.86-.59-.32-.07-.66-.07-1.04 0-.38.08-.73.18-1.07.31l-1.69 3.45c.21.19.43.34.64.47.21.13.48.23.8.3.4.09.77.08 1.13-.04.35-.11.67-.3.95-.57zM262.16 331.7l-2.95 6.03-1.07-.25.33-.67c-.47.18-.9.31-1.29.38s-.78.07-1.17-.03c-.55-.13-.94-.37-1.19-.71-.24-.35-.3-.79-.18-1.31.03-.13.07-.25.11-.37.05-.12.1-.25.17-.4l1.92-3.92 1.07.25-1.68 3.43c-.07.14-.14.3-.22.49-.08.18-.12.33-.15.44-.08.33-.05.59.08.79.13.2.39.35.79.44.28.07.62.06 1.02-.02s.78-.19 1.13-.33l2.21-4.51 1.07.27zM266.53 330.08l-4.12 8.4-1.07-.25 4.12-8.4 1.07.25zM275.82 341.61l-1.32-.31-1.44-3.92-1.62-.38-1.57 3.21-1.14-.27 3.94-8.04 2.32.54c.52.12.93.25 1.24.39.31.14.56.33.76.56.18.21.3.43.37.68.07.25.07.54-.01.87-.17.71-.53 1.28-1.1 1.71-.57.43-1.24.67-2 .71l1.57 4.25zm.22-6.68c.05-.2.06-.38.03-.53a.907.907 0 0 0-.2-.42c-.12-.15-.27-.27-.47-.37-.2-.09-.45-.18-.75-.25l-1.28-.3-1.52 3.09 1.2.28c.37.09.7.13.99.12.29 0 .57-.07.83-.18.29-.13.54-.32.75-.58.21-.25.35-.54.42-.86zM280.8 336.05l-2.96 6.03-1.07-.25 2.96-6.03 1.07.25zm1.09-2.04l-.52 1.05-1.21-.28.52-1.05 1.21.28zM288.36 337.82l-5.54 5.43-1.07-.25.4-6.63 1.09.25-.38 5.28 4.33-4.36 1.17.28zM289.85 345.04c-.88-.21-1.52-.57-1.93-1.11-.4-.53-.51-1.2-.33-2 .27-1.17.87-2.08 1.81-2.75.93-.66 1.94-.87 3.03-.61.72.17 1.23.48 1.53.93s.37 1 .22 1.65c-.03.11-.08.29-.18.53-.09.24-.21.51-.36.82l-4.7-1.1c-.05.1-.09.21-.12.31s-.06.2-.08.29c-.12.54-.06 1 .2 1.38s.68.64 1.29.78c.42.1.87.12 1.35.06.48-.06.9-.16 1.24-.29l.06.01-.5 1.1c-.21.02-.39.05-.56.07-.17.02-.37.03-.62.04s-.47 0-.66-.02-.42-.02-.69-.09zm3.08-3.52c.04-.11.08-.2.11-.27.02-.07.05-.16.07-.25.09-.41.06-.75-.11-1.03s-.5-.48-.99-.59c-.54-.13-1.06-.07-1.55.17s-.88.61-1.16 1.12l3.63.85zM300.2 341.78l-.06-.01c-.14-.07-.28-.13-.4-.18-.13-.05-.28-.09-.47-.14-.36-.08-.73-.09-1.12-.01-.39.08-.77.2-1.15.35l-2.09 4.29-1.08-.25 2.94-6.03 1.08.25-.43.89c.59-.24 1.07-.38 1.46-.43.38-.06.74-.04 1.06.03.19.04.32.08.4.11.08.03.2.08.35.14l-.49.99z"/>
        </g>
        <g>
            <path d="M671.99 257.19l-1.31 2.82 6.26 4.89-.5 1.06-6.26-4.89-1.31 2.82-.8-.62 3.12-6.7.8.62zM679.83 257.03c.01.12.03.29.06.5.03.21.04.42.03.63a3.58 3.58 0 0 1-.36 1.51c-.22.47-.54.79-.95.96-.41.17-.84.15-1.28-.06-.47-.22-.82-.51-1.05-.87-.23-.36-.35-.79-.36-1.29-.02-.49.06-1.04.23-1.65.17-.61.42-1.28.73-2.01-.09-.07-.17-.13-.23-.17-.07-.05-.14-.09-.22-.13a.805.805 0 0 0-.46-.09c-.14.02-.27.07-.39.17a1.5 1.5 0 0 0-.33.37c-.1.15-.2.33-.29.53-.14.3-.25.67-.33 1.1-.08.43-.13.79-.15 1.08l-.02.05-.91-.66c.04-.23.12-.55.23-.97.11-.42.25-.81.42-1.17.34-.74.71-1.24 1.12-1.5.4-.26.85-.27 1.35-.04.1.04.19.1.29.17s.19.13.28.2l3.59 2.8-.46.99-.54-.45zm-2.22-1.74c-.23.56-.42 1.06-.55 1.51s-.21.84-.22 1.17c-.02.34.04.63.17.88.13.24.34.43.64.57.25.12.49.12.71.01.22-.11.41-.35.58-.71.15-.32.23-.68.24-1.08.01-.4-.02-.79-.08-1.18l-1.49-1.17zM679.11 247.5l-.02.05c-.1.12-.19.24-.26.36-.07.11-.15.26-.23.43-.15.33-.23.7-.23 1.09 0 .4.03.79.1 1.19l3.77 2.92-.47 1.01-5.3-4.12.47-1.01.78.61c-.11-.62-.15-1.13-.13-1.52.03-.39.11-.73.25-1.03.08-.17.14-.3.19-.37.04-.07.11-.18.21-.32l.87.71zM682.67 242c.58.27 1.09.62 1.53 1.04.44.43.78.88 1.01 1.35.24.5.38.99.41 1.48.03.49-.06.97-.28 1.44-.15.32-.33.59-.54.83-.21.24-.44.43-.68.58l.23.27-.43.93-7.38-5.76.46-1 2.64 2.06a6.84 6.84 0 0 1-.11-1.23c0-.38.09-.77.27-1.16.27-.58.65-.94 1.15-1.08.5-.13 1.07-.05 1.72.25zm1.62 2.75c-.22-.34-.48-.65-.81-.92-.32-.27-.69-.5-1.11-.7-.42-.2-.79-.26-1.1-.18-.31.08-.57.32-.75.72-.14.29-.21.63-.21 1.02 0 .38.03.75.08 1.11l3.03 2.36c.23-.17.42-.35.59-.53.17-.18.32-.42.46-.72.17-.37.23-.74.19-1.11-.05-.37-.17-.72-.37-1.05zM688.52 240.4c-.38.82-.88 1.38-1.48 1.66s-1.28.26-2.02-.09c-1.09-.51-1.86-1.28-2.32-2.33-.46-1.05-.45-2.08.02-3.09.31-.67.72-1.11 1.22-1.31.5-.2 1.05-.16 1.66.12.11.05.27.14.48.28.22.14.46.31.73.52l-2.04 4.37c.09.07.19.13.28.19.09.06.18.1.27.14.5.23.96.26 1.39.09.43-.17.77-.54 1.03-1.1.18-.39.29-.83.33-1.31s.03-.91-.03-1.28l.03-.06.98.72c-.02.21-.04.39-.05.56-.01.17-.04.37-.09.62s-.1.46-.15.64-.12.41-.24.66zm-2.82-3.74c-.09-.07-.18-.12-.24-.16s-.14-.08-.23-.12c-.38-.18-.72-.21-1.03-.1-.31.11-.57.39-.78.85-.23.5-.29 1.02-.16 1.56.13.53.42.99.86 1.37l1.58-3.4zM683.19 229.89l7.38 5.76-.46 1-7.38-5.76.46-1zM692.61 229.62c.01.12.03.29.06.5.03.21.04.42.03.63a3.58 3.58 0 0 1-.36 1.51c-.22.47-.54.79-.95.96s-.84.15-1.28-.06c-.47-.22-.82-.51-1.05-.87-.23-.36-.35-.79-.36-1.29-.02-.49.06-1.04.24-1.65.17-.61.42-1.28.73-2.01-.09-.07-.17-.13-.23-.18-.07-.05-.14-.09-.21-.13a.805.805 0 0 0-.46-.09c-.14.02-.27.07-.39.17-.12.09-.23.22-.33.37s-.2.33-.29.53c-.14.3-.25.67-.33 1.1-.08.43-.13.79-.15 1.08l-.03.05-.91-.66c.04-.23.12-.55.23-.97.11-.42.25-.81.42-1.17.34-.74.72-1.23 1.12-1.5.4-.26.85-.28 1.35-.04.1.04.19.1.29.17.1.07.19.13.28.2l3.59 2.8-.46.99-.55-.44zm-2.23-1.74c-.23.56-.42 1.06-.55 1.51-.14.45-.21.84-.22 1.17-.02.34.04.63.17.88.13.24.34.43.64.57.26.12.49.12.71.01s.41-.35.58-.71c.15-.32.23-.68.24-1.08.01-.4-.02-.79-.08-1.18l-1.49-1.17zM699.42 216.63l-.57 1.23-4.13.61-.7 1.51 2.82 2.2-.5 1.06-7.06-5.5 1-2.16c.22-.48.44-.86.64-1.13.2-.27.44-.48.7-.63.24-.13.49-.2.74-.22.26-.02.54.05.85.19.66.31 1.14.78 1.45 1.43.31.64.4 1.35.28 2.11l4.48-.7zm-6.49-1.59c-.19-.09-.36-.13-.51-.14s-.31.03-.45.11c-.17.08-.33.21-.46.39-.13.18-.26.4-.4.69l-.55 1.19 2.72 2.12.52-1.11c.16-.35.27-.66.32-.95.05-.28.05-.57-.01-.85-.07-.32-.21-.6-.41-.85-.22-.26-.47-.46-.77-.6zM701.28 213.02c-.38.82-.88 1.37-1.48 1.66-.6.29-1.28.26-2.02-.09-1.09-.51-1.86-1.28-2.32-2.33-.46-1.05-.45-2.08.02-3.09.31-.67.72-1.11 1.22-1.31.5-.2 1.05-.16 1.66.12.11.05.27.14.48.28.22.14.46.31.73.52l-2.04 4.37c.09.07.19.13.28.19.1.06.18.1.27.14.5.23.96.26 1.39.09s.77-.54 1.03-1.1c.18-.39.29-.83.33-1.31s.03-.91-.03-1.28l.03-.06.98.72c-.02.21-.03.39-.05.56-.01.17-.04.37-.09.62-.05.24-.1.46-.15.64-.04.18-.12.4-.24.66zm-2.82-3.75c-.09-.07-.18-.12-.24-.16-.07-.04-.14-.08-.23-.12-.38-.18-.72-.21-1.03-.1-.31.11-.57.39-.78.85-.23.5-.29 1.02-.16 1.56.13.54.42.99.86 1.37l1.58-3.4zM703.86 207.49c-.21.44-.45.81-.72 1.11s-.53.53-.76.71l-.96-.72.02-.05c.1-.04.22-.11.36-.18.14-.08.3-.19.47-.33.16-.13.32-.29.48-.47a3 3 0 0 0 .41-.65c.23-.5.32-.93.27-1.3-.05-.37-.26-.64-.61-.8a.526.526 0 0 0-.53.02c-.17.1-.35.27-.54.51-.1.12-.21.27-.34.45s-.27.35-.41.52c-.31.36-.62.59-.94.68s-.63.07-.95-.08c-.28-.13-.51-.31-.69-.54-.19-.23-.32-.51-.41-.85-.09-.32-.11-.68-.06-1.08s.17-.82.37-1.25c.17-.35.37-.69.63-1 .25-.31.5-.55.73-.71l.92.69-.02.05c-.07.04-.17.09-.31.17a3.344 3.344 0 0 0-.86.78c-.14.18-.27.38-.37.6-.21.44-.28.84-.22 1.21.06.36.25.62.57.77.18.08.36.08.54.01.18-.08.37-.24.57-.49.12-.15.25-.32.37-.49.12-.17.25-.34.38-.49.29-.36.6-.6.91-.7s.63-.08.96.07c.27.13.51.32.71.57.2.25.34.54.42.88.08.35.1.72.05 1.13-.1.38-.23.8-.44 1.25zM706.94 200.87c-.38.82-.88 1.38-1.48 1.66-.6.29-1.28.26-2.02-.09-1.09-.51-1.86-1.28-2.32-2.33-.46-1.05-.45-2.08.02-3.09.31-.67.72-1.11 1.22-1.31.5-.2 1.05-.16 1.66.12.11.05.27.14.48.28.22.14.46.31.73.52L703.2 201c.09.07.19.13.28.19.1.05.19.1.27.14.5.23.96.26 1.39.09.43-.17.77-.54 1.03-1.1.18-.39.29-.83.33-1.31.04-.48.03-.91-.03-1.28l.03-.06.98.72c-.02.21-.04.39-.05.56-.01.17-.04.37-.09.62s-.1.46-.15.64c-.05.18-.14.4-.25.66zm-2.82-3.74c-.09-.07-.17-.12-.24-.16-.07-.04-.14-.08-.23-.12-.38-.18-.72-.21-1.03-.1-.31.11-.57.39-.78.85-.23.5-.29 1.02-.16 1.56.13.53.42.99.86 1.37l1.58-3.4zM705.86 190.07l-.02.05c-.1.12-.19.24-.26.36-.07.11-.15.26-.23.43-.15.33-.23.7-.23 1.09 0 .4.03.79.1 1.19l3.77 2.92-.47 1.01-5.3-4.12.47-1.01.78.61c-.11-.62-.15-1.13-.13-1.52.03-.39.11-.73.25-1.03.08-.17.14-.3.19-.37.04-.07.12-.18.21-.32l.87.71zM707.73 183.3l4.18 6.53-.46.99-6.41-1.75.47-1.01 5.09 1.46-3.38-5.13.51-1.09zM712.55 178.44c.53.25 1 .57 1.42.96.41.39.73.82.95 1.29.23.48.36.97.38 1.48s-.09 1.02-.34 1.56c-.33.7-.79 1.16-1.37 1.37-.59.21-1.23.15-1.94-.18-.53-.25-1-.56-1.41-.95s-.73-.82-.96-1.3c-.22-.46-.34-.96-.36-1.48s.09-1.04.33-1.55c.32-.68.77-1.14 1.34-1.36s1.23-.18 1.96.16zm1.48 2.67c-.19-.32-.45-.62-.78-.9-.33-.27-.69-.51-1.11-.7-.5-.23-.93-.29-1.29-.17-.37.12-.65.39-.85.83-.16.34-.22.69-.18 1.04s.15.69.35 1.02c.19.32.45.62.78.9s.69.51 1.1.7c.49.23.92.28 1.29.17.37-.12.66-.39.86-.83.16-.34.22-.69.19-1.04-.04-.35-.16-.69-.36-1.02zM710.14 172.83l.92.72-.53 1.13-.92-.72.53-1.13zm1.78 1.49l5.29 4.13-.46 1-5.29-4.13.46-1zM715.48 169.41l-.03.05c-.1.12-.19.24-.26.36-.07.11-.15.26-.23.43-.15.33-.23.7-.23 1.09 0 .4.03.79.1 1.19l3.77 2.92-.47 1.01-5.3-4.12.47-1.01.78.61c-.11-.62-.15-1.13-.13-1.52.03-.39.11-.73.25-1.03.08-.17.14-.3.19-.37.05-.07.12-.18.21-.32l.88.71z"/>
        </g>
    </g>
    <g id="Peshawar_Map_svg__towns_and_cities">
        <path d="M298.02 263.68c-.06-1.13-.13-2.48-.12-3.49h-.04c-.28.95-.61 1.96-1.02 3.07l-1.43 3.92h-.79l-1.31-3.85c-.38-1.14-.71-2.18-.94-3.14h-.02a83.35 83.35 0 0 1-.16 3.57l-.22 3.47h-1l.56-8.08h1.33l1.38 3.91c.34 1 .61 1.88.82 2.72h.04c.2-.82.49-1.7.85-2.72l1.44-3.91h1.33l.5 8.08h-1.02l-.18-3.55zM304.1 267.23l-.08-.73h-.04c-.32.46-.95.86-1.77.86-1.18 0-1.77-.83-1.77-1.67 0-1.4 1.25-2.17 3.49-2.16v-.12c0-.48-.13-1.34-1.32-1.34-.54 0-1.1.17-1.51.43l-.24-.7c.48-.31 1.18-.52 1.91-.52 1.77 0 2.21 1.21 2.21 2.37v2.17c0 .5.02 1 .1 1.39h-.98zm-.15-2.96c-1.15-.02-2.46.18-2.46 1.31 0 .68.46 1.01 1 1.01.76 0 1.24-.48 1.4-.97.04-.11.06-.23.06-.34v-1.01zM306.67 263.24c0-.68-.01-1.27-.05-1.81h.92l.04 1.14h.05c.26-.78.9-1.27 1.61-1.27.12 0 .2.01.3.04v1c-.11-.02-.22-.04-.36-.04-.74 0-1.27.56-1.42 1.36-.02.14-.05.31-.05.49v3.09h-1.04v-4zM315.49 258.72v7.02c0 .52.01 1.1.05 1.5h-.95l-.05-1.01h-.02c-.32.65-1.03 1.14-1.98 1.14-1.4 0-2.48-1.19-2.48-2.95-.01-1.93 1.19-3.12 2.6-3.12.89 0 1.49.42 1.75.89h.02v-3.47h1.06zm-1.05 5.07c0-.13-.01-.31-.05-.44-.16-.67-.73-1.22-1.52-1.22-1.09 0-1.74.96-1.74 2.24 0 1.18.58 2.15 1.72 2.15.71 0 1.35-.47 1.55-1.26.04-.14.05-.29.05-.46v-1.01zM320.46 267.23l-.08-.73h-.04c-.32.46-.95.86-1.77.86-1.18 0-1.77-.83-1.77-1.67 0-1.4 1.25-2.17 3.49-2.16v-.12c0-.48-.13-1.34-1.32-1.34-.54 0-1.1.17-1.51.43l-.24-.7c.48-.31 1.18-.52 1.91-.52 1.77 0 2.21 1.21 2.21 2.37v2.17c0 .5.02 1 .1 1.39h-.98zm-.15-2.96c-1.15-.02-2.46.18-2.46 1.31 0 .68.46 1.01 1 1.01.76 0 1.24-.48 1.4-.97.04-.11.06-.23.06-.34v-1.01zM323.03 263c0-.6-.01-1.09-.05-1.57h.94l.06.96h.02c.29-.55.96-1.09 1.92-1.09.8 0 2.05.48 2.05 2.47v3.47h-1.06v-3.35c0-.94-.35-1.71-1.34-1.71-.7 0-1.24.49-1.42 1.08-.05.13-.07.31-.07.49v3.49h-1.06V263zM270.91 383.62v-8.08h1.14l2.59 4.09c.6.95 1.07 1.8 1.45 2.63l.02-.01c-.1-1.08-.12-2.06-.12-3.32v-3.38h.98v8.08h-1.06l-2.57-4.1c-.56-.9-1.1-1.82-1.51-2.7l-.04.01c.06 1.02.08 1.99.08 3.33v3.45h-.96zM284.03 380.67c0 2.15-1.49 3.08-2.89 3.08-1.57 0-2.78-1.15-2.78-2.99 0-1.94 1.27-3.08 2.88-3.08 1.66.01 2.79 1.22 2.79 2.99zm-4.61.06c0 1.27.73 2.23 1.76 2.23 1.01 0 1.76-.95 1.76-2.26 0-.98-.49-2.23-1.74-2.23-1.24.01-1.78 1.16-1.78 2.26zM285.7 377.82l.77 2.95c.17.65.32 1.25.43 1.85h.04c.13-.59.32-1.21.52-1.84l.95-2.96h.89l.9 2.9c.22.7.38 1.31.52 1.9h.04c.1-.59.25-1.2.44-1.88l.83-2.91h1.04l-1.87 5.8h-.96l-.89-2.77c-.2-.65-.37-1.22-.52-1.91h-.02c-.14.7-.32 1.29-.53 1.92l-.94 2.76h-.96l-1.75-5.8h1.07zM293.89 382.54c.31.2.86.42 1.39.42.77 0 1.13-.38 1.13-.86 0-.5-.3-.78-1.08-1.07-1.04-.37-1.54-.95-1.54-1.64 0-.94.76-1.7 2-1.7.59 0 1.1.17 1.43.36l-.26.77c-.23-.14-.65-.34-1.19-.34-.62 0-.97.36-.97.79 0 .48.35.7 1.1.98 1.01.38 1.52.89 1.52 1.75 0 1.02-.79 1.74-2.17 1.74-.64 0-1.22-.16-1.63-.4l.27-.8zM298.79 375.11h1.06v3.62h.02c.17-.3.43-.56.76-.74.31-.18.68-.3 1.08-.3.78 0 2.03.48 2.03 2.48v3.45h-1.06v-3.33c0-.94-.35-1.73-1.34-1.73-.68 0-1.22.48-1.42 1.06-.06.14-.07.3-.07.5v3.5h-1.06v-8.51zM306.04 380.91c.02 1.43.94 2.01 1.99 2.01.76 0 1.21-.13 1.61-.3l.18.76c-.37.17-1.01.36-1.93.36-1.79 0-2.85-1.18-2.85-2.93s1.03-3.13 2.72-3.13c1.9 0 2.4 1.67 2.4 2.73 0 .22-.02.38-.04.49h-4.08zm3.09-.75c.01-.67-.28-1.71-1.46-1.71-1.07 0-1.54.98-1.62 1.71h3.08zM311.46 379.63c0-.68-.01-1.27-.05-1.81h.92l.04 1.14h.05c.26-.78.9-1.27 1.61-1.27.12 0 .2.01.3.04v1c-.11-.02-.22-.04-.36-.04-.74 0-1.27.56-1.42 1.36-.02.14-.05.31-.05.49v3.09h-1.04v-4zM318.54 383.62l-.08-.73h-.04c-.32.46-.95.86-1.77.86-1.18 0-1.77-.83-1.77-1.67 0-1.4 1.25-2.17 3.49-2.16v-.12c0-.48-.13-1.34-1.32-1.34-.54 0-1.1.17-1.51.43l-.24-.7c.48-.31 1.18-.52 1.91-.52 1.77 0 2.21 1.21 2.21 2.38v2.17c0 .5.02 1 .1 1.39h-.98zm-.16-2.96c-1.15-.02-2.46.18-2.46 1.31 0 .68.46 1.01 1 1.01.76 0 1.24-.48 1.4-.97.04-.11.06-.23.06-.34v-1.01z"/>
        <path class="Peshawar_Map_svg__st10" d="M328.31 250.23h15v7.42h-15zM102.08 347.34l16.26 2.25 6.83-2.25-2.25-6.15h9.59l1.05 6.6 6.6.3 4.65 6.29-6.15 9-5.85 8.1-17.69 5.54-22.79 6.6 10.8-14.84-2.55-7.65-12.9 5.55v-9.45z"/>
        <g>
            <path d="M99.35 326.14c.59-.1 1.36-.18 2.34-.18 1.2 0 2.09.28 2.65.78.52.45.83 1.13.83 1.98 0 .85-.25 1.53-.73 2.02-.64.69-1.69 1.04-2.89 1.04-.36 0-.7-.01-.98-.08v3.78h-1.22v-9.34zm1.22 4.55c.27.07.6.1 1.01.1 1.47 0 2.37-.71 2.37-2.02 0-1.25-.88-1.85-2.23-1.85-.53 0-.94.04-1.15.1v3.67zM107.09 332.3c.03 1.67 1.09 2.35 2.33 2.35.88 0 1.41-.15 1.88-.35l.21.88c-.43.2-1.18.42-2.25.42-2.09 0-3.33-1.37-3.33-3.42s1.2-3.66 3.18-3.66c2.21 0 2.8 1.95 2.8 3.19 0 .25-.03.45-.04.57h-4.78zm3.61-.88c.01-.78-.32-2-1.71-2-1.25 0-1.79 1.15-1.89 2h3.6zM113.25 334.2c.36.24 1.01.49 1.62.49.9 0 1.32-.45 1.32-1.01 0-.59-.35-.91-1.26-1.25-1.22-.43-1.79-1.11-1.79-1.92 0-1.09.88-1.99 2.34-1.99.69 0 1.29.2 1.67.42l-.31.9c-.27-.17-.76-.39-1.39-.39-.73 0-1.13.42-1.13.92 0 .56.41.81 1.29 1.15 1.18.45 1.78 1.04 1.78 2.04 0 1.19-.92 2.03-2.54 2.03-.74 0-1.43-.18-1.9-.46l.3-.93zM118.96 325.52h1.23v4.23h.03c.2-.35.5-.66.88-.87.36-.21.8-.35 1.26-.35.91 0 2.37.56 2.37 2.9v4.03h-1.23v-3.89c0-1.09-.41-2.02-1.57-2.02-.8 0-1.43.56-1.65 1.23-.07.17-.08.35-.08.59v4.09h-1.23v-9.94zM130.49 335.46l-.1-.85h-.04c-.38.53-1.11 1.01-2.07 1.01-1.37 0-2.07-.97-2.07-1.95 0-1.64 1.46-2.54 4.08-2.52v-.14c0-.56-.15-1.57-1.54-1.57-.63 0-1.29.2-1.76.5l-.28-.81c.56-.36 1.37-.6 2.23-.6 2.07 0 2.58 1.41 2.58 2.77v2.54c0 .59.03 1.16.11 1.62h-1.14zm-.19-3.46c-1.34-.03-2.87.21-2.87 1.53 0 .8.53 1.18 1.16 1.18.88 0 1.44-.56 1.64-1.13.04-.13.07-.27.07-.39V332zM133.86 328.68l.9 3.45c.2.76.38 1.46.5 2.16h.04c.15-.69.38-1.41.6-2.14l1.11-3.46h1.04l1.05 3.39c.25.81.45 1.53.6 2.21h.04c.11-.69.29-1.4.52-2.2l.97-3.4h1.22l-2.19 6.78h-1.12l-1.04-3.24c-.24-.76-.43-1.43-.6-2.23h-.03c-.17.81-.38 1.51-.62 2.24l-1.09 3.22h-1.12l-2.05-6.78h1.27zM147.37 335.46l-.1-.85h-.04c-.38.53-1.11 1.01-2.07 1.01-1.37 0-2.07-.97-2.07-1.95 0-1.64 1.46-2.54 4.08-2.52v-.14c0-.56-.15-1.57-1.54-1.57-.63 0-1.29.2-1.76.5l-.28-.81c.56-.36 1.37-.6 2.23-.6 2.07 0 2.58 1.41 2.58 2.77v2.54c0 .59.03 1.16.11 1.62h-1.14zm-.18-3.46c-1.34-.03-2.87.21-2.87 1.53 0 .8.53 1.18 1.16 1.18.88 0 1.44-.56 1.64-1.13.04-.13.07-.27.07-.39V332zM150.36 330.8c0-.8-.01-1.48-.06-2.12h1.08l.04 1.33h.06c.31-.91 1.05-1.48 1.88-1.48.14 0 .24.01.35.04v1.16c-.13-.03-.25-.04-.42-.04-.87 0-1.48.66-1.65 1.58-.03.17-.06.36-.06.57v3.61h-1.22v-4.65z"/>
        </g>
        <g>
            <path d="M292.57 448.83l-.27 4.01-1.57.4.97-12.78 1.83-.47 7.04 10.72-1.62.42-2.21-3.37-4.17 1.07zm3.55-2.18l-2.02-3.09c-.46-.7-.81-1.35-1.16-1.99l-.04.01c0 .74 0 1.51-.04 2.28l-.28 3.7 3.54-.91zM301.11 438.99l.62 2.42 2.2-.57.3 1.17-2.2.57 1.17 4.55c.27 1.05.72 1.56 1.57 1.34.4-.1.68-.23.86-.33l.37 1.13c-.26.2-.71.41-1.31.56-.71.18-1.35.1-1.82-.22-.55-.34-.9-1.05-1.16-2.04l-1.19-4.6-1.31.34-.3-1.17 1.31-.34-.52-2.02 1.41-.79zM306.88 437.5l.62 2.42 2.2-.57.3 1.17-2.2.56 1.17 4.55c.27 1.04.72 1.56 1.57 1.34.4-.1.68-.23.86-.33l.37 1.13c-.26.2-.71.41-1.31.56-.71.18-1.35.11-1.82-.22-.55-.34-.9-1.05-1.16-2.04l-1.19-4.6-1.31.34-.3-1.17 1.31-.34-.52-2.02 1.41-.78zM320.03 441.13c.8 3.12-1.01 5.04-3.05 5.56-2.28.59-4.48-.63-5.16-3.3-.73-2.83.69-4.96 3.03-5.56 2.42-.62 4.51.72 5.18 3.3zm-6.67 1.81c.48 1.85 1.9 2.97 3.4 2.58 1.46-.38 2.21-2.04 1.72-3.94-.37-1.43-1.55-3.06-3.36-2.59-1.82.47-2.18 2.35-1.76 3.95zM329 443.06c-.35.31-1.17.82-2.3 1.11-2.55.66-4.65-.64-5.31-3.23-.67-2.6.62-4.94 3.38-5.65.91-.23 1.77-.21 2.24-.11l-.04 1.28c-.42-.11-1.04-.16-1.88.06-1.94.5-2.61 2.2-2.16 3.96.5 1.95 2.07 2.83 3.74 2.4.87-.22 1.39-.6 1.78-.9l.55 1.08zM331.22 437.95l.04-.01c.13-.35.33-.79.5-1.15l1.73-3.55 1.85-.48-2.37 4.31 4.99 4.01-1.87.48-3.95-3.29-.56 1.07.82 3.17-1.52.39-3.19-12.38 1.52-.39 2.01 7.82zM339.81 428.24c.73-.35 1.8-.72 2.85-.99 1.62-.42 2.74-.39 3.65.08.73.37 1.27 1.09 1.5 1.99.4 1.55-.31 2.83-1.44 3.57l.01.05c.99.08 1.74.78 2.34 1.93.81 1.54 1.38 2.6 1.74 2.99l-1.57.4c-.28-.28-.8-1.22-1.51-2.6-.77-1.53-1.55-1.98-2.94-1.68l-1.43.37 1.31 5.09-1.52.39-2.99-11.59zm2.9 4.96l1.55-.4c1.62-.42 2.42-1.57 2.08-2.91-.39-1.52-1.66-1.9-3.27-1.5-.73.19-1.24.39-1.46.53l1.1 4.28zM357.01 436.18l-.4-1.03-.05.01c-.3.78-1.05 1.61-2.26 1.92-1.71.44-2.89-.54-3.2-1.76-.53-2.04 1-3.62 4.26-4.45l-.04-.17c-.18-.7-.69-1.9-2.42-1.46-.78.2-1.54.66-2.04 1.19l-.61-.92c.58-.63 1.52-1.19 2.58-1.46 2.58-.67 3.66.93 4.1 2.62l.81 3.16c.19.73.41 1.44.66 1.99l-1.39.36zm-1.34-4.25c-1.68.4-3.51 1.18-3.08 2.82.26.99 1.04 1.29 1.82 1.09 1.1-.28 1.62-1.16 1.68-1.94.01-.17 0-.35-.04-.51l-.38-1.46zM359.15 429.06c-.22-.87-.43-1.58-.66-2.27l1.36-.35.45 1.37.04-.01c.21-.91.99-1.95 2.38-2.31 1.17-.3 3.16-.07 3.91 2.82l1.3 5.04-1.53.4-1.25-4.86c-.35-1.36-1.15-2.36-2.6-1.99-1.01.26-1.61 1.18-1.65 2.1-.02.21.01.48.08.74l1.31 5.07-1.53.4-1.61-6.15zM375.51 422.41c.12.62.26 1.31.53 2.34l1.26 4.9c.5 1.93.42 3.22-.21 4.16-.62.98-1.74 1.53-2.81 1.8-1.01.26-2.19.3-2.99.03l.08-1.27c.65.21 1.6.29 2.65.02 1.57-.4 2.51-1.52 1.96-3.65l-.24-.94-.04.01c-.27.91-1.01 1.77-2.32 2.1-2.09.54-4.05-.85-4.65-3.19-.74-2.86.71-4.96 2.65-5.46 1.46-.38 2.46.18 3.01.79l.03-.01-.26-1.29 1.35-.34zm-.73 3.74c-.07-.26-.14-.48-.27-.68-.51-.82-1.45-1.36-2.56-1.07-1.46.38-2.19 1.88-1.69 3.84.43 1.66 1.62 2.82 3.27 2.39.94-.24 1.64-1.06 1.72-2.12.02-.28-.02-.59-.09-.85l-.38-1.51zM379.99 426.06c.57 2.06 2.11 2.58 3.65 2.18 1.1-.28 1.71-.65 2.22-1.04l.54 1.03c-.48.38-1.33.9-2.67 1.25-2.6.67-4.59-.64-5.25-3.19-.66-2.54.33-4.94 2.79-5.57 2.75-.71 4.11 1.53 4.51 3.08.08.31.11.57.13.73l-5.92 1.53zm4.22-2.26c-.23-.98-1.04-2.39-2.77-1.95-1.55.4-1.86 2-1.71 3.1l4.48-1.15z"/>
        </g>
        <path class="Peshawar_Map_svg__st10" d="M320.81 368.42h15v7.42h-15z"/>
        <g>
            <path d="M195.45 523.02l1.54-.26.98 5.77.05-.01c.24-.52.49-1 .72-1.44l2.9-5.11 1.92-.32-3.47 5.81 5.83 6.1-1.83.31-4.94-5.21-.91 1.51.77 4.56-1.54.26-2.02-11.97zM212.08 532.51l-.31-1.06-.05.01c-.37.76-1.19 1.52-2.41 1.72-1.74.29-2.83-.78-3.04-2.02-.35-2.08 1.3-3.53 4.62-4.07l-.03-.18c-.12-.71-.53-1.96-2.29-1.66-.8.14-1.59.53-2.13 1.02l-.53-.97c.63-.58 1.61-1.06 2.69-1.24 2.63-.44 3.57 1.24 3.86 2.96l.54 3.21c.13.75.29 1.47.49 2.04l-1.41.24zm-.97-4.34c-1.71.25-3.59.88-3.31 2.55.17 1.01.93 1.38 1.73 1.24 1.12-.19 1.71-1.02 1.83-1.79.03-.17.03-.35 0-.51l-.25-1.49zM213.74 519.27l1.56-.26 2.13 12.6-1.56.26-2.13-12.6zM224.82 530.36l-.31-1.06-.05.01c-.37.76-1.19 1.52-2.41 1.72-1.74.29-2.83-.78-3.04-2.02-.35-2.08 1.3-3.53 4.62-4.07l-.03-.18c-.12-.71-.53-1.96-2.29-1.66-.8.13-1.59.52-2.13 1.02l-.53-.97c.63-.58 1.61-1.06 2.69-1.24 2.63-.45 3.57 1.24 3.86 2.96l.54 3.21c.13.75.29 1.47.49 2.04l-1.41.24zm-.97-4.35c-1.71.25-3.59.88-3.31 2.55.17 1.01.93 1.38 1.73 1.24 1.12-.19 1.71-1.02 1.83-1.79.03-.17.03-.35 0-.51l-.25-1.49zM240.73 527.26c-.52.38-1.61.86-3.06 1.1-3.37.57-6.27-1.13-6.94-5.05-.63-3.75 1.48-6.71 5.19-7.34 1.49-.25 2.49-.09 2.93.05l-.16 1.32c-.63-.18-1.5-.26-2.5-.09-2.81.47-4.37 2.58-3.83 5.73.5 2.93 2.5 4.53 5.41 4.03.94-.16 1.87-.52 2.44-.92l.52 1.17zM240.54 514.73l1.56-.26.91 5.36.04-.01c.17-.49.5-.94.93-1.29.42-.34.94-.62 1.52-.71 1.15-.2 3.12.2 3.62 3.17l.87 5.11-1.56.26-.83-4.94c-.23-1.38-.95-2.47-2.42-2.22-1.01.17-1.69 1.02-1.83 1.92-.05.23-.03.46.02.76l.88 5.18-1.56.26-2.15-12.59zM252.4 514.37c.11.53-.21 1.02-.83 1.13-.55.09-1.01-.27-1.1-.8-.09-.55.24-1.05.81-1.14.59-.1 1.03.26 1.12.81zm.13 11.3l-1.45-8.59 1.56-.26 1.45 8.59-1.56.26zM256.69 513.59l.42 2.47 2.24-.38.2 1.19-2.24.38.78 4.63c.18 1.07.58 1.62 1.45 1.47.41-.07.7-.17.89-.26l.27 1.16c-.28.17-.75.34-1.35.45-.73.12-1.35-.01-1.8-.37-.52-.39-.81-1.12-.98-2.13l-.79-4.69-1.33.23-.2-1.19 1.33-.23-.35-2.06 1.46-.67zM262.56 512.6l.42 2.47 2.24-.38.2 1.19-2.24.38.78 4.63c.18 1.06.58 1.62 1.45 1.47.41-.07.7-.17.89-.26l.27 1.16c-.28.17-.75.35-1.35.45-.73.12-1.35-.01-1.8-.37-.52-.39-.81-1.12-.98-2.13l-.79-4.69-1.33.23-.2-1.19 1.33-.23-.35-2.06 1.46-.67zM273.19 522.18l-.31-1.06-.05.01c-.37.76-1.19 1.52-2.41 1.72-1.74.29-2.83-.78-3.04-2.02-.35-2.08 1.3-3.53 4.62-4.07l-.03-.18c-.12-.71-.53-1.96-2.29-1.66-.8.13-1.59.53-2.13 1.02l-.53-.97c.63-.58 1.61-1.06 2.69-1.24 2.63-.44 3.57 1.24 3.86 2.96l.54 3.21c.13.75.29 1.47.49 2.04l-1.41.24zm-.98-4.35c-1.71.25-3.59.88-3.31 2.55.17 1.01.93 1.38 1.73 1.24 1.12-.19 1.71-1.02 1.83-1.79.03-.17.03-.35 0-.51l-.25-1.49zM278.8 509.08c.75-.29 1.86-.57 2.92-.75 1.65-.28 2.77-.16 3.63.39.69.43 1.17 1.19 1.33 2.11.27 1.58-.55 2.8-1.74 3.43l.01.05c.98.16 1.67.92 2.17 2.12.67 1.6 1.15 2.71 1.48 3.13l-1.6.27c-.25-.3-.69-1.29-1.28-2.72-.63-1.59-1.38-2.1-2.79-1.92l-1.46.25.88 5.18-1.54.26-2.01-11.8zm2.47 5.19l1.58-.27c1.65-.28 2.55-1.36 2.31-2.73-.26-1.54-1.49-2.03-3.13-1.77-.75.13-1.27.29-1.5.4l.74 4.37zM295.26 518.44l-.31-1.06-.05.01c-.37.76-1.19 1.52-2.41 1.72-1.74.29-2.83-.78-3.04-2.02-.35-2.08 1.3-3.53 4.63-4.07l-.03-.18c-.12-.71-.53-1.96-2.29-1.66-.8.13-1.59.52-2.13 1.02l-.53-.97c.63-.58 1.61-1.06 2.69-1.24 2.63-.44 3.57 1.24 3.86 2.96l.54 3.21c.13.75.29 1.47.49 2.04l-1.42.24zm-.97-4.35c-1.71.25-3.59.88-3.31 2.55.17 1.01.93 1.38 1.73 1.24 1.12-.19 1.71-1.02 1.83-1.79.03-.17.03-.35 0-.51l-.25-1.49zM298 511.53c-.15-.89-.29-1.61-.46-2.31l1.38-.23.33 1.41.04-.01c.29-.89 1.15-1.86 2.57-2.1 1.19-.2 3.16.2 3.65 3.14l.87 5.13-1.56.26-.84-4.95c-.23-1.38-.94-2.45-2.42-2.2-1.03.17-1.71 1.04-1.82 1.95-.04.21-.03.48.02.75l.87 5.17-1.56.26-1.07-6.27zM314.86 506.29c.07.63.15 1.33.33 2.37l.84 4.99c.33 1.97.15 3.24-.56 4.13-.7.92-1.87 1.38-2.95 1.56-1.03.17-2.21.12-2.98-.23l.19-1.26c.63.26 1.57.43 2.64.25 1.6-.27 2.63-1.3 2.26-3.47l-.16-.96-.04.01c-.34.88-1.16 1.67-2.49 1.9-2.13.36-3.96-1.19-4.37-3.57-.49-2.91 1.13-4.88 3.1-5.22 1.49-.25 2.44.39 2.93 1.04l.04-.01-.15-1.31 1.37-.22zm-1.04 3.66c-.04-.27-.1-.49-.21-.7-.44-.86-1.33-1.47-2.46-1.28-1.49.25-2.34 1.69-2.01 3.68.29 1.69 1.37 2.95 3.06 2.66.96-.16 1.73-.91 1.9-1.96.04-.28.03-.59-.02-.86l-.26-1.54zM319.02 510.29c.39 2.11 1.89 2.75 3.45 2.48 1.12-.19 1.76-.5 2.3-.85l.46 1.07c-.51.34-1.4.79-2.77 1.02-2.64.45-4.52-1.03-4.96-3.62s.74-4.89 3.25-5.32c2.8-.47 3.97 1.87 4.24 3.45.05.32.06.57.07.74l-6.04 1.03zm4.39-1.89c-.15-1-.84-2.47-2.6-2.17-1.58.27-2.03 1.84-1.97 2.94l4.57-.77z"/>
        </g>
        <g>
            <path d="M247.9 285.77c1.26-.21 2.91-.39 5.01-.39 2.58 0 4.47.6 5.67 1.68 1.11.96 1.77 2.43 1.77 4.23 0 1.83-.54 3.27-1.56 4.32-1.38 1.47-3.63 2.22-6.18 2.22-.78 0-1.5-.03-2.1-.18v8.1h-2.61v-19.98zm2.61 9.75c.57.15 1.29.21 2.16.21 3.15 0 5.07-1.53 5.07-4.32 0-2.67-1.89-3.96-4.77-3.96-1.14 0-2.01.09-2.46.21v7.86zM264.49 298.97c.06 3.57 2.34 5.04 4.98 5.04 1.89 0 3.03-.33 4.02-.75l.45 1.89c-.93.42-2.52.9-4.83.9-4.47 0-7.14-2.94-7.14-7.32s2.58-7.83 6.81-7.83c4.74 0 6 4.17 6 6.84 0 .54-.06.96-.09 1.23h-10.2zm7.74-1.89c.03-1.68-.69-4.29-3.66-4.29-2.67 0-3.84 2.46-4.05 4.29h7.71zM277.69 303.05c.78.51 2.16 1.05 3.48 1.05 1.92 0 2.82-.96 2.82-2.16 0-1.26-.75-1.95-2.7-2.67-2.61-.93-3.84-2.37-3.84-4.11 0-2.34 1.89-4.26 5.01-4.26 1.47 0 2.76.42 3.57.9l-.66 1.92c-.57-.36-1.62-.84-2.97-.84-1.56 0-2.43.9-2.43 1.98 0 1.2.87 1.74 2.76 2.46 2.52.96 3.81 2.22 3.81 4.38 0 2.55-1.98 4.35-5.43 4.35-1.59 0-3.06-.39-4.08-.99l.66-2.01zM289.93 284.45h2.64v9.06h.06c.42-.75 1.08-1.41 1.89-1.86.78-.45 1.71-.75 2.7-.75 1.95 0 5.07 1.2 5.07 6.21v8.64h-2.64v-8.34c0-2.34-.87-4.32-3.36-4.32-1.71 0-3.06 1.2-3.54 2.64-.15.36-.18.75-.18 1.26v8.76h-2.64v-21.3zM314.62 305.75l-.21-1.83h-.09c-.81 1.14-2.37 2.16-4.44 2.16-2.94 0-4.44-2.07-4.44-4.17 0-3.51 3.12-5.43 8.73-5.4v-.3c0-1.2-.33-3.36-3.3-3.36-1.35 0-2.76.42-3.78 1.08l-.6-1.74c1.2-.78 2.94-1.29 4.77-1.29 4.44 0 5.52 3.03 5.52 5.94v5.43c0 1.26.06 2.49.24 3.48h-2.4zm-.39-7.41c-2.88-.06-6.15.45-6.15 3.27 0 1.71 1.14 2.52 2.49 2.52 1.89 0 3.09-1.2 3.51-2.43.09-.27.15-.57.15-.84v-2.52zM321.85 291.23l1.92 7.38c.42 1.62.81 3.12 1.08 4.62h.09c.33-1.47.81-3.03 1.29-4.59l2.37-7.41h2.22l2.25 7.26c.54 1.74.96 3.27 1.29 4.74h.09c.24-1.47.63-3 1.11-4.71l2.07-7.29h2.61l-4.68 14.52h-2.4l-2.22-6.93c-.51-1.62-.93-3.06-1.29-4.77h-.06c-.36 1.74-.81 3.24-1.32 4.8l-2.34 6.9h-2.4l-4.38-14.52h2.7zM350.8 305.75l-.21-1.83h-.09c-.81 1.14-2.37 2.16-4.44 2.16-2.94 0-4.44-2.07-4.44-4.17 0-3.51 3.12-5.43 8.73-5.4v-.3c0-1.2-.33-3.36-3.3-3.36-1.35 0-2.76.42-3.78 1.08l-.6-1.74c1.2-.78 2.94-1.29 4.77-1.29 4.44 0 5.52 3.03 5.52 5.94v5.43c0 1.26.06 2.49.24 3.48h-2.4zm-.39-7.41c-2.88-.06-6.15.45-6.15 3.27 0 1.71 1.14 2.52 2.49 2.52 1.89 0 3.09-1.2 3.51-2.43.09-.27.15-.57.15-.84v-2.52zM357.22 295.76c0-1.71-.03-3.18-.12-4.53h2.31l.09 2.85h.12c.66-1.95 2.25-3.18 4.02-3.18.3 0 .51.03.75.09v2.49c-.27-.06-.54-.09-.9-.09-1.86 0-3.18 1.41-3.54 3.39-.06.36-.12.78-.12 1.23v7.74h-2.61v-9.99zM392.56 285.8c1.14-.24 2.94-.42 4.77-.42 2.61 0 4.29.45 5.55 1.47 1.05.78 1.68 1.98 1.68 3.57 0 1.95-1.29 3.66-3.42 4.44v.06c1.92.48 4.17 2.07 4.17 5.07 0 1.74-.69 3.06-1.71 4.05-1.41 1.29-3.69 1.89-6.99 1.89-1.8 0-3.18-.12-4.05-.24V285.8zm2.61 8.28h2.37c2.76 0 4.38-1.44 4.38-3.39 0-2.37-1.8-3.3-4.44-3.3-1.2 0-1.89.09-2.31.18v6.51zm0 9.69c.51.09 1.26.12 2.19.12 2.7 0 5.19-.99 5.19-3.93 0-2.76-2.37-3.9-5.22-3.9h-2.16v7.71zM416.77 305.75l-.21-1.83h-.09c-.81 1.14-2.37 2.16-4.44 2.16-2.94 0-4.44-2.07-4.44-4.17 0-3.51 3.12-5.43 8.73-5.4v-.3c0-1.2-.33-3.36-3.3-3.36-1.35 0-2.76.42-3.78 1.08l-.6-1.74c1.2-.78 2.94-1.29 4.77-1.29 4.44 0 5.52 3.03 5.52 5.94v5.43c0 1.26.06 2.49.24 3.48h-2.4zm-.39-7.41c-2.88-.06-6.15.45-6.15 3.27 0 1.71 1.14 2.52 2.49 2.52 1.89 0 3.09-1.2 3.51-2.43.09-.27.15-.57.15-.84v-2.52zM422.83 303.05c.78.51 2.16 1.05 3.48 1.05 1.92 0 2.82-.96 2.82-2.16 0-1.26-.75-1.95-2.7-2.67-2.61-.93-3.84-2.37-3.84-4.11 0-2.34 1.89-4.26 5.01-4.26 1.47 0 2.76.42 3.57.9l-.66 1.92c-.57-.36-1.62-.84-2.97-.84-1.56 0-2.43.9-2.43 1.98 0 1.2.87 1.74 2.76 2.46 2.52.96 3.81 2.22 3.81 4.38 0 2.55-1.98 4.35-5.43 4.35-1.59 0-3.06-.39-4.08-.99l.66-2.01zM438.01 287.15c.03.9-.63 1.62-1.68 1.62-.93 0-1.59-.72-1.59-1.62 0-.93.69-1.65 1.65-1.65.99 0 1.62.72 1.62 1.65zm-2.94 18.6v-14.52h2.64v14.52h-2.64zM442.09 295.16c0-1.5-.03-2.73-.12-3.93h2.34l.15 2.4h.06c.72-1.38 2.4-2.73 4.8-2.73 2.01 0 5.13 1.2 5.13 6.18v8.67h-2.64v-8.37c0-2.34-.87-4.29-3.36-4.29-1.74 0-3.09 1.23-3.54 2.7-.12.33-.18.78-.18 1.23v8.73h-2.64v-10.59z"/>
        </g>
    </g>
    <path class="Peshawar_Map_svg__st11" d="M689.72 309.74c5.02-1.81 10.71-2.37 15.25-5.35 1.47-.97 7.51-9.38 7.99-9.42 4.47-.4 4.26 1.33 7.48 3.93 2.17 1.75 5.05 2.77 7.34 4.29 1.36 4.98 5.04 10.76 11.22 8.85.8-5.09-2.16-11.32-6.75-13.33-2.98-1.31-4.24-1.09-6.19-3.9-1.67-2.41-2.17-4.28-2.33-7.31-.38-7.36.2-12.45-3.09-18.75-1.98-3.8-4.79-14.15 2.3-14.68-2.97-3.86-3.36-9.79-2.22-14.68 1.08 1.27 5.22 6.9 7.14 3.93.62-.96-1.6-5.41-2.26-6.25-.28.02-.5.14-.68.35-1.36-.69-2.3.8-3.46-1.2-.66-1.13.01-4.64.01-6 0-4.09.21-8 .76-11.98.94-6.8 4.42-13.35 6.98-19.41 2.86-6.74 6.43-15.01 7.61-22.34.54-3.35-.38-6.35-1.42-9.17-.98-2.66-1.32-6.24-2.63-8.48-.41.69-1.15 1.65-1.95 1.84-3.39.8-6.5 1.72-8.9-1.05-1.88-2.16-3.56-6.25-4.27-8.96-.86-3.29-.15-7.17-1.03-10.56-.78-3.01-1.97-5.93-2.71-8.86-3.07-12.21-1.15-26.02 10.49-32.32.27-5.22-3.72-8.54-3.31-13.65 1.83 6.24.6 10.23-4.84 14.1-5.25 3.74-7.12 6.75-7.11 13.45.01 6.23-1.21 14.1.75 19.92 1.03 3.06 2.71 5.18 2.99 8.49.29 3.53-.01 6.9.66 10.37 1.02 5.27-.81 13.65 2.71 17.76 2.35 2.74 5 4.44 6.74 7.76 1.98 3.77.97 6.12-.01 10.1-1.73 7.02-4.46 10.68-9.37 15.79-2.43 2.53-2.11 4.79-3.03 7.86-2.42 8.04-4.61 14.25-3.78 22.97.36 3.74 2.14 7.26 1.42 11.32-.71 4.04-3.18 7.22-4.61 10.96-1.27 3.34-1.92 6.91-3.9 10.29-2.95 5.04-8.64 11.07-13.06 15.71-9.37 9.82-24.93 13.57-32.36 26.18-4.16 7.06 9.15 8.63 14.75 9.45 2.48.36 5.04 1.04 7.33-.25 2.18-1.23 1.39-2.94 2.69-4.26 2.51-2.51 6.96-2.18 10.66-3.51z" id="Peshawar_Map_svg__tarbela_res"/>
    <g id="Peshawar_Map_svg__big_rivers">
        <path class="Peshawar_Map_svg__st12" d="M316.81 565.94c2.4-7.31 5.39-15.83 9.22-22.78 4.64-8.42 12.37-13.18 16.6-21.22 1.77-3.35 1.33-8.86 4.15-12.02 2.62-2.94 6.71-2.98 10.01-4.71 1.5-.79 2.75-1.58 4.32-2.27 1.68-.74 3.25-2.12 3.45-4.05.19-1.83-.48-3.64-1.5-5.01-.97-1.32-1.96-2.22-1.81-4.02 2.35-.72 4.31.35 6.63.44 1.34.05 2.08.29 3.32.71 1.54.52 3.28.44 4.93.44 1.73 0 2.05.9 3.55 1.58 1.72.77 3.81.17 5.51.8 1 .37 1.51 1.15 2.38 1.66 1.42.85 3.25.59 4.62 1.51.53.35.92.97 1.52 1.22.87.37 1.98.26 2.92.53 2.22.62 4.48.31 6.68.74 1.4.27 2.98 1.14 4.18 1.93 1.48.97 3.12.62 4.81.77 2.99.28 5.62 1.53 8.55 1.75 1.32.1 2.09-.12 3.33-.35.55-.1 1.3.21 1.81.01.82-.33.48-.36.59-1.26.75-5.75 8.93-2.57 12.15-.89.65.34 2.62 1.3 3.33.55.98-1.04-.97-3.2-1.51-3.89-2.19-2.83-3.6-5.73-3.78-9.3-.16-3.14-.45-6.27-.12-9.38.16-1.47 1.03-2.72 1.41-4.12.6-2.21.52-4.57.6-6.84.1-2.59.28-5.17.28-7.77 0-2.77.9-5.07 1.03-7.77.1-2.01-.43-4.53.71-6.19 2.09-3.05-1.64-3.04-2.55-5.62-.49-1.38-.11-3.48-.11-4.94 0-1.69-.03-3.47-.23-5.15-.25-2.09-.8-4.04 1.03-5.5 1.31-1.05 3.57-1.53 5.06-2.5.96-.62 2.29-1.23 3.11-2 .7-.65.75-1.43 1.26-2.27 1.07-1.76 3.14-2.88 5.13-3.2 1.29-.21 2.82 0 4.12 0 1.35 0 3.33.43 4.57 0 3.06-1.08 3.65-5.63 6.27-7.34 1.04-.68 2.06-1.03 2.26-2.4.15-1 .19-1.96.39-2.99.45-2.25.46-4.38 2.84-5.48 3.04-1.41 6.89-.1 9.92.47 3.22.6 9.11 1.11 10.98-2.46.41-.79.05-1.62.25-2.42.19-.78.87-1.59 1.44-2.13 1.3-1.21 3.19-1.04 4.38-2.07 1.05-.91.75-2.71 1.29-3.83.55-1.14 1.41-1.99 1.92-3.23 1.33-3.27 3.38-6.15 6.94-6.8 2.05-.37 4.73.77 6.62.09 1.56-.56 2.89-2.66 4.21-3.76 1.5-1.25 3.25-2.29 4.5-3.75s2.48-2.92 3.73-4.4c1.28-1.51 2.97-3.28 4.61-4.38 2.02-1.36 4.08.56 6.46.57 2.7.01 5.28-2.47 8.12-1.84.83.18 1.53 1.12 2.18 1.61 1.41 1.06 3 1.04 4.72 1.03 1.77 0 4.14-.41 5.81.05 1.68.46 3.51 1.62 5.38.93 1.24-.46 2.29-1.5 3.78-.75 1.59.79 2.14 2.46 4.12 2.52 2.25.06 5-.62 6.77 1.04.8.75 1.39 1.73 2.17 2.52.97.98 1.76 1.42 2.96 2 2.64 1.27 5.1 2.58 7.99 3.3 2.41.61 6.31 1.69 8.8.83 2-.69 3.26-3.5 3.77-5.34.19-.71.05-1.56.81-1.98.54-.3 1.22-.09 1.81-.21.68-.14 1.28-.49 1.9-.8 1.42-.72 2.82-1.49 4.18-2.32 2.94-1.77 5.75-3.77 8.43-5.92 7.4-5.93 15.58-12.42 20.56-20.65 2.07-3.42 2.68-8.3 4.91-11.36 3.09-4.23 8.7-5.54 11.53-10"/>
        <path class="Peshawar_Map_svg__st12" d="M19.63 272.95c.09-.05.05-.19.2-.21 2.08 1.02 3.53.39 5.36-.16 3.07-.92 6.8-.34 9.96-.32 1.07.01 2.26.18 3.18-.45.4-.27.64-.69 1.14-.92.47-.21 1.08-.37 1.58-.46 2.35-.47 4.99-.83 7.39-1.03 2.29-.19 4.95.53 7.17.01.74-.17 1.56-.74 2.32-1.01 1.09-.4 2.01-.37 3.18-.37 5.1 0 10.48.59 15.5-.12 2.96-.42 5.58.69 8.05-1.41 1.68-1.43 3.03-3.74 5.47-3.86 1.2-.06 2.17.94 3.36 1.16 2.14.4 5.4 1.1 7.49.1 1.86 2.1 5.18 3.98 7.96 4.32 1.84.23 3.71-.38 5.52-.2 1.14.11 1.51.78 2.4 1.43 1.25.91 2.43 1.31 3.94 1.32 1.47 0 3.38-.32 4.67.46.81.49 1.32 1.33 2.23 1.73 1.08.48 2.33.33 3.5.33 1.88 0 4.06.1 5.79.69 1.42.48 2.27 1.84 3.49 2.75 1.32.98 2.29 2.3 3.85 2.75.6.17 1.62.14 2.11.43.6.35.92 1.16 1.58 1.53 1.58.89 3.16.45 4.79.91 1.24.35 1.85 1.54 2.89 2.13 1.09.61 2.28.15 3.53.39 1.52.29 2.06 1.73 3.26 2.5 1.2.77 2.55.44 3.84.94 1.47.57 2.3 1.99 3.81 2.3 1.18.24 2.33.25 3.44.72 1.08.46 2.33.88 3.3 1.56.85.6 1.47 1.36 2.38 1.92 1.85 1.13 3.77 2.21 4.44 4.42a46.58 46.58 0 0 1 1.8 9.38c.13 1.53-.24 4.68 1.48 5.17.94.26 2.71.12 3.69.11 1.31-.01 2.81-.01 4-.52 1.44-.62 2.82-1.52 4.36-1.78 1.11-.19 2.29-.04 3.44 0 1.72.06 3.58.56 5.18 1.01 1.52.43 4.24 1.6 5.47 2.64.63.53 1.57 1.89 1.5 2.77-.08.97-.93 1.67-.13 2.63.37.45 1.32.88 1.81 1.17 1.03.62 2.03 1.22 2.93 2.06.75.7 1.72 1.44 2.33 2.27.57.78.76 1.47 1.6 2.08 1.15.83 1.63.97 2.03 2.39.36 1.27.22 3.11 1.11 4.18.99 1.19 3.04.96 4.43 1.09 2.51.23 4.85 1.37 7.25 2.05 1.45.41 3.35.04 4.7.68.78.37.94.73 1.54 1.38.91.97 2.03 1.35 3.05 2.09 1.42 1.02 1.67 2.98 2.68 4.36.96 1.31 1.85 2.67 3.41 3.1 1.71.47 4.2 1.58 5.85.78 1.53-.75 3.09-1.36 4.7-2.04 1.59-.67 3.58-2.51 5.39-2.29.94.11 1.75.68 2.75.83 1.03.16 1.91-.03 2.86-.12 2.46-.23 4.8.45 7.02 1.41 2 .87 2.26 3.22 4.2 4.27.99.54 2.12.56 3.12 1.03.79.38 1.56 1.05 2.45 1.26 1.6.37 3.28-.02 4.88-.09 1.81-.08 2.38.55 3.77 1.38 1.44.85 2.83.86 4.36.8 2.79-.12 3.97 1.62 6.27 2.58 2.04.86 4.47 1 6.66.97 2.11-.03 4.19-.1 6.33-.1 2.66 0 5.86.84 8.39.09 1.82-.54 2.38-1.54 3.19-2.96.62-1.1 1.28-1.68 2.49-1.98 1.55-.39 2.86-.37 4.12.49 1.46 1 2.96 2.11 4.62 2.75 4 1.54 8.69-1.85 12.61.24 2.49 1.32 4.34 2.47 7.32 2.75 1.87.17 3.74-.01 5.61.12 1.89.12 3.74 1.17 5.61 1.62 2.73.65 6.27.34 9.05.22 2.54-.11 5.32-.49 7.77.27 1.33.41 2.58.97 3.96 1.24 1.16.23 2.42.12 3.44.77 2.21 1.4 2.98 3.49 5.85 4.03 1.91.36 2.8.67 4.24 2.03 1.66 1.57 4.17 1.59 5.9 2.86 1.41 1.03 3.51 2.72 4.4 4.24.96 1.63.24 4.06 1.28 5.74.91 1.48 2.54 1.27 3.82 2.23 1.63 1.22 2.11 3.54 2.87 5.29.62 1.42 1.83 1.96 2.51 3.04.53.84.62 1.84.91 2.75.76 2.32 4.12 2.91 5.16 5.13.51 1.09.2 2.89.21 4.17 0 1.5-.62 2.4-1.03 3.77-.34 1.14-.23 2.15-.35 3.32-.2 1.97-.18 4.02-.09 6.08.09 1.99.04 3.97.78 5.73M525.96 367.64c1.64-.64 3.41-1.94 5.16-2.52 1.02-.33 2.38-.26 3.38.2 1.03.47 1.28 1.67 1.93 2.49.82 1.03 2 2.02 3.04 2.82 1.17.89 3.28 2.05 4.77 1.23 1.43-.79 2.78-1.99 4.14-2.99 1.82-1.33 2.89.29 4.89-.31 1.39-.42 2.11-1.87 2.93-2.98 1.15-1.57 2.55-3.9 4.26-4.7.98-.46 1.84-.21 2.63.59 1.36 1.38.15 2.17-.2 3.71-.97 4.22 4.48 3.58 7.2 3.96 1.3.18 2.33.65 3.2-.41.71-.87.93-2.05 1.96-2.72 1.11-.72 2.11-.53 2.96.35.88.92 1.14 1.18 2.36 1.6 1.49.52 1.91.57 3.39.13.78-.23 2.21-.58 2.75.24"/>
    </g>
    <g id="Peshawar_Map_svg__flags">
        <a xlink:href="#Peshawar_Map_svg__b">
            <path id="Peshawar_Map_svg__dag" onclick="navTo('b')" class="Peshawar_Map_svg__hoverthing7" d="M217.26 439.7l-.66-.01c-2.03-.03-3.69 1.82-3.71 4.13v.36c-.02 2.28 1.58 4.15 3.58 4.17l6.83.09.09-8.66-6.13-.08"/>
        </a>
        <a xlink:href="#Peshawar_Map_svg__a">
            <path id="Peshawar_Map_svg__garhi" onclick="navTo('a')" class="Peshawar_Map_svg__hoverthing5" d="M179.14 464.25l-.66-.01c-2.03-.03-3.69 1.82-3.71 4.13v.36c-.02 2.28 1.58 4.15 3.58 4.17l6.83.09.09-8.66-6.13-.08"/>
        </a>
    </g>
    <g id="Peshawar_Map_svg__blowups">
        <path id="Peshawar_Map_svg__box2" class="Peshawar_Map_svg__st13" d="M223.92 437.7h21.71v19.55h-21.71z"/>
        <path id="Peshawar_Map_svg__box1" class="Peshawar_Map_svg__st14" d="M186.11 462.65h14.09v17.39h-14.09z"/>
    </g>
</svg>
