<?xml version="1.0" encoding="utf-8"?>
<!-- Generator: Adobe Illustrator 23.0.0, SVG Export Plug-In . SVG Version: 6.00 Build 0)  -->
<svg version="1.1" xmlns="http://www.w3.org/2000/svg" xmlns:xlink="http://www.w3.org/1999/xlink" x="0px" y="0px"
	 viewBox="0 0 743.99 614.42" style="enable-background:new 0 0 743.99 614.42;" xml:space="preserve">
<style type="text/css">
	.Arched_x0020_Green{fill:url(#SVGID_1_);stroke:#FFFFFF;stroke-width:0.25;stroke-miterlimit:1;}
	.st0{display:none;}
	.st1{opacity:0.66;fill:#FAED23;}
	.st2{fill:none;}
	.st3{fill:#D1BD40;}
	.st4{fill:none;stroke:#000000;}
	.st5{stroke:#000000;}
	.st6{fill:#333333;}
	.st7{fill:none;stroke:#000000;stroke-width:2;stroke-miterlimit:10;}
	.st8{fill:#736357;}
	.st9{fill:none;stroke:#4BACE0;}
	.st10{fill:#4BACE0;stroke:#4BACE0;stroke-width:2;}
	.st11{fill:none;stroke:#4BACE0;stroke-width:2;}
</style>
<linearGradient id="SVGID_1_" gradientUnits="userSpaceOnUse" x1="100.4149" y1="734.6608" x2="101.122" y2="733.9536">
	<stop  offset="0" style="stop-color:#20AC4B"/>
	<stop  offset="0.9831" style="stop-color:#19361A"/>
</linearGradient>
<g id="Layer_1" class="st0">
</g>
<g id="GE_Pesh_West" class="st0">
</g>
<g id="GE_Pesh_East" class="st0">
</g>
<g id="Yates_and_Hussain_map" class="st0">
</g>
<g id="BAsin_OUtline">
	<path class="st1" d="M639.09,352.7c1.38-2.24,3.25-3.98,6.2-4.33c0.11-0.44,0.1-0.96,0.01-1.4c-0.18-0.04-0.37-0.08-0.55-0.11
		c-1.25-1.95-5.96-2.31-8.05-3.35c-2.57-1.28-5.44-2.44-5.82-5.64c-0.48-4.01-0.25-7.9,2.04-10.62c2.81-3.35,5.59-4.42,8.83-6.56
		c4.21-2.78,6-7.38,9.48-10.86c1.34-1.33,5.42-3.38,5.6-5.44c0.18-2.1-2.88-3.17-3.38-5.07c-2.84-0.9-6-4.31-8.41-4.52
		c-2.28-0.2-4.81,2.49-6.52,3.65c-3.56,2.42-11.19,4.94-14.57,1.73c-1.14-1.09-2.25-3.85-3.25-5.19c-2.2-2.94-2.74-2.04-6.13-0.84
		c-3.21,1.14-6.09,0.97-9.64,1.21c-3.08,0.21-3.66,0.82-5.71,2.95c-3.62,3.77-7.64,4.26-11.16,0.08c-1.75-2.07-2.29-3.25-4.82-4.61
		c-2.25-1.21-4.4-2.59-6.57-3.31c-1.72-0.57-5.88-1.25-7.93-0.56c-1.93,0.65-3.21,3.04-4.72,4.53c-1.65,1.64-3.72,3.34-5.57,5.06
		c-2.03,1.88-4.63,2.51-6.57,4.29c-1.75,1.61-2.19,3.81-4.5,4.85c-2.91,1.31-5.61,0.13-8.42-0.38c1.32-3.28,0.69-5.9,4.49-7.55
		c1.75-0.76,3.46-1.02,5.04-1.82c1.49-0.76,2.93-2.34,4.59-2.88c2.83-0.91,2.83,0.08,4.61-2.4c0.94-1.32,2.1-3.08,2.73-4.52
		c0.71-1.62,0.16-3.04,2.03-4c1.48-0.76,4.53,0.98,5.81-0.2c2.41-2.22-4.46-7.75-6.04-8.9c-1.67-1.2-3.63-2.31-5.43-3.32
		c-2.2-1.23-4.49-1.12-6.72-2.26c-4.31-2.22-4.95-5.54-6.85-9.5c-1.77-3.67-1.77-5.49-0.56-9.37c0.85-2.71,1.74-4.93-1.61-6.19
		c-2.56-0.96-3.97,0.1-6.22-2.56c-1.44-1.71-2.6-4.07-2.84-6.31c-0.34-3.14,0.45-7.86-2.79-9.7c-2.87-1.63-3.08,0.53-3.51-3.06
		c-0.29-2.42,0.47-5.53,1.41-7.74c1.13-2.65,3.73-5.6,3.06-8.63c-2.59-0.48-7.05,3.23-8.61,4.99c-0.77,0.87-1.44,3.15-2.54,3.57
		c-0.55,0.21-3.27-0.91-3.24-1.13c0.28-2.05,3.21-2.45,2.37-5.69c-0.4-1.55-2.31-3.24-3.55-4.22c-2.16-1.71-2.77-1.86-3.1-4.81
		c-0.21-1.91,0.93-5.18-1.76-5.48c-0.03-0.17-0.07-0.33-0.1-0.5c-0.28-0.09-0.52-0.02-0.81-0.09c-0.04-1.53,0.69-2.8-0.41-4.12
		c-0.82-0.99-3.15-0.43-3.85-1.59c-0.81-1.34,0.57-2.98,0.83-4.28c0.19-0.91,1.19-8.23,1.52-8.33c-3.82,1.16-14.37,4.36-17.1-0.7
		c-1.93-3.58-8.85,0.12-10.67,1.8c-3.57,3.28-6.73,3.1-11.27,3.33c-2.81,0.14-8.6,0.44-10.31,3.14c-1.19,1.88,0.37,4.59-0.36,6.57
		c-1.4,3.84-8.21,2.87-11.72,3.05c-0.4,1.83,0.7,4.21,1.2,5.93c2.11,1.27,3.9,3.08,6.04,4.51c2.3,1.53,5.54,1.52,8.09,2.46
		c2.55,0.94,4.08,2.85,6.32,4.32c1.33,0.87,3.1,0.92,4.22,2.1c2.98,3.15,1.62,10.55-2.99,11.39c-5.13,0.94-7.89-1.46-11.17-4.54
		c-4.03-3.78-7.23-0.93-12.36-0.6c-5.4,0.35-11.07-1.14-16.29-0.31c-2.22,0.35-3.25,1.83-5.1,2.65c-2.41,1.06-5.02,0.48-7.55,0.35
		c-6.05-0.29-9.87,0.82-14.72,3.99c-0.29,0.97-1.59,2.82-2.68,3.35c-1.73,0.84-5-0.14-6.12-1.58c-1.48-1.91-0.78-4.27,0-6.35
		c2.09-5.63,6.24-5.91,11.91-7c5.79-1.12,11.24-1.96,16.81-3.77c3.25-1.06,10.81-2.58,12.01-6.69c0.86-2.93-1.9-3.13-3.33-4.77
		c-3.48-4.01,2.22-7.51,6.02-9.49c2.31-1.2,4.85-1.28,6.96-2.88c0.91-0.69,3.8-3.34,3.91-4.27c0.27-2.24-3.12-2.83-1.75-4.76
		c1.88-2.65,6.47-1.08,9.2-1.66c2.48-0.53,8.16-3.44,8.78-6.3c1.1-5.1,3.17-5.61,7.89-7.18c2.39-0.8,2.18-0.83,3.61-3.03
		c1.13-1.74,1.77-2.87,3.63-3.84c1.58-0.82,3.01-0.57,4.19-2.11c-3.92-0.26-7.32-0.87-11.24-1.26c-2.56-0.25-7.09,0.2-9.18-1.52
		c-1.95-1.61-2.35-5.41-4.22-7.3c-1.85-1.87-3.72-4.36-5.89-3.94c-0.49,0.1-1.85,1.62-3.23,1.83c-1.17,0.18-2.43,0.07-3.62,0.07
		c-2.45,0-5.45-0.49-7.84,0c-3.93,0.8-9.72,4.27-12.74,6.86c-3.78,3.24-6.22,6.96-11.68,6.1c-5.13-0.81-9.88-0.81-14.49-3.28
		c-1.68,1.98-2.81,2.91-5.41,2.99c-3.09,0.09-2.71-1.26-4.9-2.35c-4.42-2.22-6.34,4.16-8.75,6.79c-2.36,2.57-6.22,5.39-9.87,5.81
		c-3.38,0.39-6.4-0.03-9.4,1.83c-2.89,1.79-5.15,4.11-8.35,5.56c-4.73,2.15-10.4-0.01-15.26,2.61c-4.52,2.44-9.3,1.95-14.69,1.65
		c-0.11-2.52,3.92-5.12,6.09-5.57c1.83-0.38,3.41,0.06,5.22-0.67c1.55-0.62,2.55-1.95,3.99-2.64c2.49-1.19,5.26,0.33,7.96,0.34
		c3.55,0.01,5.11-1.89,7.77-3.9c4.04-3.05,10.72-4.69,13.85-8.59c0.99-1.23,0.99-2.47,0.95-3.97c-0.05-1.76,0.49-3.18,0.73-4.88
		c0.44-3.12,1.8-6.01,3.85-8.38c2.07-2.4,4.67-2.72,6.88-4.5c2.18-1.74,4.72-4.06,7.2-6.05c3.46-2.77,9.98-6.08,11.62-10.4
		c0.79-2.09,0.61-4.16,1.8-6.04c2.93-4.64,5.58-5.78,5.31-11.78c-2.45-0.19-2.06-1.74-3.27-2.77c-1.24-1.05-2.04-0.95-3.63-1.87
		c-2.09-1.21-3.66-4.54-4.88-6.51c-3.62-0.22-8.53,0.24-11.64-1.62c-1.55-0.93-1.68-2.68-3-3.93c-1.14-1.08-2.75-1.01-3.93-2.12
		c-2.54-2.39-1.91-8.98-5.48-10.49c-2.96-1.25-4.95,0.38-5.74,2.42c-0.73,1.89-1.29,6.26-4.23,4.22
		c-3.92-2.72-1.53-11.21,0.24-14.17c0.85-1.42,2.52-4.91,0.97-6.63c-1.2-1.33-7.37-0.38-9.6-0.26c-0.09,3.79,2.82,12.79-2.71,13.88
		c-0.51,1.24-1.48,1.53-2.23,2.59c-0.62,0.88-0.77,2.49-1.36,3.16c-2.28,2.63-8.01,0.83-9.61,3.94c-1.67,3.25,2.92,7.39,1.98,10.15
		c-0.6,1.75-5.03,1.72-7,2.93c-1.41,0.86-2.09,1.88-3.79,2.27c-1.54,0.36-2.79-0.6-4.29-0.38c-1.93,0.29-3.02,2.51-2.46,4.28
		c0.77,2.45,3.84,2.66,5.89,3.34c1.34,0.45,4.48,0.48,5.74,1.61c2.4,2.16-0.53,6.62-2.83,7.84c-2.92,1.55-4.6-0.05-5.81,4.03
		c-0.55,1.87,0.34,2.96-2.06,2.97c-0.57,0-3.28-1.83-3.54-2.36c-1.99-3.98,6.41-8.24,7.11-12.14c0.42-2.32-1-3.75-1.43-5.97
		c-0.41-2.12-1.01-4.56-1.21-6.63c-0.69-6.9,6.31-17.56-4.5-18.82c-5.88-0.68-12.63,2.97-17.71,5.54c-0.96,0.48-1.78,1.5-2.86,1.67
		c-0.43,0.07-4.26-0.71-4.11-1.03c-1.45,3.02-0.12,5.01,2.1,6.85c1.85,1.53,3.82,2.66,5.37,4.58c0.77,0.95,1.04,2.06,1.86,2.97
		c4.49,0.57,2.06,7.84,1.39,10.6c-0.47,1.94-1.44,3.99-3.25,5.07c-1.65,0.98-3.09,0-3.98,2.42c-4.14-0.18-7.02-3.57-8.88-6.96
		c0.99-0.93,1.81-2.22,2.66-2.95c1.06-0.9,3.07-0.98,3.86-1.8c1.11-1.16,0.89-3.01,2.12-4.39c0.93-1.05,2.44-1.43,3.53-2.02
		c2.65-1.45,4.87-2.17,3.4-5.41c-1.43-3.14-3.91-4.44-6.89-5.11c-0.03-0.17-0.07-0.33-0.1-0.5c-2.87-1.54-6-3.01-9.17-2.71
		c-1.15,0.11-2.77,0.17-3.71-0.26c-0.49-0.22-2.44-1.49-2.58-1.88c-0.12-0.33,0.43-3.19,0.61-3.57c0.59-1.23,1.75-0.86,3.11-0.86
		c2.55,0,4.64,0.14,6.85-1c1.08-0.56,1.41-1.23,2.17-2.12c0.61-0.71,1.71-1.27,2.51-2.06c0.86-0.86,1.27-1.52,2.31-2.14
		c1-0.6,2.1-1.08,2.15-2.39c0.13-3.55-7.36-4.61-9.67-4.86c-2.46-0.27-5.02-1.09-7.49,0.12c-2.52,1.23-8.58,7.43-11.52,3.74
		c-1.23-1.54-0.66-4.2-2.28-5.43c-1.48-1.13-4.92-0.42-6.85-0.42c-2.35-0.01-3.43,2-5.29,2.99c-1.76,0.94-3.9,1.18-5.84,1.72
		c-2.41,0.67-5.43,0.57-7.67,1.59c-1.15,0.52-2,0.88-3.32,1.16c-2.67,0.56-5.02,1.29-7.7,1.68c-2.5,0.36-4.06,2.34-6.62,2.96
		c-1.57,0.38-1.82,0.4-3.04,1.36c-0.51,0.4-2.83,1.45-2.05,2.54c0.01,0.04,0.02,0.07,0.03,0.11c1.79,0.09,2.83,0.21,4.28,0.88
		c1.04,0.48,2.17,0.98,3.3,1.11c2.01,0.22,5.37-1.14,6.1,1.17c0.4,1.28-0.12,2.16,1.57,2.43c2.26,0.35,4.9-1.09,7.17-1.28
		c1.69-0.15,3.44-0.4,5.11-0.43c4.53-0.07,5.32,5.38,8.75,6.63c1.55,0.56,3.46,0.52,5.08,0.37c1.33-0.13,2.33-0.77,3.71-0.57
		c1.13,0.16,1.72,1.08,2.69,1.3c1.25,1.22,1.02,2.72,1.02,4.54c0,0.94,0.16,2.14-0.64,2.8c-0.79,0.65-2.69-0.06-3.33,0.65
		c-1.39,1.55-2.27,4.03-3.03,5.94c-0.61,1.54-0.93,1.28-2.56,1.77c-1.15,0.34-2.22,1.19-3.4,1.4c-3.43,0.61-6.69-2.1-8.1-4.97
		c-0.98-2-2.46-4.17-2.26-6.49c0.24-2.72,2.54-3.03,4.84-3.16c0.9-0.05,2,0.06,2.85-0.31c1.16-0.51,1.49-2.11,2.38-2.6
		c2.35-1.31-3.17-5.84-4.99-4.85c-0.03,0.37-0.26,0.47-0.34,0.81c-1.66-0.31-3.48,1.81-4.18,3.01c-0.88,1.5-1.44,3.19-3.22,3.86
		c-3.09,1.15-6.44-0.25-9.56-0.57c-2.08-0.22-4.55-1.6-6.82-0.82c-3.03,1.04,0.86,3.24,1.82,3.97c1.57,1.18,3.87,3.12,5.97,3.58
		c0.51,2.58,4.23,5.03,0.13,6.65c-1.29,0.51-2.79,0.52-4.25,0.6c-0.83,0.04-1.66,0.08-2.25-0.29c-0.56-0.35-0.64-1.02-1.15-1.3
		c-0.04-0.13,0-0.25-0.04-0.38c-0.17-0.48-2.21-0.74-2.65-0.6c-0.83,0.25-1.79,1.44-1.9,2.29c-0.27,2.09,2.55,3.76,0.85,5.96
		c-1.29,1.66-4.07-0.44-5.67-0.85c-0.93-1.67-1.75-1.75-3.45-2.54c-1.36-0.63-2.37-2.17-3.97-2.12c-1.13,2.96-3.53,5.11-5.2,7.53
		c-0.63,0.91-0.56,1.01-1.81,1.01c-0.82,0-1.75-0.13-2.39-0.47c-0.4-0.21-0.47-0.77-0.78-0.94c-0.8-0.45-1.97-0.48-2.82-0.91
		c-0.78-0.4-1.31-0.96-2.01-1.47c-0.82-0.6-1.82-1.97-2.83-1.47c-0.21,0.81-0.49,1.8-1.43,2c-2.51,3.07-6.05,2.12-9.73,2.12
		c-0.91,0-1.78-0.2-2.53-0.29c-1.23-0.14-1.06,0.01-1.92,0.68c-3.38,2.63-7.43,0.85-10.92,2.63c-0.84,0.43-1.43,0.9-2.46,0.68
		c-0.84-0.18-1.33-0.82-2.14-1.14c-1.54-0.61-3.49-0.08-5.14,0c-1.98,0.1-3.99-0.08-5.97,0.02c-0.71,1.99-2.47,3.02-2.74,5.4
		c-0.27,2.42-2.34,3.93-4.16,5.43c-2.06,1.69-4.49,1.89-6.54,3.46c-1.48,1.13-3.58,2.97-3.03,5c0.35,1.28,2.01,1.34,2.6,2.54
		c0.45,0.9-0.11,2.49-0.67,3.45c-0.94,1.62-2.27,0.92-4.01,1.25c-3.02,0.58-5.23,3.77-6.02,6.67c-0.57,2.09-0.94,3.91-1.14,6.17
		c-0.2,2.2,0.1,4.5-0.14,6.71c-0.15,1.37-0.48,1.59-1.86,1.71c-1.42,0.12-3.05,0.03-4.39-0.27c-1.45,2.38-3.22,4.72-5.73,5.96
		c-1.42,0.7-3.03,0.92-4.29,1.6c-2.62,1.43-6.23,2.67-7.53,5.58c-0.74,1.65-0.54,3.31-0.88,5.01c-0.4,1.99-1.1,3.67-0.98,5.77
		c2.64,1.13,5,1.87,7.8,2.9c0.31,2.32,0.47,4.51-0.26,6.69c-0.64,1.92-1.86,4.14-2.83,6.13c-0.83,1.72-1.93,3.44-3.14,5.02
		c-0.6,0.78-0.97,1.95-1.56,2.69c-0.69,0.86-1.63,1.33-2.36,2.24c-1.4,1.76-1.61,3.87-3.96,4.57c-1.49,0.44-6.03-0.01-5.43,2.61
		c0.1,0.44,0.7,0.69,0.87,1.25c0.15,0.49,0.02,1.37-0.01,1.89c-0.04,0.92,0.07,2.58-0.85,3.15c-1.08,0.66-3.8,0.05-5-0.01
		c-2.03-0.09-6.34,0.14-6.85,2.57c-0.25,1.17-0.57,2.06-1.18,3.11c-1.13,1.96-3.7,2.75-5.96,2.6c-2.43-0.16-3.46-2.97-6.28-2.86
		c-2.55,0.1-4.85,0.1-7.41-0.27c-3.68-0.54-7.8-1.8-11.56-1.01c-4.26,0.89-6.9,4.57-7.56,8.57c-0.35,2.11-2.57,2.62-2.89,4.99
		c-0.29,2.2,0,4.4,0.75,6.42c1.08,2.89,2.99,4.29,4.7,6.72c0.37,0.53,1.02,1.2,0.86,1.99c-0.24,1.17-1.39,0.83-2.3,1.28
		c-1.23,0.6-3.25,2.45-1.56,3.58c0.74,0.5,1.99,0.17,2.58,0.99c0.89,1.25,0.06,3.32,0.17,4.71c0.09,1,0.8,2.54,0.4,3.57
		c-0.36,0.93-1.26,1.01-1.29,2.14c-0.06,2.22,6.18,4.85,3.29,7.03c-1.12,0.84-2.62,0.45-3.85,1.11c-1.3,0.69-2.06,1.81-2.96,2.89
		c-1.01,1.22-1.4,1.59-1.46,3.24c-0.06,1.71-0.27,2.68-0.83,4.29c-0.51,1.47-1.29,2.91-1.74,4.39c-0.41,1.35-0.27,2.84-0.43,4.27
		c-0.2,1.86-1.04,3.26-1.41,5.02c-0.41,1.9,0.3,3.87-0.48,5.72c-0.51,1.22-1.37,1.95-1.55,3.39c-0.19,1.57-0.04,3.15-0.14,4.72
		c-0.31,5.09-0.11,9.92-3.14,14.01c-1.06,1.43-1.86,2.98-3.03,4.29c-1.79,2.02-2.9,2.04-3.09,4.96c-0.37,5.67-1.34,12.04,0.03,17.58
		c0.72,2.92,0.39,6.12,0.37,9.11c-0.02,3.48-0.09,6.97-0.28,10.44c-0.44,8.24-0.71,16.61-0.71,24.84c0,7.26,0,14.52,0,21.78
		c0,2.64-0.11,5.37,0.14,7.92c0.1,1.07-0.17,3.23,0.43,4.1c0.46,0.67,1.92,1.07,2.63,1.47c1.19,0.67,2.15,1.22,2.46,2.67
		c0.5,2.31-1.29,2.95-1.98,4.63c1.71,0.15,2.05-0.54,3.4-1.25c1.3-0.68,2.92,0.12,4.33,0.01c1.31-0.11,3.34-0.88,4.55-0.03
		c0.99,0.69,1.23,1.93,0.23,2.66c0.69,0.07,1.52,0.76,2.14,0.76c0.74,0,0.82-0.33,1.39-0.61c1.28-0.63,1.75-0.55,3.18-0.28
		c1.37,0.26,3.83-0.42,5.04,0.14c0.32,0.15,0.51,0.78,0.88,1.02c0.5,0.33,1.64,0.54,2.24,0.66c1.21,0.23,2.07,0.14,3.12,0.86
		c1.8,1.22,3.28,2.2,5.62,2.44c2.05,0.21,5.14-0.29,6.18,1.91c0.23,0.48,0.44,1.43,0.28,1.97c-0.05,0.17-0.87,1.1-0.9,1.02
		c-0.1,0-0.1,0-0.02-0.01c1.03,0,1.78,0.02,2.68-0.38c1.12-0.5,1.49-0.68,3-0.63c1.13,0.03,2.53-0.03,3.49,0.4
		c0.7,0.31,1.14,1.02,1.84,1.27c-0.27,1.99,2.53,3.47,4.18,3.54c0.17,0.8,0.09,1.54,0.51,2.25c0.76,1.27,2.52,0.59,3.17,1.74
		c0.54,0.96-0.68,1.76-1.14,2.55c-0.66,1.13-0.57,1.83-0.64,3.14c-0.06,1.21-0.33,1.05-0.92,1.92c-0.5,0.72-0.34,1.49-0.81,2.19
		c-2.32,3.42-6.71,2.75-10.09,2.01c-2.92-0.64-6.47-0.92-9.43-0.76c0.22,2.84,3.57,3.08,5.57,4.88c1.57,1.42,4.28,3.69,4.36,5.84
		c-1.38,0.51-6.07,3.18-5.31,4.58c0.84,1.55,4.47,1.02,5.83,1.75c2.2,1.18,2.78,2.78,4.71,4.36c4.36,3.57,8.7,7.13,14.41,8.38
		c5.5,1.21,12.81-0.49,18.07-1.33c5.53-0.89,9.5-3.22,15.33-2.05c5.85,1.18,8.75,2.07,15.17,0.54c11.53-2.75,23.43-2.49,34.7-5.99
		c9.47-2.93,20.94-6.16,29.3-11.39c4.76-2.98,6.82-8.62-1.08-7.25c0.38-2.77-1.53-9.51-3.55-11.21c-2.55-2.16-8.81-1.49-11.96-1.49
		c-1.39,0-2.57-0.05-3.76,0.53c-3.01,1.47-5.94,2.95-8.99,4.4c-3.08,1.47-4.91,3.34-7.29,5.72c-2.17,2.16-5,4.49-8.28,3.67
		c-2.4-0.6-4.7-2.22-7.08-3.05c-1.12-0.39-2-0.47-1.77-1.94c0.19-1.2,1.23-1.71,2.21-2.09c1.64-0.65,2.7-1.13,3.98-2.45
		c0.58-0.59,1.52-1.39,2.31-1.59c0.79-0.2,1.6,0.04,2.37-0.25c0.85-0.32,1.61-1.23,2.41-1.77c0.91-0.62,1.67-0.6,2.65-0.94
		c1.09-0.37,1.86-1.33,2.95-1.67c0.94-0.29,1.84-0.19,2.8-0.67c2.28-1.14,4.6-1.84,7.17-1.93c2.72-0.1,4.61,0.69,6.62,2.18
		c4.21,3.13,9.93,3.78,15.23,4.81c2.2,0.43,4.43,1.01,6.7,1.1c2.12,0.08,2.78-0.72,4.2-2.16c1.2-1.22,0.86-1.62,0.57-3.12
		c-0.54-2.72,0.67-7.96,3.58-9.1c1.47-0.58,2.86-0.96,4.4-1.17c1.01-0.13,2.05-0.23,3.06-0.38c1.12-0.17,2.13-0.78,3.16-1.42
		c2.95-1.83,5.93-4.01,9.36-4.4c2-0.23,5.68,0.65,6.45-1.52c0.56-1.56-0.78-6.26,0.88-6.83c1.56-0.53,3.56,1.03,5.32,0.41
		c1.52-0.54,1.92-2.53,3.29-3.32c1.59-0.92,4.59,0.06,6.41,0.13c1.82,0.07,2.16-0.26,3.44-1.17c1.13-0.8,1.93-0.9,1.77-2.56
		c-0.15-1.48-1.37-2.75-0.52-4.14c1.39-2.26,5.32-1.4,6.59-3.64c0.89-1.57-0.25-3.82,0.4-5.42c1-2.48,7.19-5.07,9.58-4.05
		c1.21-0.91,1.57-0.93,3.16-0.97c1.22-0.04,2.46-0.06,3.66-0.32c2.46-0.52,4.61-1.56,7.04-1.82c2.02-0.21,6.69-1.41,8.56-0.35
		c0.5,0.29,0.53,0.9,1.09,1.18c0.64,0.32,2.04,0.29,2.77,0.23c0.1-1.2-1.03-1.9,0.04-2.76c1.02-0.81,3.3-0.32,4.52-0.38
		c1.43-0.07,2.86-0.35,4.29-0.51c1.48-0.16,2.28-1.27,3.55-1.79c1.92-0.79,4-0.66,5.99-1.08c2.42-0.52,5.17-2.51,6.45-4.48
		c1.62-2.5,4.8-3.51,7.64-3.9c1.02-0.14,3.08,0.21,4-0.18c3.35-1.41,3.16-3.7,7.17-3.94c2.75-0.16,5.47,0.58,8.05,0.51
		c0.99-0.02,1.29,0.37,2.31-0.22c0.42-0.25,1.5-2.13,1.53-2.13c0.17-0.03,0.33-0.07,0.5-0.1c0.37-1.3,1.3-2.41,2.18-3.5
		c6.7-8.34,18.95-5.96,28.63-5.5c5.96,0.29,7.98,3.47,12.66,6.11c3.32,1.87,7.28,2.29,10.49,4.2c1.78,1.06,3.83,3.71,6.05,4.21
		c2.38,0.54,3.05,8.32,4.01,10.26c1.76,3.56,5.62,5.71,9.32,6.63c2.52,0.63,4.35,2.16,6.61,3.27c2.74,1.34,5.81,1.35,8.61,2.31
		c2.75,0.94,5.06,2.58,8,3.1c2.7,0.48,5.07,0.79,7.83,0.91c3.16,0.14,6.03,0.82,8.76,2.11c2.64,1.25,2.56,2.07,1.57,4.89
		c-0.86,2.44-2.2,3.68-3.68,5.43c-1.37,1.62-2.21,4.33-3.7,5.89c-10.61,11.12-33.56,4.7-46.48,3.07c-9.3-1.18-18.33-0.48-27.67-1.37
		c-17.77-1.69-38.69-6.09-55.42,2.4c-10.01,5.08-17.31,9.19-29.51,9.19c-5.83,0-10.8,0.05-15.25,2.02
		c-3.01,1.33-6.16,2.33-9.12,3.77c-2.79,1.36-5.08,3.74-7.58,5.64c-0.94,0.71-4.66,1.33-4.29,2.7c2.5-0.12,5.37,0.37,7.81,0.86
		c4.95,1.01,9.95,1.59,14.88,2.75c4.72,1.12,9.15,2.63,13.97,3.32c3.4,0.49,6.8,1,10.2,1.37c4.47,0.48,8.58,1.71,12.92,2.71
		c4.45,1.02,9.02,1.45,13.57,1.64c9.59,0.41,19.49,1.08,29.05,0.47c2.89-0.18,6.17,0.87,8.99,1.61
		c19.22,5.03,35.27,17.32,46.21,33.78c3.63,5.46,8.06,9.79,14.43,11.75c3.26,1,6.41,1.28,9.46,2.75c3.24,1.57,6.95,1.42,10.11,2.91
		c1.31,0.62,2.73,1.32,4.15,1.73c3.25,0.94,6.72,0.78,10.06,0.69c3.09-0.08,5.54,1.33,8.51,2.17c5.55,1.57,11.53,1.64,17.24,1.92
		c4.9,0.24,10.27-0.38,15.1,0.44c1.5,0.25,2.89,0.72,4.28,1.16c1.54,0.49,3.04,0.55,4.8,0.81c5.65,0.83,11.25,1.95,16.63,3.85
		c4.54,1.61,9.74,3.71,12.68,7.74c11.8-0.49,23.81,5.72,33.87,10.93c10.06,5.21,23.96,7.17,31.5,14.5
		c5.18,5.03,6.26,7.28,14.01,7.35c10.95,0.1,20.82-0.69,31.22-4.16c13.77-4.59,25.46-4.71,40.52-5.24
		c0.7-14.14,0.75-28.05,0.77-42.08c0.02-16.2-4.17-28.51-14.94-40.6c-3.55-3.98-7.73-7.19-11.47-10.97
		c-2.73-2.77-5.51-6.09-8.88-8.09c-2.05-1.21-3.98-0.48-6.3-0.22c-4.9,0.55-8.45,4.12-12,7.21c-2.19,1.91-4.43,3.14-7.35,2.37
		c-2.04-0.54-3.73-1.29-5.92-1.27c-3.02,0.03-6.07,0.38-9.11,0.38c-5.73,0-11.35-1.1-16.99-2.02c-5.47-0.9-11.67-0.31-16.88-2.31
		c-1.68-0.65-4.08-1.5-4.41-3.38c-0.51-2.87,2.35-3.69,4.62-3.93c3.13-0.33,7.01-1.17,10.04,0.01c1.74,0.68,2.94,0.39,4.56-0.12
		c2.35-0.73,4.77,0.1,7.08-0.51c2.49-0.66,4.84,0.3,7.33,0.64c1.78,0.25,3.53,0.37,5.33,0.37c1.74,0,3.49,0.03,5.23,0
		c1.69-0.03,3.08-0.79,4.61-1.49c3.52-1.6,7.16-3.89,9.83-6.74c1.15-1.23,2.46-3.04,2.77-4.7c0.96-5.1-6.3-7.59-10.13-8.81
		c-1.99-0.63-4.62-1.21-5.01-3.55c-0.23-1.37-0.02-2.99,0.51-4.21c0.78-1.78,2.17-3.72,3.88-4.72c2.07-1.22,4.56-1.11,6.75-1.97
		c5.18-2.04,7.48-5.93,10.38-10.19c2.93-4.29,8.06-8.32,12.19-11.57c1.85-1.46,4.28-3.63,6.27-4.67
		c11.12-5.79,22.94-13.86,31.31-23.78c6.31-7.48,14.25-14.14,20.78-21.55c8.23-9.36-0.97-18.81-5.92-26.76
		c-4.77-0.3-7.04,2.79-10.75,5.43c-5.12,3.64-9.32,8.07-13.65,12.69c-4.05,4.32-8.31,8.35-12.3,12.63
		c-4.59,4.93-10.53,11.12-12.58,17.56c-1.59,4.98-3.87,10.76-7.71,14.6c-3.8,3.8-8.96,6.86-13.35,9.56
		c-4.79,2.95-6.86,7.84-12.13,10.03c-2.27,0.94-4.4,1.55-6.78,2.43c-2.49,0.92-3.61,3.03-5.75,3.9c-0.43,1.79-1.83,3.31-2.17,5.07
		c-0.37,1.89,0.76,4.69-1.27,5.99c-2.09,1.35-9.91-0.36-12.29-0.85c-2.71-0.56-3.61-3.1-6.01-3.94c-2.37-0.83-5.73,0.39-7.27,1.83
		c-3.71,3.46-5.88,6.05-11.44,6.32c-2.87,0.14-5.79,0.67-5.37-2.95c0.26-2.22,2.4-4.7,3.32-6.7c3.88-8.35,8.71-16.36,15.59-22.66
		c4.85-4.44,12.07-5.74,16.38-10.82c3.22-3.79,3.81-8.39,5.94-12.66c1.41-2.84,4.26-5.53,4.49-8.85c0.11-1.62-0.95-3.04-0.33-4.56
		c0.6-1.48,2.91-2.26,3.92-3.47c1.67-2.02,2.95-4.99,4.08-7.48C636.62,358.32,637.55,355.2,639.09,352.7z"/>
	<path class="st2" d="M153.31,125.29c0.23-0.03,0.46-0.04,0.69-0.02c0.57,1.99,1.29,3.9,1.5,5.99c0.17,1.74-0.27,3.43,0.24,5.11"/>
</g>
<g id="bedrock">
	<path class="st3" d="M190.37,476.2c4.29-0.07,8.57,0.16,12.83-0.23c3.65-0.34,6.9,1.49,10.56,1.72c4.5,0.29,9.06-0.06,13.52-0.27
		c4.09-0.19,8.34-0.45,12.35-1.07c6.36-0.97,11.99-3.21,18.06-5.12c3.88-1.22,8-3.24,11.61-5.14c6.74-3.55,12.72-9.9,20.58-10.7
		c4.68-0.48,8.7-2.01,12.87-3.52c3.78-1.37,8.16-0.04,12.04-0.27c4.39-0.27,7.14-3.55,11.21-4.85c4.58-1.45,9.28-2.57,13.77-4.32
		c2.5-0.97,5.02-0.7,7.6-1.07c2.86-0.41,5.66-1.02,8.59-1.21c6.42-0.41,12.85-0.16,19.27-0.16c2.53,0,5.1-0.22,7.59-0.25
		c3.03-0.03,5.9,1.12,8.87,1.54c4.93,0.7,9.78,0.69,14.69,1.47c5.39,0.86,10.88,0.72,16.31,1.25c4.09,0.4,8.43,0.99,12.46,0.47
		c3.69-0.48,7.34,0.11,11.02-0.25c3.49-0.35,7.08-0.66,10.42-1.81c3.68-1.26,4.62-3.04,7.25-5.5c1.02-0.96,2.19-2.05,3.29-3
		c2.27-1.96,5.75-4.48,4.42-8.42c-1.22-3.61-6.52-3.52-9.56-4.02c-4.58-0.75-9.89-0.72-14.27-2.22c-6.35-2.17-12.38-5.84-18.91-7.2
		c-4-0.83-6.81-4.31-9.15-7.4c-1.22-1.61-1.9-2.67-2.35-4.6c-0.5-2.11-0.68-4.03-2.25-5.69c-2-2.1-4.78-4.34-7.53-5.07
		c-3.29-0.87-5.54-0.68-8.29-3.04c-5.33-4.58-10.89-7.33-18.07-6.77c-4.92,0.39-11.39-0.22-16.04,1.71
		c-5.22,2.17-7.15,8.51-12.24,10.61c-5.5,2.27-11.93-1.45-17.31,0.9c-9.46,4.15-18.09,10.33-28.31,12.58
		c-6.8,1.5-13.29,4.74-20.37,4.98c-4.42,0.15-8.86,0-13.28,0c-5.29,0-10.14-1-13.33,3.3c-2.16,2.92-3.55,7.44-5.85,9.87
		c-1.41,1.5-2.62,1.15-3.7,3.3c-0.91,1.82-0.6,3.83-0.7,5.92c-4.28,1.09-8.49,2-12.72,3.27c-1.99,0.6-6.05,0.54-7.21,2.22
		c-1.18,1.71,0.19,4.66-1.06,6.64c-5.42,0.33-9.89,1.12-14.76,2.72c-2.59,0.86-3.28,2.22-5.49,3.52c-5.1,3.01-7.39,4.42-10.58,9.77
		C195.29,465.77,192.86,471,190.37,476.2z"/>
	<path class="st3" d="M328.26,477.25c-20.09-5.13-40.57-9.31-61.31-10.44c-11.05-0.6-22.2-0.32-33.13,1.51
		c-5.26,0.88-10.46,2.12-15.52,3.82c-2.58,0.87-4.47,1.52-7.21,1.87c-0.74,0.09-8.67,1.01-8.67,0.99c-0.24,2.07-2.57,5.43-4.36,6.54
		c-2.39,1.47-5.37,1.48-7.75,3.03c-2.54,1.65-5.42,2.63-8.25,3.83c-6.59,2.78-13.26,5.55-20.31,6.91
		c-16.14,3.1-32.94,0.93-49.57,1.76c-7.57,0.38-15.12,0.98-22.68,1.4c-4.96,0.27-13.35,2.25-16.28-3.33c-0.75-1.44-1.38-2-2.69-2.85
		c-1.09-0.71-1.86-2.07-3.03-2.75c-1.31-0.76-4.07-0.38-5.12-1.27c-1.19-1.02-0.09-2.19,0.93-2.92c2.2-1.58,2.96-3.44,0.36-5.44
		c-1.58-1.22-2.34-1.74-3.2-3.51c-0.67-1.37-1.91-1.87-2.66-2.97c1.57-0.02,3.11,0.62,4.67,0.51c1.18-0.08,2.03-0.41,3.28-0.28
		c2.71,0.27,5.43,0.77,7.98-0.54c2.97-1.52,2.45-5.49,4.02-8.07c0.81-1.32,2.11-2.68,0.97-4.12c-0.84-1.06-2.47-0.87-3.56-1.59
		c-3.76-2.49-3.57-9.32-9.71-8.6c-1.47,0.17-2.79,1.25-4.2,0.45c-0.41-0.23-0.98-1.23-1.36-1.6c-0.89-0.87-1.96-1.67-2.92-2.41
		c-1.38-1.05-1.97-1-3.71-1.11c-3.55-0.22-6.28-2.29-9.4-3.68c-1.68-0.75-3.42-1.23-5.15-1.75c-1.37-0.41-2.45,0.08-4,0.47
		c-0.73,0.18-1.4,0.47-2.23,0.33c-1.3-0.23-1.8-1.31-2.89-1.72c-1.54-0.59-3.34,0.32-5.11-0.31c-3.69-1.32-5.61-5.21-9.12-6.7
		c0.66,0.28,0.32,8.62,0.31,9.8c-0.03,3.73-0.24,7.46-0.37,11.19c-0.25,7.27-0.16,14.39,0.92,21.59c0.36,2.42-0.35,4.11-0.57,6.45
		c-0.32,3.46-0.44,7.18-0.44,10.66c0,2.48-0.29,5.09-0.11,7.55c0.19,2.66,0.99,5.12,0.75,7.83c-0.23,2.63-1.03,5.14-1.28,7.67
		c-0.27,2.8-0.29,5.85-0.16,8.63c0.15,3.07,0.97,6.05,1.12,9.11c0.26,5.26-0.16,10.62-0.16,15.83c0,2.78,0.32,5.49,0.32,8.31
		c0,2.56-0.3,5.43,0.35,7.8c0.1,0.36,14,0.61,15.32,0.67c1.57,0.07,2.98-0.3,4.48-0.44c7.53-0.74,15.18-0.01,22.78-0.36
		c8.33-0.38,16.6-0.64,25.01-0.64c7.19,0,14.75-1.13,21.91-0.45c2.87,0.27,5.18,0.44,8.13,0.12c3.75-0.41,7.49-0.84,11.24-1.3
		c4.97-0.61,9.93-1.26,14.89-1.94c4.74-0.65,9.16-1.95,13.85-1.26c1.91,0.28,4.25,0.35,6.17,0.19c3.15-0.26,6.59-0.29,9.7-0.8
		c2.98-0.49,6.24-0.88,9.07-1.76c2.71-0.85,5.75-1.08,8.47-2.07c2.48-0.9,5.06-2.31,7.54-3.33c2.74-1.12,5.65-2.16,8-3.87
		c1.19-0.86,2.43-2.17,3.81-2.81c1.78-0.83,4.08-0.95,6.03-1.34c3.08-0.62,6.33-1.05,9.14-2.43c2.15-1.06,4.5-2.35,6.84-2.94
		c1.55-0.39,3.07-0.02,4.64-0.21c2.38-0.29,4.44-1.66,6.73-2.32c2.45-0.7,5-0.97,7.44-1.75c1.72-0.55,3.04-1.62,4.7-2.33
		c2.06-0.88,4.28-1.11,6.48-1.63c4.31-1.04,8.12-2.86,12.47-3.56c3.74-0.6,7.35-1.42,10.76-2.84c7.17-2.99,13.13-6.96,21.13-7.69
		c1.69-0.15,4.56-0.71,6.24-0.12c1.39,0.49,3.04,2.08,4.29,2.84c1.4,0.85,2.23,2.1,3.33,2.86c1.57,1.08,2.99,1.29,4.37,2.56
		c2.68,2.47,4.38,4.97,7.43,6.64c1.91,1.05,3.09,1.16,5.34,1.38c2.81,0.28,6.54,0.59,9.18-0.56c2.27-0.99,4.06-1.81,6.66-2.34
		c3.88-0.8,7.38-1.65,11.59-1.39c4.59,0.29,9.16,0.88,13.75,1.08c5.69,0.24,10.28,0.94,15.71,2.94c3.59,1.32,7.39,2.09,10.97,3.17
		c3.7,1.11,7.11,2.33,10.71,3.69c2,0.76,4.09,0.95,6.09,1.67c1.71,0.62,3.46,1.98,5.17,2.67c5.28,2.14,10.11,4.22,15.73,5.48
		c2.14,0.48,4.44,0.49,6.62,0.71c2.63,0.27,3.55,1.05,5.59,2.4c3.63,2.41,7.22,1.89,11.37,2.73c3.83,0.77,7.74,2.75,11.55,3.96
		c7.05,2.23,13.56,5.83,20.36,7.86c3.42,1.02,6.94,1.77,10.24,3.08c3.8,1.51,7.27,1.83,11.43,1.83c3.97,0,8.36-0.78,12.22,0
		c4.19,0.84,8.76,1.94,12.99,3.15c4.49,1.29,9.47,0.3,13.95,1.33c3.9,0.89,7.43,2.25,11.65,2.68c8.97,0.9,17.89,0.99,26.77,2.49
		c2.42,0.41,4.92,0.51,7.13,1.29c1.82,0.65,3.09,1.03,5.13,1.12c4.52,0.18,8.85,0.78,13.39,1.12c1.83,0.14,3.78,0.58,5.57,0.45
		c1.33-0.1,3.89-1.18,2.92-3.13c-0.33-0.67-3.07-1.7-3.92-2.16c-2.35-1.3-5.08-2.07-7.53-3.24c-3.34-1.6-6.83-2.95-10.24-4.39
		c-7.08-2.97-14.19-5.83-21.33-8.65c-14.14-5.59-28.35-10.98-42.49-16.59c-15.72-6.24-38.5-7.73-55.53-10.5
		c-8.84-1.44-18.32-0.97-26.97-2.93c-8.61-1.95-16.47-7.44-25.27-7.76c-0.2-16.11-34.19-37.08-45.56-41.41
		C368.73,476.13,349.58,482.69,328.26,477.25z"/>
	<path class="st3" d="M180.14,105.91c-0.66,0.07-1.33,0.13-2.1,0.01c-0.01-0.5-0.28-0.74-0.24-1.25c-0.9,1.14-2.71,2.87-4.06,3.37
		c-1.48,0.55-3.45,0.06-4.96,0.38c-1.69,0.36-2.99,1.4-4.72,1.58c-2.38,0.24-2.33-0.84-3.89-2.23c-1.76,1.53-3.7,0.86-5.79,0.65
		c-3.03-0.3-4.76-0.93-5.92,1.94c-1.02,2.55-1.6,5.98-3.91,7.75c-2.68,2.05-6.36,3.7-9.27,5.57c-2.32,1.49-2.65,2.6-2.5,5.43
		c2.52-0.36,4.36,1.51,3.61,3.45c-1.29,3.33-3.95,1.95-6.85,3.05c-5.4,2.06-5.52,9.59-5.57,14.69c-0.02,1.58,0.32,5.62-1.57,6.08
		c-1.02,0.25-1.68-1-2.48-0.91c-1.17,0.12-1.17,0.92-1.86,1.59c-1.76,1.72-3.38,3.82-5.56,5.05c-1.89,1.07-3.99,1.08-5.85,2.13
		c-1.84,1.04-3.68,2.1-5.38,3.17c-2.27,1.43-2.3,3.34-2.3,6.07c0,1.95-0.79,6.15,0.45,7.66c1.22,1.48,3.74,0.26,5.29,1.12
		c1.6,0.88,1.9,2.7,1.69,4.49c-0.44,3.7-3.49,6.96-4.78,10.37c-0.74,1.95-0.45,2.5-1.81,3.95c-2.41,2.57-5.1,5.32-6.05,8.62
		c-2.17-0.05-4.56,0.75-6.69,1.2c-0.15,2.18,2.09,5.71-0.08,7.41c-1.17,0.91-1.85,0.3-3.28,0.16c-2.9-0.28-4.74,0.56-6.78,2.08
		c-0.58,0.43-1.35,0.07-1.89,0.84c-0.69,0.99-0.03,2.67-0.81,3.89c-0.83,1.3-2.52,2.2-3.87,2.46c-2.3,0.45-7.34-0.5-7.21-3.52
		c0.06-1.26-4.59,1.08-4.73,1.1c-1.45,0.21-2.6-0.73-4.02-0.97c-2.86-0.48-6.23,0.11-9.04-0.15c-2.73-0.25-4.81-0.6-7.17,1.13
		c-1.17,0.86-2.48,1.84-2.99,3.31c-0.42,1.23,0.16,2.62-0.15,3.86c-0.38,1.51-1.76,1.99-2.33,3.29c-0.55,1.26,0,1.98,0.29,3.43
		c0.46,2.3-0.26,5.04,0.85,7.04c1,1.8,3.19,2.82,4.1,4.67c1.14,2.32,0.27,5.51-0.23,7.89c-0.3,1.4-0.62,2.69-0.62,4.18
		c0,0.8,0.49,1.99,0.19,2.81c-0.37,1.04-1.72,1.29-1.55,2.64c0.1,0.76,1.26,1.56,1.71,2.13c0.92,1.18,3.3,2.16,3.16,3.39
		c-0.24,2.16-3.07,2.25-4.51,2.41c-2.19,0.24-4.69,0.91-5.74,2.94c-1.14,2.22,0.33,2.81,0.56,4.77c0.13,1.05-0.37,4.18-0.67,5.35
		c-0.92,3.54-2.71,6.36-2.21,9.9c0.29,2-0.41,4.64-1.3,6.2c-0.68,1.2-1.81,1.57-1.87,3.04c-0.2,5.29,0.35,10-1.17,15.33
		c-0.41,1.43-7.79,12.41-8.27,11.47c-1.33-2.59-0.64-6.59-0.64-9.63c0-18.12,0-36.11,0-54.38c0-17.94-2.25-35.15-0.5-52.61
		c1.77-17.71-1.06-35.42-1.04-52.7c0.02-18.01,2.88-35.14,3.07-52.71c0.09-8.05-0.31-16.17-0.9-24.2
		c-0.52-7.04,1.28-14.44-0.1-21.35c-1.29-6.5-0.14-9.59,0.49-15.86c0.37-3.71-2.56-38.65,0.59-38.82c4.77-0.25,9.31,0.52,14.03,0.52
		c12.99,0,25.98,0.15,38.97,0c29.48-0.35,59.26-1,89.38-1c51.7,0,103.35,0.35,154.89,0.4c5.89,0.01,11.4-0.84,17.4-0.51
		c13.31,0.72,25.95,1.46,39.36,0.42c16.52-1.29,30.65,0.91,46.97,1.69c12.34,0.59,24.89,0,37.25,0c13.1,0,25.64-0.49,38.7-1
		c23.05-0.9,45.84,0.92,68.85-0.05c23.92-1.01,48.1-1.64,72.04-1.35c31.08,0.38,63.17,6.7,94.02,0.56
		c3.42,69.03,3.15,140.4,3.15,209.85c0,21.01,0.03,42.44-1,63.03c-0.55,10.95-0.99,21.47-2,31.97c-0.86,8.87-2.43,20.69-0.13,28.81
		c-0.39-1.37-16.84-5.23-18.67-4.65c-6.4,2.03-9.79,13.74-13.25,19.68c-0.96,1.63-1.25,3.14-2.51,4.76
		c-1.26,1.61-2.67,3.15-4.1,4.61c-1.47,1.49-2.6,3.16-4.01,4.66c-1.52,1.63-3.71,2.76-5.61,4c-2.41,1.58-5.17,2.92-6.29,5.8
		c-0.64,1.66-0.41,3.44-0.66,5.19c-0.49,3.51-3.05,6.32-5.45,8.87c-2.15,2.29-3.06,3.19-5.92,4.23c-2.76,1-7.43,3.4-9.12,6.05
		c-0.58,0.91-0.67,2.15-1.39,3.18c-1.11,1.58-2.12,2.36-3.5,3.42c-3.7,2.82-7.05,3.07-11.32,4.51c-2.15,0.72-6.5,1.95-8.16,3.62
		c-2.09,2.11-1.6,6.18-1.85,8.97c-0.24,2.59,0.03,3.78-2.64,4.24c-1.6,0.28-3.54,0-5.18,0c-2.43,0-3.71-0.34-5.75-1.17
		c-1.77-0.72-3.62-0.95-5.24-2.07c-1.45-1-2.55-2.51-3.89-3.57c-3.85,2.54-5.74,6.97-9.92,9.08c-3.11,1.57-7.55,1.62-10.96,0.84
		c-0.23-2.02,0.89-4.73,1.58-6.56c1.25-3.31,2.84-6.19,4.75-9.23c3.49-5.56,7.27-10.32,11.31-15.4c2.36-2.97,6.04-4.56,9.41-6.03
		c1.31-0.57,2.93-1,4-1.79c1.6-1.19,3.5-4.15,4.68-5.82c2.18-3.1,5.02-7.02,6.09-10.7c0.55-1.91,1.3-3.5,1.88-5.47
		c0.59-2,0.2-4.6,0.63-6.8c0.57-2.87,2.76-4.48,4.67-6.53c2.04-2.18,1.5-3.29,1.86-6.03c0.35-2.68,1.77-5.74,4-7.49
		c1.9-1.5,8.09-2.1,8.86-4.21c1.03-2.81-3.38-1.82-4.83-2.48c-2.21-1.02-4-2.58-6.24-3.65c-3.03-1.45-3.03-2.04-3.54-5.3
		c-0.33-2.1-1.14-3.81-0.49-6.13c0.8-2.86,2.99-5.77,5.49-7.35c2.94-1.86,5.34-1.69,7.62-4.85c2.66-3.69,5.5-7.03,8.62-10.33
		c0.73-0.77,5.44-7.56,4.79-7.6c-2.38-0.12-4.16,0.46-5.78-1.4c-1.27-1.46-1.2-3.17-2.68-4.55c-1.4-1.31-3.12-2.48-4.75-1.91
		c-0.63,0.22-1.67,1.17-2.31,1.52c-1.06,0.6-2.34,0.98-3.36,1.63c-1.73,1.09-1.88,3.64-3.59,4.46c-1.79,0.86-6.07,0.28-8.18,0.21
		c-2.46-0.08-3.97-0.43-4.67-2.93c-0.82-2.96-0.91-4.13-4.29-5.29c-3.58-1.22-4.66,2.05-8.12,1.86c-1.27-0.07-3.3-0.64-4.75-0.84
		c-2.42-0.35-1.91-0.73-3.05,1.51c-2.03,3.98-6.5,6.77-11.05,6.55c-0.84-1.73-1.39-4-2.61-5.53c-1.27-1.59-3.54-3.34-5.13-4.34
		c-3.3-2.05-12.03-3.81-15.65-1.83c-2.42,1.32-4.13,3.27-6.09,5.21c-2.69,2.66-5.7,4.31-8.03,7.01c-0.99,1.15-2.34,1.78-3.27,2.94
		c-0.61,0.76-0.93,1.83-1.63,2.59c-2.1,2.28-6.51,1.55-9.37,1.36c-0.44-1.5,0.11-3.84,1.07-5.13c1.93-2.59,6.29-4.12,9.26-5.18
		c2.6-0.94,5.34-0.98,7.04-3.37c1.69-2.38,1.87-5.38,3.53-7.66c2.1-2.88,7.17-0.25,8.57-2.53c1.59-2.58-0.87-5.1-2.5-6.33
		c-2.65-1.99-5.54-2.98-8.09-5.07c-2.58-2.11-5.06-3.4-8.43-4.55c-1.33-0.45-3.42-0.62-4.34-1.82c-1-1.3-0.49-2.99-1.41-4.49
		c-1.32-2.16-2.62-2.99-2.71-5.62c-0.08-2.43,0.64-3.13,1.64-5.11c0.69-1.37,1.33-5.12,0.16-6.38c-1.4-1.52-3.64,0.71-5.42-0.24
		c-0.57-0.3-1.41-1.77-1.98-2.27c-0.61-0.54-1.61-1.03-2.23-1.97c-2.27-3.39-1.91-9.3-2.11-13.27c-6.06,0.32-7.31-6.5-6.01-11.26
		c0.26,0,0.57-0.07,0.82-0.06c0.66-1.94,1.64-3.44,2.89-5.14c1.83-2.49,1.48-2.7,0.02-5.61c-1.01,0.52-1.5,2.02-2.36,2.95
		c-1.21,1.3-2.51,1.54-3.79,2.66c-1.3,1.14-1.45,2.83-3.21,3.39c-1.02,0.33-2.77,0.01-3.85-0.05c-0.16-2.67,4.69-6.5,1.84-9.03
		c-1.58-1.4-4.6-0.86-5.7-3.24c-1.07-2.32,0.35-4.59-1.21-6.64c-1.05-1.39-1.83-1.44-2.16-3.06c-0.17-0.81,0.46-2.67-0.03-3.33
		c-1.52-2.04-5.44,0.95-4.66-3.47c0.23-1.29,0.93-2.4,1.09-3.86c0.1-0.89-0.31-1.09,0.15-2c0.87-1.73,3.72-2.87,2.55-5.22
		c-0.45,0.51-4.36,1.42-5.39,1.56c-2.32,0.33-4.36-0.47-6.55-0.02c-2.21,0.46-2.58,1.03-4.78-0.33c-2.13-1.32-2.66-2.69-5.35-1.81
		c-1.74,0.57-3.48,1.17-5.17,1.75c-1.99,0.68-3.15,2.5-4.92,3.38c-2.8,1.39-5.9,0.53-8.87,0.86c-1.81,0.2-5.54-0.18-7.11,0.72
		c-3.96,2.27,0.63,7.99-2.56,10.76c-1.36,1.18-4.78,0.92-6.48,1.22c-1.94,0.34-3.99,0.45-5.78,1.3c1.94,1.95,2.5,4.51,4.6,6.38
		c0.92,0.81,1.84,1.68,2.98,1.92c0.92,0.19,2.36-0.47,3.39-0.18c1.87,0.52,2.37,2.27,3.86,3.33c1.6,1.14,3.61,1.17,5.36,1.85
		c4.86,1.87,10.36,3.29,7.92,9.73c-1.53,4.04-7.99,9.67-12.39,5.57c-1.51-1.41-1.7-3.91-2.98-5.38c-2.21-2.54-4.3-1.17-6.67-0.39
		c-2.41,0.79-6.08,0.22-8.61,0.43c-3.27,0.28-6.64,0.73-9.85,0.85c-1.7,0.06-3.6-0.58-5.25-0.18c-1.16,0.28-2.4,1.55-3.63,1.98
		c-3.11,1.11-7.31,0.45-10.58,0.45c-2.2,0-5.53-0.64-7.62,0c-2.51,0.76-4.56,4.14-6.86,5.64c-1.4,0.92-4.75,2.78-6.04,0.74
		c-0.55-0.87,0.04-4.51,0.24-5.52c0.25-1.28,1.03-4.28,1.89-5.25c1.18-1.35,4.86-2.04,6.51-2.58c2.72-0.9,5.23-1.12,8.12-1.12
		c3.44,0,7,0.27,10.11-0.63c2.51-0.73,4.08-2.07,6.31-3.65c1.91-1.35,3.96-2.73,5.96-4c1.22-0.78,2.81-0.79,2.6-2.52
		c-0.14-1.19-1.62-1.98-2.6-2.5c-2.1-1.12-3.58-0.92-3.71-3.58c-0.16-3.31,1.74-4.01,4.45-5.18c2.36-1.02,4.06-1.34,5.63-3.21
		c1.75-2.08,1.99-2.03,4.56-2.65c1.22-0.3,5.21-2.08,4.96-3.6c-0.25-1.53-4.33-1.09-2.32-4.28c1.14-1.82,3.94-1.11,5.95-1.36
		c3.6-0.45,7.64-2.42,10.26-5c1.26-1.24,1.47-1.78,1.86-3.34c0.27-1.06-0.03-1.82,0.66-2.81c2-2.84,7.22-1.69,9.2-4.21
		c0.49-0.62,0.34-2.02,1-2.89c0.57-0.75,1.57-1.41,2.38-1.86c2.09-1.17,6.46-1.39,7-4.2c-2.99,1.75-8-0.95-11.47-0.42
		c-3.43,0.52-8.8,0.95-10.79-2.07c-1.79-2.73-3.29-6.5-5.74-9.06c-0.72-0.76-2.3-2.93-3.33-2.49c-0.9,0.39-0.24,1.15-0.67,1.64
		c-1.23,1.39,0.38,0.74-1.82,1.36c-3.66,1.02-7.07-1.35-10.62-0.71c-3.85,0.7-7.63,2.58-11.14,4.26c-2.6,1.25-3.58,1.31-4.68,3.88
		c-0.94,2.19-1.44,3.65-3.67,4.95c-4.74,2.75-8.46-0.01-13.22,0c-2.99,0.01-5.01-0.71-7.54-2.01c-1.34-0.69-0.89-1.25-2.48-0.24
		c-0.81,0.51-1.05,1.46-1.97,1.81c-3.04,1.18-4.99-2.08-7.43-2.27c-2.5-0.2-3.23,1.87-4.28,3.4c-1.24,1.82-2.8,3.22-4.16,4.94
		c-1.27,1.61-3.87,3.85-5.8,4.67c-4.32,1.84-7.9-0.38-12.3-0.13c-0.4,9.49-11.04,10.88-18.77,10.09c-4.2-0.43-6.94-1.69-10.32,1.85
		c-1.84,1.92-2.13,2.6-5.17,2.22c-1.37-0.17-3.67-0.44-4.93-0.9c0.34-1.08,0.8-2.39,1.37-3.12c1.72-2.21,3.45-1.79,6.06-2.08
		c2.73-0.3,4.09-2.93,6.28-4.5c1.15-0.82,2.71-2.17,4.28-2.27c1.27-0.08,1.76,0.78,2.7,0.93c1.82,0.27,4.61-0.04,6.48-0.24
		c6.75-0.72,12.78-8.79,17.67-13.31c1.92-1.78,1.85-2.29,1.96-4.92c0.18-4.32,2.18-7.25,4.8-10.67c1.67-2.17,4.51-3.28,6.69-5.11
		c2.87-2.4,5.76-3.79,8.9-5.61c3.28-1.9,8.37-5.55,9.56-9.3c0.5-1.59,0.09-3.31,0.61-4.95c0.57-1.79,1.8-3.48,2.81-5.01
		c1.73-2.6,4.55-5.75,3.1-8.9c-1.75-3.8-6.64-1.93-9.01-4.5c-0.8-0.86-0.56-1.63-0.67-2.68c-0.24-2.54,0.5-2.57-2.2-3.22
		c-2.84-0.69-5.84-0.82-8.71-1.31c-0.83-0.14-2.17-0.05-2.84-0.68c-0.92-0.85-0.51-2.08-1.51-3.05c-1.17-1.15-2.22-0.51-3.66-0.77
		c-1.66-0.3-2.16-0.96-3.11-2.32c-1.52-2.16-0.72-3.11-0.48-5.57c0.23-2.34-0.19-4.29-2.21-5.17c-1.84-0.81-4.56-0.76-5.85,0.99
		c-1.57,2.13-0.26,5.18-2.63,6.94c-2.23,1.66-4.35,0.2-4.62-2.3c-0.33-3.13,0.37-6.66,1.41-9.51c0.94-2.58,2.99-4.93,2.64-7.82
		c-0.4-3.4-3.01-3.35-6.15-3.38c-2.49-0.02-4.38,0.56-4.38,3.16c0,3.94,3.04,9.87-1.63,11.93c-2.92,1.29-3.28,0.85-4.05,4.07
		c-0.98,4.06-2.15,2.82-5.86,2.92c-2.07,0.06-4.16,0.98-5.34,2.76c-2.48,3.73,5.84,8.14,5.32,12.52c-2.95,0.16-6.15-0.4-9.03,0.31
		c-1.92,0.48-2.46,1.7-3.77,2.43c-2.45,1.34-5.81,0.8-6.33-2.43c-0.4-2.49,0.64-4.73,1.09-7.08c0.7-3.65,2.63-8.59-0.56-11.5
		c-3.85-3.49-8.69,0.7-12.39,1.83c-1.26,0.38-2.61-0.07-3.83,0.26c-1,0.27-1.53,1.21-2.53,1.55c-2.01,0.67-3.89,0.51-4.74,2.92
		c-1.11,0.08-2.55,0.25-3.64-0.11c-0.89-0.3-1.63-1.31-2.41-1.44c-1.28-0.21-3.21,0.71-4.46,0.96c-3.04,0.61-7.34,0.21-7.03-4.05
		c0.15-2.08,0.62-1.64,2.5-1.85c2.44-0.28,5.16-0.48,7.47-1.33c2.14-0.79,3.09-2.58,4.7-4.07c1.4-1.29,2.74-1.99,3.96-3.38
		c1.84-2.09,1.2-3.78-1.81-4.79c-1.18-0.4-2.35-0.09-3.76-0.16c-1.84-0.09-2.68-0.61-4.29-1.23c-4.58-1.78-7.86,1.75-11.74,3.88
		c-2.25,1.23-4.3,2.16-6.1-0.57c-1.12-1.71-0.71-4.43-2.91-5.7c-1.53-0.88-1.67,0-2.89,0.24c-1.26,0.25-2.71-0.25-3.89-0.01
		c-1.9,0.38-3.21,2.56-4.88,3.4c-1.89,0.95-4.79,1.93-6.99,2.23c-2.1,0.29-4.25-0.26-6.09,0.44c-1.62,0.62-2.92,1.81-4.5,2.49
		c-1.8,0.78-3.08,0.39-4.92,0.61c-3.25,0.38-5.39,2.47-8.14,3.89c-1.16,0.6-6.83,0.96-4.46,3.61c1.03,1.15,6.25,1,7.84,1.13
		c0.99,0.08,3.26-0.34,4.1,0.2c1.11,0.71,1.21,2.29,1.33,3.82c4.01-0.7,8.5-1.78,12.46-2.18c3.23-0.33,9.04,3.1,3.5,4.23
		c-2.17,0.44-3.29,0.68-4.46,2.75c-0.81,1.43-0.94,3.03-2.8,3.61c-2.23,0.7-5.91-0.18-8.1-0.69c-1.35-0.31-7.7-1.88-8.92-0.68
		c-3.16,3.11,7.55,6.22,8.49,7.62c0.65,0.96,2.09,4.07,1.83,4.95c-0.42,1.43-3.55,2.13-4.73,2.44c-2.51,0.67-2.92-0.24-4.5-1.77
		c-1.57-1.53-3.66-1.86-4.52,0.51c-0.73,2.02,1.08,3.6,0.92,5.35c-0.44,4.92-6.86-0.53-8.29-1.58c-1.82-1.33-2.62-2.44-4.97-3.12
		c-1.18,1.88-2.7,3.31-3.64,5.14c-0.65,1.26-1.65,3.26-2.98,3.78c-2.49,0.97-4.24-0.89-6.03-2.19c-1.34-0.97-4.17-1.5-4.5-3.77
		c-2.85,0.64-3.47,4.62-6.32,5.52c-1.72,0.54-2.56-0.4-4.2-0.68C181.54,105.77,180.85,105.84,180.14,105.91z"/>
	<path class="st3" d="M261.54,81.41c-2.75,0-4.53,0.16-6.74,1.63c-1.06,0.7-1.93,1.92-3.14,2.21c-1.4,0.34-2.47-0.48-3.91,0.22
		c-5.23,2.53-0.38,7.36,0.09,11.01c2.18,0.13,2.34,2.05,3.84,2.91c1.31,0.74,3.5,0.19,4.89-0.02c2.23-0.34,4.07-0.52,5.2-2.63
		c0.7-1.32,0.92-4.35,2.28-5.43c1.52-1.21,3.55-0.07,4.63-2.46c0.77-1.69-0.32-3.21-1.02-4.72c-2.32-5-4.4-1.49-8.39-2.7"/>
	<path class="st3" d="M300.94,89.97c-6.19,0.19-4.24,5.24-7.82,8.39c-1.51,1.33-4.31,1.32-5.69,2.86c-1.7,1.9,0.04,2.58,1.47,3.84
		c1.43,1.26,1.52,3.29,3.03,4.51c2.06,1.66,2.7-0.13,4.28-1.11c1.4-0.86,4.16-0.01,5.24-1.15c0.96-1.01,0.47-4.52,0.61-5.86
		c0.33-3.02,2.23-4.92,2.03-8.1c-0.12-1.9-0.14-2.57-2.04-3.39c-1.34-0.58-2.84-0.71-3.59,0.68"/>
	<path class="st3" d="M329.08,101.23c-1.02-1.15-3.04-1.67-4.11-0.74c-1.45,1.26-0.58,3.27-1.96,4.51c-1.23,1.1-3.02,0.9-4.28,2.25
		c-1.52,1.63-1.95,3.3-2.25,5.46c-0.28,2.02-1,3.35,0.89,4.05c2.11,0.78,4.11-0.02,4.68-1.85c0.69-2.22-0.38-3.47,2.34-4.18
		c2.94-0.76,4.83,0.53,6.27-2.76c0.93-2.12,0.76-4.18-0.51-5.77c-1.53-1.91-2.71-1.6-4.9-2.32"/>
	<path class="st3" d="M182.56,463.59c0.94-0.26-1.16-1.96-1.45-2.14c-0.47-0.29-1.29-0.35-1.68-0.67c-0.38-0.31-0.37-0.91-0.77-1.27
		c-1.51-1.37-3.89-1.58-5.83-1.16c-1.74,0.37-3.63,0.18-5.4,0.51c-2.16,0.41-3.99,1.76-6.01,2.53c-2.08,0.79-4.37,0.76-6.37,1.95
		c-1.26,0.74-2.2,2.06-3.48,2.7c-1.4,0.7-3.13,0.25-4.52,1.07c-1.02,0.6-2.13,1.88-2.67,2.95c-0.18,0.36-1.03,3.36-0.15,3.45
		c0.83,0.09,1.65,0.49,2.4,0.87c1.46,0.75,2.54,0.92,4.22,1.19c1.48,0.24,2.67,0.9,4.23,0.69c1.52-0.2,3.54-1.44,4.93-2.44
		c0.76-0.55,1.12-1.55,1.79-2.23c0.88-0.88,2.28-1.41,3.4-1.85c1.4-0.55,2.99-0.98,4.3-1.74c1-0.58,1.72-1.39,2.85-1.81
		C175.64,464.98,179.18,464.53,182.56,463.59z"/>
</g>
<g id="box">
	<rect x="15.41" y="12.66" class="st4" width="715.89" height="586"/>
</g>
<g id="thrust_fault">
	<path class="st5" d="M216.22,475.9c2.17-1.46,2.64-3.71,3.84-5.78c1.82,1.85,2.5,4.55,3.75,6.67"/>
	<path class="st5" d="M259.49,470.32c0.03-2.74,1.49-4.59,1.37-7.33c1.98,0.05,3.76,2.25,4.87,3.76"/>
	<path class="st5" d="M294.28,453.6c1.82-1.78,3.2-4.76,4.05-7.11c2.24,0.89,2.79,3.64,4.2,5.33"/>
	<path class="st5" d="M333.76,443.34c0.65-1.56,1.65-4.64,2.68-5.82c2.02,1.61,3.27,3.36,5.35,4.93"/>
	<path class="st5" d="M373.24,438.65c1.96-0.93,5.8-2.04,6.74-4.21c1.26,0.83,2.54,3.21,3.07,4.66"/>
	<path class="st5" d="M415.85,442.67c0.3-1.69,2.75-3.83,4.24-4.59c0.3,0.67,0.84,1.21,1.52,1.5c0.59,1.09,1.33,2.24,1.82,3.53"/>
	<path class="st5" d="M454.44,444.54c0-1.69-0.05-3.41,0.03-5.1c2.4,0.18,3.68,2.83,5.99,3.09"/>
	<path d="M25.8,565.71c1.85-2.2,5.64-3.58,5.6-6.84c2.17,0.72,3.57,4.37,4.52,6.38"/>
	<path d="M84.22,563.87c2.88-2.61,4.82-4.03,7.02-7.29c2.16,2.14,4.32,4.64,6.32,6.83"/>
	<path d="M160.12,559.27c1.36-3.06,4.43-4.69,5.15-8.24c1.87,2.36,4.68,4.42,5.89,7.32"/>
	<path d="M227.74,538.11c0.01-3.1,0.03-5.25,1.46-7.74c0.57-0.84,1.29-1.51,1.84-2.77c4.28,0.72,6.55,5.92,10.5,7.75"/>
	<path d="M285.24,522.47c0-1.35-0.56-8.52,1.01-9.13c1.82-0.7,4.2,4.52,5.43,5.45"/>
	<path d="M333.08,531.21c2.27-2.49,5.04-5.23,6.99-8.11c1.44,2.07,3.05,4.64,4.97,6.73"/>
	<path d="M383.68,530.29c2.71-0.88,6.01-2.98,7.96-5.01c1.57,1.74,3.13,4.29,3.08,6.85"/>
	<path class="st6" d="M436.12,545.47c3.33,0.13,11.46-0.77,13.7-3.17c1.03,2.48,0.57,5.64,1.02,8.23"/>
	<path class="st6" d="M498.23,568.01c0.97-3.51,5.46-6.35,7.47-9.05c1.54,2.91,2.89,9.05,4.95,10.89"/>
	<path class="st6" d="M561.7,576.75c1.06-2.93,7.15-5.2,9.57-7.32c-0.2,4.37,5.97,8.08,9.29,9.62"/>
	<path class="st7" d="M202.41,474.66c12.27,1.33,24.26,4.81,37,2.22c9.47-1.92,21.97-5.21,29.23-10.22
		c7.92-5.47,19.71-11.1,30.02-13.75c11.65-2.99,20.79,2.6,29.93-8.08c11.3-0.66,19.19-5.17,31.83-5.17c11.94,0,23.4,0.81,35.02,1.98
		c9.08,0.91,64.43,7.61,66.12-1.81c4.58-2.02,5.91-7.61,8.86-11.17"/>
	<path class="st7" d="M15.41,565.66c39.54,0,78.79-1.16,118-3c7.8-0.37,13.85-2.72,22-3c8.5-0.3,17.12-0.06,25.02-1.98
		c13.75-3.33,23.7-13.26,37.95-16.05c14.4-2.82,27.7-8.06,42.24-11.76c7.41-1.88,15.34-3.29,22.78-5.44
		c6.92-2,10.65-7.54,17.98-8.75c15.37-2.53,20.99,20.04,38.02,16.97c8.78-1.58,10.13-6.55,20.78-4.97
		c8.51,1.26,17.76,1.3,26.25,2.97c14.53,2.86,26.12,10.42,39.98,14.02c14.49,3.77,28.06,7.26,43,12.73
		c14.58,5.34,32.77,13.67,48,14.25c16.8,0.64,30.95,4.56,47,6c20.79,1.87,39.88,7,62,7"/>
</g>
<g id="towns_and_cities">
	<g>
		<path d="M290.63,248.4c-0.06-1.13-0.13-2.48-0.12-3.49h-0.04c-0.28,0.95-0.61,1.96-1.02,3.07l-1.43,3.92h-0.79l-1.31-3.85
			c-0.38-1.14-0.71-2.18-0.94-3.14h-0.02c-0.02,1.01-0.08,2.36-0.16,3.57l-0.22,3.47h-1l0.56-8.08h1.33l1.38,3.91
			c0.34,1,0.61,1.88,0.82,2.72h0.04c0.2-0.82,0.49-1.7,0.85-2.72l1.44-3.91h1.33l0.5,8.08h-1.02L290.63,248.4z"/>
		<path d="M296.71,251.95l-0.08-0.73h-0.04c-0.32,0.46-0.95,0.86-1.77,0.86c-1.18,0-1.77-0.83-1.77-1.67c0-1.4,1.25-2.17,3.49-2.16
			v-0.12c0-0.48-0.13-1.34-1.32-1.34c-0.54,0-1.1,0.17-1.51,0.43l-0.24-0.7c0.48-0.31,1.18-0.52,1.91-0.52
			c1.77,0,2.21,1.21,2.21,2.37v2.17c0,0.5,0.02,1,0.1,1.39H296.71z M296.56,248.99c-1.15-0.02-2.46,0.18-2.46,1.31
			c0,0.68,0.46,1.01,1,1.01c0.76,0,1.24-0.48,1.4-0.97c0.04-0.11,0.06-0.23,0.06-0.34V248.99z"/>
		<path d="M299.28,247.96c0-0.68-0.01-1.27-0.05-1.81h0.92l0.04,1.14h0.05c0.26-0.78,0.9-1.27,1.61-1.27c0.12,0,0.2,0.01,0.3,0.04v1
			c-0.11-0.02-0.22-0.04-0.36-0.04c-0.74,0-1.27,0.56-1.42,1.36c-0.02,0.14-0.05,0.31-0.05,0.49v3.09h-1.04V247.96z"/>
		<path d="M308.1,243.43v7.02c0,0.52,0.01,1.1,0.05,1.5h-0.95l-0.05-1.01h-0.02c-0.32,0.65-1.03,1.14-1.98,1.14
			c-1.4,0-2.48-1.19-2.48-2.95c-0.01-1.93,1.19-3.12,2.6-3.12c0.89,0,1.49,0.42,1.75,0.89h0.02v-3.47H308.1z M307.04,248.51
			c0-0.13-0.01-0.31-0.05-0.44c-0.16-0.67-0.73-1.22-1.52-1.22c-1.09,0-1.74,0.96-1.74,2.24c0,1.18,0.58,2.15,1.72,2.15
			c0.71,0,1.35-0.47,1.55-1.26c0.04-0.14,0.05-0.29,0.05-0.46V248.51z"/>
		<path d="M313.07,251.95l-0.08-0.73h-0.04c-0.32,0.46-0.95,0.86-1.77,0.86c-1.18,0-1.77-0.83-1.77-1.67c0-1.4,1.25-2.17,3.49-2.16
			v-0.12c0-0.48-0.13-1.34-1.32-1.34c-0.54,0-1.1,0.17-1.51,0.43l-0.24-0.7c0.48-0.31,1.18-0.52,1.91-0.52
			c1.77,0,2.21,1.21,2.21,2.37v2.17c0,0.5,0.02,1,0.1,1.39H313.07z M312.91,248.99c-1.15-0.02-2.46,0.18-2.46,1.31
			c0,0.68,0.46,1.01,1,1.01c0.76,0,1.24-0.48,1.4-0.97c0.04-0.11,0.06-0.23,0.06-0.34V248.99z"/>
		<path d="M315.64,247.71c0-0.6-0.01-1.09-0.05-1.57h0.94l0.06,0.96h0.02c0.29-0.55,0.96-1.09,1.92-1.09c0.8,0,2.05,0.48,2.05,2.47
			v3.47h-1.06v-3.35c0-0.94-0.35-1.71-1.34-1.71c-0.7,0-1.24,0.49-1.42,1.08c-0.05,0.13-0.07,0.31-0.07,0.49v3.49h-1.06V247.71z"/>
	</g>
	<g>
		<path d="M263.52,368.34v-8.08h1.14l2.59,4.09c0.6,0.95,1.07,1.8,1.45,2.63l0.02-0.01c-0.1-1.08-0.12-2.06-0.12-3.32v-3.38h0.98
			v8.08h-1.06l-2.57-4.1c-0.56-0.9-1.1-1.82-1.51-2.7l-0.04,0.01c0.06,1.02,0.08,1.99,0.08,3.33v3.45H263.52z"/>
		<path d="M276.64,365.39c0,2.15-1.49,3.08-2.89,3.08c-1.57,0-2.78-1.15-2.78-2.99c0-1.94,1.27-3.08,2.88-3.08
			C275.51,362.4,276.64,363.61,276.64,365.39z M272.03,365.45c0,1.27,0.73,2.23,1.76,2.23c1.01,0,1.76-0.95,1.76-2.26
			c0-0.98-0.49-2.23-1.74-2.23C272.57,363.19,272.03,364.35,272.03,365.45z"/>
		<path d="M278.31,362.53l0.77,2.95c0.17,0.65,0.32,1.25,0.43,1.85h0.04c0.13-0.59,0.32-1.21,0.52-1.84l0.95-2.96h0.89l0.9,2.9
			c0.22,0.7,0.38,1.31,0.52,1.9h0.04c0.1-0.59,0.25-1.2,0.44-1.88l0.83-2.91h1.04l-1.87,5.8h-0.96l-0.89-2.77
			c-0.2-0.65-0.37-1.22-0.52-1.91h-0.02c-0.14,0.7-0.32,1.29-0.53,1.92l-0.94,2.76h-0.96l-1.75-5.8H278.31z"/>
		<path d="M286.5,367.26c0.31,0.2,0.86,0.42,1.39,0.42c0.77,0,1.13-0.38,1.13-0.86c0-0.5-0.3-0.78-1.08-1.07
			c-1.04-0.37-1.54-0.95-1.54-1.64c0-0.94,0.76-1.7,2-1.7c0.59,0,1.1,0.17,1.43,0.36l-0.26,0.77c-0.23-0.14-0.65-0.34-1.19-0.34
			c-0.62,0-0.97,0.36-0.97,0.79c0,0.48,0.35,0.7,1.1,0.98c1.01,0.38,1.52,0.89,1.52,1.75c0,1.02-0.79,1.74-2.17,1.74
			c-0.64,0-1.22-0.16-1.63-0.4L286.5,367.26z"/>
		<path d="M291.4,359.82h1.06v3.62h0.02c0.17-0.3,0.43-0.56,0.76-0.74c0.31-0.18,0.68-0.3,1.08-0.3c0.78,0,2.03,0.48,2.03,2.48v3.45
			h-1.06v-3.33c0-0.94-0.35-1.73-1.34-1.73c-0.68,0-1.22,0.48-1.42,1.06c-0.06,0.14-0.07,0.3-0.07,0.5v3.5h-1.06V359.82z"/>
		<path d="M298.65,365.63c0.02,1.43,0.94,2.01,1.99,2.01c0.76,0,1.21-0.13,1.61-0.3l0.18,0.76c-0.37,0.17-1.01,0.36-1.93,0.36
			c-1.79,0-2.85-1.18-2.85-2.93s1.03-3.13,2.72-3.13c1.9,0,2.4,1.67,2.4,2.73c0,0.22-0.02,0.38-0.04,0.49H298.65z M301.74,364.87
			c0.01-0.67-0.28-1.71-1.46-1.71c-1.07,0-1.54,0.98-1.62,1.71H301.74z"/>
		<path d="M304.07,364.35c0-0.68-0.01-1.27-0.05-1.81h0.92l0.04,1.14h0.05c0.26-0.78,0.9-1.27,1.61-1.27c0.12,0,0.2,0.01,0.3,0.04v1
			c-0.11-0.02-0.22-0.04-0.36-0.04c-0.74,0-1.27,0.56-1.42,1.36c-0.02,0.14-0.05,0.31-0.05,0.49v3.09h-1.04V364.35z"/>
		<path d="M311.15,368.34l-0.08-0.73h-0.04c-0.32,0.46-0.95,0.86-1.77,0.86c-1.18,0-1.77-0.83-1.77-1.67c0-1.4,1.25-2.17,3.49-2.16
			v-0.12c0-0.48-0.13-1.34-1.32-1.34c-0.54,0-1.1,0.17-1.51,0.43l-0.24-0.7c0.48-0.31,1.18-0.52,1.91-0.52
			c1.77,0,2.21,1.21,2.21,2.38v2.17c0,0.5,0.02,1,0.1,1.39H311.15z M310.99,365.38c-1.15-0.02-2.46,0.18-2.46,1.31
			c0,0.68,0.46,1.01,1,1.01c0.76,0,1.24-0.48,1.4-0.97c0.04-0.11,0.06-0.23,0.06-0.34V365.38z"/>
	</g>
	<rect x="320.91" y="234.95" class="st8" width="15" height="7.42"/>
	<polygon class="st8" points="94.68,332.05 110.95,334.3 117.77,332.05 115.53,325.91 125.12,325.91 126.17,332.5 132.77,332.8 
		137.42,339.1 131.27,348.1 125.42,356.19 107.73,361.74 84.94,368.34 95.73,353.5 93.18,345.85 80.29,351.4 80.29,341.95 	"/>
	<g>
		<path d="M87.65,307.73c0.5-0.08,1.16-0.16,2-0.16c1.03,0,1.79,0.24,2.27,0.67c0.44,0.38,0.71,0.97,0.71,1.69
			c0,0.73-0.22,1.31-0.62,1.73c-0.55,0.59-1.45,0.89-2.47,0.89c-0.31,0-0.6-0.01-0.84-0.07v3.24h-1.04V307.73z M88.69,311.62
			c0.23,0.06,0.52,0.08,0.86,0.08c1.26,0,2.03-0.61,2.03-1.73c0-1.07-0.76-1.58-1.91-1.58c-0.46,0-0.8,0.04-0.98,0.08V311.62z"/>
		<path d="M94.29,313c0.02,1.43,0.94,2.01,1.99,2.01c0.76,0,1.21-0.13,1.61-0.3l0.18,0.76c-0.37,0.17-1.01,0.36-1.93,0.36
			c-1.79,0-2.85-1.18-2.85-2.93c0-1.75,1.03-3.13,2.72-3.13c1.9,0,2.4,1.67,2.4,2.73c0,0.22-0.02,0.38-0.04,0.49H94.29z
			 M97.38,312.25c0.01-0.67-0.28-1.71-1.46-1.71c-1.07,0-1.54,0.98-1.62,1.71H97.38z"/>
		<path d="M99.57,314.63c0.31,0.2,0.86,0.42,1.39,0.42c0.77,0,1.13-0.38,1.13-0.86c0-0.5-0.3-0.78-1.08-1.07
			c-1.04-0.37-1.54-0.95-1.54-1.64c0-0.94,0.76-1.7,2-1.7c0.59,0,1.1,0.17,1.43,0.36l-0.26,0.77c-0.23-0.14-0.65-0.34-1.19-0.34
			c-0.62,0-0.97,0.36-0.97,0.79c0,0.48,0.35,0.7,1.1,0.98c1.01,0.38,1.52,0.89,1.52,1.75c0,1.02-0.79,1.74-2.17,1.74
			c-0.64,0-1.22-0.16-1.63-0.4L99.57,314.63z"/>
		<path d="M104.46,307.2h1.06v3.62h0.02c0.17-0.3,0.43-0.56,0.76-0.74c0.31-0.18,0.68-0.3,1.08-0.3c0.78,0,2.03,0.48,2.03,2.48v3.45
			h-1.06v-3.33c0-0.94-0.35-1.73-1.34-1.73c-0.68,0-1.22,0.48-1.42,1.06c-0.06,0.14-0.07,0.3-0.07,0.5v3.5h-1.06V307.2z"/>
		<path d="M114.34,315.71l-0.08-0.73h-0.04c-0.32,0.46-0.95,0.86-1.77,0.86c-1.18,0-1.77-0.83-1.77-1.67c0-1.4,1.25-2.17,3.49-2.16
			v-0.12c0-0.48-0.13-1.34-1.32-1.34c-0.54,0-1.1,0.17-1.51,0.43l-0.24-0.7c0.48-0.31,1.18-0.52,1.91-0.52
			c1.77,0,2.21,1.21,2.21,2.37v2.17c0,0.5,0.02,1,0.1,1.39H114.34z M114.18,312.75c-1.15-0.02-2.46,0.18-2.46,1.31
			c0,0.68,0.46,1.01,1,1.01c0.76,0,1.24-0.48,1.4-0.97c0.04-0.11,0.06-0.23,0.06-0.34V312.75z"/>
		<path d="M117.23,309.91l0.77,2.95c0.17,0.65,0.32,1.25,0.43,1.85h0.04c0.13-0.59,0.32-1.21,0.52-1.83l0.95-2.96h0.89l0.9,2.9
			c0.22,0.7,0.38,1.31,0.52,1.9h0.04c0.1-0.59,0.25-1.2,0.44-1.88l0.83-2.91h1.04l-1.87,5.8h-0.96l-0.89-2.77
			c-0.2-0.65-0.37-1.22-0.52-1.91h-0.02c-0.14,0.7-0.32,1.29-0.53,1.92l-0.94,2.76h-0.96l-1.75-5.8H117.23z"/>
		<path d="M128.81,315.71l-0.08-0.73h-0.04c-0.32,0.46-0.95,0.86-1.77,0.86c-1.18,0-1.77-0.83-1.77-1.67c0-1.4,1.25-2.17,3.49-2.16
			v-0.12c0-0.48-0.13-1.34-1.32-1.34c-0.54,0-1.1,0.17-1.51,0.43l-0.24-0.7c0.48-0.31,1.18-0.52,1.91-0.52
			c1.77,0,2.21,1.21,2.21,2.37v2.17c0,0.5,0.02,1,0.1,1.39H128.81z M128.65,312.75c-1.15-0.02-2.46,0.18-2.46,1.31
			c0,0.68,0.46,1.01,1,1.01c0.76,0,1.24-0.48,1.4-0.97c0.04-0.11,0.06-0.23,0.06-0.34V312.75z"/>
		<path d="M131.38,311.72c0-0.68-0.01-1.27-0.05-1.81h0.92l0.04,1.14h0.05c0.26-0.78,0.9-1.27,1.61-1.27c0.12,0,0.2,0.01,0.3,0.04v1
			c-0.11-0.02-0.22-0.04-0.36-0.04c-0.74,0-1.27,0.56-1.42,1.36c-0.02,0.14-0.05,0.31-0.05,0.49v3.09h-1.04V311.72z"/>
	</g>
	<g>
		<path d="M307.92,430.54l-0.18,2.67l-1.05,0.27l0.64-8.51l1.22-0.31l4.69,7.14l-1.08,0.28l-1.47-2.25L307.92,430.54z
			 M310.28,429.09l-1.35-2.06c-0.31-0.47-0.54-0.9-0.77-1.32l-0.02,0.01c0,0.49,0,1-0.03,1.52l-0.18,2.46L310.28,429.09z"/>
		<path d="M313.62,423.98l0.42,1.61l1.46-0.38l0.2,0.78l-1.46,0.38l0.78,3.03c0.18,0.7,0.48,1.04,1.05,0.89
			c0.27-0.07,0.46-0.15,0.57-0.22l0.24,0.75c-0.18,0.13-0.47,0.27-0.87,0.37c-0.48,0.12-0.9,0.07-1.21-0.15
			c-0.37-0.23-0.6-0.7-0.77-1.36l-0.79-3.07l-0.87,0.22l-0.2-0.78l0.87-0.22l-0.35-1.35L313.62,423.98z"/>
		<path d="M317.46,422.99l0.42,1.61l1.46-0.38l0.2,0.78l-1.46,0.38l0.78,3.03c0.18,0.7,0.48,1.04,1.05,0.89
			c0.27-0.07,0.46-0.15,0.57-0.22l0.24,0.75c-0.18,0.13-0.48,0.27-0.87,0.37c-0.48,0.12-0.9,0.07-1.21-0.15
			c-0.37-0.23-0.6-0.7-0.77-1.36l-0.79-3.07l-0.87,0.22l-0.2-0.78l0.87-0.22l-0.35-1.35L317.46,422.99z"/>
		<path d="M326.22,425.4c0.54,2.08-0.67,3.36-2.03,3.71c-1.52,0.39-2.98-0.42-3.44-2.2c-0.49-1.88,0.46-3.3,2.02-3.7
			C324.39,422.79,325.78,423.68,326.22,425.4z M321.78,426.61c0.32,1.23,1.27,1.98,2.26,1.72c0.98-0.25,1.47-1.36,1.15-2.62
			c-0.25-0.95-1.03-2.04-2.24-1.73C321.74,424.29,321.5,425.54,321.78,426.61z"/>
		<path d="M332.21,426.69c-0.23,0.21-0.78,0.55-1.53,0.74c-1.7,0.44-3.09-0.43-3.54-2.15c-0.45-1.73,0.42-3.29,2.25-3.76
			c0.6-0.16,1.18-0.14,1.49-0.08l-0.03,0.85c-0.28-0.08-0.7-0.11-1.25,0.04c-1.29,0.33-1.74,1.46-1.44,2.64
			c0.33,1.3,1.38,1.89,2.49,1.6c0.58-0.15,0.92-0.4,1.18-0.6L332.21,426.69z"/>
		<path d="M333.69,423.28l0.02-0.01c0.09-0.23,0.22-0.53,0.33-0.77l1.15-2.36l1.23-0.32l-1.58,2.87l3.33,2.67l-1.24,0.32l-2.63-2.19
			l-0.37,0.71l0.54,2.11l-1.01,0.26l-2.12-8.25l1.01-0.26L333.69,423.28z"/>
		<path d="M339.42,416.82c0.48-0.24,1.2-0.48,1.9-0.66c1.08-0.28,1.83-0.26,2.43,0.06c0.49,0.25,0.84,0.72,1,1.33
			c0.27,1.03-0.21,1.89-0.96,2.38l0.01,0.03c0.66,0.05,1.16,0.52,1.56,1.29c0.54,1.03,0.92,1.73,1.16,1.99l-1.05,0.27
			c-0.18-0.19-0.53-0.82-1-1.74c-0.51-1.02-1.03-1.32-1.96-1.12l-0.95,0.25l0.87,3.39l-1.01,0.26L339.42,416.82z M341.35,420.12
			l1.03-0.27c1.08-0.28,1.61-1.05,1.38-1.94c-0.26-1.01-1.11-1.26-2.18-1c-0.49,0.13-0.82,0.26-0.97,0.35L341.35,420.12z"/>
		<path d="M350.88,422.1l-0.26-0.69l-0.04,0.01c-0.2,0.52-0.7,1.07-1.5,1.28c-1.14,0.29-1.93-0.36-2.13-1.17
			c-0.35-1.36,0.67-2.41,2.84-2.96l-0.03-0.12c-0.12-0.46-0.46-1.27-1.61-0.97c-0.52,0.13-1.03,0.44-1.36,0.79l-0.41-0.61
			c0.39-0.42,1.01-0.79,1.72-0.97c1.72-0.44,2.44,0.62,2.73,1.75l0.54,2.1c0.12,0.49,0.27,0.96,0.44,1.32L350.88,422.1z
			 M349.99,419.27c-1.12,0.26-2.34,0.79-2.06,1.88c0.17,0.66,0.69,0.86,1.22,0.73c0.73-0.19,1.08-0.77,1.12-1.29
			c0.01-0.11,0-0.24-0.03-0.34L349.99,419.27z"/>
		<path d="M352.31,417.36c-0.15-0.58-0.29-1.05-0.44-1.51l0.91-0.23l0.3,0.91l0.02-0.01c0.14-0.61,0.66-1.3,1.59-1.54
			c0.78-0.2,2.11-0.05,2.6,1.88l0.86,3.36l-1.02,0.26l-0.83-3.24c-0.23-0.91-0.76-1.57-1.73-1.33c-0.67,0.17-1.07,0.78-1.1,1.4
			c-0.01,0.14,0.01,0.32,0.05,0.49l0.87,3.38l-1.02,0.26L352.31,417.36z"/>
		<path d="M363.21,412.93c0.08,0.41,0.17,0.87,0.35,1.56l0.84,3.26c0.33,1.29,0.28,2.14-0.14,2.77c-0.42,0.65-1.16,1.02-1.87,1.2
			c-0.67,0.17-1.46,0.2-1.99,0.02l0.05-0.84c0.43,0.14,1.07,0.2,1.76,0.02c1.04-0.27,1.67-1.01,1.31-2.43l-0.16-0.63l-0.02,0.01
			c-0.18,0.6-0.67,1.18-1.55,1.4c-1.39,0.36-2.7-0.57-3.1-2.12c-0.49-1.9,0.47-3.3,1.76-3.64c0.97-0.25,1.64,0.12,2,0.52l0.02-0.01
			l-0.17-0.86L363.21,412.93z M362.72,415.42c-0.04-0.17-0.1-0.32-0.18-0.45c-0.34-0.54-0.96-0.9-1.71-0.71
			c-0.98,0.25-1.46,1.25-1.12,2.56c0.28,1.1,1.08,1.88,2.18,1.59c0.63-0.16,1.09-0.7,1.15-1.41c0.01-0.19-0.01-0.39-0.06-0.57
			L362.72,415.42z"/>
		<path d="M366.2,415.35c0.38,1.38,1.41,1.72,2.43,1.45c0.73-0.19,1.14-0.43,1.48-0.69l0.36,0.69c-0.32,0.26-0.89,0.6-1.78,0.83
			c-1.73,0.45-3.06-0.43-3.49-2.12c-0.44-1.7,0.22-3.29,1.86-3.71c1.84-0.47,2.74,1.02,3.01,2.05c0.05,0.21,0.07,0.38,0.09,0.49
			L366.2,415.35z M369.01,413.85c-0.16-0.65-0.69-1.59-1.84-1.3c-1.03,0.27-1.24,1.34-1.14,2.06L369.01,413.85z"/>
	</g>
	<rect x="313.41" y="353.14" class="st8" width="15" height="7.42"/>
	<g>
		<path d="M188.44,509.82l1.01-0.26l0.97,3.77l0.04-0.01c0.13-0.36,0.27-0.69,0.4-1l1.64-3.55l1.25-0.32l-1.98,4.05l4.21,3.72
			l-1.2,0.31l-3.57-3.18l-0.52,1.05l0.77,2.99l-1.01,0.26L188.44,509.82z"/>
		<path d="M200.02,515.18l-0.26-0.69l-0.04,0.01c-0.2,0.52-0.7,1.07-1.5,1.28c-1.14,0.29-1.92-0.36-2.13-1.17
			c-0.35-1.36,0.67-2.41,2.84-2.96l-0.03-0.12c-0.12-0.46-0.46-1.27-1.61-0.97c-0.52,0.13-1.03,0.44-1.36,0.79l-0.41-0.61
			c0.39-0.42,1.01-0.79,1.72-0.98c1.72-0.44,2.44,0.62,2.73,1.75l0.54,2.1c0.12,0.49,0.27,0.96,0.44,1.32L200.02,515.18z
			 M199.13,512.35c-1.12,0.26-2.34,0.79-2.06,1.88c0.17,0.66,0.69,0.86,1.22,0.73c0.73-0.19,1.08-0.77,1.12-1.29
			c0.01-0.11,0-0.24-0.03-0.34L199.13,512.35z"/>
		<path d="M200.39,506.3l1.02-0.26l2.12,8.25l-1.02,0.26L200.39,506.3z"/>
		<path d="M208.37,513.04l-0.26-0.69l-0.04,0.01c-0.2,0.52-0.7,1.07-1.5,1.28c-1.14,0.29-1.92-0.36-2.13-1.17
			c-0.35-1.36,0.67-2.41,2.84-2.96l-0.03-0.12c-0.12-0.46-0.46-1.27-1.61-0.97c-0.52,0.13-1.03,0.44-1.36,0.79l-0.41-0.61
			c0.39-0.42,1.01-0.79,1.72-0.97c1.72-0.44,2.44,0.62,2.73,1.75l0.54,2.1c0.13,0.49,0.27,0.96,0.44,1.32L208.37,513.04z
			 M207.48,510.21c-1.12,0.26-2.34,0.79-2.05,1.88c0.17,0.66,0.69,0.86,1.22,0.73c0.73-0.19,1.08-0.77,1.12-1.29
			c0.01-0.11,0-0.24-0.03-0.34L207.48,510.21z"/>
		<path d="M218.76,510.09c-0.32,0.28-1.02,0.66-1.97,0.9c-2.21,0.57-4.23-0.4-4.89-2.96c-0.63-2.45,0.6-4.54,3.03-5.16
			c0.98-0.25,1.64-0.2,1.95-0.13l-0.03,0.89c-0.43-0.09-1.01-0.09-1.66,0.08c-1.83,0.47-2.75,1.96-2.22,4.02
			c0.49,1.92,1.91,2.86,3.82,2.37c0.62-0.16,1.21-0.45,1.56-0.75L218.76,510.09z"/>
		<path d="M217.93,501.78l1.02-0.26l0.9,3.51l0.02-0.01c0.09-0.33,0.28-0.65,0.55-0.91c0.26-0.25,0.59-0.46,0.97-0.56
			c0.75-0.19,2.08-0.04,2.58,1.9l0.86,3.34l-1.02,0.26l-0.83-3.23c-0.23-0.91-0.77-1.59-1.73-1.34c-0.66,0.17-1.07,0.77-1.11,1.38
			c-0.02,0.15,0.01,0.31,0.06,0.51l0.87,3.39l-1.02,0.26L217.93,501.78z"/>
		<path d="M225.79,500.87c0.1,0.34-0.08,0.69-0.49,0.79c-0.36,0.09-0.69-0.12-0.78-0.47c-0.09-0.36,0.1-0.71,0.47-0.8
			C225.38,500.29,225.7,500.51,225.79,500.87z M226.51,508.36l-1.45-5.62l1.02-0.26l1.45,5.62L226.51,508.36z"/>
		<path d="M228.6,500.11l0.42,1.61l1.46-0.38l0.2,0.78l-1.46,0.38l0.78,3.03c0.18,0.7,0.48,1.04,1.05,0.89
			c0.27-0.07,0.46-0.15,0.57-0.22l0.24,0.75c-0.18,0.13-0.48,0.27-0.87,0.37c-0.48,0.12-0.9,0.07-1.21-0.14
			c-0.37-0.23-0.6-0.7-0.77-1.36l-0.79-3.07l-0.87,0.22l-0.2-0.78l0.87-0.22l-0.35-1.35L228.6,500.11z"/>
		<path d="M232.44,499.12l0.42,1.61l1.46-0.38l0.2,0.78l-1.46,0.38l0.78,3.03c0.18,0.7,0.48,1.04,1.05,0.89
			c0.27-0.07,0.46-0.15,0.57-0.22l0.24,0.75c-0.18,0.13-0.47,0.27-0.87,0.37c-0.48,0.12-0.9,0.07-1.21-0.15
			c-0.37-0.23-0.6-0.7-0.77-1.36l-0.79-3.07l-0.87,0.22l-0.2-0.78l0.87-0.22l-0.35-1.35L232.44,499.12z"/>
		<path d="M240.03,504.88l-0.26-0.69l-0.03,0.01c-0.2,0.52-0.7,1.07-1.5,1.28c-1.14,0.29-1.92-0.36-2.13-1.17
			c-0.35-1.36,0.67-2.41,2.84-2.96l-0.03-0.12c-0.12-0.46-0.46-1.27-1.61-0.97c-0.52,0.13-1.03,0.44-1.36,0.79l-0.41-0.61
			c0.39-0.42,1.01-0.79,1.72-0.97c1.72-0.44,2.44,0.62,2.73,1.75l0.54,2.1c0.13,0.49,0.27,0.96,0.44,1.32L240.03,504.88z
			 M239.14,502.05c-1.12,0.26-2.34,0.79-2.05,1.88c0.17,0.66,0.69,0.86,1.22,0.73c0.73-0.19,1.08-0.77,1.12-1.29
			c0.01-0.11,0-0.24-0.03-0.34L239.14,502.05z"/>
		<path d="M243.03,495.87c0.48-0.24,1.2-0.48,1.9-0.66c1.08-0.28,1.83-0.26,2.43,0.06c0.49,0.25,0.84,0.72,1,1.33
			c0.27,1.03-0.21,1.89-0.96,2.38l0.01,0.03c0.66,0.05,1.16,0.52,1.56,1.29c0.54,1.03,0.92,1.73,1.16,1.99l-1.05,0.27
			c-0.18-0.19-0.53-0.82-1-1.74c-0.51-1.02-1.03-1.32-1.96-1.12l-0.95,0.25l0.87,3.39l-1.01,0.26L243.03,495.87z M244.96,499.18
			l1.03-0.27c1.08-0.28,1.61-1.05,1.38-1.94c-0.26-1.01-1.11-1.26-2.18-1c-0.49,0.13-0.82,0.26-0.97,0.35L244.96,499.18z"/>
		<path d="M254.49,501.16l-0.26-0.69l-0.03,0.01c-0.2,0.52-0.7,1.07-1.5,1.28c-1.14,0.29-1.93-0.36-2.13-1.17
			c-0.35-1.36,0.67-2.41,2.84-2.96l-0.03-0.12c-0.12-0.46-0.46-1.27-1.61-0.97c-0.52,0.13-1.03,0.44-1.36,0.79l-0.41-0.61
			c0.39-0.42,1.01-0.79,1.72-0.97c1.72-0.44,2.44,0.62,2.73,1.75l0.54,2.1c0.13,0.49,0.27,0.96,0.44,1.32L254.49,501.16z
			 M253.6,498.33c-1.12,0.26-2.34,0.79-2.05,1.88c0.17,0.66,0.69,0.86,1.22,0.73c0.73-0.19,1.08-0.77,1.12-1.29
			c0.01-0.11,0-0.24-0.03-0.34L253.6,498.33z"/>
		<path d="M255.92,496.41c-0.15-0.58-0.28-1.05-0.44-1.51l0.91-0.23l0.3,0.91l0.02-0.01c0.14-0.61,0.66-1.3,1.59-1.54
			c0.78-0.2,2.11-0.05,2.6,1.88l0.86,3.36l-1.02,0.26l-0.83-3.24c-0.23-0.91-0.76-1.57-1.73-1.33c-0.67,0.17-1.07,0.78-1.1,1.4
			c-0.01,0.14,0.01,0.32,0.05,0.49l0.87,3.38l-1.02,0.26L255.92,496.41z"/>
		<path d="M266.82,491.98c0.08,0.41,0.17,0.87,0.35,1.56l0.84,3.26c0.33,1.29,0.28,2.14-0.14,2.77c-0.41,0.65-1.16,1.02-1.87,1.2
			c-0.67,0.17-1.46,0.2-1.99,0.02l0.05-0.84c0.43,0.14,1.07,0.2,1.76,0.02c1.05-0.27,1.67-1.01,1.31-2.43l-0.16-0.63l-0.02,0.01
			c-0.18,0.6-0.67,1.18-1.55,1.4c-1.39,0.36-2.7-0.57-3.1-2.12c-0.49-1.91,0.47-3.31,1.76-3.64c0.98-0.25,1.64,0.12,2,0.52
			l0.02-0.01l-0.17-0.86L266.82,491.98z M266.34,494.48c-0.04-0.17-0.1-0.32-0.18-0.45c-0.34-0.54-0.96-0.9-1.71-0.71
			c-0.98,0.25-1.46,1.25-1.12,2.56c0.28,1.1,1.08,1.88,2.18,1.59c0.63-0.16,1.09-0.7,1.15-1.41c0.01-0.19-0.01-0.39-0.06-0.57
			L266.34,494.48z"/>
		<path d="M269.81,494.41c0.38,1.38,1.41,1.72,2.43,1.45c0.73-0.19,1.14-0.43,1.48-0.69l0.36,0.69c-0.32,0.26-0.89,0.6-1.78,0.83
			c-1.73,0.45-3.06-0.43-3.49-2.12s0.22-3.29,1.86-3.71c1.83-0.47,2.74,1.02,3,2.05c0.05,0.21,0.07,0.38,0.09,0.49L269.81,494.41z
			 M272.62,492.91c-0.16-0.65-0.7-1.59-1.84-1.3c-1.03,0.27-1.24,1.34-1.14,2.06L272.62,492.91z"/>
	</g>
	<g>
		<path d="M369.24,260.09c1.01-0.17,2.33-0.31,4.01-0.31c2.06,0,3.58,0.48,4.54,1.34c0.89,0.77,1.42,1.94,1.42,3.38
			c0,1.46-0.43,2.62-1.25,3.46c-1.1,1.18-2.9,1.78-4.94,1.78c-0.62,0-1.2-0.02-1.68-0.14v6.48h-2.09V260.09z M371.33,267.89
			c0.46,0.12,1.03,0.17,1.73,0.17c2.52,0,4.06-1.22,4.06-3.46c0-2.14-1.51-3.17-3.82-3.17c-0.91,0-1.61,0.07-1.97,0.17V267.89z"/>
		<path d="M382.51,270.65c0.05,2.86,1.87,4.03,3.98,4.03c1.51,0,2.42-0.26,3.22-0.6l0.36,1.51c-0.74,0.34-2.02,0.72-3.86,0.72
			c-3.58,0-5.71-2.35-5.71-5.86c0-3.5,2.06-6.26,5.45-6.26c3.79,0,4.8,3.34,4.8,5.47c0,0.43-0.05,0.77-0.07,0.98H382.51z
			 M388.7,269.14c0.02-1.34-0.55-3.43-2.93-3.43c-2.14,0-3.07,1.97-3.24,3.43H388.7z"/>
		<path d="M393.07,273.92c0.62,0.41,1.73,0.84,2.78,0.84c1.54,0,2.26-0.77,2.26-1.73c0-1.01-0.6-1.56-2.16-2.14
			c-2.09-0.74-3.07-1.9-3.07-3.29c0-1.87,1.51-3.41,4.01-3.41c1.18,0,2.21,0.34,2.86,0.72l-0.53,1.54c-0.46-0.29-1.3-0.67-2.38-0.67
			c-1.25,0-1.94,0.72-1.94,1.58c0,0.96,0.7,1.39,2.21,1.97c2.02,0.77,3.05,1.78,3.05,3.5c0,2.04-1.58,3.48-4.34,3.48
			c-1.27,0-2.45-0.31-3.26-0.79L393.07,273.92z"/>
		<path d="M402.86,259.04h2.11v7.25h0.05c0.34-0.6,0.86-1.13,1.51-1.49c0.62-0.36,1.37-0.6,2.16-0.6c1.56,0,4.06,0.96,4.06,4.97
			v6.91h-2.11v-6.67c0-1.87-0.7-3.46-2.69-3.46c-1.37,0-2.45,0.96-2.83,2.11c-0.12,0.29-0.14,0.6-0.14,1.01v7.01h-2.11V259.04z"/>
		<path d="M422.62,276.08l-0.17-1.46h-0.07c-0.65,0.91-1.9,1.73-3.55,1.73c-2.35,0-3.55-1.66-3.55-3.34c0-2.81,2.5-4.34,6.98-4.32
			v-0.24c0-0.96-0.26-2.69-2.64-2.69c-1.08,0-2.21,0.34-3.02,0.86l-0.48-1.39c0.96-0.62,2.35-1.03,3.82-1.03
			c3.55,0,4.42,2.42,4.42,4.75v4.34c0,1.01,0.05,1.99,0.19,2.78H422.62z M422.3,270.15c-2.3-0.05-4.92,0.36-4.92,2.62
			c0,1.37,0.91,2.02,1.99,2.02c1.51,0,2.47-0.96,2.81-1.94c0.07-0.22,0.12-0.46,0.12-0.67V270.15z"/>
		<path d="M428.4,264.46l1.54,5.9c0.34,1.3,0.65,2.5,0.86,3.7h0.07c0.26-1.18,0.65-2.42,1.03-3.67l1.9-5.93h1.78l1.8,5.81
			c0.43,1.39,0.77,2.62,1.03,3.79h0.07c0.19-1.18,0.5-2.4,0.89-3.77l1.66-5.83h2.09l-3.74,11.62h-1.92l-1.78-5.54
			c-0.41-1.3-0.74-2.45-1.03-3.82h-0.05c-0.29,1.39-0.65,2.59-1.06,3.84l-1.87,5.52h-1.92l-3.5-11.62H428.4z"/>
		<path d="M451.56,276.08l-0.17-1.46h-0.07c-0.65,0.91-1.9,1.73-3.55,1.73c-2.35,0-3.55-1.66-3.55-3.34c0-2.81,2.5-4.34,6.99-4.32
			v-0.24c0-0.96-0.26-2.69-2.64-2.69c-1.08,0-2.21,0.34-3.03,0.86l-0.48-1.39c0.96-0.62,2.35-1.03,3.82-1.03
			c3.55,0,4.42,2.42,4.42,4.75v4.34c0,1.01,0.05,1.99,0.19,2.78H451.56z M451.25,270.15c-2.3-0.05-4.92,0.36-4.92,2.62
			c0,1.37,0.91,2.02,1.99,2.02c1.51,0,2.47-0.96,2.81-1.94c0.07-0.22,0.12-0.46,0.12-0.67V270.15z"/>
		<path d="M456.69,268.08c0-1.37-0.02-2.54-0.1-3.62h1.85l0.07,2.28h0.1c0.53-1.56,1.8-2.54,3.22-2.54c0.24,0,0.41,0.02,0.6,0.07
			v1.99c-0.22-0.05-0.43-0.07-0.72-0.07c-1.49,0-2.54,1.13-2.83,2.71c-0.05,0.29-0.1,0.62-0.1,0.98v6.19h-2.09V268.08z"/>
		<path d="M384.5,288.92c0.91-0.19,2.35-0.34,3.82-0.34c2.09,0,3.43,0.36,4.44,1.18c0.84,0.62,1.34,1.58,1.34,2.86
			c0,1.56-1.03,2.93-2.74,3.55v0.05c1.54,0.38,3.34,1.66,3.34,4.06c0,1.39-0.55,2.45-1.37,3.24c-1.13,1.03-2.95,1.51-5.59,1.51
			c-1.44,0-2.54-0.1-3.24-0.19V288.92z M386.59,295.54h1.9c2.21,0,3.5-1.15,3.5-2.71c0-1.9-1.44-2.64-3.55-2.64
			c-0.96,0-1.51,0.07-1.85,0.14V295.54z M386.59,303.29c0.41,0.07,1.01,0.1,1.75,0.1c2.16,0,4.15-0.79,4.15-3.14
			c0-2.21-1.9-3.12-4.18-3.12h-1.73V303.29z"/>
		<path d="M403.87,304.88l-0.17-1.46h-0.07c-0.65,0.91-1.9,1.73-3.55,1.73c-2.35,0-3.55-1.66-3.55-3.34c0-2.81,2.5-4.34,6.98-4.32
			v-0.24c0-0.96-0.26-2.69-2.64-2.69c-1.08,0-2.21,0.34-3.02,0.86l-0.48-1.39c0.96-0.62,2.35-1.03,3.82-1.03
			c3.55,0,4.42,2.42,4.42,4.75v4.34c0,1.01,0.05,1.99,0.19,2.78H403.87z M403.56,298.95c-2.3-0.05-4.92,0.36-4.92,2.62
			c0,1.37,0.91,2.02,1.99,2.02c1.51,0,2.47-0.96,2.81-1.94c0.07-0.22,0.12-0.46,0.12-0.67V298.95z"/>
		<path d="M408.72,302.72c0.62,0.41,1.73,0.84,2.79,0.84c1.54,0,2.26-0.77,2.26-1.73c0-1.01-0.6-1.56-2.16-2.14
			c-2.09-0.74-3.07-1.9-3.07-3.29c0-1.87,1.51-3.41,4.01-3.41c1.18,0,2.21,0.34,2.86,0.72l-0.53,1.54c-0.46-0.29-1.3-0.67-2.38-0.67
			c-1.25,0-1.94,0.72-1.94,1.58c0,0.96,0.7,1.39,2.21,1.97c2.02,0.77,3.05,1.78,3.05,3.5c0,2.04-1.58,3.48-4.34,3.48
			c-1.27,0-2.45-0.31-3.26-0.79L408.72,302.72z"/>
		<path d="M420.86,290c0.02,0.72-0.5,1.3-1.34,1.3c-0.74,0-1.27-0.58-1.27-1.3c0-0.74,0.55-1.32,1.32-1.32
			C420.36,288.68,420.86,289.25,420.86,290z M418.51,304.88v-11.62h2.11v11.62H418.51z"/>
		<path d="M424.13,296.4c0-1.2-0.02-2.18-0.1-3.14h1.87l0.12,1.92h0.05c0.58-1.1,1.92-2.18,3.84-2.18c1.61,0,4.1,0.96,4.1,4.94v6.94
			h-2.11v-6.7c0-1.87-0.7-3.43-2.69-3.43c-1.39,0-2.47,0.98-2.83,2.16c-0.1,0.26-0.14,0.62-0.14,0.98v6.98h-2.11V296.4z"/>
	</g>
	<g>
	</g>
</g>
<g id="rivers">
	<path class="st9" d="M358.46,91.88c-0.91,2.46-4.04,3.7-5.92,5.28c-2.83,2.39-5.81,4.77-7.25,8.3c-1.22,2.99-1.49,6.62-3.1,9.78
		c-2.26,4.41-5.03,7.69-6.79,12.4c-2.39,6.38-4.14,14.3-7.97,20.81c-4.07,6.92-10.32,11.88-12.02,20.22
		c-0.92,4.49-0.26,8.98,0.82,13.38c0.51,2.06,1.28,4.14,1.58,6.24c0.32,2.16,0.07,4.22,1.05,6.31c0.46,0.98,1.11,1.8,1.49,2.81
		c0.3,0.82,0.38,1.67,0.61,2.49c0.4,1.47,1.35,2.52,1.35,4.13c0,1.41-0.06,3.02,0.43,4.36c0.47,1.28,1.6,2.46,2.44,3.53
		c5.86,7.53,16.17,14.79,19.73,23.85c1.69,4.29,1.12,10.87-0.69,14.96c-1.9,4.27-4.96,7.92-6.22,12.47
		c-1.49,5.37,0.95,7.99-3.64,11.76c-3.24,2.66-5.14,4.13-5.48,8.44c-0.33,4.22-0.78,7.11-2.11,11.14c-1.25,3.79,0.18,4.59,1.49,7.92
		c1.22,3.13,2.94,8.13,2.72,11.87c-0.11,1.84-0.23,3.68-0.51,5.5c-0.24,1.55-0.5,4.2-1.59,5.43c-0.94,1.07-2.25,1.08-3.03,2.59
		c-0.62,1.2-1.05,2.88-0.63,4.22c0.71,2.28,3.5,2.07,5.48,2.2c0.29,0.49,1.02,0.46,1.31,0.98c0.25,0.45,0.08,1.34,0.08,1.87
		c0,1.08-0.04,2.45,1.26,2.75"/>
	<path class="st9" d="M243.55,93.62c2.58,2.49,3.1,5.46,6.18,7.4c4.98,3.14,8.06,4.96,9.84,10.72c1.12,3.62,4.04,5.55,4.17,9.74
		c0.13,4.21-2.09,5.9-3.23,9.44c-0.79,2.47,0.23,6.06,1.08,8.4c2.2,6.01,7.19,10.15,11.59,14.54c7.47,7.44,8.98,16.52,14.34,24.63
		c0.2,0.3,7.62,0.59,8.82,1.06c2.54,0.99,4.05,2.64,6.09,4.29c3.97,3.22,7.86,9.48,12.77,11.17c1.31,3.69,2.12,9,7.04,8.34
		c-0.57-1.16-0.94,0.02-1.84-0.69"/>
	<path class="st9" d="M152.41,39.66c-1.64,0.08-3.23-0.06-4.83,0.17c-4.32,5.44-7.84,11.63-12.43,17.61
		c-5.83,7.6-11.68,6.88-20.52,5.02c-7.71-1.62-13.61-2.93-22.28,0.38c-9.61,3.67-8.81,10.34-12.95,18.6
		c-3.57,7.12-9.58,10.14-5.8,19.03c3.39,7.98,7.89,9.19,8.8,19.17c0.73,7.92,0.21,19,6,25.02c5.32,5.53,14.12,6.29,20.66,9.65
		c5.76,2.96,6.9,9.85,11.46,13.89c5.4,4.79,8.58,10.55,11.95,16.9c1.61,3.04,1.73,6.03,2.51,9.33c1.02,4.29,4.14,5.82,7.25,8.52
		c2.6,2.26,3.35,5.22,5.47,7.68c2.23,2.59,5.13,4.32,6.95,7.39c2.03,3.41,3.13,7.21,3.92,11.12c0.85,4.23,2.55,7.56,4.44,11.31
		c2.19,4.34,1.57,9.53,3.83,13.7c1.34,2.48,3.56,4.03,4.29,6.94c1.31,5.17,1.74,5.06,5.92,8.74c2.58,2.27,1.55,4.16,2.07,7.62
		c0.56,3.71,3.78,5.6,3.48,9.43c-0.21,2.72-2.27,4.37-1.74,7.31c0.39,2.16,1.33,3.45,3.48,3.83"/>
	<path class="st9" d="M154.06,109.29c0.31,2.37,2,3.63,3.06,5.73c1.14,2.27,1.57,4.83,3.2,7.15c3.07,4.34,8.07,6.74,11.42,10.53
		c3.24,3.67,2.75,10.91,2.53,15.95c-0.14,3.29-0.68,6.75-1.33,10.04c-0.94,4.69-2.88,9.53-2.98,14.16
		c-0.11,5.05-0.06,10.59,0.86,15.56c0.89,4.84,4.36,8.29,6.55,12.53c2.47,4.79,5.07,9.81,8.97,13.69c3.25,3.23,8.82,5.14,10.9,9.92
		c1.51,3.46,0.88,7.49,0.63,11.08c-2.41,2.27,0.29,10.34-1.76,13.93c-1.62,2.83-3.26,5.27-4.71,8.15
		c-3.74,7.42-12.69,9.1-12.97,18.37"/>
	<path class="st9" d="M70.84,336.67c6.73-5.63,2.73-15.53,8.97-21.33c2.5-2.32,5.77-3.65,8.52-5.42c3-1.93,4.83-1.5,8.29-2.14
		c3.27-0.61,6.15-1.84,9.38-2.46c3.14-0.6,5.88-1.85,8.71-3.49c3.32-1.93,6.75-4.24,10.11-5.85c3.51-1.68,3.25-0.06,6.24,0.92
		c2.16,0.71,5.05-0.4,7.06-0.21c2.83,0.27,6.76,1.54,9.43,2.81c2.11,1.01,3.31,2.99,5.46,4c2.45,1.15,6.78,1.26,9.5,1.46
		c2.77,0.21,6.17,0.66,8.73-0.69c1.2-0.63,2.59-1.55,3.81-1.91c1.36-0.4,2.75-0.28,4.04-0.95c1.15-0.59,1.96-1.12,3.24-1.39
		c2.65-0.56,4.38-3.22,7.25-3.07"/>
	<path class="st9" d="M34.41,415.66c6.09-13.49,24.22-17.36,36-22c13.57-5.35,17.51-19.88,32.03-24.97
		c13.18-4.61,28.81-8.37,37.05-19.78c6.25-8.66,12.71-17.14,21.06-23.9c3.3-2.67,7.03-4.65,9.16-8.4c1.97-3.46,2.51-7.6,4.54-11.01
		c2.72-4.57,8.68-5.59,13.23-6.89"/>
	<path class="st9" d="M96.41,466.66c12.57-10.75,15.82-28.92,18-45c1.41-10.38-1.63-14.45,5.27-21.78
		c4.54-4.83,11.28-7.33,15.51-12.44c4.3-5.19,6.46-13.15,11-18.72c4.68-5.75,9.96-8.83,15.47-13.83c7.69-7,14.93-14.72,20.69-23.4
		c2.81-4.24,4.9-8.46,6.52-13.24c1.24-3.66,2.23-9.21,5.23-11.87c2.86-2.53,10.06-6.16,13.12-1.82"/>
	<g>
		<path d="M474.86,369.48l-2.96,1.78l-0.27-0.83l0.98-0.59l-2.22-6.86l-0.98,0.59l-0.27-0.83l2.96-1.78l0.27,0.83l-0.98,0.59
			l2.23,6.86l0.98-0.59L474.86,369.48z"/>
		<path d="M479.49,360.81c0.05,0.08,0.11,0.19,0.17,0.34c0.07,0.15,0.12,0.28,0.15,0.4l1.35,4.15l-0.94,0.57l-1.19-3.63
			c-0.07-0.2-0.13-0.38-0.19-0.52c-0.06-0.15-0.13-0.28-0.21-0.41c-0.17-0.28-0.37-0.45-0.59-0.51s-0.52,0.02-0.88,0.24
			c-0.25,0.15-0.49,0.39-0.72,0.72s-0.42,0.67-0.59,1.04l1.55,4.77l-0.94,0.57l-2.08-6.39l0.94-0.57l0.23,0.71
			c0.21-0.47,0.43-0.86,0.66-1.18s0.51-0.58,0.85-0.78c0.49-0.29,0.94-0.4,1.36-0.32C478.86,360.07,479.21,360.34,479.49,360.81z"/>
		<path d="M484.63,352.97l2.89,8.9l-0.94,0.57l-0.22-0.67c-0.25,0.55-0.47,0.95-0.67,1.21c-0.2,0.26-0.45,0.48-0.75,0.66
			c-0.53,0.32-1.05,0.4-1.56,0.25c-0.51-0.15-0.96-0.54-1.34-1.18c-0.32-0.54-0.55-1.1-0.67-1.68c-0.12-0.58-0.15-1.14-0.08-1.67
			c0.07-0.53,0.24-1.01,0.5-1.46c0.26-0.44,0.61-0.79,1.05-1.06c0.3-0.18,0.59-0.31,0.88-0.4s0.58-0.13,0.87-0.14l-0.9-2.77
			L484.63,352.97z M484.88,357.19c-0.29,0.02-0.57,0.07-0.82,0.14s-0.5,0.18-0.74,0.33c-0.35,0.21-0.61,0.48-0.78,0.81
			c-0.17,0.33-0.27,0.7-0.29,1.11c-0.02,0.37,0.04,0.77,0.17,1.2c0.13,0.43,0.3,0.82,0.51,1.17c0.25,0.41,0.52,0.67,0.83,0.78
			c0.3,0.11,0.65,0.05,1.05-0.19c0.28-0.17,0.53-0.41,0.73-0.73c0.21-0.32,0.38-0.63,0.53-0.95L484.88,357.19z"/>
		<path d="M491.95,351.57l2.08,6.38l-0.94,0.57l-0.23-0.71c-0.21,0.46-0.43,0.85-0.66,1.17c-0.23,0.32-0.51,0.59-0.86,0.8
			c-0.48,0.29-0.93,0.39-1.35,0.31c-0.42-0.08-0.77-0.35-1.04-0.82c-0.07-0.11-0.13-0.23-0.18-0.35c-0.05-0.12-0.1-0.25-0.16-0.4
			l-1.35-4.14l0.94-0.57l1.19,3.64c0.05,0.15,0.11,0.31,0.18,0.5s0.14,0.32,0.2,0.42c0.17,0.29,0.38,0.46,0.61,0.52
			c0.23,0.06,0.52-0.02,0.87-0.23c0.25-0.15,0.49-0.39,0.72-0.73c0.23-0.33,0.43-0.68,0.59-1.03l-1.56-4.77L491.95,351.57z"/>
		<path d="M497.73,355.92c-0.42,0.25-0.82,0.42-1.21,0.52c-0.39,0.09-0.74,0.15-1.03,0.16l-0.4-1.14l0.05-0.03
			c0.11,0.02,0.24,0.03,0.4,0.05c0.16,0.01,0.35,0.01,0.58-0.01c0.2-0.02,0.42-0.06,0.66-0.13c0.24-0.07,0.47-0.17,0.7-0.31
			c0.47-0.28,0.79-0.59,0.95-0.93s0.14-0.67-0.06-1.01c-0.11-0.18-0.26-0.27-0.45-0.29c-0.19-0.01-0.44,0.03-0.73,0.12
			c-0.15,0.05-0.33,0.11-0.53,0.18c-0.21,0.07-0.42,0.14-0.63,0.2c-0.46,0.12-0.84,0.14-1.16,0.04c-0.31-0.1-0.56-0.29-0.74-0.6
			c-0.16-0.26-0.25-0.54-0.27-0.84s0.02-0.61,0.13-0.93c0.11-0.31,0.29-0.62,0.55-0.93c0.26-0.31,0.6-0.59,1-0.83
			c0.34-0.2,0.69-0.36,1.08-0.48c0.38-0.12,0.72-0.18,1-0.18l0.38,1.08l-0.05,0.03c-0.08-0.01-0.2-0.02-0.35-0.03
			c-0.15-0.01-0.34,0-0.55,0.02c-0.18,0.02-0.38,0.07-0.6,0.14c-0.22,0.07-0.44,0.17-0.64,0.29c-0.42,0.25-0.71,0.54-0.86,0.88
			c-0.16,0.33-0.14,0.65,0.04,0.96c0.1,0.17,0.25,0.27,0.44,0.3c0.2,0.04,0.44,0.01,0.74-0.09c0.19-0.06,0.38-0.12,0.58-0.2
			c0.2-0.07,0.4-0.14,0.59-0.2c0.45-0.14,0.83-0.16,1.15-0.07c0.32,0.09,0.57,0.28,0.76,0.59c0.16,0.26,0.25,0.55,0.27,0.87
			c0.03,0.32-0.02,0.64-0.14,0.96c-0.12,0.33-0.32,0.66-0.6,0.97C498.5,355.38,498.15,355.66,497.73,355.92z"/>
		<path d="M511.19,347.64l-1.17,0.7l-3.76-1.81l-1.42,0.86l1.11,3.4l-1,0.6l-2.78-8.51l2.04-1.22c0.46-0.27,0.84-0.47,1.16-0.58
			c0.32-0.11,0.63-0.16,0.94-0.13c0.27,0.03,0.52,0.1,0.74,0.23c0.22,0.13,0.42,0.34,0.6,0.63c0.38,0.62,0.51,1.29,0.4,1.99
			c-0.11,0.71-0.42,1.34-0.94,1.9L511.19,347.64z M506.69,342.69c-0.11-0.18-0.22-0.31-0.35-0.4c-0.13-0.09-0.27-0.14-0.43-0.17
			c-0.19-0.03-0.39-0.01-0.6,0.07c-0.21,0.07-0.45,0.19-0.71,0.35l-1.12,0.68l1.07,3.28l1.05-0.63c0.33-0.2,0.59-0.4,0.8-0.6
			c0.21-0.2,0.36-0.44,0.47-0.71c0.12-0.3,0.17-0.61,0.14-0.94C506.96,343.28,506.87,342.97,506.69,342.69z"/>
		<path d="M510.25,337.95l0.36,1.12l-1.07,0.64l-0.36-1.11L510.25,337.95z M510.89,340.18l2.08,6.39l-0.94,0.57l-2.08-6.39
			L510.89,340.18z"/>
		<path d="M517.54,336.18l-0.19,7.75l-0.94,0.56l-4.33-5.03l0.96-0.58l3.41,4.06l0.06-6.14L517.54,336.18z"/>
		<path d="M523.65,340.33c-0.78,0.47-1.5,0.65-2.16,0.55c-0.66-0.1-1.2-0.5-1.62-1.2c-0.62-1.03-0.82-2.1-0.62-3.23
			c0.21-1.12,0.79-1.98,1.74-2.55c0.64-0.38,1.22-0.52,1.75-0.4s0.96,0.46,1.31,1.03c0.06,0.1,0.14,0.27,0.24,0.5
			c0.1,0.23,0.21,0.52,0.32,0.84l-4.13,2.48c0.04,0.11,0.08,0.21,0.13,0.31c0.05,0.1,0.1,0.19,0.15,0.27
			c0.28,0.47,0.65,0.76,1.1,0.85c0.45,0.1,0.94-0.01,1.47-0.33c0.37-0.22,0.7-0.52,1.01-0.9c0.3-0.38,0.53-0.74,0.69-1.08l0.06-0.03
			l0.41,1.14c-0.13,0.16-0.25,0.31-0.35,0.44s-0.24,0.28-0.42,0.46c-0.18,0.18-0.34,0.32-0.48,0.45S523.89,340.18,523.65,340.33z
			 M523.4,335.65c-0.04-0.11-0.08-0.2-0.11-0.27s-0.07-0.15-0.12-0.23c-0.21-0.36-0.48-0.58-0.8-0.66
			c-0.32-0.08-0.69,0.01-1.12,0.27c-0.48,0.29-0.81,0.69-1,1.2c-0.19,0.52-0.21,1.05-0.05,1.62L523.4,335.65z"/>
		<path d="M528.8,330.77l-0.05,0.03c-0.15,0.05-0.29,0.1-0.42,0.15c-0.12,0.05-0.27,0.13-0.43,0.23c-0.31,0.19-0.58,0.45-0.81,0.78
			c-0.22,0.33-0.42,0.68-0.58,1.05l1.49,4.53l-0.95,0.57l-2.09-6.38l0.95-0.57l0.31,0.94c0.26-0.58,0.51-1.02,0.74-1.33
			c0.24-0.31,0.5-0.55,0.78-0.72c0.16-0.1,0.29-0.17,0.37-0.2c0.08-0.04,0.2-0.08,0.35-0.15L528.8,330.77z"/>
	</g>
	<g>
		<path d="M231.15,317.63l-1.34-0.31l-1.73-4.4l-1.39,0.71l-1.3,2.66l-1.14-0.27l3.94-8.04l1.14,0.27l-2.05,4.16l6.01-3.24
			l1.44,0.34l-5.61,2.98L231.15,317.63z"/>
		<path d="M236.44,318.15c-0.12,0.04-0.28,0.09-0.48,0.16s-0.41,0.12-0.61,0.16c-0.21,0.04-0.45,0.07-0.7,0.07
			c-0.25,0-0.54-0.03-0.85-0.11c-0.51-0.12-0.88-0.36-1.13-0.73c-0.25-0.37-0.31-0.79-0.2-1.27c0.12-0.51,0.33-0.91,0.63-1.2
			c0.3-0.3,0.7-0.5,1.19-0.62c0.48-0.12,1.04-0.15,1.66-0.11c0.63,0.04,1.33,0.15,2.12,0.3c0.05-0.1,0.09-0.19,0.12-0.26
			c0.03-0.07,0.06-0.15,0.08-0.24c0.04-0.18,0.04-0.34,0-0.47c-0.05-0.13-0.13-0.25-0.24-0.35s-0.26-0.18-0.43-0.25
			c-0.17-0.07-0.36-0.12-0.58-0.17c-0.32-0.08-0.71-0.11-1.14-0.1s-0.8,0.03-1.08,0.08l-0.06-0.01l0.46-1.02
			c0.23-0.01,0.56,0,1,0.03s0.85,0.08,1.23,0.17c0.79,0.18,1.36,0.45,1.69,0.79s0.44,0.78,0.32,1.31c-0.02,0.1-0.06,0.21-0.1,0.32
			c-0.04,0.11-0.09,0.22-0.14,0.31l-2.01,4.09l-1.06-0.25L236.44,318.15z M237.69,315.61c-0.59-0.11-1.12-0.19-1.59-0.23
			c-0.47-0.04-0.87-0.03-1.19,0.02c-0.34,0.05-0.61,0.17-0.82,0.35c-0.21,0.18-0.35,0.43-0.43,0.75c-0.06,0.27-0.02,0.5,0.13,0.69
			c0.15,0.19,0.42,0.33,0.82,0.42c0.35,0.08,0.72,0.09,1.11,0.02c0.4-0.07,0.77-0.18,1.14-0.32L237.69,315.61z"/>
		<path d="M246.75,316.67c-0.14,0.62-0.38,1.19-0.71,1.71c-0.33,0.52-0.7,0.94-1.11,1.26c-0.44,0.34-0.89,0.58-1.36,0.71
			c-0.47,0.13-0.96,0.14-1.47,0.02c-0.34-0.08-0.65-0.2-0.92-0.36c-0.27-0.16-0.51-0.34-0.71-0.54l-0.22,0.28l-1-0.23l4.12-8.4
			l1.07,0.25l-1.47,3c0.41-0.16,0.81-0.29,1.18-0.36c0.38-0.08,0.77-0.07,1.19,0.03c0.62,0.14,1.05,0.45,1.29,0.91
			S246.91,315.98,246.75,316.67z M244.38,318.82c0.29-0.28,0.54-0.61,0.73-0.98c0.2-0.37,0.35-0.78,0.46-1.23
			c0.11-0.45,0.09-0.83-0.05-1.12c-0.14-0.29-0.43-0.49-0.86-0.59c-0.32-0.07-0.66-0.07-1.04,0c-0.38,0.08-0.73,0.18-1.07,0.31
			l-1.69,3.45c0.21,0.19,0.43,0.34,0.64,0.47c0.21,0.13,0.48,0.23,0.8,0.3c0.4,0.09,0.77,0.08,1.13-0.04
			C243.79,319.28,244.11,319.08,244.38,318.82z"/>
		<path d="M254.77,316.42l-2.95,6.03l-1.07-0.25l0.33-0.67c-0.47,0.18-0.9,0.31-1.29,0.38c-0.39,0.07-0.78,0.07-1.17-0.03
			c-0.55-0.13-0.94-0.37-1.19-0.71c-0.24-0.35-0.3-0.79-0.18-1.31c0.03-0.13,0.07-0.25,0.11-0.37c0.05-0.12,0.1-0.25,0.17-0.4
			l1.92-3.92l1.07,0.25l-1.68,3.43c-0.07,0.14-0.14,0.3-0.22,0.49c-0.08,0.18-0.12,0.33-0.15,0.44c-0.08,0.33-0.05,0.59,0.08,0.79
			c0.13,0.2,0.39,0.35,0.79,0.44c0.28,0.07,0.62,0.06,1.02-0.02s0.78-0.19,1.13-0.33l2.21-4.51L254.77,316.42z"/>
		<path d="M259.14,314.8l-4.12,8.4l-1.07-0.25l4.12-8.4L259.14,314.8z"/>
		<path d="M268.43,326.33l-1.32-0.31l-1.44-3.92l-1.62-0.38l-1.57,3.21l-1.14-0.27l3.94-8.04l2.32,0.54
			c0.52,0.12,0.93,0.25,1.24,0.39c0.31,0.14,0.56,0.33,0.76,0.56c0.18,0.21,0.3,0.43,0.37,0.68c0.07,0.25,0.07,0.54-0.01,0.87
			c-0.17,0.71-0.53,1.28-1.1,1.71c-0.57,0.43-1.24,0.67-2,0.71L268.43,326.33z M268.65,319.65c0.05-0.2,0.06-0.38,0.03-0.53
			c-0.03-0.15-0.09-0.29-0.2-0.42c-0.12-0.15-0.27-0.27-0.47-0.37c-0.2-0.09-0.45-0.18-0.75-0.25l-1.28-0.3l-1.52,3.09l1.2,0.28
			c0.37,0.09,0.7,0.13,0.99,0.12c0.29,0,0.57-0.07,0.83-0.18c0.29-0.13,0.54-0.32,0.75-0.58
			C268.43,320.26,268.58,319.97,268.65,319.65z"/>
		<path d="M273.41,320.77l-2.96,6.03l-1.07-0.25l2.96-6.03L273.41,320.77z M274.5,318.73l-0.52,1.05l-1.21-0.28l0.52-1.05
			L274.5,318.73z"/>
		<path d="M280.97,322.54l-5.54,5.43l-1.07-0.25l0.4-6.63l1.09,0.25l-0.38,5.28l4.33-4.36L280.97,322.54z"/>
		<path d="M282.46,329.76c-0.88-0.21-1.52-0.57-1.93-1.11c-0.4-0.53-0.51-1.2-0.33-2c0.27-1.17,0.87-2.08,1.81-2.75
			c0.93-0.66,1.94-0.87,3.03-0.61c0.72,0.17,1.23,0.48,1.53,0.93s0.37,1,0.22,1.65c-0.03,0.11-0.08,0.29-0.18,0.53
			c-0.09,0.24-0.21,0.51-0.36,0.82l-4.7-1.1c-0.05,0.1-0.09,0.21-0.12,0.31c-0.03,0.1-0.06,0.2-0.08,0.29
			c-0.12,0.54-0.06,1,0.2,1.38s0.68,0.64,1.29,0.78c0.42,0.1,0.87,0.12,1.35,0.06c0.48-0.06,0.9-0.16,1.24-0.29l0.06,0.01l-0.5,1.1
			c-0.21,0.02-0.39,0.05-0.56,0.07c-0.17,0.02-0.37,0.03-0.62,0.04s-0.47,0-0.66-0.02S282.73,329.83,282.46,329.76z M285.54,326.23
			c0.04-0.11,0.08-0.2,0.11-0.27c0.02-0.07,0.05-0.16,0.07-0.25c0.09-0.41,0.06-0.75-0.11-1.03s-0.5-0.48-0.99-0.59
			c-0.54-0.13-1.06-0.07-1.55,0.17s-0.88,0.61-1.16,1.12L285.54,326.23z"/>
		<path d="M292.81,326.49l-0.06-0.01c-0.14-0.07-0.28-0.13-0.4-0.18c-0.13-0.05-0.28-0.09-0.47-0.14c-0.36-0.08-0.73-0.09-1.12-0.01
			c-0.39,0.08-0.77,0.2-1.15,0.35l-2.09,4.29l-1.08-0.25l2.94-6.03l1.08,0.25l-0.43,0.89c0.59-0.24,1.07-0.38,1.46-0.43
			c0.38-0.06,0.74-0.04,1.06,0.03c0.19,0.04,0.32,0.08,0.4,0.11c0.08,0.03,0.2,0.08,0.35,0.14L292.81,326.49z"/>
	</g>
	<g>
		<path d="M661.99,255.81l-1.31,2.82l6.26,4.89l-0.5,1.06l-6.26-4.89l-1.31,2.82l-0.8-0.62l3.12-6.7L661.99,255.81z"/>
		<path d="M669.84,255.65c0.01,0.12,0.03,0.29,0.06,0.5c0.03,0.21,0.04,0.42,0.03,0.63c0,0.22-0.03,0.45-0.08,0.7
			c-0.05,0.25-0.14,0.52-0.28,0.81c-0.22,0.47-0.54,0.79-0.95,0.96c-0.41,0.17-0.84,0.15-1.28-0.06c-0.47-0.22-0.82-0.51-1.05-0.87
			c-0.23-0.36-0.35-0.79-0.36-1.29c-0.02-0.49,0.06-1.04,0.23-1.65c0.17-0.61,0.42-1.28,0.73-2.01c-0.09-0.07-0.17-0.13-0.23-0.17
			c-0.07-0.05-0.14-0.09-0.22-0.13c-0.17-0.08-0.32-0.11-0.46-0.09c-0.14,0.02-0.27,0.07-0.39,0.17c-0.12,0.09-0.23,0.22-0.33,0.37
			c-0.1,0.15-0.2,0.33-0.29,0.53c-0.14,0.3-0.25,0.67-0.33,1.1c-0.08,0.43-0.13,0.79-0.15,1.08l-0.02,0.05l-0.91-0.66
			c0.04-0.23,0.12-0.55,0.23-0.97s0.25-0.81,0.42-1.17c0.34-0.74,0.71-1.24,1.12-1.5c0.4-0.26,0.85-0.27,1.35-0.04
			c0.1,0.04,0.19,0.1,0.29,0.17s0.19,0.13,0.28,0.2l3.59,2.8l-0.46,0.99L669.84,255.65z M667.61,253.91
			c-0.23,0.56-0.42,1.06-0.55,1.51s-0.21,0.84-0.22,1.17c-0.02,0.34,0.04,0.63,0.17,0.88c0.13,0.24,0.34,0.43,0.64,0.57
			c0.25,0.12,0.49,0.12,0.71,0.01c0.22-0.11,0.41-0.35,0.58-0.71c0.15-0.32,0.23-0.68,0.24-1.08c0.01-0.4-0.02-0.79-0.08-1.18
			L667.61,253.91z"/>
		<path d="M669.11,246.12l-0.02,0.05c-0.1,0.12-0.19,0.24-0.26,0.36c-0.07,0.11-0.15,0.26-0.23,0.43c-0.15,0.33-0.23,0.7-0.23,1.09
			c0,0.4,0.03,0.79,0.1,1.19l3.77,2.92l-0.47,1.01l-5.3-4.12l0.47-1.01l0.78,0.61c-0.11-0.62-0.15-1.13-0.13-1.52
			c0.03-0.39,0.11-0.73,0.25-1.03c0.08-0.17,0.14-0.3,0.19-0.37c0.04-0.07,0.11-0.18,0.21-0.32L669.11,246.12z"/>
		<path d="M672.67,240.62c0.58,0.27,1.09,0.62,1.53,1.04c0.44,0.43,0.78,0.88,1.01,1.35c0.24,0.5,0.38,0.99,0.41,1.48
			c0.03,0.49-0.06,0.97-0.28,1.44c-0.15,0.32-0.33,0.59-0.54,0.83c-0.21,0.24-0.44,0.43-0.68,0.58l0.23,0.27l-0.43,0.93l-7.38-5.76
			l0.46-1l2.64,2.06c-0.08-0.44-0.11-0.85-0.11-1.23c0-0.38,0.09-0.77,0.27-1.16c0.27-0.58,0.65-0.94,1.15-1.08
			C671.45,240.24,672.03,240.32,672.67,240.62z M674.29,243.37c-0.22-0.34-0.48-0.65-0.81-0.92c-0.32-0.27-0.69-0.5-1.11-0.7
			c-0.42-0.2-0.79-0.26-1.1-0.18c-0.31,0.08-0.57,0.32-0.75,0.72c-0.14,0.29-0.21,0.63-0.21,1.02c0,0.38,0.03,0.75,0.08,1.11
			l3.03,2.36c0.23-0.17,0.42-0.35,0.59-0.53c0.17-0.18,0.32-0.42,0.46-0.72c0.17-0.37,0.23-0.74,0.19-1.11
			C674.62,244.05,674.49,243.7,674.29,243.37z"/>
		<path d="M678.52,239.02c-0.38,0.82-0.88,1.38-1.48,1.66s-1.28,0.26-2.02-0.09c-1.09-0.51-1.86-1.28-2.32-2.33
			c-0.46-1.05-0.45-2.08,0.02-3.09c0.31-0.67,0.72-1.11,1.22-1.31c0.5-0.2,1.05-0.16,1.66,0.12c0.11,0.05,0.27,0.14,0.48,0.28
			c0.22,0.14,0.46,0.31,0.73,0.52l-2.04,4.37c0.09,0.07,0.19,0.13,0.28,0.19c0.09,0.06,0.18,0.1,0.27,0.14
			c0.5,0.23,0.96,0.26,1.39,0.09c0.43-0.17,0.77-0.54,1.03-1.1c0.18-0.39,0.29-0.83,0.33-1.31s0.03-0.91-0.03-1.28l0.03-0.06
			l0.98,0.72c-0.02,0.21-0.04,0.39-0.05,0.56c-0.01,0.17-0.04,0.37-0.09,0.62s-0.1,0.46-0.15,0.64S678.64,238.76,678.52,239.02z
			 M675.7,235.28c-0.09-0.07-0.18-0.12-0.24-0.16s-0.14-0.08-0.23-0.12c-0.38-0.18-0.72-0.21-1.03-0.1
			c-0.31,0.11-0.57,0.39-0.78,0.85c-0.23,0.5-0.29,1.02-0.16,1.56c0.13,0.53,0.42,0.99,0.86,1.37L675.7,235.28z"/>
		<path d="M673.19,228.51l7.38,5.76l-0.46,1l-7.38-5.76L673.19,228.51z"/>
		<path d="M682.61,228.24c0.01,0.12,0.03,0.29,0.06,0.5c0.03,0.21,0.04,0.42,0.03,0.63c0,0.22-0.03,0.45-0.08,0.7
			c-0.05,0.25-0.14,0.52-0.28,0.81c-0.22,0.47-0.54,0.79-0.95,0.96s-0.84,0.15-1.28-0.06c-0.47-0.22-0.82-0.51-1.05-0.87
			c-0.23-0.36-0.35-0.79-0.36-1.29c-0.02-0.49,0.06-1.04,0.24-1.65c0.17-0.61,0.42-1.28,0.73-2.01c-0.09-0.07-0.17-0.13-0.23-0.18
			c-0.07-0.05-0.14-0.09-0.21-0.13c-0.17-0.08-0.32-0.11-0.46-0.09c-0.14,0.02-0.27,0.07-0.39,0.17c-0.12,0.09-0.23,0.22-0.33,0.37
			s-0.2,0.33-0.29,0.53c-0.14,0.3-0.25,0.67-0.33,1.1c-0.08,0.43-0.13,0.79-0.15,1.08l-0.03,0.05l-0.91-0.66
			c0.04-0.23,0.12-0.55,0.23-0.97c0.11-0.42,0.25-0.81,0.42-1.17c0.34-0.74,0.72-1.23,1.12-1.5c0.4-0.26,0.85-0.28,1.35-0.04
			c0.1,0.04,0.19,0.1,0.29,0.17c0.1,0.07,0.19,0.13,0.28,0.2l3.59,2.8l-0.46,0.99L682.61,228.24z M680.38,226.49
			c-0.23,0.56-0.42,1.06-0.55,1.51c-0.14,0.45-0.21,0.84-0.22,1.17c-0.02,0.34,0.04,0.63,0.17,0.88c0.13,0.24,0.34,0.43,0.64,0.57
			c0.26,0.12,0.49,0.12,0.71,0.01s0.41-0.35,0.58-0.71c0.15-0.32,0.23-0.68,0.24-1.08c0.01-0.4-0.02-0.79-0.08-1.18L680.38,226.49z"
			/>
		<path d="M689.43,215.25l-0.57,1.23l-4.13,0.61l-0.7,1.51l2.82,2.2l-0.5,1.06l-7.06-5.5l1-2.16c0.22-0.48,0.44-0.86,0.64-1.13
			c0.2-0.27,0.44-0.48,0.7-0.63c0.24-0.13,0.49-0.2,0.74-0.22c0.26-0.02,0.54,0.05,0.85,0.19c0.66,0.31,1.14,0.78,1.45,1.43
			c0.31,0.64,0.4,1.35,0.28,2.11L689.43,215.25z M682.93,213.66c-0.19-0.09-0.36-0.13-0.51-0.14s-0.31,0.03-0.45,0.11
			c-0.17,0.08-0.33,0.21-0.46,0.39c-0.13,0.18-0.26,0.4-0.4,0.69l-0.55,1.19l2.72,2.12l0.52-1.11c0.16-0.35,0.27-0.66,0.32-0.95
			c0.05-0.28,0.05-0.57-0.01-0.85c-0.07-0.32-0.21-0.6-0.41-0.85C683.48,214,683.23,213.8,682.93,213.66z"/>
		<path d="M691.28,211.63c-0.38,0.82-0.88,1.37-1.48,1.66c-0.6,0.29-1.28,0.26-2.02-0.09c-1.09-0.51-1.86-1.28-2.32-2.33
			c-0.46-1.05-0.45-2.08,0.02-3.09c0.31-0.67,0.72-1.11,1.22-1.31c0.5-0.2,1.05-0.16,1.66,0.12c0.11,0.05,0.27,0.14,0.48,0.28
			c0.22,0.14,0.46,0.31,0.73,0.52l-2.04,4.37c0.09,0.07,0.19,0.13,0.28,0.19c0.1,0.06,0.18,0.1,0.27,0.14
			c0.5,0.23,0.96,0.26,1.39,0.09s0.77-0.54,1.03-1.1c0.18-0.39,0.29-0.83,0.33-1.31s0.03-0.91-0.03-1.28l0.03-0.06l0.98,0.72
			c-0.02,0.21-0.03,0.39-0.05,0.56c-0.01,0.17-0.04,0.37-0.09,0.62c-0.05,0.24-0.1,0.46-0.15,0.64
			C691.48,211.16,691.4,211.38,691.28,211.63z M688.46,207.89c-0.09-0.07-0.18-0.12-0.24-0.16c-0.07-0.04-0.14-0.08-0.23-0.12
			c-0.38-0.18-0.72-0.21-1.03-0.1c-0.31,0.11-0.57,0.39-0.78,0.85c-0.23,0.5-0.29,1.02-0.16,1.56c0.13,0.54,0.42,0.99,0.86,1.37
			L688.46,207.89z"/>
		<path d="M693.86,206.11c-0.21,0.44-0.45,0.81-0.72,1.11s-0.53,0.53-0.76,0.71l-0.96-0.72l0.02-0.05c0.1-0.04,0.22-0.11,0.36-0.18
			c0.14-0.08,0.3-0.19,0.47-0.33c0.16-0.13,0.32-0.29,0.48-0.47c0.16-0.19,0.29-0.4,0.41-0.65c0.23-0.5,0.32-0.93,0.27-1.3
			c-0.05-0.37-0.26-0.64-0.61-0.8c-0.19-0.09-0.37-0.08-0.53,0.02c-0.17,0.1-0.35,0.27-0.54,0.51c-0.1,0.12-0.21,0.27-0.34,0.45
			s-0.27,0.35-0.41,0.52c-0.31,0.36-0.62,0.59-0.94,0.68s-0.63,0.07-0.95-0.08c-0.28-0.13-0.51-0.31-0.69-0.54
			c-0.19-0.23-0.32-0.51-0.41-0.85c-0.09-0.32-0.11-0.68-0.06-1.08s0.17-0.82,0.37-1.25c0.17-0.35,0.37-0.69,0.63-1
			c0.25-0.31,0.5-0.55,0.73-0.71l0.92,0.69l-0.02,0.05c-0.07,0.04-0.17,0.09-0.31,0.17c-0.13,0.08-0.28,0.19-0.44,0.33
			c-0.14,0.12-0.28,0.27-0.42,0.45c-0.14,0.18-0.27,0.38-0.37,0.6c-0.21,0.44-0.28,0.84-0.22,1.21c0.06,0.36,0.25,0.62,0.57,0.77
			c0.18,0.08,0.36,0.08,0.54,0.01c0.18-0.08,0.37-0.24,0.57-0.49c0.12-0.15,0.25-0.32,0.37-0.49c0.12-0.17,0.25-0.34,0.38-0.49
			c0.29-0.36,0.6-0.6,0.91-0.7s0.63-0.08,0.96,0.07c0.27,0.13,0.51,0.32,0.71,0.57c0.2,0.25,0.34,0.54,0.42,0.88
			c0.08,0.35,0.1,0.72,0.05,1.13C694.2,205.23,694.07,205.66,693.86,206.11z"/>
		<path d="M696.94,199.49c-0.38,0.82-0.88,1.38-1.48,1.66c-0.6,0.29-1.28,0.26-2.02-0.09c-1.09-0.51-1.86-1.28-2.32-2.33
			c-0.46-1.05-0.45-2.08,0.02-3.09c0.31-0.67,0.72-1.11,1.22-1.31c0.5-0.2,1.05-0.16,1.66,0.12c0.11,0.05,0.27,0.14,0.48,0.28
			c0.22,0.14,0.46,0.31,0.73,0.52l-2.04,4.37c0.09,0.07,0.19,0.13,0.28,0.19c0.1,0.05,0.19,0.1,0.27,0.14
			c0.5,0.23,0.96,0.26,1.39,0.09c0.43-0.17,0.77-0.54,1.03-1.1c0.18-0.39,0.29-0.83,0.33-1.31c0.04-0.48,0.03-0.91-0.03-1.28
			l0.03-0.06l0.98,0.72c-0.02,0.21-0.04,0.39-0.05,0.56c-0.01,0.17-0.04,0.37-0.09,0.62s-0.1,0.46-0.15,0.64
			C697.14,199.01,697.06,199.23,696.94,199.49z M694.12,195.74c-0.09-0.07-0.17-0.12-0.24-0.16c-0.07-0.04-0.14-0.08-0.23-0.12
			c-0.38-0.18-0.72-0.21-1.03-0.1c-0.31,0.11-0.57,0.39-0.78,0.85c-0.23,0.5-0.29,1.02-0.16,1.56c0.13,0.53,0.42,0.99,0.86,1.37
			L694.12,195.74z"/>
		<path d="M695.86,188.68l-0.02,0.05c-0.1,0.12-0.19,0.24-0.26,0.36c-0.07,0.11-0.15,0.26-0.23,0.43c-0.15,0.33-0.23,0.7-0.23,1.09
			c0,0.4,0.03,0.79,0.1,1.19l3.77,2.92l-0.47,1.01l-5.3-4.12l0.47-1.01l0.78,0.61c-0.11-0.62-0.15-1.13-0.13-1.52
			c0.03-0.39,0.11-0.73,0.25-1.03c0.08-0.17,0.14-0.3,0.19-0.37c0.04-0.07,0.12-0.18,0.21-0.32L695.86,188.68z"/>
		<path d="M697.73,181.92l4.18,6.53l-0.46,0.99l-6.41-1.75l0.47-1.01l5.09,1.46l-3.38-5.13L697.73,181.92z"/>
		<path d="M702.55,177.06c0.53,0.25,1,0.57,1.42,0.96c0.41,0.39,0.73,0.82,0.95,1.29c0.23,0.48,0.36,0.97,0.38,1.48
			s-0.09,1.02-0.34,1.56c-0.33,0.7-0.79,1.16-1.37,1.37c-0.59,0.21-1.23,0.15-1.94-0.18c-0.53-0.25-1-0.56-1.41-0.95
			s-0.73-0.82-0.96-1.3c-0.22-0.46-0.34-0.96-0.36-1.48s0.09-1.04,0.33-1.55c0.32-0.68,0.77-1.14,1.34-1.36
			S701.82,176.72,702.55,177.06z M704.03,179.73c-0.19-0.32-0.45-0.62-0.78-0.9c-0.33-0.27-0.69-0.51-1.11-0.7
			c-0.5-0.23-0.93-0.29-1.29-0.17c-0.37,0.12-0.65,0.39-0.85,0.83c-0.16,0.34-0.22,0.69-0.18,1.04s0.15,0.69,0.35,1.02
			c0.19,0.32,0.45,0.62,0.78,0.9c0.33,0.28,0.69,0.51,1.1,0.7c0.49,0.23,0.92,0.28,1.29,0.17c0.37-0.12,0.66-0.39,0.86-0.83
			c0.16-0.34,0.22-0.69,0.19-1.04C704.35,180.4,704.23,180.06,704.03,179.73z"/>
		<path d="M700.14,171.45l0.92,0.72l-0.53,1.13l-0.92-0.72L700.14,171.45z M701.92,172.94l5.29,4.13l-0.46,1l-5.29-4.13
			L701.92,172.94z"/>
		<path d="M705.48,168.03l-0.03,0.05c-0.1,0.12-0.19,0.24-0.26,0.36c-0.07,0.11-0.15,0.26-0.23,0.43c-0.15,0.33-0.23,0.7-0.23,1.09
			c0,0.4,0.03,0.79,0.1,1.19l3.77,2.92l-0.47,1.01l-5.3-4.12l0.47-1.01l0.78,0.61c-0.11-0.62-0.15-1.13-0.13-1.52
			c0.03-0.39,0.11-0.73,0.25-1.03c0.08-0.17,0.14-0.3,0.19-0.37c0.05-0.07,0.12-0.18,0.21-0.32L705.48,168.03z"/>
	</g>
</g>
<g id="tarbela_res">
	<path class="st10" d="M682.33,294.46c5.02-1.81,10.71-2.37,15.25-5.35c1.47-0.97,7.51-9.38,7.99-9.42c4.47-0.4,4.26,1.33,7.48,3.93
		c2.17,1.75,5.05,2.77,7.34,4.29c1.36,4.98,5.04,10.76,11.22,8.85c0.8-5.09-2.16-11.32-6.75-13.33c-2.98-1.31-4.24-1.09-6.19-3.9
		c-1.67-2.41-2.17-4.28-2.33-7.31c-0.38-7.36,0.2-12.45-3.09-18.75c-1.98-3.8-4.79-14.15,2.3-14.68c-2.97-3.86-3.36-9.79-2.22-14.68
		c1.08,1.27,5.22,6.9,7.14,3.93c0.62-0.96-1.6-5.41-2.26-6.25c-0.28,0.02-0.5,0.14-0.68,0.35c-1.36-0.69-2.3,0.8-3.46-1.2
		c-0.66-1.13,0.01-4.64,0.01-6c0-4.09,0.21-8,0.76-11.98c0.94-6.8,4.42-13.35,6.98-19.41c2.86-6.74,6.43-15.01,7.61-22.34
		c0.54-3.35-0.38-6.35-1.42-9.17c-0.98-2.66-1.32-6.24-2.63-8.48c-0.41,0.69-1.15,1.65-1.95,1.84c-3.39,0.8-6.5,1.72-8.9-1.05
		c-1.88-2.16-3.56-6.25-4.27-8.96c-0.86-3.29-0.15-7.17-1.03-10.56c-0.78-3.01-1.97-5.93-2.71-8.86
		c-3.07-12.21-1.15-26.02,10.49-32.32c0.27-5.22-3.72-8.54-3.31-13.65c1.83,6.24,0.6,10.23-4.84,14.1
		c-5.25,3.74-7.12,6.75-7.11,13.45c0.01,6.23-1.21,14.1,0.75,19.92c1.03,3.06,2.71,5.18,2.99,8.49c0.29,3.53-0.01,6.9,0.66,10.37
		c1.02,5.27-0.81,13.65,2.71,17.76c2.35,2.74,5,4.44,6.74,7.76c1.98,3.77,0.97,6.12-0.01,10.1c-1.73,7.02-4.46,10.68-9.37,15.79
		c-2.43,2.53-2.11,4.79-3.03,7.86c-2.42,8.04-4.61,14.25-3.78,22.97c0.36,3.74,2.14,7.26,1.42,11.32
		c-0.71,4.04-3.18,7.22-4.61,10.96c-1.27,3.34-1.92,6.91-3.9,10.29c-2.95,5.04-8.64,11.07-13.06,15.71
		c-9.37,9.82-24.93,13.57-32.36,26.18c-4.16,7.06,9.15,8.63,14.75,9.45c2.48,0.36,5.04,1.04,7.33-0.25
		c2.18-1.23,1.39-2.94,2.69-4.26C674.18,295.45,678.63,295.79,682.33,294.46z"/>
</g>
<g id="big_rivers">
	<path class="st11" d="M309.41,550.66c2.4-7.31,5.39-15.83,9.22-22.78c4.64-8.42,12.37-13.18,16.6-21.22
		c1.77-3.35,1.33-8.86,4.15-12.02c2.62-2.94,6.71-2.98,10.01-4.71c1.5-0.79,2.75-1.58,4.32-2.27c1.68-0.74,3.25-2.12,3.45-4.05
		c0.19-1.83-0.48-3.64-1.5-5.01c-0.97-1.32-1.96-2.22-1.81-4.02c2.35-0.72,4.31,0.35,6.63,0.44c1.34,0.05,2.08,0.29,3.32,0.71
		c1.54,0.52,3.28,0.44,4.93,0.44c1.73,0,2.05,0.9,3.55,1.58c1.72,0.77,3.81,0.17,5.51,0.8c1,0.37,1.51,1.15,2.38,1.66
		c1.42,0.85,3.25,0.59,4.62,1.51c0.53,0.35,0.92,0.97,1.52,1.22c0.87,0.37,1.98,0.26,2.92,0.53c2.22,0.62,4.48,0.31,6.68,0.74
		c1.4,0.27,2.98,1.14,4.18,1.93c1.48,0.97,3.12,0.62,4.81,0.77c2.99,0.28,5.62,1.53,8.55,1.75c1.32,0.1,2.09-0.12,3.33-0.35
		c0.55-0.1,1.3,0.21,1.81,0.01c0.82-0.33,0.48-0.36,0.59-1.26c0.75-5.75,8.93-2.57,12.15-0.89c0.65,0.34,2.62,1.3,3.33,0.55
		c0.98-1.04-0.97-3.2-1.51-3.89c-2.19-2.83-3.6-5.73-3.78-9.3c-0.16-3.14-0.45-6.27-0.12-9.38c0.16-1.47,1.03-2.72,1.41-4.12
		c0.6-2.21,0.52-4.57,0.6-6.84c0.1-2.59,0.28-5.17,0.28-7.77c0-2.77,0.9-5.07,1.03-7.77c0.1-2.01-0.43-4.53,0.71-6.19
		c2.09-3.05-1.64-3.04-2.55-5.62c-0.49-1.38-0.11-3.48-0.11-4.94c0-1.69-0.03-3.47-0.23-5.15c-0.25-2.09-0.8-4.04,1.03-5.5
		c1.31-1.05,3.57-1.53,5.06-2.5c0.96-0.62,2.29-1.23,3.11-2c0.7-0.65,0.75-1.43,1.26-2.27c1.07-1.76,3.14-2.88,5.13-3.2
		c1.29-0.21,2.82,0,4.12,0c1.35,0,3.33,0.43,4.57,0c3.06-1.08,3.65-5.63,6.27-7.34c1.04-0.68,2.06-1.03,2.26-2.4
		c0.15-1,0.19-1.96,0.39-2.99c0.45-2.25,0.46-4.38,2.84-5.48c3.04-1.41,6.89-0.1,9.92,0.47c3.22,0.6,9.11,1.11,10.98-2.46
		c0.41-0.79,0.05-1.62,0.25-2.42c0.19-0.78,0.87-1.59,1.44-2.13c1.3-1.21,3.19-1.04,4.38-2.07c1.05-0.91,0.75-2.71,1.29-3.83
		c0.55-1.14,1.41-1.99,1.92-3.23c1.33-3.27,3.38-6.15,6.94-6.8c2.05-0.37,4.73,0.77,6.62,0.09c1.56-0.56,2.89-2.66,4.21-3.76
		c1.5-1.25,3.25-2.29,4.5-3.75c1.25-1.46,2.48-2.92,3.73-4.4c1.28-1.51,2.97-3.28,4.61-4.38c2.02-1.36,4.08,0.56,6.46,0.57
		c2.7,0.01,5.28-2.47,8.12-1.84c0.83,0.18,1.53,1.12,2.18,1.61c1.41,1.06,3,1.04,4.72,1.03c1.77,0,4.14-0.41,5.81,0.05
		c1.68,0.46,3.51,1.62,5.38,0.93c1.24-0.46,2.29-1.5,3.78-0.75c1.59,0.79,2.14,2.46,4.12,2.52c2.25,0.06,5-0.62,6.77,1.04
		c0.8,0.75,1.39,1.73,2.17,2.52c0.97,0.98,1.76,1.42,2.96,2c2.64,1.27,5.1,2.58,7.99,3.3c2.41,0.61,6.31,1.69,8.8,0.83
		c2-0.69,3.26-3.5,3.77-5.34c0.19-0.71,0.05-1.56,0.81-1.98c0.54-0.3,1.22-0.09,1.81-0.21c0.68-0.14,1.28-0.49,1.9-0.8
		c1.42-0.72,2.82-1.49,4.18-2.32c2.94-1.77,5.75-3.77,8.43-5.92c7.4-5.93,15.58-12.42,20.56-20.65c2.07-3.42,2.68-8.3,4.91-11.36
		c3.09-4.23,8.7-5.54,11.53-10"/>
	<path class="st11" d="M12.24,257.67c0.09-0.05,0.05-0.19,0.2-0.21c2.08,1.02,3.53,0.39,5.36-0.16c3.07-0.92,6.8-0.34,9.96-0.32
		c1.07,0.01,2.26,0.18,3.18-0.45c0.4-0.27,0.64-0.69,1.14-0.92c0.47-0.21,1.08-0.37,1.58-0.46c2.35-0.47,4.99-0.83,7.39-1.03
		c2.29-0.19,4.95,0.53,7.17,0.01c0.74-0.17,1.56-0.74,2.32-1.01c1.09-0.4,2.01-0.37,3.18-0.37c5.1,0,10.48,0.59,15.5-0.12
		c2.96-0.42,5.58,0.69,8.05-1.41c1.68-1.43,3.03-3.74,5.47-3.86c1.2-0.06,2.17,0.94,3.36,1.16c2.14,0.4,5.4,1.1,7.49,0.1
		c1.86,2.1,5.18,3.98,7.96,4.32c1.84,0.23,3.71-0.38,5.52-0.2c1.14,0.11,1.51,0.78,2.4,1.43c1.25,0.91,2.43,1.31,3.94,1.32
		c1.47,0,3.38-0.32,4.67,0.46c0.81,0.49,1.32,1.33,2.23,1.73c1.08,0.48,2.33,0.33,3.5,0.33c1.88,0,4.06,0.1,5.79,0.69
		c1.42,0.48,2.27,1.84,3.49,2.75c1.32,0.98,2.29,2.3,3.85,2.75c0.6,0.17,1.62,0.14,2.11,0.43c0.6,0.35,0.92,1.16,1.58,1.53
		c1.58,0.89,3.16,0.45,4.79,0.91c1.24,0.35,1.85,1.55,2.89,2.13c1.09,0.61,2.28,0.15,3.53,0.39c1.52,0.29,2.06,1.73,3.26,2.5
		c1.2,0.77,2.55,0.44,3.84,0.94c1.47,0.57,2.3,1.99,3.81,2.3c1.18,0.24,2.33,0.25,3.44,0.72c1.08,0.46,2.33,0.88,3.3,1.56
		c0.85,0.6,1.47,1.36,2.38,1.92c1.85,1.13,3.77,2.21,4.44,4.42c0.91,3.05,1.52,6.14,1.8,9.38c0.13,1.53-0.24,4.68,1.48,5.17
		c0.94,0.26,2.71,0.12,3.69,0.1c1.31-0.01,2.81-0.01,4-0.52c1.44-0.62,2.82-1.52,4.36-1.78c1.11-0.19,2.29-0.04,3.44,0
		c1.72,0.06,3.58,0.56,5.18,1.01c1.52,0.43,4.24,1.6,5.47,2.64c0.63,0.53,1.57,1.89,1.5,2.77c-0.08,0.97-0.93,1.67-0.13,2.63
		c0.37,0.45,1.32,0.88,1.81,1.17c1.03,0.62,2.03,1.22,2.93,2.06c0.75,0.7,1.72,1.44,2.33,2.27c0.57,0.78,0.76,1.47,1.6,2.08
		c1.15,0.83,1.63,0.97,2.03,2.39c0.36,1.27,0.22,3.11,1.11,4.18c0.99,1.19,3.04,0.96,4.43,1.09c2.51,0.23,4.85,1.37,7.25,2.05
		c1.45,0.41,3.35,0.04,4.7,0.68c0.78,0.37,0.94,0.73,1.54,1.38c0.91,0.97,2.03,1.35,3.05,2.09c1.42,1.02,1.67,2.98,2.68,4.36
		c0.96,1.31,1.85,2.67,3.41,3.1c1.71,0.47,4.2,1.58,5.85,0.78c1.53-0.75,3.09-1.36,4.7-2.04c1.59-0.67,3.58-2.51,5.39-2.29
		c0.94,0.11,1.75,0.68,2.75,0.83c1.03,0.16,1.91-0.03,2.86-0.12c2.46-0.23,4.8,0.45,7.02,1.41c2,0.87,2.26,3.22,4.2,4.27
		c0.99,0.54,2.12,0.56,3.12,1.03c0.79,0.38,1.56,1.05,2.45,1.26c1.6,0.37,3.28-0.02,4.88-0.09c1.81-0.08,2.38,0.55,3.77,1.38
		c1.44,0.85,2.83,0.86,4.36,0.8c2.79-0.12,3.97,1.62,6.27,2.58c2.04,0.86,4.47,1,6.66,0.97c2.11-0.03,4.19-0.1,6.33-0.1
		c2.66,0,5.86,0.84,8.39,0.09c1.82-0.54,2.38-1.54,3.19-2.96c0.62-1.1,1.28-1.68,2.49-1.98c1.55-0.39,2.86-0.37,4.12,0.49
		c1.46,1,2.96,2.11,4.62,2.75c4,1.54,8.69-1.85,12.61,0.24c2.49,1.32,4.34,2.47,7.32,2.75c1.87,0.17,3.74-0.01,5.61,0.12
		c1.89,0.12,3.74,1.17,5.61,1.62c2.73,0.65,6.27,0.34,9.05,0.22c2.54-0.11,5.32-0.49,7.77,0.27c1.33,0.41,2.58,0.97,3.96,1.24
		c1.16,0.23,2.42,0.12,3.44,0.77c2.21,1.4,2.98,3.49,5.85,4.03c1.91,0.36,2.8,0.67,4.24,2.03c1.66,1.57,4.17,1.59,5.9,2.86
		c1.41,1.03,3.51,2.72,4.4,4.24c0.96,1.63,0.24,4.06,1.28,5.74c0.91,1.48,2.54,1.27,3.82,2.23c1.63,1.22,2.11,3.54,2.87,5.29
		c0.62,1.42,1.83,1.96,2.51,3.04c0.53,0.84,0.62,1.84,0.91,2.75c0.76,2.32,4.12,2.91,5.16,5.13c0.51,1.09,0.2,2.89,0.21,4.17
		c0,1.5-0.62,2.4-1.03,3.77c-0.34,1.14-0.23,2.15-0.35,3.32c-0.2,1.97-0.18,4.02-0.09,6.08c0.09,1.99,0.04,3.97,0.78,5.73"/>
	<path class="st11" d="M518.57,352.36c1.64-0.64,3.41-1.94,5.16-2.52c1.02-0.33,2.38-0.26,3.38,0.2c1.03,0.47,1.28,1.67,1.93,2.49
		c0.82,1.03,2,2.02,3.04,2.82c1.17,0.89,3.28,2.05,4.77,1.23c1.43-0.79,2.78-1.99,4.14-2.99c1.82-1.33,2.89,0.29,4.89-0.31
		c1.39-0.42,2.11-1.87,2.93-2.98c1.15-1.57,2.55-3.9,4.26-4.7c0.98-0.46,1.84-0.21,2.63,0.59c1.36,1.38,0.15,2.17-0.2,3.71
		c-0.97,4.22,4.48,3.58,7.2,3.96c1.3,0.18,2.33,0.65,3.2-0.41c0.71-0.87,0.93-2.05,1.96-2.72c1.11-0.72,2.11-0.53,2.96,0.35
		c0.88,0.92,1.14,1.18,2.36,1.6c1.49,0.52,1.91,0.57,3.39,0.13c0.78-0.23,2.21-0.58,2.75,0.24"/>
	<g>
	</g>
	<g>
	</g>
	<g>
	</g>
	<g>
	</g>
	<g>
	</g>
	<g>
	</g>
</g>
</svg>
